<?xml version="1.0" standalone="no"?>
<!DOCTYPE svg PUBLIC "-//W3C//DTD SVG 1.1//EN" "http://www.w3.org/Graphics/SVG/1.1/DTD/svg11.dtd" >
<svg xmlns="http://www.w3.org/2000/svg">
<metadata>
Created by FontPrep 20130207 at Tue Dec  3 03:35:49 2013
 By Bryan Willis
Copyright (C) 2001, 2008 Hoefler &#38; Frere-Jones. http://www.typography.com
</metadata>
<defs>
<font id="618bc9740407ffc3e44b02f02685933e" horiz-adv-x='1024' >
  <font-face 
    font-family="GothamNarrow-Ultra"
    font-weight="500"
    font-stretch="condensed"
    units-per-em="2048"
    panose-1="0 0 0 0 0 0 0 0 0 0"
    ascent="1638"
    descent="-410"
    x-height="1118"
    cap-height="1434"
    bbox="-152 -606 2382 2109"
    underline-thickness="102"
    underline-position="-102"
    unicode-range="U+0020-FB04"
  />
<missing-glyph 
d="M512 492l-367 -799h734zM922 1384l-353 -770l353 -770v1540zM102 -156l353 770l-353 770v-1540zM145 1536l367 -799l367 799h-734zM0 -410v2048h1024v-2048h-1024z" />
    <glyph glyph-name="f_f" unicode="ff" horiz-adv-x="1540" 
d="M129 1118q0 377 391 377q147 0 246 -25v-282q-61 14 -119 14q-98 0 -98 -84v-10h217v-324h-209v-784h-428v784h-106v334h106zM899 0v784h-108v324h108v2q0 193 96 289t297 96q145 0 244 -25v-282q-57 14 -119 14q-98 0 -98 -84v-10h217v-324h-207v-784h-430z" />
    <glyph glyph-name="fi" unicode="fi" horiz-adv-x="1325" 
d="M827 1192v293h443v-293h-443zM834 0v1118h430v-1118h-430zM129 1118q0 377 391 377q147 0 246 -25v-282q-61 14 -119 14q-98 0 -98 -84v-10h217v-324h-209v-784h-428v784h-106v334h106z" />
    <glyph glyph-name="fl" unicode="fl" horiz-adv-x="1325" 
d="M834 0v1485h430v-1485h-430zM129 1118q0 377 391 377q147 0 246 -25v-282q-61 14 -119 14q-98 0 -98 -84v-10h217v-324h-209v-784h-428v784h-106v334h106z" />
    <glyph glyph-name="f_f_i" unicode="ffi" horiz-adv-x="2097" 
d="M1597 1192v293h443v-293h-443zM1604 0v1118h430v-1118h-430zM129 1118q0 377 391 377q147 0 246 -25v-282q-61 14 -119 14q-98 0 -98 -84v-10h217v-324h-209v-784h-428v784h-106v334h106zM899 0v784h-108v324h108v2q0 193 96 289t297 96q145 0 244 -25v-282
q-57 14 -119 14q-98 0 -98 -84v-10h217v-324h-207v-784h-430z" />
    <glyph glyph-name="f_f_l" unicode="ffl" horiz-adv-x="2097" 
d="M1604 0v1485h430v-1485h-430zM129 1118q0 377 391 377q147 0 246 -25v-282q-61 14 -119 14q-98 0 -98 -84v-10h217v-324h-209v-784h-428v784h-106v334h106zM899 0v784h-108v324h108v2q0 193 96 289t297 96q145 0 244 -25v-282q-57 14 -119 14q-98 0 -98 -84v-10h217v-324
h-207v-784h-430z" />
    <glyph glyph-name=".notdef" 
d="M512 492l-367 -799h734zM922 1384l-353 -770l353 -770v1540zM102 -156l353 770l-353 770v-1540zM145 1536l367 -799l367 799h-734zM0 -410v2048h1024v-2048h-1024z" />
    <glyph glyph-name=".null" horiz-adv-x="0" 
 />
    <glyph glyph-name="nonmarkingreturn" horiz-adv-x="681" 
 />
    <glyph glyph-name="space" unicode=" " horiz-adv-x="405" 
 />
    <glyph glyph-name="exclam" unicode="!" horiz-adv-x="608" 
d="M80 0v369h448v-369h-448zM55 1434h498v-215l-141 -764h-215l-142 764v215z" />
    <glyph glyph-name="quotedbl" unicode="&#x22;" horiz-adv-x="1009" 
d="M504 1434v-13l-260 -753h-215l37 766h438zM1006 1434v-13l-261 -753h-215l37 766h439z" />
    <glyph glyph-name="numbersign" unicode="#" horiz-adv-x="1277" 
d="M545 827l-31 -213h215l33 213h-217zM1180 629v-371h-224l-38 -258h-295l39 258h-191l-39 -258h-293l39 258h-137v371h192l29 184h-166v371h221l39 250h295l-39 -250h191l39 250h295l-39 -250h139v-371h-197l-26 -184h166z" />
    <glyph glyph-name="dollar" unicode="$" horiz-adv-x="1210" 
d="M618 1092h-20q-123 0 -123 -72v-4q0 -37 43 -60t154 -45q266 -72 391 -172t125 -286v-9q0 -180 -120 -297t-323 -143v-211h-227v209q-301 33 -518 195l186 307q236 -162 449 -162h20q133 0 133 74v4q0 36 -45 58t-163 46q-260 72 -385 172t-125 283v8q0 182 118 301
q119 119 334 142v133h230v-136q231 -28 413 -155l-180 -309q-76 55 -178 92t-189 37z" />
    <glyph glyph-name="percent" unicode="%" horiz-adv-x="1683" 
d="M1294 219q39 0 64 42t24 118v18q0 76 -23 118q-24 42 -65 42q-86 0 -86 -160v-18q0 -76 24 -118t62 -42zM1640 381q0 -177 -96 -289t-249 -112t-249 112t-96 289v14q0 178 96 290t250 112t249 -112t95 -290v-14zM760 770l452 664h269l-563 -783l-445 -651h-268zM389 1214
q-88 0 -88 -159v-19q0 -76 25 -118q26 -42 64 -41q38 0 62 42t23 117v19q1 75 -23 117t-63 42zM733 1038q0 -178 -96 -290t-249 -111q-153 0 -249 112t-96 289v15q0 177 95 289t250 112t250 -112t95 -289v-15z" />
    <glyph glyph-name="ampersand" unicode="&#x26;" horiz-adv-x="1296" 
d="M446 414q0 -57 38 -91t94 -34q57 0 112 33l-186 221q-57 -55 -58 -123v-6zM707 1079q0 43 -22 69q-21 26 -57 26t-58 -28t-21 -75v-2q0 -72 59 -156q98 66 99 164v2zM510 -27q-213 0 -352 110t-140 302v6q0 260 271 402q-96 145 -96 284v4q0 160 119 271q120 110 312 110
t305 -101q114 -101 113 -263v-4q0 -229 -243 -377l121 -139q23 35 98 192l280 -113q-76 -199 -161 -325l147 -166l-287 -197l-104 117q-170 -113 -383 -113z" />
    <glyph glyph-name="quotesingle" unicode="'" horiz-adv-x="516" 
d="M514 1434v-13l-264 -753h-221l37 766h448z" />
    <glyph glyph-name="parenleft" unicode="(" horiz-adv-x="802" 
d="M49 571v31q1 322 149 526t427 334l161 -264q-178 -117 -250 -263t-73 -347v-4q0 -199 73 -345t250 -266l-161 -262q-276 129 -426 333t-150 527z" />
    <glyph glyph-name="parenright" unicode=")" horiz-adv-x="802" 
d="M340 584v4q0 201 -73 347t-251 263l160 264q278 -131 428 -335t150 -525v-31q0 -323 -150 -527t-428 -333l-160 262q178 119 251 265t73 346z" />
    <glyph glyph-name="asterisk" unicode="*" horiz-adv-x="800" 
d="M272 680l72 276l-201 -198l-133 221l277 80l-277 78l133 223l201 -201l-72 279h256l-69 -279l200 201l132 -223l-277 -78l277 -80l-132 -221l-200 198l69 -276h-256z" />
    <glyph glyph-name="plus" unicode="+" horiz-adv-x="1175" 
d="M395 209v326h-317v372h317v324h387v-324h316v-372h-316v-326h-387z" />
    <glyph glyph-name="comma" unicode="," horiz-adv-x="530" 
d="M45 6v440h442v-352q1 -210 -111 -306t-315 -110l-34 160q199 31 204 168h-186z" />
    <glyph glyph-name="hyphen" unicode="-" horiz-adv-x="772" 
d="M51 461v368h670v-368h-670z" />
    <glyph glyph-name="period" unicode="." horiz-adv-x="530" 
d="M45 0v440h442v-440h-442z" />
    <glyph glyph-name="slash" unicode="/" horiz-adv-x="962" 
d="M-82 -242l776 1856h326l-774 -1856h-328z" />
    <glyph glyph-name="zero" unicode="0" horiz-adv-x="1316" 
d="M659 358q82 0 127 87t45 251v39q0 164 -46 252t-128 88t-127 -87t-45 -251v-39q0 -164 46 -252t128 -88zM656 -31q-282 0 -446 204t-163 523v37q0 317 166 524t448 207q281 0 445 -204t164 -523v-37q0 -317 -166 -524t-448 -207z" />
    <glyph glyph-name="one" unicode="1" horiz-adv-x="772" 
d="M258 0v1034l-205 -49l-57 352l371 105h329v-1442h-438z" />
    <glyph glyph-name="two" unicode="2" horiz-adv-x="1122" 
d="M35 0v340l493 442q117 109 117 183q0 45 -31 75t-88 31q-98 0 -262 -156l-246 287q130 134 260 196t302 62q221 0 361 -123t140 -315v-6q0 -132 -60 -232t-192 -213l-239 -204h497v-367h-1052z" />
    <glyph glyph-name="three" unicode="3" horiz-adv-x="1112" 
d="M545 -29q-334 0 -549 193l217 309q139 -123 293 -123q72 0 114 33t42 86v4q0 127 -230 127h-125l-43 221l287 250h-461v363h973v-328l-301 -254q328 -94 328 -399v-4q0 -223 -154 -351t-391 -127z" />
    <glyph glyph-name="four" unicode="4" horiz-adv-x="1247" 
d="M659 563v385l-251 -385h251zM655 0v240h-602l-53 309l604 893h475v-875h154v-327h-154v-240h-424z" />
    <glyph glyph-name="five" unicode="5" horiz-adv-x="1130" 
d="M524 -29q-297 0 -526 183l199 319q180 -127 309 -127q78 0 123 39t45 102v5q0 63 -43 100t-121 37t-174 -68l-248 123l39 750h915v-367h-585l-11 -180q98 51 211 51q185 0 315 -115t130 -329v-7q0 -242 -162 -379t-416 -137z" />
    <glyph glyph-name="six" unicode="6" horiz-adv-x="1204" 
d="M609 297q62 0 97 47q34 47 33 127v4q0 76 -36 124t-98 48t-96 -47t-34 -125v-4q0 -78 36 -126t98 -48zM1157 500q1 -248 -153 -390t-390 -141q-236 0 -391 150q-178 178 -178 561v4q0 370 171 574t474 204q231 0 426 -121l-164 -315q-122 84 -240 84t-173 -78t-64 -186
q123 96 280 96t279 -114t123 -320v-8z" />
    <glyph glyph-name="seven" unicode="7" horiz-adv-x="1089" 
d="M41 1053v381h1030v-314l-516 -1120h-467l508 1053h-555z" />
    <glyph glyph-name="eight" unicode="8" horiz-adv-x="1161" 
d="M442 442q0 -66 37 -110t101 -43q64 0 102 45q37 45 37 108v4q0 66 -38 109t-100 43q-63 0 -101 -43t-38 -109v-4zM453 1006q0 -68 36 -108t92 -40t92 40t36 108v2q0 63 -36 103t-92 40q-57 0 -93 -39t-35 -104v-2zM580 -27q-252 0 -406 115t-154 303v8q0 238 228 344
q-190 115 -191 312v6q-1 176 145 288q146 111 378 111t378 -110q145 -110 146 -287v-8q0 -195 -193 -310q229 -109 230 -344v-8q-1 -188 -155 -304t-406 -116z" />
    <glyph glyph-name="nine" unicode="9" horiz-adv-x="1204" 
d="M600 772q61 0 96 48t35 128v4q0 82 -37 133t-98 51t-96 -50t-35 -132v-4q0 -80 37 -129t98 -49zM488 324q125 0 179 76t62 180q-117 -104 -277 -104t-283 116q-122 117 -122 328v6q0 252 153 395q154 143 392 143t393 -151q174 -174 174 -561v-4q0 -375 -171 -576
t-472 -201q-238 0 -446 133l161 310q132 -90 257 -90z" />
    <glyph glyph-name="colon" unicode=":" horiz-adv-x="544" 
d="M51 0v440h443v-440h-443zM51 678v440h443v-440h-443z" />
    <glyph glyph-name="semicolon" unicode=";" horiz-adv-x="544" 
d="M51 0v440h443v-352q0 -212 -112 -306t-314 -110l-35 160q201 31 205 168h-187zM51 678v440h443v-440h-443z" />
    <glyph glyph-name="less" unicode="&#x3c;" horiz-adv-x="1175" 
d="M1053 143l-955 379v396l955 378v-409l-574 -168l574 -166v-410z" />
    <glyph glyph-name="equal" unicode="=" horiz-adv-x="1175" 
d="M90 270v367h995v-367h-995zM90 805v366h995v-366h-995z" />
    <glyph glyph-name="greater" unicode="&#x3e;" horiz-adv-x="1175" 
d="M123 143v410l575 166l-575 166v411l954 -378v-396z" />
    <glyph glyph-name="question" unicode="?" horiz-adv-x="993" 
d="M229 0v369h449v-369h-449zM553 981v2q0 37 -30 59t-83 23q-117 0 -270 -113l-176 330q223 174 493 174q221 0 357 -116t135 -304v-2q0 -170 -92 -267t-266 -155l-27 -157h-268l-54 360l19 21q262 39 262 145z" />
    <glyph glyph-name="at" unicode="@" horiz-adv-x="1720" 
d="M804 399q42 0 72 33t51 110q46 160 -2 220q-24 29 -65 29q-85 0 -127 -152q-43 -152 5 -211q24 -29 66 -29zM862 -313q-350 0 -575 232t-226 603q0 252 106 467q105 215 300 344t436 129q326 0 540 -215t214 -510t-127 -466t-303 -171q-213 0 -279 185
q-119 -174 -265 -174t-234 102t-89 279q0 238 122 416t284 177q162 0 233 -155l25 135l344 -51l-96 -557q-10 -66 -10 -111q0 -96 90 -96t154 135t65 348q-1 269 -187 457t-483 188q-330 0 -541 -252q-210 -252 -210 -597t198 -553t518 -207q227 0 434 118l41 -67
q-225 -133 -479 -133z" />
    <glyph glyph-name="A" unicode="A" horiz-adv-x="1415" 
d="M596 532h215l-109 373zM-20 0l495 1442h465l496 -1442h-469l-62 205h-405l-60 -205h-460z" />
    <glyph glyph-name="B" unicode="B" horiz-adv-x="1275" 
d="M815 465q0 51 -39 81t-110 29h-168v-223h168q72 0 110 30t39 81v2zM786 973v2q0 106 -143 106h-145v-213h145q143 1 143 105zM68 0v1434h657q276 0 405 -127q88 -88 89 -234v-10q0 -225 -228 -320q266 -88 266 -335v-9q0 -179 -139 -289t-403 -110h-647z" />
    <glyph glyph-name="C" unicode="C" horiz-adv-x="1259" 
d="M707 -29q-279 0 -473 198t-193 527v35q0 328 197 530t485 201q340 0 528 -270l-299 -274q-84 135 -221 135q-106 0 -173 -87t-66 -243v-8q0 -164 68 -249t173 -85q139 0 228 139l299 -264q-195 -285 -553 -285z" />
    <glyph glyph-name="D" unicode="D" horiz-adv-x="1351" 
d="M561 1042h-51v-651h51q301 0 301 311v29q0 311 -301 311zM68 0v1434h481q373 0 567 -184t195 -511v-30q0 -329 -198 -519t-574 -190h-471z" />
    <glyph glyph-name="E" unicode="E" horiz-adv-x="1169" 
d="M68 0v1434h1050v-377h-612v-164h567v-344h-567v-172h622v-377h-1060z" />
    <glyph glyph-name="F" unicode="F" horiz-adv-x="1124" 
d="M68 0v1434h1028v-390h-586v-188h541v-360h-541v-496h-442z" />
    <glyph glyph-name="G" unicode="G" horiz-adv-x="1345" 
d="M752 -29q-305 0 -508 198t-203 527v39q0 322 202 525q202 202 501 202t524 -182l-234 -326q-127 113 -257 113t-210 -93t-80 -251v-25q0 -166 78 -259t201 -93q74 0 119 25v172h-197v311h606v-702q-237 -181 -542 -181z" />
    <glyph glyph-name="H" unicode="H" horiz-adv-x="1366" 
d="M68 0v1434h442v-516h346v516h442v-1434h-442v524h-346v-524h-442z" />
    <glyph glyph-name="I" unicode="I" horiz-adv-x="585" 
d="M72 0v1434h442v-1434h-442z" />
    <glyph glyph-name="J" unicode="J" horiz-adv-x="997" 
d="M438 -27q-283 0 -448 195l233 291q80 -96 160 -97q55 0 89 40t34 110v922h434v-930q0 -258 -136 -394t-366 -137z" />
    <glyph glyph-name="K" unicode="K" horiz-adv-x="1306" 
d="M70 0v1434h442v-519l319 519h496l-403 -615l413 -819h-512l-219 455l-94 -133v-322h-442z" />
    <glyph glyph-name="L" unicode="L" horiz-adv-x="1079" 
d="M68 0v1434h442v-1045h547v-389h-989z" />
    <glyph glyph-name="M" unicode="M" horiz-adv-x="1556" 
d="M68 0v1434h450l260 -476l262 476h449v-1434h-436v696l-275 -471h-6l-272 471v-696h-432z" />
    <glyph glyph-name="N" unicode="N" horiz-adv-x="1396" 
d="M68 0v1434h419l408 -607v607h432v-1434h-397l-428 637v-637h-434z" />
    <glyph glyph-name="O" unicode="O" horiz-adv-x="1441" 
d="M721 365q109 0 170 88t61 247v31q0 160 -62 249t-170 89t-170 -89t-63 -247v-31q1 -160 63 -248t171 -89zM719 -31q-297 0 -488 203q-190 203 -190 524v37q0 322 191 527q190 204 488 204t489 -202t192 -525v-37q-1 -322 -193 -526t-489 -205z" />
    <glyph glyph-name="P" unicode="P" horiz-adv-x="1224" 
d="M508 731h88q82 0 130 43t48 123v8q0 82 -46 125t-130 43h-90v-342zM68 0v1434h546q274 0 436 -128t160 -378v-13q0 -254 -166 -386t-426 -132h-110v-397h-440z" />
    <glyph glyph-name="Q" unicode="Q" horiz-adv-x="1441" 
d="M723 352q51 0 92 21l-147 145l223 197l65 -68q2 16 2 47v33q0 160 -64 251q-66 91 -174 91t-170 -91t-63 -251v-33q-1 -160 63 -251t173 -91zM717 -31q-293 0 -485 204q-191 204 -191 525v35q0 322 191 527q190 204 488 204t489 -202t192 -525v-37q0 -227 -103 -403
l129 -137l-219 -197l-110 119q-168 -113 -381 -113z" />
    <glyph glyph-name="R" unicode="R" horiz-adv-x="1286" 
d="M508 743h143q76 0 119 40t43 114v10q0 76 -43 115t-117 39h-145v-318zM68 0v1434h589q319 0 471 -152q129 -129 129 -342v-12q0 -287 -245 -420l286 -508h-495l-223 418h-72v-418h-440z" />
    <glyph glyph-name="S" unicode="S" horiz-adv-x="1191" 
d="M602 -25q-379 0 -635 211l213 318q209 -160 426 -160q111 0 111 68v4q0 34 -37 56q-36 22 -148 54t-192 67q-207 88 -268 216q-37 76 -37 174v8q0 207 148 337t403 130q334 0 561 -176l-207 -321q-178 129 -360 129q-47 0 -73 -18t-26 -46v-4q0 -34 39 -56t146 -57
q246 -68 372 -170t127 -286v-7q-1 -215 -155 -343t-408 -128z" />
    <glyph glyph-name="T" unicode="T" horiz-adv-x="1187" 
d="M373 0v1047h-350v387h1142v-387h-350v-1047h-442z" />
    <glyph glyph-name="U" unicode="U" horiz-adv-x="1355" 
d="M1296 586q0 -315 -164 -465t-456 -150q-291 1 -455 149t-164 458v856h449v-861q0 -104 46 -155t126 -51t126 49t46 151v867h446v-848z" />
    <glyph glyph-name="V" unicode="V" horiz-adv-x="1363" 
d="M463 -8l-483 1442h483l223 -797l223 797h475l-483 -1442h-438z" />
    <glyph glyph-name="W" unicode="W" horiz-adv-x="1982" 
d="M387 -8l-389 1442h463l160 -715l186 719h377l186 -719l160 715h457l-392 -1442h-405l-199 674l-198 -674h-406z" />
    <glyph glyph-name="X" unicode="X" horiz-adv-x="1296" 
d="M819 1434h475l-391 -699l408 -735h-488l-180 393l-182 -393h-477l409 729l-391 705h487l162 -363z" />
    <glyph glyph-name="Y" unicode="Y" horiz-adv-x="1300" 
d="M428 0v506l-455 928h484l196 -471l199 471h475l-457 -924v-510h-442z" />
    <glyph glyph-name="Z" unicode="Z" horiz-adv-x="1202" 
d="M33 0v324l540 733h-522v377h1120v-324l-540 -733h540v-377h-1138z" />
    <glyph glyph-name="bracketleft" unicode="[" horiz-adv-x="798" 
d="M84 -266v1700h664v-271h-297v-1159h297v-270h-664z" />
    <glyph glyph-name="backslash" unicode="\" horiz-adv-x="962" 
d="M719 -242l-774 1856h325l774 -1856h-325z" />
    <glyph glyph-name="bracketright" unicode="]" horiz-adv-x="798" 
d="M51 -266v270h295v1159h-295v271h664v-1700h-664z" />
    <glyph glyph-name="asciicircum" unicode="^" 
d="M111 1001l249 429h304l249 -429h-288l-115 193l-115 -193h-284z" />
    <glyph glyph-name="underscore" unicode="_" horiz-adv-x="1167" 
d="M-4 -322v244h1175v-244h-1175z" />
    <glyph glyph-name="grave" unicode="`" 
d="M492 1180l-310 250l408 102l178 -352h-276z" />
    <glyph glyph-name="a" unicode="a" horiz-adv-x="1105" 
d="M424 344q0 -48 26 -78t70 -30q45 0 77 40t32 111v74q-37 18 -90 18t-84 -35t-31 -88v-12zM358 -25q-156 -1 -246 89q-89 90 -89 251v15q0 170 100 260q101 90 257 90t247 -41v18q0 152 -181 152q-129 0 -268 -61l-88 307q199 82 434 82q285 0 408 -123t123 -350v-664
h-430v106q-111 -131 -267 -131z" />
    <glyph glyph-name="b" unicode="b" horiz-adv-x="1224" 
d="M627 334q65 0 105 58t40 151v32q0 93 -40 151t-106 58t-105 -58q-40 -58 -40 -151v-32q0 -93 40 -151t106 -58zM784 -27q-176 0 -297 154v-127h-428v1485h428v-500q63 78 128 119t167 41q176 1 293 -147t117 -414v-41q0 -272 -116 -421t-292 -149z" />
    <glyph glyph-name="c" unicode="c" horiz-adv-x="1005" 
d="M565 -29q-235 0 -385 162t-149 408v22q0 248 154 414q155 166 397 166q141 1 251 -61t175 -167l-260 -233q-62 92 -138 92t-118 -58t-43 -151v-4q0 -99 43 -159q42 -60 118 -60t144 90l256 -231q-158 -230 -445 -230z" />
    <glyph glyph-name="d" unicode="d" horiz-adv-x="1224" 
d="M600 334q66 0 106 58t39 151v32q0 92 -39 151q-40 58 -106 58t-106 -58t-39 -151v-32q-1 -93 39 -151t106 -58zM444 -27q-178 -1 -294 147t-115 415v40q0 270 116 420q117 150 291 150t295 -154v494h430v-1485h-430v133q-63 -78 -128 -119t-165 -41z" />
    <glyph glyph-name="e" unicode="e" horiz-adv-x="1101" 
d="M553 831q-103 0 -121 -182h248q-12 182 -127 182zM597 -27q-261 0 -414 153t-152 417v26q0 256 146 416t386 160t374 -163t134 -435v-109h-633q43 -139 191 -139q115 0 221 100l197 -233q-189 -193 -450 -193z" />
    <glyph glyph-name="f" unicode="f" horiz-adv-x="770" 
d="M129 1118q0 377 391 377q147 0 246 -25v-282q-61 14 -119 14q-98 0 -98 -84v-10h217v-324h-209v-784h-428v784h-106v334h106z" />
    <glyph glyph-name="g" unicode="g" horiz-adv-x="1224" 
d="M600 428q68 0 107 51t38 135v11q0 82 -38 134q-39 52 -108 52t-107 -51t-37 -137v-11q1 -82 39 -133t106 -51zM1167 250q1 -281 -141 -422t-438 -141t-541 108l113 289q172 -90 358 -90q111 0 169 55t58 158v43q-123 -150 -299 -150t-294 131q-117 131 -117 373v27
q0 244 115 379q116 135 288 135t299 -146v119h430v-868z" />
    <glyph glyph-name="h" unicode="h" horiz-adv-x="1175" 
d="M59 0v1485h428v-508q125 168 306 168q153 0 241 -97t88 -266v-782h-430v645q0 55 -27 88q-28 33 -72 33t-75 -33t-31 -88v-645h-428z" />
    <glyph glyph-name="i" unicode="i" horiz-adv-x="555" 
d="M63 0v1118h429v-1118h-429zM57 1192v293h443v-293h-443z" />
    <glyph glyph-name="j" unicode="j" horiz-adv-x="561" 
d="M63 1118h431v-1048q0 -211 -100 -298t-300 -87q-55 0 -174 14v258l39 -2q55 0 80 28t24 89v1046zM57 1192v293h443v-293h-443z" />
    <glyph glyph-name="k" unicode="k" horiz-adv-x="1126" 
d="M59 0v1485h428v-703l197 336h457l-287 -448l293 -670h-459l-129 326l-72 -101v-225h-428z" />
    <glyph glyph-name="l" unicode="l" horiz-adv-x="555" 
d="M63 0v1485h429v-1485h-429z" />
    <glyph glyph-name="m" unicode="m" horiz-adv-x="1792" 
d="M59 0v1118h428v-141q121 168 299 168q207 0 289 -172q139 172 332 172q158 0 247 -97t89 -266v-782h-430v649q0 53 -27 85q-28 32 -70 32t-72 -32t-30 -85v-649h-428v649q0 53 -28 85t-70 32t-71 -32q-30 -32 -30 -85v-649h-428z" />
    <glyph glyph-name="n" unicode="n" horiz-adv-x="1175" 
d="M59 0v1118h428v-145q127 172 293 172t254 -97t88 -266v-782h-430v645q0 55 -27 88q-28 33 -72 33t-75 -33t-31 -88v-645h-428z" />
    <glyph glyph-name="o" unicode="o" horiz-adv-x="1179" 
d="M592 336q66 0 104 57t37 154v24q0 95 -40 153t-104 58q-65 0 -103 -56t-37 -153v-24q0 -98 38 -156q39 -57 105 -57zM588 -27q-246 0 -402 160t-155 406v36q0 248 157 409q158 161 404 161t402 -160t155 -405v-37q1 -248 -157 -409t-404 -161z" />
    <glyph glyph-name="p" unicode="p" horiz-adv-x="1224" 
d="M627 334q65 0 105 58t40 151v32q0 93 -40 151t-106 58t-105 -58q-40 -58 -40 -151v-32q0 -93 40 -151t106 -58zM59 -307v1425h428v-133q63 78 128 119t167 41q176 1 293 -147t117 -414v-41q0 -273 -116 -421t-292 -148t-297 153v-434h-428z" />
    <glyph glyph-name="q" unicode="q" horiz-adv-x="1224" 
d="M600 334q66 0 106 58t39 151v32q0 92 -39 151q-40 58 -106 58t-106 -58t-39 -151v-32q-1 -93 39 -151t106 -58zM737 -307v440q-63 -78 -128 -119t-165 -41q-178 -1 -294 147t-115 415v40q0 270 116 420q117 150 291 150t295 -154v127h430v-1425h-430z" />
    <glyph glyph-name="r" unicode="r" horiz-adv-x="790" 
d="M59 0v1118h428v-209q90 236 293 226v-473h-35q-258 0 -258 -314v-348h-428z" />
    <glyph glyph-name="s" unicode="s" horiz-adv-x="958" 
d="M489 -27q-281 0 -501 148l143 278q186 -121 350 -120q63 0 64 38v2q0 17 -25 33t-98 41q-201 63 -294 141t-93 228v4q0 176 122 277t324 102q254 0 447 -119l-142 -281q-164 94 -294 95q-63 0 -64 -37v-4q0 -19 27 -33t102 -39q199 -67 290 -145t91 -220v-4
q0 -178 -120 -282t-329 -103z" />
    <glyph glyph-name="t" unicode="t" horiz-adv-x="800" 
d="M500 -25q-371 0 -371 355v454h-109v334h109v275h428v-275h215v-334h-215v-352q0 -92 92 -92q51 0 119 29v-334q-114 -60 -268 -60z" />
    <glyph glyph-name="u" unicode="u" horiz-adv-x="1175" 
d="M394 -27q-167 -1 -255 97t-88 266v782h430v-645q0 -55 29 -88t72 -33q44 0 74 33t30 88v645h430v-1118h-430v141q-125 -168 -292 -168z" />
    <glyph glyph-name="v" unicode="v" horiz-adv-x="1171" 
d="M383 -8l-389 1126h446l148 -569l147 569h441l-388 -1126h-405z" />
    <glyph glyph-name="w" unicode="w" horiz-adv-x="1570" 
d="M293 -8l-295 1126h416l94 -473l108 477h338l111 -481l98 477h410l-297 -1126h-365l-127 471l-129 -471h-362z" />
    <glyph glyph-name="x" unicode="x" horiz-adv-x="1095" 
d="M444 1118l105 -233l108 233h449l-313 -557l315 -561h-455l-106 238l-113 -238h-446l315 561l-313 557h454z" />
    <glyph glyph-name="y" unicode="y" horiz-adv-x="1171" 
d="M394 -315q-176 0 -349 90l102 299q159 -86 228 -39l-377 1083h442l156 -579l145 579h435l-340 -1040q-70 -211 -168 -302t-274 -91z" />
    <glyph glyph-name="z" unicode="z" horiz-adv-x="1009" 
d="M29 0v281l397 495h-385v342h944v-280l-397 -496h397v-342h-956z" />
    <glyph glyph-name="braceleft" unicode="{" horiz-adv-x="892" 
d="M53 451h-20v270h20q111 0 167 36t56 128l-20 209q0 168 130 255t429 107l51 -248q-141 -20 -188 -60t-47 -126l20 -182q0 -205 -235 -252q236 -53 235 -256l-20 -182q0 -86 47 -126t188 -61l-51 -248q-301 19 -430 107t-129 258l20 209q0 90 -56 126t-167 36z" />
    <glyph glyph-name="bar" unicode="|" horiz-adv-x="638" 
d="M164 -242v1856h311v-1856h-311z" />
    <glyph glyph-name="braceright" unicode="}" horiz-adv-x="892" 
d="M840 721h20v-270h-20q-111 0 -167 -36t-57 -126l21 -209q0 -170 -129 -258t-430 -107l-51 248q141 21 188 61t47 126l-20 182q0 203 235 256q-236 47 -235 252l20 182q0 86 -47 126t-188 60l51 248q299 -20 429 -107t130 -255l-21 -209q0 -92 56 -128t168 -36z" />
    <glyph glyph-name="asciitilde" unicode="~" horiz-adv-x="927" 
d="M63 508q43 297 211 297q80 0 189 -39q109 -35 135 -35q26 1 43 19q16 18 33 65l188 -45q-41 -297 -221 -297q-68 0 -176 39q-109 35 -135 35q-26 -1 -44 -19q-17 -18 -32 -63z" />
    <glyph glyph-name="uni00A0" unicode="&#xa0;" horiz-adv-x="405" 
 />
    <glyph glyph-name="exclamdown" unicode="&#xa1;" horiz-adv-x="608" 
d="M55 0v215l142 764h215l141 -764v-215h-498zM80 1065v369h448v-369h-448z" />
    <glyph glyph-name="cent" unicode="&#xa2;" horiz-adv-x="1011" 
d="M601 981q-99 0 -149 -70t-51 -176v-6q1 -125 53 -191t154 -67q102 0 174 100l230 -211q-135 -197 -377 -215l-19 -157h-256l21 188q-162 56 -256 198t-94 335v22q0 231 128 387t341 185l18 143h256l-20 -164q176 -59 260 -190l-236 -213q-78 102 -177 102z" />
    <glyph glyph-name="sterling" unicode="&#xa3;" horiz-adv-x="1142" 
d="M762 1067q-139 0 -139 -164v-65h356v-306h-356v-180h489v-352h-1065v264l139 66v202h-137v306h137v67q0 273 142 415t385 142q244 0 420 -145l-193 -330q-90 80 -178 80z" />
    <glyph glyph-name="yen" unicode="&#xa5;" horiz-adv-x="1300" 
d="M104 541v268h226l-344 625h477l190 -428l189 428h473l-348 -625h227v-268h-324v-80h324v-268h-324v-193h-442v193h-324v268h324v80h-324z" />
    <glyph glyph-name="section" unicode="&#xa7;" horiz-adv-x="1142" 
d="M694 621q90 0 90 61v4q0 51 -188 100q-111 27 -147 27q-88 0 -89 -61v-4q0 -51 189 -101q110 -26 145 -26zM1016 307q0 -143 -121 -239t-357 -96t-442 112l127 278q176 -98 328 -98q76 0 76 47v4q0 19 -34 35t-124 43q-233 66 -309 113q-115 70 -115 178v4q0 150 184 225
q-102 82 -102 209v4q0 144 121 240q120 96 356 96t443 -112l-127 -279q-176 98 -326 98q-78 0 -78 -45v-4q0 -20 35 -36t123 -44q233 -66 309 -112q115 -70 115 -178v-5q-1 -149 -185 -225q102 -80 103 -209v-4z" />
    <glyph glyph-name="dieresis" unicode="&#xa8;" 
d="M156 1180v290h323v-290h-323zM545 1180v290h323v-290h-323z" />
    <glyph glyph-name="copyright" unicode="&#xa9;" horiz-adv-x="1486" 
d="M766 305q-168 0 -277 111t-108 295v20q0 182 111 297q112 115 290 115t285 -150l-170 -159q-41 76 -111 76t-106 -49q-37 -48 -37 -134v-6q0 -90 38 -136q39 -46 105 -46t117 75l168 -151q-108 -158 -305 -158zM741 49q252 -1 416 187t164 469v26q0 281 -163 467
t-415 186q-251 0 -415 -187t-164 -468v-27q0 -281 162 -467t415 -186zM741 -31q-283 0 -471 210t-188 523v27q0 313 189 524t472 211t472 -210t190 -523v-26q-1 -313 -191 -525t-473 -211z" />
    <glyph glyph-name="ordfeminine" unicode="&#xaa;" horiz-adv-x="708" 
d="M334 958q27 0 45 20t18 58v41q-31 10 -55 10t-40 -17q-17 -17 -17 -46v-10q0 -56 49 -56zM63 551v176h578v-176h-578zM247 813q-85 0 -134 48t-50 138v9q1 92 57 141t136 49t139 -22v6q0 84 -98 84q-68 0 -150 -35l-45 172q114 43 254 43q271 0 273 -260v-361h-234v62
q-63 -74 -148 -74z" />
    <glyph glyph-name="guillemotleft" unicode="&#xab;" horiz-adv-x="1126" 
d="M336 61l-303 418v146l303 419l266 -124l-213 -367l213 -367zM838 61l-353 480v20l353 483l266 -124l-213 -367l213 -367z" />
    <glyph glyph-name="registered" unicode="&#xae;" horiz-adv-x="681" 
d="M311 1114h37q45 0 45 39v4q0 39 -45 39h-37v-82zM190 909v387h160q164 0 164 -133v-2q0 -80 -68 -112l78 -140h-133l-61 113h-19v-113h-121zM61 1090q0 -134 79 -224t201 -90t202 90t80 226v12q0 135 -79 223t-202 88t-202 -89t-79 -224v-12zM662 1092q0 -150 -92 -252
t-229 -101q-136 1 -228 101t-93 250v12q0 150 92 251t230 101q137 0 228 -100t92 -250v-12z" />
    <glyph glyph-name="macron" unicode="&#xaf;" 
d="M154 1196v238h716v-238h-716z" />
    <glyph glyph-name="degree" unicode="&#xb0;" horiz-adv-x="823" 
d="M412 911q53 0 86 42t32 112v14q0 70 -33 113q-34 43 -85 43t-85 -43t-34 -113v-14q0 -70 33 -112t86 -42zM762 1061q0 -157 -100 -261t-248 -104t-250 104t-103 261v24q1 157 103 261t248 104t247 -104q102 -104 103 -261v-24z" />
    <glyph glyph-name="plusminus" unicode="&#xb1;" horiz-adv-x="1175" 
d="M1094 0h-1012v307h1012v-307zM410 416v311l-328 -2v336l328 -2v311h356l-2 -311l330 2v-336l-330 2l2 -311h-356z" />
    <glyph glyph-name="acute" unicode="&#xb4;" 
d="M256 1180l178 352l408 -102l-310 -250h-276z" />
    <glyph glyph-name="paragraph" unicode="&#xb6;" horiz-adv-x="1067" 
d="M580 0v440h-25q-242 8 -388 133t-147 357v8q0 244 156 370t422 126h399v-1434h-417z" />
    <glyph glyph-name="periodcentered" unicode="&#xb7;" horiz-adv-x="530" 
d="M45 426v438h442v-438h-442z" />
    <glyph glyph-name="cedilla" unicode="&#xb8;" 
d="M561 -328l-348 127l190 242h263z" />
    <glyph glyph-name="ordmasculine" unicode="&#xba;" horiz-adv-x="708" 
d="M354 1006q78 0 78 112v15q0 53 -22 84q-23 31 -58 30q-76 0 -76 -112v-15q0 -54 22 -84t56 -30zM88 551v176h530v-176h-530zM662 1116q0 -135 -88 -222t-221 -87q-134 0 -220 86t-86 221v21q0 137 87 223t221 86t220 -86t87 -219v-23z" />
    <glyph glyph-name="guillemotright" unicode="&#xbb;" horiz-adv-x="1126" 
d="M291 61l-266 125l211 365l-211 369l266 124l352 -483v-20zM793 61l-267 125l211 365l-211 369l267 124l303 -419v-146z" />
    <glyph glyph-name="questiondown" unicode="&#xbf;" horiz-adv-x="993" 
d="M506 -23q-221 0 -356 116t-136 304v2q0 169 92 267t267 155l28 158h267l53 -361l-19 -20q-262 -39 -262 -145v-2q0 -37 30 -60t83 -22q117 0 272 112l176 -329q-225 -175 -495 -175zM315 1065v369h449v-369h-449z" />
    <glyph glyph-name="Agrave" unicode="&#xc0;" horiz-adv-x="1415" 
d="M868 1522h-309l-297 211l434 92zM596 532h215l-109 373zM-20 0l495 1442h465l496 -1442h-469l-62 205h-405l-60 -205h-460z" />
    <glyph glyph-name="Aacute" unicode="&#xc1;" horiz-adv-x="1415" 
d="M545 1522l172 303l434 -92l-297 -211h-309zM596 532h215l-109 373zM-20 0l495 1442h465l496 -1442h-469l-62 205h-405l-60 -205h-460z" />
    <glyph glyph-name="Acircumflex" unicode="&#xc2;" horiz-adv-x="1415" 
d="M315 1522l213 276h357l213 -276h-258l-135 92l-136 -92h-254zM596 532h215l-109 373zM-20 0l495 1442h465l496 -1442h-469l-62 205h-405l-60 -205h-460z" />
    <glyph glyph-name="Atilde" unicode="&#xc3;" horiz-adv-x="1415" 
d="M895 1518q-57 0 -178 38t-149 38t-45 -19q-17 -18 -31 -66l-191 43q41 301 225 301q66 0 189 -38q98 -35 132 -35t51 18t32 66l190 -43q-41 -303 -225 -303zM596 532h215l-109 373zM-20 0l495 1442h465l496 -1442h-469l-62 205h-405l-60 -205h-460z" />
    <glyph glyph-name="Adieresis" unicode="&#xc4;" horiz-adv-x="1415" 
d="M334 1522v282h336v-282h-336zM743 1522v282h336v-282h-336zM596 532h215l-109 373zM-20 0l495 1442h465l496 -1442h-469l-62 205h-405l-60 -205h-460z" />
    <glyph glyph-name="Aring" unicode="&#xc5;" horiz-adv-x="1415" 
d="M596 532h215l-109 373zM707 1384q63 0 104 38t41 96t-41 96q-41 39 -103 39t-104 -39t-41 -96q0 -57 40 -96q41 -38 104 -38zM420 1520q0 110 82 184t206 74t206 -74t83 -184q0 -72 -36 -131l475 -1389h-469l-62 205h-405l-60 -205h-460l475 1389q-35 59 -35 131z" />
    <glyph glyph-name="AE" unicode="&#xc6;" horiz-adv-x="1906" 
d="M840 532v533h-17l-211 -533h228zM1855 1434v-377h-585v-164h540v-344h-540v-172h596v-377h-1026v205h-357l-77 -205h-441l602 1434h1288z" />
    <glyph glyph-name="Ccedilla" unicode="&#xc7;" horiz-adv-x="1259" 
d="M41 696v35q0 328 197 530t485 201q340 0 528 -270l-299 -274q-84 135 -221 135q-106 0 -173 -87t-66 -243v-8q0 -164 68 -249t173 -85q139 0 228 139l299 -264q-168 -248 -472 -281l-86 -303l-348 127l158 201q-209 60 -340 244t-131 452z" />
    <glyph glyph-name="Egrave" unicode="&#xc8;" horiz-adv-x="1169" 
d="M68 0v1434h1050v-377h-612v-164h567v-344h-567v-172h622v-377h-1060zM760 1503h-309l-297 211l434 92z" />
    <glyph glyph-name="Eacute" unicode="&#xc9;" horiz-adv-x="1169" 
d="M68 0v1434h1050v-377h-612v-164h567v-344h-567v-172h622v-377h-1060zM434 1503l172 303l434 -92l-297 -211h-309z" />
    <glyph glyph-name="Ecircumflex" unicode="&#xca;" horiz-adv-x="1169" 
d="M207 1503l213 277h356l213 -277h-258l-135 92l-135 -92h-254zM68 0v1434h1050v-377h-612v-164h567v-344h-567v-172h622v-377h-1060z" />
    <glyph glyph-name="Edieresis" unicode="&#xcb;" horiz-adv-x="1169" 
d="M68 0v1434h1050v-377h-612v-164h567v-344h-567v-172h622v-377h-1060zM225 1503v283h336v-283h-336zM635 1503v283h336v-283h-336z" />
    <glyph glyph-name="Igrave" unicode="&#xcc;" horiz-adv-x="585" 
d="M457 1503h-310l-297 211l435 92zM72 0v1434h442v-1434h-442z" />
    <glyph glyph-name="Iacute" unicode="&#xcd;" horiz-adv-x="585" 
d="M133 1503l172 303l434 -92l-297 -211h-309zM72 0v1434h442v-1434h-442z" />
    <glyph glyph-name="Icircumflex" unicode="&#xce;" horiz-adv-x="585" 
d="M-96 1503l213 277h356l213 -277h-258l-135 92l-135 -92h-254zM72 0v1434h442v-1434h-442z" />
    <glyph glyph-name="Idieresis" unicode="&#xcf;" horiz-adv-x="585" 
d="M-78 1503v283h336v-283h-336zM332 1503v283h336v-283h-336zM72 0v1434h442v-1434h-442z" />
    <glyph glyph-name="Eth" unicode="&#xd0;" horiz-adv-x="1458" 
d="M748 563h-148v-186h68q303 0 303 325v29q0 326 -303 326h-68v-176h148v-318zM174 0v555h-139v332h139v547h483q373 0 567 -184t193 -511v-30q0 -328 -197 -519q-198 -190 -575 -190h-471z" />
    <glyph glyph-name="Ntilde" unicode="&#xd1;" horiz-adv-x="1396" 
d="M68 0v1434h419l408 -607v607h432v-1434h-397l-428 637v-637h-434zM887 1499q-57 0 -179 38t-148 38q-28 -1 -45 -19t-32 -65l-190 43q41 301 225 301q66 0 189 -39q98 -35 132 -35q34 1 51 19t32 65l190 -43q-41 -303 -225 -303z" />
    <glyph glyph-name="Ograve" unicode="&#xd2;" horiz-adv-x="1441" 
d="M721 365q109 0 170 88t61 247v31q0 160 -62 249t-170 89t-170 -89t-63 -247v-31q1 -160 63 -248t171 -89zM719 -31q-297 0 -488 203q-190 203 -190 524v37q0 322 191 527q190 204 488 204t489 -202t192 -525v-37q-1 -322 -193 -526t-489 -205zM881 1522h-310l-297 211
l435 92z" />
    <glyph glyph-name="Oacute" unicode="&#xd3;" horiz-adv-x="1441" 
d="M721 365q109 0 170 88t61 247v31q0 160 -62 249t-170 89t-170 -89t-63 -247v-31q1 -160 63 -248t171 -89zM719 -31q-297 0 -488 203q-190 203 -190 524v37q0 322 191 527q190 204 488 204t489 -202t192 -525v-37q-1 -322 -193 -526t-489 -205zM557 1522l172 303l434 -92
l-297 -211h-309z" />
    <glyph glyph-name="Ocircumflex" unicode="&#xd4;" horiz-adv-x="1441" 
d="M328 1522l213 276h356l213 -276h-258l-135 92l-135 -92h-254zM721 365q109 0 170 88t61 247v31q0 160 -62 249t-170 89t-170 -89t-63 -247v-31q1 -160 63 -248t171 -89zM719 -31q-297 0 -488 203q-190 203 -190 524v37q0 322 191 527q190 204 488 204t489 -202t192 -525
v-37q-1 -322 -193 -526t-489 -205z" />
    <glyph glyph-name="Otilde" unicode="&#xd5;" horiz-adv-x="1441" 
d="M721 365q109 0 170 88t61 247v31q0 160 -62 249t-170 89t-170 -89t-63 -247v-31q1 -160 63 -248t171 -89zM719 -31q-297 0 -488 203q-190 203 -190 524v37q0 322 191 527q190 204 488 204t489 -202t192 -525v-37q-1 -322 -193 -526t-489 -205zM909 1518q-57 0 -178 38
t-149 38t-44 -19q-17 -18 -32 -66l-191 43q41 301 226 301q66 0 188 -38q98 -35 132 -35t51 18t32 66l191 -43q-42 -303 -226 -303z" />
    <glyph glyph-name="Odieresis" unicode="&#xd6;" horiz-adv-x="1441" 
d="M721 365q109 0 170 88t61 247v31q0 160 -62 249t-170 89t-170 -89t-63 -247v-31q1 -160 63 -248t171 -89zM719 -31q-297 0 -488 203q-190 203 -190 524v37q0 322 191 527q190 204 488 204t489 -202t192 -525v-37q-1 -322 -193 -526t-489 -205zM346 1522v282h336v-282
h-336zM756 1522v282h336v-282h-336z" />
    <glyph glyph-name="multiply" unicode="&#xd7;" horiz-adv-x="1175" 
d="M846 201l-260 266l-262 -266l-256 256l266 260l-268 262l262 262l262 -266l262 266l256 -256l-266 -260l266 -262z" />
    <glyph glyph-name="Oslash" unicode="&#xd8;" horiz-adv-x="1441" 
d="M479 702q0 -82 15 -139l352 475q-57 41 -127 41q-111 0 -175 -92t-65 -254v-31zM723 354q111 0 175 91t65 255v31q0 74 -17 139l-352 -475q57 -41 129 -41zM1401 737v-37q0 -322 -193 -526t-489 -205q-207 0 -369 105l-63 -84h-254l170 217q-162 197 -162 489v37
q0 322 191 527t489 204q205 0 369 -106l65 86h252l-170 -217q164 -203 164 -490z" />
    <glyph glyph-name="Ugrave" unicode="&#xd9;" horiz-adv-x="1355" 
d="M1296 586q0 -315 -164 -465t-456 -150q-291 1 -455 149t-164 458v856h449v-861q0 -104 46 -155t126 -51t126 49t46 151v867h446v-848zM838 1503h-310l-297 211l435 92z" />
    <glyph glyph-name="Uacute" unicode="&#xda;" horiz-adv-x="1355" 
d="M1296 586q0 -315 -164 -465t-456 -150q-291 1 -455 149t-164 458v856h449v-861q0 -104 46 -155t126 -51t126 49t46 151v867h446v-848zM514 1503l172 303l434 -92l-297 -211h-309z" />
    <glyph glyph-name="Ucircumflex" unicode="&#xdb;" horiz-adv-x="1355" 
d="M287 1503l213 277h356l213 -277h-258l-135 92l-135 -92h-254zM1296 586q0 -315 -164 -465t-456 -150q-291 1 -455 149t-164 458v856h449v-861q0 -104 46 -155t126 -51t126 49t46 151v867h446v-848z" />
    <glyph glyph-name="Udieresis" unicode="&#xdc;" horiz-adv-x="1355" 
d="M1296 586q0 -315 -164 -465t-456 -150q-291 1 -455 149t-164 458v856h449v-861q0 -104 46 -155t126 -51t126 49t46 151v867h446v-848zM303 1503v283h336v-283h-336zM713 1503v283h336v-283h-336z" />
    <glyph glyph-name="Yacute" unicode="&#xdd;" horiz-adv-x="1300" 
d="M487 1503l172 303l435 -92l-297 -211h-310zM428 0v506l-455 928h484l196 -471l199 471h475l-457 -924v-510h-442z" />
    <glyph glyph-name="Thorn" unicode="&#xde;" horiz-adv-x="1245" 
d="M508 559h90q80 0 128 43t48 123v8q0 82 -46 125t-130 43h-90v-342zM68 0v1434h440v-193h115q268 0 428 -126t159 -370v-14q0 -254 -166 -384t-426 -130h-110v-217h-440z" />
    <glyph glyph-name="germandbls" unicode="&#xdf;" horiz-adv-x="1206" 
d="M756 457v2q0 127 -170 143v225q133 57 133 183v4q0 57 -31 94t-76 37q-123 0 -123 -187v-958h-430v956q-1 250 139 396t398 147q258 0 398 -122t141 -304v-8q-1 -109 -61 -197t-159 -131q115 -35 191 -119t76 -221v-4q0 -203 -163 -307t-433 -92v313q80 10 125 49t45 101
z" />
    <glyph glyph-name="agrave" unicode="&#xe0;" horiz-adv-x="1105" 
d="M442 1196l-309 250l408 102l178 -352h-277zM424 344q0 -48 26 -78t70 -30q45 0 77 40t32 111v74q-37 18 -90 18t-84 -35t-31 -88v-12zM358 -25q-156 -1 -246 89q-89 90 -89 251v15q0 170 100 260q101 90 257 90t247 -41v18q0 152 -181 152q-129 0 -268 -61l-88 307
q199 82 434 82q285 0 408 -123t123 -350v-664h-430v106q-111 -131 -267 -131z" />
    <glyph glyph-name="aacute" unicode="&#xe1;" horiz-adv-x="1105" 
d="M403 1196l179 352l407 -102l-309 -250h-277zM424 344q0 -48 26 -78t70 -30q45 0 77 40t32 111v74q-37 18 -90 18t-84 -35t-31 -88v-12zM358 -25q-156 -1 -246 89q-89 90 -89 251v15q0 170 100 260q101 90 257 90t247 -41v18q0 152 -181 152q-129 0 -268 -61l-88 307
q199 82 434 82q285 0 408 -123t123 -350v-664h-430v106q-111 -131 -267 -131z" />
    <glyph glyph-name="acircumflex" unicode="&#xe2;" horiz-adv-x="1105" 
d="M170 1196l238 315h307l237 -315h-239l-154 104l-153 -104h-236zM424 344q0 -48 26 -78t70 -30q45 0 77 40t32 111v74q-37 18 -90 18t-84 -35t-31 -88v-12zM358 -25q-156 -1 -246 89q-89 90 -89 251v15q0 170 100 260q101 90 257 90t247 -41v18q0 152 -181 152
q-129 0 -268 -61l-88 307q199 82 434 82q285 0 408 -123t123 -350v-664h-430v106q-111 -131 -267 -131z" />
    <glyph glyph-name="atilde" unicode="&#xe3;" horiz-adv-x="1105" 
d="M438 1268q-31 0 -48 -18t-32 -64l-188 43q38 301 221 301q57 0 165 -37t140 -37q31 0 47 18t33 64l189 -41q-38 -303 -222 -303q-57 0 -165 37t-140 37zM424 344q0 -48 26 -78t70 -30q45 0 77 40t32 111v74q-37 18 -90 18t-84 -35t-31 -88v-12zM358 -25q-156 -1 -246 89
q-89 90 -89 251v15q0 170 100 260q101 90 257 90t247 -41v18q0 152 -181 152q-129 0 -268 -61l-88 307q199 82 434 82q285 0 408 -123t123 -350v-664h-430v106q-111 -131 -267 -131z" />
    <glyph glyph-name="adieresis" unicode="&#xe4;" horiz-adv-x="1105" 
d="M205 1196v291h323v-291h-323zM594 1196v291h324v-291h-324zM424 344q0 -48 26 -78t70 -30q45 0 77 40t32 111v74q-37 18 -90 18t-84 -35t-31 -88v-12zM358 -25q-156 -1 -246 89q-89 90 -89 251v15q0 170 100 260q101 90 257 90t247 -41v18q0 152 -181 152
q-129 0 -268 -61l-88 307q199 82 434 82q285 0 408 -123t123 -350v-664h-430v106q-111 -131 -267 -131z" />
    <glyph glyph-name="aring" unicode="&#xe5;" horiz-adv-x="1105" 
d="M561 1323q53 0 90 38t37 95t-37 95t-90 38t-90 -38t-37 -95t37 -95t90 -38zM561 1200q-111 0 -187 75t-77 181q0 106 77 180q78 74 188 74t187 -74t77 -180t-78 -181q-76 -75 -187 -75zM424 344q0 -48 26 -78t70 -30q45 0 77 40t32 111v74q-37 18 -90 18t-84 -35t-31 -88
v-12zM358 -25q-156 -1 -246 89q-89 90 -89 251v15q0 170 100 260q101 90 257 90t247 -41v18q0 152 -181 152q-129 0 -268 -61l-88 307q199 82 434 82q285 0 408 -123t123 -350v-664h-430v106q-111 -131 -267 -131z" />
    <glyph glyph-name="ae" unicode="&#xe6;" horiz-adv-x="1689" 
d="M1141 831q-107 0 -121 -182h248q-12 182 -127 182zM524 240q72 0 138 77q-25 68 -31 144q-47 18 -96 18t-80 -35t-31 -88v-12q0 -48 28 -76t72 -28zM387 -25q-158 0 -261 87t-103 255v17q0 168 100 257q101 89 257 89t247 -41v18q0 152 -181 152q-129 0 -272 -64l-84 314
q205 78 424 78t342 -101q121 109 297 109q242 0 374 -164t132 -434v-109h-633q39 -139 191 -139q115 0 221 100l194 -233q-186 -193 -450 -193t-414 166q-174 -164 -381 -164z" />
    <glyph glyph-name="ccedilla" unicode="&#xe7;" horiz-adv-x="1005" 
d="M31 541v22q0 248 154 414q155 166 397 166q141 1 251 -61t175 -167l-260 -233q-62 92 -138 92t-118 -58t-43 -151v-4q0 -99 43 -159q42 -60 118 -60t144 90l256 -231q-129 -190 -359 -224l-86 -305l-348 127l160 203q-160 56 -253 202t-93 337z" />
    <glyph glyph-name="egrave" unicode="&#xe8;" horiz-adv-x="1101" 
d="M553 831q-103 0 -121 -182h248q-12 182 -127 182zM442 1196l-309 250l408 102l178 -352h-277zM597 -27q-261 0 -414 153t-152 417v26q0 256 146 416t386 160t374 -163t134 -435v-109h-633q43 -139 191 -139q115 0 221 100l197 -233q-189 -193 -450 -193z" />
    <glyph glyph-name="eacute" unicode="&#xe9;" horiz-adv-x="1101" 
d="M553 831q-103 0 -121 -182h248q-12 182 -127 182zM403 1196l179 352l407 -102l-309 -250h-277zM597 -27q-261 0 -414 153t-152 417v26q0 256 146 416t386 160t374 -163t134 -435v-109h-633q43 -139 191 -139q115 0 221 100l197 -233q-189 -193 -450 -193z" />
    <glyph glyph-name="ecircumflex" unicode="&#xea;" horiz-adv-x="1101" 
d="M553 831q-103 0 -121 -182h248q-12 182 -127 182zM170 1196l238 315h307l237 -315h-239l-154 104l-153 -104h-236zM597 -27q-261 0 -414 153t-152 417v26q0 256 146 416t386 160t374 -163t134 -435v-109h-633q43 -139 191 -139q115 0 221 100l197 -233
q-189 -193 -450 -193z" />
    <glyph glyph-name="edieresis" unicode="&#xeb;" horiz-adv-x="1101" 
d="M553 831q-103 0 -121 -182h248q-12 182 -127 182zM594 1196v291h324v-291h-324zM205 1196v291h323v-291h-323zM597 -27q-261 0 -414 153t-152 417v26q0 256 146 416t386 160t374 -163t134 -435v-109h-633q43 -139 191 -139q115 0 221 100l197 -233q-189 -193 -450 -193z
" />
    <glyph glyph-name="igrave" unicode="&#xec;" horiz-adv-x="555" 
d="M158 1180l-310 250l408 102l178 -352h-276zM63 0v1118h429v-1118h-429z" />
    <glyph glyph-name="iacute" unicode="&#xed;" horiz-adv-x="555" 
d="M63 0v1118h429v-1118h-429zM123 1180l178 352l408 -102l-310 -250h-276z" />
    <glyph glyph-name="icircumflex" unicode="&#xee;" horiz-adv-x="555" 
d="M63 0v1118h429v-1118h-429zM-113 1180l238 315h307l238 -315h-240l-154 104l-153 -104h-236z" />
    <glyph glyph-name="idieresis" unicode="&#xef;" horiz-adv-x="555" 
d="M63 0v1118h429v-1118h-429zM-78 1180v290h324v-290h-324zM311 1180v290h324v-290h-324z" />
    <glyph glyph-name="eth" unicode="&#xf0;" horiz-adv-x="1179" 
d="M592 336q66 0 104 57t37 154v24q0 95 -40 153t-104 58q-65 0 -103 -56t-37 -153v-24q0 -98 38 -156q39 -57 105 -57zM1149 655v-26q0 -305 -152 -481q-153 -176 -407 -175q-254 0 -407 159t-152 431v41q0 244 109 381q110 137 286 137q125 0 231 -78q-45 82 -118 168
l-209 -47l-58 166l119 27q-78 66 -168 127h512q33 -25 47 -39l189 43l57 -166l-104 -25q225 -283 225 -643z" />
    <glyph glyph-name="ntilde" unicode="&#xf1;" horiz-adv-x="1175" 
d="M465 1268q-31 0 -48 -18t-32 -64l-188 43q20 157 74 229t147 72q58 0 166 -37t139 -37t47 18t33 64l188 -41q-38 -303 -221 -303q-58 0 -166 37t-139 37zM59 0v1118h428v-145q127 172 293 172t254 -97t88 -266v-782h-430v645q0 55 -27 88q-28 33 -72 33t-75 -33t-31 -88
v-645h-428z" />
    <glyph glyph-name="ograve" unicode="&#xf2;" horiz-adv-x="1179" 
d="M471 1196l-309 250l407 102l179 -352h-277zM592 336q66 0 104 57t37 154v24q0 95 -40 153t-104 58q-65 0 -103 -56t-37 -153v-24q0 -98 38 -156q39 -57 105 -57zM588 -27q-246 0 -402 160t-155 406v36q0 248 157 409q158 161 404 161t402 -160t155 -405v-37
q1 -248 -157 -409t-404 -161z" />
    <glyph glyph-name="oacute" unicode="&#xf3;" horiz-adv-x="1179" 
d="M592 336q66 0 104 57t37 154v24q0 95 -40 153t-104 58q-65 0 -103 -56t-37 -153v-24q0 -98 38 -156q39 -57 105 -57zM588 -27q-246 0 -402 160t-155 406v36q0 248 157 409q158 161 404 161t402 -160t155 -405v-37q1 -248 -157 -409t-404 -161zM432 1196l178 352l408 -102
l-309 -250h-277z" />
    <glyph glyph-name="ocircumflex" unicode="&#xf4;" horiz-adv-x="1179" 
d="M592 336q66 0 104 57t37 154v24q0 95 -40 153t-104 58q-65 0 -103 -56t-37 -153v-24q0 -98 38 -156q39 -57 105 -57zM588 -27q-246 0 -402 160t-155 406v36q0 248 157 409q158 161 404 161t402 -160t155 -405v-37q1 -248 -157 -409t-404 -161zM199 1196l237 315h307
l238 -315h-240l-153 104l-154 -104h-235z" />
    <glyph glyph-name="otilde" unicode="&#xf5;" horiz-adv-x="1179" 
d="M465 1268q-31 0 -48 -18t-32 -64l-188 43q20 157 74 229t147 72q58 0 166 -37t139 -37t47 18t33 64l188 -41q-38 -303 -221 -303q-58 0 -166 37t-139 37zM592 336q66 0 104 57t37 154v24q0 95 -40 153t-104 58q-65 0 -103 -56t-37 -153v-24q0 -98 38 -156q39 -57 105 -57
zM588 -27q-246 0 -402 160t-155 406v36q0 248 157 409q158 161 404 161t402 -160t155 -405v-37q1 -248 -157 -409t-404 -161z" />
    <glyph glyph-name="odieresis" unicode="&#xf6;" horiz-adv-x="1179" 
d="M592 336q66 0 104 57t37 154v24q0 95 -40 153t-104 58q-65 0 -103 -56t-37 -153v-24q0 -98 38 -156q39 -57 105 -57zM588 -27q-246 0 -402 160t-155 406v36q0 248 157 409q158 161 404 161t402 -160t155 -405v-37q1 -248 -157 -409t-404 -161zM233 1196v291h324v-291
h-324zM623 1196v291h323v-291h-323z" />
    <glyph glyph-name="divide" unicode="&#xf7;" horiz-adv-x="1175" 
d="M397 119v336h381v-336h-381zM1098 551h-1020v340h1020v-340zM397 987v336h381v-336h-381z" />
    <glyph glyph-name="oslash" unicode="&#xf8;" horiz-adv-x="1179" 
d="M592 315q72 1 115 63t43 165v30q0 18 -5 52l-227 -291q35 -19 74 -19zM430 545q0 -39 2 -58l232 295q-37 20 -76 21q-72 -1 -115 -63t-43 -165v-30zM1149 580v-37q0 -248 -158 -409t-403 -161q-170 0 -299 82l-51 -63h-232l150 178q-125 152 -125 369v36q0 248 157 409
q158 161 404 161q164 0 299 -82l51 63h232l-150 -180q125 -154 125 -366z" />
    <glyph glyph-name="ugrave" unicode="&#xf9;" horiz-adv-x="1175" 
d="M463 1180l-309 250l407 102l178 -352h-276zM394 -27q-167 -1 -255 97t-88 266v782h430v-645q0 -55 29 -88t72 -33q44 0 74 33t30 88v645h430v-1118h-430v141q-125 -168 -292 -168z" />
    <glyph glyph-name="uacute" unicode="&#xfa;" horiz-adv-x="1175" 
d="M394 -27q-167 -1 -255 97t-88 266v782h430v-645q0 -55 29 -88t72 -33q44 0 74 33t30 88v645h430v-1118h-430v141q-125 -168 -292 -168zM424 1180l178 352l408 -102l-310 -250h-276z" />
    <glyph glyph-name="ucircumflex" unicode="&#xfb;" horiz-adv-x="1175" 
d="M394 -27q-167 -1 -255 97t-88 266v782h430v-645q0 -55 29 -88t72 -33q44 0 74 33t30 88v645h430v-1118h-430v141q-125 -168 -292 -168zM190 1180l238 315h307l238 -315h-240l-153 104l-154 -104h-236z" />
    <glyph glyph-name="udieresis" unicode="&#xfc;" horiz-adv-x="1175" 
d="M394 -27q-167 -1 -255 97t-88 266v782h430v-645q0 -55 29 -88t72 -33q44 0 74 33t30 88v645h430v-1118h-430v141q-125 -168 -292 -168zM225 1180v290h324v-290h-324zM614 1180v290h324v-290h-324z" />
    <glyph glyph-name="yacute" unicode="&#xfd;" horiz-adv-x="1171" 
d="M436 1180l178 352l408 -102l-309 -250h-277zM394 -315q-176 0 -349 90l102 299q159 -86 228 -39l-377 1083h442l156 -579l145 579h435l-340 -1040q-70 -211 -168 -302t-274 -91z" />
    <glyph glyph-name="thorn" unicode="&#xfe;" horiz-adv-x="1224" 
d="M627 334q65 0 105 58t40 151v32q0 93 -40 151t-106 58t-105 -58q-40 -58 -40 -151v-32q0 -93 40 -151t106 -58zM59 -307v1792h428v-500q63 78 128 119t167 41q176 1 293 -147t117 -414v-41q0 -273 -116 -421t-292 -148t-297 153v-434h-428z" />
    <glyph glyph-name="ydieresis" unicode="&#xff;" horiz-adv-x="1171" 
d="M238 1180v290h323v-290h-323zM627 1180v290h323v-290h-323zM394 -315q-176 0 -349 90l102 299q159 -86 228 -39l-377 1083h442l156 -579l145 579h435l-340 -1040q-70 -211 -168 -302t-274 -91z" />
    <glyph glyph-name="Amacron" unicode="&#x100;" horiz-adv-x="1415" 
d="M328 1536v246h757v-246h-757zM596 532h215l-109 373zM-20 0l495 1442h465l496 -1442h-469l-62 205h-405l-60 -205h-460z" />
    <glyph glyph-name="amacron" unicode="&#x101;" horiz-adv-x="1105" 
d="M203 1212v238h717v-238h-717zM424 344q0 -48 26 -78t70 -30q45 0 77 40t32 111v74q-37 18 -90 18t-84 -35t-31 -88v-12zM358 -25q-156 -1 -246 89q-89 90 -89 251v15q0 170 100 260q101 90 257 90t247 -41v18q0 152 -181 152q-129 0 -268 -61l-88 307q199 82 434 82
q285 0 408 -123t123 -350v-664h-430v106q-111 -131 -267 -131z" />
    <glyph glyph-name="Abreve" unicode="&#x102;" horiz-adv-x="1415" 
d="M710 1518q-327 0 -370 280h233q33 -74 135 -74t136 74h231q-38 -280 -365 -280zM596 532h215l-109 373zM-20 0l495 1442h465l496 -1442h-469l-62 205h-405l-60 -205h-460z" />
    <glyph glyph-name="abreve" unicode="&#x103;" horiz-adv-x="1105" 
d="M561 1192q-160 0 -259 83t-114 236h226q34 -102 148 -102t147 102h225q-14 -155 -114 -237t-259 -82zM424 344q0 -48 26 -78t70 -30q45 0 77 40t32 111v74q-37 18 -90 18t-84 -35t-31 -88v-12zM358 -25q-156 -1 -246 89q-89 90 -89 251v15q0 170 100 260q101 90 257 90
t247 -41v18q0 152 -181 152q-129 0 -268 -61l-88 307q199 82 434 82q285 0 408 -123t123 -350v-664h-430v106q-111 -131 -267 -131z" />
    <glyph glyph-name="Aogonek" unicode="&#x104;" horiz-adv-x="1415" 
d="M596 532h215l-109 373zM987 -162q0 80 88 162h-108l-62 205h-405l-60 -205h-460l495 1442h465l496 -1442h-88q-33 -41 -33 -72q-1 -31 29 -43t106 -14v-190q-250 -30 -378 34q-85 43 -85 123z" />
    <glyph glyph-name="aogonek" unicode="&#x105;" horiz-adv-x="1105" 
d="M424 344q0 -48 26 -78t70 -30q45 0 77 40t32 111v74q-37 18 -90 18t-84 -35t-31 -88v-12zM608 -162q0 80 88 162h-71v106q-111 -131 -267 -131q-156 -1 -246 89q-89 90 -89 251v15q0 170 100 260q101 90 257 90t247 -41v18q0 152 -181 152q-129 0 -268 -61l-88 307
q199 82 434 82q285 0 408 -123t123 -350v-664h-86q-33 -41 -33 -72t30 -43t105 -14v-190q-250 -30 -378 34q-85 43 -85 123z" />
    <glyph glyph-name="Cacute" unicode="&#x106;" horiz-adv-x="1259" 
d="M543 1522l172 303l434 -92l-297 -211h-309zM707 -29q-279 0 -473 198t-193 527v35q0 328 197 530t485 201q340 0 528 -270l-299 -274q-84 135 -221 135q-106 0 -173 -87t-66 -243v-8q0 -164 68 -249t173 -85q139 0 228 139l299 -264q-195 -285 -553 -285z" />
    <glyph glyph-name="cacute" unicode="&#x107;" horiz-adv-x="1005" 
d="M565 -29q-235 0 -385 162t-149 408v22q0 248 154 414q155 166 397 166q141 1 251 -61t175 -167l-260 -233q-62 92 -138 92t-118 -58t-43 -151v-4q0 -99 43 -159q42 -60 118 -60t144 90l256 -231q-158 -230 -445 -230zM416 1196l178 352l407 -102l-309 -250h-276z" />
    <glyph glyph-name="Cdotaccent" unicode="&#x10a;" horiz-adv-x="1259" 
d="M707 -29q-279 0 -473 198t-193 527v35q0 328 197 530t485 201q340 0 528 -270l-299 -274q-84 135 -221 135q-106 0 -173 -87t-66 -243v-8q0 -164 68 -249t173 -85q139 0 228 139l299 -264q-195 -285 -553 -285zM528 1522v282h353v-282h-353z" />
    <glyph glyph-name="cdotaccent" unicode="&#x10b;" horiz-adv-x="1005" 
d="M399 1196v291h344v-291h-344zM565 -29q-235 0 -385 162t-149 408v22q0 248 154 414q155 166 397 166q141 1 251 -61t175 -167l-260 -233q-62 92 -138 92t-118 -58t-43 -151v-4q0 -99 43 -159q42 -60 118 -60t144 90l256 -231q-158 -230 -445 -230z" />
    <glyph glyph-name="Ccaron" unicode="&#x10c;" horiz-adv-x="1259" 
d="M1096 1798l-213 -276h-357l-213 276h256l138 -90l135 90h254zM707 -29q-279 0 -473 198t-193 527v35q0 328 197 530t485 201q340 0 528 -270l-299 -274q-84 135 -221 135q-106 0 -173 -87t-66 -243v-8q0 -164 68 -249t173 -85q139 0 228 139l299 -264
q-195 -285 -553 -285z" />
    <glyph glyph-name="ccaron" unicode="&#x10d;" horiz-adv-x="1005" 
d="M565 -29q-235 0 -385 162t-149 408v22q0 248 154 414q155 166 397 166q141 1 251 -61t175 -167l-260 -233q-62 92 -138 92t-118 -58t-43 -151v-4q0 -99 43 -159q42 -60 118 -60t144 90l256 -231q-158 -230 -445 -230zM963 1511l-238 -315h-307l-238 315h240l153 -102
l154 102h236z" />
    <glyph glyph-name="Dcaron" unicode="&#x10e;" horiz-adv-x="1351" 
d="M1042 1780l-213 -277h-356l-213 277h256l137 -90l135 90h254zM561 1042h-51v-651h51q301 0 301 311v29q0 311 -301 311zM68 0v1434h481q373 0 567 -184t195 -511v-30q0 -329 -198 -519t-574 -190h-471z" />
    <glyph glyph-name="dcaron" unicode="&#x10f;" horiz-adv-x="1224" 
d="M600 334q66 0 106 58t39 151v32q0 92 -39 151q-40 58 -106 58t-106 -58t-39 -151v-32q-1 -93 39 -151t106 -58zM444 -27q-178 -1 -294 147t-115 415v40q0 270 116 420q117 150 291 150t295 -154v494h430v-1485h-430v133q-63 -78 -128 -119t-165 -41zM1532 1581v-6
l-125 -399h-168l21 405h272z" />
    <glyph glyph-name="Dcroat" unicode="&#x110;" horiz-adv-x="1458" 
d="M748 563h-148v-186h68q303 0 303 325v29q0 326 -303 326h-68v-176h148v-318zM174 0v555h-139v332h139v547h483q373 0 567 -184t193 -511v-30q0 -328 -197 -519q-198 -190 -575 -190h-471z" />
    <glyph glyph-name="dcroat" unicode="&#x111;" horiz-adv-x="1224" 
d="M600 334q66 0 106 58t39 151v32q0 92 -39 151q-40 58 -106 58t-106 -58t-39 -151v-32q-1 -93 39 -151t106 -58zM494 1202v195h243v88h430v-88h95v-197h-95v-1200h-430v133q-63 -78 -128 -119t-165 -41q-178 -1 -294 147t-115 415v40q0 270 116 420q117 150 291 150
t295 -154v211h-243z" />
    <glyph glyph-name="Emacron" unicode="&#x112;" horiz-adv-x="1169" 
d="M68 0v1434h1050v-377h-612v-164h567v-344h-567v-172h622v-377h-1060zM219 1518v245h758v-245h-758z" />
    <glyph glyph-name="emacron" unicode="&#x113;" horiz-adv-x="1101" 
d="M553 831q-103 0 -121 -182h248q-12 182 -127 182zM203 1212v238h717v-238h-717zM597 -27q-261 0 -414 153t-152 417v26q0 256 146 416t386 160t374 -163t134 -435v-109h-633q43 -139 191 -139q115 0 221 100l197 -233q-189 -193 -450 -193z" />
    <glyph glyph-name="Ebreve" unicode="&#x114;" horiz-adv-x="1169" 
d="M68 0v1434h1050v-377h-612v-164h567v-344h-567v-172h622v-377h-1060zM601 1499q-327 0 -370 281h234q33 -74 134 -74t136 74h232q-39 -281 -366 -281z" />
    <glyph glyph-name="ebreve" unicode="&#x115;" horiz-adv-x="1101" 
d="M553 831q-103 0 -121 -182h248q-12 182 -127 182zM561 1192q-160 0 -259 83t-114 236h226q34 -102 148 -102t147 102h225q-14 -155 -114 -237t-259 -82zM597 -27q-261 0 -414 153t-152 417v26q0 256 146 416t386 160t374 -163t134 -435v-109h-633q43 -139 191 -139
q115 0 221 100l197 -233q-189 -193 -450 -193z" />
    <glyph glyph-name="Edotaccent" unicode="&#x116;" horiz-adv-x="1169" 
d="M68 0v1434h1050v-377h-612v-164h567v-344h-567v-172h622v-377h-1060zM422 1503v283h352v-283h-352z" />
    <glyph glyph-name="edotaccent" unicode="&#x117;" horiz-adv-x="1101" 
d="M553 831q-103 0 -121 -182h248q-12 182 -127 182zM389 1196v291h344v-291h-344zM597 -27q-261 0 -414 153t-152 417v26q0 256 146 416t386 160t374 -163t134 -435v-109h-633q43 -139 191 -139q115 0 221 100l197 -233q-189 -193 -450 -193z" />
    <glyph glyph-name="Eogonek" unicode="&#x118;" horiz-adv-x="1169" 
d="M68 0v1434h1050v-377h-612v-164h567v-344h-567v-172h622v-377h-102q-33 -41 -33 -72t30 -43t105 -14v-190q-250 -30 -377 34q-85 43 -85 123t88 162h-686z" />
    <glyph glyph-name="eogonek" unicode="&#x119;" horiz-adv-x="1101" 
d="M553 831q-103 0 -121 -182h248q-12 182 -127 182zM854 -59q0 -42 30 -55t107 -15v-190q-249 -30 -378 33q-85 42 -85 117t68 142h-6q-254 0 -407 153t-152 417v26q0 256 146 416t386 160t374 -163t134 -435v-109h-633q43 -139 191 -139q115 0 221 100l197 -233
q-17 -16 -33 -34t-38 -38q-122 -111 -122 -153z" />
    <glyph glyph-name="Ecaron" unicode="&#x11a;" horiz-adv-x="1169" 
d="M68 0v1434h1050v-377h-612v-164h567v-344h-567v-172h622v-377h-1060zM989 1780l-213 -277h-356l-213 277h256l137 -90l135 90h254z" />
    <glyph glyph-name="ecaron" unicode="&#x11b;" horiz-adv-x="1101" 
d="M553 831q-103 0 -121 -182h248q-12 182 -127 182zM952 1511l-237 -315h-307l-238 315h240l153 -102l154 102h235zM597 -27q-261 0 -414 153t-152 417v26q0 256 146 416t386 160t374 -163t134 -435v-109h-633q43 -139 191 -139q115 0 221 100l197 -233
q-189 -193 -450 -193z" />
    <glyph glyph-name="Gbreve" unicode="&#x11e;" horiz-adv-x="1345" 
d="M752 -29q-305 0 -508 198t-203 527v39q0 322 202 525q202 202 501 202t524 -182l-234 -326q-127 113 -257 113t-210 -93t-80 -251v-25q0 -166 78 -259t201 -93q74 0 119 25v172h-197v311h606v-702q-237 -181 -542 -181zM732 1518q-327 0 -370 280h234q33 -74 134 -74
t136 74h232q-39 -280 -366 -280z" />
    <glyph glyph-name="gbreve" unicode="&#x11f;" horiz-adv-x="1224" 
d="M635 1192q-160 0 -259 83t-114 236h225q33 -102 148 -102t147 102h226q-14 -155 -114 -237t-259 -82zM600 428q68 0 107 51t38 135v11q0 82 -38 134q-39 52 -108 52t-107 -51t-37 -137v-11q1 -82 39 -133t106 -51zM1167 250q1 -281 -141 -422t-438 -141t-541 108l113 289
q172 -90 358 -90q111 0 169 55t58 158v43q-123 -150 -299 -150t-294 131q-117 131 -117 373v27q0 244 115 379q116 135 288 135t299 -146v119h430v-868z" />
    <glyph glyph-name="Gdotaccent" unicode="&#x120;" horiz-adv-x="1345" 
d="M752 -29q-305 0 -508 198t-203 527v39q0 322 202 525q202 202 501 202t524 -182l-234 -326q-127 113 -257 113t-210 -93t-80 -251v-25q0 -166 78 -259t201 -93q74 0 119 25v172h-197v311h606v-702q-237 -181 -542 -181zM553 1522v282h352v-282h-352z" />
    <glyph glyph-name="gdotaccent" unicode="&#x121;" horiz-adv-x="1224" 
d="M463 1196v291h344v-291h-344zM600 428q68 0 107 51t38 135v11q0 82 -38 134q-39 52 -108 52t-107 -51t-37 -137v-11q1 -82 39 -133t106 -51zM1167 250q1 -281 -141 -422t-438 -141t-541 108l113 289q172 -90 358 -90q111 0 169 55t58 158v43q-123 -150 -299 -150
t-294 131q-117 131 -117 373v27q0 244 115 379q116 135 288 135t299 -146v119h430v-868z" />
    <glyph glyph-name="Gcommaaccent" unicode="&#x122;" horiz-adv-x="1345" 
d="M752 -29q-305 0 -508 198t-203 527v39q0 322 202 525q202 202 501 202t524 -182l-234 -326q-127 113 -257 113t-210 -93t-80 -251v-25q0 -166 78 -259t201 -93q74 0 119 25v172h-197v311h606v-702q-237 -181 -542 -181zM557 -373v283h340v-227q0 -145 -85 -211t-249 -78
l-16 123q86 10 120 37t31 73h-141z" />
    <glyph glyph-name="gcommaaccent" unicode="&#x123;" horiz-adv-x="1224" 
d="M600 428q68 0 107 51t38 135v11q0 82 -38 134q-39 52 -108 52t-107 -51t-37 -137v-11q1 -82 39 -133t106 -51zM1167 250q1 -281 -141 -422t-438 -141t-541 108l113 289q172 -90 358 -90q111 0 169 55t58 158v43q-123 -150 -299 -150t-294 131q-117 131 -117 373v27
q0 244 115 379q116 135 288 135t299 -146v119h430v-868zM801 1479v-283h-340v227q0 145 85 211t249 78l16 -123q-86 -10 -120 -37t-32 -73h142z" />
    <glyph glyph-name="Hbar" unicode="&#x126;" horiz-adv-x="1392" 
d="M524 913h344v150h-344v-150zM-10 1057v235h92v142h442v-146h344v146h443v-142h92v-235h-92v-1057h-443v524h-344v-524h-442v1057h-92z" />
    <glyph glyph-name="hbar" unicode="&#x127;" horiz-adv-x="1175" 
d="M733 1202h-246v-225q125 168 306 168q153 0 241 -97t88 -266v-782h-430v645q0 55 -27 88q-28 33 -72 33t-75 -33t-31 -88v-645h-428v1200h-94v197h94v88h428v-88h246v-195z" />
    <glyph glyph-name="Imacron" unicode="&#x12a;" horiz-adv-x="585" 
d="M-84 1518v245h758v-245h-758zM72 0v1434h442v-1434h-442z" />
    <glyph glyph-name="imacron" unicode="&#x12b;" horiz-adv-x="555" 
d="M-80 1196v238h717v-238h-717zM63 0v1118h429v-1118h-429z" />
    <glyph glyph-name="Ibreve" unicode="&#x12c;" horiz-adv-x="585" 
d="M298 1499q-327 0 -370 281h234q33 -74 134 -74t136 74h232q-39 -281 -366 -281zM72 0v1434h442v-1434h-442z" />
    <glyph glyph-name="ibreve" unicode="&#x12d;" horiz-adv-x="555" 
d="M279 1176q-160 0 -260 82q-99 83 -113 237h225q33 -102 148 -102t147 102h225q-14 -155 -113 -237t-259 -82zM63 0v1118h429v-1118h-429z" />
    <glyph glyph-name="Iogonek" unicode="&#x12e;" horiz-adv-x="585" 
d="M72 0v1434h442v-1434h-80q-33 -41 -33 -72t30 -43t106 -14v-190q-251 -30 -378 34q-85 43 -85 123t88 162h-90z" />
    <glyph glyph-name="iogonek" unicode="&#x12f;" horiz-adv-x="555" 
d="M57 1192v293h443v-293h-443zM63 0v1118h429v-1118h-78q-33 -41 -33 -72t30 -43t105 -14v-190q-250 -30 -378 34q-85 43 -85 123t88 162h-78z" />
    <glyph glyph-name="Idotaccent" unicode="&#x130;" horiz-adv-x="585" 
d="M119 1503v283h352v-283h-352zM72 0v1434h442v-1434h-442z" />
    <glyph glyph-name="dotlessi" unicode="&#x131;" horiz-adv-x="555" 
d="M63 0v1118h429v-1118h-429z" />
    <glyph glyph-name="Kcommaaccent" unicode="&#x136;" horiz-adv-x="1306" 
d="M70 0v1434h442v-519l319 519h496l-403 -615l413 -819h-512l-219 455l-94 -133v-322h-442zM487 -354v282h340v-227q-1 -145 -85 -211t-248 -78l-17 123q86 10 120 37t32 74h-142z" />
    <glyph glyph-name="kcommaaccent" unicode="&#x137;" horiz-adv-x="1126" 
d="M59 0v1485h428v-703l197 336h457l-287 -448l293 -670h-459l-129 326l-72 -101v-225h-428zM408 -354v282h340v-227q0 -145 -85 -211t-249 -78l-17 123q86 10 120 37t32 74h-141z" />
    <glyph glyph-name="Lacute" unicode="&#x139;" horiz-adv-x="1079" 
d="M68 0v1434h442v-1045h547v-389h-989zM162 1503l172 303l434 -92l-297 -211h-309z" />
    <glyph glyph-name="lacute" unicode="&#x13a;" horiz-adv-x="555" 
d="M63 0v1485h429v-1485h-429zM115 1544l172 303l434 -92l-297 -211h-309z" />
    <glyph glyph-name="Lcommaaccent" unicode="&#x13b;" horiz-adv-x="1079" 
d="M68 0v1434h442v-1045h547v-389h-989zM395 -354v282h340v-227q0 -145 -85 -211t-249 -78l-16 123q86 10 120 37t32 74h-142z" />
    <glyph glyph-name="lcommaaccent" unicode="&#x13c;" horiz-adv-x="555" 
d="M63 0v1485h429v-1485h-429zM113 -354v282h340v-227q0 -145 -85 -211t-249 -78l-17 123q86 10 120 37t32 74h-141z" />
    <glyph glyph-name="Lcaron" unicode="&#x13d;" horiz-adv-x="1079" 
d="M68 0v1434h442v-1045h547v-389h-989zM881 1436v-6l-125 -400h-168l20 406h273z" />
    <glyph glyph-name="lcaron" unicode="&#x13e;" horiz-adv-x="555" 
d="M63 0v1485h429v-1485h-429zM856 1581v-6l-125 -399h-168l21 405h272z" />
    <glyph glyph-name="Ldot" unicode="&#x13f;" horiz-adv-x="1079" 
d="M68 0v1434h442v-1045h547v-389h-989zM672 670v352h321v-352h-321z" />
    <glyph glyph-name="ldot" unicode="&#x140;" horiz-adv-x="843" 
d="M63 0v1485h429v-1485h-429zM557 578v358h287v-358h-287z" />
    <glyph glyph-name="Lslash" unicode="&#x141;" horiz-adv-x="1173" 
d="M606 389h547v-389h-989v420l-129 -58v402l129 55v615h442v-420l252 112v-401l-252 -111v-225z" />
    <glyph glyph-name="lslash" unicode="&#x142;" horiz-adv-x="780" 
d="M604 0h-428v453l-147 -66v387l147 66v645h428v-453l148 66v-389l-148 -66v-643z" />
    <glyph glyph-name="Nacute" unicode="&#x143;" horiz-adv-x="1396" 
d="M68 0v1434h419l408 -607v607h432v-1434h-397l-428 637v-637h-434zM535 1503l172 303l434 -92l-297 -211h-309z" />
    <glyph glyph-name="nacute" unicode="&#x144;" horiz-adv-x="1175" 
d="M59 0v1118h428v-145q127 172 293 172t254 -97t88 -266v-782h-430v645q0 55 -27 88q-28 33 -72 33t-75 -33t-31 -88v-645h-428zM432 1196l178 352l408 -102l-309 -250h-277z" />
    <glyph glyph-name="Ncommaaccent" unicode="&#x145;" horiz-adv-x="1396" 
d="M68 0v1434h419l408 -607v607h432v-1434h-397l-428 637v-637h-434zM530 -354v282h340v-227q0 -145 -84 -211t-249 -78l-17 123q86 10 120 37t32 74h-142z" />
    <glyph glyph-name="ncommaaccent" unicode="&#x146;" horiz-adv-x="1175" 
d="M59 0v1118h428v-145q127 172 293 172t254 -97t88 -266v-782h-430v645q0 55 -27 88q-28 33 -72 33t-75 -33t-31 -88v-645h-428zM422 -354v282h340v-227q0 -145 -85 -211t-249 -78l-16 123q86 10 120 37t31 74h-141z" />
    <glyph glyph-name="Ncaron" unicode="&#x147;" horiz-adv-x="1396" 
d="M68 0v1434h419l408 -607v607h432v-1434h-397l-428 637v-637h-434zM1087 1780l-213 -277h-356l-213 277h256l137 -90l136 90h253z" />
    <glyph glyph-name="ncaron" unicode="&#x148;" horiz-adv-x="1175" 
d="M59 0v1118h428v-145q127 172 293 172t254 -97t88 -266v-782h-430v645q0 55 -27 88q-28 33 -72 33t-75 -33t-31 -88v-645h-428zM981 1511l-238 -315h-307l-237 315h239l154 -102l153 102h236z" />
    <glyph glyph-name="Omacron" unicode="&#x14c;" horiz-adv-x="1441" 
d="M721 365q109 0 170 88t61 247v31q0 160 -62 249t-170 89t-170 -89t-63 -247v-31q1 -160 63 -248t171 -89zM719 -31q-297 0 -488 203q-190 203 -190 524v37q0 322 191 527q190 204 488 204t489 -202t192 -525v-37q-1 -322 -193 -526t-489 -205zM340 1536v246h758v-246
h-758z" />
    <glyph glyph-name="omacron" unicode="&#x14d;" horiz-adv-x="1179" 
d="M592 336q66 0 104 57t37 154v24q0 95 -40 153t-104 58q-65 0 -103 -56t-37 -153v-24q0 -98 38 -156q39 -57 105 -57zM588 -27q-246 0 -402 160t-155 406v36q0 248 157 409q158 161 404 161t402 -160t155 -405v-37q1 -248 -157 -409t-404 -161zM231 1212v238h717v-238
h-717z" />
    <glyph glyph-name="Obreve" unicode="&#x14e;" horiz-adv-x="1441" 
d="M721 365q109 0 170 88t61 247v31q0 160 -62 249t-170 89t-170 -89t-63 -247v-31q1 -160 63 -248t171 -89zM719 -31q-297 0 -488 203q-190 203 -190 524v37q0 322 191 527q190 204 488 204t489 -202t192 -525v-37q-1 -322 -193 -526t-489 -205zM722 1518q-327 0 -370 280
h234q33 -74 134 -74t136 74h231q-38 -280 -365 -280z" />
    <glyph glyph-name="obreve" unicode="&#x14f;" horiz-adv-x="1179" 
d="M590 1192q-160 0 -259 83t-114 236h225q33 -102 148 -102t147 102h226q-13 -155 -113 -237t-260 -82zM592 336q66 0 104 57t37 154v24q0 95 -40 153t-104 58q-65 0 -103 -56t-37 -153v-24q0 -98 38 -156q39 -57 105 -57zM588 -27q-246 0 -402 160t-155 406v36
q0 248 157 409q158 161 404 161t402 -160t155 -405v-37q1 -248 -157 -409t-404 -161z" />
    <glyph glyph-name="Ohungarumlaut" unicode="&#x150;" horiz-adv-x="1441" 
d="M752 1522l73 139l-182 -139h-270l157 303l338 -80l43 80l387 -90l-274 -213h-272zM721 365q109 0 170 88t61 247v31q0 160 -62 249t-170 89t-170 -89t-63 -247v-31q1 -160 63 -248t171 -89zM719 -31q-297 0 -488 203q-190 203 -190 524v37q0 322 191 527q190 204 488 204
t489 -202t192 -525v-37q-1 -322 -193 -526t-489 -205z" />
    <glyph glyph-name="ohungarumlaut" unicode="&#x151;" horiz-adv-x="1179" 
d="M592 336q66 0 104 57t37 154v24q0 95 -40 153t-104 58q-65 0 -103 -56t-37 -153v-24q0 -98 38 -156q39 -57 105 -57zM256 1196l166 352l317 -88l41 88l367 -100l-289 -252h-244l80 170l-194 -170h-244zM588 -27q-246 0 -402 160t-155 406v36q0 248 157 409
q158 161 404 161t402 -160t155 -405v-37q1 -248 -157 -409t-404 -161z" />
    <glyph glyph-name="OE" unicode="&#x152;" horiz-adv-x="1914" 
d="M784 383h58v668h-58q-139 0 -218 -78t-79 -242v-29q0 -162 79 -240t218 -79zM803 0q-373 0 -567 184t-195 510v31q0 328 198 518t574 191h1053v-377h-588v-164h541v-344h-541v-172h596v-377h-1071z" />
    <glyph glyph-name="oe" unicode="&#x153;" horiz-adv-x="1798" 
d="M1251 831q-104 0 -118 -182h245q-12 182 -127 182zM592 336q66 0 104 57t37 154v24q0 95 -40 153t-104 58q-65 0 -103 -56t-37 -153v-24q0 -98 38 -156q39 -57 105 -57zM567 -27q-227 0 -382 160t-154 406v36q0 246 155 408q156 162 386 162t364 -141q125 141 328 141
q242 0 374 -164t131 -434v-109h-632q43 -139 190 -139q115 0 221 100l197 -233q-188 -193 -432 -193t-381 142q-138 -142 -365 -142z" />
    <glyph glyph-name="Racute" unicode="&#x154;" horiz-adv-x="1286" 
d="M508 743h143q76 0 119 40t43 114v10q0 76 -43 115t-117 39h-145v-318zM463 1503l172 303l434 -92l-297 -211h-309zM68 0v1434h589q319 0 471 -152q129 -129 129 -342v-12q0 -287 -245 -420l286 -508h-495l-223 418h-72v-418h-440z" />
    <glyph glyph-name="racute" unicode="&#x155;" horiz-adv-x="790" 
d="M59 0v1118h428v-209q90 236 293 226v-473h-35q-258 0 -258 -314v-348h-428zM252 1180l178 352l408 -102l-310 -250h-276z" />
    <glyph glyph-name="Rcommaaccent" unicode="&#x156;" horiz-adv-x="1286" 
d="M508 743h143q76 0 119 40t43 114v10q0 76 -43 115t-117 39h-145v-318zM465 -354v282h340v-227q0 -145 -85 -211t-249 -78l-16 123q85 10 119 37t32 74h-141zM68 0v1434h589q319 0 471 -152q129 -129 129 -342v-12q0 -287 -245 -420l286 -508h-495l-223 418h-72v-418h-440
z" />
    <glyph glyph-name="rcommaaccent" unicode="&#x157;" horiz-adv-x="790" 
d="M59 0v1118h428v-209q90 236 293 226v-473h-35q-258 0 -258 -314v-348h-428zM115 -354v282h340v-227q0 -145 -85 -211t-249 -78l-17 123q86 10 120 37t32 74h-141z" />
    <glyph glyph-name="Rcaron" unicode="&#x158;" horiz-adv-x="1286" 
d="M508 743h143q76 0 119 40t43 114v10q0 76 -43 115t-117 39h-145v-318zM1018 1780l-213 -277h-356l-213 277h256l137 -90l135 90h254zM68 0v1434h589q319 0 471 -152q129 -129 129 -342v-12q0 -287 -245 -420l286 -508h-495l-223 418h-72v-418h-440z" />
    <glyph glyph-name="rcaron" unicode="&#x159;" horiz-adv-x="790" 
d="M59 0v1118h428v-209q90 236 293 226v-473h-35q-258 0 -258 -314v-348h-428zM799 1495l-238 -315h-307l-238 315h240l154 -102l153 102h236z" />
    <glyph glyph-name="Sacute" unicode="&#x15a;" horiz-adv-x="1191" 
d="M438 1522l172 303l434 -92l-296 -211h-310zM602 -25q-379 0 -635 211l213 318q209 -160 426 -160q111 0 111 68v4q0 34 -37 56q-36 22 -148 54t-192 67q-207 88 -268 216q-37 76 -37 174v8q0 207 148 337t403 130q334 0 561 -176l-207 -321q-178 129 -360 129
q-47 0 -73 -18t-26 -46v-4q0 -34 39 -56t146 -57q246 -68 372 -170t127 -286v-7q-1 -215 -155 -343t-408 -128z" />
    <glyph glyph-name="sacute" unicode="&#x15b;" horiz-adv-x="958" 
d="M489 -27q-281 0 -501 148l143 278q186 -121 350 -120q63 0 64 38v2q0 17 -25 33t-98 41q-201 63 -294 141t-93 228v4q0 176 122 277t324 102q254 0 447 -119l-142 -281q-164 94 -294 95q-63 0 -64 -37v-4q0 -19 27 -33t102 -39q199 -67 290 -145t91 -220v-4
q0 -178 -120 -282t-329 -103zM332 1196l178 352l408 -102l-310 -250h-276z" />
    <glyph glyph-name="Scedilla" unicode="&#x15e;" horiz-adv-x="1191" 
d="M606 344q111 0 111 68v4q0 34 -37 56q-36 22 -148 54t-192 67q-207 88 -268 216q-37 76 -37 174v8q0 207 148 337t403 130q334 0 561 -176l-207 -321q-178 129 -360 129q-47 0 -73 -18t-26 -46v-4q0 -34 39 -56t146 -57q246 -68 372 -170t127 -286v-7q0 -194 -126 -318
t-339 -146l-86 -310l-348 127l150 191q-264 41 -449 196l213 318q209 -160 426 -160z" />
    <glyph glyph-name="scedilla" unicode="&#x15f;" horiz-adv-x="958" 
d="M545 319q0 17 -25 33t-98 41q-201 63 -294 141t-93 228v4q0 176 122 277t324 102q254 0 447 -119l-142 -281q-164 94 -294 95q-63 0 -64 -37v-4q0 -19 27 -33t102 -39q199 -67 290 -145t91 -220v-4q0 -156 -93 -255t-259 -121l-86 -310l-348 127l151 193
q-168 31 -315 129l143 278q186 -121 350 -120q63 0 64 38v2z" />
    <glyph glyph-name="Scaron" unicode="&#x160;" horiz-adv-x="1191" 
d="M993 1798l-213 -276h-356l-213 276h256l137 -90l135 90h254zM602 -25q-379 0 -635 211l213 318q209 -160 426 -160q111 0 111 68v4q0 34 -37 56q-36 22 -148 54t-192 67q-207 88 -268 216q-37 76 -37 174v8q0 207 148 337t403 130q334 0 561 -176l-207 -321
q-178 129 -360 129q-47 0 -73 -18t-26 -46v-4q0 -34 39 -56t146 -57q246 -68 372 -170t127 -286v-7q-1 -215 -155 -343t-408 -128z" />
    <glyph glyph-name="scaron" unicode="&#x161;" horiz-adv-x="958" 
d="M489 -27q-281 0 -501 148l143 278q186 -121 350 -120q63 0 64 38v2q0 17 -25 33t-98 41q-201 63 -294 141t-93 228v4q0 176 122 277t324 102q254 0 447 -119l-142 -281q-164 94 -294 95q-63 0 -64 -37v-4q0 -19 27 -33t102 -39q199 -67 290 -145t91 -220v-4
q0 -178 -120 -282t-329 -103zM883 1511l-238 -315h-307l-238 315h240l154 -102l153 102h236z" />
    <glyph glyph-name="Tcommaaccent" unicode="&#x162;" horiz-adv-x="1187" 
d="M373 0v1047h-350v387h1142v-387h-350v-1047h-442zM426 -354v282h340v-227q0 -145 -85 -211t-249 -78l-16 123q86 10 120 37t31 74h-141z" />
    <glyph glyph-name="tcommaaccent" unicode="&#x163;" horiz-adv-x="800" 
d="M500 -25q-371 0 -371 355v454h-109v334h109v275h428v-275h215v-334h-215v-352q0 -92 92 -92q51 0 119 29v-334q-114 -60 -268 -60zM262 -371v283h340v-227q0 -145 -85 -211t-249 -78l-16 123q86 10 120 37t31 73h-141z" />
    <glyph glyph-name="Tcaron" unicode="&#x164;" horiz-adv-x="1187" 
d="M373 0v1047h-350v387h1142v-387h-350v-1047h-442zM985 1780l-213 -277h-356l-213 277h256l137 -90l135 90h254z" />
    <glyph glyph-name="tcaron" unicode="&#x165;" horiz-adv-x="800" 
d="M500 -25q-371 0 -371 355v454h-109v334h109v275h428v-275h215v-334h-215v-352q0 -92 92 -92q51 0 119 29v-334q-114 -60 -268 -60zM911 1581v-6l-125 -399h-168l21 405h272z" />
    <glyph glyph-name="Umacron" unicode="&#x16a;" horiz-adv-x="1355" 
d="M1296 586q0 -315 -164 -465t-456 -150q-291 1 -455 149t-164 458v856h449v-861q0 -104 46 -155t126 -51t126 49t46 151v867h446v-848zM297 1518v245h758v-245h-758z" />
    <glyph glyph-name="umacron" unicode="&#x16b;" horiz-adv-x="1175" 
d="M223 1196v238h717v-238h-717zM394 -27q-167 -1 -255 97t-88 266v782h430v-645q0 -55 29 -88t72 -33q44 0 74 33t30 88v645h430v-1118h-430v141q-125 -168 -292 -168z" />
    <glyph glyph-name="Ubreve" unicode="&#x16c;" horiz-adv-x="1355" 
d="M1296 586q0 -315 -164 -465t-456 -150q-291 1 -455 149t-164 458v856h449v-861q0 -104 46 -155t126 -51t126 49t46 151v867h446v-848zM679 1487q-327 0 -370 280h234q33 -73 134 -73t136 73h231q-38 -280 -365 -280z" />
    <glyph glyph-name="ubreve" unicode="&#x16d;" horiz-adv-x="1175" 
d="M582 1176q-160 0 -259 82t-114 237h225q33 -102 148 -102t147 102h225q-14 -155 -113 -237t-259 -82zM394 -27q-167 -1 -255 97t-88 266v782h430v-645q0 -55 29 -88t72 -33q44 0 74 33t30 88v645h430v-1118h-430v141q-125 -168 -292 -168z" />
    <glyph glyph-name="Uring" unicode="&#x16e;" horiz-adv-x="1355" 
d="M676 1606q63 0 104 38t41 95t-41 96t-104 39q-62 0 -104 -39t-42 -96t42 -95t104 -38zM676 1479q-125 1 -207 75t-82 186t82 186t207 73q125 0 207 -74q82 -73 82 -185t-82 -186t-207 -75zM1296 586q0 -315 -164 -465t-456 -150q-291 1 -455 149t-164 458v856h449v-861
q0 -104 46 -155t126 -51t126 49t46 151v867h446v-848z" />
    <glyph glyph-name="uring" unicode="&#x16f;" horiz-adv-x="1175" 
d="M394 -27q-167 -1 -255 97t-88 266v782h430v-645q0 -55 29 -88t72 -33q44 0 74 33t30 88v645h430v-1118h-430v141q-125 -168 -292 -168zM582 1294q53 0 90 38t37 95t-37 95t-90 39q-53 0 -90 -38q-37 -37 -37 -95t37 -96t90 -38zM582 1171q-111 0 -188 75t-77 181
q0 107 77 181t188 74q112 0 188 -74t76 -180t-76 -182q-76 -75 -188 -75z" />
    <glyph glyph-name="Uhungarumlaut" unicode="&#x170;" horiz-adv-x="1355" 
d="M690 1503l74 139l-182 -139h-271l158 303l338 -80l43 80l387 -90l-274 -213h-273zM1296 586q0 -315 -164 -465t-456 -150q-291 1 -455 149t-164 458v856h449v-861q0 -104 46 -155t126 -51t126 49t46 151v867h446v-848z" />
    <glyph glyph-name="uhungarumlaut" unicode="&#x171;" horiz-adv-x="1175" 
d="M238 1180l165 352l318 -88l41 88l366 -100l-288 -252h-244l80 170l-195 -170h-243zM394 -27q-167 -1 -255 97t-88 266v782h430v-645q0 -55 29 -88t72 -33q44 0 74 33t30 88v645h430v-1118h-430v141q-125 -168 -292 -168z" />
    <glyph glyph-name="Uogonek" unicode="&#x172;" horiz-adv-x="1355" 
d="M444 -166q0 76 72 150q-219 35 -339 182t-120 412v856h449v-861q0 -104 46 -155t126 -51t126 49t46 151v867h446v-848q0 -282 -133 -432t-375 -177q-16 -25 -16 -53t30 -39q30 -12 105 -14v-190q-250 -30 -378 34q-85 43 -85 119z" />
    <glyph glyph-name="uogonek" unicode="&#x173;" horiz-adv-x="1175" 
d="M394 -27q-167 -1 -255 97t-88 266v782h430v-645q0 -55 29 -88t72 -33q44 0 74 33t30 88v645h430v-1118h-86q-33 -41 -33 -72t30 -43t106 -14v-190q-251 -30 -378 34q-85 43 -85 123t88 162h-72v141q-125 -168 -292 -168z" />
    <glyph glyph-name="Wcircumflex" unicode="&#x174;" horiz-adv-x="1982" 
d="M600 1503l213 277h356l213 -277h-258l-135 92l-135 -92h-254zM387 -8l-389 1442h463l160 -715l186 719h377l186 -719l160 715h457l-392 -1442h-405l-199 674l-198 -674h-406z" />
    <glyph glyph-name="wcircumflex" unicode="&#x175;" horiz-adv-x="1570" 
d="M293 -8l-295 1126h416l94 -473l108 477h338l111 -481l98 477h410l-297 -1126h-365l-127 471l-129 -471h-362zM393 1180l238 315h307l238 -315h-240l-154 104l-153 -104h-236z" />
    <glyph glyph-name="Ycircumflex" unicode="&#x176;" horiz-adv-x="1300" 
d="M258 1503l213 277h356l213 -277h-258l-135 92l-135 -92h-254zM428 0v506l-455 928h484l196 -471l199 471h475l-457 -924v-510h-442z" />
    <glyph glyph-name="ycircumflex" unicode="&#x177;" horiz-adv-x="1171" 
d="M205 1180l237 315h308l237 -315h-239l-154 104l-154 -104h-235zM394 -315q-176 0 -349 90l102 299q159 -86 228 -39l-377 1083h442l156 -579l145 579h435l-340 -1040q-70 -211 -168 -302t-274 -91z" />
    <glyph glyph-name="Ydieresis" unicode="&#x178;" horiz-adv-x="1300" 
d="M276 1503v283h336v-283h-336zM686 1503v283h336v-283h-336zM428 0v506l-455 928h484l196 -471l199 471h475l-457 -924v-510h-442z" />
    <glyph glyph-name="Zacute" unicode="&#x179;" horiz-adv-x="1202" 
d="M455 1503l172 303l434 -92l-297 -211h-309zM33 0v324l540 733h-522v377h1120v-324l-540 -733h540v-377h-1138z" />
    <glyph glyph-name="zacute" unicode="&#x17a;" horiz-adv-x="1009" 
d="M29 0v281l397 495h-385v342h944v-280l-397 -496h397v-342h-956zM365 1180l178 352l407 -102l-309 -250h-276z" />
    <glyph glyph-name="Zdotaccent" unicode="&#x17b;" horiz-adv-x="1202" 
d="M33 0v324l540 733h-522v377h1120v-324l-540 -733h540v-377h-1138zM440 1503v283h353v-283h-353z" />
    <glyph glyph-name="zdotaccent" unicode="&#x17c;" horiz-adv-x="1009" 
d="M350 1180v290h344v-290h-344zM29 0v281l397 495h-385v342h944v-280l-397 -496h397v-342h-956z" />
    <glyph glyph-name="Zcaron" unicode="&#x17d;" horiz-adv-x="1202" 
d="M33 0v324l540 733h-522v377h1120v-324l-540 -733h540v-377h-1138zM1010 1780l-213 -277h-357l-213 277h256l138 -90l135 90h254z" />
    <glyph glyph-name="zcaron" unicode="&#x17e;" horiz-adv-x="1009" 
d="M29 0v281l397 495h-385v342h944v-280l-397 -496h397v-342h-956zM913 1495l-237 -315h-307l-238 315h240l153 -102l154 102h235z" />
    <glyph glyph-name="Aringacute" unicode="&#x1fa;" horiz-adv-x="1415" 
d="M596 532h215l-109 373zM707 1384q63 0 104 38t41 96t-41 96q-41 39 -103 39t-104 -39t-41 -96q0 -57 40 -96q41 -38 104 -38zM545 1817l180 292l426 -96l-315 -196h-291zM420 1520q0 110 82 184t206 74t206 -74t83 -184q0 -72 -36 -131l475 -1389h-469l-62 205h-405
l-60 -205h-460l475 1389q-35 59 -35 131z" />
    <glyph glyph-name="aringacute" unicode="&#x1fb;" horiz-adv-x="1105" 
d="M561 1323q53 0 90 38t37 95t-37 95t-90 38t-90 -38t-37 -95t37 -95t90 -38zM561 1200q-111 0 -187 75t-77 181q0 106 77 180q78 74 188 74t187 -74t77 -180t-78 -181q-76 -75 -187 -75zM424 344q0 -48 26 -78t70 -30q45 0 77 40t32 111v74q-37 18 -90 18t-84 -35t-31 -88
v-12zM358 -25q-156 -1 -246 89q-89 90 -89 251v15q0 170 100 260q101 90 257 90t247 -41v18q0 152 -181 152q-129 0 -268 -61l-88 307q199 82 434 82q285 0 408 -123t123 -350v-664h-430v106q-111 -131 -267 -131zM401 1767l193 308l399 -95l-311 -213h-281z" />
    <glyph glyph-name="AEacute" unicode="&#x1fc;" horiz-adv-x="1906" 
d="M840 532v533h-17l-211 -533h228zM1855 1434v-377h-585v-164h540v-344h-540v-172h596v-377h-1026v205h-357l-77 -205h-441l602 1434h1288zM915 1503l172 303l435 -92l-297 -211h-310z" />
    <glyph glyph-name="aeacute" unicode="&#x1fd;" horiz-adv-x="1689" 
d="M1141 831q-107 0 -121 -182h248q-12 182 -127 182zM524 240q72 0 138 77q-25 68 -31 144q-47 18 -96 18t-80 -35t-31 -88v-12q0 -48 28 -76t72 -28zM680 1180l178 352l408 -102l-310 -250h-276zM387 -25q-158 0 -261 87t-103 255v17q0 168 100 257q101 89 257 89t247 -41
v18q0 152 -181 152q-129 0 -272 -64l-84 314q205 78 424 78t342 -101q121 109 297 109q242 0 374 -164t132 -434v-109h-633q39 -139 191 -139q115 0 221 100l194 -233q-186 -193 -450 -193t-414 166q-174 -164 -381 -164z" />
    <glyph glyph-name="Oslashacute" unicode="&#x1fe;" horiz-adv-x="1441" 
d="M479 702q0 -82 15 -139l352 475q-57 41 -127 41q-111 0 -175 -92t-65 -254v-31zM723 354q111 0 175 91t65 255v31q0 74 -17 139l-352 -475q57 -41 129 -41zM557 1522l172 303l434 -92l-297 -211h-309zM1401 737v-37q0 -322 -193 -526t-489 -205q-207 0 -369 105l-63 -84
h-254l170 217q-162 197 -162 489v37q0 322 191 527t489 204q205 0 369 -106l65 86h252l-170 -217q164 -203 164 -490z" />
    <glyph glyph-name="oslashacute" unicode="&#x1ff;" horiz-adv-x="1179" 
d="M592 315q72 1 115 63t43 165v30q0 18 -5 52l-227 -291q35 -19 74 -19zM430 545q0 -39 2 -58l232 295q-37 20 -76 21q-72 -1 -115 -63t-43 -165v-30zM432 1196l178 352l408 -102l-309 -250h-277zM1149 580v-37q0 -248 -158 -409t-403 -161q-170 0 -299 82l-51 -63h-232
l150 178q-125 152 -125 369v36q0 248 157 409q158 161 404 161q164 0 299 -82l51 63h232l-150 -180q125 -154 125 -366z" />
    <glyph glyph-name="Scommaaccent" unicode="&#x218;" horiz-adv-x="1191" 
d="M602 -25q-379 0 -635 211l213 318q209 -160 426 -160q111 0 111 68v4q0 34 -37 56q-36 22 -148 54t-192 67q-207 88 -268 216q-37 76 -37 174v8q0 207 148 337t403 130q334 0 561 -176l-207 -321q-178 129 -360 129q-47 0 -73 -18t-26 -46v-4q0 -34 39 -56t146 -57
q246 -68 372 -170t127 -286v-7q-1 -215 -155 -343t-408 -128zM422 -373v283h340v-227q0 -145 -85 -211t-249 -78l-16 123q86 10 120 37t31 73h-141z" />
    <glyph glyph-name="scommaaccent" unicode="&#x219;" horiz-adv-x="958" 
d="M489 -27q-281 0 -501 148l143 278q186 -121 350 -120q63 0 64 38v2q0 17 -25 33t-98 41q-201 63 -294 141t-93 228v4q0 176 122 277t324 102q254 0 447 -119l-142 -281q-164 94 -294 95q-63 0 -64 -37v-4q0 -19 27 -33t102 -39q199 -67 290 -145t91 -220v-4
q0 -178 -120 -282t-329 -103zM315 -371v283h340v-227q-1 -145 -85 -211t-248 -78l-17 123q86 10 120 37t32 73h-142z" />
    <glyph glyph-name="schwa" unicode="&#x259;" horiz-adv-x="1101" 
d="M547 287q103 0 121 182h-248q12 -182 127 -182zM503 1145q261 0 413 -153t153 -417v-26q0 -256 -146 -416t-386 -160t-374 163t-134 435v109h633q-43 139 -191 139q-115 0 -221 -100l-197 233q189 193 450 193z" />
    <glyph glyph-name="circumflex" unicode="&#x2c6;" 
d="M121 1180l237 315h308l237 -315h-239l-154 104l-154 -104h-235z" />
    <glyph glyph-name="caron" unicode="&#x2c7;" 
d="M903 1495l-237 -315h-308l-237 315h239l154 -102l154 102h235z" />
    <glyph glyph-name="breve" unicode="&#x2d8;" 
d="M512 1176q-160 0 -259 82t-114 237h226q33 -102 147 -102t147 102h226q-13 -155 -113 -237t-260 -82z" />
    <glyph glyph-name="dotaccent" unicode="&#x2d9;" 
d="M340 1180v290h344v-290h-344z" />
    <glyph glyph-name="ring" unicode="&#x2da;" 
d="M512 1307q53 0 90 38t37 95t-37 95t-90 38t-90 -38t-37 -95t37 -95t90 -38zM512 1184q-112 0 -188 74t-76 182q0 106 77 180t187 74t188 -74q76 -74 76 -180t-76 -181t-188 -75z" />
    <glyph glyph-name="ogonek" unicode="&#x2db;" 
d="M307 -166q0 102 133 203l254 -8q-59 -61 -59 -97q-1 -36 29 -47q30 -12 106 -14v-190q-250 -30 -378 34q-85 43 -85 119z" />
    <glyph glyph-name="tilde" unicode="&#x2dc;" 
d="M688 1178q-58 0 -166 37t-139 37t-48 -19q-17 -18 -32 -64l-188 43q20 158 74 230t147 71q58 -1 166 -37t139 -36t47 17t33 65l188 -41q-20 -158 -74 -231q-55 -72 -147 -72z" />
    <glyph glyph-name="hungarumlaut" unicode="&#x2dd;" 
d="M76 1180l166 352l317 -88l41 88l367 -100l-289 -252h-244l80 170l-195 -170h-243z" />
    <glyph glyph-name="commaaccent" unicode="&#x326;" 
d="M342 -354v282h340v-227q0 -145 -85 -211t-249 -78l-16 123q86 10 120 37t31 74h-141z" />
    <glyph glyph-name="Wgrave" unicode="&#x1e80;" horiz-adv-x="1982" 
d="M387 -8l-389 1442h463l160 -715l186 719h377l186 -719l160 715h457l-392 -1442h-405l-199 674l-198 -674h-406zM1151 1503h-309l-297 211l434 92z" />
    <glyph glyph-name="wgrave" unicode="&#x1e81;" horiz-adv-x="1570" 
d="M664 1180l-310 250l408 102l178 -352h-276zM293 -8l-295 1126h416l94 -473l108 477h338l111 -481l98 477h410l-297 -1126h-365l-127 471l-129 -471h-362z" />
    <glyph glyph-name="Wacute" unicode="&#x1e82;" horiz-adv-x="1982" 
d="M387 -8l-389 1442h463l160 -715l186 719h377l186 -719l160 715h457l-392 -1442h-405l-199 674l-198 -674h-406zM827 1503l172 303l435 -92l-297 -211h-310z" />
    <glyph glyph-name="wacute" unicode="&#x1e83;" horiz-adv-x="1570" 
d="M293 -8l-295 1126h416l94 -473l108 477h338l111 -481l98 477h410l-297 -1126h-365l-127 471l-129 -471h-362zM627 1180l178 352l407 -102l-309 -250h-276z" />
    <glyph glyph-name="Wdieresis" unicode="&#x1e84;" horiz-adv-x="1982" 
d="M387 -8l-389 1442h463l160 -715l186 719h377l186 -719l160 715h457l-392 -1442h-405l-199 674l-198 -674h-406zM616 1503v283h336v-283h-336zM1026 1503v283h336v-283h-336z" />
    <glyph glyph-name="wdieresis" unicode="&#x1e85;" horiz-adv-x="1570" 
d="M293 -8l-295 1126h416l94 -473l108 477h338l111 -481l98 477h410l-297 -1126h-365l-127 471l-129 -471h-362zM428 1180v290h324v-290h-324zM817 1180v290h324v-290h-324z" />
    <glyph glyph-name="Ygrave" unicode="&#x1ef2;" horiz-adv-x="1300" 
d="M811 1503h-309l-297 211l434 92zM428 0v506l-455 928h484l196 -471l199 471h475l-457 -924v-510h-442z" />
    <glyph glyph-name="ygrave" unicode="&#x1ef3;" horiz-adv-x="1171" 
d="M477 1180l-309 250l407 102l179 -352h-277zM394 -315q-176 0 -349 90l102 299q159 -86 228 -39l-377 1083h442l156 -579l145 579h435l-340 -1040q-70 -211 -168 -302t-274 -91z" />
    <glyph glyph-name="enspace" unicode="&#x2002;" 
 />
    <glyph glyph-name="emspace" unicode="&#x2003;" horiz-adv-x="2048" 
 />
    <glyph glyph-name="threeperemspace" unicode="&#x2004;" horiz-adv-x="681" 
 />
    <glyph glyph-name="fourperemspace" unicode="&#x2005;" horiz-adv-x="512" 
 />
    <glyph glyph-name="thinspace" unicode="&#x2009;" horiz-adv-x="249" 
 />
    <glyph glyph-name="hairspace" unicode="&#x200a;" horiz-adv-x="137" 
 />
    <glyph glyph-name="endash" unicode="&#x2013;" horiz-adv-x="1021" 
d="M51 467v356h922v-356h-922z" />
    <glyph glyph-name="emdash" unicode="&#x2014;" horiz-adv-x="1687" 
d="M51 467v356h1585v-356h-1585z" />
    <glyph glyph-name="quoteleft" unicode="&#x2018;" horiz-adv-x="530" 
d="M41 676v352q0 211 112 306t314 110l35 -158q-199 -33 -205 -170h186v-440h-442z" />
    <glyph glyph-name="quoteright" unicode="&#x2019;" horiz-adv-x="530" 
d="M47 993v441h442v-353q1 -211 -111 -305t-315 -110l-34 159q201 31 204 168h-186z" />
    <glyph glyph-name="quotesinglbase" unicode="&#x201a;" horiz-adv-x="530" 
d="M45 0v440h442v-352q1 -212 -111 -306t-315 -110l-34 160q199 31 204 168h-186z" />
    <glyph glyph-name="quotedblleft" unicode="&#x201c;" horiz-adv-x="1036" 
d="M41 676v352q0 209 109 305t305 111l34 -158q-193 -33 -198 -170h180v-440h-430zM559 676v352q0 207 108 304t304 112l35 -158q-193 -33 -197 -170h178v-440h-428z" />
    <glyph glyph-name="quotedblright" unicode="&#x201d;" horiz-adv-x="1036" 
d="M47 993v441h428v-353q1 -207 -107 -303t-305 -112l-34 159q193 31 196 168h-178zM565 993v441h428v-353q0 -207 -107 -303t-304 -112l-35 159q193 31 196 168h-178z" />
    <glyph glyph-name="quotedblbase" unicode="&#x201e;" horiz-adv-x="1034" 
d="M45 0v440h428v-352q1 -208 -107 -304t-305 -112l-34 160q193 31 196 168h-178zM561 0v440h430v-352q0 -208 -107 -304t-306 -112l-35 160q193 29 198 168h-180z" />
    <glyph glyph-name="dagger" unicode="&#x2020;" horiz-adv-x="753" 
d="M260 446l25 541l-234 -26v247l232 -26l-37 252h262l-37 -252l231 26v-247l-233 26l23 -541h-232z" />
    <glyph glyph-name="daggerdbl" unicode="&#x2021;" horiz-adv-x="786" 
d="M262 0l37 252l-229 -27v248l235 -27l-37 271l37 270l-235 -26v247l229 -26l-37 252h264l-37 -252l230 26v-247l-236 26l35 -270l-35 -271l236 27v-248l-230 27l37 -252h-264z" />
    <glyph glyph-name="bullet" unicode="&#x2022;" horiz-adv-x="942" 
d="M471 334q-147 0 -248 107q-100 108 -100 272v18q0 163 100 271q99 108 247 108t248 -108t101 -271v-18q0 -164 -100 -272q-101 -107 -248 -107z" />
    <glyph glyph-name="ellipsis" unicode="&#x2026;" horiz-adv-x="1585" 
d="M45 0v438h436v-438h-436zM573 0v438h439v-438h-439zM1104 0v438h436v-438h-436z" />
    <glyph glyph-name="perthousand" unicode="&#x2030;" horiz-adv-x="2426" 
d="M2382 381q0 -177 -96 -289t-249 -112t-249 112t-96 289v14q0 178 95 290t250 112t250 -112t95 -290v-14zM2038 219q38 0 62 42t24 118v18q0 76 -24 118t-62 42q-88 0 -88 -160v-18q0 -76 24 -118t64 -42zM1640 381q0 -177 -96 -289t-249 -112t-249 112t-96 289v14
q0 178 96 290t250 112t249 -112t95 -290v-14zM1294 219q39 0 64 42t24 118v18q0 76 -23 118q-24 42 -65 42q-86 0 -86 -160v-18q0 -76 24 -118t62 -42zM1481 1434l-563 -783l-445 -651h-268l555 770l452 664h269zM733 1038q0 -178 -96 -290t-249 -111q-153 0 -249 112
t-96 289v15q0 177 95 289t250 112t250 -112t95 -289v-15zM389 877q39 0 63 42t23 117v19q1 75 -23 117t-63 42q-88 0 -88 -159v-19q1 -76 25 -118t63 -41z" />
    <glyph glyph-name="guilsinglleft" unicode="&#x2039;" horiz-adv-x="626" 
d="M336 61l-303 418v146l303 419l266 -124l-213 -367l213 -367z" />
    <glyph glyph-name="guilsinglright" unicode="&#x203a;" horiz-adv-x="626" 
d="M291 61l-266 125l211 365l-211 367l266 124l303 -417v-146z" />
    <glyph glyph-name="Euro" unicode="&#x20ac;" horiz-adv-x="1165" 
d="M774 1081q-125 0 -174 -108h252v-217h-289v-72h289v-215h-258q49 -117 184 -117q104 0 187 86l209 -297q-172 -170 -417 -170t-398 131t-193 357h-125v225h109v74h-109v223h131q43 217 201 349t394 132t404 -162l-217 -299q-80 80 -180 80z" />
    <glyph glyph-name="published" unicode="&#x2117;" horiz-adv-x="1486" 
d="M711 735h49q46 0 72 25t26 69v5q0 96 -96 96h-51v-195zM463 322v811h305q156 0 246 -73t90 -214v-8q0 -141 -93 -216t-239 -75h-61v-225h-248zM741 49q252 -1 416 187t164 469v26q0 281 -163 467t-415 186q-251 0 -415 -187t-164 -468v-27q0 -281 162 -467t415 -186z
M741 -31q-283 0 -471 210t-188 523v27q0 313 189 524t472 211t472 -210t190 -523v-26q-1 -313 -191 -525t-473 -211z" />
    <glyph glyph-name="servicemark" unicode="&#x2120;" horiz-adv-x="1267" 
d="M287 788q-170 0 -283 91l88 143q96 -70 197 -70q47 0 47 29t-78 49q-113 35 -169 77t-56 130t65 148q66 61 196 61t232 -76l-84 -147q-84 57 -166 57q-45 0 -45 -29q0 -23 76 -47q119 -33 174 -77t55 -134q0 -89 -68 -147t-181 -58zM584 799v635h200l117 -209l115 209
h203v-635h-197v307l-121 -207h-2l-123 207v-307h-192z" />
    <glyph glyph-name="trademark" unicode="&#x2122;" horiz-adv-x="1265" 
d="M172 799v458h-158v177h512v-177h-157v-458h-197zM582 799v635h198l117 -209l117 209h200v-635h-194v307l-121 -207h-4l-121 207v-307h-192z" />
    <glyph glyph-name="minus" unicode="&#x2212;" horiz-adv-x="1175" 
d="M1098 535h-1020v372h1020v-372z" />
    <glyph glyph-name="Q.alt" horiz-adv-x="1441" 
d="M487 700q0 -158 64 -248q63 -90 171 -90t169 88t61 248v33q0 160 -62 249t-170 89t-170 -89t-63 -247v-33zM41 698v35q0 322 191 527q190 204 488 204t489 -202t192 -525v-37q0 -295 -170 -493l301 -352v-5h-541l-121 140q-78 -16 -153 -17q-295 0 -486 203
q-190 203 -190 522z" />
    <glyph glyph-name="a.alt" horiz-adv-x="1224" 
d="M600 334q66 0 106 57t39 154v28q0 96 -39 154q-40 57 -106 57t-106 -57t-39 -154v-28q-1 -95 39 -153t106 -58zM444 -27q-178 -1 -294 147t-115 415v40q0 270 116 420q117 150 291 150t295 -154v127h430v-1118h-430v133q-63 -78 -128 -119t-165 -41z" />
    <glyph glyph-name="aacute.alt" horiz-adv-x="1224" 
d="M600 334q66 0 106 57t39 154v28q0 96 -39 154q-40 57 -106 57t-106 -57t-39 -154v-28q-1 -95 39 -153t106 -58zM444 -27q-178 -1 -294 147t-115 415v40q0 270 116 420q117 150 291 150t295 -154v127h430v-1118h-430v133q-63 -78 -128 -119t-165 -41zM479 1196l178 352
l408 -102l-309 -250h-277z" />
    <glyph glyph-name="abreve.alt" horiz-adv-x="1224" 
d="M635 1192q-160 0 -259 83t-114 236h225q33 -102 148 -102t147 102h226q-14 -155 -114 -237t-259 -82zM600 334q66 0 106 57t39 154v28q0 96 -39 154q-40 57 -106 57t-106 -57t-39 -154v-28q-1 -95 39 -153t106 -58zM444 -27q-178 -1 -294 147t-115 415v40q0 270 116 420
q117 150 291 150t295 -154v127h430v-1118h-430v133q-63 -78 -128 -119t-165 -41z" />
    <glyph glyph-name="acircumflex.alt" horiz-adv-x="1224" 
d="M600 334q66 0 106 57t39 154v28q0 96 -39 154q-40 57 -106 57t-106 -57t-39 -154v-28q-1 -95 39 -153t106 -58zM444 -27q-178 -1 -294 147t-115 415v40q0 270 116 420q117 150 291 150t295 -154v127h430v-1118h-430v133q-63 -78 -128 -119t-165 -41zM244 1196l237 315
h307l238 -315h-240l-153 104l-154 -104h-235z" />
    <glyph glyph-name="adieresis.alt" horiz-adv-x="1224" 
d="M600 334q66 0 106 57t39 154v28q0 96 -39 154q-40 57 -106 57t-106 -57t-39 -154v-28q-1 -95 39 -153t106 -58zM444 -27q-178 -1 -294 147t-115 415v40q0 270 116 420q117 150 291 150t295 -154v127h430v-1118h-430v133q-63 -78 -128 -119t-165 -41zM279 1196v291h323
v-291h-323zM668 1196v291h323v-291h-323z" />
    <glyph glyph-name="agrave.alt" horiz-adv-x="1224" 
d="M516 1196l-309 250l407 102l179 -352h-277zM600 334q66 0 106 57t39 154v28q0 96 -39 154q-40 57 -106 57t-106 -57t-39 -154v-28q-1 -95 39 -153t106 -58zM444 -27q-178 -1 -294 147t-115 415v40q0 270 116 420q117 150 291 150t295 -154v127h430v-1118h-430v133
q-63 -78 -128 -119t-165 -41z" />
    <glyph glyph-name="amacron.alt" horiz-adv-x="1224" 
d="M276 1212v238h717v-238h-717zM600 334q66 0 106 57t39 154v28q0 96 -39 154q-40 57 -106 57t-106 -57t-39 -154v-28q-1 -95 39 -153t106 -58zM444 -27q-178 -1 -294 147t-115 415v40q0 270 116 420q117 150 291 150t295 -154v127h430v-1118h-430v133q-63 -78 -128 -119
t-165 -41z" />
    <glyph glyph-name="aogonek.alt" horiz-adv-x="1224" 
d="M600 334q66 0 106 57t39 154v28q0 96 -39 154q-40 57 -106 57t-106 -57t-39 -154v-28q-1 -95 39 -153t106 -58zM721 -162q0 80 88 162h-72v133q-63 -78 -128 -119t-165 -41q-178 -1 -294 147t-115 415v40q0 270 116 420q117 150 291 150t295 -154v127h430v-1118h-86
q-33 -41 -33 -72t30 -43t106 -14v-190q-251 -30 -378 34q-85 43 -85 123z" />
    <glyph glyph-name="aring.alt" horiz-adv-x="1224" 
d="M600 334q66 0 106 57t39 154v28q0 96 -39 154q-40 57 -106 57t-106 -57t-39 -154v-28q-1 -95 39 -153t106 -58zM444 -27q-178 -1 -294 147t-115 415v40q0 270 116 420q117 150 291 150t295 -154v127h430v-1118h-430v133q-63 -78 -128 -119t-165 -41zM635 1323q53 0 90 38
t37 95t-37 95t-90 38t-90 -38t-37 -95t37 -95t90 -38zM635 1200q-111 0 -188 75t-76 181q0 106 76 180q77 74 188 74t187 -74t77 -180q-1 -106 -77 -181t-187 -75z" />
    <glyph glyph-name="aring.alt2" horiz-adv-x="1105" 
d="M561 1137q53 0 90 38t37 95t-37 95t-90 38t-90 -38t-37 -95t37 -95t90 -38zM424 344q0 -48 26 -78t70 -30q45 0 77 40t32 111v74q-37 18 -90 18t-84 -35t-31 -88v-12zM358 -25q-156 -1 -246 89q-89 90 -89 251v15q0 170 100 260q101 90 257 90t247 -41v18q0 152 -181 152
q-129 0 -268 -61l-88 307q127 51 254 67q-47 68 -47 161t77 167q78 74 188 74t187 -74t77 -174t-60 -170q106 -33 174 -100q115 -115 115 -342v-664h-430v106q-111 -131 -267 -131z" />
    <glyph glyph-name="aringacute.alt" horiz-adv-x="1224" 
d="M600 334q66 0 106 57t39 154v28q0 96 -39 154q-40 57 -106 57t-106 -57t-39 -154v-28q-1 -95 39 -153t106 -58zM444 -27q-178 -1 -294 147t-115 415v40q0 270 116 420q117 150 291 150t295 -154v127h430v-1118h-430v133q-63 -78 -128 -119t-165 -41zM635 1323q53 0 90 38
t37 95t-37 95t-90 38t-90 -38t-37 -95t37 -95t90 -38zM635 1200q-111 0 -188 75t-76 181q0 106 76 180q77 74 188 74t187 -74t77 -180q-1 -106 -77 -181t-187 -75zM475 1767l195 308l399 -95l-313 -213h-281z" />
    <glyph glyph-name="aringacute.alt2" horiz-adv-x="1105" 
d="M561 1137q53 0 90 38t37 95t-37 95t-90 38t-90 -38t-37 -95t37 -95t90 -38zM424 344q0 -48 26 -78t70 -30q45 0 77 40t32 111v74q-37 18 -90 18t-84 -35t-31 -88v-12zM358 -25q-156 -1 -246 89q-89 90 -89 251v15q0 170 100 260q101 90 257 90t247 -41v18q0 152 -181 152
q-129 0 -268 -61l-88 307q127 51 254 67q-47 68 -47 161t77 167q78 74 188 74t187 -74t77 -174t-60 -170q106 -33 174 -100q115 -115 115 -342v-664h-430v106q-111 -131 -267 -131zM401 1581l193 305l399 -92l-311 -213h-281z" />
    <glyph glyph-name="atilde.alt" horiz-adv-x="1224" 
d="M815 1194q-57 0 -165 37t-140 37q-31 0 -48 -18t-32 -64l-188 43q20 157 74 229t147 72q57 0 165 -37t140 -37q31 0 47 18t33 64l188 -41q-20 -159 -74 -231t-147 -72zM600 334q66 0 106 57t39 154v28q0 96 -39 154q-40 57 -106 57t-106 -57t-39 -154v-28q-1 -95 39 -153
t106 -58zM444 -27q-178 -1 -294 147t-115 415v40q0 270 116 420q117 150 291 150t295 -154v127h430v-1118h-430v133q-63 -78 -128 -119t-165 -41z" />
    <glyph glyph-name="three.alt" horiz-adv-x="1116" 
d="M551 -29q-332 0 -559 203l219 303q152 -131 301 -131q70 0 112 32t42 77v4q0 102 -189 102h-125v326h115q182 0 182 102v4q0 43 -38 70t-101 27q-125 0 -264 -121l-205 288q213 205 528 205q227 0 367 -105t139 -270v-8q0 -117 -62 -203t-165 -135q250 -86 250 -333v-9
q0 -188 -148 -308t-399 -120z" />
    <glyph glyph-name="registered.alt" horiz-adv-x="1486" 
d="M680 750h78q92 0 92 88v4q0 88 -92 88h-78v-180zM432 328v813h330q176 0 266 -86q72 -72 72 -195v-8q0 -160 -137 -236l159 -288h-276l-127 237h-39v-237h-248zM741 49q252 -1 416 187t164 469v26q0 281 -163 467t-415 186q-251 0 -415 -187t-164 -468v-27
q0 -281 162 -467t415 -186zM741 -31q-283 0 -471 210t-188 523v27q0 313 189 524t472 211t472 -210t190 -523v-26q-1 -313 -191 -525t-473 -211z" />
    <glyph glyph-name="NUL" horiz-adv-x="0" 
 />
    <glyph glyph-name="hfjslug" horiz-adv-x="1421" 
d="M872 580q-33 0 -32 34q0 12 9 24t23 11q14 0 24 -11t9 -24q0 -34 -33 -34zM997 612h-22v35h22q20 0 21 -16q-1 -19 -21 -19zM659 823q-33 0 -33 45t33 78l41 -80q-16 -43 -41 -43zM645 1056q0 30 29 29q27 -1 27 -35t-31 -69q-25 45 -25 75zM494 662l28 -97h17l22 70h2
l23 -70h16l29 97h-17l-20 -72h-2l-23 72h-14l-23 -72h-2l-20 72h-16zM270 662v-95h17v66l51 -66h14v95h-16v-66l-51 66h-15zM395 662v-95h70v15h-53v26h47v15h-47v24h53v15h-70zM750 567h16v35l37 60h-19l-26 -46l-27 46h-18l37 -60v-35zM872 565q20 1 34 15q33 33 1 68
q-15 16 -35 16t-34 -16t-14 -34q0 -20 14 -34t34 -15zM1034 631q0 31 -35 31h-41v-95h17v31h24l21 -31h18l-24 35q20 8 20 29zM1071 662v-95h16v25l17 16l31 -41h20l-41 54l37 41h-21l-40 -50h-3v50h-16zM729 1047q0 63 -55 63q-25 0 -41 -18q-35 -39 12 -125
q-47 -37 -47 -83q0 -91 59 -89q39 0 60 49h2l24 -49l25 12l-35 65q13 29 27 80l-27 6q-8 -37 -16 -61h-2l-33 64q47 43 47 86zM985 799q63 0 64 73v281h-33v-281q0 -45 -33 -45q-16 0 -41 11v-31q20 -8 43 -8zM377 1153v-352h31v162h96v-162h31v352h-31v-162h-96v162h-31z
M819 1153v-352h31v160h78v28h-78v135h88v29h-119zM1319 -410h-426l-16 29h-334l-17 -29h-424v621q29 0 48 19q18 19 18 46q0 26 -20 46t-46 20v1135h205l62 161h684l59 -161h207v-1887z" />
    <glyph glyph-name="i.dot" horiz-adv-x="555" 
d="M63 0v1118h429v-1118h-429zM57 1192v293h443v-293h-443z" />
    <glyph glyph-name="caron.alt" 
d="M672 1581v-6l-125 -399h-168l20 405h273z" />
    <glyph glyph-name="acute.cap" 
d="M246 1503l172 303l434 -92l-297 -211h-309z" />
    <glyph glyph-name="hungarumlaut.cap" 
d="M481 1503l74 139l-182 -139h-271l158 303l338 -80l43 80l387 -90l-274 -213h-273z" />
    <glyph glyph-name="grave.cap" 
d="M784 1503h-309l-297 211l434 92z" />
    <glyph glyph-name="circumflex.cap" 
d="M121 1503l213 277h356l213 -277h-258l-135 92l-135 -92h-254z" />
    <glyph glyph-name="caron.cap" 
d="M903 1780l-213 -277h-356l-213 277h256l137 -90l135 90h254z" />
    <glyph glyph-name="breve.cap" 
d="M513 1499q-327 0 -370 281h234q33 -74 134 -74t136 74h232q-39 -281 -366 -281z" />
    <glyph glyph-name="tilde.cap" 
d="M696 1499q-57 0 -178 38q-120 38 -148 38q-28 -1 -45 -19t-32 -65l-191 43q41 301 226 301q66 0 176 -37t144 -37q34 1 51 19t32 65l191 -43q-42 -303 -226 -303z" />
    <glyph glyph-name="macron.cap" 
d="M133 1518v245h758v-245h-758z" />
    <glyph glyph-name="dieresis.cap" 
d="M139 1503v283h336v-283h-336zM549 1503v283h336v-283h-336z" />
    <glyph glyph-name="dotaccent.cap" 
d="M336 1503v283h352v-283h-352z" />
    <glyph glyph-name="ring.cap" 
d="M512 1634q63 0 104 38t41 95t-41 97t-104 39q-63 0 -104 -39q-41 -38 -41 -96t41 -96t104 -38zM512 1507q-125 0 -207 75q-82 74 -82 186t82 186t207 74t207 -74t82 -186t-82 -186t-207 -75z" />
    </font>
</defs>
</svg>
