<?xml version="1.0" standalone="no"?>
<!DOCTYPE svg PUBLIC "-//W3C//DTD SVG 1.1//EN" "http://www.w3.org/Graphics/SVG/1.1/DTD/svg11.dtd" >
<svg xmlns="http://www.w3.org/2000/svg">
<metadata>
Created by FontPrep 20130207 at Tue Dec  3 03:35:44 2013
 By Bryan Willis
Copyright (C) 2005, 2008 Hoefler &#38; Frere-Jones. http://www.typography.com
</metadata>
<defs>
<font id="66c39c752d2a69dcfd7d6311d76a4c63" horiz-adv-x='1024' >
  <font-face 
    font-family="GothamNarrow-XLightItalic"
    font-weight="275"
    font-style="italic"
    font-stretch="condensed"
    units-per-em="2048"
    panose-1="0 0 0 0 0 0 0 0 0 0"
    ascent="1638"
    descent="-410"
    x-height="1047"
    cap-height="1434"
    bbox="-231 -410 2087 1956"
    underline-thickness="102"
    underline-position="-102"
    slope="-12"
    unicode-range="U+0020-FB04"
  />
<missing-glyph 
d="M924 -156v1540l-353 -770zM514 737l367 799h-734zM147 -307h734l-367 799zM104 -156l353 770l-353 770v-1540zM2 -410v2048h1024v-2048h-1024z" />
    <glyph glyph-name="f_f" unicode="ff" horiz-adv-x="1204" 
d="M1260 1419q-166 0 -218 -217l-38 -155h309l-17 -60h-307l-241 -987h-64l240 987h-140l15 60h139l39 151q71 281 271 281q100 0 169 -35l-16 -60q-66 35 -141 35zM659 1419q-166 0 -217 -217l-39 -155h310l-17 -60h-307l-242 -987h-63l240 987h-140l15 60h139l39 151
q71 281 271 281q100 0 169 -35l-16 -60q-66 35 -142 35z" />
    <glyph glyph-name="fi" unicode="fi" horiz-adv-x="1019" 
d="M961 1317l30 127h82l-33 -127h-79zM647 0l256 1047h64l-256 -1047h-64zM659 1419q-166 0 -217 -217l-39 -155h310l-17 -60h-307l-242 -987h-63l240 987h-140l15 60h139l39 151q71 281 271 281q100 0 169 -35l-16 -60q-66 35 -142 35z" />
    <glyph glyph-name="fl" unicode="fl" horiz-adv-x="1019" 
d="M647 0l363 1479h63l-362 -1479h-64zM659 1419q-166 0 -217 -217l-39 -155h310l-17 -60h-307l-242 -987h-63l240 987h-140l15 60h139l39 151q71 281 271 281q100 0 169 -35l-16 -60q-66 35 -142 35z" />
    <glyph glyph-name="f_f_i" unicode="ffi" horiz-adv-x="1619" 
d="M1565 1317l30 127h82l-32 -127h-80zM1251 0l256 1047h64l-256 -1047h-64zM1260 1419q-166 0 -218 -217l-38 -155h309l-17 -60h-307l-241 -987h-64l240 987h-140l15 60h139l39 151q71 281 271 281q100 0 169 -35l-16 -60q-66 35 -141 35zM659 1419q-166 0 -217 -217
l-39 -155h310l-17 -60h-307l-242 -987h-63l240 987h-140l15 60h139l39 151q71 281 271 281q100 0 169 -35l-16 -60q-66 35 -142 35z" />
    <glyph glyph-name="f_f_l" unicode="ffl" horiz-adv-x="1619" 
d="M1251 0l363 1479h63l-362 -1479h-64zM1260 1419q-166 0 -218 -217l-38 -155h309l-17 -60h-307l-241 -987h-64l240 987h-140l15 60h139l39 151q71 281 271 281q100 0 169 -35l-16 -60q-66 35 -141 35zM659 1419q-166 0 -217 -217l-39 -155h310l-17 -60h-307l-242 -987h-63
l240 987h-140l15 60h139l39 151q71 281 271 281q100 0 169 -35l-16 -60q-66 35 -142 35z" />
    <glyph glyph-name=".notdef" 
d="M924 -156v1540l-353 -770zM514 737l367 799h-734zM147 -307h734l-367 799zM104 -156l353 770l-353 770v-1540zM2 -410v2048h1024v-2048h-1024z" />
    <glyph glyph-name=".null" horiz-adv-x="0" 
 />
    <glyph glyph-name="nonmarkingreturn" horiz-adv-x="681" 
 />
    <glyph glyph-name="space" unicode=" " horiz-adv-x="477" 
 />
    <glyph glyph-name="exclam" unicode="!" horiz-adv-x="409" 
d="M31 0l32 133h93l-31 -133h-94zM152 375l196 882l43 177h74l-279 -1059h-34z" />
    <glyph glyph-name="quotedbl" unicode="&#x22;" horiz-adv-x="630" 
d="M467 922l168 512h80l-2 -11l-209 -501h-37zM436 1434v-11l-211 -501h-35l168 512h78z" />
    <glyph glyph-name="numbersign" unicode="#" horiz-adv-x="1181" 
d="M365 459h393l157 522h-395zM164 0l121 399h-209l12 60h215l158 522h-228l15 61h231l117 392h61l-118 -392h393l119 392h59l-117 -392h207l-12 -61h-213l-158 -522h227l-14 -60h-231l-121 -399h-60l121 399h-395l-119 -399h-61z" />
    <glyph glyph-name="dollar" unicode="$" horiz-adv-x="1087" 
d="M672 1378q-162 0 -258 -90t-95 -200q-1 -110 61 -175q62 -66 198 -133l143 596q-16 2 -49 2zM866 385q0 96 -59 167t-197 138l-155 -635h45q174 -1 270 99t96 231zM250 1073q0 147 117 255t309 108q39 0 59 -2l33 125h59l-34 -136q174 -33 305 -168l-45 -45
q-123 127 -277 158l-149 -612q161 -84 235 -167t74 -206q0 -155 -119 -271t-325 -116l-52 2l-49 -199h-59l51 205q-231 41 -373 219l49 43q131 -170 342 -203l158 654q-157 78 -233 160t-76 196z" />
    <glyph glyph-name="percent" unicode="%" horiz-adv-x="1472" 
d="M854 268q0 -100 49 -162t136 -63q87 0 155 72q53 53 86 137t33 179t-48 157q-47 62 -133 61q-86 0 -159 -69q-119 -123 -119 -312zM1036 -14q-112 0 -179 78t-67 188q0 112 38 206q36 94 98 156q98 94 208 94t176 -78t66 -190t-37 -206t-98 -156q-93 -92 -205 -92z
M436 784q86 0 156 70q119 123 119 311q0 101 -48 163q-47 62 -135 62t-155 -71q-55 -53 -88 -137t-33 -179t49 -157t135 -62zM434 725q-114 0 -180 79q-66 78 -66 190t38 206t100 156q92 92 205 92t179 -78t66 -190t-37 -205q-37 -94 -98 -156q-94 -94 -207 -94zM117 0
l1259 1434h74l-1260 -1434h-73z" />
    <glyph glyph-name="ampersand" unicode="&#x26;" horiz-adv-x="1216" 
d="M483 1115q0 -122 90 -284q389 133 390 357q1 90 -59 149t-166 59t-180 -79q-74 -80 -75 -202zM414 43q219 0 424 225l-293 496q-422 -143 -422 -434q0 -131 82 -209t209 -78zM416 1128q0 136 95 232t229 96t212 -76t78 -200q0 -245 -426 -398l275 -465q100 132 211 353
l55 -27q-119 -227 -234 -375l156 -256l-51 -32l-148 239q-221 -238 -458 -237q-154 0 -254 93t-101 247q0 334 461 493q-100 178 -100 313z" />
    <glyph glyph-name="quotesingle" unicode="'" horiz-adv-x="346" 
d="M436 1434v-11l-211 -501h-35l168 512h78z" />
    <glyph glyph-name="parenleft" unicode="(" horiz-adv-x="716" 
d="M150 424q0 453 323 780q168 164 401 260l23 -51q-437 -180 -601 -586q-79 -195 -79 -403q0 -379 283 -653l-37 -39q-313 287 -313 692z" />
    <glyph glyph-name="parenright" unicode=")" horiz-adv-x="716" 
d="M598 766q0 -453 -324 -780q-168 -164 -401 -260l-23 51q436 180 602 585q79 195 78 404q0 379 -282 653l37 39q313 -287 313 -692z" />
    <glyph glyph-name="asterisk" unicode="*" horiz-adv-x="780" 
d="M494 850l-58 14l78 256l-240 -86l-18 58l252 57l-197 172l43 43l174 -190l50 262l57 -15l-78 -254l242 86l18 -57l-252 -59l195 -170l-45 -45l-170 190z" />
    <glyph glyph-name="plus" unicode="+" horiz-adv-x="1071" 
d="M444 293l101 397h-385l12 62h387l98 397h66l-102 -397h387l-15 -62h-387l-98 -397h-64z" />
    <glyph glyph-name="comma" unicode="," horiz-adv-x="344" 
d="M-61 -176l-13 37q92 31 113 139h-43l35 133h92l-29 -123q-20 -86 -54 -126t-101 -60z" />
    <glyph glyph-name="hyphen" unicode="-" horiz-adv-x="722" 
d="M135 575l19 66h471l-17 -66h-473z" />
    <glyph glyph-name="period" unicode="." horiz-adv-x="344" 
d="M-2 0l33 133h94l-33 -133h-94z" />
    <glyph glyph-name="slash" unicode="/" horiz-adv-x="858" 
d="M-195 -242l1252 1856h69l-1253 -1856h-68z" />
    <glyph glyph-name="zero" unicode="0" horiz-adv-x="1232" 
d="M541 39q162 0 291 131t204 357q76 225 76 431t-83 322t-244 115q-161 0 -291 -135q-127 -126 -204 -354t-77 -432t83 -320t245 -115zM786 1456q192 0 294 -132t102 -355t-79 -460t-227 -385t-338 -147t-292 133t-102 354t79 460q80 238 217 374q154 158 346 158z" />
    <glyph glyph-name="one" unicode="1" horiz-adv-x="575" 
d="M166 0l334 1360l-258 -103v68l288 117h56l-353 -1442h-67z" />
    <glyph glyph-name="two" unicode="2" horiz-adv-x="1003" 
d="M934 1139q0 107 -79 179t-214 71q-188 0 -350 -183l-47 43q176 203 401 203q164 0 261 -90q98 -90 98 -217t-64 -229t-209 -240l-657 -613h737l-16 -63h-838l10 47l719 672q137 131 193 222q55 91 55 198z" />
    <glyph glyph-name="three" unicode="3" horiz-adv-x="1003" 
d="M389 -20q-276 0 -409 219l53 37q121 -193 360 -193q180 0 298 111q118 110 118 268t-112 230t-277 75h-27l-8 39l592 604h-678l16 64h770l-12 -50l-592 -606q185 -16 291 -106t107 -242q0 -184 -127 -307q-140 -143 -363 -143z" />
    <glyph glyph-name="four" unicode="4" horiz-adv-x="1099" 
d="M125 416h623l221 911zM647 0l88 356h-694l-4 50l964 1038h62l-250 -1028h197l-15 -60h-196l-88 -356h-64z" />
    <glyph glyph-name="five" unicode="5" horiz-adv-x="1030" 
d="M416 -20q-134 0 -238 58t-166 150l54 39q125 -188 354 -188q186 0 307 132t121 298t-89 245t-229 79t-282 -70l-39 31l203 680h647l-17 -64h-587l-170 -569q125 53 243 53q176 0 284 -96t106 -275q0 -215 -144 -359t-358 -144z" />
    <glyph glyph-name="six" unicode="6" horiz-adv-x="1105" 
d="M544 39q148 0 261 111q65 66 101 162t36 194q0 141 -85 228t-247 87t-281 -122q-120 -122 -120 -298t94 -274q93 -88 241 -88zM540 -23q-180 0 -284 109q-119 119 -119 344t83 473q82 249 234 401t351 152t340 -156l-47 -47q-123 139 -294 139t-312 -139
q-207 -207 -271 -620q59 111 165 181t241 69q176 1 279 -105t104 -268q0 -240 -156 -399q-134 -134 -314 -134z" />
    <glyph glyph-name="seven" unicode="7" horiz-adv-x="962" 
d="M100 0l875 1370h-715l16 64h791l-10 -52l-883 -1382h-74z" />
    <glyph glyph-name="eight" unicode="8" horiz-adv-x="1095" 
d="M656 764q150 0 256 103q108 103 108 237t-90 211q-90 78 -241 78q-151 1 -252 -101t-101 -231t85 -213t235 -84zM135 351q-1 -142 101 -225t277 -83t287 103q112 102 112 244t-101 232q-100 90 -270 91q-170 0 -288 -110t-118 -252zM979 395q0 -173 -133 -293t-336 -120
t-322 99q-120 99 -120 256t110 273t289 146q-92 40 -145 118t-54 181q0 161 123 279t300 118t286 -92t109 -240t-97 -257q-96 -108 -250 -136q106 -43 173 -131t67 -201z" />
    <glyph glyph-name="nine" unicode="9" horiz-adv-x="1103" 
d="M256 920q0 -146 84 -234t244 -88q161 0 283 125t122 305t-94 279q-93 88 -241 88t-259 -111q-139 -143 -139 -364zM1061 1003q0 -225 -82 -473q-83 -248 -235 -400t-356 -153q-204 0 -347 170l47 46q131 -152 304 -152t313 139q211 207 270 611q-57 -111 -163 -183
t-245 -71q-176 0 -278 106t-103 275q0 112 41 220t117 183q134 135 314 135t284 -108q119 -119 119 -345z" />
    <glyph glyph-name="colon" unicode=":" horiz-adv-x="358" 
d="M225 903l33 131h94l-33 -131h-94zM6 0l31 133h94l-31 -133h-94z" />
    <glyph glyph-name="semicolon" unicode=";" horiz-adv-x="356" 
d="M223 903l33 131h92l-31 -131h-94zM61 -45q-13 -55 -39 -79t-79 -42q10 6 13 35q3 28 5 35q61 23 70 96l-19 33l47 100l62 -31q-40 -143 -60 -147zM-57 -166q0 -2 -2 -2z" />
    <glyph glyph-name="less" unicode="&#x3c;" horiz-adv-x="1075" 
d="M854 268l-700 430l12 45l911 431l-16 -76l-819 -383l626 -381z" />
    <glyph glyph-name="equal" unicode="=" horiz-adv-x="1071" 
d="M240 895l16 63h774l-16 -63h-774zM137 483l15 64h774l-15 -64h-774z" />
    <glyph glyph-name="greater" unicode="&#x3e;" horiz-adv-x="1075" 
d="M90 268l19 76l817 383l-627 381l16 66l701 -431l-12 -45z" />
    <glyph glyph-name="question" unicode="?" horiz-adv-x="913" 
d="M221 0l33 133h94l-33 -133h-94zM883 1114q0 125 -84 199t-217 73q-180 0 -344 -147l-39 49q180 162 387 162q166 0 265 -94t99 -240q0 -180 -135 -294t-350 -154l-88 -293h-39l65 336l9 10q211 29 341 130t130 263z" />
    <glyph glyph-name="at" unicode="@" horiz-adv-x="1757" 
d="M780 215q150 0 271 158t120 321q0 115 -58 187t-169 71q-147 0 -260 -158t-113 -337q1 -113 55 -177t154 -65zM819 -311q-322 1 -512 193t-190 519q0 209 73 404q149 392 489 565q169 86 351 86q303 0 479 -189q177 -189 177 -465t-122 -460q-122 -186 -268 -186
q-104 0 -149 66t-37 163q-57 -100 -146 -166q-89 -65 -203 -65t-187 82t-72 217q0 207 133 384t309 177q118 0 184 -69t80 -173l60 207l61 -16l-139 -463q-25 -92 -25 -146q0 -147 138 -147q121 0 227 172t106 425t-162 429q-163 176 -446 176q-229 0 -429 -141
q-199 -140 -315 -372t-116 -493q0 -303 177 -485t474 -182q217 0 410 104l22 -43q-207 -108 -432 -108z" />
    <glyph glyph-name="A" unicode="A" horiz-adv-x="1327" 
d="M326 479h678l-123 875zM-53 0l917 1444h66l209 -1444h-68l-57 418h-727l-264 -418h-76z" />
    <glyph glyph-name="B" unicode="B" horiz-adv-x="1249" 
d="M662 756q223 0 352 96t129 256q0 125 -92 195t-254 69h-338l-150 -616h353zM541 61q237 -1 365 99t128 264q0 125 -101 197t-271 71h-367l-156 -631h402zM803 1434q186 0 297 -87q110 -87 110 -243t-112 -256t-269 -125q129 -31 201 -107t72 -192q0 -192 -152 -308
t-413 -116h-480l351 1434h395z" />
    <glyph glyph-name="C" unicode="C" horiz-adv-x="1232" 
d="M639 -23q-207 1 -343 147t-136 396q0 201 73 400q74 199 209 333q203 203 455 203q279 0 412 -239l-58 -35q-123 213 -353 213t-404 -178q-123 -125 -195 -313t-72 -397q0 -208 117 -338q116 -130 310 -130t378 170l43 -47q-196 -185 -436 -185z" />
    <glyph glyph-name="D" unicode="D" horiz-adv-x="1329" 
d="M651 1372h-192l-320 -1311h279q338 0 553 215q109 106 166 268t57 320q0 236 -127 363q-141 145 -416 145zM649 1434q303 0 469 -162q145 -145 146 -406q0 -172 -62 -344t-182 -289q-233 -233 -610 -233h-353l351 1434h241z" />
    <glyph glyph-name="E" unicode="E" horiz-adv-x="1128" 
d="M57 0l351 1434h835l-14 -62h-768l-152 -618h695l-15 -64h-694l-156 -629h779l-17 -61h-844z" />
    <glyph glyph-name="F" unicode="F" horiz-adv-x="1091" 
d="M57 0l351 1434h825l-16 -62h-758l-154 -637h684l-14 -61h-684l-166 -674h-68z" />
    <glyph glyph-name="G" unicode="G" horiz-adv-x="1343" 
d="M670 -23q-221 0 -364 156q-142 156 -142 414q0 193 73 379t201 315q212 215 484 215t428 -205l-54 -39q-136 182 -374 182t-435 -192q-119 -119 -187 -296t-69 -357q0 -231 124 -371q125 -140 321 -139q196 0 348 98l133 525h-409l16 65h475l-160 -629
q-188 -121 -409 -121z" />
    <glyph glyph-name="H" unicode="H" horiz-adv-x="1325" 
d="M57 0l351 1434h67l-166 -680h819l166 680h70l-350 -1434h-70l168 690h-819l-168 -690h-68z" />
    <glyph glyph-name="I" unicode="I" horiz-adv-x="462" 
d="M72 0l350 1434h67l-350 -1434h-67z" />
    <glyph glyph-name="J" unicode="J" horiz-adv-x="894" 
d="M310 -18q-136 0 -219 66t-118 179l60 23q74 -207 264 -207q119 0 202 81t130 269l252 1041h67l-256 -1053q-49 -201 -148 -300q-98 -99 -234 -99z" />
    <glyph glyph-name="K" unicode="K" horiz-adv-x="1220" 
d="M57 0l351 1434h67l-229 -926l1009 926h93l-686 -625l362 -809h-74l-342 762l-385 -350l-98 -412h-68z" />
    <glyph glyph-name="L" unicode="L" horiz-adv-x="1009" 
d="M57 0l351 1434h67l-336 -1373h709l-14 -61h-777z" />
    <glyph glyph-name="M" unicode="M" horiz-adv-x="1513" 
d="M57 0l351 1434h61l293 -869l717 869h73l-350 -1434h-65l317 1307l-715 -867h-6l-291 867l-319 -1307h-66z" />
    <glyph glyph-name="N" unicode="N" horiz-adv-x="1368" 
d="M57 0l351 1434h63l549 -1313l323 1313h64l-350 -1434h-56l-555 1327l-323 -1327h-66z" />
    <glyph glyph-name="O" unicode="O" horiz-adv-x="1439" 
d="M231 524q0 -206 118 -346t323 -139q205 0 375 170q121 121 190 309q70 188 70 392t-120 344t-323 140t-375 -171q-119 -119 -189 -307q-70 -186 -69 -392zM866 1456q234 0 371 -157t137 -410q0 -195 -75 -393t-203 -328q-196 -190 -428 -190t-368 156q-136 157 -136 409
q0 197 74 395t202 326q192 192 426 192z" />
    <glyph glyph-name="P" unicode="P" horiz-adv-x="1163" 
d="M739 1372h-280l-185 -762h291q297 0 447 150q119 119 118 301q1 135 -79 213q-96 98 -312 98zM743 1434q244 0 361 -117q94 -94 94 -256q0 -205 -135 -340q-172 -172 -502 -172h-301l-135 -549h-68l351 1434h335z" />
    <glyph glyph-name="Q" unicode="Q" horiz-adv-x="1443" 
d="M231 545q0 -227 118 -367q117 -140 307 -139q190 0 343 127l-211 258l52 41l207 -256q119 121 189 310q71 189 71 370q0 225 -120 365t-323 140t-375 -171q-119 -119 -189 -307t-69 -371zM866 1456q234 0 371 -157t137 -410q0 -195 -80 -403t-209 -326l127 -152l-47 -41
l-125 152q-170 -141 -387 -141t-353 156q-136 157 -136 409q0 197 74 395t202 326q192 192 426 192z" />
    <glyph glyph-name="R" unicode="R" horiz-adv-x="1251" 
d="M627 666q297 0 434 137q106 106 106 272q0 125 -71 197q-100 100 -310 100h-325l-172 -706h338zM606 606h-334l-147 -606h-68l351 1434h387q238 0 348 -115q92 -92 92 -240q0 -188 -123 -312t-369 -155l275 -612h-76l-268 608q-23 -2 -68 -2z" />
    <glyph glyph-name="S" unicode="S" horiz-adv-x="1101" 
d="M508 -18q-299 0 -483 254l53 40q172 -233 436 -233q160 0 262 94t102 212t-67 191q-69 73 -225 169t-232 178q-76 81 -76 211t103 229q121 125 321 125q250 0 422 -203l-51 -45q-158 186 -375 187q-156 -1 -254 -91t-98 -198t68 -178t224 -166t234 -182q76 -86 76 -222
t-110 -248q-129 -124 -330 -124z" />
    <glyph glyph-name="T" unicode="T" horiz-adv-x="1019" 
d="M342 0l334 1372h-424l16 62h918l-17 -62h-424l-335 -1372h-68z" />
    <glyph glyph-name="U" unicode="U" horiz-adv-x="1318" 
d="M598 -20q-207 0 -324 103t-116 292q0 96 30 225l201 834h68l-207 -852q-27 -109 -27 -201q-1 -162 99 -251t278 -89t305 128t187 370l215 895h67l-219 -910q-66 -260 -199 -395q-151 -149 -358 -149z" />
    <glyph glyph-name="V" unicode="V" horiz-adv-x="1251" 
d="M459 -10l-174 1444h67l158 -1346l815 1346h76l-883 -1444h-59z" />
    <glyph glyph-name="W" unicode="W" horiz-adv-x="1873" 
d="M371 -10l-76 1444h67l64 -1330l696 1334h56l59 -1334l702 1330h74l-772 -1444h-57l-62 1317l-694 -1317h-57z" />
    <glyph glyph-name="X" unicode="X" horiz-adv-x="1179" 
d="M-47 0l647 739l-305 695h72l280 -650l572 650h81l-622 -707l317 -727h-71l-295 682l-596 -682h-80z" />
    <glyph glyph-name="Y" unicode="Y" horiz-adv-x="1155" 
d="M408 0l147 602l-301 832h70l278 -772l655 772h86l-722 -844l-144 -590h-69z" />
    <glyph glyph-name="Z" unicode="Z" horiz-adv-x="1140" 
d="M-27 0l11 41l1155 1331h-807l16 62h899l-8 -43l-1159 -1330h838l-15 -61h-930z" />
    <glyph glyph-name="bracketleft" unicode="[" horiz-adv-x="745" 
d="M18 -266l414 1700h457l-15 -52h-391l-389 -1597h391l-12 -51h-455z" />
    <glyph glyph-name="backslash" unicode="\" horiz-adv-x="839" 
d="M629 -242l-342 1856h57l344 -1856h-59z" />
    <glyph glyph-name="bracketright" unicode="]" horiz-adv-x="745" 
d="M750 1434l-414 -1700h-457l15 51h391l389 1597h-391l12 52h455z" />
    <glyph glyph-name="asciicircum" unicode="^" horiz-adv-x="899" 
d="M283 1036l360 391h49l168 -391h-55l-148 324l-311 -324h-63z" />
    <glyph glyph-name="underscore" unicode="_" horiz-adv-x="1089" 
d="M-209 -313l14 57h1096l-14 -57h-1096z" />
    <glyph glyph-name="grave" unicode="`" 
d="M754 1204l-154 211l76 37l119 -248h-41z" />
    <glyph glyph-name="a" unicode="a" horiz-adv-x="1003" 
d="M340 37q150 0 266 104t154 258l31 123q-164 60 -335 60t-261 -90q-91 -90 -91 -212t67 -182t169 -61zM328 -20q-121 0 -206 74t-85 222q1 148 109 256t298 107q190 0 359 -61l12 51q18 88 19 137q0 111 -76 172t-205 61t-260 -51l-17 60q137 53 286 53t242 -76t93 -213
q0 -66 -23 -151l-149 -621h-63l49 201q-143 -221 -383 -221z" />
    <glyph glyph-name="b" unicode="b" horiz-adv-x="1138" 
d="M530 39q146 0 263 117q86 88 137 224t51 282t-80 246q-79 100 -223 100t-275 -131q-88 -87 -141 -217t-53 -272t87 -245q88 -104 234 -104zM538 -20q-162 0 -252 93t-114 220l-72 -293h-63l362 1479h64l-164 -666q61 100 167 177t248 77t238 -114t96 -281t-54 -313
q-56 -146 -154 -244q-140 -135 -302 -135z" />
    <glyph glyph-name="c" unicode="c" horiz-adv-x="946" 
d="M469 -20q-167 0 -277 112t-110 305q0 145 54 283t151 235q147 152 350 152t313 -188l-51 -37q-102 164 -270 164t-293 -129q-84 -84 -135 -214t-51 -281t91 -246t230 -95t270 115l39 -45q-145 -131 -311 -131z" />
    <glyph glyph-name="d" unicode="d" horiz-adv-x="1138" 
d="M158 384q0 -149 78 -247t224 -98q144 0 273 129q88 86 141 217q54 131 54 273t-87 245q-87 105 -233 105t-262 -117q-88 -86 -138 -222t-50 -285zM90 373q0 166 55 313t152 244q137 137 301 137t254 -94t111 -221l180 727h63l-360 -1479h-64l58 233q-62 -100 -168 -177
q-106 -76 -248 -76t-238 114t-96 279z" />
    <glyph glyph-name="e" unicode="e" 
d="M607 1008q-140 0 -265 -123t-172 -326h694q16 70 17 133q0 140 -67 228t-207 88zM152 397q0 -168 88 -262t244 -94t296 111l35 -50q-160 -122 -337 -122q-176 0 -284 110t-108 303q0 147 56 289t153 240q141 145 312 145t255 -104t84 -269q0 -100 -31 -194h-757
q-6 -53 -6 -103z" />
    <glyph glyph-name="f" unicode="f" horiz-adv-x="602" 
d="M659 1419q-166 0 -217 -217l-39 -155h310l-17 -60h-307l-242 -987h-63l240 987h-140l15 60h139l39 151q71 281 271 281q100 0 169 -35l-16 -60q-66 35 -142 35z" />
    <glyph glyph-name="g" unicode="g" horiz-adv-x="1134" 
d="M465 127q166 0 299 133q74 74 120 184t46 234q0 123 -86 226q-86 104 -235 104t-269 -121q-80 -80 -126 -198q-46 -117 -46 -249t85 -222t212 -91zM393 -309q-106 0 -216 39t-189 106l39 51q158 -135 354 -135t301 105q80 76 127 264l45 182q-166 -236 -399 -235
q-152 0 -253 105q-102 105 -102 255t52 280t139 218q145 141 325 141q148 0 236 -90t113 -211l69 281h64l-228 -934q-49 -203 -143 -295q-127 -127 -334 -127z" />
    <glyph glyph-name="h" unicode="h" horiz-adv-x="1075" 
d="M674 1067q135 0 214 -78t79 -215q0 -78 -27 -186l-141 -588h-64l142 590q25 92 25 192t-63 163t-189 63t-240 -108t-158 -279l-152 -621h-63l362 1479h64l-160 -648q139 236 371 236z" />
    <glyph glyph-name="i" unicode="i" horiz-adv-x="417" 
d="M362 1317l31 127h82l-33 -127h-80zM49 0l256 1047h64l-256 -1047h-64z" />
    <glyph glyph-name="j" unicode="j" horiz-adv-x="419" 
d="M362 1317l33 127h80l-31 -127h-82zM-137 -315q-51 0 -94 16l14 59q41 -16 80 -16q123 0 164 164l280 1139h64l-283 -1153q-49 -209 -225 -209z" />
    <glyph glyph-name="k" unicode="k" horiz-adv-x="954" 
d="M37 0l362 1479h64l-270 -1102l720 670h86l-493 -453l256 -594h-70l-235 547l-285 -258l-72 -289h-63z" />
    <glyph glyph-name="l" unicode="l" horiz-adv-x="417" 
d="M49 0l363 1479h63l-362 -1479h-64z" />
    <glyph glyph-name="m" unicode="m" horiz-adv-x="1671" 
d="M645 1067q117 0 189 -71t77 -191q63 117 161 189t220 73q121 0 197 -77t76 -210q0 -70 -31 -192l-141 -588h-64l144 590q25 113 25 204t-59 152q-58 62 -172 62t-223 -111t-149 -276l-147 -621h-66l143 590q27 111 27 203t-58 153q-58 62 -172 62t-223 -112t-149 -278
l-150 -618h-63l254 1047h63l-51 -216q139 236 342 236z" />
    <glyph glyph-name="n" unicode="n" horiz-adv-x="1077" 
d="M674 1067q135 0 214 -78t79 -215q0 -78 -27 -186l-141 -588h-64l142 590q25 92 25 192t-63 163t-189 63t-240 -108t-158 -279l-152 -621h-63l254 1047h63l-51 -216q139 236 371 236z" />
    <glyph glyph-name="o" unicode="o" horiz-adv-x="1097" 
d="M152 390q0 -148 88 -250t240 -101q152 0 280 127q84 86 134 214t50 276t-87 250t-241 102t-280 -129q-84 -84 -134 -212q-50 -129 -50 -277zM618 1067q181 0 287 -118q107 -119 107 -285q1 -334 -203 -537q-147 -147 -329 -147t-290 117q-106 118 -106 306q0 145 54 283
t151 234q148 147 329 147z" />
    <glyph glyph-name="p" unicode="p" horiz-adv-x="1140" 
d="M530 39q146 0 263 117q86 88 137 224t51 282t-80 246q-79 100 -223 100t-275 -131q-88 -87 -141 -217t-53 -272t87 -245q88 -104 234 -104zM538 -20q-162 0 -252 93t-114 220l-145 -600h-64l328 1354h63l-55 -234q61 100 167 177t248 77t238 -114t96 -281t-54 -313
q-56 -146 -154 -244q-140 -135 -302 -135z" />
    <glyph glyph-name="q" unicode="q" horiz-adv-x="1138" 
d="M158 384q0 -149 78 -247t224 -98q144 0 273 129q88 86 141 217q54 131 54 273t-87 245q-87 105 -233 105t-262 -117q-88 -86 -138 -222t-50 -285zM424 -20q-142 0 -238 114t-96 279q0 166 55 313t152 244q137 137 301 137t254 -94t111 -221l73 295h64l-330 -1354h-63
l133 540q-61 -101 -168 -177q-106 -76 -248 -76z" />
    <glyph glyph-name="r" unicode="r" horiz-adv-x="643" 
d="M709 995q-143 0 -285 -121t-186 -309l-138 -565h-63l254 1047h63l-63 -265q82 133 197 209q116 76 241 72l-16 -68h-4z" />
    <glyph glyph-name="s" unicode="s" horiz-adv-x="856" 
d="M692 252q0 -102 -93 -186q-93 -82 -215 -82q-236 0 -386 180l49 45q147 -166 324 -166q109 0 183 66q74 67 73 145q0 78 -48 131t-170 124t-178 133q-55 62 -55 164t89 180t231 77q186 0 323 -156l-49 -45q-129 141 -278 142q-111 0 -180 -60q-68 -60 -68 -137
q0 -76 48 -129t169 -122q121 -70 176 -136t55 -168z" />
    <glyph glyph-name="t" unicode="t" horiz-adv-x="665" 
d="M322 -14q-80 0 -135 44q-54 44 -54 128q0 39 17 104l174 725h-138l15 60h137l82 331h63l-80 -331h304l-15 -60h-305l-176 -731q-12 -49 -12 -90q0 -121 147 -121q57 0 125 29l-14 -66q-55 -22 -135 -22z" />
    <glyph glyph-name="u" unicode="u" horiz-adv-x="1075" 
d="M401 -20q-135 0 -214 76t-78 216q0 66 28 187l142 588h63l-143 -590q-25 -104 -25 -200t62 -158t189 -62q126 -1 242 107t158 280l150 623h65l-256 -1047h-63l53 215q-140 -235 -373 -235z" />
    <glyph glyph-name="v" unicode="v" horiz-adv-x="987" 
d="M328 -8l-142 1055h68l119 -963l588 963h73l-653 -1055h-53z" />
    <glyph glyph-name="w" unicode="w" horiz-adv-x="1462" 
d="M260 -8l-61 1055h63l47 -949l512 951h53l48 -951l505 949h70l-571 -1055h-58l-47 938l-508 -938h-53z" />
    <glyph glyph-name="x" unicode="x" horiz-adv-x="952" 
d="M285 1047l202 -461l426 461h80l-479 -515l238 -532h-68l-215 487l-449 -487h-77l501 539l-227 508h68z" />
    <glyph glyph-name="y" unicode="y" horiz-adv-x="1005" 
d="M46 -254q72 0 138 55q68 55 162 205l-164 1041h68l145 -965l580 965h74l-639 -1047q-113 -182 -194 -248t-177 -66t-168 60l37 51q66 -51 138 -51z" />
    <glyph glyph-name="z" unicode="z" horiz-adv-x="882" 
d="M-47 0l6 39l862 950h-612l14 58h701l-6 -39l-863 -951h639l-14 -57h-727z" />
    <glyph glyph-name="braceleft" unicode="{" horiz-adv-x="806" 
d="M336 426q0 62 -46 98q-46 37 -143 37h-45l15 53h45q139 0 221 82t98 314t122 338t333 114v-53q-300 -12 -361 -230q-20 -75 -30 -184q-20 -238 -113 -329q-61 -66 -174 -80q143 -37 143 -162q0 -56 -50 -190t-50 -224t54 -151t180 -97l-17 -47q-283 70 -282 301
q0 82 57 246q43 102 43 164z" />
    <glyph glyph-name="bar" unicode="|" horiz-adv-x="514" 
d="M41 -242l457 1856h57l-457 -1856h-57z" />
    <glyph glyph-name="braceright" unicode="}" horiz-adv-x="806" 
d="M598 1161q0 -80 -57 -246q-43 -102 -43 -163q0 -60 46 -98t142 -38h45l-14 -53h-45q-139 0 -221 -82q-83 -82 -99 -314t-122 -338t-332 -114v54q299 12 360 230q20 75 31 183q20 238 112 330q61 66 174 80q-143 37 -143 162q0 56 50 190t50 224t-54 150q-54 62 -179 97
l16 47q283 -70 283 -301z" />
    <glyph glyph-name="asciitilde" unicode="~" horiz-adv-x="821" 
d="M328 700q53 0 116 -63t97 -64q57 0 114 123l45 -16q-70 -168 -165 -168q-55 0 -117 64t-96 63q-56 0 -117 -123l-43 16q70 168 166 168z" />
    <glyph glyph-name="uni00A0" unicode="&#xa0;" horiz-adv-x="477" 
 />
    <glyph glyph-name="exclamdown" unicode="&#xa1;" horiz-adv-x="409" 
d="M467 1434l-33 -134h-92l31 134h94zM346 1059l-196 -883l-44 -176h-73l278 1059h35z" />
    <glyph glyph-name="cent" unicode="&#xa2;" horiz-adv-x="968" 
d="M209 598q0 -252 190 -336l310 942q-10 2 -29 2q-166 0 -289 -127q-86 -84 -134 -215t-48 -266zM530 238q154 0 283 114l39 -45q-145 -129 -328 -129q-57 0 -92 10l-67 -200h-62l76 217q-109 43 -173 145t-65 246t53 286t148 236q150 150 340 150q16 0 45 -4l59 180h62
l-64 -189q150 -37 238 -178l-51 -37q-84 127 -209 156l-313 -950q35 -8 81 -8z" />
    <glyph glyph-name="sterling" unicode="&#xa3;" horiz-adv-x="1056" 
d="M811 1450q217 0 322 -197l-56 -32q-94 168 -270 168q-127 0 -215 -91q-92 -90 -141 -297l-72 -286h508l-17 -62h-505l-144 -592h643l-14 -61h-866l8 35l162 26l143 592h-160l17 62h159l72 303q111 432 426 432z" />
    <glyph glyph-name="yen" unicode="&#xa5;" horiz-adv-x="1191" 
d="M428 0l66 266h-357l15 58h356l61 251h-356l16 58h332l-282 801h71l273 -779l649 779h84l-676 -801h328l-15 -58h-358l-62 -251h357l-15 -58h-356l-63 -266h-68z" />
    <glyph glyph-name="section" unicode="&#xa7;" horiz-adv-x="1095" 
d="M227 766q0 -72 46 -122q46 -48 159 -101t246 -53t210 52q77 54 77 126t-46 122q-46 48 -159 101t-246 53t-210 -53t-77 -125zM694 1393q-106 1 -172 -49t-66 -124t66 -130q64 -55 212 -122q148 -66 224 -132q74 -66 74 -162t-95 -166q-95 -68 -255 -68q-31 0 -49 2
q170 -98 170 -223q0 -102 -87 -170t-224 -67q-221 0 -379 143l41 49q147 -133 342 -133q106 0 173 49t67 124t-65 130t-213 122q-148 66 -224 132q-75 66 -74 150q0 110 94 178t254 67q33 0 51 -2q-170 96 -170 223q0 102 86 170t225 68q221 0 379 -143l-41 -49
q-147 133 -344 133z" />
    <glyph glyph-name="dieresis" unicode="&#xa8;" 
d="M762 1227l29 116h90l-29 -116h-90zM508 1227l29 116h92l-31 -116h-90z" />
    <glyph glyph-name="copyright" unicode="&#xa9;" horiz-adv-x="1501" 
d="M180 590q0 -242 144 -407t397 -165q254 0 450 193q117 117 180 288q62 171 62 345q2 242 -141 406t-400 165q-257 0 -450 -192q-118 -117 -180 -287t-62 -346zM1460 838q0 -180 -66 -356t-188 -298q-209 -209 -483 -209q-274 1 -432 177t-158 444q0 178 67 354t187 299
q209 209 483 209t432 -176t158 -444zM756 328q-119 0 -192 78q-72 78 -72 198t40 230t111 178q102 106 247 106t218 -129l-47 -33q-63 109 -176 109t-199 -86q-61 -61 -98 -159t-37 -206q0 -106 56 -170q57 -64 151 -63q94 0 194 92l35 -41q-112 -104 -231 -104z" />
    <glyph glyph-name="ordfeminine" unicode="&#xaa;" horiz-adv-x="724" 
d="M143 645l11 49h444l-12 -49h-443zM289 993q1 -108 127 -108q64 0 126 54q64 54 85 136l12 55q-92 31 -174 31t-129 -48t-47 -120zM389 838q-67 0 -111 41t-44 121t64 144q65 62 158 62t193 -35l6 25q11 41 11 86t-40 76t-106 31t-147 -29l-13 47q90 33 171 33t135 -44
t53 -120q0 -29 -10 -84l-84 -342h-54l25 104q-82 -116 -207 -116z" />
    <glyph glyph-name="guillemotleft" unicode="&#xab;" horiz-adv-x="884" 
d="M621 92l-209 424l2 12l413 422l43 -35l-383 -401l183 -397zM285 92l-209 424l2 12l416 422l43 -35l-385 -401l182 -397z" />
    <glyph glyph-name="registered" unicode="&#xae;" horiz-adv-x="784" 
d="M528 1098q123 0 121 86q0 66 -88 65h-65l-35 -151h67zM563 1286q127 0 127 -102q0 -43 -28 -76t-80 -45l55 -145h-43l-55 141h-88l-35 -141h-41l90 368h98zM496 766q121 0 213 92q119 117 118 301q0 113 -67 191q-68 78 -190 78t-214 -93q-117 -119 -116 -303
q0 -114 68 -190t188 -76zM567 1458q137 0 215 -84t78 -213q0 -201 -127 -323q-97 -102 -235 -102t-216 84q-78 85 -77 212q0 197 127 324q98 102 235 102z" />
    <glyph glyph-name="macron" unicode="&#xaf;" 
d="M446 1247l15 60h491l-14 -60h-492z" />
    <glyph glyph-name="degree" unicode="&#xb0;" horiz-adv-x="722" 
d="M436 895q80 0 146 66q94 94 94 241q0 86 -46 137t-125 51t-147 -63q-94 -94 -94 -244q0 -86 46 -137t126 -51zM506 1446q104 0 166 -67t61 -175q0 -172 -108 -280q-91 -84 -193 -84t-165 66q-62 67 -62 175q0 168 110 279q87 86 191 86z" />
    <glyph glyph-name="plusminus" unicode="&#xb1;" horiz-adv-x="1071" 
d="M12 68l15 59h819l-12 -59h-822zM463 354l94 379h-379l12 62h379l95 374h63l-94 -374h381l-15 -62h-378l-97 -379h-61z" />
    <glyph glyph-name="acute" unicode="&#xb4;" 
d="M535 1204l225 248l74 -37l-244 -211h-55z" />
    <glyph glyph-name="paragraph" unicode="&#xb6;" horiz-adv-x="862" 
d="M797 1434h104l-350 -1434h-68l133 547q-223 6 -329 117q-98 98 -99 258q0 213 140 348q160 164 469 164z" />
    <glyph glyph-name="periodcentered" unicode="&#xb7;" horiz-adv-x="346" 
d="M129 530l33 134h94l-33 -134h-94z" />
    <glyph glyph-name="cedilla" unicode="&#xb8;" 
d="M258 -268l-63 32l221 252h51z" />
    <glyph glyph-name="ordmasculine" unicode="&#xba;" horiz-adv-x="727" 
d="M768 1202q0 -172 -109 -280q-86 -86 -189 -86t-164 67q-60 68 -60 174q0 172 108 281q86 86 188 86t164 -68t62 -174zM303 1079q0 -86 45 -139t125 -53t145 65q92 96 93 248q0 86 -45 139t-125 53t-146 -65q-92 -96 -92 -248zM145 645l11 49h483l-12 -49h-482z" />
    <glyph glyph-name="guillemotright" unicode="&#xbb;" horiz-adv-x="884" 
d="M254 948l209 -424l-2 -12l-414 -422l-43 35l383 401l-182 398zM590 948l209 -424l-2 -12l-416 -422l-43 35l385 401l-182 398z" />
    <glyph glyph-name="questiondown" unicode="&#xbf;" horiz-adv-x="913" 
d="M782 1434l-32 -134h-95l33 134h94zM121 319q0 -125 84 -199t217 -73q180 0 344 148l39 -50q-180 -162 -387 -161q-166 0 -265 94t-100 239q0 180 135 294t351 155l88 293h39l-66 -336l-8 -10q-211 -29 -341 -130t-130 -264z" />
    <glyph glyph-name="Agrave" unicode="&#xc0;" horiz-adv-x="1327" 
d="M881 1563l-162 178l72 37l135 -215h-45zM326 479h678l-123 875zM-53 0l917 1444h66l209 -1444h-68l-57 418h-727l-264 -418h-76z" />
    <glyph glyph-name="Aacute" unicode="&#xc1;" horiz-adv-x="1327" 
d="M887 1563l227 215l72 -37l-240 -178h-59zM326 479h678l-123 875zM-53 0l917 1444h66l209 -1444h-68l-57 418h-727l-264 -418h-76z" />
    <glyph glyph-name="Acircumflex" unicode="&#xc2;" horiz-adv-x="1327" 
d="M694 1559l242 204h57l142 -204h-60l-121 141l-192 -141h-68zM326 479h678l-123 875zM-53 0l917 1444h66l209 -1444h-68l-57 418h-727l-264 -418h-76z" />
    <glyph glyph-name="Atilde" unicode="&#xc3;" horiz-adv-x="1327" 
d="M838 1731q42 -1 114 -47t109 -46q59 0 113 99l45 -13q-70 -150 -164 -149q-41 0 -118 47t-103 47q-60 0 -117 -100l-43 10q66 152 164 152zM326 479h678l-123 875zM-53 0l917 1444h66l209 -1444h-68l-57 418h-727l-264 -418h-76z" />
    <glyph glyph-name="Adieresis" unicode="&#xc4;" horiz-adv-x="1327" 
d="M1020 1585l29 117h96l-29 -117h-96zM748 1585l28 117h96l-28 -117h-96zM326 479h678l-123 875zM-53 0l917 1444h66l209 -1444h-68l-57 418h-727l-264 -418h-76z" />
    <glyph glyph-name="Aring" unicode="&#xc5;" horiz-adv-x="1327" 
d="M907 1413q61 0 109 42q47 42 47 97t-35 87t-96 32q-60 0 -108 -42t-48 -98t35 -87t96 -31zM326 479h678l-123 875zM723 1524q0 82 65 136q66 54 148 54t130 -44t48 -112t-50 -121q-50 -52 -124 -65l199 -1372h-68l-57 418h-727l-264 -418h-76l878 1380q-102 35 -102 144z
" />
    <glyph glyph-name="AE" unicode="&#xc6;" horiz-adv-x="1783" 
d="M348 479h490l219 893h-31zM-96 0l1093 1434h893l-16 -62h-750l-151 -618h678l-15 -64h-678l-153 -629h758l-15 -61h-825l100 418h-522l-317 -418h-80z" />
    <glyph glyph-name="Ccedilla" unicode="&#xc7;" horiz-adv-x="1236" 
d="M897 1456q279 0 412 -239l-58 -35q-123 213 -353 213t-404 -178q-123 -125 -195 -313t-72 -397q0 -208 117 -338q116 -130 310 -130t378 170l43 -47q-197 -184 -436 -185h-27l-180 -245l-63 32l192 220q-178 27 -290 168q-111 141 -111 355t73 413q74 199 209 333
q203 203 455 203z" />
    <glyph glyph-name="Egrave" unicode="&#xc8;" horiz-adv-x="1128" 
d="M57 0l351 1434h835l-14 -62h-768l-152 -618h695l-15 -64h-694l-156 -629h779l-17 -61h-844zM797 1550l-162 179l72 36l135 -215h-45z" />
    <glyph glyph-name="Eacute" unicode="&#xc9;" horiz-adv-x="1128" 
d="M57 0l351 1434h835l-14 -62h-768l-152 -618h695l-15 -64h-694l-156 -629h779l-17 -61h-844zM799 1550l227 215l72 -36l-240 -179h-59z" />
    <glyph glyph-name="Ecircumflex" unicode="&#xca;" horiz-adv-x="1128" 
d="M608 1552l242 205h57l142 -205h-60l-121 142l-192 -142h-68zM57 0l351 1434h835l-14 -62h-768l-152 -618h695l-15 -64h-694l-156 -629h779l-17 -61h-844z" />
    <glyph glyph-name="Edieresis" unicode="&#xcb;" horiz-adv-x="1128" 
d="M57 0l351 1434h835l-14 -62h-768l-152 -618h695l-15 -64h-694l-156 -629h779l-17 -61h-844zM932 1573l29 117h96l-29 -117h-96zM659 1573l29 117h96l-28 -117h-97z" />
    <glyph glyph-name="Igrave" unicode="&#xcc;" horiz-adv-x="462" 
d="M440 1550l-161 179l71 36l135 -215h-45zM72 0l350 1434h67l-350 -1434h-67z" />
    <glyph glyph-name="Iacute" unicode="&#xcd;" horiz-adv-x="462" 
d="M446 1550l228 215l71 -36l-239 -179h-60zM72 0l350 1434h67l-350 -1434h-67z" />
    <glyph glyph-name="Icircumflex" unicode="&#xce;" horiz-adv-x="462" 
d="M254 1552l242 205h57l141 -205h-59l-121 142l-192 -142h-68zM72 0l350 1434h67l-350 -1434h-67z" />
    <glyph glyph-name="Idieresis" unicode="&#xcf;" horiz-adv-x="462" 
d="M580 1573l28 117h97l-29 -117h-96zM307 1573l29 117h96l-29 -117h-96zM72 0l350 1434h67l-350 -1434h-67z" />
    <glyph glyph-name="Eth" unicode="&#xd0;" horiz-adv-x="1345" 
d="M674 1372h-195l-151 -620h405l-16 -62h-404l-153 -629h280q340 0 551 215q109 106 167 268t59 320q-1 234 -130 363q-141 145 -413 145zM672 1434q301 0 467 -162q147 -147 147 -406q0 -170 -62 -342t-182 -291q-238 -233 -612 -233h-350l168 690h-139l16 62h139l166 682
h242z" />
    <glyph glyph-name="Ntilde" unicode="&#xd1;" horiz-adv-x="1368" 
d="M57 0l351 1434h63l549 -1313l323 1313h64l-350 -1434h-56l-555 1327l-323 -1327h-66zM842 1708q43 0 121 -47q66 -45 102 -45q59 0 113 98l45 -12q-70 -150 -164 -150q-41 0 -118 48t-103 47q-60 -1 -117 -101l-43 10q66 152 164 152z" />
    <glyph glyph-name="Ograve" unicode="&#xd2;" horiz-adv-x="1439" 
d="M231 524q0 -206 118 -346t323 -139q205 0 375 170q121 121 190 309q70 188 70 392t-120 344t-323 140t-375 -171q-119 -119 -189 -307q-70 -186 -69 -392zM866 1456q234 0 371 -157t137 -410q0 -195 -75 -393t-203 -328q-196 -190 -428 -190t-368 156q-136 157 -136 409
q0 197 74 395t202 326q192 192 426 192zM913 1563l-161 178l71 37l135 -215h-45z" />
    <glyph glyph-name="Oacute" unicode="&#xd3;" horiz-adv-x="1439" 
d="M231 524q0 -206 118 -346t323 -139q205 0 375 170q121 121 190 309q70 188 70 392t-120 344t-323 140t-375 -171q-119 -119 -189 -307q-70 -186 -69 -392zM866 1456q234 0 371 -157t137 -410q0 -195 -75 -393t-203 -328q-196 -190 -428 -190t-368 156q-136 157 -136 409
q0 197 74 395t202 326q192 192 426 192zM918 1563l227 215l72 -37l-240 -178h-59z" />
    <glyph glyph-name="Ocircumflex" unicode="&#xd4;" horiz-adv-x="1439" 
d="M727 1565l242 204h57l141 -204h-59l-121 141l-192 -141h-68zM231 524q0 -206 118 -346t323 -139q205 0 375 170q121 121 190 309q70 188 70 392t-120 344t-323 140t-375 -171q-119 -119 -189 -307q-70 -186 -69 -392zM866 1456q234 0 371 -157t137 -410q0 -195 -75 -393
t-203 -328q-196 -190 -428 -190t-368 156q-136 157 -136 409q0 197 74 395t202 326q192 192 426 192z" />
    <glyph glyph-name="Otilde" unicode="&#xd5;" horiz-adv-x="1439" 
d="M231 524q0 -206 118 -346t323 -139q205 0 375 170q121 121 190 309q70 188 70 392t-120 344t-323 140t-375 -171q-119 -119 -189 -307q-70 -186 -69 -392zM866 1456q234 0 371 -157t137 -410q0 -195 -75 -393t-203 -328q-196 -190 -428 -190t-368 156q-136 157 -136 409
q0 197 74 395t202 326q192 192 426 192zM868 1731q43 0 121 -48q66 -45 103 -45q59 0 112 99l45 -13q-70 -150 -164 -149q-41 0 -117 47t-104 47q-59 0 -116 -100l-43 10q66 152 163 152z" />
    <glyph glyph-name="Odieresis" unicode="&#xd6;" horiz-adv-x="1439" 
d="M231 524q0 -206 118 -346t323 -139q205 0 375 170q121 121 190 309q70 188 70 392t-120 344t-323 140t-375 -171q-119 -119 -189 -307q-70 -186 -69 -392zM866 1456q234 0 371 -157t137 -410q0 -195 -75 -393t-203 -328q-196 -190 -428 -190t-368 156q-136 157 -136 409
q0 197 74 395t202 326q192 192 426 192zM1051 1585l28 117h97l-29 -117h-96zM778 1585l29 117h96l-29 -117h-96z" />
    <glyph glyph-name="multiply" unicode="&#xd7;" horiz-adv-x="1069" 
d="M166 346l-39 45l412 336l-242 330l51 39l238 -332l409 334l37 -47l-409 -334l239 -330l-51 -41l-238 332z" />
    <glyph glyph-name="Oslash" unicode="&#xd8;" horiz-adv-x="1439" 
d="M657 39q222 0 392 170q117 119 187 309q71 190 71 356t-58 285l-932 -940q118 -180 340 -180zM231 556q0 -171 56 -284l934 940q-121 182 -343 182t-389 -171q-119 -117 -189 -307t-69 -360zM879 1456q248 0 389 -196l190 186h82l-242 -238q76 -134 76 -324t-75 -388
t-203 -328q-190 -190 -440 -190t-386 192l-192 -182h-82l242 235q-74 133 -74 324t74 391t200 326q193 192 441 192z" />
    <glyph glyph-name="Ugrave" unicode="&#xd9;" horiz-adv-x="1318" 
d="M598 -20q-207 0 -324 103t-116 292q0 96 30 225l201 834h68l-207 -852q-27 -109 -27 -201q-1 -162 99 -251t278 -89t305 128t187 370l215 895h67l-219 -910q-66 -260 -199 -395q-151 -149 -358 -149zM846 1540l-162 178l72 37l135 -215h-45z" />
    <glyph glyph-name="Uacute" unicode="&#xda;" horiz-adv-x="1318" 
d="M598 -20q-207 0 -324 103t-116 292q0 96 30 225l201 834h68l-207 -852q-27 -109 -27 -201q-1 -162 99 -251t278 -89t305 128t187 370l215 895h67l-219 -910q-66 -260 -199 -395q-151 -149 -358 -149zM854 1540l227 215l72 -37l-240 -178h-59z" />
    <glyph glyph-name="Ucircumflex" unicode="&#xdb;" horiz-adv-x="1318" 
d="M662 1542l241 205h58l141 -205h-60l-120 141l-193 -141h-67zM598 -20q-207 0 -324 103t-116 292q0 96 30 225l201 834h68l-207 -852q-27 -109 -27 -201q-1 -162 99 -251t278 -89t305 128t187 370l215 895h67l-219 -910q-66 -260 -199 -395q-151 -149 -358 -149z" />
    <glyph glyph-name="Udieresis" unicode="&#xdc;" horiz-adv-x="1318" 
d="M598 -20q-207 0 -324 103t-116 292q0 96 30 225l201 834h68l-207 -852q-27 -109 -27 -201q-1 -162 99 -251t278 -89t305 128t187 370l215 895h67l-219 -910q-66 -260 -199 -395q-151 -149 -358 -149zM987 1563l29 116h96l-29 -116h-96zM715 1563l28 116h97l-29 -116h-96z
" />
    <glyph glyph-name="Yacute" unicode="&#xdd;" horiz-adv-x="1155" 
d="M762 1540l227 215l72 -37l-240 -178h-59zM408 0l147 602l-301 832h70l278 -772l655 772h86l-722 -844l-144 -590h-69z" />
    <glyph glyph-name="Thorn" unicode="&#xde;" horiz-adv-x="1167" 
d="M498 346q295 0 448 150q119 119 119 301q0 131 -78 213q-96 98 -311 98h-281l-186 -762h289zM678 1169q244 0 360 -116q94 -94 95 -256q0 -205 -136 -340q-172 -172 -501 -172h-301l-70 -285h-68l351 1434h65l-63 -265h268z" />
    <glyph glyph-name="germandbls" unicode="&#xdf;" horiz-adv-x="1044" 
d="M852 414q0 240 -330 309l15 53q203 40 315 144t111 264q0 110 -67 178q-68 68 -190 68t-214 -100t-136 -279l-256 -1051h-63l260 1067q51 207 160 315t253 107q144 0 232 -85q88 -86 88 -236t-110 -262t-289 -158q289 -86 289 -336q0 -184 -155 -303t-417 -113l14 57
q230 -1 360 101t130 260z" />
    <glyph glyph-name="agrave" unicode="&#xe0;" horiz-adv-x="1003" 
d="M608 1206l-153 211l75 37l119 -248h-41zM340 37q150 0 266 104t154 258l31 123q-164 60 -335 60t-261 -90q-91 -90 -91 -212t67 -182t169 -61zM328 -20q-121 0 -206 74t-85 222q1 148 109 256t298 107q190 0 359 -61l12 51q18 88 19 137q0 111 -76 172t-205 61t-260 -51
l-17 60q137 53 286 53t242 -76t93 -213q0 -66 -23 -151l-149 -621h-63l49 201q-143 -221 -383 -221z" />
    <glyph glyph-name="aacute" unicode="&#xe1;" horiz-adv-x="1003" 
d="M602 1206l225 248l74 -37l-244 -211h-55zM340 37q150 0 266 104t154 258l31 123q-164 60 -335 60t-261 -90q-91 -90 -91 -212t67 -182t169 -61zM328 -20q-121 0 -206 74t-85 222q1 148 109 256t298 107q190 0 359 -61l12 51q18 88 19 137q0 111 -76 172t-205 61t-260 -51
l-17 60q137 53 286 53t242 -76t93 -213q0 -66 -23 -151l-149 -621h-63l49 201q-143 -221 -383 -221z" />
    <glyph glyph-name="acircumflex" unicode="&#xe2;" horiz-adv-x="1003" 
d="M430 1210l246 242h47l127 -242h-51l-113 170l-199 -170h-57zM340 37q150 0 266 104t154 258l31 123q-164 60 -335 60t-261 -90q-91 -90 -91 -212t67 -182t169 -61zM328 -20q-121 0 -206 74t-85 222q1 148 109 256t298 107q190 0 359 -61l12 51q18 88 19 137
q0 111 -76 172t-205 61t-260 -51l-17 60q137 53 286 53t242 -76t93 -213q0 -66 -23 -151l-149 -621h-63l49 201q-143 -221 -383 -221z" />
    <glyph glyph-name="atilde" unicode="&#xe3;" horiz-adv-x="1003" 
d="M555 1325q-63 0 -113 -113l-45 13q63 164 164 164q41 -1 111 -53t106 -52q58 0 115 113l43 -13q-66 -164 -164 -163q-45 0 -116 52t-101 52zM340 37q150 0 266 104t154 258l31 123q-164 60 -335 60t-261 -90q-91 -90 -91 -212t67 -182t169 -61zM328 -20q-121 0 -206 74
t-85 222q1 148 109 256t298 107q190 0 359 -61l12 51q18 88 19 137q0 111 -76 172t-205 61t-260 -51l-17 60q137 53 286 53t242 -76t93 -213q0 -66 -23 -151l-149 -621h-63l49 201q-143 -221 -383 -221z" />
    <glyph glyph-name="adieresis" unicode="&#xe4;" horiz-adv-x="1003" 
d="M733 1229l29 117h90l-29 -117h-90zM479 1229l29 117h92l-31 -117h-90zM340 37q150 0 266 104t154 258l31 123q-164 60 -335 60t-261 -90q-91 -90 -91 -212t67 -182t169 -61zM328 -20q-121 0 -206 74t-85 222q1 148 109 256t298 107q190 0 359 -61l12 51q18 88 19 137
q0 111 -76 172t-205 61t-260 -51l-17 60q137 53 286 53t242 -76t93 -213q0 -66 -23 -151l-149 -621h-63l49 201q-143 -221 -383 -221z" />
    <glyph glyph-name="aring" unicode="&#xe5;" horiz-adv-x="1003" 
d="M551 1381q0 -58 35 -94t94 -36t105 45q46 46 46 104t-34 94q-35 36 -94 36t-106 -45q-46 -46 -46 -104zM879 1402q-1 -77 -61 -134q-60 -58 -139 -58t-127 47t-48 123t61 134t139 58t127 -46q48 -47 48 -124zM340 37q150 0 266 104t154 258l31 123q-164 60 -335 60
t-261 -90q-91 -90 -91 -212t67 -182t169 -61zM328 -20q-121 0 -206 74t-85 222q1 148 109 256t298 107q190 0 359 -61l12 51q18 88 19 137q0 111 -76 172t-205 61t-260 -51l-17 60q137 53 286 53t242 -76t93 -213q0 -66 -23 -151l-149 -621h-63l49 201q-143 -221 -383 -221z
" />
    <glyph glyph-name="ae" unicode="&#xe6;" horiz-adv-x="1714" 
d="M1293 1008q-142 0 -265 -123t-170 -326h694q16 86 17 133q0 140 -67 228t-209 88zM346 37q250 0 438 285q-12 90 7 198q-166 62 -336 62t-260 -90q-91 -90 -91 -210q0 -122 69 -184t173 -61zM1184 -20q-158 0 -254 70t-131 200q-195 -270 -461 -270q-129 0 -215 74
t-86 224q1 148 109 254t298 107q190 0 359 -61l12 51q18 88 19 137q0 111 -76 172t-205 61t-260 -51l-17 60q137 53 282 53t237 -70t96 -198q69 121 179 197t235 77q159 0 243 -104t84 -269q0 -96 -28 -194h-758q-6 -53 -6 -103q0 -168 89 -262t243 -94t296 111l35 -50
q-161 -122 -319 -122z" />
    <glyph glyph-name="ccedilla" unicode="&#xe7;" horiz-adv-x="946" 
d="M82 385q0 157 54 295t151 235q147 152 350 152t313 -188l-51 -37q-102 164 -270 164t-293 -129q-84 -84 -135 -214t-51 -281t91 -246t230 -95t270 115l39 -45q-145 -131 -319 -131h-21l-182 -248l-63 32l194 224q-133 24 -220 132t-87 265z" />
    <glyph glyph-name="egrave" unicode="&#xe8;" 
d="M645 1206l-153 211l75 37l119 -248h-41zM607 1008q-140 0 -265 -123t-172 -326h694q16 70 17 133q0 140 -67 228t-207 88zM152 397q0 -168 88 -262t244 -94t296 111l35 -50q-160 -122 -337 -122q-176 0 -284 110t-108 303q0 147 56 289t153 240q141 145 312 145t255 -104
t84 -269q0 -100 -31 -194h-757q-6 -53 -6 -103z" />
    <glyph glyph-name="eacute" unicode="&#xe9;" 
d="M641 1206l225 248l74 -37l-244 -211h-55zM607 1008q-140 0 -265 -123t-172 -326h694q16 70 17 133q0 140 -67 228t-207 88zM152 397q0 -168 88 -262t244 -94t296 111l35 -50q-160 -122 -337 -122q-176 0 -284 110t-108 303q0 147 56 289t153 240q141 145 312 145
t255 -104t84 -269q0 -100 -31 -194h-757q-6 -53 -6 -103z" />
    <glyph glyph-name="ecircumflex" unicode="&#xea;" 
d="M469 1210l246 242h47l127 -242h-51l-113 170l-199 -170h-57zM607 1008q-140 0 -265 -123t-172 -326h694q16 70 17 133q0 140 -67 228t-207 88zM152 397q0 -168 88 -262t244 -94t296 111l35 -50q-160 -122 -337 -122q-176 0 -284 110t-108 303q0 147 56 289t153 240
q141 145 312 145t255 -104t84 -269q0 -100 -31 -194h-757q-6 -53 -6 -103z" />
    <glyph glyph-name="edieresis" unicode="&#xeb;" 
d="M768 1229l29 117h90l-29 -117h-90zM514 1229l29 117h92l-31 -117h-90zM607 1008q-140 0 -265 -123t-172 -326h694q16 70 17 133q0 140 -67 228t-207 88zM152 397q0 -168 88 -262t244 -94t296 111l35 -50q-160 -122 -337 -122q-176 0 -284 110t-108 303q0 147 56 289
t153 240q141 145 312 145t255 -104t84 -269q0 -100 -31 -194h-757q-6 -53 -6 -103z" />
    <glyph glyph-name="igrave" unicode="&#xec;" horiz-adv-x="417" 
d="M340 1204l-154 211l76 37l119 -248h-41zM49 0l254 1047h64l-254 -1047h-64z" />
    <glyph glyph-name="iacute" unicode="&#xed;" horiz-adv-x="417" 
d="M49 0l254 1047h64l-254 -1047h-64zM340 1204l225 248l74 -37l-244 -211h-55z" />
    <glyph glyph-name="icircumflex" unicode="&#xee;" horiz-adv-x="417" 
d="M49 0l254 1047h64l-254 -1047h-64zM162 1208l246 242h47l127 -242h-52l-112 170l-199 -170h-57z" />
    <glyph glyph-name="idieresis" unicode="&#xef;" horiz-adv-x="417" 
d="M49 0l254 1047h64l-254 -1047h-64zM467 1227l29 116h90l-29 -116h-90zM213 1227l29 116h92l-31 -116h-90z" />
    <glyph glyph-name="eth" unicode="&#xf0;" horiz-adv-x="1083" 
d="M154 390q0 -150 84 -250t238 -101q154 0 276 125q82 82 132 211t50 275t-90 249q-90 102 -241 102t-267 -116q-82 -82 -132 -213q-50 -132 -50 -282zM1004 694q0 -365 -209 -573q-137 -141 -321 -141t-285 116q-101 118 -101 286t53 308t146 232q137 141 319 141
q223 0 332 -219q-43 223 -201 461l-258 -119l-22 51l250 113q-47 63 -99 129h78l76 -103l207 94l22 -49l-198 -92q211 -324 211 -635z" />
    <glyph glyph-name="ntilde" unicode="&#xf1;" horiz-adv-x="1077" 
d="M604 1325q-63 0 -112 -113l-46 13q63 164 164 164q42 -1 112 -53t105 -52q58 0 115 113l43 -13q-66 -164 -164 -163q-45 0 -116 52t-101 52zM674 1067q135 0 214 -78t79 -215q0 -78 -27 -186l-141 -588h-64l142 590q25 92 25 192t-63 163t-189 63t-240 -108t-158 -279
l-152 -621h-63l254 1047h63l-51 -216q139 236 371 236z" />
    <glyph glyph-name="ograve" unicode="&#xf2;" horiz-adv-x="1097" 
d="M672 1206l-154 211l76 37l119 -248h-41zM152 390q0 -148 88 -250t240 -101q152 0 280 127q84 86 134 214t50 276t-87 250t-241 102t-280 -129q-84 -84 -134 -212q-50 -129 -50 -277zM618 1067q181 0 287 -118q107 -119 107 -285q1 -334 -203 -537q-147 -147 -329 -147
t-290 117q-106 118 -106 306q0 145 54 283t151 234q148 147 329 147z" />
    <glyph glyph-name="oacute" unicode="&#xf3;" horiz-adv-x="1097" 
d="M152 390q0 -148 88 -250t240 -101q152 0 280 127q84 86 134 214t50 276t-87 250t-241 102t-280 -129q-84 -84 -134 -212q-50 -129 -50 -277zM618 1067q181 0 287 -118q107 -119 107 -285q1 -334 -203 -537q-147 -147 -329 -147t-290 117q-106 118 -106 306q0 145 54 283
t151 234q148 147 329 147zM666 1206l225 248l74 -37l-244 -211h-55z" />
    <glyph glyph-name="ocircumflex" unicode="&#xf4;" horiz-adv-x="1097" 
d="M152 390q0 -148 88 -250t240 -101q152 0 280 127q84 86 134 214t50 276t-87 250t-241 102t-280 -129q-84 -84 -134 -212q-50 -129 -50 -277zM618 1067q181 0 287 -118q107 -119 107 -285q1 -334 -203 -537q-147 -147 -329 -147t-290 117q-106 118 -106 306q0 145 54 283
t151 234q148 147 329 147zM489 1210l246 242h47l127 -242h-51l-113 170l-198 -170h-58z" />
    <glyph glyph-name="otilde" unicode="&#xf5;" horiz-adv-x="1097" 
d="M616 1325q-63 0 -112 -113l-45 13q63 164 164 164q41 -1 111 -53t106 -52q57 0 114 113l43 -13q-66 -164 -163 -163q-45 0 -116 52t-102 52zM152 390q0 -148 88 -250t240 -101q152 0 280 127q84 86 134 214t50 276t-87 250t-241 102t-280 -129q-84 -84 -134 -212
q-50 -129 -50 -277zM618 1067q181 0 287 -118q107 -119 107 -285q1 -334 -203 -537q-147 -147 -329 -147t-290 117q-106 118 -106 306q0 145 54 283t151 234q148 147 329 147z" />
    <glyph glyph-name="odieresis" unicode="&#xf6;" horiz-adv-x="1097" 
d="M152 390q0 -148 88 -250t240 -101q152 0 280 127q84 86 134 214t50 276t-87 250t-241 102t-280 -129q-84 -84 -134 -212q-50 -129 -50 -277zM618 1067q181 0 287 -118q107 -119 107 -285q1 -334 -203 -537q-147 -147 -329 -147t-290 117q-106 118 -106 306q0 145 54 283
t151 234q148 147 329 147zM793 1229l28 117h90l-28 -117h-90zM539 1229l28 117h92l-30 -117h-90z" />
    <glyph glyph-name="divide" unicode="&#xf7;" horiz-adv-x="1071" 
d="M610 1024l31 127h100l-32 -127h-99zM160 690l14 62h834l-15 -62h-833zM426 291l33 127h98l-31 -127h-100z" />
    <glyph glyph-name="oslash" unicode="&#xf8;" horiz-adv-x="1097" 
d="M944 628q0 122 -41 208l-684 -676q88 -121 251 -121t290 127q86 86 135 213t49 249zM625 1008q-164 0 -289 -129q-84 -84 -134 -212t-50 -249t38 -209l684 674q-85 125 -249 125zM625 1067q188 0 297 -137l133 127h78l-181 -174q60 -105 60 -245t-54 -278t-149 -233
q-147 -147 -337 -147t-298 135l-131 -125h-78l178 172q-59 102 -59 244t54 280t151 234q148 147 336 147z" />
    <glyph glyph-name="ugrave" unicode="&#xf9;" horiz-adv-x="1075" 
d="M651 1198l-153 211l75 37l119 -248h-41zM401 -20q-135 0 -214 76t-78 216q0 66 28 187l142 588h63l-143 -590q-25 -104 -25 -200t62 -158t189 -62q126 -1 242 107t158 280l150 623h65l-256 -1047h-63l53 215q-140 -235 -373 -235z" />
    <glyph glyph-name="uacute" unicode="&#xfa;" horiz-adv-x="1075" 
d="M401 -20q-135 0 -214 76t-78 216q0 66 28 187l142 588h63l-143 -590q-25 -104 -25 -200t62 -158t189 -62q126 -1 242 107t158 280l150 623h65l-256 -1047h-63l53 215q-140 -235 -373 -235zM645 1198l225 248l74 -37l-244 -211h-55z" />
    <glyph glyph-name="ucircumflex" unicode="&#xfb;" horiz-adv-x="1075" 
d="M401 -20q-135 0 -214 76t-78 216q0 66 28 187l142 588h63l-143 -590q-25 -104 -25 -200t62 -158t189 -62q126 -1 242 107t158 280l150 623h65l-256 -1047h-63l53 215q-140 -235 -373 -235zM473 1202l246 242h47l127 -242h-51l-113 170l-199 -170h-57z" />
    <glyph glyph-name="udieresis" unicode="&#xfc;" horiz-adv-x="1075" 
d="M401 -20q-135 0 -214 76t-78 216q0 66 28 187l142 588h63l-143 -590q-25 -104 -25 -200t62 -158t189 -62q126 -1 242 107t158 280l150 623h65l-256 -1047h-63l53 215q-140 -235 -373 -235zM770 1221l29 116h90l-29 -116h-90zM516 1221l29 116h92l-31 -116h-90z" />
    <glyph glyph-name="yacute" unicode="&#xfd;" horiz-adv-x="1005" 
d="M590 1198l225 248l74 -37l-244 -211h-55zM46 -254q72 0 138 55q68 55 162 205l-164 1041h68l145 -965l580 965h74l-639 -1047q-113 -182 -194 -248t-177 -66t-168 60l37 51q66 -51 138 -51z" />
    <glyph glyph-name="thorn" unicode="&#xfe;" horiz-adv-x="1140" 
d="M530 39q146 0 263 117q86 88 137 224t51 282t-80 246q-79 100 -223 100t-275 -131q-88 -87 -141 -217t-53 -272t87 -245q88 -104 234 -104zM714 1067q142 0 238 -114t96 -281t-54 -313q-56 -146 -154 -244q-140 -135 -302 -135t-252 93t-114 220l-145 -600h-64l436 1786
h64l-164 -666q61 100 167 177t248 77z" />
    <glyph glyph-name="ydieresis" unicode="&#xff;" horiz-adv-x="1005" 
d="M721 1221l29 116h90l-29 -116h-90zM467 1221l29 116h92l-31 -116h-90zM46 -254q72 0 138 55q68 55 162 205l-164 1041h68l145 -965l580 965h74l-639 -1047q-113 -182 -194 -248t-177 -66t-168 60l37 51q66 -51 138 -51z" />
    <glyph glyph-name="Amacron" unicode="&#x100;" horiz-adv-x="1327" 
d="M682 1606l14 63h514l-14 -63h-514zM326 479h678l-123 875zM-53 0l917 1444h66l209 -1444h-68l-57 418h-727l-264 -418h-76z" />
    <glyph glyph-name="amacron" unicode="&#x101;" horiz-adv-x="1003" 
d="M410 1249l14 60h491l-14 -60h-491zM340 37q150 0 266 104t154 258l31 123q-164 60 -335 60t-261 -90q-91 -90 -91 -212t67 -182t169 -61zM328 -20q-121 0 -206 74t-85 222q1 148 109 256t298 107q190 0 359 -61l12 51q18 88 19 137q0 111 -76 172t-205 61t-260 -51
l-17 60q137 53 286 53t242 -76t93 -213q0 -66 -23 -151l-149 -621h-63l49 201q-143 -221 -383 -221z" />
    <glyph glyph-name="Abreve" unicode="&#x102;" horiz-adv-x="1327" 
d="M932 1563q-102 0 -157 47q-54 47 -44 131h53q4 -117 156 -117t213 117h57q-32 -84 -104 -131t-174 -47zM326 479h678l-123 875zM-53 0l917 1444h66l209 -1444h-68l-57 418h-727l-264 -418h-76z" />
    <glyph glyph-name="abreve" unicode="&#x103;" horiz-adv-x="1003" 
d="M649 1208q-102 0 -154 56t-38 149h51q-4 -67 33 -107t116 -40q145 0 222 147h53q-78 -205 -283 -205zM340 37q150 0 266 104t154 258l31 123q-164 60 -335 60t-261 -90q-91 -90 -91 -212t67 -182t169 -61zM328 -20q-121 0 -206 74t-85 222q1 148 109 256t298 107
q190 0 359 -61l12 51q18 88 19 137q0 111 -76 172t-205 61t-260 -51l-17 60q137 53 286 53t242 -76t93 -213q0 -66 -23 -151l-149 -621h-63l49 201q-143 -221 -383 -221z" />
    <glyph glyph-name="Aogonek" unicode="&#x104;" horiz-adv-x="1327" 
d="M326 479h678l-123 875zM913 -184q0 88 156 192l-55 410h-727l-264 -418h-76l917 1444h66l209 -1444h-19q-141 -108 -141 -174t125 -74l-12 -47q-2 -2 -7 -2q-82 2 -127 33t-45 80z" />
    <glyph glyph-name="aogonek" unicode="&#x105;" horiz-adv-x="1003" 
d="M340 37q150 0 266 104t154 258l31 123q-164 60 -335 60t-261 -90q-91 -90 -91 -212t67 -182t169 -61zM506 -184q0 88 158 194l47 191q-143 -221 -383 -221q-121 0 -206 74t-85 222q1 148 109 256t298 107q190 0 359 -61l12 51q18 88 19 137q0 111 -76 172t-205 61
t-260 -51l-17 60q137 53 286 53t242 -76t93 -213q0 -66 -23 -151l-149 -621h-12q-141 -108 -141 -174t124 -74l-12 -47q-2 -2 -6 -2q-82 2 -127 33t-45 80z" />
    <glyph glyph-name="Cacute" unicode="&#x106;" horiz-adv-x="1232" 
d="M893 1563l227 215l72 -37l-240 -178h-59zM639 -23q-207 1 -343 147t-136 396q0 201 73 400q74 199 209 333q203 203 455 203q279 0 412 -239l-58 -35q-123 213 -353 213t-404 -178q-123 -125 -195 -313t-72 -397q0 -208 117 -338q116 -130 310 -130t378 170l43 -47
q-196 -185 -436 -185z" />
    <glyph glyph-name="cacute" unicode="&#x107;" horiz-adv-x="946" 
d="M469 -20q-167 0 -277 112t-110 305q0 145 54 283t151 235q147 152 350 152t313 -188l-51 -37q-102 164 -270 164t-293 -129q-84 -84 -135 -214t-51 -281t91 -246t230 -95t270 115l39 -45q-145 -131 -311 -131zM629 1206l225 248l74 -37l-244 -211h-55z" />
    <glyph glyph-name="Cdotaccent" unicode="&#x10a;" horiz-adv-x="1232" 
d="M639 -23q-207 1 -343 147t-136 396q0 201 73 400q74 199 209 333q203 203 455 203q279 0 412 -239l-58 -35q-123 213 -353 213t-404 -178q-123 -125 -195 -313t-72 -397q0 -208 117 -338q116 -130 310 -130t378 170l43 -47q-196 -185 -436 -185zM889 1585l29 117h98
l-29 -117h-98z" />
    <glyph glyph-name="cdotaccent" unicode="&#x10b;" horiz-adv-x="946" 
d="M631 1229l33 119h88l-31 -119h-90zM469 -20q-167 0 -277 112t-110 305q0 145 54 283t151 235q147 152 350 152t313 -188l-51 -37q-102 164 -270 164t-293 -129q-84 -84 -135 -214t-51 -281t91 -246t230 -95t270 115l39 -45q-145 -131 -311 -131z" />
    <glyph glyph-name="Ccaron" unicode="&#x10c;" horiz-adv-x="1232" 
d="M1212 1769l-241 -204h-58l-143 204h59l125 -139l191 139h67zM639 -23q-207 1 -343 147t-136 396q0 201 73 400q74 199 209 333q203 203 455 203q279 0 412 -239l-58 -35q-123 213 -353 213t-404 -178q-123 -125 -195 -313t-72 -397q0 -208 117 -338q116 -130 310 -130
t378 170l43 -47q-196 -185 -436 -185z" />
    <glyph glyph-name="ccaron" unicode="&#x10d;" horiz-adv-x="946" 
d="M469 -20q-167 0 -277 112t-110 305q0 145 54 283t151 235q147 152 350 152t313 -188l-51 -37q-102 164 -270 164t-293 -129q-84 -84 -135 -214t-51 -281t91 -246t230 -95t270 115l39 -45q-145 -131 -311 -131zM641 1210l-127 242h51l111 -168l198 168h60l-246 -242h-47z
" />
    <glyph glyph-name="Dcaron" unicode="&#x10e;" horiz-adv-x="1329" 
d="M1124 1757l-241 -205h-58l-143 205h59l125 -139l191 139h67zM651 1372h-192l-320 -1311h279q338 0 553 215q109 106 166 268t57 320q0 236 -127 363q-141 145 -416 145zM649 1434q303 0 469 -162q145 -145 146 -406q0 -172 -62 -344t-182 -289q-233 -233 -610 -233h-353
l351 1434h241z" />
    <glyph glyph-name="dcaron" unicode="&#x10f;" horiz-adv-x="1138" 
d="M158 384q0 -149 78 -247t224 -98q144 0 273 129q88 86 141 217q54 131 54 273t-87 245q-87 105 -233 105t-262 -117q-88 -86 -138 -222t-50 -285zM90 373q0 166 55 313t152 244q137 137 301 137t254 -94t111 -221l180 727h63l-360 -1479h-64l58 233q-62 -100 -168 -177
q-106 -76 -248 -76t-238 114t-96 279zM1427 1479v-4l-139 -301h-35l103 305h71z" />
    <glyph glyph-name="Dcroat" unicode="&#x110;" horiz-adv-x="1345" 
d="M674 1372h-195l-151 -620h405l-16 -62h-404l-153 -629h280q340 0 551 215q109 106 167 268t59 320q-1 234 -130 363q-141 145 -413 145zM672 1434q301 0 467 -162q147 -147 147 -406q0 -170 -62 -342t-182 -291q-238 -233 -612 -233h-350l168 690h-139l16 62h139l166 682
h242z" />
    <glyph glyph-name="dcroat" unicode="&#x111;" horiz-adv-x="1138" 
d="M158 384q0 -149 78 -247t224 -98q144 0 273 129q88 86 141 217q54 131 54 273t-87 245q-87 105 -233 105t-262 -117q-88 -86 -138 -222t-50 -285zM90 373q0 166 55 313t152 244q137 137 301 137t254 -94t111 -221l124 505h-325l14 56h324l43 166h63l-41 -166h131l-14 -56
h-129l-307 -1257h-64l58 233q-62 -100 -168 -177q-106 -76 -248 -76t-238 114t-96 279z" />
    <glyph glyph-name="Emacron" unicode="&#x112;" horiz-adv-x="1128" 
d="M57 0l351 1434h835l-14 -62h-768l-152 -618h695l-15 -64h-694l-156 -629h779l-17 -61h-844zM594 1593l14 64h514l-14 -64h-514z" />
    <glyph glyph-name="emacron" unicode="&#x113;" 
d="M446 1249l15 60h491l-14 -60h-492zM607 1008q-140 0 -265 -123t-172 -326h694q16 70 17 133q0 140 -67 228t-207 88zM152 397q0 -168 88 -262t244 -94t296 111l35 -50q-160 -122 -337 -122q-176 0 -284 110t-108 303q0 147 56 289t153 240q141 145 312 145t255 -104
t84 -269q0 -100 -31 -194h-757q-6 -53 -6 -103z" />
    <glyph glyph-name="Ebreve" unicode="&#x114;" horiz-adv-x="1128" 
d="M57 0l351 1434h835l-14 -62h-768l-152 -618h695l-15 -64h-694l-156 -629h779l-17 -61h-844zM844 1550q-102 0 -157 47q-54 47 -44 132h53q4 -117 156 -117t213 117h57q-31 -84 -103 -132q-73 -47 -175 -47z" />
    <glyph glyph-name="ebreve" unicode="&#x115;" 
d="M686 1208q-102 0 -154 56t-38 149h51q-4 -67 33 -107t116 -40q145 0 221 147h54q-78 -205 -283 -205zM607 1008q-140 0 -265 -123t-172 -326h694q16 70 17 133q0 140 -67 228t-207 88zM152 397q0 -168 88 -262t244 -94t296 111l35 -50q-160 -122 -337 -122
q-176 0 -284 110t-108 303q0 147 56 289t153 240q141 145 312 145t255 -104t84 -269q0 -100 -31 -194h-757q-6 -53 -6 -103z" />
    <glyph glyph-name="Edotaccent" unicode="&#x116;" horiz-adv-x="1128" 
d="M57 0l351 1434h835l-14 -62h-768l-152 -618h695l-15 -64h-694l-156 -629h779l-17 -61h-844zM797 1573l28 117h99l-29 -117h-98z" />
    <glyph glyph-name="edotaccent" unicode="&#x117;" 
d="M641 1229l33 119h88l-31 -119h-90zM607 1008q-140 0 -265 -123t-172 -326h694q16 70 17 133q0 140 -67 228t-207 88zM152 397q0 -168 88 -262t244 -94t296 111l35 -50q-160 -122 -337 -122q-176 0 -284 110t-108 303q0 147 56 289t153 240q141 145 312 145t255 -104
t84 -269q0 -100 -31 -194h-757q-6 -53 -6 -103z" />
    <glyph glyph-name="Eogonek" unicode="&#x118;" horiz-adv-x="1128" 
d="M729 -174q0 -66 125 -74l-12 -47q-2 -2 -6 -2q-82 2 -127 33t-45 80q0 84 143 184h-750l351 1434h835l-14 -62h-768l-152 -618h695l-15 -64h-694l-156 -629h779l-17 -61h-31q-141 -108 -141 -174z" />
    <glyph glyph-name="eogonek" unicode="&#x119;" 
d="M607 1008q-140 0 -265 -123t-172 -326h694q16 70 17 133q0 140 -67 228t-207 88zM459 -184q0 80 131 176q-55 -12 -111 -12q-177 0 -285 110t-108 303q0 147 56 289t153 240q141 145 312 145t255 -104t84 -269q0 -100 -31 -194h-757q-6 -53 -6 -103q0 -168 88 -262
t244 -94t296 111l35 -50q-25 -18 -112 -77t-119 -95q-57 -53 -58 -104q0 -66 123 -74l-10 -47l-6 -2q-84 2 -129 33t-45 80z" />
    <glyph glyph-name="Ecaron" unicode="&#x11a;" horiz-adv-x="1128" 
d="M57 0l351 1434h835l-14 -62h-768l-152 -618h695l-15 -64h-694l-156 -629h779l-17 -61h-844zM1118 1757l-241 -205h-58l-143 205h59l125 -139l191 139h67z" />
    <glyph glyph-name="ecaron" unicode="&#x11b;" 
d="M651 1210l-127 242h51l111 -168l199 168h59l-246 -242h-47zM607 1008q-140 0 -265 -123t-172 -326h694q16 70 17 133q0 140 -67 228t-207 88zM152 397q0 -168 88 -262t244 -94t296 111l35 -50q-160 -122 -337 -122q-176 0 -284 110t-108 303q0 147 56 289t153 240
q141 145 312 145t255 -104t84 -269q0 -100 -31 -194h-757q-6 -53 -6 -103z" />
    <glyph glyph-name="Gbreve" unicode="&#x11e;" horiz-adv-x="1343" 
d="M670 -23q-221 0 -364 156q-142 156 -142 414q0 193 73 379t201 315q212 215 484 215t428 -205l-54 -39q-136 182 -374 182t-435 -192q-119 -119 -187 -296t-69 -357q0 -231 124 -371q125 -140 321 -139q196 0 348 98l133 525h-409l16 65h475l-160 -629
q-188 -121 -409 -121zM971 1563q-102 0 -157 47q-54 47 -44 131h53q4 -117 156 -117t213 117h57q-31 -84 -103 -131t-175 -47z" />
    <glyph glyph-name="gbreve" unicode="&#x11f;" horiz-adv-x="1134" 
d="M729 1208q-103 0 -155 56t-37 149h51q-4 -67 33 -107t116 -40q145 0 221 147h54q-78 -205 -283 -205zM465 127q166 0 299 133q74 74 120 184t46 234q0 123 -86 226q-86 104 -235 104t-269 -121q-80 -80 -126 -198q-46 -117 -46 -249t85 -222t212 -91zM393 -309
q-106 0 -216 39t-189 106l39 51q158 -135 354 -135t301 105q80 76 127 264l45 182q-166 -236 -399 -235q-152 0 -253 105q-102 105 -102 255t52 280t139 218q145 141 325 141q148 0 236 -90t113 -211l69 281h64l-228 -934q-49 -203 -143 -295q-127 -127 -334 -127z" />
    <glyph glyph-name="Gdotaccent" unicode="&#x120;" horiz-adv-x="1343" 
d="M670 -23q-221 0 -364 156q-142 156 -142 414q0 193 73 379t201 315q212 215 484 215t428 -205l-54 -39q-136 182 -374 182t-435 -192q-119 -119 -187 -296t-69 -357q0 -231 124 -371q125 -140 321 -139q196 0 348 98l133 525h-409l16 65h475l-160 -629
q-188 -121 -409 -121zM924 1585l28 117h99l-29 -117h-98z" />
    <glyph glyph-name="gdotaccent" unicode="&#x121;" horiz-adv-x="1134" 
d="M686 1229l33 119h88l-31 -119h-90zM465 127q166 0 299 133q74 74 120 184t46 234q0 123 -86 226q-86 104 -235 104t-269 -121q-80 -80 -126 -198q-46 -117 -46 -249t85 -222t212 -91zM393 -309q-106 0 -216 39t-189 106l39 51q158 -135 354 -135t301 105q80 76 127 264
l45 182q-166 -236 -399 -235q-152 0 -253 105q-102 105 -102 255t52 280t139 218q145 141 325 141q148 0 236 -90t113 -211l69 281h64l-228 -934q-49 -203 -143 -295q-127 -127 -334 -127z" />
    <glyph glyph-name="Gcommaaccent" unicode="&#x122;" horiz-adv-x="1343" 
d="M670 -23q-221 0 -364 156q-142 156 -142 414q0 193 73 379t201 315q212 215 484 215t428 -205l-54 -39q-136 182 -374 182t-435 -192q-119 -119 -187 -296t-69 -357q0 -231 124 -371q125 -140 321 -139q196 0 348 98l133 525h-409l16 65h475l-160 -629
q-188 -121 -409 -121zM449 -397l-7 35q43 16 64 38q20 23 29 66h-41l28 113h94l-24 -95q-18 -74 -50 -106t-93 -51z" />
    <glyph glyph-name="gcommaaccent" unicode="&#x123;" horiz-adv-x="1134" 
d="M465 127q166 0 299 133q74 74 120 184t46 234q0 123 -86 226q-86 104 -235 104t-269 -121q-80 -80 -126 -198q-46 -117 -46 -249t85 -222t212 -91zM393 -309q-106 0 -216 39t-189 106l39 51q158 -135 354 -135t301 105q80 76 127 264l45 182q-166 -236 -399 -235
q-152 0 -253 105q-102 105 -102 255t52 280t139 218q145 141 325 141q148 0 236 -90t113 -211l69 281h64l-228 -934q-49 -203 -143 -295q-127 -127 -334 -127zM844 1479l6 -35q-44 -16 -64 -39t-28 -66h41l-29 -112h-94l24 94q18 74 50 107t94 51z" />
    <glyph glyph-name="Hbar" unicode="&#x126;" horiz-adv-x="1331" 
d="M311 750h822l81 344h-819zM186 1094l17 57h139l70 283h67l-69 -283h819l69 283h68l-70 -283h140l-17 -57h-137l-266 -1094h-68l168 688h-819l-168 -688h-68l267 1094h-142z" />
    <glyph glyph-name="hbar" unicode="&#x127;" horiz-adv-x="1075" 
d="M674 1067q135 0 214 -78t79 -215q0 -78 -27 -186l-141 -588h-64l142 590q25 92 25 192t-63 163t-189 63t-240 -108t-158 -279l-152 -621h-63l307 1257h-127l12 56h129l41 166h64l-41 -166h328l-15 -56h-327l-105 -426q139 236 371 236z" />
    <glyph glyph-name="Imacron" unicode="&#x12a;" horiz-adv-x="462" 
d="M242 1593l14 64h514l-14 -64h-514zM72 0l350 1434h67l-350 -1434h-67z" />
    <glyph glyph-name="imacron" unicode="&#x12b;" horiz-adv-x="417" 
d="M143 1247l15 60h491l-14 -60h-492zM49 0l254 1047h64l-254 -1047h-64z" />
    <glyph glyph-name="Ibreve" unicode="&#x12c;" horiz-adv-x="462" 
d="M492 1550q-102 0 -157 47q-54 47 -44 132h53q4 -117 156 -117t213 117h57q-31 -84 -103 -132q-73 -47 -175 -47zM72 0l350 1434h67l-350 -1434h-67z" />
    <glyph glyph-name="ibreve" unicode="&#x12d;" horiz-adv-x="417" 
d="M383 1206q-103 0 -155 56t-38 149h52q-4 -67 32 -107t117 -40q145 0 221 147h54q-78 -205 -283 -205zM49 0l254 1047h64l-254 -1047h-64z" />
    <glyph glyph-name="Iogonek" unicode="&#x12e;" horiz-adv-x="466" 
d="M-76 -184q0 82 148 188l350 1430h67l-350 -1434h-8q-141 -108 -141 -174t125 -74l-13 -47q-2 -2 -6 -2q-82 2 -127 33t-45 80z" />
    <glyph glyph-name="iogonek" unicode="&#x12f;" horiz-adv-x="417" 
d="M362 1317l31 127h82l-33 -127h-80zM-100 -184q0 84 149 188l256 1043h64l-256 -1047h-7q-141 -108 -141 -174t125 -74l-12 -47q-2 -2 -6 -2q-82 2 -127 33t-45 80z" />
    <glyph glyph-name="Idotaccent" unicode="&#x130;" horiz-adv-x="462" 
d="M442 1573l29 117h98l-28 -117h-99zM72 0l350 1434h67l-350 -1434h-67z" />
    <glyph glyph-name="dotlessi" unicode="&#x131;" horiz-adv-x="417" 
d="M49 0l254 1047h64l-254 -1047h-64z" />
    <glyph glyph-name="Kcommaaccent" unicode="&#x136;" horiz-adv-x="1220" 
d="M57 0l351 1434h67l-229 -926l1009 926h93l-686 -625l362 -809h-74l-342 762l-385 -350l-98 -412h-68zM350 -389l-6 35q43 16 64 39q20 23 28 65h-41l29 113h94l-24 -94q-18 -74 -50 -107t-94 -51z" />
    <glyph glyph-name="kcommaaccent" unicode="&#x137;" horiz-adv-x="954" 
d="M37 0l362 1479h64l-270 -1102l720 670h86l-493 -453l256 -594h-70l-235 547l-285 -258l-72 -289h-63zM209 -391l-6 35q43 16 63 39t29 65h-41l29 113h94l-25 -94q-18 -74 -50 -107t-93 -51z" />
    <glyph glyph-name="Lacute" unicode="&#x139;" horiz-adv-x="1009" 
d="M57 0l351 1434h67l-336 -1373h709l-14 -61h-777zM453 1550l227 215l72 -36l-240 -179h-59z" />
    <glyph glyph-name="lacute" unicode="&#x13a;" horiz-adv-x="417" 
d="M49 0l363 1479h63l-362 -1479h-64zM438 1579l228 215l71 -37l-239 -178h-60z" />
    <glyph glyph-name="Lcommaaccent" unicode="&#x13b;" horiz-adv-x="1009" 
d="M57 0l351 1434h67l-336 -1373h709l-14 -61h-777zM272 -395l-6 35q43 16 64 38q20 23 28 66h-41l29 113h94l-24 -95q-18 -74 -50 -106t-94 -51z" />
    <glyph glyph-name="lcommaaccent" unicode="&#x13c;" horiz-adv-x="417" 
d="M49 0l363 1479h63l-362 -1479h-64zM-66 -395l-6 35q43 16 64 38q20 23 28 66h-40l28 113h94l-24 -95q-18 -74 -50 -106t-94 -51z" />
    <glyph glyph-name="Lcaron" unicode="&#x13d;" horiz-adv-x="1009" 
d="M57 0l351 1434h67l-336 -1373h709l-14 -61h-777zM745 1434v-4l-139 -302h-35l103 306h71z" />
    <glyph glyph-name="lcaron" unicode="&#x13e;" horiz-adv-x="417" 
d="M49 0l363 1479h63l-362 -1479h-64zM698 1479v-4l-139 -301h-35l103 305h71z" />
    <glyph glyph-name="Ldot" unicode="&#x13f;" horiz-adv-x="1021" 
d="M57 0l351 1434h67l-336 -1373h709l-14 -61h-777zM748 664l30 127h90l-32 -127h-88z" />
    <glyph glyph-name="ldot" unicode="&#x140;" horiz-adv-x="473" 
d="M49 0l363 1479h63l-362 -1479h-64zM434 672l31 129h88l-31 -129h-88z" />
    <glyph glyph-name="Lslash" unicode="&#x141;" horiz-adv-x="1064" 
d="M98 588l17 67l168 60l176 719h67l-170 -693l428 154l-14 -66l-430 -155l-150 -613h709l-14 -61h-776l157 647z" />
    <glyph glyph-name="lslash" unicode="&#x142;" horiz-adv-x="491" 
d="M96 639l17 68l161 61l175 711h63l-168 -682l164 63l-16 -67l-164 -64l-178 -729h-64l172 700z" />
    <glyph glyph-name="Nacute" unicode="&#x143;" horiz-adv-x="1368" 
d="M57 0l351 1434h63l549 -1313l323 1313h64l-350 -1434h-56l-555 1327l-323 -1327h-66zM891 1540l227 215l72 -37l-240 -178h-59z" />
    <glyph glyph-name="nacute" unicode="&#x144;" horiz-adv-x="1077" 
d="M674 1067q135 0 214 -78t79 -215q0 -78 -27 -186l-141 -588h-64l142 590q25 92 25 192t-63 163t-189 63t-240 -108t-158 -279l-152 -621h-63l254 1047h63l-51 -216q139 236 371 236zM655 1206l226 248l73 -37l-243 -211h-56z" />
    <glyph glyph-name="Ncommaaccent" unicode="&#x145;" horiz-adv-x="1368" 
d="M57 0l351 1434h63l549 -1313l323 1313h64l-350 -1434h-56l-555 1327l-323 -1327h-66zM408 -389l-7 35q43 16 64 39q20 23 29 65h-41l28 113h94l-24 -94q-18 -74 -50 -107t-93 -51z" />
    <glyph glyph-name="ncommaaccent" unicode="&#x146;" horiz-adv-x="1077" 
d="M674 1067q135 0 214 -78t79 -215q0 -78 -27 -186l-141 -588h-64l142 590q25 92 25 192t-63 163t-189 63t-240 -108t-158 -279l-152 -621h-63l254 1047h63l-51 -216q139 236 371 236zM252 -391l-6 35q43 16 63 39t29 65h-41l29 113h94l-25 -94q-18 -74 -50 -107t-93 -51z
" />
    <glyph glyph-name="Ncaron" unicode="&#x147;" horiz-adv-x="1368" 
d="M57 0l351 1434h63l549 -1313l323 1313h64l-350 -1434h-56l-555 1327l-323 -1327h-66zM1208 1747l-241 -205h-58l-143 205h59l125 -139l191 139h67z" />
    <glyph glyph-name="ncaron" unicode="&#x148;" horiz-adv-x="1077" 
d="M674 1067q135 0 214 -78t79 -215q0 -78 -27 -186l-141 -588h-64l142 590q25 92 25 192t-63 163t-189 63t-240 -108t-158 -279l-152 -621h-63l254 1047h63l-51 -216q139 236 371 236zM664 1210l-127 242h51l110 -168l199 168h59l-245 -242h-47z" />
    <glyph glyph-name="Omacron" unicode="&#x14c;" horiz-adv-x="1439" 
d="M231 524q0 -206 118 -346t323 -139q205 0 375 170q121 121 190 309q70 188 70 392t-120 344t-323 140t-375 -171q-119 -119 -189 -307q-70 -186 -69 -392zM866 1456q234 0 371 -157t137 -410q0 -195 -75 -393t-203 -328q-196 -190 -428 -190t-368 156q-136 157 -136 409
q0 197 74 395t202 326q192 192 426 192zM713 1606l14 63h514l-14 -63h-514z" />
    <glyph glyph-name="omacron" unicode="&#x14d;" horiz-adv-x="1097" 
d="M152 390q0 -148 88 -250t240 -101q152 0 280 127q84 86 134 214t50 276t-87 250t-241 102t-280 -129q-84 -84 -134 -212q-50 -129 -50 -277zM618 1067q181 0 287 -118q107 -119 107 -285q1 -334 -203 -537q-147 -147 -329 -147t-290 117q-106 118 -106 306q0 145 54 283
t151 234q148 147 329 147zM471 1249l14 60h492l-14 -60h-492z" />
    <glyph glyph-name="Obreve" unicode="&#x14e;" horiz-adv-x="1439" 
d="M231 524q0 -206 118 -346t323 -139q205 0 375 170q121 121 190 309q70 188 70 392t-120 344t-323 140t-375 -171q-119 -119 -189 -307q-70 -186 -69 -392zM866 1456q234 0 371 -157t137 -410q0 -195 -75 -393t-203 -328q-196 -190 -428 -190t-368 156q-136 157 -136 409
q0 197 74 395t202 326q192 192 426 192zM963 1563q-102 0 -157 47q-54 47 -44 131h53q4 -117 156 -117t213 117h57q-31 -84 -103 -131t-175 -47z" />
    <glyph glyph-name="obreve" unicode="&#x14f;" horiz-adv-x="1097" 
d="M709 1208q-103 0 -155 56t-38 149h51q-4 -67 33 -107t117 -40q145 0 221 147h53q-77 -205 -282 -205zM152 390q0 -148 88 -250t240 -101q152 0 280 127q84 86 134 214t50 276t-87 250t-241 102t-280 -129q-84 -84 -134 -212q-50 -129 -50 -277zM618 1067q181 0 287 -118
q107 -119 107 -285q1 -334 -203 -537q-147 -147 -329 -147t-290 117q-106 118 -106 306q0 145 54 283t151 234q148 147 329 147z" />
    <glyph glyph-name="Ohungarumlaut" unicode="&#x150;" horiz-adv-x="1439" 
d="M1014 1563l227 215l70 -37l-238 -178h-59zM782 1563l230 215l71 -37l-239 -178h-62zM231 524q0 -206 118 -346t323 -139q205 0 375 170q121 121 190 309q70 188 70 392t-120 344t-323 140t-375 -171q-119 -119 -189 -307q-70 -186 -69 -392zM866 1456q234 0 371 -157
t137 -410q0 -195 -75 -393t-203 -328q-196 -190 -428 -190t-368 156q-136 157 -136 409q0 197 74 395t202 326q192 192 426 192z" />
    <glyph glyph-name="ohungarumlaut" unicode="&#x151;" horiz-adv-x="1097" 
d="M152 390q0 -148 88 -250t240 -101q152 0 280 127q84 86 134 214t50 276t-87 250t-241 102t-280 -129q-84 -84 -134 -212q-50 -129 -50 -277zM618 1067q181 0 287 -118q107 -119 107 -285q1 -334 -203 -537q-147 -147 -329 -147t-290 117q-106 118 -106 306q0 145 54 283
t151 234q148 147 329 147zM772 1206l225 248l66 -37l-240 -211h-51zM537 1206l223 248l65 -37l-239 -211h-49z" />
    <glyph glyph-name="OE" unicode="&#x152;" horiz-adv-x="1982" 
d="M1006 1372q-338 0 -553 -215q-107 -106 -165 -267t-59 -321q0 -229 135 -368t408 -140h162l319 1311h-247zM774 0q-303 0 -469 162q-145 150 -145 405q0 170 62 342t181 291q233 233 613 234h1071l-16 -62h-748l-152 -618h678l-16 -64h-676l-156 -629h758l-14 -61h-971z
" />
    <glyph glyph-name="oe" unicode="&#x153;" horiz-adv-x="1857" 
d="M1712 692q0 139 -66 228q-67 88 -207 88t-265 -123t-173 -326h695q16 86 16 133zM152 390q0 -150 86 -250t240 -101q154 0 282 129q84 84 134 212t50 276t-87 250t-241 102t-280 -129q-84 -84 -134 -212q-50 -127 -50 -277zM983 397q0 -168 89 -262t245 -94t295 113
l30 -54q-154 -120 -322 -120t-269 90q-102 90 -123 249q-62 -145 -186 -242t-286 -97t-267 117q-105 118 -105 306q0 143 54 281t151 236q147 147 338 147q154 0 252 -95t116 -253q66 147 185 247q118 100 274 101q156 0 240 -104t84 -269q-4 -100 -31 -194h-758
q-6 -53 -6 -103z" />
    <glyph glyph-name="Racute" unicode="&#x154;" horiz-adv-x="1251" 
d="M772 1550l227 215l72 -36l-240 -179h-59zM627 666q297 0 434 137q106 106 106 272q0 125 -71 197q-100 100 -310 100h-325l-172 -706h338zM606 606h-334l-147 -606h-68l351 1434h387q238 0 348 -115q92 -92 92 -240q0 -188 -123 -312t-369 -155l275 -612h-76l-268 608
q-23 -2 -68 -2z" />
    <glyph glyph-name="racute" unicode="&#x155;" horiz-adv-x="643" 
d="M709 995q-143 0 -285 -121t-186 -309l-138 -565h-63l254 1047h63l-63 -265q82 133 197 209q116 76 241 72l-16 -68h-4zM461 1204l225 248l74 -37l-244 -211h-55z" />
    <glyph glyph-name="Rcommaaccent" unicode="&#x156;" horiz-adv-x="1251" 
d="M307 -389l-6 35q43 16 64 39q20 23 28 65h-41l29 113h94l-24 -94q-19 -74 -51 -107t-93 -51zM627 666q297 0 434 137q106 106 106 272q0 125 -71 197q-100 100 -310 100h-325l-172 -706h338zM606 606h-334l-147 -606h-68l351 1434h387q238 0 348 -115q92 -92 92 -240
q0 -188 -123 -312t-369 -155l275 -612h-76l-268 608q-23 -2 -68 -2z" />
    <glyph glyph-name="rcommaaccent" unicode="&#x157;" horiz-adv-x="643" 
d="M709 995q-143 0 -285 -121t-186 -309l-138 -565h-63l254 1047h63l-63 -265q82 133 197 209q116 76 241 72l-16 -68h-4zM-66 -395l-6 35q43 16 64 38q20 23 28 66h-40l28 113h94l-24 -95q-18 -74 -50 -106t-94 -51z" />
    <glyph glyph-name="Rcaron" unicode="&#x158;" horiz-adv-x="1251" 
d="M1092 1757l-242 -205h-57l-144 205h60l125 -139l190 139h68zM627 666q297 0 434 137q106 106 106 272q0 125 -71 197q-100 100 -310 100h-325l-172 -706h338zM606 606h-334l-147 -606h-68l351 1434h387q238 0 348 -115q92 -92 92 -240q0 -188 -123 -312t-369 -155
l275 -612h-76l-268 608q-23 -2 -68 -2z" />
    <glyph glyph-name="rcaron" unicode="&#x159;" horiz-adv-x="643" 
d="M709 995q-143 0 -285 -121t-186 -309l-138 -565h-63l254 1047h63l-63 -265q82 133 197 209q116 76 241 72l-16 -68h-4zM469 1208l-127 242h51l111 -168l198 168h60l-246 -242h-47z" />
    <glyph glyph-name="Sacute" unicode="&#x15a;" horiz-adv-x="1101" 
d="M739 1563l228 215l71 -37l-239 -178h-60zM508 -18q-299 0 -483 254l53 40q172 -233 436 -233q160 0 262 94t102 212t-67 191q-69 73 -225 169t-232 178q-76 81 -76 211t103 229q121 125 321 125q250 0 422 -203l-51 -45q-158 186 -375 187q-156 -1 -254 -91t-98 -198
t68 -178t224 -166t234 -182q76 -86 76 -222t-110 -248q-129 -124 -330 -124z" />
    <glyph glyph-name="sacute" unicode="&#x15b;" horiz-adv-x="856" 
d="M692 252q0 -102 -93 -186q-93 -82 -215 -82q-236 0 -386 180l49 45q147 -166 324 -166q109 0 183 66q74 67 73 145q0 78 -48 131t-170 124t-178 133q-55 62 -55 164t89 180t231 77q186 0 323 -156l-49 -45q-129 141 -278 142q-111 0 -180 -60q-68 -60 -68 -137
q0 -76 48 -129t169 -122q121 -70 176 -136t55 -168zM532 1206l226 248l73 -37l-243 -211h-56z" />
    <glyph glyph-name="Scedilla" unicode="&#x15e;" horiz-adv-x="1107" 
d="M514 43q160 0 262 94t102 212t-67 191q-69 73 -225 169t-232 178q-76 81 -76 211t103 229q121 125 321 125q250 0 422 -203l-51 -45q-158 186 -375 187q-156 -1 -254 -91t-98 -198t68 -178t224 -166t234 -182q76 -86 76 -222t-110 -248q-129 -125 -330 -124q-25 0 -35 2
l-184 -252l-64 32l197 224q-246 35 -397 248l53 40q172 -233 436 -233z" />
    <glyph glyph-name="scedilla" unicode="&#x15f;" horiz-adv-x="858" 
d="M371 43q109 0 183 66q74 67 73 145q0 78 -48 131t-170 124t-178 133q-55 62 -55 164t89 180t231 77q186 0 323 -156l-49 -45q-129 141 -278 142q-111 0 -180 -60q-68 -60 -68 -137q0 -76 48 -129t169 -122q121 -70 176 -136t55 -168t-93 -186q-93 -82 -234 -82
q-23 0 -33 2l-185 -254l-63 32l199 228q-170 31 -285 172l49 45q147 -166 324 -166z" />
    <glyph glyph-name="Scaron" unicode="&#x160;" horiz-adv-x="1101" 
d="M1057 1769l-242 -204h-57l-144 204h60l125 -139l190 139h68zM508 -18q-299 0 -483 254l53 40q172 -233 436 -233q160 0 262 94t102 212t-67 191q-69 73 -225 169t-232 178q-76 81 -76 211t103 229q121 125 321 125q250 0 422 -203l-51 -45q-158 186 -375 187
q-156 -1 -254 -91t-98 -198t68 -178t224 -166t234 -182q76 -86 76 -222t-110 -248q-129 -124 -330 -124z" />
    <glyph glyph-name="scaron" unicode="&#x161;" horiz-adv-x="856" 
d="M692 252q0 -102 -93 -186q-93 -82 -215 -82q-236 0 -386 180l49 45q147 -166 324 -166q109 0 183 66q74 67 73 145q0 78 -48 131t-170 124t-178 133q-55 62 -55 164t89 180t231 77q186 0 323 -156l-49 -45q-129 141 -278 142q-111 0 -180 -60q-68 -60 -68 -137
q0 -76 48 -129t169 -122q121 -70 176 -136t55 -168zM543 1210l-127 242h51l111 -168l198 168h60l-246 -242h-47z" />
    <glyph glyph-name="Tcommaaccent" unicode="&#x162;" horiz-adv-x="1019" 
d="M342 0l334 1372h-424l16 62h918l-17 -62h-424l-335 -1372h-68zM229 -395l-6 35q43 16 64 38q20 23 28 66h-41l29 113h94l-24 -95q-19 -74 -51 -106t-93 -51z" />
    <glyph glyph-name="tcommaaccent" unicode="&#x163;" horiz-adv-x="665" 
d="M322 -14q-80 0 -135 44q-54 44 -54 128q0 39 17 104l174 725h-138l15 60h137l82 331h63l-80 -331h304l-15 -60h-305l-176 -731q-12 -49 -12 -90q0 -121 147 -121q57 0 125 29l-14 -66q-55 -22 -135 -22zM113 -397l-7 35q43 16 64 38q20 23 29 66h-41l28 113h95l-25 -95
q-18 -74 -50 -106t-93 -51z" />
    <glyph glyph-name="Tcaron" unicode="&#x164;" horiz-adv-x="1019" 
d="M342 0l334 1372h-424l16 62h918l-17 -62h-424l-335 -1372h-68zM1032 1757l-241 -205h-58l-143 205h59l125 -139l191 139h67z" />
    <glyph glyph-name="tcaron" unicode="&#x165;" horiz-adv-x="665" 
d="M322 -14q-80 0 -135 44q-54 44 -54 128q0 39 17 104l174 725h-138l15 60h137l82 331h63l-80 -331h304l-15 -60h-305l-176 -731q-12 -49 -12 -90q0 -121 147 -121q57 0 125 29l-14 -66q-55 -22 -135 -22zM780 1479v-4l-139 -301h-35l103 305h71z" />
    <glyph glyph-name="Umacron" unicode="&#x16a;" horiz-adv-x="1318" 
d="M598 -20q-207 0 -324 103t-116 292q0 96 30 225l201 834h68l-207 -852q-27 -109 -27 -201q-1 -162 99 -251t278 -89t305 128t187 370l215 895h67l-219 -910q-66 -260 -199 -395q-151 -149 -358 -149zM647 1583l15 64h514l-15 -64h-514z" />
    <glyph glyph-name="umacron" unicode="&#x16b;" horiz-adv-x="1075" 
d="M449 1241l14 59h491l-14 -59h-491zM401 -20q-135 0 -214 76t-78 216q0 66 28 187l142 588h63l-143 -590q-25 -104 -25 -200t62 -158t189 -62q126 -1 242 107t158 280l150 623h65l-256 -1047h-63l53 215q-140 -235 -373 -235z" />
    <glyph glyph-name="Ubreve" unicode="&#x16c;" horiz-adv-x="1318" 
d="M598 -20q-207 0 -324 103t-116 292q0 96 30 225l201 834h68l-207 -852q-27 -109 -27 -201q-1 -162 99 -251t278 -89t305 128t187 370l215 895h67l-219 -910q-66 -260 -199 -395q-151 -149 -358 -149zM897 1540q-102 0 -157 47q-54 47 -44 131h54q4 -116 156 -116t212 116
h58q-31 -84 -104 -131t-175 -47z" />
    <glyph glyph-name="ubreve" unicode="&#x16d;" horiz-adv-x="1075" 
d="M688 1200q-102 0 -154 55t-38 150h51q-4 -68 33 -108t116 -40q145 0 222 148h53q-78 -205 -283 -205zM401 -20q-135 0 -214 76t-78 216q0 66 28 187l142 588h63l-143 -590q-25 -104 -25 -200t62 -158t189 -62q126 -1 242 107t158 280l150 623h65l-256 -1047h-63l53 215
q-140 -235 -373 -235z" />
    <glyph glyph-name="Uring" unicode="&#x16e;" horiz-adv-x="1318" 
d="M920 1565q61 0 108 41t47 97t-34 88t-95 32t-109 -42q-49 -43 -49 -97t35 -87q36 -32 97 -32zM737 1682q1 74 65 130q64 54 147 54t131 -43t48 -118t-66 -130t-147 -55q-82 0 -130 44t-48 118zM598 -20q-207 0 -324 103t-116 292q0 96 30 225l201 834h68l-207 -852
q-27 -109 -27 -201q-1 -162 99 -251t278 -89t305 128t187 370l215 895h67l-219 -910q-66 -260 -199 -395q-151 -149 -358 -149z" />
    <glyph glyph-name="uring" unicode="&#x16f;" horiz-adv-x="1075" 
d="M401 -20q-135 0 -214 76t-78 216q0 66 28 187l142 588h63l-143 -590q-25 -104 -25 -200t62 -158t189 -62q126 -1 242 107t158 280l150 623h65l-256 -1047h-63l53 215q-140 -235 -373 -235zM586 1363q0 -58 35 -94t94 -36t105 45t46 103q0 59 -35 95t-94 36t-105 -46
q-46 -45 -46 -103zM739 1554q78 0 126 -46t48 -124q0 -76 -60 -134t-139 -58t-127 47t-48 123t61 134t139 58z" />
    <glyph glyph-name="Uhungarumlaut" unicode="&#x170;" horiz-adv-x="1318" 
d="M946 1540l228 215l69 -37l-237 -178h-60zM715 1540l229 215l72 -37l-240 -178h-61zM598 -20q-207 0 -324 103t-116 292q0 96 30 225l201 834h68l-207 -852q-27 -109 -27 -201q-1 -162 99 -251t278 -89t305 128t187 370l215 895h67l-219 -910q-66 -260 -199 -395
q-151 -149 -358 -149z" />
    <glyph glyph-name="uhungarumlaut" unicode="&#x171;" horiz-adv-x="1075" 
d="M750 1198l225 248l65 -37l-239 -211h-51zM514 1198l223 248l66 -37l-240 -211h-49zM401 -20q-135 0 -214 76t-78 216q0 66 28 187l142 588h63l-143 -590q-25 -104 -25 -200t62 -158t189 -62q126 -1 242 107t158 280l150 623h65l-256 -1047h-63l53 215
q-140 -235 -373 -235z" />
    <glyph glyph-name="Uogonek" unicode="&#x172;" horiz-adv-x="1318" 
d="M588 -20h-27q-115 -90 -115 -155t125 -73l-12 -47q-2 -2 -6 -2q-82 2 -127 33t-45 80q0 76 121 170q-160 20 -252 122t-92 267q0 96 30 225l201 834h68l-207 -852q-27 -109 -27 -201q-1 -162 99 -251t278 -89t305 128t187 370l215 895h67l-219 -910q-66 -260 -199 -395
q-151 -149 -368 -149z" />
    <glyph glyph-name="uogonek" unicode="&#x173;" horiz-adv-x="1075" 
d="M401 -20q-135 0 -214 76t-78 216q0 66 28 187l142 588h63l-143 -590q-25 -104 -25 -200t62 -158t189 -62q126 -1 242 107t158 280l150 623h65l-256 -1047h-10q-141 -108 -141 -174t125 -74l-13 -47q-2 -2 -6 -2q-82 2 -127 33t-45 80q0 88 156 192l51 207
q-140 -235 -373 -235z" />
    <glyph glyph-name="Wcircumflex" unicode="&#x174;" horiz-adv-x="1873" 
d="M944 1552l242 205h57l141 -205h-59l-121 142l-192 -142h-68zM371 -10l-76 1444h67l64 -1330l696 1334h56l59 -1334l702 1330h74l-772 -1444h-57l-62 1317l-694 -1317h-57z" />
    <glyph glyph-name="wcircumflex" unicode="&#x175;" horiz-adv-x="1462" 
d="M260 -8l-61 1055h63l47 -949l512 951h53l48 -951l505 949h70l-571 -1055h-58l-47 938l-508 -938h-53zM666 1208l245 242h47l127 -242h-51l-112 170l-199 -170h-57z" />
    <glyph glyph-name="Ycircumflex" unicode="&#x176;" horiz-adv-x="1155" 
d="M571 1542l242 205h57l142 -205h-60l-121 141l-192 -141h-68zM408 0l147 602l-301 832h70l278 -772l655 772h86l-722 -844l-144 -590h-69z" />
    <glyph glyph-name="ycircumflex" unicode="&#x177;" horiz-adv-x="1005" 
d="M418 1202l246 242h47l127 -242h-52l-112 170l-199 -170h-57zM46 -254q72 0 138 55q68 55 162 205l-164 1041h68l145 -965l580 965h74l-639 -1047q-113 -182 -194 -248t-177 -66t-168 60l37 51q66 -51 138 -51z" />
    <glyph glyph-name="Ydieresis" unicode="&#x178;" horiz-adv-x="1155" 
d="M895 1563l29 116h96l-29 -116h-96zM623 1563l28 116h97l-29 -116h-96zM408 0l147 602l-301 832h70l278 -772l655 772h86l-722 -844l-144 -590h-69z" />
    <glyph glyph-name="Zacute" unicode="&#x179;" horiz-adv-x="1140" 
d="M748 1550l227 215l72 -36l-240 -179h-59zM-27 0l11 41l1155 1331h-807l16 62h899l-8 -43l-1159 -1330h838l-15 -61h-930z" />
    <glyph glyph-name="zacute" unicode="&#x17a;" horiz-adv-x="882" 
d="M-47 0l6 39l862 950h-612l14 58h701l-6 -39l-863 -951h639l-14 -57h-727zM541 1204l225 248l74 -37l-244 -211h-55z" />
    <glyph glyph-name="Zdotaccent" unicode="&#x17b;" horiz-adv-x="1140" 
d="M-27 0l11 41l1155 1331h-807l16 62h899l-8 -43l-1159 -1330h838l-15 -61h-930zM743 1573l29 117h98l-28 -117h-99z" />
    <glyph glyph-name="zdotaccent" unicode="&#x17c;" horiz-adv-x="882" 
d="M541 1227l32 119h89l-31 -119h-90zM-47 0l6 39l862 950h-612l14 58h701l-6 -39l-863 -951h639l-14 -57h-727z" />
    <glyph glyph-name="Zcaron" unicode="&#x17d;" horiz-adv-x="1140" 
d="M-27 0l11 41l1155 1331h-807l16 62h899l-8 -43l-1159 -1330h838l-15 -61h-930zM1065 1757l-242 -205h-57l-143 205h59l125 -139l190 139h68z" />
    <glyph glyph-name="zcaron" unicode="&#x17e;" horiz-adv-x="882" 
d="M-47 0l6 39l862 950h-612l14 58h701l-6 -39l-863 -951h639l-14 -57h-727zM551 1208l-127 242h51l111 -168l198 168h60l-246 -242h-47z" />
    <glyph glyph-name="Aringacute" unicode="&#x1fa;" horiz-adv-x="1327" 
d="M944 1772l213 184l70 -37l-221 -147h-62zM907 1413q61 0 109 42q47 42 47 97t-35 87t-96 32q-60 0 -108 -42t-48 -98t35 -87t96 -31zM326 479h678l-123 875zM723 1524q0 82 65 136q66 54 148 54t130 -44t48 -112t-50 -121q-50 -52 -124 -65l199 -1372h-68l-57 418h-727
l-264 -418h-76l878 1380q-102 35 -102 144z" />
    <glyph glyph-name="aringacute" unicode="&#x1fb;" horiz-adv-x="1005" 
d="M559 1379q0 -58 35 -94t94 -36t106 45q46 46 46 104t-35 94t-94 36t-106 -45q-46 -46 -46 -104zM887 1400q-1 -77 -61 -134q-60 -58 -139 -58t-127 47t-48 123t61 134t139 58t127 -46q48 -47 48 -124zM340 37q150 0 266 104t154 258l31 123q-164 60 -335 60t-261 -90
q-91 -90 -91 -212t67 -182t169 -61zM328 -20q-121 0 -206 74t-85 222q1 148 109 256t298 107q190 0 359 -61l12 51q18 88 19 137q0 111 -76 172t-205 61t-260 -51l-17 60q137 53 286 53t242 -76t93 -213q0 -66 -23 -151l-149 -621h-63l49 201q-143 -221 -383 -221zM727 1640
l213 201l68 -37l-228 -164h-53z" />
    <glyph glyph-name="AEacute" unicode="&#x1fc;" horiz-adv-x="1783" 
d="M348 479h490l219 893h-31zM-96 0l1093 1434h893l-16 -62h-750l-151 -618h678l-15 -64h-678l-153 -629h758l-15 -61h-825l100 418h-522l-317 -418h-80zM1221 1550l227 215l72 -36l-240 -179h-59z" />
    <glyph glyph-name="aeacute" unicode="&#x1fd;" horiz-adv-x="1714" 
d="M944 1204l225 248l74 -37l-244 -211h-55zM1293 1008q-142 0 -265 -123t-170 -326h694q16 86 17 133q0 140 -67 228t-209 88zM346 37q250 0 438 285q-12 90 7 198q-166 62 -336 62t-260 -90q-91 -90 -91 -210q0 -122 69 -184t173 -61zM1184 -20q-158 0 -254 70t-131 200
q-195 -270 -461 -270q-129 0 -215 74t-86 224q1 148 109 254t298 107q190 0 359 -61l12 51q18 88 19 137q0 111 -76 172t-205 61t-260 -51l-17 60q137 53 282 53t237 -70t96 -198q69 121 179 197t235 77q159 0 243 -104t84 -269q0 -96 -28 -194h-758q-6 -53 -6 -103
q0 -168 89 -262t243 -94t296 111l35 -50q-161 -122 -319 -122z" />
    <glyph glyph-name="Oslashacute" unicode="&#x1fe;" horiz-adv-x="1439" 
d="M918 1563l227 215l72 -37l-240 -178h-59zM657 39q222 0 392 170q117 119 187 309q71 190 71 356t-58 285l-932 -940q118 -180 340 -180zM231 556q0 -171 56 -284l934 940q-121 182 -343 182t-389 -171q-119 -117 -189 -307t-69 -360zM879 1456q248 0 389 -196l190 186h82
l-242 -238q76 -134 76 -324t-75 -388t-203 -328q-190 -190 -440 -190t-386 192l-192 -182h-82l242 235q-74 133 -74 324t74 391t200 326q193 192 441 192z" />
    <glyph glyph-name="oslashacute" unicode="&#x1ff;" horiz-adv-x="1097" 
d="M666 1206l225 248l74 -37l-244 -211h-55zM944 628q0 122 -41 208l-684 -676q88 -121 251 -121t290 127q86 86 135 213t49 249zM625 1008q-164 0 -289 -129q-84 -84 -134 -212t-50 -249t38 -209l684 674q-85 125 -249 125zM625 1067q188 0 297 -137l133 127h78l-181 -174
q60 -105 60 -245t-54 -278t-149 -233q-147 -147 -337 -147t-298 135l-131 -125h-78l178 172q-59 102 -59 244t54 280t151 234q148 147 336 147z" />
    <glyph glyph-name="Scommaaccent" unicode="&#x218;" horiz-adv-x="1101" 
d="M508 -18q-299 0 -483 254l53 40q172 -233 436 -233q160 0 262 94t102 212t-67 191q-69 73 -225 169t-232 178q-76 81 -76 211t103 229q121 125 321 125q250 0 422 -203l-51 -45q-158 186 -375 187q-156 -1 -254 -91t-98 -198t68 -178t224 -166t234 -182q76 -86 76 -222
t-110 -248q-129 -124 -330 -124zM248 -397l-6 35q43 16 63 38t29 66h-41l29 113h94l-25 -95q-18 -74 -50 -106t-93 -51z" />
    <glyph glyph-name="scommaaccent" unicode="&#x219;" horiz-adv-x="856" 
d="M692 252q0 -102 -93 -186q-93 -82 -215 -82q-236 0 -386 180l49 45q147 -166 324 -166q109 0 183 66q74 67 73 145q0 78 -48 131t-170 124t-178 133q-55 62 -55 164t89 180t231 77q186 0 323 -156l-49 -45q-129 141 -278 142q-111 0 -180 -60q-68 -60 -68 -137
q0 -76 48 -129t169 -122q121 -70 176 -136t55 -168zM127 -397l-6 35q43 16 63 38t29 66h-41l29 113h94l-25 -95q-18 -74 -50 -106t-93 -51z" />
    <glyph glyph-name="schwa" unicode="&#x259;" 
d="M415 37q140 0 265 123t170 325h-692q-16 -70 -17 -133q0 -139 67 -227t207 -88zM76 350q0 98 30 195h756q8 43 8 102q0 168 -88 262q-88 95 -244 95t-296 -111l-35 49q160 123 337 123q176 0 284 -111t108 -303q0 -147 -56 -289t-153 -239q-141 -145 -312 -145t-255 104
t-84 268z" />
    <glyph glyph-name="circumflex" unicode="&#x2c6;" 
d="M473 1208l246 242h47l127 -242h-51l-113 170l-199 -170h-57z" />
    <glyph glyph-name="caron" unicode="&#x2c7;" 
d="M657 1208l-127 242h52l110 -168l199 168h59l-245 -242h-48z" />
    <glyph glyph-name="breve" unicode="&#x2d8;" 
d="M686 1206q-102 0 -154 56t-38 149h51q-4 -67 33 -107t116 -40q145 0 221 147h54q-78 -205 -283 -205z" />
    <glyph glyph-name="dotaccent" unicode="&#x2d9;" 
d="M639 1227l33 119h88l-31 -119h-90z" />
    <glyph glyph-name="ring" unicode="&#x2da;" 
d="M737 1528q-59 0 -105 -46t-46 -103q0 -58 35 -94t94 -36t105 45q46 46 46 104t-35 94t-94 36zM913 1400q0 -77 -60 -134q-60 -58 -139 -58t-127 47t-48 123t61 134t139 58t126 -46q48 -47 48 -124z" />
    <glyph glyph-name="ogonek" unicode="&#x2db;" 
d="M256 -184q0 88 170 202l43 -14q-147 -111 -147 -178q-1 -66 124 -74l-12 -47q-2 -2 -6 -2q-82 2 -127 33t-45 80z" />
    <glyph glyph-name="tilde" unicode="&#x2dc;" 
d="M592 1323q-63 0 -113 -113l-45 13q63 164 164 163q41 0 119 -55q63 -49 98 -49q58 0 115 113l43 -13q-66 -164 -164 -163q-45 0 -116 52t-101 52z" />
    <glyph glyph-name="hungarumlaut" unicode="&#x2dd;" 
d="M672 1204l225 248l66 -37l-240 -211h-51zM436 1204l223 248l66 -37l-240 -211h-49z" />
    <glyph glyph-name="commaaccent" unicode="&#x326;" 
d="M233 -395l-6 35q43 16 64 38q20 23 28 66h-40l28 113h94l-24 -95q-19 -74 -51 -106t-93 -51z" />
    <glyph glyph-name="Wgrave" unicode="&#x1e80;" horiz-adv-x="1873" 
d="M371 -10l-76 1444h67l64 -1330l696 1334h56l59 -1334l702 1330h74l-772 -1444h-57l-62 1317l-694 -1317h-57zM1128 1550l-161 179l71 36l136 -215h-46z" />
    <glyph glyph-name="wgrave" unicode="&#x1e81;" horiz-adv-x="1462" 
d="M846 1204l-154 211l76 37l119 -248h-41zM260 -8l-61 1055h63l47 -949l512 951h53l48 -951l505 949h70l-571 -1055h-58l-47 938l-508 -938h-53z" />
    <glyph glyph-name="Wacute" unicode="&#x1e82;" horiz-adv-x="1873" 
d="M371 -10l-76 1444h67l64 -1330l696 1334h56l59 -1334l702 1330h74l-772 -1444h-57l-62 1317l-694 -1317h-57zM1137 1550l227 215l72 -36l-240 -179h-59z" />
    <glyph glyph-name="wacute" unicode="&#x1e83;" horiz-adv-x="1462" 
d="M260 -8l-61 1055h63l47 -949l512 951h53l48 -951l505 949h70l-571 -1055h-58l-47 938l-508 -938h-53zM844 1204l225 248l74 -37l-244 -211h-55z" />
    <glyph glyph-name="Wdieresis" unicode="&#x1e84;" horiz-adv-x="1873" 
d="M371 -10l-76 1444h67l64 -1330l696 1334h56l59 -1334l702 1330h74l-772 -1444h-57l-62 1317l-694 -1317h-57zM1270 1573l28 117h97l-29 -117h-96zM997 1573l29 117h96l-28 -117h-97z" />
    <glyph glyph-name="wdieresis" unicode="&#x1e85;" horiz-adv-x="1462" 
d="M260 -8l-61 1055h63l47 -949l512 951h53l48 -951l505 949h70l-571 -1055h-58l-47 938l-508 -938h-53zM971 1227l28 116h91l-29 -116h-90zM717 1227l28 116h93l-31 -116h-90z" />
    <glyph glyph-name="Ygrave" unicode="&#x1ef2;" horiz-adv-x="1155" 
d="M760 1540l-162 178l72 37l135 -215h-45zM408 0l147 602l-301 832h70l278 -772l655 772h86l-722 -844l-144 -590h-69z" />
    <glyph glyph-name="ygrave" unicode="&#x1ef3;" horiz-adv-x="1005" 
d="M596 1198l-154 211l76 37l119 -248h-41zM46 -254q72 0 138 55q68 55 162 205l-164 1041h68l145 -965l580 965h74l-639 -1047q-113 -182 -194 -248t-177 -66t-168 60l37 51q66 -51 138 -51z" />
    <glyph glyph-name="enspace" unicode="&#x2002;" horiz-adv-x="1024" 
 />
    <glyph glyph-name="emspace" unicode="&#x2003;" horiz-adv-x="2048" 
 />
    <glyph glyph-name="threeperemspace" unicode="&#x2004;" horiz-adv-x="681" 
 />
    <glyph glyph-name="fourperemspace" unicode="&#x2005;" horiz-adv-x="512" 
 />
    <glyph glyph-name="thinspace" unicode="&#x2009;" horiz-adv-x="258" 
 />
    <glyph glyph-name="hairspace" unicode="&#x200a;" horiz-adv-x="143" 
 />
    <glyph glyph-name="endash" unicode="&#x2013;" horiz-adv-x="1003" 
d="M135 575l17 66h753l-14 -66h-756z" />
    <glyph glyph-name="emdash" unicode="&#x2014;" horiz-adv-x="1626" 
d="M135 575l17 66h1376l-17 -66h-1376z" />
    <glyph glyph-name="quoteleft" unicode="&#x2018;" horiz-adv-x="344" 
d="M268 1130l29 121q23 86 56 126q34 40 100 61l12 -35q-88 -33 -113 -141h43l-33 -132h-94z" />
    <glyph glyph-name="quoteright" unicode="&#x2019;" horiz-adv-x="344" 
d="M254 1126l-12 35q92 33 112 139h-43l33 134h94l-28 -121q-20 -87 -55 -127t-101 -60z" />
    <glyph glyph-name="quotesinglbase" unicode="&#x201a;" horiz-adv-x="344" 
d="M-61 -176l-13 37q92 31 113 139h-43l35 133h92l-29 -123q-20 -86 -54 -126t-101 -60z" />
    <glyph glyph-name="quotedblleft" unicode="&#x201c;" horiz-adv-x="585" 
d="M510 1130l29 121q20 86 55 126t100 61l13 -35q-88 -33 -113 -141h43l-33 -132h-94zM268 1130l29 121q20 86 55 126t101 61l10 -35q-86 -31 -111 -141h43l-33 -132h-94z" />
    <glyph glyph-name="quotedblright" unicode="&#x201d;" horiz-adv-x="585" 
d="M496 1126l-13 35q92 33 113 139h-43l33 134h94l-29 -121q-21 -87 -55 -127t-100 -60zM254 1126l-12 35q90 33 110 139h-41l33 134h94l-28 -121q-23 -87 -58 -127t-98 -60z" />
    <glyph glyph-name="quotedblbase" unicode="&#x201e;" horiz-adv-x="585" 
d="M182 -176l-12 37q90 31 111 139h-41l32 133h95l-29 -123q-23 -86 -58 -126t-98 -60zM-61 -176l-13 37q92 31 113 139h-43l35 133h92l-29 -123q-20 -86 -54 -126t-101 -60z" />
    <glyph glyph-name="dagger" unicode="&#x2020;" horiz-adv-x="712" 
d="M305 487l156 600l-232 -14l17 64l223 -13l63 310h70l-90 -310l231 13l-14 -64l-227 14l-133 -600h-64z" />
    <glyph glyph-name="daggerdbl" unicode="&#x2021;" horiz-adv-x="729" 
d="M190 0l91 309l-234 -12l16 63l226 -14l80 371l100 370l-231 -14l16 64l225 -13l62 310h69l-90 -310l232 13l-15 -64l-227 14l-78 -370l-102 -371l233 14l-16 -63l-225 12l-62 -309h-70z" />
    <glyph glyph-name="bullet" unicode="&#x2022;" horiz-adv-x="823" 
d="M246 676q0 126 74 200t157 74q84 0 133 -49t49 -133q0 -125 -81 -207q-70 -65 -153 -65t-131 48t-48 132z" />
    <glyph glyph-name="ellipsis" unicode="&#x2026;" horiz-adv-x="1040" 
d="M692 0l33 133h94l-33 -133h-94zM346 0l31 133h94l-31 -133h-94zM-2 0l33 133h94l-33 -133h-94z" />
    <glyph glyph-name="perthousand" unicode="&#x2030;" horiz-adv-x="2170" 
d="M1735 43q86 1 148 63q128 129 128 318q0 102 -49 164t-135 61q-86 0 -156 -69q-121 -121 -121 -312q0 -100 49 -163q50 -62 136 -62zM1733 -14q-113 0 -180 78t-67 188q0 112 39 206q38 94 99 156q94 94 206 94t178 -78t67 -190q0 -112 -37 -206t-101 -156
q-91 -92 -204 -92zM854 268q0 -100 49 -162t136 -63q87 0 155 72q53 53 86 137t33 179t-48 157q-47 62 -133 61q-86 0 -159 -69q-119 -123 -119 -312zM1036 -14q-112 0 -179 78t-67 188q0 112 38 206q36 94 98 156q98 94 208 94t176 -78t66 -190t-37 -206t-98 -156
q-93 -92 -205 -92zM436 784q86 0 156 70q119 123 119 311q0 101 -48 163q-47 62 -135 62t-155 -71q-55 -53 -88 -137t-33 -179t49 -157t135 -62zM434 725q-114 0 -180 79q-66 78 -66 190t38 206t100 156q92 92 205 92t179 -78t66 -190t-37 -205q-37 -94 -98 -156
q-94 -94 -207 -94zM117 0l1259 1434h74l-1260 -1434h-73z" />
    <glyph glyph-name="guilsinglleft" unicode="&#x2039;" horiz-adv-x="548" 
d="M285 92l-209 424l2 12l416 422l43 -35l-385 -401l182 -397z" />
    <glyph glyph-name="guilsinglright" unicode="&#x203a;" horiz-adv-x="548" 
d="M256 948l209 -424l-2 -12l-416 -422l-43 35l385 401l-182 398z" />
    <glyph glyph-name="Euro" unicode="&#x20ac;" horiz-adv-x="1212" 
d="M901 1452q133 0 227 -68t142 -178l-56 -30q-102 215 -321 215q-174 -1 -304 -131t-202 -332h555l-16 -60h-559q-39 -137 -50 -284h541l-16 -62h-527v-12q1 -215 95 -341t268 -126t326 162l45 -45q-169 -178 -369 -178t-316 139t-116 383v18h-172l16 62h158q10 147 49 284
h-139l14 60h143q76 225 213 362q158 162 371 162z" />
    <glyph glyph-name="published" unicode="&#x2117;" horiz-adv-x="1501" 
d="M721 18q254 0 450 193q117 117 180 288q62 171 62 345q2 242 -141 406t-400 165q-257 0 -450 -192q-117 -117 -179 -287t-63 -346q0 -242 144 -407t397 -165zM870 1458q274 0 433 -176q158 -176 157 -444q0 -180 -66 -356t-188 -298q-209 -209 -483 -209q-274 1 -432 177
t-158 444q0 178 67 354t187 299q209 209 483 209zM879 1051h-140l-92 -377h146q119 0 197 55t79 164q0 158 -190 158zM879 1104q247 0 247 -219q0 -115 -93 -190t-249 -74h-149l-68 -277h-57l186 760h183z" />
    <glyph glyph-name="servicemark" unicode="&#x2120;" horiz-adv-x="1230" 
d="M664 799l161 635h45l119 -377l305 377h56l-162 -635h-47l139 547l-305 -373h-6l-119 370l-141 -544h-45zM365 791q-137 0 -220 116l37 29q76 -104 185 -105q67 0 109 38t42 89q0 74 -121 144q-77 45 -109 82t-32 95t47 110q55 55 158 55t184 -96l-37 -33q-70 86 -164 86
q-63 0 -102 -36t-39 -82t29 -76t94 -68q137 -78 137 -176q0 -68 -47 -115q-61 -57 -151 -57z" />
    <glyph glyph-name="trademark" unicode="&#x2122;" horiz-adv-x="1179" 
d="M614 799l162 635h43l119 -377l305 377h55l-161 -635h-45l139 547l-307 -373h-6l-119 370l-140 -544h-45zM264 799l150 590h-183l15 45h407l-12 -45h-182l-150 -590h-45z" />
    <glyph glyph-name="minus" unicode="&#x2212;" horiz-adv-x="1071" 
d="M160 690l14 62h834l-15 -62h-833z" />
    <glyph glyph-name="Q.alt" horiz-adv-x="1443" 
d="M231 545q0 -227 118 -367q117 -140 307 -139q190 0 343 127l-211 258l52 41l207 -256q119 121 189 310q71 189 71 370q0 225 -120 365t-323 140t-375 -171q-119 -119 -189 -307t-69 -371zM866 1456q234 0 371 -157t137 -410q0 -195 -80 -403t-209 -326l127 -152l-47 -41
l-125 152q-170 -141 -387 -141t-353 156q-136 157 -136 409q0 197 74 395t202 326q192 192 426 192z" />
    <glyph glyph-name="a.alt" horiz-adv-x="1138" 
d="M158 384q0 -149 78 -247t224 -98q144 0 273 129q88 86 141 217q54 131 54 273t-87 245q-87 105 -233 105t-262 -117q-88 -86 -138 -222t-50 -285zM424 -20q-142 0 -238 114t-96 279q0 166 55 313t152 244q137 137 301 137t254 -94t111 -221l73 295h64l-254 -1047h-64
l58 233q-61 -101 -168 -177q-106 -76 -248 -76z" />
    <glyph glyph-name="aacute.alt" horiz-adv-x="1138" 
d="M158 384q0 -149 78 -247t224 -98q144 0 273 129q88 86 141 217q54 131 54 273t-87 245q-87 105 -233 105t-262 -117q-88 -86 -138 -222t-50 -285zM424 -20q-142 0 -238 114t-96 279q0 166 55 313t152 244q137 137 301 137t254 -94t111 -221l73 295h64l-254 -1047h-64
l58 233q-61 -101 -168 -177q-106 -76 -248 -76zM688 1206l225 248l74 -37l-244 -211h-55z" />
    <glyph glyph-name="abreve.alt" horiz-adv-x="1138" 
d="M731 1208q-102 0 -154 56t-38 149h51q-4 -67 33 -107t116 -40q145 0 222 147h53q-78 -205 -283 -205zM158 384q0 -149 78 -247t224 -98q144 0 273 129q88 86 141 217q54 131 54 273t-87 245q-87 105 -233 105t-262 -117q-88 -86 -138 -222t-50 -285zM424 -20
q-142 0 -238 114t-96 279q0 166 55 313t152 244q137 137 301 137t254 -94t111 -221l73 295h64l-254 -1047h-64l58 233q-61 -101 -168 -177q-106 -76 -248 -76z" />
    <glyph glyph-name="acircumflex.alt" horiz-adv-x="1138" 
d="M158 384q0 -149 78 -247t224 -98q144 0 273 129q88 86 141 217q54 131 54 273t-87 245q-87 105 -233 105t-262 -117q-88 -86 -138 -222t-50 -285zM424 -20q-142 0 -238 114t-96 279q0 166 55 313t152 244q137 137 301 137t254 -94t111 -221l73 295h64l-254 -1047h-64
l58 233q-61 -101 -168 -177q-106 -76 -248 -76zM512 1210l246 242h47l127 -242h-51l-113 170l-199 -170h-57z" />
    <glyph glyph-name="adieresis.alt" horiz-adv-x="1138" 
d="M158 384q0 -149 78 -247t224 -98q144 0 273 129q88 86 141 217q54 131 54 273t-87 245q-87 105 -233 105t-262 -117q-88 -86 -138 -222t-50 -285zM424 -20q-142 0 -238 114t-96 279q0 166 55 313t152 244q137 137 301 137t254 -94t111 -221l73 295h64l-254 -1047h-64
l58 233q-61 -101 -168 -177q-106 -76 -248 -76zM815 1229l29 117h90l-29 -117h-90zM561 1229l29 117h92l-31 -117h-90z" />
    <glyph glyph-name="agrave.alt" horiz-adv-x="1138" 
d="M694 1206l-153 211l75 37l119 -248h-41zM158 384q0 -149 78 -247t224 -98q144 0 273 129q88 86 141 217q54 131 54 273t-87 245q-87 105 -233 105t-262 -117q-88 -86 -138 -222t-50 -285zM424 -20q-142 0 -238 114t-96 279q0 166 55 313t152 244q137 137 301 137t254 -94
t111 -221l73 295h64l-254 -1047h-64l58 233q-61 -101 -168 -177q-106 -76 -248 -76z" />
    <glyph glyph-name="amacron.alt" horiz-adv-x="1138" 
d="M494 1249l14 60h491l-14 -60h-491zM158 384q0 -149 78 -247t224 -98q144 0 273 129q88 86 141 217q54 131 54 273t-87 245q-87 105 -233 105t-262 -117q-88 -86 -138 -222t-50 -285zM424 -20q-142 0 -238 114t-96 279q0 166 55 313t152 244q137 137 301 137t254 -94
t111 -221l73 295h64l-254 -1047h-64l58 233q-61 -101 -168 -177q-106 -76 -248 -76z" />
    <glyph glyph-name="aogonek.alt" horiz-adv-x="1138" 
d="M158 384q0 -149 78 -247t224 -98q144 0 273 129q88 86 141 217q54 131 54 273t-87 245q-87 105 -233 105t-262 -117q-88 -86 -138 -222t-50 -285zM627 -184q0 88 157 194l56 223q-62 -100 -168 -177q-106 -76 -248 -76t-238 114t-96 279q0 166 55 313t152 244
q137 137 301 137t254 -94t111 -221l73 295h64l-254 -1047h-12q-142 -108 -142 -174t125 -74l-12 -47q-2 -2 -6 -2q-82 2 -127 33t-45 80z" />
    <glyph glyph-name="aring.alt" horiz-adv-x="1138" 
d="M158 384q0 -149 78 -247t224 -98q144 0 273 129q88 86 141 217q54 131 54 273t-87 245q-87 105 -233 105t-262 -117q-88 -86 -138 -222t-50 -285zM424 -20q-142 0 -238 114t-96 279q0 166 55 313t152 244q137 137 301 137t254 -94t111 -221l73 295h64l-254 -1047h-64
l58 233q-61 -101 -168 -177q-106 -76 -248 -76zM782 1530q-60 0 -105 -46q-46 -46 -46 -103q0 -58 35 -94t94 -36t105 45q46 46 46 104t-34 94q-35 36 -95 36zM958 1402q0 -77 -60 -134q-60 -58 -139 -58t-127 47t-48 123t61 134t139 58t126 -46q48 -47 48 -124z" />
    <glyph glyph-name="aring.alt2" horiz-adv-x="1003" 
d="M340 37q150 0 266 104t154 258l31 123q-164 60 -335 60t-261 -90q-91 -90 -91 -212t67 -182t169 -61zM643 1057q59 0 107 44q47 44 47 102t-35 93t-95 35q-59 0 -105 -44t-46 -102t34 -93t93 -35zM328 -20q-121 0 -206 74t-85 222q1 148 109 256t298 107q190 0 359 -61
l12 51q18 74 19 137q0 111 -76 172t-205 61t-260 -51l-17 60q111 49 242 51q-51 45 -51 123t61 134q62 56 140 56t127 -45t49 -111t-36 -113q-36 -48 -91 -71q180 -70 180 -260q0 -66 -23 -151l-149 -621h-63l49 201q-143 -221 -383 -221z" />
    <glyph glyph-name="aringacute.alt" horiz-adv-x="1138" 
d="M158 384q0 -149 78 -247t224 -98q144 0 273 129q88 86 141 217q54 131 54 273t-87 245q-87 105 -233 105t-262 -117q-88 -86 -138 -222t-50 -285zM424 -20q-142 0 -238 114t-96 279q0 166 55 313t152 244q137 137 301 137t254 -94t111 -221l73 295h64l-254 -1047h-64
l58 233q-61 -101 -168 -177q-106 -76 -248 -76zM778 1528q-59 0 -105 -46t-46 -103q0 -58 35 -94t94 -36t105 45q46 46 46 104t-35 94t-94 36zM954 1400q0 -77 -60 -134q-60 -58 -139 -58t-127 47t-48 123t61 134t139 58t126 -46q48 -47 48 -124zM799 1640l213 201l67 -37
l-225 -164h-55z" />
    <glyph glyph-name="aringacute.alt2" horiz-adv-x="1005" 
d="M340 37q150 0 266 104t154 258l31 123q-164 60 -335 60t-261 -90q-91 -90 -91 -212t67 -182t169 -61zM643 1057q59 0 107 44q47 44 47 102t-35 93t-95 35q-59 0 -105 -44t-46 -102t34 -93t93 -35zM328 -20q-121 0 -206 74t-85 222q1 148 109 256t298 107q190 0 359 -61
l12 51q18 74 19 137q0 111 -76 172t-205 61t-260 -51l-17 60q111 49 242 51q-51 45 -51 123t61 134q62 56 140 56t127 -45t49 -111t-36 -113q-36 -48 -91 -71q180 -70 180 -260q0 -66 -23 -151l-149 -621h-63l49 201q-143 -221 -383 -221zM688 1456l211 201l68 -37
l-226 -164h-53z" />
    <glyph glyph-name="atilde.alt" horiz-adv-x="1138" 
d="M637 1325q-63 0 -113 -113l-45 13q63 164 164 164q41 -1 111 -53t106 -52q58 0 115 113l43 -13q-66 -164 -164 -163q-45 0 -116 52t-101 52zM158 384q0 -149 78 -247t224 -98q144 0 273 129q88 86 141 217q54 131 54 273t-87 245q-87 105 -233 105t-262 -117
q-88 -86 -138 -222t-50 -285zM424 -20q-142 0 -238 114t-96 279q0 166 55 313t152 244q137 137 301 137t254 -94t111 -221l73 295h64l-254 -1047h-64l58 233q-61 -101 -168 -177q-106 -76 -248 -76z" />
    <glyph glyph-name="three.alt" horiz-adv-x="1009" 
d="M406 -20q-133 0 -244 56t-178 159l53 38q131 -193 373 -192q174 0 282 106q108 105 109 247q-1 142 -107 226t-270 82h-70l15 58h84q213 0 350 100t137 262q0 119 -87 195t-226 76q-178 0 -330 -127l-41 47q166 141 354 141t293 -92q107 -92 107 -243t-112 -256
t-294 -140q125 -37 196 -123t70 -207q0 -169 -130 -291t-334 -122z" />
    <glyph glyph-name="registered.alt" horiz-adv-x="1501" 
d="M1061 915q0 146 -189 146h-167l-80 -342h168q152 0 217 65q51 49 51 131zM874 1116q131 0 193 -63q53 -49 53 -141t-65 -158t-181 -80l136 -320h-64l-131 314q-8 -2 -205 -2l-75 -312h-60l187 762h212zM721 18q254 0 450 193q117 117 180 288q62 171 62 345
q2 242 -141 406t-400 165q-257 0 -450 -192q-117 -117 -179 -287t-63 -346q0 -242 144 -407t397 -165zM870 1458q274 0 433 -176q158 -176 157 -444q0 -180 -66 -356t-188 -298q-209 -209 -483 -209q-274 1 -432 177t-158 444q0 178 67 354t187 299q209 209 483 209z" />
    <glyph glyph-name="NUL" horiz-adv-x="0" 
 />
    <glyph glyph-name="hfjslug" horiz-adv-x="1425" 
d="M874 565q20 1 34 15q33 33 1 68q-15 16 -35 16t-34 -16t-14 -34q0 -20 14 -34t34 -15zM874 580q-33 0 -32 34q0 12 9 24t23 11q14 0 24 -11t9 -24q0 -34 -33 -34zM647 1056q0 30 29 29q27 -1 27 -35t-31 -69q-25 45 -25 75zM662 823q-33 0 -33 45t33 78l40 -80
q-15 -43 -40 -43zM977 612v35h22q20 0 21 -16q0 -18 -21 -19h-22zM987 799q63 0 64 73v281h-33v-281q0 -45 -33 -45q-14 0 -41 11v-31q20 -8 43 -8zM752 567h16v35l37 60h-19l-26 -46l-27 46h-18l37 -60v-35zM961 567h16v31h24l21 -31h18l-24 35q20 8 20 29q0 31 -35 31h-40
v-95zM821 801h31v160h78v28h-78v135h88v29h-119v-352zM272 567h17v66l51 -66h14v95h-16v-66l-51 66h-15v-95zM379 801h31v162h96v-162h31v352h-31v-162h-96v162h-31v-352zM397 567h70v15h-53v26h47v15h-47v24h53v15h-70v-95zM1073 567h17v25l16 16l31 -41h20l-41 54l37 41
h-20l-41 -50h-2v50h-17v-95zM104 -410v621q27 0 47 19q19 19 19 46q0 26 -19 46t-47 20v1135h205l62 161h684l59 -161h207v-1887h-426l-16 29h-334l-17 -29h-424zM600 862q0 -68 65 -67q33 0 54 49h2l24 -49l25 12l-35 65q12 29 27 80l-27 6q-8 -37 -16 -61h-2l-33 64
q47 43 47 86q0 63 -55 63q-25 0 -41 -18q-35 -39 12 -125q-47 -37 -47 -105zM524 565h17l22 70h2l23 -70h16l29 97h-17l-20 -72h-2l-23 72h-14l-22 -72h-3l-20 72h-16z" />
    <glyph glyph-name="i.dot" horiz-adv-x="417" 
d="M362 1317l31 127h82l-33 -127h-80zM49 0l256 1047h64l-256 -1047h-64z" />
    <glyph glyph-name="caron.alt" 
d="M780 1479v-4l-139 -301h-35l103 305h71z" />
    <glyph glyph-name="acute.cap" 
d="M655 1550l228 215l71 -36l-239 -179h-60z" />
    <glyph glyph-name="hungarumlaut.cap" 
d="M768 1550l227 215l70 -36l-238 -179h-59zM537 1550l229 215l72 -36l-240 -179h-61z" />
    <glyph glyph-name="grave.cap" 
d="M821 1550l-162 179l72 36l135 -215h-45z" />
    <glyph glyph-name="circumflex.cap" 
d="M545 1552l241 205h58l141 -205h-59l-121 142l-193 -142h-67z" />
    <glyph glyph-name="caron.cap" 
d="M1036 1757l-241 -205h-58l-143 205h59l125 -139l191 139h67z" />
    <glyph glyph-name="breve.cap" 
d="M768 1550q-102 0 -157 47q-54 47 -44 132h54q3 -117 155 -117t213 117h58q-31 -83 -104 -131t-175 -48z" />
    <glyph glyph-name="tilde.cap" 
d="M897 1626q59 0 113 98l45 -12q-70 -150 -164 -149q-41 0 -118 47t-103 47q-60 -1 -117 -101l-43 11q66 152 164 151q43 0 121 -47q66 -45 102 -45z" />
    <glyph glyph-name="macron.cap" 
d="M520 1593l15 64h514l-15 -64h-514z" />
    <glyph glyph-name="dieresis.cap" 
d="M858 1573l29 117h96l-29 -117h-96zM586 1573l28 117h97l-29 -117h-96z" />
    <glyph glyph-name="dotaccent.cap" 
d="M721 1573l29 117h98l-29 -117h-98z" />
    <glyph glyph-name="ring.cap" 
d="M664 1715q0 -54 35 -87t96 -33t108 41q47 42 47 98t-34 88t-95 32t-109 -43q-48 -42 -48 -96zM612 1713q0 75 64 129t148 54q83 0 131 -43q49 -43 49 -117t-66 -130t-148 -56t-130 44t-48 119z" />
    </font>
</defs>
</svg>
