<?xml version="1.0" standalone="no"?>
<!DOCTYPE svg PUBLIC "-//W3C//DTD SVG 1.1//EN" "http://www.w3.org/Graphics/SVG/1.1/DTD/svg11.dtd" >
<svg xmlns="http://www.w3.org/2000/svg">
<metadata>
Created by FontPrep 20130207 at Tue Dec  3 03:35:15 2013
 By Bryan Willis
Copyright (C) 2005, 2008 Hoefler &#38; Frere-Jones. http://www.typography.com
</metadata>
<defs>
<font id="172ac4dff1fe088799cc7c68bbcc08f4" horiz-adv-x='1024' >
  <font-face 
    font-family="GothamNarrow-BlackItalic"
    font-weight="450"
    font-style="italic"
    font-stretch="condensed"
    units-per-em="2048"
    panose-1="0 0 0 0 0 0 0 0 0 0"
    ascent="1638"
    descent="-410"
    x-height="1112"
    cap-height="1434"
    bbox="-260 -592 2345 2073"
    underline-thickness="102"
    underline-position="-102"
    slope="-14"
    unicode-range="U+0020-FB04"
  />
<missing-glyph 
d="M922 -156v1540l-353 -770zM512 737l367 799h-734zM145 -307h734l-367 799zM102 -156l353 770l-353 770v-1540zM0 -410v2048h1024v-2048h-1024z" />
    <glyph glyph-name="f_f" unicode="ff" horiz-adv-x="1507" 
d="M1466 1495q117 0 215 -31l-67 -264q-50 18 -102 18t-78 -21q-26 -22 -35 -69l-6 -20h200l-75 -293h-193l-197 -815h-368l198 815h-112l76 297h108l8 29q39 166 134 260t294 94zM715 1495q117 0 215 -31l-68 -264q-51 18 -102 18t-77 -21q-26 -22 -36 -69l-6 -20h201
l-76 -293h-193l-196 -815h-369l199 815h-113l76 297h109l8 29q39 166 134 260t294 94z" />
    <glyph glyph-name="fi" unicode="fi" horiz-adv-x="1310" 
d="M997 1202l74 287h379l-74 -287h-379zM711 0l272 1112h367l-271 -1112h-368zM715 1495q117 0 215 -31l-68 -264q-51 18 -102 18t-77 -21q-26 -22 -36 -69l-6 -20h201l-76 -293h-193l-196 -815h-369l199 815h-113l76 297h109l8 29q39 166 134 260t294 94z" />
    <glyph glyph-name="fl" unicode="fl" horiz-adv-x="1310" 
d="M711 0l362 1481h367l-361 -1481h-368zM715 1495q117 0 215 -31l-68 -264q-51 18 -102 18t-77 -21q-26 -22 -36 -69l-6 -20h201l-76 -293h-193l-196 -815h-369l199 815h-113l76 297h109l8 29q39 166 134 260t294 94z" />
    <glyph glyph-name="f_f_i" unicode="ffi" horiz-adv-x="2064" 
d="M1753 1202l74 287h379l-74 -287h-379zM1466 0l273 1112h366l-270 -1112h-369zM1466 1495q117 0 215 -31l-67 -264q-50 18 -102 18t-78 -21q-26 -22 -35 -69l-6 -20h200l-75 -293h-193l-197 -815h-368l198 815h-112l76 297h108l8 29q39 166 134 260t294 94zM715 1495
q117 0 215 -31l-68 -264q-51 18 -102 18t-77 -21q-26 -22 -36 -69l-6 -20h201l-76 -293h-193l-196 -815h-369l199 815h-113l76 297h109l8 29q39 166 134 260t294 94z" />
    <glyph glyph-name="f_f_l" unicode="ffl" horiz-adv-x="2064" 
d="M1466 0l363 1481h366l-360 -1481h-369zM1466 1495q117 0 215 -31l-67 -264q-50 18 -102 18t-78 -21q-26 -22 -35 -69l-6 -20h200l-75 -293h-193l-197 -815h-368l198 815h-112l76 297h108l8 29q39 166 134 260t294 94zM715 1495q117 0 215 -31l-68 -264q-51 18 -102 18
t-77 -21q-26 -22 -36 -69l-6 -20h201l-76 -293h-193l-196 -815h-369l199 815h-113l76 297h109l8 29q39 166 134 260t294 94z" />
    <glyph glyph-name=".notdef" 
d="M922 -156v1540l-353 -770zM512 737l367 799h-734zM145 -307h734l-367 799zM102 -156l353 770l-353 770v-1540zM0 -410v2048h1024v-2048h-1024z" />
    <glyph glyph-name=".null" horiz-adv-x="0" 
 />
    <glyph glyph-name="nonmarkingreturn" horiz-adv-x="681" 
 />
    <glyph glyph-name="space" unicode=" " horiz-adv-x="432" 
 />
    <glyph glyph-name="exclam" unicode="!" horiz-adv-x="612" 
d="M-23 0l86 346h386l-87 -346h-385zM190 471l82 836l33 127h426l-31 -127l-321 -836h-189z" />
    <glyph glyph-name="quotedbl" unicode="&#x22;" horiz-adv-x="989" 
d="M610 729l164 705h389l-2 -13l-364 -692h-187zM131 729l166 705h389l-2 -13l-365 -692h-188z" />
    <glyph glyph-name="numbersign" unicode="#" horiz-adv-x="1245" 
d="M506 588h229l78 264h-227zM53 0l86 283h-141l65 313h175l73 248h-159l67 313h191l86 277h276l-84 -277h213l86 277h279l-86 -277h143l-68 -313h-174l-75 -248h163l-67 -313h-193l-88 -283h-278l88 283h-215l-86 -283h-277z" />
    <glyph glyph-name="dollar" unicode="$" horiz-adv-x="1161" 
d="M551 1026q0 -43 39 -77t153 -91q168 -76 259 -167t92 -224q0 -205 -150 -336t-391 -133l-55 -203h-217l61 223q-229 49 -387 207l217 252q195 -170 387 -172h8q74 0 115 34t41 82t-41 80t-158 79q-172 78 -258 166t-86 229q0 201 148 330t393 131l35 125h215l-39 -152
q184 -49 313 -164l-207 -260q-160 141 -333 143h-5q-70 2 -110 -28t-39 -74z" />
    <glyph glyph-name="percent" unicode="%" horiz-adv-x="1656" 
d="M1219 182q39 0 75 33q70 70 70 203t-90 133q-41 0 -72 -31q-72 -72 -72 -215q0 -59 25 -91t64 -32zM1210 -16q-141 0 -221 86t-80 231q0 215 133 352q104 101 244 101t220 -86q79 -86 79 -234q0 -217 -133 -350q-101 -100 -242 -100zM459 881q41 0 71 30q72 76 72 215
q0 59 -24 92q-25 32 -66 32t-72 -31q-72 -68 -72 -203t91 -135zM447 680q-142 0 -221 86t-79 233q0 217 134 351q100 100 241 100t221 -86t80 -231q0 -215 -133 -353q-101 -100 -243 -100zM115 0l684 770l571 664h248l-684 -770l-572 -664h-247z" />
    <glyph glyph-name="ampersand" unicode="&#x26;" horiz-adv-x="1273" 
d="M729 1196q-47 0 -77 -39t-31 -103q0 -64 41 -143q164 76 163 183q-1 46 -25 74t-71 28zM369 393q1 -57 37 -93t110 -36t162 55l-168 283q-141 -88 -141 -209zM458 -23q-202 -1 -323 103t-121 278q0 303 367 459q-66 137 -66 254q0 162 115 275q115 112 297 112t291 -98
t108 -246q0 -260 -333 -403l110 -185q45 60 115 179l231 -140q-90 -164 -186 -276l100 -158l-258 -162l-76 125q-169 -117 -371 -117z" />
    <glyph glyph-name="quotesingle" unicode="'" horiz-adv-x="514" 
d="M131 729l166 705h395l-4 -13l-364 -692h-193z" />
    <glyph glyph-name="parenleft" unicode="(" horiz-adv-x="808" 
d="M420 -289q-178 147 -269 321t-92 398q0 449 306 754q186 186 462 272l103 -256q-176 -78 -281 -186q-238 -236 -237 -576q0 -150 51 -268t166 -250z" />
    <glyph glyph-name="parenright" unicode=")" horiz-adv-x="808" 
d="M760 741q0 -449 -305 -753q-186 -186 -463 -273l-103 256q176 78 281 187q238 236 238 575q0 149 -52 267t-166 251l209 209q177 -147 269 -320t92 -399z" />
    <glyph glyph-name="asterisk" unicode="*" horiz-adv-x="806" 
d="M543 711l-205 51l113 237l-230 -120l-59 204l258 23l-217 143l147 150l146 -213l12 262l203 -49l-111 -240l229 121l60 -203l-258 -22l217 -144l-150 -151l-145 213z" />
    <glyph glyph-name="plus" unicode="+" horiz-adv-x="1155" 
d="M330 240l78 317h-314l82 328h313l78 315h336l-78 -315h314l-82 -328h-314l-77 -317h-336z" />
    <glyph glyph-name="comma" unicode="," horiz-adv-x="567" 
d="M-125 -326l-16 146q223 23 254 182h-156l94 383h387l-84 -332q-46 -191 -160 -281t-319 -98z" />
    <glyph glyph-name="hyphen" unicode="-" horiz-adv-x="774" 
d="M53 475l82 328h625l-82 -328h-625z" />
    <glyph glyph-name="period" unicode="." horiz-adv-x="567" 
d="M-45 0l96 383h385l-94 -383h-387z" />
    <glyph glyph-name="slash" unicode="/" horiz-adv-x="948" 
d="M-260 -242l1198 1856h313l-1200 -1856h-311z" />
    <glyph glyph-name="zero" unicode="0" horiz-adv-x="1294" 
d="M610 307q72 0 138 67q66 68 116 230q49 162 49 297q0 225 -153 225q-70 0 -138 -68t-117 -231q-50 -164 -50 -297q-1 -223 155 -223zM776 1460q242 0 378 -148t136 -401q0 -199 -72 -411t-204 -344q-182 -182 -422 -182t-376 148t-136 400q0 199 72 411t204 345
q178 182 420 182z" />
    <glyph glyph-name="one" unicode="1" horiz-adv-x="790" 
d="M141 0l258 1065l-209 -51l9 317l393 111h272l-352 -1442h-371z" />
    <glyph glyph-name="two" unicode="2" horiz-adv-x="1118" 
d="M774 1010q0 53 -34 83t-89 29q-115 0 -272 -145l-197 250q225 229 510 229q213 0 337 -110t124 -281q0 -139 -72 -251t-252 -245l-317 -252h489l-81 -317h-988l76 301l600 471q166 133 166 238z" />
    <glyph glyph-name="three" unicode="3" horiz-adv-x="1075" 
d="M432 -25q-313 0 -493 215l231 248q121 -135 264 -135q88 0 143 50q54 50 54 120q0 147 -221 148h-93l7 210l344 289h-451l80 314h911l-71 -281l-392 -315q121 -43 189 -133t67 -216q-1 -213 -151 -363t-418 -151z" />
    <glyph glyph-name="four" unicode="4" horiz-adv-x="1212" 
d="M385 559h285l106 428zM532 0l66 270h-567l-21 279l840 893h391l-213 -881h156l-74 -291h-152l-65 -270h-361z" />
    <glyph glyph-name="five" unicode="5" horiz-adv-x="1093" 
d="M444 -25q-147 -1 -278 57t-219 150l217 256q141 -135 282 -135q98 1 158 61t62 137q0 77 -46 117t-128 41q-82 0 -158 -41l-184 125l204 691h834l-82 -320h-528l-58 -201q59 16 127 17q180 0 288 -102t107 -279q0 -244 -165 -409t-433 -165z" />
    <glyph glyph-name="six" unicode="6" horiz-adv-x="1167" 
d="M420 420q0 -76 39 -115t101 -39t112 51q74 74 73 205q0 72 -34 110q-35 38 -99 38t-116 -49q-76 -80 -76 -201zM555 -25q-225 0 -353 128q-128 127 -128 347t74 448q75 228 212 366q195 195 474 194q233 0 399 -131l-176 -280q-113 96 -238 96t-206 -81t-124 -208
q107 82 263 82t258 -94t102 -269q0 -123 -47 -241t-127 -199q-158 -158 -383 -158z" />
    <glyph glyph-name="seven" unicode="7" horiz-adv-x="1081" 
d="M-25 0l750 1110h-539l82 324h957l-72 -279l-760 -1155h-418z" />
    <glyph glyph-name="eight" unicode="8" horiz-adv-x="1181" 
d="M674 856q66 0 112 53t48 119t-34 106t-103 40t-113 -54t-46 -120q-1 -66 35 -105q35 -39 101 -39zM554 260q71 0 123 56t53 132t-42 114q-43 40 -116 40q-74 0 -124 -56t-52 -129t43 -115q44 -42 115 -42zM1085 426q1 -188 -151 -318t-386 -131q-234 0 -374 108
q-141 108 -143 286q0 293 307 399q-131 102 -131 267t136 292q137 127 361 127t351 -104t127 -271q0 -268 -273 -368q176 -99 176 -287z" />
    <glyph glyph-name="nine" unicode="9" horiz-adv-x="1167" 
d="M500 899q4 -147 136 -147q64 0 116 51q74 74 73 211q0 84 -39 119q-32 35 -96 35t-106 -43q-42 -42 -64 -103q-23 -61 -20 -123zM416 -23q-242 0 -424 144l178 282q127 -111 255 -111t211 84q83 83 116 191q-114 -84 -264 -84q-150 -1 -251 95t-104 276q0 274 166 440
t391 166t353 -128t128 -388q-1 -195 -75 -415t-213 -359q-188 -193 -467 -193z" />
    <glyph glyph-name="colon" unicode=":" horiz-adv-x="575" 
d="M135 731l96 381h385l-96 -381h-385zM-41 0l96 383h385l-96 -383h-385z" />
    <glyph glyph-name="semicolon" unicode=";" horiz-adv-x="575" 
d="M135 731l96 381h385l-96 -381h-385zM-123 -328l-16 144q221 27 256 184h-158l96 383h385l-82 -332q-46 -189 -160 -279t-321 -100z" />
    <glyph glyph-name="less" unicode="&#x3c;" horiz-adv-x="1155" 
d="M922 174l-813 377l88 338l995 379l-94 -363l-617 -200l523 -199z" />
    <glyph glyph-name="equal" unicode="=" horiz-adv-x="1155" 
d="M178 813l82 322h926l-82 -322h-926zM53 307l80 322h928l-82 -322h-926z" />
    <glyph glyph-name="greater" unicode="&#x3e;" horiz-adv-x="1155" 
d="M39 172l94 365l617 198l-523 199l82 334l813 -379l-86 -338z" />
    <glyph glyph-name="question" unicode="?" horiz-adv-x="985" 
d="M104 0l89 346h385l-89 -346h-385zM676 1022q0 96 -108 96t-240 -92l-142 281q197 145 441 145q197 0 313 -101t117 -259q0 -356 -461 -453l-64 -168h-237l37 354l18 17q326 33 326 180z" />
    <glyph glyph-name="at" unicode="@" horiz-adv-x="1748" 
d="M809 362q79 0 147 104t68 228q0 123 -102 123q-80 0 -149 -105t-68 -216q0 -134 104 -134zM809 -301q-325 0 -531 198t-206 529q0 270 117 507q118 237 333 383t473 146q328 0 521 -186q192 -186 192 -482t-139 -486t-336 -191q-100 0 -170 47t-98 125
q-137 -168 -295 -168q-117 0 -193 84t-76 229q-1 246 141 438t328 193q154 0 217 -141l39 127l277 -70l-156 -524q-25 -82 -25 -127t28 -71t77 -26q109 0 203 169t94 412t-170 405t-461 161q-237 0 -431 -135t-300 -353t-106 -464q0 -297 181 -473t474 -176q195 0 385 92
l33 -72q-207 -100 -420 -100z" />
    <glyph glyph-name="A" unicode="A" horiz-adv-x="1370" 
d="M582 563h235l-20 422zM-137 0l854 1442h381l149 -1442h-389l-18 262h-432l-144 -262h-401z" />
    <glyph glyph-name="B" unicode="B" horiz-adv-x="1265" 
d="M717 860q98 0 150 41t53 113q0 109 -156 108h-162l-59 -262h174zM608 311q94 0 150 44q55 44 55 116q0 115 -156 115h-184l-61 -275h196zM805 1434q252 0 370 -94q117 -94 117 -242q0 -146 -81 -242t-218 -135q193 -82 193 -283q0 -202 -161 -320t-460 -118h-598
l350 1434h488z" />
    <glyph glyph-name="C" unicode="C" horiz-adv-x="1245" 
d="M676 -25q-270 0 -432 162t-162 436q0 187 66 367t194 307q215 211 514 211q162 0 291 -74t205 -202l-291 -224q-51 78 -103 116t-127 38q-115 0 -204 -94q-72 -70 -114 -187t-42 -239q1 -122 63 -196t172 -74t234 112l209 -256q-203 -203 -473 -203z" />
    <glyph glyph-name="D" unicode="D" horiz-adv-x="1351" 
d="M963 831q0 267 -281 267h-74l-182 -762h74q203 0 321 115q66 67 104 175t38 205zM705 1434q330 0 486 -154t157 -422q0 -164 -64 -337t-184 -292q-229 -229 -654 -229h-479l350 1434h388z" />
    <glyph glyph-name="E" unicode="E" horiz-adv-x="1169" 
d="M-33 0l350 1434h981l-81 -326h-609l-53 -234h547l-78 -307h-547l-57 -241h620l-84 -326h-989z" />
    <glyph glyph-name="F" unicode="F" horiz-adv-x="1130" 
d="M-33 0l350 1434h977l-86 -336h-600l-57 -250h541l-82 -320h-539l-127 -528h-377z" />
    <glyph glyph-name="G" unicode="G" horiz-adv-x="1341" 
d="M678 -25q-246 0 -423 153t-177 437q0 183 68 363t192 303q226 227 550 227t513 -198l-246 -263q-129 121 -281 121t-256 -108q-74 -74 -116 -195t-41 -243q-1 -122 71 -196q72 -73 183 -73q68 0 127 23l53 223h-215l74 291h567l-188 -750q-209 -115 -455 -115z" />
    <glyph glyph-name="H" unicode="H" horiz-adv-x="1347" 
d="M-33 0l350 1434h377l-133 -543h389l131 543h377l-350 -1434h-377l135 551h-389l-133 -551h-377z" />
    <glyph glyph-name="I" unicode="I" horiz-adv-x="600" 
d="M-25 0l353 1434h374l-350 -1434h-377z" />
    <glyph glyph-name="J" unicode="J" horiz-adv-x="989" 
d="M352 -23q-287 0 -434 211l240 244q88 -117 174 -117q63 0 102 43q51 51 86 195l211 881h377l-225 -936q-61 -262 -191 -392t-340 -129z" />
    <glyph glyph-name="K" unicode="K" horiz-adv-x="1282" 
d="M-33 0l350 1434h377l-135 -553l469 553h459l-574 -629l248 -805h-403l-146 532l-188 -198l-80 -334h-377z" />
    <glyph glyph-name="L" unicode="L" horiz-adv-x="1077" 
d="M-33 0l350 1434h377l-266 -1098h551l-86 -336h-926z" />
    <glyph glyph-name="M" unicode="M" horiz-adv-x="1540" 
d="M-33 0l350 1434h379l142 -537l399 537h416l-350 -1434h-375l194 815l-424 -543h-6l-160 539l-194 -811h-371z" />
    <glyph glyph-name="N" unicode="N" horiz-adv-x="1384" 
d="M-33 0l350 1434h355l268 -772l186 772h371l-350 -1434h-334l-283 803l-192 -803h-371z" />
    <glyph glyph-name="O" unicode="O" horiz-adv-x="1421" 
d="M686 313q106 0 184 78t122 208t44 253t-58 196q-58 72 -167 72t-188 -84q-72 -72 -116 -202t-44 -253q0 -122 58 -195q59 -73 165 -73zM828 1460q274 0 432 -162t157 -430q1 -184 -69 -373t-197 -315q-207 -207 -481 -207t-430 162q-158 162 -158 430q0 183 70 373
t196 317q206 205 480 205z" />
    <glyph glyph-name="P" unicode="P" horiz-adv-x="1204" 
d="M692 1114h-80l-94 -397h88q135 -1 203 67t68 177q0 65 -39 108q-47 45 -146 45zM705 1434q307 0 444 -138q113 -113 113 -292q0 -250 -158 -408q-180 -180 -506 -180h-156l-98 -416h-377l350 1434h388z" />
    <glyph glyph-name="Q" unicode="Q" horiz-adv-x="1423" 
d="M684 307q45 0 84 12l-133 203l278 170l70 -123q53 141 53 273t-57 206q-57 72 -168 72t-188 -82q-74 -74 -118 -206t-44 -244q0 -281 223 -281zM828 1460q274 0 432 -162t157 -430q0 -164 -57 -334t-160 -296l96 -152l-278 -168l-70 123q-141 -66 -293 -66
q-257 0 -415 161t-158 429q0 183 70 373t196 317q206 205 480 205z" />
    <glyph glyph-name="R" unicode="R" horiz-adv-x="1282" 
d="M664 735q139 0 208 68q60 63 60 143t-41 117q-43 45 -148 45h-131l-88 -373h140zM1319 1004q0 -383 -377 -508l180 -496h-409l-150 436h-117l-102 -436h-377l350 1434h437q317 0 454 -138q111 -111 111 -292z" />
    <glyph glyph-name="S" unicode="S" horiz-adv-x="1134" 
d="M512 -23q-340 0 -565 242l229 264q188 -184 359 -184q57 0 91 28q34 29 34 71t-36 78t-170 115t-208 171q-72 92 -72 219q0 193 129 322q154 154 406 153q297 0 508 -201l-226 -266q-156 145 -303 146q-57 0 -91 -28t-34 -68q0 -39 36 -73t153 -106q152 -88 226 -180
t75 -225q1 -195 -141 -337t-400 -141z" />
    <glyph glyph-name="T" unicode="T" horiz-adv-x="1126" 
d="M238 0l266 1098h-352l86 336h1079l-86 -336h-350l-267 -1098h-376z" />
    <glyph glyph-name="U" unicode="U" horiz-adv-x="1347" 
d="M594 -25q-240 0 -373 117t-133 326q0 96 33 231l188 785h379l-196 -813q-20 -88 -20 -154t43 -109q44 -43 129 -43q85 1 143 59t94 195l209 865h376l-219 -910q-68 -260 -196 -389q-156 -160 -457 -160z" />
    <glyph glyph-name="V" unicode="V" horiz-adv-x="1310" 
d="M334 -8l-127 1442h403l33 -891l465 891h414l-832 -1442h-356z" />
    <glyph glyph-name="W" unicode="W" horiz-adv-x="1968" 
d="M266 -8l-47 1442h387l-8 -838l424 842h321l29 -842l389 838h408l-752 -1442h-348l-37 796l-420 -796h-346z" />
    <glyph glyph-name="X" unicode="X" horiz-adv-x="1253" 
d="M-139 0l590 752l-224 682h406l98 -402l281 402h440l-563 -715l239 -719h-407l-113 444l-309 -444h-438z" />
    <glyph glyph-name="Y" unicode="Y" horiz-adv-x="1198" 
d="M262 0l133 555l-223 879h399l93 -527l346 527h436l-680 -910l-129 -524h-375z" />
    <glyph glyph-name="Z" unicode="Z" horiz-adv-x="1189" 
d="M-70 0l72 283l762 827h-549l82 324h1042l-69 -283l-764 -827h571l-82 -324h-1065z" />
    <glyph glyph-name="bracketleft" unicode="[" horiz-adv-x="833" 
d="M-61 -266l413 1700h621l-64 -254h-288l-291 -1192h293l-66 -254h-618z" />
    <glyph glyph-name="backslash" unicode="\" horiz-adv-x="948" 
d="M532 -242l-327 1856h289l327 -1856h-289z" />
    <glyph glyph-name="bracketright" unicode="]" horiz-adv-x="833" 
d="M907 1434l-413 -1700h-621l64 254h288l291 1192h-293l66 254h618z" />
    <glyph glyph-name="asciicircum" unicode="^" horiz-adv-x="962" 
d="M193 1018l348 409h256l147 -409h-235l-80 196l-172 -196h-264z" />
    <glyph glyph-name="underscore" unicode="_" horiz-adv-x="1150" 
d="M-217 -324l59 238h1157l-57 -238h-1159z" />
    <glyph glyph-name="grave" unicode="`" 
d="M672 1192l-221 246l337 108l117 -354h-233z" />
    <glyph glyph-name="a" unicode="a" horiz-adv-x="1077" 
d="M432 209q59 0 106 51q46 51 64 125l19 78q-57 23 -122 23t-106 -44q-51 -47 -51 -140t90 -93zM674 729q0 106 -156 107q-125 0 -254 -54l-59 279q180 65 394 65t328 -85t113 -240q0 -80 -26 -183l-148 -618h-362l24 106q-127 -126 -260 -126t-206 78t-72 206
q0 186 114 300t322 114q111 0 233 -43q15 48 15 94z" />
    <glyph glyph-name="b" unicode="b" horiz-adv-x="1204" 
d="M560 287q66 0 118 52q51 52 82 138t31 172t-35 133t-103 47t-121 -53q-52 -53 -82 -140t-30 -171t37 -131t103 -47zM627 -23q-180 0 -275 164l-33 -141h-368l360 1483h369l-117 -484q131 137 273 137t235 -110q92 -111 92 -292t-58 -348t-159 -269q-139 -140 -319 -140z
" />
    <glyph glyph-name="c" unicode="c" horiz-adv-x="976" 
d="M511 -25q-218 0 -344 126t-126 341q0 144 52 284t153 241q166 166 397 166q279 0 397 -234l-262 -188q-61 111 -137 111t-129 -58q-51 -49 -81 -133t-30 -168t37 -130t103 -46t155 80l191 -220q-158 -172 -376 -172z" />
    <glyph glyph-name="d" unicode="d" horiz-adv-x="1204" 
d="M552 287q69 0 121 52t82 140q29 88 29 171t-36 130q-37 47 -104 47t-118 -51t-82 -138t-30 -173q0 -178 138 -178zM41 381q0 180 58 348t159 268q139 139 319 139t277 -163l121 510h368l-362 -1483h-367l27 115q-133 -137 -274 -137t-234 111q-92 112 -92 292z" />
    <glyph glyph-name="e" unicode="e" horiz-adv-x="1089" 
d="M733 735q0 49 -31 85t-91 36t-116 -56t-85 -159h311q12 45 12 94zM43 457q0 141 54 279t153 237q162 162 379 162t325 -120t107 -310q0 -130 -45 -265h-633q8 -180 180 -180q90 0 207 80l143 -231q-168 -133 -392 -133t-351 128q-127 129 -127 353z" />
    <glyph glyph-name="f" unicode="f" horiz-adv-x="753" 
d="M715 1495q117 0 215 -31l-68 -264q-51 18 -102 18t-77 -21q-26 -22 -36 -69l-6 -20h201l-76 -293h-193l-196 -815h-369l199 815h-113l76 297h109l8 29q39 166 134 260t294 94z" />
    <glyph glyph-name="g" unicode="g" horiz-adv-x="1196" 
d="M547 367q72 0 127 55q92 100 92 254q0 78 -36 120t-100 42t-114 -54q-45 -46 -71 -120t-25 -142q0 -155 127 -155zM420 -311q-289 0 -502 129l143 250q170 -106 338 -107q111 0 179 64q53 53 79 159l13 47q-134 -139 -284 -139t-243 95q-92 95 -92 254t57 312
q56 153 152 248q132 133 314 133t272 -169l35 147h368l-221 -911q-61 -258 -178 -371q-141 -141 -430 -141z" />
    <glyph glyph-name="h" unicode="h" horiz-adv-x="1138" 
d="M1114 848q0 -66 -29 -195l-157 -653h-369l150 616q14 57 14 99q0 92 -92 92q-119 0 -156 -164l-156 -643h-368l360 1481h369l-119 -486q127 139 267 139t214 -76q72 -77 72 -210z" />
    <glyph glyph-name="i" unicode="i" horiz-adv-x="557" 
d="M246 1202l73 287h379l-73 -287h-379zM-41 0l272 1112h367l-270 -1112h-369z" />
    <glyph glyph-name="j" unicode="j" horiz-adv-x="561" 
d="M250 1202l72 287h380l-73 -287h-379zM-92 -313q-92 0 -168 18l63 242q43 -6 45 -6q59 0 90 30q30 31 48 109l250 1032h366l-260 -1073q-50 -197 -152 -275t-282 -77z" />
    <glyph glyph-name="k" unicode="k" horiz-adv-x="1081" 
d="M-49 0l362 1481h369l-170 -703l285 334h432l-430 -448l166 -664h-392l-79 410l-103 -113l-72 -297h-368z" />
    <glyph glyph-name="l" unicode="l" horiz-adv-x="557" 
d="M-41 0l363 1481h366l-360 -1481h-369z" />
    <glyph glyph-name="m" unicode="m" horiz-adv-x="1738" 
d="M1434 1135q136 0 208 -74t72 -203q0 -80 -28 -201l-158 -657h-367l150 621q14 51 14 96q0 90 -90 90q-117 0 -156 -160l-157 -647h-367l152 621q14 63 14 96q0 90 -92 90q-117 0 -154 -164l-158 -643h-366l272 1112h367l-29 -115q129 137 281 138q186 0 245 -172
q150 172 347 172z" />
    <glyph glyph-name="n" unicode="n" horiz-adv-x="1134" 
d="M1114 848q0 -66 -29 -195l-157 -653h-369l150 616q14 57 14 99q0 92 -92 92q-119 0 -156 -164l-156 -643h-368l272 1112h367l-29 -117q127 139 267 139t214 -76q72 -77 72 -210z" />
    <glyph glyph-name="o" unicode="o" horiz-adv-x="1155" 
d="M397 465q1 -86 39 -134t102 -48t111 51q49 47 79 135t30 175t-37 135t-101 48t-113 -48q-48 -48 -79 -138t-31 -176zM634 1135q224 -1 350 -133t126 -347q0 -143 -53 -282t-148 -234q-160 -164 -385 -164q-225 1 -351 133t-126 347q0 145 52 283t149 235q162 162 386 162
z" />
    <glyph glyph-name="p" unicode="p" horiz-adv-x="1204" 
d="M560 287q66 0 118 52q51 52 82 138t31 172t-35 133t-103 47t-121 -53q-52 -53 -82 -140t-30 -171t37 -131t103 -47zM627 -23q-180 0 -275 164l-108 -448h-369l348 1421h367l-27 -115q131 137 273 137t235 -110q92 -111 92 -292t-58 -348t-159 -269q-139 -140 -319 -140z
" />
    <glyph glyph-name="q" unicode="q" horiz-adv-x="1204" 
d="M552 287q69 0 121 52t82 140q29 88 29 171t-36 130q-37 47 -104 47t-118 -51t-82 -138t-30 -173q0 -178 138 -178zM367 -23q-141 0 -234 112q-92 112 -92 292t58 348t159 268q139 139 319 139t277 -163l31 141h368l-346 -1421h-368l102 422q-133 -138 -274 -138z" />
    <glyph glyph-name="r" unicode="r" horiz-adv-x="772" 
d="M758 735q-137 0 -218 -75t-122 -242l-99 -418h-368l272 1112h367l-47 -190q139 223 342 208l-103 -395h-24z" />
    <glyph glyph-name="s" unicode="s" horiz-adv-x="911" 
d="M399 -25q-276 0 -477 191l180 229q156 -152 299 -151q39 0 61 18t22 48t-28 54t-134 87t-165 135q-58 72 -59 174q0 160 117 268t315 107q244 0 426 -158l-174 -236q-141 125 -262 125q-32 0 -54 -16t-22 -44t26 -50t134 -86t168 -138q59 -74 59 -180q-1 -156 -115 -266
t-317 -111z" />
    <glyph glyph-name="t" unicode="t" horiz-adv-x="763" 
d="M353 -20q-129 0 -206 62q-76 62 -75 179q0 55 20 141l109 453h-111l74 297h110l66 272h369l-66 -272h205l-76 -297h-203l-98 -407q-8 -31 -8 -60q0 -53 61 -53t129 24l-75 -301q-96 -38 -225 -38z" />
    <glyph glyph-name="u" unicode="u" horiz-adv-x="1138" 
d="M301 -23q-127 0 -199 77t-71 210q0 80 28 195l158 653h369l-150 -616q-14 -55 -14 -99q0 -92 92 -92q119 0 156 164l155 643h367l-270 -1112h-367l29 119q-125 -142 -283 -142z" />
    <glyph glyph-name="v" unicode="v" horiz-adv-x="1118" 
d="M252 -8l-102 1120h374l11 -649l319 649h387l-647 -1120h-342z" />
    <glyph glyph-name="w" unicode="w" horiz-adv-x="1554" 
d="M1063 1116v-579l252 575h358l-567 -1120h-318l-10 573l-284 -573h-322l-16 1120h356l-25 -573l273 577h303z" />
    <glyph glyph-name="x" unicode="x" horiz-adv-x="1067" 
d="M532 1112l68 -274l180 274h408l-449 -561l189 -551h-377l-70 293l-192 -293h-406l457 578l-182 534h374z" />
    <glyph glyph-name="y" unicode="y" horiz-adv-x="1114" 
d="M260 12l-98 1100h370l11 -663l307 663h385l-600 -1102q-97 -176 -195 -250t-248 -74t-264 87l144 258q66 -51 114 -51t74 32z" />
    <glyph glyph-name="z" unicode="z" horiz-adv-x="978" 
d="M-80 0l64 250l546 569h-401l74 293h860l-62 -250l-550 -567h419l-73 -295h-877z" />
    <glyph glyph-name="braceleft" unicode="{" horiz-adv-x="890" 
d="M168 2q0 68 45 184t45 166q0 111 -174 111h-47l63 250h50q143 0 202 60t62 224q12 233 112 334q135 131 465 129l23 -225q-164 -12 -226 -74q-39 -39 -51 -94t-17 -195t-78 -212q-73 -74 -232 -93q178 -39 178 -194q0 -66 -42 -164q-42 -97 -42 -147t36 -80t136 -54
l-94 -213q-227 29 -321 99q-93 70 -93 188z" />
    <glyph glyph-name="bar" unicode="|" horiz-adv-x="655" 
d="M-6 -242l457 1856h274l-459 -1856h-272z" />
    <glyph glyph-name="braceright" unicode="}" horiz-adv-x="890" 
d="M737 1171q0 -69 -45 -185t-45 -165q0 -111 174 -110h47l-63 -250h-49q-142 -1 -202 -61t-62 -224q-12 -233 -113 -334q-135 -131 -465 -129l-23 226q164 12 226 73q39 39 51 94q12 54 17 194t78 214t233 92q-178 39 -179 195q0 66 42 164t42 147t-35 79q-36 30 -137 54
l95 213q227 -28 320 -98t93 -189z" />
    <glyph glyph-name="asciitilde" unicode="~" horiz-adv-x="931" 
d="M358 805q82 0 160 -55q72 -45 103 -45q68 0 118 106l170 -72q-51 -131 -128 -203t-160 -71q-83 0 -157 49t-106 49q-63 0 -118 -104l-168 71q49 129 126 202q78 73 160 73z" />
    <glyph glyph-name="uni00A0" unicode="&#xa0;" horiz-adv-x="432" 
 />
    <glyph glyph-name="exclamdown" unicode="&#xa1;" horiz-adv-x="610" 
d="M711 1434l-86 -347h-385l86 347h385zM498 963l-82 -836l-33 -127h-426l31 127l321 836h189z" />
    <glyph glyph-name="cent" unicode="&#xa2;" horiz-adv-x="1034" 
d="M678 1012q-80 0 -137 -58t-86 -141q-29 -84 -29 -176t50 -144q50 -53 133 -53t182 84l170 -211q-158 -166 -392 -166h-28l-54 -159h-221l70 207q-117 55 -180 167q-64 112 -64 260q0 150 50 287t147 232q162 166 405 166h4l47 137h222l-64 -180q131 -61 203 -199
l-240 -172q-68 119 -188 119z" />
    <glyph glyph-name="sterling" unicode="&#xa3;" horiz-adv-x="1128" 
d="M862 1456q123 0 225 -50t166 -132l-237 -242q-70 88 -148 88t-116 -43q-43 -43 -68 -137l-25 -115h351l-70 -274h-348l-55 -242h485l-78 -309h-997l59 233l152 58l63 260h-141l70 274h137l35 148q49 223 178 353t362 130z" />
    <glyph glyph-name="yen" unicode="&#xa5;" horiz-adv-x="1259" 
d="M307 0l47 195h-315l61 241h314l24 105h-313l61 241h232l-193 652h389l99 -480l313 480h432l-510 -652h234l-60 -241h-313l-27 -105h316l-62 -241h-313l-49 -195h-367z" />
    <glyph glyph-name="section" unicode="&#xa7;" horiz-adv-x="1132" 
d="M500 840q-41 0 -70 -22t-29 -57q0 -34 31 -59q30 -26 132 -66t146 -40t72 22t29 58q0 34 -31 58t-108 59q-131 47 -172 47zM625 1139q-1 -29 31 -49t166 -68t212 -112q80 -64 80 -170t-72 -170t-174 -91q63 -76 64 -176q0 -139 -116 -232t-316 -94q-285 0 -467 173
l178 217q145 -129 285 -129q92 0 92 59q0 29 -32 49t-166 70t-213 111q-79 62 -79 169q0 108 71 172t171 90q-59 72 -59 175q0 137 114 231q115 94 316 94q289 0 469 -170l-179 -217q-61 53 -140 90t-144 37q-92 0 -92 -59z" />
    <glyph glyph-name="dieresis" unicode="&#xa8;" 
d="M717 1196l71 279h308l-70 -279h-309zM317 1196l70 279h309l-69 -279h-310z" />
    <glyph glyph-name="copyright" unicode="&#xa9;" horiz-adv-x="1492" 
d="M203 594q0 -238 133 -390q134 -152 376 -151q242 0 416 174q117 115 177 281q59 166 59 334q2 236 -131 388t-377 150q-244 0 -418 -174q-117 -116 -176 -280t-59 -332zM1448 846q0 -184 -66 -362t-190 -306q-204 -205 -480 -205t-434 172t-159 443q0 184 65 363
q66 179 191 304q205 205 480 205t434 -172t159 -442zM750 307q-148 0 -237 92t-89 246q0 105 39 205t108 170q121 121 300 121t270 -168l-170 -117q-53 86 -122 86t-113 -44t-68 -110t-23 -134q0 -68 32 -110q33 -40 95 -40t139 67l119 -141q-132 -123 -280 -123z" />
    <glyph glyph-name="ordfeminine" unicode="&#xaa;" horiz-adv-x="710" 
d="M84 569l39 152h528l-39 -152h-528zM426 942q34 0 60 28t36 70l8 39q-30 13 -68 13t-63 -29t-24 -66q0 -55 51 -55zM561 1225q0 59 -76 59t-151 -29l-33 152q104 37 221 37t177 -48t61 -134q0 -35 -12 -91l-84 -344h-199l16 58q-73 -70 -145 -70t-114 43t-42 125t65 150
t175 67q57 0 131 -26q10 40 10 51z" />
    <glyph glyph-name="guillemotleft" unicode="&#xab;" horiz-adv-x="1165" 
d="M764 66l-232 466l7 19l469 473l180 -158l-297 -356l121 -340zM276 70l-223 450l21 78l432 438l180 -159l-289 -349l127 -354z" />
    <glyph glyph-name="registered" unicode="&#xae;" horiz-adv-x="686" 
d="M479 1112q39 0 56 16q14 18 14 37q0 37 -49 37h-33l-23 -90h35zM502 1296q158 0 157 -118q0 -96 -98 -134l47 -135h-116l-39 115h-31l-27 -115h-110l92 387h125zM188 1034q0 -112 66 -186t184 -74q119 0 207 88q115 115 115 297q0 111 -66 185t-186 73q-120 0 -203 -86
q-117 -115 -117 -297zM512 1456q133 0 210 -83t77 -210q0 -201 -123 -323q-102 -102 -238 -102t-213 82q-78 83 -78 210q0 199 125 324q107 102 240 102z" />
    <glyph glyph-name="macron" unicode="&#xaf;" 
d="M328 1196l57 225h682l-57 -225h-682z" />
    <glyph glyph-name="degree" unicode="&#xb0;" horiz-adv-x="827" 
d="M486 899q54 0 98 43q70 70 69 184q0 63 -30 103q-31 39 -86 39t-99 -43q-68 -68 -67 -187q1 -63 31 -101t84 -38zM542 1450q146 0 228 -88t82 -225q0 -193 -127 -320q-101 -100 -245 -100t-227 88t-83 223q0 195 129 320q97 102 243 102z" />
    <glyph glyph-name="plusminus" unicode="&#xb1;" horiz-adv-x="1155" 
d="M-29 31l70 280h954l-71 -280h-953zM391 436l78 307l-324 -2l76 299h322l73 306h314l-76 -306h322l-76 -299l-322 2l-71 -307h-316z" />
    <glyph glyph-name="acute" unicode="&#xb4;" 
d="M416 1192l284 354l324 -108l-340 -246h-268z" />
    <glyph glyph-name="paragraph" unicode="&#xb6;" horiz-adv-x="1089" 
d="M121 856q0 242 158 399q178 178 522 179h401l-350 -1434h-363l103 438q-471 30 -471 418z" />
    <glyph glyph-name="periodcentered" unicode="&#xb7;" horiz-adv-x="569" 
d="M59 449l95 382h387l-97 -382h-385z" />
    <glyph glyph-name="cedilla" unicode="&#xb8;" 
d="M352 -328l-280 117l237 242h248z" />
    <glyph glyph-name="ordmasculine" unicode="&#xba;" horiz-adv-x="722" 
d="M774 1178q0 -168 -112 -281q-86 -86 -211 -86t-195 72t-70 192q0 170 113 281q86 90 211 90q124 0 194 -74t70 -194zM379 1078q0 -44 20 -72q19 -28 55 -29q36 0 68 29q59 59 60 168q0 46 -20 74t-58 28q-37 0 -65 -28t-44 -77t-16 -93zM90 569l37 152h516l-39 -152h-514
z" />
    <glyph glyph-name="guillemotright" unicode="&#xbb;" horiz-adv-x="1165" 
d="M399 1034l232 -467l-6 -18l-469 -473l-181 157l297 357l-120 340zM887 1030l223 -450l-20 -78l-433 -439l-180 160l289 348l-127 355z" />
    <glyph glyph-name="questiondown" unicode="&#xbf;" horiz-adv-x="985" 
d="M958 1434l-88 -347h-385l88 347h385zM387 412q-1 -96 107 -96t241 92l142 -281q-197 -145 -441 -145q-198 0 -314 101t-116 259q0 356 461 453l63 168h238l-37 -355l-18 -16q-326 -33 -326 -180z" />
    <glyph glyph-name="Agrave" unicode="&#xc0;" horiz-adv-x="1370" 
d="M795 1532l-232 207l352 102l132 -309h-252zM582 563h235l-20 422zM-137 0l854 1442h381l149 -1442h-389l-18 262h-432l-144 -262h-401z" />
    <glyph glyph-name="Aacute" unicode="&#xc1;" horiz-adv-x="1370" 
d="M780 1532l279 309l340 -102l-330 -207h-289zM582 563h235l-20 422zM-137 0l854 1442h381l149 -1442h-389l-18 262h-432l-144 -262h-401z" />
    <glyph glyph-name="Acircumflex" unicode="&#xc2;" horiz-adv-x="1370" 
d="M528 1530l297 287h324l156 -287h-232l-117 102l-168 -102h-260zM582 563h235l-20 422zM-137 0l854 1442h381l149 -1442h-389l-18 262h-432l-144 -262h-401z" />
    <glyph glyph-name="Atilde" unicode="&#xc3;" horiz-adv-x="1370" 
d="M1128 1532q-80 0 -196 43q-84 35 -116 35t-55 -20t-50 -68l-176 51q53 143 115 211t146 68t178 -39q93 -37 129 -37q35 0 59 19t50 67l177 -50q-53 -144 -117 -212t-144 -68zM582 563h235l-20 422zM-137 0l854 1442h381l149 -1442h-389l-18 262h-432l-144 -262h-401z" />
    <glyph glyph-name="Adieresis" unicode="&#xc4;" horiz-adv-x="1370" 
d="M981 1536l68 266h311l-68 -266h-311zM578 1536l65 266h311l-67 -266h-309zM582 563h235l-20 422zM-137 0l854 1442h381l149 -1442h-389l-18 262h-432l-144 -262h-401z" />
    <glyph glyph-name="Aring" unicode="&#xc5;" horiz-adv-x="1370" 
d="M582 563h235l-20 422zM788 1501q0 -49 33 -79t93 -29q60 0 101 42q40 42 40 91t-33 79q-34 29 -94 29t-100 -42t-40 -91zM655 1487q0 106 82 184q81 78 197 78t185 -60t69 -158t-80 -173l139 -1358h-389l-18 262h-432l-144 -262h-401l819 1386q-27 45 -27 101z" />
    <glyph glyph-name="AE" unicode="&#xc6;" horiz-adv-x="1873" 
d="M616 563h236l133 559h-24zM-152 0l955 1434h1206l-84 -326h-575l-54 -234h519l-78 -307h-518l-58 -241h590l-84 -326h-954l63 262h-364l-164 -262h-400z" />
    <glyph glyph-name="Ccedilla" unicode="&#xc7;" horiz-adv-x="1245" 
d="M82 562q0 196 66 378q66 180 194 307q215 211 514 211q162 0 291 -74t205 -202l-291 -224q-51 78 -103 116t-127 38q-115 0 -204 -94q-72 -70 -114 -187t-42 -239q1 -122 63 -196t172 -74t234 112l209 -256q-203 -203 -475 -203h-2l-172 -303l-281 117l221 225
q-168 60 -263 206t-95 342z" />
    <glyph glyph-name="Egrave" unicode="&#xc8;" horiz-adv-x="1169" 
d="M-33 0l350 1434h981l-81 -326h-609l-53 -234h547l-78 -307h-547l-57 -241h620l-84 -326h-989zM690 1516l-231 206l352 103l131 -309h-252z" />
    <glyph glyph-name="Eacute" unicode="&#xc9;" horiz-adv-x="1169" 
d="M-33 0l350 1434h981l-81 -326h-609l-53 -234h547l-78 -307h-547l-57 -241h620l-84 -326h-989zM674 1516l278 309l340 -103l-329 -206h-289z" />
    <glyph glyph-name="Ecircumflex" unicode="&#xca;" horiz-adv-x="1169" 
d="M426 1518l297 286h324l155 -286h-231l-117 102l-168 -102h-260zM-33 0l350 1434h981l-81 -326h-609l-53 -234h547l-78 -307h-547l-57 -241h620l-84 -326h-989z" />
    <glyph glyph-name="Edieresis" unicode="&#xcb;" horiz-adv-x="1169" 
d="M-33 0l350 1434h981l-81 -326h-609l-53 -234h547l-78 -307h-547l-57 -241h620l-84 -326h-989zM874 1520l68 266h311l-67 -266h-312zM471 1520l66 266h311l-68 -266h-309z" />
    <glyph glyph-name="Igrave" unicode="&#xcc;" horiz-adv-x="600" 
d="M399 1516l-231 206l352 103l131 -309h-252zM-25 0l353 1434h374l-350 -1434h-377z" />
    <glyph glyph-name="Iacute" unicode="&#xcd;" horiz-adv-x="600" 
d="M387 1516l279 309l340 -103l-330 -206h-289zM-25 0l353 1434h374l-350 -1434h-377z" />
    <glyph glyph-name="Icircumflex" unicode="&#xce;" horiz-adv-x="600" 
d="M135 1518l297 286h324l155 -286h-231l-117 102l-168 -102h-260zM-25 0l353 1434h374l-350 -1434h-377z" />
    <glyph glyph-name="Idieresis" unicode="&#xcf;" horiz-adv-x="600" 
d="M586 1520l67 266h312l-68 -266h-311zM182 1520l66 266h311l-67 -266h-310zM-25 0l353 1434h374l-350 -1434h-377z" />
    <glyph glyph-name="Eth" unicode="&#xd0;" horiz-adv-x="1411" 
d="M559 328q211 0 328 118q70 68 108 178q39 110 39 210q2 272 -289 272h-75l-56 -236h177l-76 -299h-172l-58 -243h74zM766 1434q332 0 498 -162q145 -145 145 -414q0 -164 -63 -337t-183 -292q-229 -229 -653 -229h-475l139 569h-149l75 303h148l137 562h381z" />
    <glyph glyph-name="Ntilde" unicode="&#xd1;" horiz-adv-x="1384" 
d="M-33 0l350 1434h355l268 -772l186 772h371l-350 -1434h-334l-283 803l-192 -803h-371zM790 1835q86 0 177 -38q92 -38 128 -38q35 -1 59 19t50 67l176 -49q-53 -143 -116 -212q-64 -68 -144 -68t-196 43q-84 35 -116 35t-56 -22q-24 -20 -50 -67l-176 51q54 143 116 211
t148 68z" />
    <glyph glyph-name="Ograve" unicode="&#xd2;" horiz-adv-x="1421" 
d="M686 313q106 0 184 78t122 208t44 253t-58 196q-58 72 -167 72t-188 -84q-72 -72 -116 -202t-44 -253q0 -122 58 -195q59 -73 165 -73zM828 1460q274 0 432 -162t157 -430q1 -184 -69 -373t-197 -315q-207 -207 -481 -207t-430 162q-158 162 -158 430q0 183 70 373
t196 317q206 205 480 205zM799 1532l-232 207l353 102l131 -309h-252z" />
    <glyph glyph-name="Oacute" unicode="&#xd3;" horiz-adv-x="1421" 
d="M686 313q106 0 184 78t122 208t44 253t-58 196q-58 72 -167 72t-188 -84q-72 -72 -116 -202t-44 -253q0 -122 58 -195q59 -73 165 -73zM828 1460q274 0 432 -162t157 -430q1 -184 -69 -373t-197 -315q-207 -207 -481 -207t-430 162q-158 162 -158 430q0 183 70 373
t196 317q206 205 480 205zM770 1532l279 309l340 -102l-330 -207h-289z" />
    <glyph glyph-name="Ocircumflex" unicode="&#xd4;" horiz-adv-x="1421" 
d="M535 1534l296 287h324l156 -287h-232l-116 102l-168 -102h-260zM686 313q106 0 184 78t122 208t44 253t-58 196q-58 72 -167 72t-188 -84q-72 -72 -116 -202t-44 -253q0 -122 58 -195q59 -73 165 -73zM828 1460q274 0 432 -162t157 -430q1 -184 -69 -373t-197 -315
q-207 -207 -481 -207t-430 162q-158 162 -158 430q0 183 70 373t196 317q206 205 480 205z" />
    <glyph glyph-name="Otilde" unicode="&#xd5;" horiz-adv-x="1421" 
d="M686 313q106 0 184 78t122 208t44 253t-58 196q-58 72 -167 72t-188 -84q-72 -72 -116 -202t-44 -253q0 -122 58 -195q59 -73 165 -73zM828 1460q274 0 432 -162t157 -430q1 -184 -69 -373t-197 -315q-207 -207 -481 -207t-430 162q-158 162 -158 430q0 183 70 373
t196 317q206 205 480 205zM1132 1532q-80 0 -196 43q-84 35 -116 35t-55 -20t-50 -68l-176 51q53 143 115 211t146 68t178 -39q93 -37 129 -37q35 0 59 19t51 67l176 -50q-53 -144 -117 -212t-144 -68z" />
    <glyph glyph-name="Odieresis" unicode="&#xd6;" horiz-adv-x="1421" 
d="M686 313q106 0 184 78t122 208t44 253t-58 196q-58 72 -167 72t-188 -84q-72 -72 -116 -202t-44 -253q0 -122 58 -195q59 -73 165 -73zM828 1460q274 0 432 -162t157 -430q1 -184 -69 -373t-197 -315q-207 -207 -481 -207t-430 162q-158 162 -158 430q0 183 70 373
t196 317q206 205 480 205zM985 1536l68 266h311l-68 -266h-311zM582 1536l65 266h311l-67 -266h-309z" />
    <glyph glyph-name="multiply" unicode="&#xd7;" horiz-adv-x="1155" 
d="M258 231l-188 246l331 262l-196 260l264 207l188 -266l328 270l189 -245l-332 -260l196 -261l-264 -208l-188 264z" />
    <glyph glyph-name="Oslash" unicode="&#xd8;" horiz-adv-x="1421" 
d="M451 588q0 -39 2 -56l505 555q-58 47 -158 47t-179 -80q-79 -81 -125 -215t-45 -251zM692 299q104 0 191 90q74 72 119 205q46 133 47 252q0 23 -5 63l-509 -559q53 -51 157 -51zM844 1460q219 0 368 -121l101 105h268l-246 -250q82 -138 82 -324q1 -186 -69 -375
t-197 -315q-207 -207 -496 -207q-223 0 -372 121l-97 -104h-268l242 250q-78 137 -78 323q0 185 70 375t196 317q205 205 496 205z" />
    <glyph glyph-name="Ugrave" unicode="&#xd9;" horiz-adv-x="1347" 
d="M594 -25q-240 0 -373 117t-133 326q0 96 33 231l188 785h379l-196 -813q-20 -88 -20 -154t43 -109q44 -43 129 -43q85 1 143 59t94 195l209 865h376l-219 -910q-68 -260 -196 -389q-156 -160 -457 -160zM766 1516l-231 206l352 103l131 -309h-252z" />
    <glyph glyph-name="Uacute" unicode="&#xda;" horiz-adv-x="1347" 
d="M594 -25q-240 0 -373 117t-133 326q0 96 33 231l188 785h379l-196 -813q-20 -88 -20 -154t43 -109q44 -43 129 -43q85 1 143 59t94 195l209 865h376l-219 -910q-68 -260 -196 -389q-156 -160 -457 -160zM754 1516l278 309l340 -103l-330 -206h-288z" />
    <glyph glyph-name="Ucircumflex" unicode="&#xdb;" horiz-adv-x="1347" 
d="M502 1518l297 286h323l156 -286h-231l-117 102l-168 -102h-260zM594 -25q-240 0 -373 117t-133 326q0 96 33 231l188 785h379l-196 -813q-20 -88 -20 -154t43 -109q44 -43 129 -43q85 1 143 59t94 195l209 865h376l-219 -910q-68 -260 -196 -389q-156 -160 -457 -160z
" />
    <glyph glyph-name="Udieresis" unicode="&#xdc;" horiz-adv-x="1347" 
d="M594 -25q-240 0 -373 117t-133 326q0 96 33 231l188 785h379l-196 -813q-20 -88 -20 -154t43 -109q44 -43 129 -43q85 1 143 59t94 195l209 865h376l-219 -910q-68 -260 -196 -389q-156 -160 -457 -160zM950 1520l68 266h311l-67 -266h-312zM547 1520l65 266h312
l-68 -266h-309z" />
    <glyph glyph-name="Yacute" unicode="&#xdd;" horiz-adv-x="1198" 
d="M657 1516l279 309l340 -103l-330 -206h-289zM262 0l133 555l-223 879h399l93 -527l346 527h436l-680 -910l-129 -524h-375z" />
    <glyph glyph-name="Thorn" unicode="&#xde;" horiz-adv-x="1220" 
d="M561 526q135 0 203 68t67 174q-1 68 -43 112t-143 44h-80l-92 -398h88zM655 1235q309 0 447 -139q111 -109 110 -293q0 -244 -153 -397q-182 -182 -504 -183h-158l-53 -223h-377l350 1434h377l-49 -199h10z" />
    <glyph glyph-name="germandbls" unicode="&#xdf;" horiz-adv-x="1159" 
d="M725 467q0 127 -158 149l54 211q102 23 155 89t53 136q0 72 -29 105q-30 33 -75 33q-115 0 -160 -178l-243 -1012h-367l246 1016q57 225 172 344q139 135 354 135t333 -105t118 -262t-74 -267t-215 -156q184 -82 184 -281t-172 -329t-485 -99l69 272q117 2 179 58t61 141
z" />
    <glyph glyph-name="agrave" unicode="&#xe0;" horiz-adv-x="1077" 
d="M571 1200l-221 246l338 108l117 -354h-234zM432 209q59 0 106 51q46 51 64 125l19 78q-57 23 -122 23t-106 -44q-51 -47 -51 -140t90 -93zM674 729q0 106 -156 107q-125 0 -254 -54l-59 279q180 65 394 65t328 -85t113 -240q0 -80 -26 -183l-148 -618h-362l24 106
q-127 -126 -260 -126t-206 78t-72 206q0 186 114 300t322 114q111 0 233 -43q15 48 15 94z" />
    <glyph glyph-name="aacute" unicode="&#xe1;" horiz-adv-x="1077" 
d="M551 1200l285 354l323 -108l-340 -246h-268zM432 209q59 0 106 51q46 51 64 125l19 78q-57 23 -122 23t-106 -44q-51 -47 -51 -140t90 -93zM674 729q0 106 -156 107q-125 0 -254 -54l-59 279q180 65 394 65t328 -85t113 -240q0 -80 -26 -183l-148 -618h-362l24 106
q-127 -126 -260 -126t-206 78t-72 206q0 186 114 300t322 114q111 0 233 -43q15 48 15 94z" />
    <glyph glyph-name="acircumflex" unicode="&#xe2;" horiz-adv-x="1077" 
d="M297 1202l311 318h299l154 -318h-221l-119 123l-176 -123h-248zM432 209q59 0 106 51q46 51 64 125l19 78q-57 23 -122 23t-106 -44q-51 -47 -51 -140t90 -93zM674 729q0 106 -156 107q-125 0 -254 -54l-59 279q180 65 394 65t328 -85t113 -240q0 -80 -26 -183l-148 -618
h-362l24 106q-127 -126 -260 -126t-206 78t-72 206q0 186 114 300t322 114q111 0 233 -43q15 48 15 94z" />
    <glyph glyph-name="atilde" unicode="&#xe3;" horiz-adv-x="1077" 
d="M876 1200q-82 0 -173 40t-121 40t-52 -20q-23 -20 -49 -70l-176 51q53 143 115 212t142 69q79 0 168 -39t123 -39t56 20t49 68l177 -51q-53 -143 -115 -212t-144 -69zM432 209q59 0 106 51q46 51 64 125l19 78q-57 23 -122 23t-106 -44q-51 -47 -51 -140t90 -93zM674 729
q0 106 -156 107q-125 0 -254 -54l-59 279q180 65 394 65t328 -85t113 -240q0 -80 -26 -183l-148 -618h-362l24 106q-127 -126 -260 -126t-206 78t-72 206q0 186 114 300t322 114q111 0 233 -43q15 48 15 94z" />
    <glyph glyph-name="adieresis" unicode="&#xe4;" horiz-adv-x="1077" 
d="M737 1204l72 279h307l-69 -279h-310zM338 1204l70 279h309l-70 -279h-309zM432 209q59 0 106 51q46 51 64 125l19 78q-57 23 -122 23t-106 -44q-51 -47 -51 -140t90 -93zM674 729q0 106 -156 107q-125 0 -254 -54l-59 279q180 65 394 65t328 -85t113 -240q0 -80 -26 -183
l-148 -618h-362l24 106q-127 -126 -260 -126t-206 78t-72 206q0 186 114 300t322 114q111 0 233 -43q15 48 15 94z" />
    <glyph glyph-name="aring" unicode="&#xe5;" horiz-adv-x="1077" 
d="M762 1571q-51 1 -89 -45t-38 -100t28 -84q29 -30 79 -30t88 46q38 45 38 99t-27 84q-28 30 -79 30zM995 1464q1 -100 -75 -181t-184 -81t-168 58q-62 58 -62 160q0 100 77 181t183 81t168 -60q62 -58 61 -158zM432 209q59 0 106 51q46 51 64 125l19 78q-57 23 -122 23
t-106 -44q-51 -47 -51 -140t90 -93zM674 729q0 106 -156 107q-125 0 -254 -54l-59 279q180 65 394 65t328 -85t113 -240q0 -80 -26 -183l-148 -618h-362l24 106q-127 -126 -260 -126t-206 78t-72 206q0 186 114 300t322 114q111 0 233 -43q15 48 15 94z" />
    <glyph glyph-name="ae" unicode="&#xe6;" horiz-adv-x="1665" 
d="M1188 856q-60 0 -116 -54t-89 -161h313q27 123 -19 179q-29 36 -89 36zM449 211q47 0 101 32t97 81q-12 66 -10 133q-57 29 -130 29t-114 -44q-49 -45 -49 -129q1 -102 105 -102zM956 440q8 -180 182 -180q90 0 205 80l144 -231q-168 -134 -395 -134q-264 0 -379 191
q-174 -186 -408 -186q-155 0 -235 78t-80 212q0 180 114 294t322 114q111 0 233 -43q15 48 15 94q0 106 -156 107q-125 0 -254 -54l-59 279q180 65 398 65t310 -118q147 127 331 127t288 -121t104 -309q0 -123 -47 -265h-633z" />
    <glyph glyph-name="ccedilla" unicode="&#xe7;" horiz-adv-x="976" 
d="M41 438q0 148 52 288t153 241q166 166 397 166q279 0 397 -234l-262 -188q-61 111 -137 111t-129 -58q-51 -49 -81 -133t-30 -168t37 -130t103 -46t155 80l191 -220q-150 -164 -365 -172l-172 -303l-280 117l223 227q-119 51 -185 162t-67 260z" />
    <glyph glyph-name="egrave" unicode="&#xe8;" horiz-adv-x="1089" 
d="M733 735q0 49 -31 85t-91 36t-116 -56t-85 -159h311q12 45 12 94zM588 1200l-221 246l338 108l116 -354h-233zM43 457q0 141 54 279t153 237q162 162 379 162t325 -120t107 -310q0 -130 -45 -265h-633q8 -180 180 -180q90 0 207 80l143 -231q-168 -133 -392 -133
t-351 128q-127 129 -127 353z" />
    <glyph glyph-name="eacute" unicode="&#xe9;" horiz-adv-x="1089" 
d="M733 735q0 49 -31 85t-91 36t-116 -56t-85 -159h311q12 45 12 94zM567 1200l285 354l324 -108l-340 -246h-269zM43 457q0 141 54 279t153 237q162 162 379 162t325 -120t107 -310q0 -130 -45 -265h-633q8 -180 180 -180q90 0 207 80l143 -231q-168 -133 -392 -133
t-351 128q-127 129 -127 353z" />
    <glyph glyph-name="ecircumflex" unicode="&#xea;" horiz-adv-x="1089" 
d="M733 735q0 49 -31 85t-91 36t-116 -56t-85 -159h311q12 45 12 94zM313 1202l312 318h299l153 -318h-221l-119 123l-176 -123h-248zM43 457q0 141 54 279t153 237q162 162 379 162t325 -120t107 -310q0 -130 -45 -265h-633q8 -180 180 -180q90 0 207 80l143 -231
q-168 -133 -392 -133t-351 128q-127 129 -127 353z" />
    <glyph glyph-name="edieresis" unicode="&#xeb;" horiz-adv-x="1089" 
d="M733 735q0 49 -31 85t-91 36t-116 -56t-85 -159h311q12 45 12 94zM754 1204l71 279h308l-70 -279h-309zM354 1204l70 279h309l-69 -279h-310zM43 457q0 141 54 279t153 237q162 162 379 162t325 -120t107 -310q0 -130 -45 -265h-633q8 -180 180 -180q90 0 207 80
l143 -231q-168 -133 -392 -133t-351 128q-127 129 -127 353z" />
    <glyph glyph-name="igrave" unicode="&#xec;" horiz-adv-x="557" 
d="M313 1192l-221 246l338 108l117 -354h-234zM-41 0l270 1112h369l-270 -1112h-369z" />
    <glyph glyph-name="iacute" unicode="&#xed;" horiz-adv-x="557" 
d="M-41 0l270 1112h369l-270 -1112h-369zM297 1192l285 354l323 -108l-340 -246h-268z" />
    <glyph glyph-name="icircumflex" unicode="&#xee;" horiz-adv-x="557" 
d="M-41 0l270 1112h369l-270 -1112h-369zM43 1194l311 317h299l154 -317h-221l-119 123l-176 -123h-248z" />
    <glyph glyph-name="idieresis" unicode="&#xef;" horiz-adv-x="557" 
d="M-41 0l270 1112h369l-270 -1112h-369zM483 1196l72 279h307l-69 -279h-310zM84 1196l70 279h309l-70 -279h-309z" />
    <glyph glyph-name="eth" unicode="&#xf0;" horiz-adv-x="1169" 
d="M532 283q66 0 113 51q49 47 81 139t32 178t-35 133t-99 47t-113 -50q-50 -50 -82 -141t-32 -177t35 -133q34 -47 100 -47zM1130 801q0 -189 -62 -371t-173 -293q-162 -162 -381 -162t-342 129t-123 345q0 145 53 292t146 240q135 135 309 135q129 0 219 -92
q-29 86 -98 193l-217 -52l-45 156l153 37q-66 72 -120 125h419l37 -45l203 49l45 -156l-152 -37q129 -225 129 -493z" />
    <glyph glyph-name="ntilde" unicode="&#xf1;" horiz-adv-x="1134" 
d="M908 1200q-82 0 -174 40q-91 40 -121 40q-31 0 -53 -20t-48 -70l-176 51q54 143 116 212t141 69t168 -39t123 -39t56 20t49 68l176 -51q-53 -143 -114 -212t-143 -69zM1114 848q0 -66 -29 -195l-157 -653h-369l150 616q14 57 14 99q0 92 -92 92q-119 0 -156 -164
l-156 -643h-368l272 1112h367l-29 -117q127 139 267 139t214 -76q72 -77 72 -210z" />
    <glyph glyph-name="ograve" unicode="&#xf2;" horiz-adv-x="1155" 
d="M612 1200l-221 246l338 108l117 -354h-234zM397 465q1 -86 39 -134t102 -48t111 51q49 47 79 135t30 175t-37 135t-101 48t-113 -48q-48 -48 -79 -138t-31 -176zM634 1135q224 -1 350 -133t126 -347q0 -143 -53 -282t-148 -234q-160 -164 -385 -164q-225 1 -351 133
t-126 347q0 145 52 283t149 235q162 162 386 162z" />
    <glyph glyph-name="oacute" unicode="&#xf3;" horiz-adv-x="1155" 
d="M397 465q1 -86 39 -134t102 -48t111 51q49 47 79 135t30 175t-37 135t-101 48t-113 -48q-48 -48 -79 -138t-31 -176zM634 1135q224 -1 350 -133t126 -347q0 -143 -53 -282t-148 -234q-160 -164 -385 -164q-225 1 -351 133t-126 347q0 145 52 283t149 235q162 162 386 162
zM575 1200l285 354l324 -108l-340 -246h-269z" />
    <glyph glyph-name="ocircumflex" unicode="&#xf4;" horiz-adv-x="1155" 
d="M397 465q1 -86 39 -134t102 -48t111 51q49 47 79 135t30 175t-37 135t-101 48t-113 -48q-48 -48 -79 -138t-31 -176zM634 1135q224 -1 350 -133t126 -347q0 -143 -53 -282t-148 -234q-160 -164 -385 -164q-225 1 -351 133t-126 347q0 145 52 283t149 235q162 162 386 162
zM338 1202l311 318h299l154 -318h-221l-119 123l-176 -123h-248z" />
    <glyph glyph-name="otilde" unicode="&#xf5;" horiz-adv-x="1155" 
d="M918 1200q-82 0 -174 40q-90 40 -120 40t-53 -20t-49 -70l-176 51q54 143 116 212t141 69t168 -39t123 -39t56 20t49 68l177 -51q-52 -143 -114 -212t-144 -69zM397 465q1 -86 39 -134t102 -48t111 51q49 47 79 135t30 175t-37 135t-101 48t-113 -48q-48 -48 -79 -138
t-31 -176zM634 1135q224 -1 350 -133t126 -347q0 -143 -53 -282t-148 -234q-160 -164 -385 -164q-225 1 -351 133t-126 347q0 145 52 283t149 235q162 162 386 162z" />
    <glyph glyph-name="odieresis" unicode="&#xf6;" horiz-adv-x="1155" 
d="M397 465q1 -86 39 -134t102 -48t111 51q49 47 79 135t30 175t-37 135t-101 48t-113 -48q-48 -48 -79 -138t-31 -176zM634 1135q224 -1 350 -133t126 -347q0 -143 -53 -282t-148 -234q-160 -164 -385 -164q-225 1 -351 133t-126 347q0 145 52 283t149 235q162 162 386 162
zM778 1204l72 279h307l-70 -279h-309zM379 1204l70 279h309l-70 -279h-309z" />
    <glyph glyph-name="divide" unicode="&#xf7;" horiz-adv-x="1155" 
d="M510 983l80 309h340l-78 -309h-342zM96 571l76 299h965l-76 -299h-965zM305 150l76 309h342l-78 -309h-340z" />
    <glyph glyph-name="oslash" unicode="&#xf8;" horiz-adv-x="1157" 
d="M614 842q-62 0 -113 -52q-52 -52 -84 -144q-32 -91 -32 -175v-14l326 356q-35 29 -97 29zM772 641v12l-328 -354q39 -29 101 -29t114 54q52 53 82 142q31 89 31 175zM639 1137q180 0 301 -95l78 78h244l-211 -209q59 -109 59 -254t-52 -283t-147 -235
q-168 -164 -393 -164q-180 0 -301 95l-78 -80h-243l210 209q-59 113 -59 257t53 283t148 234q164 164 391 164z" />
    <glyph glyph-name="ugrave" unicode="&#xf9;" horiz-adv-x="1138" 
d="M606 1192l-221 246l338 108l117 -354h-234zM301 -23q-127 0 -199 77t-71 210q0 80 28 195l158 653h369l-150 -616q-14 -55 -14 -99q0 -92 92 -92q119 0 156 164l155 643h367l-270 -1112h-367l29 119q-125 -142 -283 -142z" />
    <glyph glyph-name="uacute" unicode="&#xfa;" horiz-adv-x="1138" 
d="M301 -23q-127 0 -199 77t-71 210q0 80 28 195l158 653h369l-150 -616q-14 -55 -14 -99q0 -92 92 -92q119 0 156 164l155 643h367l-270 -1112h-367l29 119q-125 -142 -283 -142zM584 1192l284 354l324 -108l-340 -246h-268z" />
    <glyph glyph-name="ucircumflex" unicode="&#xfb;" horiz-adv-x="1138" 
d="M301 -23q-127 0 -199 77t-71 210q0 80 28 195l158 653h369l-150 -616q-14 -55 -14 -99q0 -92 92 -92q119 0 156 164l155 643h367l-270 -1112h-367l29 119q-125 -142 -283 -142zM332 1194l311 317h299l154 -317h-222l-118 123l-176 -123h-248z" />
    <glyph glyph-name="udieresis" unicode="&#xfc;" horiz-adv-x="1138" 
d="M301 -23q-127 0 -199 77t-71 210q0 80 28 195l158 653h369l-150 -616q-14 -55 -14 -99q0 -92 92 -92q119 0 156 164l155 643h367l-270 -1112h-367l29 119q-125 -142 -283 -142zM770 1196l72 279h307l-70 -279h-309zM371 1196l69 279h310l-70 -279h-309z" />
    <glyph glyph-name="yacute" unicode="&#xfd;" horiz-adv-x="1114" 
d="M567 1192l285 354l324 -108l-340 -246h-269zM260 12l-98 1100h370l11 -663l307 663h385l-600 -1102q-97 -176 -195 -250t-248 -74t-264 87l144 258q66 -51 114 -51t74 32z" />
    <glyph glyph-name="thorn" unicode="&#xfe;" horiz-adv-x="1204" 
d="M560 287q66 0 118 52q51 52 82 138t31 172t-35 133t-103 47t-121 -53q-52 -53 -82 -140t-30 -171t37 -131t103 -47zM1163 734q0 -181 -58 -348t-159 -269q-139 -139 -319 -139t-275 163l-108 -448h-369l438 1790h367l-117 -484q131 137 273 137t235 -110q92 -111 92 -292
z" />
    <glyph glyph-name="ydieresis" unicode="&#xff;" horiz-adv-x="1114" 
d="M756 1196l71 279h308l-70 -279h-309zM356 1196l70 279h309l-69 -279h-310zM260 12l-98 1100h370l11 -663l307 663h385l-600 -1102q-97 -176 -195 -250t-248 -74t-264 87l144 258q66 -51 114 -51t74 32z" />
    <glyph glyph-name="Amacron" unicode="&#x100;" horiz-adv-x="1370" 
d="M567 1540l60 229h729l-58 -229h-731zM582 563h235l-20 422zM-137 0l854 1442h381l149 -1442h-389l-18 262h-432l-144 -262h-401z" />
    <glyph glyph-name="amacron" unicode="&#x101;" horiz-adv-x="1077" 
d="M350 1204l58 226h682l-58 -226h-682zM432 209q59 0 106 51q46 51 64 125l19 78q-57 23 -122 23t-106 -44q-51 -47 -51 -140t90 -93zM674 729q0 106 -156 107q-125 0 -254 -54l-59 279q180 65 394 65t328 -85t113 -240q0 -80 -26 -183l-148 -618h-362l24 106
q-127 -126 -260 -126t-206 78t-72 206q0 186 114 300t322 114q111 0 233 -43q15 48 15 94z" />
    <glyph glyph-name="Abreve" unicode="&#x102;" horiz-adv-x="1370" 
d="M930 1530q-156 0 -237 74t-62 213h209q16 -84 126 -84t164 84h230q-50 -141 -162 -214t-268 -73zM582 563h235l-20 422zM-137 0l854 1442h381l149 -1442h-389l-18 262h-432l-144 -262h-401z" />
    <glyph glyph-name="abreve" unicode="&#x103;" horiz-adv-x="1077" 
d="M712 1198q-155 0 -240 84t-83 231h219q4 -47 35 -77t86 -31q113 0 174 108h219q-43 -145 -149 -230t-261 -85zM432 209q59 0 106 51q46 51 64 125l19 78q-57 23 -122 23t-106 -44q-51 -47 -51 -140t90 -93zM674 729q0 106 -156 107q-125 0 -254 -54l-59 279
q180 65 394 65t328 -85t113 -240q0 -80 -26 -183l-148 -618h-362l24 106q-127 -126 -260 -126t-206 78t-72 206q0 186 114 300t322 114q111 0 233 -43q15 48 15 94z" />
    <glyph glyph-name="Aogonek" unicode="&#x104;" horiz-adv-x="1370" 
d="M582 563h235l-20 422zM836 -190q0 88 125 190h-103l-18 262h-432l-144 -262h-401l854 1442h381l149 -1442h-59q-61 -70 -62 -102q0 -48 113 -48l-39 -161q-208 -28 -303 23q-61 34 -61 98z" />
    <glyph glyph-name="aogonek" unicode="&#x105;" horiz-adv-x="1077" 
d="M432 209q59 0 106 51q46 51 64 125l19 78q-57 23 -122 23t-106 -44q-51 -47 -51 -140t90 -93zM674 729q0 106 -156 107q-125 0 -254 -54l-59 279q180 65 394 65t328 -85t113 -240q0 -80 -26 -183l-148 -618h-61q-61 -70 -62 -102q0 -48 113 -48l-39 -161
q-208 -28 -303 23q-61 34 -61 98q0 88 125 190h-74l24 106q-127 -126 -260 -126t-206 78t-72 206q0 186 114 300t322 114q111 0 233 -43q15 48 15 94z" />
    <glyph glyph-name="Cacute" unicode="&#x106;" horiz-adv-x="1245" 
d="M770 1532l279 309l340 -102l-330 -207h-289zM676 -25q-270 0 -432 162t-162 436q0 187 66 367t194 307q215 211 514 211q162 0 291 -74t205 -202l-291 -224q-51 78 -103 116t-127 38q-115 0 -204 -94q-72 -70 -114 -187t-42 -239q1 -122 63 -196t172 -74t234 112
l209 -256q-203 -203 -473 -203z" />
    <glyph glyph-name="cacute" unicode="&#x107;" horiz-adv-x="976" 
d="M511 -25q-218 0 -344 126t-126 341q0 144 52 284t153 241q166 166 397 166q279 0 397 -234l-262 -188q-61 111 -137 111t-129 -58q-51 -49 -81 -133t-30 -168t37 -130t103 -46t155 80l191 -220q-158 -172 -376 -172zM543 1200l284 354l324 -108l-340 -246h-268z" />
    <glyph glyph-name="Cdotaccent" unicode="&#x10a;" horiz-adv-x="1245" 
d="M676 -25q-270 0 -432 162t-162 436q0 187 66 367t194 307q215 211 514 211q162 0 291 -74t205 -202l-291 -224q-51 78 -103 116t-127 38q-115 0 -204 -94q-72 -70 -114 -187t-42 -239q1 -122 63 -196t172 -74t234 112l209 -256q-203 -203 -473 -203zM762 1536l67 266h322
l-68 -266h-321z" />
    <glyph glyph-name="cdotaccent" unicode="&#x10b;" horiz-adv-x="976" 
d="M522 1204l72 277h319l-69 -277h-322zM511 -25q-218 0 -344 126t-126 341q0 144 52 284t153 241q166 166 397 166q279 0 397 -234l-262 -188q-61 111 -137 111t-129 -58q-51 -49 -81 -133t-30 -168t37 -130t103 -46t155 80l191 -220q-158 -172 -376 -172z" />
    <glyph glyph-name="Ccaron" unicode="&#x10c;" horiz-adv-x="1245" 
d="M1389 1821l-299 -287h-322l-156 287h230l119 -103l165 103h263zM676 -25q-270 0 -432 162t-162 436q0 187 66 367t194 307q215 211 514 211q162 0 291 -74t205 -202l-291 -224q-51 78 -103 116t-127 38q-115 0 -204 -94q-72 -70 -114 -187t-42 -239q1 -122 63 -196
t172 -74t234 112l209 -256q-203 -203 -473 -203z" />
    <glyph glyph-name="ccaron" unicode="&#x10d;" horiz-adv-x="976" 
d="M511 -25q-218 0 -344 126t-126 341q0 144 52 284t153 241q166 166 397 166q279 0 397 -234l-262 -188q-61 111 -137 111t-129 -58q-51 -49 -81 -133t-30 -168t37 -130t103 -46t155 80l191 -220q-158 -172 -376 -172zM504 1202l-154 318h219l119 -121l178 121h246
l-311 -318h-297z" />
    <glyph glyph-name="Dcaron" unicode="&#x10e;" horiz-adv-x="1351" 
d="M1309 1804l-299 -286h-322l-156 286h230l119 -102l166 102h262zM963 831q0 267 -281 267h-74l-182 -762h74q203 0 321 115q66 67 104 175t38 205zM705 1434q330 0 486 -154t157 -422q0 -164 -64 -337t-184 -292q-229 -229 -654 -229h-479l350 1434h388z" />
    <glyph glyph-name="dcaron" unicode="&#x10f;" horiz-adv-x="1204" 
d="M552 287q69 0 121 52t82 140q29 88 29 171t-36 130q-37 47 -104 47t-118 -51t-82 -138t-30 -173q0 -178 138 -178zM41 381q0 180 58 348t159 268q139 139 319 139t277 -163l121 510h368l-362 -1483h-367l27 115q-133 -137 -274 -137t-234 111q-92 112 -92 292zM1704 1602
v-7l-219 -409h-142l103 416h258z" />
    <glyph glyph-name="Dcroat" unicode="&#x110;" horiz-adv-x="1411" 
d="M559 328q211 0 328 118q70 68 108 178q39 110 39 210q2 272 -289 272h-75l-56 -236h177l-76 -299h-172l-58 -243h74zM766 1434q332 0 498 -162q145 -145 145 -414q0 -164 -63 -337t-183 -292q-229 -229 -653 -229h-475l139 569h-149l75 303h148l137 562h381z" />
    <glyph glyph-name="dcroat" unicode="&#x111;" horiz-adv-x="1204" 
d="M552 287q69 0 121 52t82 140q29 88 29 171t-36 130q-37 47 -104 47t-118 -51t-82 -138t-30 -173q0 -178 138 -178zM41 381q0 180 58 348t159 268q139 139 319 139t277 -163l53 229h-256l47 187h254l23 94h368l-22 -94h106l-45 -189h-108l-293 -1200h-367l27 115
q-133 -137 -274 -137t-234 111q-92 112 -92 292z" />
    <glyph glyph-name="Emacron" unicode="&#x112;" horiz-adv-x="1169" 
d="M-33 0l350 1434h981l-81 -326h-609l-53 -234h547l-78 -307h-547l-57 -241h620l-84 -326h-989zM463 1524l59 229h729l-57 -229h-731z" />
    <glyph glyph-name="emacron" unicode="&#x113;" horiz-adv-x="1089" 
d="M733 735q0 49 -31 85t-91 36t-116 -56t-85 -159h311q12 45 12 94zM367 1204l57 226h682l-57 -226h-682zM43 457q0 141 54 279t153 237q162 162 379 162t325 -120t107 -310q0 -130 -45 -265h-633q8 -180 180 -180q90 0 207 80l143 -231q-168 -133 -392 -133t-351 128
q-127 129 -127 353z" />
    <glyph glyph-name="Ebreve" unicode="&#x114;" horiz-adv-x="1169" 
d="M-33 0l350 1434h981l-81 -326h-609l-53 -234h547l-78 -307h-547l-57 -241h620l-84 -326h-989zM825 1513q-157 0 -237 74t-62 213h209q15 -84 125 -84t166 84h229q-51 -141 -163 -214t-267 -73z" />
    <glyph glyph-name="ebreve" unicode="&#x115;" horiz-adv-x="1089" 
d="M733 735q0 49 -31 85t-91 36t-116 -56t-85 -159h311q12 45 12 94zM728 1198q-155 0 -240 84t-82 231h219q5 -47 35 -77t85 -31q113 0 175 108h219q-43 -145 -149 -230t-262 -85zM43 457q0 141 54 279t153 237q162 162 379 162t325 -120t107 -310q0 -130 -45 -265h-633
q8 -180 180 -180q90 0 207 80l143 -231q-168 -133 -392 -133t-351 128q-127 129 -127 353z" />
    <glyph glyph-name="Edotaccent" unicode="&#x116;" horiz-adv-x="1169" 
d="M-33 0l350 1434h981l-81 -326h-609l-53 -234h547l-78 -307h-547l-57 -241h620l-84 -326h-989zM666 1520l67 266h322l-68 -266h-321z" />
    <glyph glyph-name="edotaccent" unicode="&#x117;" horiz-adv-x="1089" 
d="M733 735q0 49 -31 85t-91 36t-116 -56t-85 -159h311q12 45 12 94zM547 1204l71 277h320l-70 -277h-321zM43 457q0 141 54 279t153 237q162 162 379 162t325 -120t107 -310q0 -130 -45 -265h-633q8 -180 180 -180q90 0 207 80l143 -231q-168 -133 -392 -133t-351 128
q-127 129 -127 353z" />
    <glyph glyph-name="Eogonek" unicode="&#x118;" horiz-adv-x="1169" 
d="M-33 0l350 1434h981l-81 -326h-609l-53 -234h547l-78 -307h-547l-57 -241h620l-84 -326h-75q-61 -70 -62 -102q0 -47 113 -48l-39 -161q-208 -28 -303 23q-61 34 -62 98q0 88 125 190h-686z" />
    <glyph glyph-name="eogonek" unicode="&#x119;" horiz-adv-x="1089" 
d="M733 735q0 49 -31 85t-91 36t-116 -56t-85 -159h311q12 45 12 94zM383 440q8 -180 180 -180q90 0 207 80l143 -231q-202 -135 -202 -211q0 -47 112 -48l-41 -161q-364 -49 -364 128q0 71 94 158q-221 2 -345 131t-124 351q0 141 54 279t153 237q162 162 379 162t325 -120
t107 -310q0 -129 -45 -265h-633z" />
    <glyph glyph-name="Ecaron" unicode="&#x11a;" horiz-adv-x="1169" 
d="M-33 0l350 1434h981l-81 -326h-609l-53 -234h547l-78 -307h-547l-57 -241h620l-84 -326h-989zM1292 1804l-299 -286h-321l-156 286h229l119 -102l166 102h262z" />
    <glyph glyph-name="ecaron" unicode="&#x11b;" horiz-adv-x="1089" 
d="M733 735q0 49 -31 85t-91 36t-116 -56t-85 -159h311q12 45 12 94zM528 1202l-153 318h219l119 -121l178 121h246l-312 -318h-297zM43 457q0 141 54 279t153 237q162 162 379 162t325 -120t107 -310q0 -130 -45 -265h-633q8 -180 180 -180q90 0 207 80l143 -231
q-168 -133 -392 -133t-351 128q-127 129 -127 353z" />
    <glyph glyph-name="Gbreve" unicode="&#x11e;" horiz-adv-x="1341" 
d="M678 -25q-246 0 -423 153t-177 437q0 183 68 363t192 303q226 227 550 227t513 -198l-246 -263q-129 121 -281 121t-256 -108q-74 -74 -116 -195t-41 -243q-1 -122 71 -196q72 -73 183 -73q68 0 127 23l53 223h-215l74 291h567l-188 -750q-209 -115 -455 -115zM944 1530
q-156 0 -236 74t-63 213h209q16 -84 126 -84t165 84h229q-50 -141 -162 -214t-268 -73z" />
    <glyph glyph-name="gbreve" unicode="&#x11f;" horiz-adv-x="1196" 
d="M786 1198q-155 0 -240 84t-83 231h219q4 -47 35 -77t86 -31q113 0 174 108h219q-43 -145 -149 -230t-261 -85zM547 367q72 0 127 55q92 100 92 254q0 78 -36 120t-100 42t-114 -54q-45 -46 -71 -120t-25 -142q0 -155 127 -155zM420 -311q-289 0 -502 129l143 250
q170 -106 338 -107q111 0 179 64q53 53 79 159l13 47q-134 -139 -284 -139t-243 95q-92 95 -92 254t57 312q56 153 152 248q132 133 314 133t272 -169l35 147h368l-221 -911q-61 -258 -178 -371q-141 -141 -430 -141z" />
    <glyph glyph-name="Gdotaccent" unicode="&#x120;" horiz-adv-x="1341" 
d="M678 -25q-246 0 -423 153t-177 437q0 183 68 363t192 303q226 227 550 227t513 -198l-246 -263q-129 121 -281 121t-256 -108q-74 -74 -116 -195t-41 -243q-1 -122 71 -196q72 -73 183 -73q68 0 127 23l53 223h-215l74 291h567l-188 -750q-209 -115 -455 -115zM786 1536
l68 266h322l-68 -266h-322z" />
    <glyph glyph-name="gdotaccent" unicode="&#x121;" horiz-adv-x="1196" 
d="M606 1204l72 277h319l-69 -277h-322zM547 367q72 0 127 55q92 100 92 254q0 78 -36 120t-100 42t-114 -54q-45 -46 -71 -120t-25 -142q0 -155 127 -155zM420 -311q-289 0 -502 129l143 250q170 -106 338 -107q111 0 179 64q53 53 79 159l13 47q-134 -139 -284 -139
t-243 95q-92 95 -92 254t57 312q56 153 152 248q132 133 314 133t272 -169l35 147h368l-221 -911q-61 -258 -178 -371q-141 -141 -430 -141z" />
    <glyph glyph-name="Gcommaaccent" unicode="&#x122;" horiz-adv-x="1341" 
d="M678 -25q-246 0 -423 153t-177 437q0 183 68 363t192 303q226 227 550 227t513 -198l-246 -263q-129 121 -281 121t-256 -108q-74 -74 -116 -195t-41 -243q-1 -122 71 -196q72 -73 183 -73q68 0 127 23l53 223h-215l74 291h567l-188 -750q-209 -115 -455 -115zM330 -592
l8 109q158 18 176 127h-133l65 254h304l-56 -220q-35 -138 -126 -200t-238 -70z" />
    <glyph glyph-name="gcommaaccent" unicode="&#x123;" horiz-adv-x="1196" 
d="M547 367q72 0 127 55q92 100 92 254q0 78 -36 120t-100 42t-114 -54q-45 -46 -71 -120t-25 -142q0 -155 127 -155zM420 -311q-289 0 -502 129l143 250q170 -106 338 -107q111 0 179 64q53 53 79 159l13 47q-134 -139 -284 -139t-243 95q-92 95 -92 254t57 312
q56 153 152 248q132 133 314 133t272 -169l35 147h368l-221 -911q-61 -258 -178 -371q-141 -141 -430 -141zM1028 1694l-8 -109q-158 -18 -176 -127h133l-66 -254h-303l56 219q35 137 126 200t238 71z" />
    <glyph glyph-name="Hbar" unicode="&#x126;" horiz-adv-x="1366" 
d="M571 889h387l46 184h-390zM127 1067l55 223h111l35 144h374l-34 -146h387l37 146h374l-34 -144h112l-57 -223h-111l-260 -1067h-377l135 553h-389l-133 -553h-375l261 1067h-111z" />
    <glyph glyph-name="hbar" unicode="&#x127;" horiz-adv-x="1138" 
d="M1114 848q0 -66 -29 -195l-157 -653h-369l150 616q14 57 14 99q0 92 -92 92q-119 0 -156 -164l-156 -643h-368l291 1200h-107l45 189h109l22 92h369l-23 -92h254l-45 -187h-256l-49 -207q127 139 267 139t214 -76q72 -77 72 -210z" />
    <glyph glyph-name="Imacron" unicode="&#x12a;" horiz-adv-x="600" 
d="M174 1524l59 229h730l-58 -229h-731zM-25 0l353 1434h374l-350 -1434h-377z" />
    <glyph glyph-name="imacron" unicode="&#x12b;" horiz-adv-x="557" 
d="M96 1196l58 225h682l-58 -225h-682zM-41 0l270 1112h369l-270 -1112h-369z" />
    <glyph glyph-name="Ibreve" unicode="&#x12c;" horiz-adv-x="600" 
d="M537 1513q-156 0 -237 74t-62 213h208q16 -84 126 -84t165 84h230q-51 -141 -163 -214t-267 -73zM-25 0l353 1434h374l-350 -1434h-377z" />
    <glyph glyph-name="ibreve" unicode="&#x12d;" horiz-adv-x="557" 
d="M456 1190q-155 0 -240 84t-83 231h219q4 -47 35 -78t86 -30q113 0 174 108h219q-43 -145 -149 -230t-261 -85zM-41 0l270 1112h369l-270 -1112h-369z" />
    <glyph glyph-name="Iogonek" unicode="&#x12e;" horiz-adv-x="600" 
d="M-61 -190q0 84 124 190h-88l353 1434h374l-350 -1434h-61q-61 -70 -62 -102q0 -47 113 -48l-39 -161q-208 -28 -303 23q-61 34 -61 98z" />
    <glyph glyph-name="iogonek" unicode="&#x12f;" horiz-adv-x="557" 
d="M246 1202l73 287h379l-73 -287h-379zM207 -102q0 -47 112 -48l-38 -161q-208 -28 -304 23q-61 34 -61 98q0 84 125 190h-82l272 1112h367l-270 -1112h-60q-61 -70 -61 -102z" />
    <glyph glyph-name="Idotaccent" unicode="&#x130;" horiz-adv-x="600" 
d="M379 1520l67 266h322l-68 -266h-321zM-25 0l353 1434h374l-350 -1434h-377z" />
    <glyph glyph-name="dotlessi" unicode="&#x131;" horiz-adv-x="557" 
d="M-41 0l270 1112h369l-270 -1112h-369z" />
    <glyph glyph-name="Kcommaaccent" unicode="&#x136;" horiz-adv-x="1282" 
d="M-33 0l350 1434h377l-135 -553l469 553h459l-574 -629l248 -805h-403l-146 532l-188 -198l-80 -334h-377zM262 -578l8 109q158 18 176 127h-133l66 254h303l-55 -219q-35 -137 -127 -200t-238 -71z" />
    <glyph glyph-name="kcommaaccent" unicode="&#x137;" horiz-adv-x="1081" 
d="M-49 0l362 1481h369l-170 -703l285 334h432l-430 -448l166 -664h-392l-79 410l-103 -113l-72 -297h-368zM127 -580l8 109q158 18 176 127h-133l66 254h303l-55 -219q-34 -137 -126 -200t-239 -71z" />
    <glyph glyph-name="Lacute" unicode="&#x139;" horiz-adv-x="1077" 
d="M-33 0l350 1434h377l-266 -1098h551l-86 -336h-926zM406 1516l278 309l340 -103l-330 -206h-288z" />
    <glyph glyph-name="lacute" unicode="&#x13a;" horiz-adv-x="557" 
d="M-41 0l363 1481h366l-360 -1481h-369zM377 1542l278 309l340 -102l-329 -207h-289z" />
    <glyph glyph-name="Lcommaaccent" unicode="&#x13b;" horiz-adv-x="1077" 
d="M-33 0l350 1434h377l-266 -1098h551l-86 -336h-926zM137 -580l8 109q158 18 177 127h-134l66 254h303l-55 -219q-34 -137 -126 -200t-239 -71z" />
    <glyph glyph-name="lcommaaccent" unicode="&#x13c;" horiz-adv-x="557" 
d="M-41 0l363 1481h366l-360 -1481h-369zM-139 -580l8 109q158 18 176 127h-133l65 254h304l-56 -219q-35 -137 -126 -200t-238 -71z" />
    <glyph glyph-name="Lcaron" unicode="&#x13d;" horiz-adv-x="1077" 
d="M-33 0l350 1434h377l-266 -1098h551l-86 -336h-926zM1049 1505v-6l-220 -409h-141l103 415h258z" />
    <glyph glyph-name="lcaron" unicode="&#x13e;" horiz-adv-x="557" 
d="M-41 0l363 1481h366l-360 -1481h-369zM1053 1602v-7l-219 -409h-142l103 416h258z" />
    <glyph glyph-name="Ldot" unicode="&#x13f;" horiz-adv-x="1071" 
d="M-33 0l350 1434h377l-266 -1098h551l-86 -336h-926zM707 657l79 312h301l-79 -312h-301z" />
    <glyph glyph-name="ldot" unicode="&#x140;" horiz-adv-x="788" 
d="M-41 0l363 1481h366l-360 -1481h-369zM557 610l78 305h258l-78 -305h-258z" />
    <glyph glyph-name="Lslash" unicode="&#x141;" horiz-adv-x="1144" 
d="M6 436l88 346l139 45l150 607h377l-115 -476l316 103l-87 -348l-313 -101l-67 -276h550l-86 -336h-925l117 481z" />
    <glyph glyph-name="lslash" unicode="&#x142;" horiz-adv-x="706" 
d="M8 475l84 338l154 49l151 619h367l-121 -490l160 51l-86 -340l-156 -49l-158 -653h-368l127 524z" />
    <glyph glyph-name="Nacute" unicode="&#x143;" horiz-adv-x="1384" 
d="M-33 0l350 1434h355l268 -772l186 772h371l-350 -1434h-334l-283 803l-192 -803h-371zM774 1516l279 309l340 -103l-330 -206h-289z" />
    <glyph glyph-name="nacute" unicode="&#x144;" horiz-adv-x="1134" 
d="M1114 848q0 -66 -29 -195l-157 -653h-369l150 616q14 57 14 99q0 92 -92 92q-119 0 -156 -164l-156 -643h-368l272 1112h367l-29 -117q127 139 267 139t214 -76q72 -77 72 -210zM580 1200l284 354l324 -108l-340 -246h-268z" />
    <glyph glyph-name="Ncommaaccent" unicode="&#x145;" horiz-adv-x="1384" 
d="M-33 0l350 1434h355l268 -772l186 772h371l-350 -1434h-334l-283 803l-192 -803h-371zM270 -578l9 109q158 18 176 127h-133l65 254h303l-55 -219q-35 -137 -127 -200t-238 -71z" />
    <glyph glyph-name="ncommaaccent" unicode="&#x146;" horiz-adv-x="1134" 
d="M1114 848q0 -66 -29 -195l-157 -653h-369l150 616q14 57 14 99q0 92 -92 92q-119 0 -156 -164l-156 -643h-368l272 1112h367l-29 -117q127 139 267 139t214 -76q72 -77 72 -210zM141 -580l9 109q158 18 176 127h-133l65 254h303l-55 -219q-34 -137 -126 -200t-239 -71z
" />
    <glyph glyph-name="Ncaron" unicode="&#x147;" horiz-adv-x="1384" 
d="M-33 0l350 1434h355l268 -772l186 772h371l-350 -1434h-334l-283 803l-192 -803h-371zM1391 1804l-299 -286h-322l-156 286h230l119 -102l165 102h263z" />
    <glyph glyph-name="ncaron" unicode="&#x148;" horiz-adv-x="1134" 
d="M1114 848q0 -66 -29 -195l-157 -653h-369l150 616q14 57 14 99q0 92 -92 92q-119 0 -156 -164l-156 -643h-368l272 1112h367l-29 -117q127 139 267 139t214 -76q72 -77 72 -210zM541 1202l-154 318h219l119 -121l178 121h246l-311 -318h-297z" />
    <glyph glyph-name="Omacron" unicode="&#x14c;" horiz-adv-x="1421" 
d="M686 313q106 0 184 78t122 208t44 253t-58 196q-58 72 -167 72t-188 -84q-72 -72 -116 -202t-44 -253q0 -122 58 -195q59 -73 165 -73zM828 1460q274 0 432 -162t157 -430q1 -184 -69 -373t-197 -315q-207 -207 -481 -207t-430 162q-158 162 -158 430q0 183 70 373
t196 317q206 205 480 205zM573 1540l60 229h729l-57 -229h-732z" />
    <glyph glyph-name="omacron" unicode="&#x14d;" horiz-adv-x="1155" 
d="M397 465q1 -86 39 -134t102 -48t111 51q49 47 79 135t30 175t-37 135t-101 48t-113 -48q-48 -48 -79 -138t-31 -176zM634 1135q224 -1 350 -133t126 -347q0 -143 -53 -282t-148 -234q-160 -164 -385 -164q-225 1 -351 133t-126 347q0 145 52 283t149 235q162 162 386 162
zM391 1204l58 226h681l-57 -226h-682z" />
    <glyph glyph-name="Obreve" unicode="&#x14e;" horiz-adv-x="1421" 
d="M686 313q106 0 184 78t122 208t44 253t-58 196q-58 72 -167 72t-188 -84q-72 -72 -116 -202t-44 -253q0 -122 58 -195q59 -73 165 -73zM828 1460q274 0 432 -162t157 -430q1 -184 -69 -373t-197 -315q-207 -207 -481 -207t-430 162q-158 162 -158 430q0 183 70 373
t196 317q206 205 480 205zM934 1530q-156 0 -237 74t-62 213h209q16 -84 126 -84t165 84h229q-50 -141 -162 -214t-268 -73z" />
    <glyph glyph-name="obreve" unicode="&#x14f;" horiz-adv-x="1155" 
d="M751 1198q-155 0 -240 84t-83 231h219q4 -47 35 -77t86 -31q113 0 174 108h219q-43 -145 -149 -230t-261 -85zM397 465q1 -86 39 -134t102 -48t111 51q49 47 79 135t30 175t-37 135t-101 48t-113 -48q-48 -48 -79 -138t-31 -176zM634 1135q224 -1 350 -133t126 -347
q0 -143 -53 -282t-148 -234q-160 -164 -385 -164q-225 1 -351 133t-126 347q0 145 52 283t149 235q162 162 386 162z" />
    <glyph glyph-name="Ohungarumlaut" unicode="&#x150;" horiz-adv-x="1421" 
d="M946 1532l160 182l-275 -182h-258l269 309l291 -96l86 96l307 -102l-318 -207h-262zM686 313q106 0 184 78t122 208t44 253t-58 196q-58 72 -167 72t-188 -84q-72 -72 -116 -202t-44 -253q0 -122 58 -195q59 -73 165 -73zM828 1460q274 0 432 -162t157 -430
q1 -184 -69 -373t-197 -315q-207 -207 -481 -207t-430 162q-158 162 -158 430q0 183 70 373t196 317q206 205 480 205z" />
    <glyph glyph-name="ohungarumlaut" unicode="&#x151;" horiz-adv-x="1155" 
d="M397 465q1 -86 39 -134t102 -48t111 51q49 47 79 135t30 175t-37 135t-101 48t-113 -48q-48 -48 -79 -138t-31 -176zM692 1200l185 240l-316 -240h-239l278 354l283 -106l82 106l290 -106l-321 -248h-242zM634 1135q224 -1 350 -133t126 -347q0 -143 -53 -282t-148 -234
q-160 -164 -385 -164q-225 1 -351 133t-126 347q0 145 52 283t149 235q162 162 386 162z" />
    <glyph glyph-name="OE" unicode="&#x152;" horiz-adv-x="1871" 
d="M930 1098q-326 0 -424 -290q-37 -108 -37 -224t67 -182q67 -67 212 -66h40l183 762h-41zM725 0q-330 0 -502 168q-141 141 -141 407q0 164 63 336t185 293q229 229 653 230h1024l-82 -326h-579l-52 -234h516l-77 -307h-516l-58 -241h590l-84 -326h-940z" />
    <glyph glyph-name="oe" unicode="&#x153;" horiz-adv-x="1785" 
d="M1310 856q-60 0 -115 -54q-56 -54 -89 -161h313q28 122 -19 179q-30 36 -90 36zM397 465q1 -86 39 -134t102 -48t111 51q49 47 79 135t30 175t-37 135t-101 48t-113 -48q-48 -48 -79 -138t-31 -176zM506 -25q-208 1 -334 133q-125 132 -125 347q0 145 52 283t149 235
q162 162 390 162t343 -166q152 166 359 166t313 -121t106 -309q0 -124 -47 -265h-633q8 -180 182 -180q90 0 205 80l144 -231q-168 -133 -396 -133t-346 159q-154 -160 -362 -160z" />
    <glyph glyph-name="Racute" unicode="&#x154;" horiz-adv-x="1282" 
d="M678 1516l278 309l340 -103l-329 -206h-289zM664 735q139 0 208 68q60 63 60 143t-41 117q-43 45 -148 45h-131l-88 -373h140zM1319 1004q0 -383 -377 -508l180 -496h-409l-150 436h-117l-102 -436h-377l350 1434h437q317 0 454 -138q111 -111 111 -292z" />
    <glyph glyph-name="racute" unicode="&#x155;" horiz-adv-x="772" 
d="M758 735q-137 0 -218 -75t-122 -242l-99 -418h-368l272 1112h367l-47 -190q139 223 342 208l-103 -395h-24zM414 1192l284 354l324 -108l-340 -246h-268z" />
    <glyph glyph-name="Rcommaaccent" unicode="&#x156;" horiz-adv-x="1282" 
d="M664 735q139 0 208 68q60 63 60 143t-41 117q-43 45 -148 45h-131l-88 -373h140zM215 -578l8 109q158 18 176 127h-133l66 254h303l-55 -219q-34 -137 -126 -200t-239 -71zM1319 1004q0 -383 -377 -508l180 -496h-409l-150 436h-117l-102 -436h-377l350 1434h437
q317 0 454 -138q111 -111 111 -292z" />
    <glyph glyph-name="rcommaaccent" unicode="&#x157;" horiz-adv-x="772" 
d="M758 735q-137 0 -218 -75t-122 -242l-99 -418h-368l272 1112h367l-47 -190q139 223 342 208l-103 -395h-24zM-135 -580l8 109q158 18 176 127h-133l66 254h303l-56 -219q-35 -137 -126 -200t-238 -71z" />
    <glyph glyph-name="Rcaron" unicode="&#x158;" horiz-adv-x="1282" 
d="M664 735q139 0 208 68q60 63 60 143t-41 117q-43 45 -148 45h-131l-88 -373h140zM1298 1804l-299 -286h-321l-156 286h230l118 -102l166 102h262zM1319 1004q0 -383 -377 -508l180 -496h-409l-150 436h-117l-102 -436h-377l350 1434h437q317 0 454 -138
q111 -111 111 -292z" />
    <glyph glyph-name="rcaron" unicode="&#x159;" horiz-adv-x="772" 
d="M758 735q-137 0 -218 -75t-122 -242l-99 -418h-368l272 1112h367l-47 -190q139 223 342 208l-103 -395h-24zM371 1194l-154 317h219l119 -120l178 120h246l-311 -317h-297z" />
    <glyph glyph-name="Sacute" unicode="&#x15a;" horiz-adv-x="1134" 
d="M627 1532l278 309l340 -102l-330 -207h-288zM512 -23q-340 0 -565 242l229 264q188 -184 359 -184q57 0 91 28q34 29 34 71t-36 78t-170 115t-208 171q-72 92 -72 219q0 193 129 322q154 154 406 153q297 0 508 -201l-226 -266q-156 145 -303 146q-57 0 -91 -28t-34 -68
q0 -39 36 -73t153 -106q152 -88 226 -180t75 -225q1 -195 -141 -337t-400 -141z" />
    <glyph glyph-name="sacute" unicode="&#x15b;" horiz-adv-x="907" 
d="M397 -25q-276 0 -477 191l180 229q156 -152 299 -151q39 0 61 18t22 48t-28 54t-134 87t-165 135q-58 72 -59 174q0 160 117 268t315 107q244 0 426 -158l-174 -236q-141 125 -262 125q-32 0 -54 -16t-22 -44t26 -50t134 -86t168 -138q59 -74 59 -180q-1 -156 -115 -266
t-317 -111zM457 1200l284 354l324 -108l-340 -246h-268z" />
    <glyph glyph-name="Scedilla" unicode="&#x15e;" horiz-adv-x="1134" 
d="M535 299q57 0 91 28q34 29 34 71t-36 78t-170 115t-208 171q-72 92 -72 219q0 193 129 322q154 154 406 153q297 0 508 -201l-226 -266q-156 145 -303 146q-57 0 -91 -28t-34 -68q0 -39 36 -73t153 -106q152 -88 226 -180t75 -225q0 -195 -138 -333t-389 -145l-174 -305
l-280 117l215 219q-201 59 -340 211l229 264q188 -184 359 -184z" />
    <glyph glyph-name="scedilla" unicode="&#x15f;" horiz-adv-x="907" 
d="M528 1135q244 0 426 -158l-174 -236q-141 125 -262 125q-32 0 -54 -16t-22 -44t26 -50t134 -86t168 -138q59 -74 59 -180q1 -150 -107 -260t-296 -117l-172 -303l-281 117l213 217q-150 49 -266 160l180 229q156 -152 299 -151q39 0 61 18t22 48t-28 54t-134 87t-165 135
q-58 72 -59 174q0 160 117 268t315 107z" />
    <glyph glyph-name="Scaron" unicode="&#x160;" horiz-adv-x="1134" 
d="M1245 1821l-299 -287h-321l-156 287h229l119 -103l166 103h262zM512 -23q-340 0 -565 242l229 264q188 -184 359 -184q57 0 91 28q34 29 34 71t-36 78t-170 115t-208 171q-72 92 -72 219q0 193 129 322q154 154 406 153q297 0 508 -201l-226 -266q-156 145 -303 146
q-57 0 -91 -28t-34 -68q0 -39 36 -73t153 -106q152 -88 226 -180t75 -225q1 -195 -141 -337t-400 -141z" />
    <glyph glyph-name="scaron" unicode="&#x161;" horiz-adv-x="907" 
d="M397 -25q-276 0 -477 191l180 229q156 -152 299 -151q39 0 61 18t22 48t-28 54t-134 87t-165 135q-58 72 -59 174q0 160 117 268t315 107q244 0 426 -158l-174 -236q-141 125 -262 125q-32 0 -54 -16t-22 -44t26 -50t134 -86t168 -138q59 -74 59 -180q-1 -156 -115 -266
t-317 -111zM420 1202l-154 318h219l119 -121l178 121h246l-311 -318h-297z" />
    <glyph glyph-name="Tcommaaccent" unicode="&#x162;" horiz-adv-x="1126" 
d="M238 0l266 1098h-352l86 336h1079l-86 -336h-350l-267 -1098h-376zM141 -580l9 109q158 18 176 127h-133l65 254h303l-55 -219q-34 -137 -126 -200t-239 -71z" />
    <glyph glyph-name="tcommaaccent" unicode="&#x163;" horiz-adv-x="763" 
d="M353 -20q-129 0 -206 62q-76 62 -75 179q0 55 20 141l109 453h-111l74 297h110l66 272h369l-66 -272h205l-76 -297h-203l-98 -407q-8 -31 -8 -60q0 -53 61 -53t129 24l-75 -301q-96 -38 -225 -38zM12 -588l8 109q158 18 177 127h-134l66 254h303l-55 -219
q-35 -137 -127 -200t-238 -71z" />
    <glyph glyph-name="Tcaron" unicode="&#x164;" horiz-adv-x="1126" 
d="M238 0l266 1098h-352l86 336h1079l-86 -336h-350l-267 -1098h-376zM1264 1804l-299 -286h-322l-156 286h230l119 -102l165 102h263z" />
    <glyph glyph-name="tcaron" unicode="&#x165;" horiz-adv-x="763" 
d="M353 -20q-129 0 -206 62q-76 62 -75 179q0 55 20 141l109 453h-111l74 297h110l66 272h369l-66 -272h205l-76 -297h-203l-98 -407q-8 -31 -8 -60q0 -53 61 -53t129 24l-75 -301q-96 -38 -225 -38zM1090 1604v-7l-220 -409h-141l102 416h259z" />
    <glyph glyph-name="Umacron" unicode="&#x16a;" horiz-adv-x="1347" 
d="M594 -25q-240 0 -373 117t-133 326q0 96 33 231l188 785h379l-196 -813q-20 -88 -20 -154t43 -109q44 -43 129 -43q85 1 143 59t94 195l209 865h376l-219 -910q-68 -260 -196 -389q-156 -160 -457 -160zM541 1524l59 229h729l-57 -229h-731z" />
    <glyph glyph-name="umacron" unicode="&#x16b;" horiz-adv-x="1138" 
d="M383 1196l57 225h682l-57 -225h-682zM301 -23q-127 0 -199 77t-71 210q0 80 28 195l158 653h369l-150 -616q-14 -55 -14 -99q0 -92 92 -92q119 0 156 164l155 643h367l-270 -1112h-367l29 119q-125 -142 -283 -142z" />
    <glyph glyph-name="Ubreve" unicode="&#x16c;" horiz-adv-x="1347" 
d="M594 -25q-240 0 -373 117t-133 326q0 96 33 231l188 785h379l-196 -813q-20 -88 -20 -154t43 -109q44 -43 129 -43q85 1 143 59t94 195l209 865h376l-219 -910q-68 -260 -196 -389q-156 -160 -457 -160zM895 1499q-156 0 -237 74t-62 213h209q15 -84 125 -84t166 84h229
q-51 -141 -163 -214t-267 -73z" />
    <glyph glyph-name="ubreve" unicode="&#x16d;" horiz-adv-x="1138" 
d="M745 1190q-155 0 -240 84t-83 231h219q4 -47 35 -78t86 -30q113 0 174 108h219q-43 -145 -149 -230t-261 -85zM301 -23q-127 0 -199 77t-71 210q0 80 28 195l158 653h369l-150 -616q-14 -55 -14 -99q0 -92 92 -92q119 0 156 164l155 643h367l-270 -1112h-367l29 119
q-125 -142 -283 -142z" />
    <glyph glyph-name="Uring" unicode="&#x16e;" horiz-adv-x="1347" 
d="M936 1593q60 0 100 42q40 41 39 91q0 50 -33 80q-34 30 -94 29q-60 0 -100 -42t-39 -91q0 -49 33 -79q34 -30 94 -30zM954 1950q116 0 184 -60t68 -160q0 -98 -80 -176t-195 -78t-186 62q-69 61 -69 159q0 97 81 175t197 78zM594 -25q-240 0 -373 117t-133 326
q0 96 33 231l188 785h379l-196 -813q-20 -88 -20 -154t43 -109q44 -43 129 -43q85 1 143 59t94 195l209 865h376l-219 -910q-68 -260 -196 -389q-156 -160 -457 -160z" />
    <glyph glyph-name="uring" unicode="&#x16f;" horiz-adv-x="1138" 
d="M301 -23q-127 0 -199 77t-71 210q0 80 28 195l158 653h369l-150 -616q-14 -55 -14 -99q0 -92 92 -92q119 0 156 164l155 643h367l-270 -1112h-367l29 119q-125 -142 -283 -142zM653 1398q0 -54 28 -84t79 -30t89 45t38 99t-28 84t-79 30t-89 -45t-38 -99zM784 1653
q106 1 168 -59t62 -160t-76 -180t-184 -80t-168 58q-62 58 -62 158t77 182q77 81 183 81z" />
    <glyph glyph-name="Uhungarumlaut" unicode="&#x170;" horiz-adv-x="1347" 
d="M913 1516l160 182l-274 -182h-258l268 309l291 -96l86 96l307 -103l-317 -206h-263zM594 -25q-240 0 -373 117t-133 326q0 96 33 231l188 785h379l-196 -813q-20 -88 -20 -154t43 -109q44 -43 129 -43q85 1 143 59t94 195l209 865h376l-219 -910q-68 -260 -196 -389
q-156 -160 -457 -160z" />
    <glyph glyph-name="uhungarumlaut" unicode="&#x171;" horiz-adv-x="1138" 
d="M684 1192l184 240l-315 -240h-240l279 354l282 -106l82 106l291 -106l-321 -248h-242zM301 -23q-127 0 -199 77t-71 210q0 80 28 195l158 653h369l-150 -616q-14 -55 -14 -99q0 -92 92 -92q119 0 156 164l155 643h367l-270 -1112h-367l29 119q-125 -142 -283 -142z" />
    <glyph glyph-name="Uogonek" unicode="&#x172;" horiz-adv-x="1347" 
d="M88 418q0 96 33 231l188 785h379l-196 -813q-20 -88 -20 -154t43 -109q44 -43 129 -43q85 1 143 59t94 195l209 865h376l-219 -910q-67 -260 -203 -397t-405 -150q-41 -49 -41 -79q0 -48 113 -48l-39 -161q-362 -49 -364 131q0 74 116 174q-162 38 -249 146t-87 278z" />
    <glyph glyph-name="uogonek" unicode="&#x173;" horiz-adv-x="1138" 
d="M301 -23q-127 0 -199 77t-71 210q0 80 28 195l158 653h369l-150 -616q-14 -55 -14 -99q0 -92 92 -92q119 0 156 164l155 643h367l-270 -1112h-60q-61 -70 -61 -102q0 -47 112 -48l-39 -161q-208 -28 -303 23q-61 34 -61 98q0 88 125 190h-80l29 119q-125 -142 -283 -142z
" />
    <glyph glyph-name="Wcircumflex" unicode="&#x174;" horiz-adv-x="1968" 
d="M805 1518l297 286h323l156 -286h-231l-117 102l-168 -102h-260zM266 -8l-47 1442h387l-8 -838l424 842h321l29 -842l389 838h408l-752 -1442h-348l-37 796l-420 -796h-346z" />
    <glyph glyph-name="wcircumflex" unicode="&#x175;" horiz-adv-x="1554" 
d="M1063 1116v-579l252 575h358l-567 -1120h-318l-10 573l-284 -573h-322l-16 1120h356l-25 -573l273 577h303zM537 1194l311 317h299l153 -317h-221l-118 123l-177 -123h-247z" />
    <glyph glyph-name="Ycircumflex" unicode="&#x176;" horiz-adv-x="1198" 
d="M410 1518l297 286h323l156 -286h-232l-116 102l-168 -102h-260zM262 0l133 555l-223 879h399l93 -527l346 527h436l-680 -910l-129 -524h-375z" />
    <glyph glyph-name="ycircumflex" unicode="&#x177;" horiz-adv-x="1114" 
d="M315 1194l312 317h299l153 -317h-221l-119 123l-176 -123h-248zM260 12l-98 1100h370l11 -663l307 663h385l-600 -1102q-97 -176 -195 -250t-248 -74t-264 87l144 258q66 -51 114 -51t74 32z" />
    <glyph glyph-name="Ydieresis" unicode="&#x178;" horiz-adv-x="1198" 
d="M858 1520l68 266h311l-68 -266h-311zM455 1520l65 266h311l-67 -266h-309zM262 0l133 555l-223 879h399l93 -527l346 527h436l-680 -910l-129 -524h-375z" />
    <glyph glyph-name="Zacute" unicode="&#x179;" horiz-adv-x="1189" 
d="M662 1516l278 309l340 -103l-330 -206h-288zM-70 0l72 283l762 827h-549l82 324h1042l-69 -283l-764 -827h571l-82 -324h-1065z" />
    <glyph glyph-name="zacute" unicode="&#x17a;" horiz-adv-x="978" 
d="M-80 0l64 250l546 569h-401l74 293h860l-62 -250l-550 -567h419l-73 -295h-877zM489 1192l285 354l324 -108l-340 -246h-269z" />
    <glyph glyph-name="Zdotaccent" unicode="&#x17b;" horiz-adv-x="1189" 
d="M-70 0l72 283l762 827h-549l82 324h1042l-69 -283l-764 -827h571l-82 -324h-1065zM653 1520l68 266h321l-67 -266h-322z" />
    <glyph glyph-name="zdotaccent" unicode="&#x17c;" horiz-adv-x="978" 
d="M473 1196l72 277h319l-69 -277h-322zM-80 0l64 250l546 569h-401l74 293h860l-62 -250l-550 -567h419l-73 -295h-877z" />
    <glyph glyph-name="Zcaron" unicode="&#x17d;" horiz-adv-x="1189" 
d="M-70 0l72 283l762 827h-549l82 324h1042l-69 -283l-764 -827h571l-82 -324h-1065zM1278 1804l-299 -286h-322l-155 286h229l119 -102l166 102h262z" />
    <glyph glyph-name="zcaron" unicode="&#x17e;" horiz-adv-x="978" 
d="M-80 0l64 250l546 569h-401l74 293h860l-62 -250l-550 -567h419l-73 -295h-877zM453 1194l-154 317h219l119 -120l178 120h246l-311 -317h-297z" />
    <glyph glyph-name="Aringacute" unicode="&#x1fa;" horiz-adv-x="1370" 
d="M582 563h235l-20 422zM788 1501q0 -49 33 -79t93 -29q60 0 101 42q40 42 40 91t-33 79q-34 29 -94 29t-100 -42t-40 -91zM838 1794l282 279l332 -105l-336 -174h-278zM655 1487q0 106 82 184q81 78 197 78t185 -60t69 -158t-80 -173l139 -1358h-389l-18 262h-432
l-144 -262h-401l819 1386q-27 45 -27 101z" />
    <glyph glyph-name="aringacute" unicode="&#x1fb;" horiz-adv-x="1077" 
d="M762 1571q-51 1 -89 -45t-38 -100t28 -84q29 -30 79 -30t88 46q38 45 38 99t-27 84q-28 30 -79 30zM995 1464q1 -100 -75 -181t-184 -81t-168 58q-62 58 -62 160q0 100 77 181t183 81t168 -60q62 -58 61 -158zM432 209q59 0 106 51q46 51 64 125l19 78q-57 23 -122 23
t-106 -44q-51 -47 -51 -140t90 -93zM674 729q0 106 -156 107q-125 0 -254 -54l-59 279q180 65 394 65t328 -85t113 -240q0 -80 -26 -183l-148 -618h-362l24 106q-127 -126 -260 -126t-206 78t-72 206q0 186 114 300t322 114q111 0 233 -43q15 48 15 94zM682 1747l287 297
l321 -102l-338 -195h-270z" />
    <glyph glyph-name="AEacute" unicode="&#x1fc;" horiz-adv-x="1873" 
d="M616 563h236l133 559h-24zM-152 0l955 1434h1206l-84 -326h-575l-54 -234h519l-78 -307h-518l-58 -241h590l-84 -326h-954l63 262h-364l-164 -262h-400zM1106 1516l278 309l340 -103l-329 -206h-289z" />
    <glyph glyph-name="aeacute" unicode="&#x1fd;" horiz-adv-x="1665" 
d="M1188 856q-60 0 -116 -54t-89 -161h313q27 123 -19 179q-29 36 -89 36zM449 211q47 0 101 32t97 81q-12 66 -10 133q-57 29 -130 29t-114 -44q-49 -45 -49 -129q1 -102 105 -102zM815 1192l285 354l323 -108l-340 -246h-268zM956 440q8 -180 182 -180q90 0 205 80
l144 -231q-168 -134 -395 -134q-264 0 -379 191q-174 -186 -408 -186q-155 0 -235 78t-80 212q0 180 114 294t322 114q111 0 233 -43q15 48 15 94q0 106 -156 107q-125 0 -254 -54l-59 279q180 65 398 65t310 -118q147 127 331 127t288 -121t104 -309q0 -123 -47 -265h-633z
" />
    <glyph glyph-name="Oslashacute" unicode="&#x1fe;" horiz-adv-x="1421" 
d="M770 1532l279 309l340 -102l-330 -207h-289zM451 588q0 -39 2 -56l505 555q-58 47 -158 47t-179 -80q-79 -81 -125 -215t-45 -251zM692 299q104 0 191 90q74 72 119 205q46 133 47 252q0 23 -5 63l-509 -559q53 -51 157 -51zM844 1460q219 0 368 -121l101 105h268
l-246 -250q82 -138 82 -324q1 -186 -69 -375t-197 -315q-207 -207 -496 -207q-223 0 -372 121l-97 -104h-268l242 250q-78 137 -78 323q0 185 70 375t196 317q205 205 496 205z" />
    <glyph glyph-name="oslashacute" unicode="&#x1ff;" horiz-adv-x="1155" 
d="M614 842q-62 0 -113 -52q-52 -52 -84 -144q-32 -91 -32 -175v-14l326 356q-35 29 -97 29zM772 641v12l-328 -354q39 -29 101 -29t114 54q52 53 82 142q31 89 31 175zM575 1200l285 354l324 -108l-340 -246h-269zM639 1137q180 0 301 -95l78 78h244l-211 -209
q59 -109 59 -254t-52 -283t-147 -235q-168 -164 -393 -164q-180 0 -301 95l-78 -80h-243l210 209q-59 113 -59 257t53 283t148 234q164 164 391 164z" />
    <glyph glyph-name="Scommaaccent" unicode="&#x218;" horiz-adv-x="1134" 
d="M512 -23q-340 0 -565 242l229 264q188 -184 359 -184q57 0 91 28q34 29 34 71t-36 78t-170 115t-208 171q-72 92 -72 219q0 193 129 322q154 154 406 153q297 0 508 -201l-226 -266q-156 145 -303 146q-57 0 -91 -28t-34 -68q0 -39 36 -73t153 -106q152 -88 226 -180
t75 -225q1 -195 -141 -337t-400 -141zM150 -592l8 109q158 18 176 127h-133l65 254h303l-55 -220q-35 -138 -126 -200t-238 -70z" />
    <glyph glyph-name="scommaaccent" unicode="&#x219;" horiz-adv-x="907" 
d="M397 -25q-276 0 -477 191l180 229q156 -152 299 -151q39 0 61 18t22 48t-28 54t-134 87t-165 135q-58 72 -59 174q0 160 117 268t315 107q244 0 426 -158l-174 -236q-141 125 -262 125q-32 0 -54 -16t-22 -44t26 -50t134 -86t168 -138q59 -74 59 -180q-1 -156 -115 -266
t-317 -111zM33 -584l8 109q158 18 176 127h-133l66 254h303l-56 -219q-35 -137 -126 -200t-238 -71z" />
    <glyph glyph-name="schwa" unicode="&#x259;" horiz-adv-x="1089" 
d="M478 256q60 0 115 54q54 54 87 161h-311q-32 -121 18 -179q31 -36 91 -36zM707 672q-9 180 -181 180q-90 0 -207 -80l-143 232q168 133 392 133t352 -129t127 -353q-1 -141 -55 -279t-152 -237q-162 -162 -380 -162q-218 1 -324 121q-107 120 -107 310q0 129 45 264h633z
" />
    <glyph glyph-name="circumflex" unicode="&#x2c6;" 
d="M285 1194l311 317h299l154 -317h-222l-118 123l-177 -123h-247z" />
    <glyph glyph-name="caron" unicode="&#x2c7;" 
d="M516 1194l-154 317h220l118 -120l179 120h245l-311 -317h-297z" />
    <glyph glyph-name="breve" unicode="&#x2d8;" 
d="M702 1190q-155 0 -240 84t-83 231h219q4 -47 35 -78t86 -30q113 0 174 108h219q-43 -145 -149 -230t-261 -85z" />
    <glyph glyph-name="dotaccent" unicode="&#x2d9;" 
d="M508 1196l72 277h319l-70 -277h-321z" />
    <glyph glyph-name="ring" unicode="&#x2da;" 
d="M735 1563q-51 1 -89 -45t-38 -100t28 -84t79 -30t89 46q38 45 38 99t-28 84t-79 30zM740 1673q106 1 168 -59t61 -160q0 -100 -76 -180q-75 -80 -183 -80t-169 58t-61 159t76 181q78 80 184 81z" />
    <glyph glyph-name="ogonek" unicode="&#x2db;" 
d="M166 -190q0 94 156 215l221 2q-86 -98 -86 -129q-1 -48 112 -48l-39 -161q-208 -28 -303 23q-61 34 -61 98z" />
    <glyph glyph-name="tilde" unicode="&#x2dc;" 
d="M862 1192q-82 0 -173 40t-121 40t-52 -20t-49 -70l-176 51q53 143 115 212t142 69q79 0 168 -40q89 -38 123 -38t56 20t49 68l176 -51q-53 -143 -114 -212q-62 -69 -144 -69z" />
    <glyph glyph-name="hungarumlaut" unicode="&#x2dd;" 
d="M618 1192l185 240l-316 -240h-239l278 354l283 -106l82 106l291 -106l-322 -248h-242z" />
    <glyph glyph-name="commaaccent" unicode="&#x326;" 
d="M94 -580l8 109q158 18 177 127h-134l66 254h303l-55 -219q-35 -137 -127 -200t-238 -71z" />
    <glyph glyph-name="Wgrave" unicode="&#x1e80;" horiz-adv-x="1968" 
d="M266 -8l-47 1442h387l-8 -838l424 842h321l29 -842l389 838h408l-752 -1442h-348l-37 796l-420 -796h-346zM1067 1516l-231 206l352 103l131 -309h-252z" />
    <glyph glyph-name="wgrave" unicode="&#x1e81;" horiz-adv-x="1554" 
d="M807 1192l-221 246l338 108l116 -354h-233zM1063 1116v-579l252 575h358l-567 -1120h-318l-10 573l-284 -573h-322l-16 1120h356l-25 -573l273 577h303z" />
    <glyph glyph-name="Wacute" unicode="&#x1e82;" horiz-adv-x="1968" 
d="M266 -8l-47 1442h387l-8 -838l424 842h321l29 -842l389 838h408l-752 -1442h-348l-37 796l-420 -796h-346zM1055 1516l278 309l340 -103l-330 -206h-288z" />
    <glyph glyph-name="wacute" unicode="&#x1e83;" horiz-adv-x="1554" 
d="M1063 1116v-579l252 575h358l-567 -1120h-318l-10 573l-284 -573h-322l-16 1120h356l-25 -573l273 577h303zM791 1192l284 354l324 -108l-340 -246h-268z" />
    <glyph glyph-name="Wdieresis" unicode="&#x1e84;" horiz-adv-x="1968" 
d="M266 -8l-47 1442h387l-8 -838l424 842h321l29 -842l389 838h408l-752 -1442h-348l-37 796l-420 -796h-346zM1253 1520l68 266h311l-67 -266h-312zM850 1520l65 266h312l-68 -266h-309z" />
    <glyph glyph-name="wdieresis" unicode="&#x1e85;" horiz-adv-x="1554" 
d="M1063 1116v-579l252 575h358l-567 -1120h-318l-10 573l-284 -573h-322l-16 1120h356l-25 -573l273 577h303zM977 1196l72 279h307l-70 -279h-309zM578 1196l69 279h309l-69 -279h-309z" />
    <glyph glyph-name="Ygrave" unicode="&#x1ef2;" horiz-adv-x="1198" 
d="M674 1516l-232 206l353 103l131 -309h-252zM262 0l133 555l-223 879h399l93 -527l346 527h436l-680 -910l-129 -524h-375z" />
    <glyph glyph-name="ygrave" unicode="&#x1ef3;" horiz-adv-x="1114" 
d="M590 1192l-221 246l338 108l116 -354h-233zM260 12l-98 1100h370l11 -663l307 663h385l-600 -1102q-97 -176 -195 -250t-248 -74t-264 87l144 258q66 -51 114 -51t74 32z" />
    <glyph glyph-name="enspace" unicode="&#x2002;" 
 />
    <glyph glyph-name="emspace" unicode="&#x2003;" horiz-adv-x="2048" 
 />
    <glyph glyph-name="threeperemspace" unicode="&#x2004;" horiz-adv-x="681" 
 />
    <glyph glyph-name="fourperemspace" unicode="&#x2005;" horiz-adv-x="512" 
 />
    <glyph glyph-name="thinspace" unicode="&#x2009;" horiz-adv-x="272" 
 />
    <glyph glyph-name="hairspace" unicode="&#x200a;" horiz-adv-x="153" 
 />
    <glyph glyph-name="endash" unicode="&#x2013;" horiz-adv-x="1007" 
d="M53 479l80 320h862l-80 -320h-862z" />
    <glyph glyph-name="emdash" unicode="&#x2014;" horiz-adv-x="1658" 
d="M53 479l80 320h1514l-80 -320h-1514z" />
    <glyph glyph-name="quoteleft" unicode="&#x2018;" horiz-adv-x="567" 
d="M113 735l82 332q47 190 160 280q114 89 321 99l16 -146q-219 -23 -256 -182h158l-96 -383h-385z" />
    <glyph glyph-name="quoteright" unicode="&#x2019;" horiz-adv-x="567" 
d="M123 723l-17 145q221 23 256 183h-157l96 383h385l-82 -332q-46 -190 -160 -280t-321 -99z" />
    <glyph glyph-name="quotesinglbase" unicode="&#x201a;" horiz-adv-x="567" 
d="M-127 -328l-16 144q221 27 256 184h-156l94 383h385l-82 -332q-46 -193 -160 -281t-321 -98z" />
    <glyph glyph-name="quotedblleft" unicode="&#x201c;" horiz-adv-x="1064" 
d="M618 733l82 332q47 191 159 281t317 98l16 -146q-213 -23 -250 -182h152l-97 -383h-379zM115 733l82 332q47 190 158 281q112 90 317 98l16 -146q-213 -23 -248 -182h150l-96 -383h-379z" />
    <glyph glyph-name="quotedblright" unicode="&#x201d;" horiz-adv-x="1064" 
d="M627 723l-17 145q215 23 250 183h-149l96 383h379l-82 -332q-48 -190 -160 -280t-317 -99zM123 723l-14 145q213 23 247 183h-149l96 383h379l-82 -332q-48 -190 -160 -280t-317 -99z" />
    <glyph glyph-name="quotedblbase" unicode="&#x201e;" horiz-adv-x="1064" 
d="M375 -328l-17 144q215 25 250 184h-149l96 383h379l-82 -332q-48 -191 -160 -281t-317 -98zM-127 -328l-16 144q215 25 249 184h-149l94 383h379l-82 -332q-46 -191 -158 -281t-317 -98z" />
    <glyph glyph-name="dagger" unicode="&#x2020;" horiz-adv-x="743" 
d="M254 467l156 549l-234 -25l53 209l220 -24l28 258h225l-96 -258l232 24l-52 -209l-221 25l-110 -549h-201z" />
    <glyph glyph-name="daggerdbl" unicode="&#x2021;" horiz-adv-x="761" 
d="M137 0l96 258l-229 -25l51 209l221 -24l43 299l103 299l-238 -25l54 209l221 -24l28 258h226l-97 -258l230 24l-53 -209l-220 25l-43 -299l-102 -299l236 24l-52 -209l-219 25l-31 -258h-225z" />
    <glyph glyph-name="bullet" unicode="&#x2022;" horiz-adv-x="933" 
d="M556 1069q122 0 190 -70t67 -175q0 -105 -36 -198t-97 -155q-94 -94 -216 -94q-122 1 -189 69t-67 174t37 201q36 94 95 154q94 94 216 94z" />
    <glyph glyph-name="ellipsis" unicode="&#x2026;" horiz-adv-x="1622" 
d="M1014 0l96 379h379l-92 -379h-383zM485 0l95 379h381l-95 -379h-381zM-43 0l92 379h381l-94 -379h-379z" />
    <glyph glyph-name="perthousand" unicode="&#x2030;" horiz-adv-x="2383" 
d="M1980 182q39 0 72 33q72 72 72 204t-90 132q-39 0 -74 -31q-70 -70 -70 -204t90 -134zM1967 -16q-140 0 -219 85t-79 232q0 215 133 352q100 101 242 101t221 -86q80 -86 80 -234q0 -217 -133 -350q-105 -100 -245 -100zM1219 182q39 0 75 33q70 70 70 203t-90 133
q-41 0 -72 -31q-72 -72 -72 -215q0 -59 25 -91t64 -32zM1210 -16q-141 0 -221 86t-80 231q0 215 133 352q104 101 244 101t220 -86q79 -86 79 -234q0 -217 -133 -350q-101 -100 -242 -100zM459 881q41 0 71 30q72 76 72 215q0 59 -24 92q-25 32 -66 32t-72 -31
q-72 -68 -72 -203t91 -135zM447 680q-142 0 -221 86t-79 233q0 217 134 351q100 100 241 100t221 -86t80 -231q0 -215 -133 -353q-101 -100 -243 -100zM115 0l684 770l571 664h248l-684 -770l-572 -664h-247z" />
    <glyph glyph-name="guilsinglleft" unicode="&#x2039;" horiz-adv-x="665" 
d="M270 66l-219 442l21 80l434 440l180 -160l-291 -350l123 -348z" />
    <glyph glyph-name="guilsinglright" unicode="&#x203a;" horiz-adv-x="665" 
d="M391 1024l219 -442l-20 -80l-434 -441l-181 160l291 350l-123 349z" />
    <glyph glyph-name="Euro" unicode="&#x20ac;" horiz-adv-x="1212" 
d="M897 1458q291 0 438 -250l-264 -204q-82 125 -197 124q-90 0 -143 -51t-76 -94h299l-51 -207h-313q-16 -59 -25 -110h312l-52 -209h-274q23 -154 168 -154q100 0 203 90l190 -248q-180 -170 -408 -170t-363 127q-136 127 -155 351h-161l53 213h121l22 110h-119l52 209
h122q70 186 185 297q176 176 436 176z" />
    <glyph glyph-name="published" unicode="&#x2117;" horiz-adv-x="1492" 
d="M203 594q0 -238 133 -390q134 -152 376 -151q242 0 416 174q117 115 177 281q59 166 59 334q2 236 -131 388t-377 150q-244 0 -418 -174q-117 -116 -176 -280t-59 -332zM854 1460q276 0 435 -172t159 -442q0 -184 -66 -362t-190 -306q-204 -205 -480 -205t-434 172
t-159 443q0 184 65 363q66 179 191 304q203 205 479 205zM944 866q0 88 -98 88h-55l-54 -227h56q71 0 111 39t40 100zM854 1130q299 0 299 -256q0 -132 -100 -224t-271 -91h-86l-57 -233h-209l197 804h227z" />
    <glyph glyph-name="servicemark" unicode="&#x2120;" horiz-adv-x="1257" 
d="M651 799l152 635h170l61 -230l174 230h183l-154 -635h-162l86 370l-184 -241h-8l-70 241l-86 -370h-162zM375 786q-145 0 -260 115l98 113q88 -88 161 -88t72 49q0 19 -17 35t-82 51q-130 70 -130 165q1 96 63 158t182 62t220 -96l-94 -115q-78 72 -148 72q-27 1 -43 -13
t-16 -34t17 -36t82 -53q65 -36 98 -75q32 -39 32 -110q0 -72 -62 -136t-173 -64z" />
    <glyph glyph-name="trademark" unicode="&#x2122;" horiz-adv-x="1247" 
d="M639 799l152 635h170l63 -230l174 230h182l-151 -635h-164l86 368l-184 -239h-9l-71 239l-86 -368h-162zM227 799l115 485h-158l39 150h484l-39 -150h-158l-115 -485h-168z" />
    <glyph glyph-name="minus" unicode="&#x2212;" horiz-adv-x="1155" 
d="M94 557l82 328h963l-82 -328h-963z" />
    <glyph glyph-name="Q.alt" horiz-adv-x="1423" 
d="M684 307q45 0 84 12l-133 203l278 170l70 -123q53 141 53 273t-57 206q-57 72 -168 72t-188 -82q-74 -74 -118 -206t-44 -244q0 -281 223 -281zM828 1460q274 0 432 -162t157 -430q0 -164 -57 -334t-160 -296l96 -152l-278 -168l-70 123q-141 -66 -293 -66
q-257 0 -415 161t-158 429q0 183 70 373t196 317q206 205 480 205z" />
    <glyph glyph-name="a.alt" horiz-adv-x="1204" 
d="M553 285q66 0 118 52t82 140q29 88 29 172t-38 131t-102 47t-117 -52q-52 -52 -83 -139t-30 -173q0 -178 141 -178zM364 -23q-140 0 -232 111q-91 111 -91 292t57 349t160 268q133 137 315 137t279 -161l33 139h368l-272 -1112h-369l29 115q-137 -138 -277 -138z" />
    <glyph glyph-name="aacute.alt" horiz-adv-x="1204" 
d="M553 285q66 0 118 52t82 140q29 88 29 172t-38 131t-102 47t-117 -52q-52 -52 -83 -139t-30 -173q0 -178 141 -178zM364 -23q-140 0 -232 111q-91 111 -91 292t57 349t160 268q133 137 315 137t279 -161l33 139h368l-272 -1112h-369l29 115q-137 -138 -277 -138z
M635 1200l285 354l323 -108l-340 -246h-268z" />
    <glyph glyph-name="abreve.alt" horiz-adv-x="1204" 
d="M796 1198q-155 0 -240 84t-83 231h219q4 -47 35 -77t86 -31q113 0 174 108h219q-43 -145 -149 -230t-261 -85zM553 285q66 0 118 52t82 140q29 88 29 172t-38 131t-102 47t-117 -52q-52 -52 -83 -139t-30 -173q0 -178 141 -178zM364 -23q-140 0 -232 111q-91 111 -91 292
t57 349t160 268q133 137 315 137t279 -161l33 139h368l-272 -1112h-369l29 115q-137 -138 -277 -138z" />
    <glyph glyph-name="acircumflex.alt" horiz-adv-x="1204" 
d="M553 285q66 0 118 52t82 140q29 88 29 172t-38 131t-102 47t-117 -52q-52 -52 -83 -139t-30 -173q0 -178 141 -178zM364 -23q-140 0 -232 111q-91 111 -91 292t57 349t160 268q133 137 315 137t279 -161l33 139h368l-272 -1112h-369l29 115q-137 -138 -277 -138z
M383 1202l311 318h299l154 -318h-221l-119 123l-176 -123h-248z" />
    <glyph glyph-name="adieresis.alt" horiz-adv-x="1204" 
d="M553 285q66 0 118 52t82 140q29 88 29 172t-38 131t-102 47t-117 -52q-52 -52 -83 -139t-30 -173q0 -178 141 -178zM364 -23q-140 0 -232 111q-91 111 -91 292t57 349t160 268q133 137 315 137t279 -161l33 139h368l-272 -1112h-369l29 115q-137 -138 -277 -138z
M823 1204l72 279h307l-69 -279h-310zM424 1204l70 279h309l-70 -279h-309z" />
    <glyph glyph-name="agrave.alt" horiz-adv-x="1204" 
d="M657 1200l-221 246l338 108l117 -354h-234zM553 285q66 0 118 52t82 140q29 88 29 172t-38 131t-102 47t-117 -52q-52 -52 -83 -139t-30 -173q0 -178 141 -178zM364 -23q-140 0 -232 111q-91 111 -91 292t57 349t160 268q133 137 315 137t279 -161l33 139h368l-272 -1112
h-369l29 115q-137 -138 -277 -138z" />
    <glyph glyph-name="amacron.alt" horiz-adv-x="1204" 
d="M436 1204l58 226h682l-58 -226h-682zM553 285q66 0 118 52t82 140q29 88 29 172t-38 131t-102 47t-117 -52q-52 -52 -83 -139t-30 -173q0 -178 141 -178zM364 -23q-140 0 -232 111q-91 111 -91 292t57 349t160 268q133 137 315 137t279 -161l33 139h368l-272 -1112h-369
l29 115q-137 -138 -277 -138z" />
    <glyph glyph-name="aogonek.alt" horiz-adv-x="1204" 
d="M553 285q66 0 118 52t82 140q29 88 29 172t-38 131t-102 47t-117 -52q-52 -52 -83 -139t-30 -173q0 -178 141 -178zM41 380q0 181 57 349t160 268q133 137 315 137t279 -161l33 139h368l-272 -1112h-59q-61 -70 -62 -102q0 -48 113 -48l-39 -161q-208 -28 -303 23
q-61 34 -62 98q0 88 125 190h-82l29 115q-137 -137 -277 -137t-232 110q-91 111 -91 292z" />
    <glyph glyph-name="aring.alt" horiz-adv-x="1204" 
d="M553 285q66 0 118 52t82 140q29 88 29 172t-38 131t-102 47t-117 -52q-52 -52 -83 -139t-30 -173q0 -178 141 -178zM364 -23q-140 0 -232 111q-91 111 -91 292t57 349t160 268q133 137 315 137t279 -161l33 139h368l-272 -1112h-369l29 115q-137 -138 -277 -138z
M846 1571q-51 1 -89 -45t-38 -100q-1 -54 27 -84t79 -30t89 46q38 45 38 99t-27 84q-28 30 -79 30zM1079 1464q1 -100 -75 -181t-184 -81t-168 58q-62 58 -62 160q0 100 77 181t183 81t168 -60q62 -58 61 -158z" />
    <glyph glyph-name="aring.alt2" horiz-adv-x="1077" 
d="M432 209q61 0 108 51q46 51 62 125l19 78q-57 23 -121 23t-111 -46q-47 -45 -47 -138t90 -93zM600 1242q0 -54 28 -84t79 -30t89 46t38 99q0 54 -28 84q-28 29 -79 29t-89 -45t-38 -99zM674 729q0 106 -156 107q-125 0 -254 -54l-59 279q139 49 297 61q-31 45 -31 111
q0 104 78 184t184 80q107 0 169 -58t63 -151q0 -135 -107 -207q182 -80 182 -280q0 -80 -26 -183l-148 -618h-362l24 106q-127 -126 -260 -126t-206 78t-72 206q0 186 114 300t322 114q111 0 233 -43q15 48 15 94z" />
    <glyph glyph-name="aringacute.alt" horiz-adv-x="1204" 
d="M553 285q66 0 118 52t82 140q29 88 29 172t-38 131t-102 47t-117 -52q-52 -52 -83 -139t-30 -173q0 -178 141 -178zM364 -23q-140 0 -232 111q-91 111 -91 292t57 349t160 268q133 137 315 137t279 -161l33 139h368l-272 -1112h-369l29 115q-137 -138 -277 -138z
M846 1571q-51 1 -89 -45t-38 -100q-1 -54 27 -84t79 -30t89 46q38 45 38 99t-27 84q-28 30 -79 30zM1079 1464q1 -100 -75 -181t-184 -81t-168 58q-62 58 -62 160q0 100 77 181t183 81t168 -60q62 -58 61 -158zM768 1747l285 297l321 -102l-338 -195h-268z" />
    <glyph glyph-name="aringacute.alt2" horiz-adv-x="1077" 
d="M432 209q61 0 108 51q46 51 62 125l19 78q-57 23 -121 23t-111 -46q-47 -45 -47 -138t90 -93zM600 1242q0 -54 28 -84t79 -30t89 46t38 99q0 54 -28 84q-28 29 -79 29t-89 -45t-38 -99zM674 729q0 106 -156 107q-125 0 -254 -54l-59 279q139 49 297 61q-31 45 -31 111
q0 104 78 184t184 80q107 0 169 -58t63 -151q0 -135 -107 -207q182 -80 182 -280q0 -80 -26 -183l-148 -618h-362l24 106q-127 -126 -260 -126t-206 78t-72 206q0 186 114 300t322 114q111 0 233 -43q15 48 15 94zM645 1556l287 299l319 -102l-336 -197h-270z" />
    <glyph glyph-name="atilde.alt" horiz-adv-x="1204" 
d="M960 1200q-82 0 -173 40t-121 40t-52 -20q-23 -20 -49 -70l-176 51q53 143 115 212t142 69q79 0 168 -39t123 -39t56 20t49 68l177 -51q-53 -143 -115 -212t-144 -69zM553 285q66 0 118 52t82 140q29 88 29 172t-38 131t-102 47t-117 -52q-52 -52 -83 -139t-30 -173
q0 -178 141 -178zM364 -23q-140 0 -232 111q-91 111 -91 292t57 349t160 268q133 137 315 137t279 -161l33 139h368l-272 -1112h-369l29 115q-137 -138 -277 -138z" />
    <glyph glyph-name="three.alt" horiz-adv-x="1103" 
d="M457 -25q-326 0 -514 226l237 243q127 -145 275 -145q86 0 133 46t47 110q0 127 -182 129h-105l72 288h108q100 0 159 42q58 42 58 102q1 120 -123 119q-124 0 -266 -111l-168 252q211 184 490 184q211 0 329 -105q117 -105 117 -251t-80 -244q-80 -100 -227 -147
q191 -84 191 -285t-154 -327t-397 -126z" />
    <glyph glyph-name="registered.alt" horiz-adv-x="1492" 
d="M784 741q86 0 127 41q33 37 33 83t-24 70t-89 23h-69l-49 -217h71zM1155 893q0 -206 -209 -277l92 -284h-221l-69 248h-78l-58 -248h-209l197 807h238q317 0 317 -246zM203 594q0 -238 133 -390q134 -152 376 -151q242 0 416 174q117 115 177 281q59 166 59 334
q2 236 -131 388t-377 150q-244 0 -418 -174q-117 -116 -176 -280t-59 -332zM854 1460q276 0 435 -172t159 -442q0 -184 -66 -362t-190 -306q-204 -205 -480 -205t-434 172t-159 443q0 184 65 363q66 179 191 304q203 205 479 205z" />
    <glyph glyph-name="NUL" horiz-adv-x="0" 
 />
    <glyph glyph-name="hfjslug" horiz-adv-x="1421" 
d="M872 565q20 1 34 15q33 33 1 68q-15 16 -35 16t-34 -16t-14 -34q0 -20 14 -34t34 -15zM872 580q-33 0 -32 34q0 12 9 24t23 11q14 0 24 -11t9 -24q0 -34 -33 -34zM645 1056q0 30 29 29q27 -1 27 -35t-31 -69q-25 45 -25 75zM659 823q-33 0 -33 45t33 78l41 -80
q-16 -43 -41 -43zM975 612v35h22q20 0 21 -16q0 -18 -21 -19h-22zM985 799q63 0 64 73v281h-33v-281q0 -45 -33 -45q-16 0 -41 11v-31q20 -8 43 -8zM750 567h16v35l37 60h-19l-26 -46l-27 46h-18l37 -60v-35zM958 567h17v31h24l21 -31h18l-24 35q20 8 20 29q0 31 -35 31h-41
v-95zM819 801h31v160h78v28h-78v135h88v29h-119v-352zM270 567h17v66l51 -66h14v95h-16v-66l-51 66h-15v-95zM377 801h31v162h96v-162h31v352h-31v-162h-96v162h-31v-352zM395 567h70v15h-53v26h47v15h-47v24h53v15h-70v-95zM1071 567h16v25l17 16l31 -41h20l-41 54l37 41
h-21l-40 -50h-3v50h-16v-95zM102 -410v621q29 0 48 19q18 19 18 46q0 26 -20 46t-46 20v1135h205l62 161h684l59 -161h207v-1887h-426l-16 29h-334l-17 -29h-424zM598 862q0 -68 65 -67q33 0 54 49h2l24 -49l25 12l-35 65q12 29 27 80l-27 6q-8 -37 -16 -61h-2l-33 64
q47 43 47 86q0 63 -55 63q-25 0 -41 -18q-35 -39 12 -125q-47 -37 -47 -105zM522 565h17l22 70h2l23 -70h16l29 97h-17l-20 -72h-2l-23 72h-14l-23 -72h-2l-20 72h-16z" />
    <glyph glyph-name="i.dot" horiz-adv-x="557" 
d="M246 1202l73 287h379l-73 -287h-379zM-41 0l272 1112h367l-270 -1112h-369z" />
    <glyph glyph-name="caron.alt" 
d="M913 1602v-7l-219 -409h-141l102 416h258z" />
    <glyph glyph-name="acute.cap" 
d="M498 1516l278 309l340 -103l-330 -206h-288z" />
    <glyph glyph-name="hungarumlaut.cap" 
d="M721 1516l160 182l-275 -182h-258l268 309l291 -96l86 96l307 -103l-317 -206h-262z" />
    <glyph glyph-name="grave.cap" 
d="M727 1516l-231 206l352 103l131 -309h-252z" />
    <glyph glyph-name="circumflex.cap" 
d="M365 1518l297 286h323l156 -286h-232l-116 102l-168 -102h-260z" />
    <glyph glyph-name="caron.cap" 
d="M1212 1804l-299 -286h-321l-156 286h230l118 -102l166 102h262z" />
    <glyph glyph-name="breve.cap" 
d="M758 1513q-156 0 -237 74t-62 213h209q16 -84 126 -84t164 84h230q-50 -141 -162 -214t-268 -73z" />
    <glyph glyph-name="tilde.cap" 
d="M620 1835q86 0 177 -38q92 -38 127 -38q36 -1 60 19t50 67l176 -49q-53 -143 -116 -212q-64 -68 -144 -68t-196 43q-84 35 -116 35t-56 -22q-24 -20 -50 -67l-176 51q54 143 116 211t148 68z" />
    <glyph glyph-name="macron.cap" 
d="M389 1524l60 229h729l-58 -229h-731z" />
    <glyph glyph-name="dieresis.cap" 
d="M801 1520l67 266h312l-68 -266h-311zM397 1520l66 266h311l-67 -266h-310z" />
    <glyph glyph-name="dotaccent.cap" 
d="M592 1520l67 266h322l-68 -266h-321z" />
    <glyph glyph-name="ring.cap" 
d="M640 1632q60 0 100 42t40 91t-32 79q-34 30 -94 30t-100 -42t-40 -91t33 -79t93 -30zM658 1989q116 -1 185 -61t69 -158t-81 -177q-80 -77 -195 -77t-185 61t-70 159t81 175q80 78 196 78z" />
    </font>
</defs>
</svg>
