<?xml version="1.0" standalone="no"?>
<!DOCTYPE svg PUBLIC "-//W3C//DTD SVG 1.1//EN" "http://www.w3.org/Graphics/SVG/1.1/DTD/svg11.dtd" >
<svg xmlns="http://www.w3.org/2000/svg">
<metadata>
Created by FontPrep 20130207 at Tue Dec  3 03:35:38 2013
 By Bryan Willis
Copyright (C) 2005, 2008 Hoefler &#38; Frere-Jones. http://www.typography.com
</metadata>
<defs>
<font id="8bd362081099099b54ad8524dfb081ce" horiz-adv-x='1024' >
  <font-face 
    font-family="GothamNarrow-MediumItalic"
    font-weight="350"
    font-style="italic"
    font-stretch="condensed"
    units-per-em="2048"
    panose-1="0 0 0 0 0 0 0 0 0 0"
    ascent="1638"
    descent="-410"
    x-height="1092"
    cap-height="1434"
    bbox="-586 -535 2191.01 2019"
    underline-thickness="102"
    underline-position="-102"
    slope="-14"
    unicode-range="U+0020-FB04"
  />
<missing-glyph horiz-adv-x="1024" 
d="M922 -156v1540l-353 -770zM512 737l367 799h-734zM145 -307h734l-367 799zM102 -156l353 770l-353 770v-1540zM0 -410v2048h1024v-2048h-1024z" />
    <glyph glyph-name="f_f" unicode="ff" horiz-adv-x="1423" 
d="M1415 1491q98 0 174 -29l-53 -200q-57 20 -115 20q-113 0 -143 -131l-16 -59h233l-55 -209h-228l-213 -883h-243l213 883h-123l55 209h121l16 69q37 162 124 246t253 84zM705 1491q98 0 174 -29l-54 -200q-57 20 -114 20q-113 0 -144 -131l-16 -59h233l-55 -209h-227
l-213 -883h-244l213 883h-123l55 209h121l17 69q38 162 124 246t253 84z" />
    <glyph glyph-name="fi" unicode="fi" horiz-adv-x="1236" 
d="M1012 1243l61 238h258l-63 -238h-256zM717 0l268 1092h242l-266 -1092h-244zM705 1491q98 0 174 -29l-54 -200q-57 20 -114 20q-113 0 -144 -131l-16 -59h233l-55 -209h-227l-213 -883h-244l213 883h-123l55 209h121l17 69q38 162 124 246t253 84z" />
    <glyph glyph-name="fl" unicode="fl" horiz-adv-x="1236" 
d="M717 0l362 1479h242l-360 -1479h-244zM705 1491q98 0 174 -29l-54 -200q-57 20 -114 20q-113 0 -144 -131l-16 -59h233l-55 -209h-227l-213 -883h-244l213 883h-123l55 209h121l17 69q38 162 124 246t253 84z" />
    <glyph glyph-name="f_f_i" unicode="ffi" horiz-adv-x="1947" 
d="M1724 1243l62 238h258l-64 -238h-256zM1430 0l268 1092h241l-266 -1092h-243zM1415 1491q98 0 174 -29l-53 -200q-57 20 -115 20q-113 0 -143 -131l-16 -59h233l-55 -209h-228l-213 -883h-243l213 883h-123l55 209h121l16 69q37 162 124 246t253 84zM705 1491
q98 0 174 -29l-54 -200q-57 20 -114 20q-113 0 -144 -131l-16 -59h233l-55 -209h-227l-213 -883h-244l213 883h-123l55 209h121l17 69q38 162 124 246t253 84z" />
    <glyph glyph-name="f_f_l" unicode="ffl" horiz-adv-x="1947" 
d="M1430 0l362 1479h242l-361 -1479h-243zM1415 1491q98 0 174 -29l-53 -200q-57 20 -115 20q-113 0 -143 -131l-16 -59h233l-55 -209h-228l-213 -883h-243l213 883h-123l55 209h121l16 69q37 162 124 246t253 84zM705 1491q98 0 174 -29l-54 -200q-57 20 -114 20
q-113 0 -144 -131l-16 -59h233l-55 -209h-227l-213 -883h-244l213 883h-123l55 209h121l17 69q38 162 124 246t253 84z" />
    <glyph glyph-name=".notdef" horiz-adv-x="1024" 
d="M922 -156v1540l-353 -770zM512 737l367 799h-734zM145 -307h734l-367 799zM102 -156l353 770l-353 770v-1540zM0 -410v2048h1024v-2048h-1024z" />
    <glyph glyph-name=".null" horiz-adv-x="0" 
 />
    <glyph glyph-name="nonmarkingreturn" horiz-adv-x="681" 
 />
    <glyph glyph-name="space" unicode=" " horiz-adv-x="466" 
 />
    <glyph glyph-name="exclam" unicode="!" horiz-adv-x="583" 
d="M23 0l69 279h270l-69 -279h-270zM203 453l145 909l17 72h286l-16 -72l-299 -909h-133z" />
    <glyph glyph-name="quotedbl" unicode="&#x22;" horiz-adv-x="897" 
d="M602 827l148 607h274l-4 -13l-293 -594h-125zM193 827l145 607h274l-4 -13l-291 -594h-124z" />
    <glyph glyph-name="numbersign" unicode="#" horiz-adv-x="1224" 
d="M459 537h274l111 364h-275zM86 0l100 328h-163l53 209h172l108 364h-178l53 209h189l98 324h211l-96 -324h272l101 324h208l-98 -324h164l-51 -209h-174l-111 -364h180l-51 -209h-190l-101 -328h-211l99 328h-275l-98 -328h-211z" />
    <glyph glyph-name="dollar" unicode="$" horiz-adv-x="1118" 
d="M471 1038q0 -81 109 -153l90 340q-92 -4 -146 -55t-53 -132zM754 414q0 82 -105 151l-94 -356q91 7 145 65t54 140zM1006 438q0 -198 -140 -320t-360 -122h-4l-56 -197h-170l62 215q-225 53 -361 222l179 155q115 -131 245 -166l107 412q-145 76 -218 163t-73 214
q0 184 135 303t353 119h12l35 123h170l-39 -148q174 -51 288 -172l-165 -166q-94 88 -187 123l-102 -385q289 -152 289 -373z" />
    <glyph glyph-name="percent" unicode="%" horiz-adv-x="1552" 
d="M1122 133q51 0 103 43q80 84 80 225q0 76 -32 117t-84 41t-102 -41q-80 -86 -79 -227q0 -76 32 -117t82 -41zM1117 -14q-126 0 -201 82t-74 221q0 197 125 321q102 98 227 98t200 -81q75 -82 74 -221q0 -199 -122 -322q-103 -98 -229 -98zM330 1032q0 -76 32 -117t84 -41
t101 41q80 86 80 228q0 73 -32 115t-84 42t-99 -43q-82 -82 -82 -225zM442 725q-128 0 -202 82t-74 221q0 201 125 322q98 98 225 98t203 -82t76 -221q0 -195 -127 -322q-99 -98 -226 -98zM104 0l660 756l577 678h189l-658 -756l-577 -678h-191z" />
    <glyph glyph-name="ampersand" unicode="&#x26;" horiz-adv-x="1245" 
d="M858 1114q0 68 -36 110q-36 40 -106 40t-114 -54q-45 -54 -45 -134q0 -81 59 -193q129 49 186 106q56 57 56 125zM463 186q129 0 264 111l-217 358q-236 -109 -236 -288q0 -77 50 -129t139 -52zM340 1085q0 154 109 263q109 108 273 108t259 -91q94 -91 94 -223t-86 -232
t-282 -173l167 -278q86 114 152 241l162 -102q-96 -174 -205 -307l129 -203l-186 -113l-101 162q-183 -155 -375 -155t-302 99t-109 263q0 313 379 465q-78 156 -78 276z" />
    <glyph glyph-name="quotesingle" unicode="'" horiz-adv-x="479" 
d="M193 827l145 607h274l-4 -13l-291 -594h-124z" />
    <glyph glyph-name="parenleft" unicode="(" horiz-adv-x="778" 
d="M98 418q0 449 320 772q172 170 413 270l87 -176q-186 -92 -304 -213q-272 -272 -272 -651q0 -299 236 -561l-154 -144q-326 299 -326 703z" />
    <glyph glyph-name="parenright" unicode=")" horiz-adv-x="778" 
d="M373 1462q326 -299 325 -702q0 -449 -319 -772q-172 -170 -414 -271l-86 177q186 92 303 212q272 272 273 652q0 299 -236 561z" />
    <glyph glyph-name="asterisk" unicode="*" horiz-adv-x="784" 
d="M514 793l-135 32l84 230l-219 -94l-39 137l235 41l-188 149l98 101l150 -187l32 244l134 -35l-84 -229l219 94l39 -135l-236 -43l191 -148l-103 -102l-147 186z" />
    <glyph glyph-name="plus" unicode="+" horiz-adv-x="1122" 
d="M381 276l82 334h-334l57 221h332l82 334h229l-84 -334h334l-57 -221h-334l-80 -334h-227z" />
    <glyph glyph-name="comma" unicode="," horiz-adv-x="548" 
d="M-94 -295l-21 107q106 16 160 62q53 46 68 126h-107l70 279h270l-59 -236q-41 -170 -131 -247t-250 -91z" />
    <glyph glyph-name="hyphen" unicode="-" horiz-adv-x="753" 
d="M88 510l62 233h555l-60 -233h-557z" />
    <glyph glyph-name="period" unicode="." horiz-adv-x="548" 
d="M6 0l70 279h270l-70 -279h-270z" />
    <glyph glyph-name="slash" unicode="/" horiz-adv-x="915" 
d="M-238 -244l1207 1860h229l-1208 -1860h-228z" />
    <glyph glyph-name="zero" unicode="0" horiz-adv-x="1271" 
d="M987 914q0 160 -58 240q-59 80 -161 79q-102 0 -194 -91q-92 -90 -152 -276t-60 -346t60 -240t162 -79q102 0 194 91t151 276q58 186 58 346zM772 1456q219 0 344 -143t125 -373t-74 -446q-74 -217 -204 -349q-167 -168 -385 -168q-218 -1 -342 143t-125 374
q0 230 73 446q74 217 205 348q164 168 383 168z" />
    <glyph glyph-name="one" unicode="1" horiz-adv-x="745" 
d="M162 0l284 1171l-229 -63l2 219l367 115h174l-352 -1442h-246z" />
    <glyph glyph-name="two" unicode="2" horiz-adv-x="1079" 
d="M653 1229q-131 0 -295 -158l-151 160q197 223 461 223q190 0 306 -101t116 -251t-70 -257q-70 -108 -232 -241l-442 -387h567l-57 -217h-913l53 199l622 540q115 98 165 173t51 153q0 78 -48 121t-133 43z" />
    <glyph glyph-name="three" unicode="3" horiz-adv-x="1054" 
d="M408 -23q-287 0 -447 220l180 159q119 -156 283 -155q112 -1 186 73t74 180t-76 157q-76 50 -196 51h-64l-4 155l414 402h-506l57 215h832l-47 -185l-451 -422q133 -35 212 -125t79 -229q0 -209 -143 -346q-145 -150 -383 -150z" />
    <glyph glyph-name="four" unicode="4" horiz-adv-x="1153" 
d="M293 518h393l143 590zM559 0l76 315h-592l-14 189l876 940h238l-223 -926h167l-51 -203h-166l-75 -315h-236z" />
    <glyph glyph-name="five" unicode="5" horiz-adv-x="1073" 
d="M424 -20q-281 0 -444 213l167 167q133 -158 289 -157q129 0 211 88q82 87 82 195t-62 162q-61 54 -163 54t-189 -38l-127 102l199 668h737l-59 -220h-514l-92 -325q82 20 131 20q174 0 284 -103t109 -284q0 -229 -154 -383q-165 -159 -405 -159z" />
    <glyph glyph-name="six" unicode="6" horiz-adv-x="1134" 
d="M550 188q93 0 169 72q92 92 92 250q0 96 -53 152t-155 55q-102 0 -171 -74q-92 -97 -92 -219t57 -180q60 -56 153 -56zM546 -23q-198 0 -308 111q-134 134 -134 358t76 458t215 376q179 176 401 176t384 -147l-142 -185q-114 106 -246 106t-231 -97q-125 -125 -172 -342
q47 55 128 91t169 36q164 0 269 -100t106 -277q0 -117 -45 -227t-123 -187q-149 -150 -347 -150z" />
    <glyph glyph-name="seven" unicode="7" horiz-adv-x="1058" 
d="M23 0l806 1217h-591l55 217h870l-51 -191l-807 -1243h-282z" />
    <glyph glyph-name="eight" unicode="8" horiz-adv-x="1146" 
d="M659 834q96 0 163 68t68 154q1 87 -52 140q-54 53 -150 53q-96 1 -161 -67t-67 -154t51 -140q52 -54 148 -54zM528 182q106 0 181 70t75 167t-63 154t-172 57t-183 -71q-74 -72 -74 -167q-2 -94 64 -152t172 -58zM530 -20q-213 0 -345 106t-134 273t93 269t241 142
q-154 98 -154 266t128 293q127 125 327 125t318 -100t116 -254q0 -154 -79 -250t-207 -137q192 -103 192 -289t-142 -315t-354 -129z" />
    <glyph glyph-name="nine" unicode="9" horiz-adv-x="1134" 
d="M615 702q99 0 181 82t82 216t-56 189q-56 56 -151 56t-167 -71q-96 -92 -96 -259q2 -105 55 -159t152 -54zM421 -23q-228 0 -401 160l144 185q129 -119 263 -119t232 98q123 123 168 324q-121 -125 -291 -125t-273 99t-105 286q0 260 168 424q147 147 347 147t312 -113
q131 -131 131 -397q0 -193 -77 -422t-218 -370q-172 -177 -400 -177z" />
    <glyph glyph-name="colon" unicode=":" horiz-adv-x="555" 
d="M205 813l71 279h271l-70 -279h-272zM10 0l72 279h268l-69 -279h-271z" />
    <glyph glyph-name="semicolon" unicode=";" horiz-adv-x="555" 
d="M205 813l71 279h271l-70 -279h-272zM-92 -295l-21 107q203 31 228 188h-105l72 279h268l-59 -236q-43 -170 -133 -247t-250 -91z" />
    <glyph glyph-name="less" unicode="&#x3c;" horiz-adv-x="1122" 
d="M883 215l-746 395l58 221l940 398l-66 -246l-674 -272l541 -273z" />
    <glyph glyph-name="equal" unicode="=" horiz-adv-x="1122" 
d="M213 838l57 223h846l-59 -223h-844zM98 381l58 223h845l-57 -223h-846z" />
    <glyph glyph-name="greater" unicode="&#x3e;" horiz-adv-x="1122" 
d="M68 213l65 246l672 272l-541 273l58 223l745 -396l-59 -221z" />
    <glyph glyph-name="question" unicode="?" horiz-adv-x="962" 
d="M152 0l69 279h268l-69 -279h-268zM584 1225q-125 0 -265 -115l-126 178q186 162 417 162q182 0 291 -99t109 -263t-123 -280t-348 -157l-66 -198h-164l45 344l13 12q186 20 285 90t100 172q0 72 -46 113t-122 41z" />
    <glyph glyph-name="at" unicode="@" horiz-adv-x="1789" 
d="M811 303q106 0 201 120q94 120 94 267q0 80 -41 130t-115 50q-104 0 -194 -124t-90 -265q0 -86 38 -132t107 -46zM836 -305q-326 0 -533 199t-207 532q0 266 119 504t332 384t467 146q328 0 522 -191t193 -476t-133 -470t-314 -186q-96 0 -159 49q-62 49 -81 127
q-145 -178 -311 -178q-121 0 -197 83t-77 226q0 234 145 416q144 182 320 182t241 -159l41 137l182 -49l-149 -496q-27 -86 -27 -138t32 -83t87 -31q119 0 220 170t101 413t-171 411q-172 168 -467 167q-233 0 -429 -138q-197 -138 -305 -358t-108 -462q0 -303 187 -480
t479 -177q197 0 389 94l30 -66q-210 -102 -419 -102z" />
    <glyph glyph-name="A" unicode="A" horiz-adv-x="1343" 
d="M510 565h369l-50 576zM-94 0l874 1444h242l168 -1444h-252l-35 346h-532l-201 -346h-264z" />
    <glyph glyph-name="B" unicode="B" horiz-adv-x="1251" 
d="M696 827q140 -1 222 59t81 169q0 75 -54 117t-159 42h-231l-90 -387h231zM590 219q141 1 222 61t81 171q0 79 -57 123t-164 44h-260l-93 -399h271zM807 1434q215 0 328 -94t113 -244t-88 -244q-87 -94 -226 -127q205 -84 205 -289q0 -204 -160 -320t-424 -116h-535
l351 1434h436z" />
    <glyph glyph-name="C" unicode="C" horiz-adv-x="1236" 
d="M674 -20q-244 0 -399 156t-154 423q1 189 71 375t195 313q211 207 489 207t451 -242l-194 -161q-121 176 -275 176t-283 -125q-88 -90 -143 -236t-55 -304q0 -159 83 -257t221 -98t284 123l141 -172q-188 -178 -432 -178z" />
    <glyph glyph-name="D" unicode="D" horiz-adv-x="1353" 
d="M1061 846q0 362 -377 362h-123l-237 -983h145q260 0 414 156q88 88 133 215t45 250zM702 1434q307 0 465 -158q150 -143 150 -422q1 -166 -63 -335t-187 -290q-229 -229 -631 -229h-416l351 1434h331z" />
    <glyph glyph-name="E" unicode="E" horiz-adv-x="1148" 
d="M20 0l351 1434h893l-58 -222h-645l-90 -381h573l-57 -219h-573l-90 -391h657l-59 -221h-902z" />
    <glyph glyph-name="F" unicode="F" horiz-adv-x="1134" 
d="M20 0l351 1434h901l-58 -226h-653l-92 -397h580l-60 -223h-577l-142 -588h-250z" />
    <glyph glyph-name="G" unicode="G" horiz-adv-x="1355" 
d="M684 -20q-230 0 -398 154t-167 429q-1 189 69 367t197 303q225 221 519 221t474 -194l-178 -173q-133 139 -311 139t-320 -141q-88 -90 -140 -230t-52 -297t92 -255q91 -98 221 -98t223 45l80 334h-286l57 215h522l-180 -711q-192 -108 -422 -108z" />
    <glyph glyph-name="H" unicode="H" horiz-adv-x="1335" 
d="M20 0l351 1434h250l-146 -598h533l141 598h250l-350 -1434h-250l149 606h-532l-146 -606h-250z" />
    <glyph glyph-name="I" unicode="I" horiz-adv-x="583" 
d="M35 0l350 1434h250l-350 -1434h-250z" />
    <glyph glyph-name="J" unicode="J" horiz-adv-x="964" 
d="M328 -18q-262 0 -391 225l180 153q90 -150 205 -149q78 0 139 60t104 241l219 922h256l-235 -979q-33 -133 -70 -213t-96 -140q-123 -120 -311 -120z" />
    <glyph glyph-name="K" unicode="K" horiz-adv-x="1263" 
d="M20 0l351 1434h250l-170 -699l669 699h322l-625 -617l301 -817h-270l-221 639l-267 -260l-90 -379h-250z" />
    <glyph glyph-name="L" unicode="L" horiz-adv-x="1067" 
d="M20 0l351 1434h250l-293 -1209h606l-60 -225h-854z" />
    <glyph glyph-name="M" unicode="M" horiz-adv-x="1531" 
d="M20 0l351 1434h258l182 -670l498 670h286l-350 -1434h-250l246 1026l-524 -680h-8l-197 676l-246 -1022h-246z" />
    <glyph glyph-name="N" unicode="N" horiz-adv-x="1380" 
d="M20 0l351 1434h231l359 -1004l239 1004h244l-350 -1434h-211l-373 1034l-244 -1034h-246z" />
    <glyph glyph-name="O" unicode="O" horiz-adv-x="1435" 
d="M678 205q143 0 262 119q92 92 148 246t57 308q0 154 -80 251q-79 97 -227 97t-260 -116q-92 -94 -148 -249t-55 -307q0 -152 80 -251q80 -98 223 -98zM868 1456q242 0 386 -159t145 -416q0 -188 -72 -382t-199 -323q-199 -199 -479 -199q-242 0 -385 159t-143 417
q0 188 70 383q71 195 198 319q200 201 479 201z" />
    <glyph glyph-name="P" unicode="P" horiz-adv-x="1193" 
d="M973 1001q0 207 -262 207h-150l-125 -528h158q190 0 295 100q84 86 84 221zM723 1434q274 0 401 -129q106 -106 107 -287q0 -227 -150 -377q-182 -178 -499 -178h-201l-111 -463h-250l351 1434h352z" />
    <glyph glyph-name="Q" unicode="Q" horiz-adv-x="1435" 
d="M678 205q92 0 174 47l-166 231l205 138l127 -203q127 209 127 446q0 168 -79 265q-80 97 -228 97t-260 -116q-92 -92 -148 -247t-55 -309q0 -154 79 -251q79 -98 224 -98zM868 1456q242 0 386 -159t145 -416q1 -177 -63 -359t-177 -313l107 -148l-203 -137l-86 137
q-145 -84 -328 -84q-242 0 -385 159t-143 417q0 188 70 383q71 195 198 319q200 201 479 201z" />
    <glyph glyph-name="R" unicode="R" horiz-adv-x="1273" 
d="M1024 1010q0 198 -260 198h-201l-119 -495h211q195 0 293 96q76 80 76 201zM780 1434q272 0 398 -129q104 -109 104 -277q0 -213 -133 -350q-111 -111 -287 -154l217 -524h-278l-199 496h-215l-117 -496h-250l351 1434h409z" />
    <glyph glyph-name="S" unicode="S" horiz-adv-x="1107" 
d="M504 -20q-326 0 -518 260l188 159q168 -201 342 -200q88 0 147 51q58 50 58 118t-44 121q-43 53 -177 145t-204 184q-70 91 -69 204q0 170 115 291q141 141 352 141q268 0 459 -213l-172 -170q-147 164 -295 164q-90 0 -144 -51q-54 -50 -54 -114t43 -116
q44 -52 178 -143q134 -90 204 -182t70 -213q0 -176 -130 -306t-349 -130z" />
    <glyph glyph-name="T" unicode="T" horiz-adv-x="1064" 
d="M274 0l289 1204h-373l62 230h995l-61 -230h-373l-293 -1204h-246z" />
    <glyph glyph-name="U" unicode="U" horiz-adv-x="1341" 
d="M590 -23q-211 0 -334 112t-123 310q0 92 35 219l194 816h248l-204 -844q-20 -92 -20 -177t60 -145q61 -60 178 -61q117 0 203 86t127 258l213 883h246l-221 -920q-66 -256 -195 -385q-151 -152 -407 -152z" />
    <glyph glyph-name="V" unicode="V" horiz-adv-x="1273" 
d="M383 -10l-137 1444h264l70 -1082l591 1082h277l-844 -1444h-221z" />
    <glyph glyph-name="W" unicode="W" horiz-adv-x="1957" 
d="M317 -10l-61 1444h254l16 -1055l543 1059h213l45 -1059l516 1055h281l-770 -1444h-230l-45 1020l-532 -1020h-230z" />
    <glyph glyph-name="X" unicode="X" horiz-adv-x="1218" 
d="M-90 0l606 750l-250 684h275l153 -500l373 500h311l-583 -715l262 -719h-275l-170 537l-395 -537h-307z" />
    <glyph glyph-name="Y" unicode="Y" horiz-adv-x="1142" 
d="M305 0l141 582l-249 852h270l154 -629l454 629h299l-684 -873l-137 -561h-248z" />
    <glyph glyph-name="Z" unicode="Z" horiz-adv-x="1183" 
d="M-39 0l47 184l914 1033h-650l56 217h975l-48 -185l-915 -1032h680l-55 -217h-1004z" />
    <glyph glyph-name="bracketleft" unicode="[" horiz-adv-x="819" 
d="M-10 -266l413 1700h547l-49 -191h-313l-322 -1319h318l-49 -190h-545z" />
    <glyph glyph-name="backslash" unicode="\" horiz-adv-x="915" 
d="M563 -244l-327 1860h200l328 -1860h-201z" />
    <glyph glyph-name="bracketright" unicode="]" horiz-adv-x="819" 
d="M846 1434l-414 -1700h-547l49 190h314l321 1319h-317l49 191h545z" />
    <glyph glyph-name="asciicircum" unicode="^" horiz-adv-x="899" 
d="M193 1034l350 391h170l155 -391h-163l-105 232l-213 -232h-194z" />
    <glyph glyph-name="underscore" unicode="_" horiz-adv-x="1136" 
d="M-215 -328l49 189h1143l-47 -189h-1145z" />
    <glyph glyph-name="grave" unicode="`" horiz-adv-x="1024" 
d="M705 1206l-187 232l217 98l135 -330h-165z" />
    <glyph glyph-name="a" unicode="a" horiz-adv-x="1040" 
d="M478 518q-102 0 -164 -61t-62 -145t38 -122t116 -38q79 0 150 70t95 171l21 88q-92 37 -194 37zM293 -20q-129 0 -206 80t-77 210q0 174 116 288t312 114q125 0 269 -51l6 24q14 68 14 109q0 141 -190 141q-115 0 -244 -57l-55 196q160 70 342 70t282 -79
q102 -79 103 -220q0 -80 -31 -199l-143 -606h-238l33 131q-127 -151 -293 -151z" />
    <glyph glyph-name="b" unicode="b" horiz-adv-x="1177" 
d="M338 435q0 -111 56 -179t150 -68q95 0 165 71t108 176q39 105 39 220t-50 183t-147 68t-171 -76q-74 -75 -112 -179t-38 -216zM573 -18q-203 0 -294 196l-41 -178h-242l358 1479h244l-127 -523q145 156 293 156t246 -117q96 -117 96 -298q0 -365 -207 -572
q-148 -143 -326 -143z" />
    <glyph glyph-name="c" unicode="c" horiz-adv-x="956" 
d="M489 -20q-185 0 -303 121q-117 122 -116 329q0 146 54 286t148 234q164 160 367 160q233 0 360 -195l-180 -141q-80 127 -181 127t-174 -74q-73 -73 -113 -181t-40 -218q1 -110 55 -176t139 -66t200 95l122 -158q-153 -143 -338 -143z" />
    <glyph glyph-name="d" unicode="d" horiz-adv-x="1177" 
d="M520 188q96 0 170 74t113 179t39 217t-56 180t-149 68q-92 0 -165 -72q-73 -71 -112 -176q-38 -105 -38 -221q0 -117 51 -183t147 -66zM72 396q0 182 55 329t152 244q147 143 325 143q203 0 295 -197l135 564h244l-363 -1479h-241l33 135q-147 -153 -295 -153t-244 116
t-96 298z" />
    <glyph glyph-name="e" unicode="e" horiz-adv-x="1067" 
d="M786 735q0 72 -42 125q-42 54 -133 54t-170 -79t-117 -217h450q12 45 12 117zM299 459v-17q0 -122 57 -194t166 -72t228 90l106 -166q-160 -120 -356 -120t-313 124q-116 124 -115 338q0 142 54 280t150 234q156 156 361 156q172 0 273 -112t102 -289q0 -125 -47 -252
h-666z" />
    <glyph glyph-name="f" unicode="f" horiz-adv-x="710" 
d="M705 1491q98 0 174 -29l-54 -200q-57 20 -114 20q-113 0 -144 -131l-16 -59h233l-55 -209h-227l-213 -883h-244l213 883h-123l55 209h121l17 69q38 162 124 246t253 84z" />
    <glyph glyph-name="g" unicode="g" horiz-adv-x="1173" 
d="M825 684q0 98 -53 160t-145 63q-93 -1 -161 -69t-104 -165t-34 -193q0 -96 49 -150t144 -54t179 84q51 50 88 138t37 186zM410 -311q-252 0 -461 147l121 170q168 -123 340 -123q121 0 202 78q61 63 95 189l22 90q-150 -160 -303 -160t-251 98q-97 98 -97 256t54 297
t149 236q150 145 323 145q201 0 287 -205l45 185h242l-224 -930q-55 -233 -166 -344q-126 -129 -378 -129z" />
    <glyph glyph-name="h" unicode="h" horiz-adv-x="1103" 
d="M760 1112q124 0 198 -77t74 -210q0 -66 -33 -204l-147 -621h-246l152 625q18 66 18 127q0 139 -141 139q-84 0 -149 -67t-89 -171l-159 -653h-242l358 1479h244l-123 -514q129 147 285 147z" />
    <glyph glyph-name="i" unicode="i" horiz-adv-x="524" 
d="M303 1243l62 238h258l-64 -238h-256zM8 0l268 1092h242l-266 -1092h-244z" />
    <glyph glyph-name="j" unicode="j" horiz-adv-x="528" 
d="M307 1243l62 238h256l-62 -238h-256zM-88 -313q-92 0 -156 22l51 189q41 -12 70 -13q113 0 143 142l261 1065h241l-268 -1102q-74 -303 -342 -303z" />
    <glyph glyph-name="k" unicode="k" horiz-adv-x="1028" 
d="M-4 0l360 1479h244l-199 -828l426 441h310l-459 -428l203 -664h-269l-137 494l-153 -150l-84 -344h-242z" />
    <glyph glyph-name="l" unicode="l" horiz-adv-x="524" 
d="M8 0l363 1479h241l-360 -1479h-244z" />
    <glyph glyph-name="m" unicode="m" horiz-adv-x="1695" 
d="M752 1112q92 0 158 -51t91 -143q143 195 347 194q126 0 202 -75t76 -199q0 -78 -33 -217l-151 -621h-242l152 627q18 80 18 127q0 137 -137 137q-81 0 -145 -65t-87 -164l-161 -662h-242l152 627q18 77 18 135t-36 94t-110 35q-74 0 -136 -67q-64 -67 -89 -171l-159 -653
h-242l266 1092h242l-29 -127q133 147 277 147z" />
    <glyph glyph-name="n" unicode="n" horiz-adv-x="1099" 
d="M760 1112q124 0 198 -77t74 -210q0 -66 -33 -204l-147 -621h-246l152 625q18 66 18 127q0 139 -141 139q-84 0 -149 -67t-89 -171l-159 -653h-242l266 1092h242l-29 -127q129 147 285 147z" />
    <glyph glyph-name="o" unicode="o" horiz-adv-x="1138" 
d="M311 436q-1 -112 55 -180t151 -68t165 71t108 176t38 218t-56 181q-55 68 -148 68t-166 -70t-110 -176q-37 -108 -37 -220zM629 1112q203 0 319 -128t117 -339q0 -145 -53 -281t-148 -231q-152 -156 -354 -156t-320 129q-117 129 -116 336q0 148 53 284t147 230
q152 156 355 156z" />
    <glyph glyph-name="p" unicode="p" horiz-adv-x="1177" 
d="M338 435q0 -111 56 -179t150 -68q95 0 165 71t108 176q39 105 39 220t-50 183t-147 68t-171 -76q-74 -75 -112 -179t-38 -216zM573 -18q-203 0 -294 196l-115 -485h-244l342 1399h242l-33 -136q145 156 293 156t246 -117q96 -117 96 -298q0 -365 -207 -572
q-148 -143 -326 -143z" />
    <glyph glyph-name="q" unicode="q" horiz-adv-x="1177" 
d="M520 188q96 0 170 74t113 179t39 217t-56 180t-149 68q-92 0 -165 -72q-73 -71 -112 -176q-38 -105 -38 -221q0 -117 51 -183t147 -66zM412 -18q-147 0 -244 116q-96 116 -96 298q0 364 207 571q145 145 337 145t283 -197l41 177h244l-340 -1399h-244l107 442
q-148 -153 -295 -153z" />
    <glyph glyph-name="r" unicode="r" horiz-adv-x="733" 
d="M743 856q-299 0 -385 -356l-120 -500h-242l266 1092h242l-47 -197q154 231 368 215l-67 -254h-15z" />
    <glyph glyph-name="s" unicode="s" horiz-adv-x="870" 
d="M373 -20q-242 0 -420 198l145 148q145 -158 281 -158q59 0 101 35t42 83t-35 85t-143 107t-159 138q-52 70 -52 164q-1 136 103 232t272 96q211 0 371 -164l-136 -158q-137 135 -247 136q-56 0 -94 -34t-38 -79t34 -80t144 -107t162 -145q52 -74 52 -164
q0 -141 -110 -237t-273 -96z" />
    <glyph glyph-name="t" unicode="t" horiz-adv-x="720" 
d="M333 -14q-110 0 -172 54t-63 148q0 43 21 134l135 561h-123l53 209h121l70 286h243l-69 -286h225l-53 -209h-223l-138 -564q-6 -31 -6 -53q0 -66 84 -65q63 0 129 30l-51 -208q-73 -37 -183 -37z" />
    <glyph glyph-name="u" unicode="u" horiz-adv-x="1103" 
d="M346 -20q-125 0 -199 76t-73 210q0 76 30 205l150 621h244l-152 -623q-18 -80 -18 -127q0 -141 141 -141q83 -1 149 67t89 170l159 654h244l-266 -1092h-244l31 127q-131 -147 -285 -147z" />
    <glyph glyph-name="v" unicode="v" horiz-adv-x="1044" 
d="M272 -8l-106 1100h250l39 -791l415 791h260l-638 -1100h-220z" />
    <glyph glyph-name="w" unicode="w" horiz-adv-x="1529" 
d="M205 -8l-29 1100h246l-8 -746l372 748h211l17 -750l352 748h242l-570 -1100h-219l-20 743l-377 -743h-217z" />
    <glyph glyph-name="x" unicode="x" horiz-adv-x="1019" 
d="M446 1092l109 -347l256 347h285l-451 -543l203 -549h-256l-117 373l-274 -373h-285l471 569l-197 523h256z" />
    <glyph glyph-name="y" unicode="y" horiz-adv-x="1044" 
d="M162 -108q58 0 121 102l-105 1098h248l41 -801l397 801h260l-604 -1110q-86 -160 -170 -228t-206 -68t-218 87l117 166q61 -47 119 -47z" />
    <glyph glyph-name="z" unicode="z" horiz-adv-x="950" 
d="M-51 0l43 170l653 725h-471l49 197h774l-41 -170l-657 -723h492l-52 -199h-790z" />
    <glyph glyph-name="braceleft" unicode="{" horiz-adv-x="862" 
d="M205 2q0 63 55 209q47 113 47 166q0 121 -184 121h-49l49 184h51q145 0 207 61q76 78 78 284t110 314q127 123 387 123l17 -166q-170 -14 -234 -77q-43 -43 -57 -103t-14 -176q-10 -202 -87 -278t-216 -95q166 -37 165 -182q0 -65 -49 -179t-49 -172t39 -95t147 -74
l-73 -154q-184 37 -262 107t-78 182z" />
    <glyph glyph-name="bar" unicode="|" horiz-adv-x="634" 
d="M27 -244l456 1860h193l-459 -1860h-190z" />
    <glyph glyph-name="braceright" unicode="}" horiz-adv-x="862" 
d="M678 1176q0 -63 -55 -209q-47 -113 -48 -166q0 -121 185 -121h49l-49 -184h-51q-145 0 -207 -62q-76 -78 -78 -284t-111 -314q-127 -123 -387 -123l-16 166q170 14 233 78q43 43 58 103q14 60 14 176q10 202 87 278t216 94q-166 37 -166 183q0 65 49 179t49 172t-38 95
q-39 37 -148 74l74 153q184 -36 262 -106t78 -182z" />
    <glyph glyph-name="asciitilde" unicode="~" horiz-adv-x="909" 
d="M365 770q76 0 139 -57q66 -51 96 -51q66 0 121 112l133 -61q-102 -238 -256 -238q-74 0 -141 57q-66 51 -95 52q-63 0 -122 -113l-131 61q102 238 256 238z" />
    <glyph glyph-name="uni00A0" unicode="&#xa0;" horiz-adv-x="466" 
 />
    <glyph glyph-name="exclamdown" unicode="&#xa1;" horiz-adv-x="583" 
d="M641 1434l-70 -279h-270l70 279h270zM461 981l-146 -909l-16 -72h-287l17 72l299 909h133z" />
    <glyph glyph-name="cent" unicode="&#xa2;" horiz-adv-x="1015" 
d="M360 633q0 -150 82 -219l209 661q-90 -8 -157 -80q-62 -61 -98 -163t-36 -199zM561 158q-31 0 -45 2l-59 -172h-170l73 211q-113 51 -176 161t-63 260t50 286t140 227q152 156 379 155h27l53 156h170l-66 -191q121 -47 199 -172l-172 -129q-53 70 -102 97l-221 -682
q106 0 223 84l114 -158q-160 -135 -354 -135z" />
    <glyph glyph-name="sterling" unicode="&#xa3;" horiz-adv-x="1118" 
d="M817 1225q-162 0 -221 -238l-47 -199h407l-51 -204h-405l-88 -369h551l-56 -215h-936l41 156l152 49l90 379h-145l53 204h141l57 240q101 424 471 424q125 0 221 -58t150 -153l-194 -139q-74 123 -191 123z" />
    <glyph glyph-name="yen" unicode="&#xa5;" horiz-adv-x="1224" 
d="M358 0l52 219h-322l45 176h320l36 150h-321l47 176h258l-215 713h262l152 -596l436 596h293l-570 -713h265l-45 -176h-324l-37 -150h326l-47 -176h-322l-53 -219h-236z" />
    <glyph glyph-name="section" unicode="&#xa7;" horiz-adv-x="1124" 
d="M356 757q0 -50 32 -80t101 -63q137 -51 205 -51t114 34t46 84t-32 79t-103 63q-135 51 -203 51t-114 -33q-46 -34 -46 -84zM1085 720q0 -110 -85 -176t-201 -83q84 -78 84 -194q1 -115 -105 -199t-282 -84q-256 0 -412 161l143 150q131 -125 275 -125q70 0 108 28t39 70
q0 42 -39 71q-39 31 -181 87t-223 119t-81 173t84 176t201 85q-82 75 -82 191t104 200t283 84q256 0 411 -162l-143 -149q-131 125 -276 125q-68 0 -107 -28t-39 -71t39 -71q40 -28 182 -84t223 -119q80 -65 80 -175z" />
    <glyph glyph-name="dieresis" unicode="&#xa8;" horiz-adv-x="1024" 
d="M737 1212l62 232h235l-59 -232h-238zM377 1212l57 232h238l-60 -232h-235z" />
    <glyph glyph-name="copyright" unicode="&#xa9;" horiz-adv-x="1507" 
d="M723 49q248 0 428 180q115 115 173 277t58 330q2 236 -134 392t-386 156t-426 -180q-115 -112 -174 -274t-61 -330q0 -236 137 -394t385 -157zM1460 836q0 -180 -66 -354t-186 -298q-209 -209 -485 -209q-276 -1 -437 177t-161 446q0 182 65 356q66 174 187 295
q209 209 485 209t437 -177t161 -445zM747 317q-135 0 -217 87t-81 233q-1 105 39 209t110 172q116 112 270 112t248 -139l-117 -90q-71 92 -151 92t-134 -54t-84 -134t-30 -165t42 -136t116 -51t160 73l77 -104q-113 -105 -248 -105z" />
    <glyph glyph-name="ordfeminine" unicode="&#xaa;" horiz-adv-x="710" 
d="M106 596l29 111h481l-28 -111h-482zM418 922q41 0 81 39t54 94l10 37q-57 20 -109 20t-84 -35t-33 -76t19 -60t62 -19zM363 821q-79 0 -123 44t-43 127q0 83 66 148q67 64 151 64t168 -30l6 22q6 25 6 47q0 76 -100 76q-68 0 -144 -31l-33 115q101 39 201 39t156 -46
t57 -128q0 -41 -14 -99l-82 -335h-137l16 67q-72 -80 -151 -80z" />
    <glyph glyph-name="guillemotleft" unicode="&#xab;" horiz-adv-x="1128" 
d="M764 74l-219 446l4 17l452 456l125 -119l-325 -368l143 -354zM303 74l-219 446l4 17l451 456l127 -119l-326 -368l143 -354z" />
    <glyph glyph-name="registered" unicode="&#xae;" horiz-adv-x="716" 
d="M494 1108q86 0 88 61q0 49 -64 50h-43l-24 -111h43zM520 1294q147 0 148 -116q0 -96 -101 -129l49 -138h-90l-43 123h-53l-29 -123h-86l93 383h112zM456 772q120 0 210 90q117 117 116 293q0 113 -66 189t-188 75q-121 0 -209 -88q-117 -117 -116 -295q1 -112 67 -188
t186 -76zM162 1034q0 196 115 310t252 114t215 -85t77 -214q0 -197 -125 -321q-102 -102 -239 -102t-216 84q-79 85 -79 214z" />
    <glyph glyph-name="macron" unicode="&#xaf;" horiz-adv-x="1024" 
d="M367 1219l47 174h616l-45 -174h-618z" />
    <glyph glyph-name="degree" unicode="&#xb0;" horiz-adv-x="788" 
d="M315 1067q-1 -74 39 -119t110 -45t118 53q78 74 77 197q0 76 -37 121q-38 45 -108 45t-119 -53q-80 -76 -80 -199zM521 1448q128 0 202 -80t74 -207q0 -176 -119 -291q-92 -96 -222 -96t-204 80t-74 207q0 172 119 291q96 96 224 96z" />
    <glyph glyph-name="plusminus" unicode="&#xb1;" horiz-adv-x="1122" 
d="M2 61l53 207h877l-51 -207h-879zM424 426l80 322h-332l53 213l330 -3l80 322h217l-80 -322l332 3l-53 -213h-332l-76 -322h-219z" />
    <glyph glyph-name="two.sup" unicode="&#xb2;" 
d="M575 1538q-76 0 -178 -90l-88 100q125 125 275 125q112 0 180 -58q68 -59 68 -141t-36 -140t-145 -136l-237 -182h327l-32 -129h-533l31 121l366 290q106 90 107 154q0 38 -29 62t-76 24z" />
    <glyph glyph-name="three.sup" unicode="&#xb3;" 
d="M469 870q-174 0 -279 121l97 101q89 -89 168 -90t119 37t40 87q0 102 -168 107h-38l-5 90l250 203h-299l33 133h494l-27 -111l-274 -217q186 -33 186 -194q0 -115 -84 -191t-213 -76z" />
    <glyph glyph-name="acute" unicode="&#xb4;" horiz-adv-x="1024" 
d="M455 1206l282 330l209 -98l-291 -232h-200z" />
    <glyph glyph-name="paragraph" unicode="&#xb6;" horiz-adv-x="1054" 
d="M815 1434h303l-350 -1434h-246l109 463q-252 10 -364 123t-111 297q0 227 153 379q168 172 506 172z" />
    <glyph glyph-name="periodcentered" unicode="&#xb7;" horiz-adv-x="550" 
d="M117 487l69 281h275l-72 -281h-272z" />
    <glyph glyph-name="cedilla" unicode="&#xb8;" horiz-adv-x="1024" 
d="M328 -311l-189 86l223 245h179z" />
    <glyph glyph-name="one.sup" unicode="&#xb9;" horiz-adv-x="587" 
d="M346 887l148 612l-160 -61l-8 131l243 94h111l-191 -776h-143z" />
    <glyph glyph-name="ordmasculine" unicode="&#xba;" horiz-adv-x="727" 
d="M762 1186q0 -172 -115 -281q-79 -86 -195 -86t-183 70t-66 186q0 172 114 283q86 86 199 86q114 0 180 -70t66 -188zM342 1077q0 -59 30 -98t82 -39t95 43q74 70 74 201q0 61 -30 99t-81 38t-96 -41q-74 -78 -74 -203zM111 596l26 111h496l-29 -111h-493z" />
    <glyph glyph-name="guillemotright" unicode="&#xbb;" horiz-adv-x="1128" 
d="M356 991l219 -446l-4 -17l-452 -456l-125 118l325 369l-143 354zM817 991l219 -446l-4 -17l-450 -456l-127 118l325 369l-143 354z" />
    <glyph glyph-name="onequarter" unicode="&#xbc;" horiz-adv-x="1490" 
d="M864 276h226l75 328h-4zM1018 -2l39 164h-352l26 133l455 485h160l-123 -501h96l-31 -117h-96l-41 -164h-133zM45 0l633 745l567 689h150l-633 -746l-567 -688h-150zM254 662l147 616l-159 -64l-9 129l242 99h113l-189 -780h-145z" />
    <glyph glyph-name="onehalf" unicode="&#xbd;" horiz-adv-x="1490" 
d="M254 662l147 616l-159 -64l-9 129l242 99h113l-189 -780h-145zM14 0l633 745l567 689h150l-633 -746l-567 -688h-150zM1196 565q0 37 -29 62t-75 24q-76 0 -179 -90l-88 101q125 125 275 124q112 0 180 -58t68 -140t-36 -140t-145 -137l-237 -182h327l-32 -129h-533
l31 121l367 291q106 90 106 153z" />
    <glyph glyph-name="threequarters" unicode="&#xbe;" horiz-adv-x="1626" 
d="M371 645q-174 0 -277 123l94 98q34 -29 52 -43q57 -43 127 -44q71 -1 111 37t40 87q0 104 -168 105h-39l-4 90l250 202h-299l35 134h493l-28 -111l-275 -215q184 -35 185 -195q0 -117 -83 -193t-214 -75zM176 0l633 745l567 689h150l-633 -746l-567 -688h-150zM1001 276
h226l76 328h-5zM1155 -2l39 164h-352l26 133l455 485h160l-123 -501h96l-31 -117h-96l-41 -164h-133z" />
    <glyph glyph-name="questiondown" unicode="&#xbf;" horiz-adv-x="962" 
d="M893 1434l-70 -279h-268l70 279h268zM293 362q0 -72 46 -112t122 -41q125 0 264 115l127 -179q-186 -162 -418 -161q-182 0 -291 99t-109 263t124 280q123 116 348 156l65 199h164l-45 -344l-12 -12q-186 -20 -286 -90t-99 -173z" />
    <glyph glyph-name="Agrave" unicode="&#xc0;" horiz-adv-x="1343" 
d="M834 1552l-207 195l219 94l158 -289h-170zM510 565h369l-50 576zM-94 0l874 1444h242l168 -1444h-252l-35 346h-532l-201 -346h-264z" />
    <glyph glyph-name="Aacute" unicode="&#xc1;" horiz-adv-x="1343" 
d="M817 1552l285 289l211 -94l-289 -195h-207zM510 565h369l-50 576zM-94 0l874 1444h242l168 -1444h-252l-35 346h-532l-201 -346h-264z" />
    <glyph glyph-name="Acircumflex" unicode="&#xc2;" horiz-adv-x="1343" 
d="M569 1548l295 271h230l161 -271h-186l-115 115l-174 -115h-211zM510 565h369l-50 576zM-94 0l874 1444h242l168 -1444h-252l-35 346h-532l-201 -346h-264z" />
    <glyph glyph-name="Atilde" unicode="&#xc3;" horiz-adv-x="1343" 
d="M1081 1741q61 0 119 90l135 -45q-53 -119 -108 -175q-55 -57 -125 -57t-174 43q-68 37 -103 37q-63 0 -116 -92l-136 47q53 119 109 175t126 56q72 0 171 -42q68 -37 102 -37zM510 565h369l-50 576zM-94 0l874 1444h242l168 -1444h-252l-35 346h-532l-201 -346h-264z" />
    <glyph glyph-name="Adieresis" unicode="&#xc4;" horiz-adv-x="1343" 
d="M997 1559l58 221h239l-57 -221h-240zM623 1559l55 221h242l-58 -221h-239zM510 565h369l-50 576zM-94 0l874 1444h242l168 -1444h-252l-35 346h-532l-201 -346h-264z" />
    <glyph glyph-name="Aring" unicode="&#xc5;" horiz-adv-x="1343" 
d="M799 1504q1 -46 29 -72t82 -27q54 0 91 37t37 83q0 45 -28 73t-83 28q-54 0 -91 -38t-37 -84zM510 565h369l-50 576zM690 1506q0 81 68 147q68 65 169 65t160 -53t60 -129q0 -131 -113 -193l156 -1343h-252l-35 346h-532l-201 -346h-264l831 1374q-47 51 -47 132z" />
    <glyph glyph-name="AE" unicode="&#xc6;" horiz-adv-x="1822" 
d="M551 565h311l156 654h-33zM-117 0l1008 1434h1046l-59 -222h-616l-88 -381h544l-57 -219h-545l-92 -391h629l-58 -221h-872l82 346h-420l-235 -346h-267z" />
    <glyph glyph-name="Ccedilla" unicode="&#xc7;" horiz-adv-x="1236" 
d="M121 548q1 200 71 386t195 313q211 207 489 207t451 -242l-194 -161q-121 176 -275 176t-283 -125q-88 -90 -143 -236t-55 -304q0 -159 83 -257t221 -98t284 123l141 -172q-188 -178 -426 -178h-29l-186 -291l-189 86l211 231q-170 54 -268 198t-98 344z" />
    <glyph glyph-name="Egrave" unicode="&#xc8;" horiz-adv-x="1148" 
d="M20 0l351 1434h893l-58 -222h-645l-90 -381h573l-57 -219h-573l-90 -391h657l-59 -221h-902zM743 1536l-206 195l219 94l157 -289h-170z" />
    <glyph glyph-name="Eacute" unicode="&#xc9;" horiz-adv-x="1148" 
d="M20 0l351 1434h893l-58 -222h-645l-90 -381h573l-57 -219h-573l-90 -391h657l-59 -221h-902zM723 1536l285 289l211 -94l-289 -195h-207z" />
    <glyph glyph-name="Ecircumflex" unicode="&#xca;" horiz-adv-x="1148" 
d="M481 1540l295 270h230l161 -270h-186l-115 115l-174 -115h-211zM20 0l351 1434h893l-58 -222h-645l-90 -381h573l-57 -219h-573l-90 -391h657l-59 -221h-902z" />
    <glyph glyph-name="Edieresis" unicode="&#xcb;" horiz-adv-x="1148" 
d="M20 0l351 1434h893l-58 -222h-645l-90 -381h573l-57 -219h-573l-90 -391h657l-59 -221h-902zM903 1542l58 221h239l-57 -221h-240zM528 1542l56 221h241l-57 -221h-240z" />
    <glyph glyph-name="Igrave" unicode="&#xcc;" horiz-adv-x="583" 
d="M442 1536l-206 195l219 94l157 -289h-170zM35 0l350 1434h250l-350 -1434h-250z" />
    <glyph glyph-name="Iacute" unicode="&#xcd;" horiz-adv-x="583" 
d="M426 1536l285 289l211 -94l-289 -195h-207zM35 0l350 1434h250l-350 -1434h-250z" />
    <glyph glyph-name="Icircumflex" unicode="&#xce;" horiz-adv-x="583" 
d="M182 1540l295 270h230l161 -270h-186l-115 115l-174 -115h-211zM35 0l350 1434h250l-350 -1434h-250z" />
    <glyph glyph-name="Idieresis" unicode="&#xcf;" horiz-adv-x="583" 
d="M606 1542l58 221h239l-57 -221h-240zM231 1542l56 221h241l-57 -221h-240zM35 0l350 1434h250l-350 -1434h-250z" />
    <glyph glyph-name="Eth" unicode="&#xd0;" horiz-adv-x="1386" 
d="M715 1208h-121l-90 -377h258l-60 -221h-251l-95 -385h144q260 0 413 156q88 88 135 215q46 127 46 250q-1 178 -95 268q-90 94 -284 94zM733 1434q305 0 459 -152t156 -428q0 -166 -64 -335t-184 -290q-229 -229 -633 -229h-414l150 610h-156l57 221h152l147 603h330z
" />
    <glyph glyph-name="Ntilde" unicode="&#xd1;" horiz-adv-x="1380" 
d="M20 0l351 1434h231l359 -1004l239 1004h244l-350 -1434h-211l-373 1034l-244 -1034h-246zM810 1802q72 0 171 -43q68 -37 102 -37q61 0 119 90l135 -45q-53 -119 -108 -175t-125 -56t-174 43q-68 37 -103 37q-63 0 -116 -92l-136 47q53 119 109 175q54 56 126 56z" />
    <glyph glyph-name="Ograve" unicode="&#xd2;" horiz-adv-x="1435" 
d="M678 205q143 0 262 119q92 92 148 246t57 308q0 154 -80 251q-79 97 -227 97t-260 -116q-92 -94 -148 -249t-55 -307q0 -152 80 -251q80 -98 223 -98zM868 1456q242 0 386 -159t145 -416q0 -188 -72 -382t-199 -323q-199 -199 -479 -199q-242 0 -385 159t-143 417
q0 188 70 383q71 195 198 319q200 201 479 201zM854 1552l-207 195l219 94l158 -289h-170z" />
    <glyph glyph-name="Oacute" unicode="&#xd3;" horiz-adv-x="1435" 
d="M678 205q143 0 262 119q92 92 148 246t57 308q0 154 -80 251q-79 97 -227 97t-260 -116q-92 -94 -148 -249t-55 -307q0 -152 80 -251q80 -98 223 -98zM868 1456q242 0 386 -159t145 -416q0 -188 -72 -382t-199 -323q-199 -199 -479 -199q-242 0 -385 159t-143 417
q0 188 70 383q71 195 198 319q200 201 479 201zM825 1552l285 289l211 -94l-289 -195h-207z" />
    <glyph glyph-name="Ocircumflex" unicode="&#xd4;" horiz-adv-x="1435" 
d="M592 1556l295 271h229l162 -271h-186l-115 115l-174 -115h-211zM678 205q143 0 262 119q92 92 148 246t57 308q0 154 -80 251q-79 97 -227 97t-260 -116q-92 -94 -148 -249t-55 -307q0 -152 80 -251q80 -98 223 -98zM868 1456q242 0 386 -159t145 -416q0 -188 -72 -382
t-199 -323q-199 -199 -479 -199q-242 0 -385 159t-143 417q0 188 70 383q71 195 198 319q200 201 479 201z" />
    <glyph glyph-name="Otilde" unicode="&#xd5;" horiz-adv-x="1435" 
d="M678 205q143 0 262 119q92 92 148 246t57 308q0 154 -80 251q-79 97 -227 97t-260 -116q-92 -94 -148 -249t-55 -307q0 -152 80 -251q80 -98 223 -98zM868 1456q242 0 386 -159t145 -416q0 -188 -72 -382t-199 -323q-199 -199 -479 -199q-242 0 -385 159t-143 417
q0 188 70 383q71 195 198 319q200 201 479 201zM1104 1741q61 0 119 90l135 -45q-52 -119 -108 -175q-56 -57 -126 -57t-174 43q-68 37 -102 37q-64 0 -117 -92l-135 47q52 119 108 175t128 56t169 -42q68 -37 103 -37z" />
    <glyph glyph-name="Odieresis" unicode="&#xd6;" horiz-adv-x="1435" 
d="M678 205q143 0 262 119q92 92 148 246t57 308q0 154 -80 251q-79 97 -227 97t-260 -116q-92 -94 -148 -249t-55 -307q0 -152 80 -251q80 -98 223 -98zM868 1456q242 0 386 -159t145 -416q0 -188 -72 -382t-199 -323q-199 -199 -479 -199q-242 0 -385 159t-143 417
q0 188 70 383q71 195 198 319q200 201 479 201zM1016 1559l57 221h240l-58 -221h-239zM641 1559l55 221h242l-57 -221h-240z" />
    <glyph glyph-name="multiply" unicode="&#xd7;" horiz-adv-x="1122" 
d="M233 283l-129 166l355 284l-207 279l184 145l199 -285l350 289l127 -168l-352 -282l207 -279l-185 -145l-200 282z" />
    <glyph glyph-name="Oslash" unicode="&#xd8;" horiz-adv-x="1435" 
d="M367 565q0 -78 14 -133l674 727q-81 78 -223 78t-259 -121q-92 -90 -149 -248t-57 -303zM686 197q140 0 260 120q92 92 150 250q57 158 57 303q0 68 -16 134l-672 -730q81 -77 221 -77zM868 1456q213 0 355 -129l114 119h238l-248 -256q72 -131 72 -314t-72 -377
t-199 -323q-199 -199 -479 -199q-215 0 -356 129l-113 -116h-235l245 252q-70 127 -70 313t71 381t198 319q200 201 479 201z" />
    <glyph glyph-name="Ugrave" unicode="&#xd9;" horiz-adv-x="1341" 
d="M590 -23q-211 0 -334 112t-123 310q0 92 35 219l194 816h248l-204 -844q-20 -92 -20 -177t60 -145q61 -60 178 -61q117 0 203 86t127 258l213 883h246l-221 -920q-66 -256 -195 -385q-151 -152 -407 -152zM801 1534l-207 195l219 94l158 -289h-170z" />
    <glyph glyph-name="Uacute" unicode="&#xda;" horiz-adv-x="1341" 
d="M590 -23q-211 0 -334 112t-123 310q0 92 35 219l194 816h248l-204 -844q-20 -92 -20 -177t60 -145q61 -60 178 -61q117 0 203 86t127 258l213 883h246l-221 -920q-66 -256 -195 -385q-151 -152 -407 -152zM786 1534l285 289l211 -94l-289 -195h-207z" />
    <glyph glyph-name="Ucircumflex" unicode="&#xdb;" horiz-adv-x="1341" 
d="M543 1538l295 270h229l162 -270h-187l-114 115l-174 -115h-211zM590 -23q-211 0 -334 112t-123 310q0 92 35 219l194 816h248l-204 -844q-20 -92 -20 -177t60 -145q61 -60 178 -61q117 0 203 86t127 258l213 883h246l-221 -920q-66 -256 -195 -385q-151 -152 -407 -152z
" />
    <glyph glyph-name="Udieresis" unicode="&#xdc;" horiz-adv-x="1341" 
d="M590 -23q-211 0 -334 112t-123 310q0 92 35 219l194 816h248l-204 -844q-20 -92 -20 -177t60 -145q61 -60 178 -61q117 0 203 86t127 258l213 883h246l-221 -920q-66 -256 -195 -385q-151 -152 -407 -152zM965 1540l57 221h240l-58 -221h-239zM590 1540l55 221h242
l-58 -221h-239z" />
    <glyph glyph-name="Yacute" unicode="&#xdd;" horiz-adv-x="1142" 
d="M674 1534l284 289l211 -94l-288 -195h-207zM305 0l141 582l-249 852h270l154 -629l454 629h299l-684 -873l-137 -561h-248z" />
    <glyph glyph-name="Thorn" unicode="&#xde;" horiz-adv-x="1208" 
d="M541 459q190 0 295 98q84 86 84 223q0 86 -54 144q-66 66 -209 65h-149l-125 -530h158zM670 1212q270 0 401 -129q106 -106 107 -286q0 -229 -150 -379q-176 -176 -498 -176h-202l-58 -242h-250l351 1434h247l-55 -222h107z" />
    <glyph glyph-name="germandbls" unicode="&#xdf;" horiz-adv-x="1110" 
d="M766 442q0 168 -227 209l41 162q141 31 216 114q74 83 74 175t-45 137t-112 45q-164 0 -224 -244l-251 -1040h-242l258 1059q47 203 164 317t297 115q180 0 283 -98q104 -99 104 -249t-84 -262t-230 -157q209 -96 209 -296q1 -200 -163 -329t-455 -104l51 190
q162 -6 249 68t87 188z" />
    <glyph glyph-name="agrave" unicode="&#xe0;" horiz-adv-x="1040" 
d="M571 1208l-186 232l217 98l135 -330h-166zM478 518q-102 0 -164 -61t-62 -145t38 -122t116 -38q79 0 150 70t95 171l21 88q-92 37 -194 37zM293 -20q-129 0 -206 80t-77 210q0 174 116 288t312 114q125 0 269 -51l6 24q14 68 14 109q0 141 -190 141q-115 0 -244 -57
l-55 196q160 70 342 70t282 -79q102 -79 103 -220q0 -80 -31 -199l-143 -606h-238l33 131q-127 -151 -293 -151z" />
    <glyph glyph-name="aacute" unicode="&#xe1;" horiz-adv-x="1040" 
d="M561 1208l283 330l209 -98l-291 -232h-201zM478 518q-102 0 -164 -61t-62 -145t38 -122t116 -38q79 0 150 70t95 171l21 88q-92 37 -194 37zM293 -20q-129 0 -206 80t-77 210q0 174 116 288t312 114q125 0 269 -51l6 24q14 68 14 109q0 141 -190 141q-115 0 -244 -57
l-55 196q160 70 342 70t282 -79q102 -79 103 -220q0 -80 -31 -199l-143 -606h-238l33 131q-127 -151 -293 -151z" />
    <glyph glyph-name="acircumflex" unicode="&#xe2;" horiz-adv-x="1040" 
d="M328 1210l288 299h228l141 -299h-180l-105 144l-176 -144h-196zM478 518q-102 0 -164 -61t-62 -145t38 -122t116 -38q79 0 150 70t95 171l21 88q-92 37 -194 37zM293 -20q-129 0 -206 80t-77 210q0 174 116 288t312 114q125 0 269 -51l6 24q14 68 14 109q0 141 -190 141
q-115 0 -244 -57l-55 196q160 70 342 70t282 -79q102 -79 103 -220q0 -80 -31 -199l-143 -606h-238l33 131q-127 -151 -293 -151z" />
    <glyph glyph-name="atilde" unicode="&#xe3;" horiz-adv-x="1040" 
d="M573 1296q-63 0 -114 -100l-133 45q49 121 105 180q57 59 127 59t161 -46q65 -39 99 -39t59 22q24 23 55 76l133 -45q-55 -123 -109 -181q-54 -59 -128 -59t-150 44t-105 44zM478 518q-102 0 -164 -61t-62 -145t38 -122t116 -38q79 0 150 70t95 171l21 88q-92 37 -194 37
zM293 -20q-129 0 -206 80t-77 210q0 174 116 288t312 114q125 0 269 -51l6 24q14 68 14 109q0 141 -190 141q-115 0 -244 -57l-55 196q160 70 342 70t282 -79q102 -79 103 -220q0 -80 -31 -199l-143 -606h-238l33 131q-127 -151 -293 -151z" />
    <glyph glyph-name="adieresis" unicode="&#xe4;" horiz-adv-x="1040" 
d="M731 1214l62 232h235l-59 -232h-238zM371 1214l57 232h238l-60 -232h-235zM478 518q-102 0 -164 -61t-62 -145t38 -122t116 -38q79 0 150 70t95 171l21 88q-92 37 -194 37zM293 -20q-129 0 -206 80t-77 210q0 174 116 288t312 114q125 0 269 -51l6 24q14 68 14 109
q0 141 -190 141q-115 0 -244 -57l-55 196q160 70 342 70t282 -79q102 -79 103 -220q0 -80 -31 -199l-143 -606h-238l33 131q-127 -151 -293 -151z" />
    <glyph glyph-name="aring" unicode="&#xe5;" horiz-adv-x="1040" 
d="M602 1406q0 -52 29 -83t81 -31t89 44t37 98t-29 83t-80 29t-89 -44t-38 -96zM936 1439q0 -89 -67 -161t-162 -72t-150 54t-55 142q0 89 67 162q68 72 162 72q93 0 149 -54t56 -143zM478 518q-102 0 -164 -61t-62 -145t38 -122t116 -38q79 0 150 70t95 171l21 88
q-92 37 -194 37zM293 -20q-129 0 -206 80t-77 210q0 174 116 288t312 114q125 0 269 -51l6 24q14 68 14 109q0 141 -190 141q-115 0 -244 -57l-55 196q160 70 342 70t282 -79q102 -79 103 -220q0 -80 -31 -199l-143 -606h-238l33 131q-127 -151 -293 -151z" />
    <glyph glyph-name="ae" unicode="&#xe6;" horiz-adv-x="1665" 
d="M1386 740q0 67 -43 120q-43 54 -132 54t-170 -79t-119 -217h452q12 55 12 122zM252 312q0 -160 155 -160q75 0 155 50t138 132q-8 57 -4 135q-98 49 -210 49t-173 -61t-61 -145zM1106 -20q-268 0 -365 223q-172 -223 -422 -223q-149 0 -229 78t-80 212q0 174 116 288
t312 114q125 0 269 -51l6 24q14 66 14 109q0 141 -190 141q-115 0 -244 -57l-55 196q160 70 340 70q250 0 317 -170q154 178 354 178q162 0 262 -112t101 -289q0 -117 -47 -252h-668v-17q0 -122 57 -194t165 -72t231 90l104 -166q-155 -120 -348 -120z" />
    <glyph glyph-name="ccedilla" unicode="&#xe7;" horiz-adv-x="956" 
d="M639 1110q233 0 360 -195l-180 -141q-80 127 -181 127t-174 -74q-73 -73 -113 -181t-40 -218q1 -110 55 -176t139 -66t200 95l122 -158q-152 -141 -329 -143l-187 -291l-188 86l209 231q-123 43 -193 154q-69 111 -69 264q0 152 54 292t148 234q164 160 367 160z" />
    <glyph glyph-name="egrave" unicode="&#xe8;" horiz-adv-x="1067" 
d="M608 1208l-186 232l217 98l135 -330h-166zM786 735q0 72 -42 125q-42 54 -133 54t-170 -79t-117 -217h450q12 45 12 117zM299 459v-17q0 -122 57 -194t166 -72t228 90l106 -166q-160 -120 -356 -120t-313 124q-116 124 -115 338q0 142 54 280t150 234q156 156 361 156
q172 0 273 -112t102 -289q0 -125 -47 -252h-666z" />
    <glyph glyph-name="eacute" unicode="&#xe9;" horiz-adv-x="1067" 
d="M596 1208l283 330l208 -98l-290 -232h-201zM786 735q0 72 -42 125q-42 54 -133 54t-170 -79t-117 -217h450q12 45 12 117zM299 459v-17q0 -122 57 -194t166 -72t228 90l106 -166q-160 -120 -356 -120t-313 124q-116 124 -115 338q0 142 54 280t150 234q156 156 361 156
q172 0 273 -112t102 -289q0 -125 -47 -252h-666z" />
    <glyph glyph-name="ecircumflex" unicode="&#xea;" horiz-adv-x="1067" 
d="M786 735q0 72 -42 125q-42 54 -133 54t-170 -79t-117 -217h450q12 45 12 117zM362 1210l289 299h228l141 -299h-180l-105 144l-176 -144h-197zM299 459v-17q0 -122 57 -194t166 -72t228 90l106 -166q-160 -120 -356 -120t-313 124q-116 124 -115 338q0 142 54 280
t150 234q156 156 361 156q172 0 273 -112t102 -289q0 -125 -47 -252h-666z" />
    <glyph glyph-name="edieresis" unicode="&#xeb;" horiz-adv-x="1067" 
d="M403 1214l58 232h237l-59 -232h-236zM764 1214l61 232h236l-60 -232h-237zM786 735q0 72 -42 125q-42 54 -133 54t-170 -79t-117 -217h450q12 45 12 117zM299 459v-17q0 -122 57 -194t166 -72t228 90l106 -166q-160 -120 -356 -120t-313 124q-116 124 -115 338
q0 142 54 280t150 234q156 156 361 156q172 0 273 -112t102 -289q0 -125 -47 -252h-666z" />
    <glyph glyph-name="igrave" unicode="&#xec;" horiz-adv-x="524" 
d="M332 1206l-187 232l217 98l136 -330h-166zM8 0l266 1092h244l-266 -1092h-244z" />
    <glyph glyph-name="iacute" unicode="&#xed;" horiz-adv-x="524" 
d="M8 0l266 1092h244l-266 -1092h-244zM326 1206l282 330l209 -98l-291 -232h-200z" />
    <glyph glyph-name="icircumflex" unicode="&#xee;" horiz-adv-x="524" 
d="M8 0l266 1092h244l-266 -1092h-244zM90 1208l289 299h227l142 -299h-181l-104 144l-176 -144h-197z" />
    <glyph glyph-name="idieresis" unicode="&#xef;" horiz-adv-x="524" 
d="M8 0l266 1092h244l-266 -1092h-244zM492 1212l61 232h235l-59 -232h-237zM131 1212l57 232h238l-59 -232h-236z" />
    <glyph glyph-name="eth" unicode="&#xf0;" horiz-adv-x="1140" 
d="M309 432q1 -114 53 -180q52 -68 147 -68t173 78q61 66 101 174t40 220t-54 180t-150 68t-173 -81q-61 -61 -99 -169t-38 -222zM1071 758q0 -193 -61 -359t-166 -270q-147 -152 -346 -152t-312 121t-112 332q0 156 53 297t143 229q135 139 316 140q141 0 239 -123
q-39 121 -133 258l-229 -68l-41 129l184 54q-55 66 -114 133h292l50 -66l217 66l43 -127l-181 -56q158 -260 158 -538z" />
    <glyph glyph-name="ntilde" unicode="&#xf1;" horiz-adv-x="1099" 
d="M602 1296q-63 0 -115 -100l-133 45q50 121 106 180t126 59t162 -46q66 -39 100 -39q34 1 58 23t55 75l133 -45q-54 -123 -108 -181q-107 -116 -288 -10q-68 39 -96 39zM760 1112q124 0 198 -77t74 -210q0 -66 -33 -204l-147 -621h-246l152 625q18 66 18 127
q0 139 -141 139q-84 0 -149 -67t-89 -171l-159 -653h-242l266 1092h242l-29 -127q129 147 285 147z" />
    <glyph glyph-name="ograve" unicode="&#xf2;" horiz-adv-x="1138" 
d="M631 1208l-187 232l218 98l135 -330h-166zM311 436q-1 -112 55 -180t151 -68t165 71t108 176t38 218t-56 181q-55 68 -148 68t-166 -70t-110 -176q-37 -108 -37 -220zM629 1112q203 0 319 -128t117 -339q0 -145 -53 -281t-148 -231q-152 -156 -354 -156t-320 129
q-117 129 -116 336q0 148 53 284t147 230q152 156 355 156z" />
    <glyph glyph-name="oacute" unicode="&#xf3;" horiz-adv-x="1138" 
d="M311 436q-1 -112 55 -180t151 -68t165 71t108 176t38 218t-56 181q-55 68 -148 68t-166 -70t-110 -176q-37 -108 -37 -220zM629 1112q203 0 319 -128t117 -339q0 -145 -53 -281t-148 -231q-152 -156 -354 -156t-320 129q-117 129 -116 336q0 148 53 284t147 230
q152 156 355 156zM608 1208l283 330l209 -98l-291 -232h-201z" />
    <glyph glyph-name="ocircumflex" unicode="&#xf4;" horiz-adv-x="1138" 
d="M311 436q-1 -112 55 -180t151 -68t165 71t108 176t38 218t-56 181q-55 68 -148 68t-166 -70t-110 -176q-37 -108 -37 -220zM629 1112q203 0 319 -128t117 -339q0 -145 -53 -281t-148 -231q-152 -156 -354 -156t-320 129q-117 129 -116 336q0 148 53 284t147 230
q152 156 355 156zM385 1210l289 299h227l141 -299h-180l-104 144l-176 -144h-197z" />
    <glyph glyph-name="otilde" unicode="&#xf5;" horiz-adv-x="1138" 
d="M631 1296q-63 0 -115 -100l-133 45q49 121 105 180q104 109 288 13q66 -39 100 -39t58 22q24 23 55 76l133 -45q-55 -123 -108 -181q-106 -116 -287 -10q-68 39 -96 39zM311 436q-1 -112 55 -180t151 -68t165 71t108 176t38 218t-56 181q-55 68 -148 68t-166 -70
t-110 -176q-37 -108 -37 -220zM629 1112q203 0 319 -128t117 -339q0 -145 -53 -281t-148 -231q-152 -156 -354 -156t-320 129q-117 129 -116 336q0 148 53 284t147 230q152 156 355 156z" />
    <glyph glyph-name="odieresis" unicode="&#xf6;" horiz-adv-x="1138" 
d="M311 436q-1 -112 55 -180t151 -68t165 71t108 176t38 218t-56 181q-55 68 -148 68t-166 -70t-110 -176q-37 -108 -37 -220zM629 1112q203 0 319 -128t117 -339q0 -145 -53 -281t-148 -231q-152 -156 -354 -156t-320 129q-117 129 -116 336q0 148 53 284t147 230
q152 156 355 156zM784 1214l62 232h235l-59 -232h-238zM424 1214l57 232h238l-60 -232h-235z" />
    <glyph glyph-name="divide" unicode="&#xf7;" horiz-adv-x="1122" 
d="M541 981l63 250h256l-63 -250h-256zM129 616l55 209h895l-57 -209h-893zM348 211l64 250h256l-62 -250h-258z" />
    <glyph glyph-name="oslash" unicode="&#xf8;" horiz-adv-x="1138" 
d="M519 180q93 0 167 74t112 178t38 178q0 72 -7 109l-454 -490q51 -49 144 -49zM621 911q-91 0 -167 -75t-114 -179q-38 -103 -37 -177q0 -74 6 -111l455 491q-51 51 -143 51zM635 1112q172 0 283 -98l86 86h215l-209 -209q55 -111 55 -251t-53 -276t-148 -231
q-152 -156 -360 -156q-172 0 -283 99l-86 -88h-215l207 209q-53 106 -53 249q0 144 53 280t147 230q152 156 361 156z" />
    <glyph glyph-name="ugrave" unicode="&#xf9;" horiz-adv-x="1103" 
d="M614 1204l-186 232l217 98l135 -330h-166zM346 -20q-125 0 -199 76t-73 210q0 76 30 205l150 621h244l-152 -623q-18 -80 -18 -127q0 -141 141 -141q83 -1 149 67t89 170l159 654h244l-266 -1092h-244l31 127q-131 -147 -285 -147z" />
    <glyph glyph-name="uacute" unicode="&#xfa;" horiz-adv-x="1103" 
d="M346 -20q-125 0 -199 76t-73 210q0 76 30 205l150 621h244l-152 -623q-18 -80 -18 -127q0 -141 141 -141q83 -1 149 67t89 170l159 654h244l-266 -1092h-244l31 127q-131 -147 -285 -147zM602 1204l283 330l209 -98l-291 -232h-201z" />
    <glyph glyph-name="ucircumflex" unicode="&#xfb;" horiz-adv-x="1103" 
d="M346 -20q-125 0 -199 76t-73 210q0 76 30 205l150 621h244l-152 -623q-18 -80 -18 -127q0 -141 141 -141q83 -1 149 67t89 170l159 654h244l-266 -1092h-244l31 127q-131 -147 -285 -147zM367 1206l288 299h228l141 -299h-180l-105 144l-176 -144h-196z" />
    <glyph glyph-name="udieresis" unicode="&#xfc;" horiz-adv-x="1103" 
d="M346 -20q-125 0 -199 76t-73 210q0 76 30 205l150 621h244l-152 -623q-18 -80 -18 -127q0 -141 141 -141q83 -1 149 67t89 170l159 654h244l-266 -1092h-244l31 127q-131 -147 -285 -147zM766 1210l61 232h236l-59 -232h-238zM406 1210l57 232h237l-59 -232h-235z" />
    <glyph glyph-name="yacute" unicode="&#xfd;" horiz-adv-x="1044" 
d="M559 1204l283 330l209 -98l-291 -232h-201zM162 -108q58 0 121 102l-105 1098h248l41 -801l397 801h260l-604 -1110q-86 -160 -170 -228t-206 -68t-218 87l117 166q61 -47 119 -47z" />
    <glyph glyph-name="thorn" unicode="&#xfe;" horiz-adv-x="1177" 
d="M338 435q0 -111 56 -179t150 -68q95 0 165 71t108 176q39 105 39 220t-50 183t-147 68t-171 -76q-74 -75 -112 -179t-38 -216zM764 1112q148 0 246 -117q96 -117 96 -298q0 -365 -207 -572q-147 -143 -326 -143q-203 0 -294 196l-115 -485h-244l436 1786h244l-129 -523
q145 156 293 156z" />
    <glyph glyph-name="ydieresis" unicode="&#xff;" horiz-adv-x="1044" 
d="M729 1210l62 232h235l-59 -232h-238zM369 1210l57 232h238l-60 -232h-235zM162 -108q58 0 121 102l-105 1098h248l41 -801l397 801h260l-604 -1110q-86 -160 -170 -228t-206 -68t-218 87l117 166q61 -47 119 -47z" />
    <glyph glyph-name="Amacron" unicode="&#x100;" horiz-adv-x="1343" 
d="M600 1567l47 178h660l-45 -178h-662zM510 565h369l-50 576zM-94 0l874 1444h242l168 -1444h-252l-35 346h-532l-201 -346h-264z" />
    <glyph glyph-name="amacron" unicode="&#x101;" horiz-adv-x="1040" 
d="M358 1221l48 174h616l-45 -174h-619zM478 518q-102 0 -164 -61t-62 -145t38 -122t116 -38q79 0 150 70t95 171l21 88q-92 37 -194 37zM293 -20q-129 0 -206 80t-77 210q0 174 116 288t312 114q125 0 269 -51l6 24q14 68 14 109q0 141 -190 141q-115 0 -244 -57l-55 196
q160 70 342 70t282 -79q102 -79 103 -220q0 -80 -31 -199l-143 -606h-238l33 131q-127 -151 -293 -151z" />
    <glyph glyph-name="Abreve" unicode="&#x102;" horiz-adv-x="1343" 
d="M926 1552q-139 0 -213 69t-56 191h160q16 -92 138 -92t180 92h182q-45 -124 -149 -192t-242 -68zM510 565h369l-50 576zM-94 0l874 1444h242l168 -1444h-252l-35 346h-532l-201 -346h-264z" />
    <glyph glyph-name="abreve" unicode="&#x103;" horiz-adv-x="1040" 
d="M682 1206q-139 0 -211 79t-68 206h170q2 -53 35 -86t90 -33q117 0 187 119h170q-43 -131 -139 -208t-234 -77zM478 518q-102 0 -164 -61t-62 -145t38 -122t116 -38q79 0 150 70t95 171l21 88q-92 37 -194 37zM293 -20q-129 0 -206 80t-77 210q0 174 116 288t312 114
q125 0 269 -51l6 24q14 68 14 109q0 141 -190 141q-115 0 -244 -57l-55 196q160 70 342 70t282 -79q102 -79 103 -220q0 -80 -31 -199l-143 -606h-238l33 131q-127 -151 -293 -151z" />
    <glyph glyph-name="Aogonek" unicode="&#x104;" horiz-adv-x="1343" 
d="M510 565h369l-50 576zM1036 -311q-64 1 -114 33q-51 32 -52 90q0 86 125 188h-57l-35 346h-532l-201 -346h-264l874 1444h242l168 -1444h-37q-90 -96 -90 -135q0 -53 106 -53l-28 -117q-41 -6 -105 -6z" />
    <glyph glyph-name="aogonek" unicode="&#x105;" horiz-adv-x="1040" 
d="M478 518q-102 0 -164 -61t-62 -145t38 -122t116 -38q79 0 150 70t95 171l21 88q-92 37 -194 37zM639 -311q-63 0 -115 32q-51 33 -51 91q0 86 125 188h-45l33 131q-127 -152 -293 -151q-129 0 -206 80t-77 210q0 174 116 288t312 114q125 0 269 -51l6 24q14 68 14 109
q0 141 -190 141q-115 0 -244 -57l-55 196q160 70 342 70t282 -79q102 -79 103 -220q0 -80 -31 -199l-143 -606h-35q-90 -96 -90 -135q0 -53 106 -53l-29 -117q-41 -6 -104 -6z" />
    <glyph glyph-name="Cacute" unicode="&#x106;" horiz-adv-x="1236" 
d="M815 1552l285 289l211 -94l-289 -195h-207zM674 -20q-244 0 -399 156t-154 423q1 189 71 375t195 313q211 207 489 207t451 -242l-194 -161q-121 176 -275 176t-283 -125q-88 -90 -143 -236t-55 -304q0 -159 83 -257t221 -98t284 123l141 -172q-188 -178 -432 -178z" />
    <glyph glyph-name="cacute" unicode="&#x107;" horiz-adv-x="956" 
d="M489 -20q-185 0 -303 121q-117 122 -116 329q0 146 54 286t148 234q164 160 367 160q233 0 360 -195l-180 -141q-80 127 -181 127t-174 -74q-73 -73 -113 -181t-40 -218q1 -110 55 -176t139 -66t200 95l122 -158q-153 -143 -338 -143zM575 1208l283 330l209 -98
l-291 -232h-201z" />
    <glyph glyph-name="Cdotaccent" unicode="&#x10a;" horiz-adv-x="1236" 
d="M674 -20q-244 0 -399 156t-154 423q1 189 71 375t195 313q211 207 489 207t451 -242l-194 -161q-121 176 -275 176t-283 -125q-88 -90 -143 -236t-55 -304q0 -159 83 -257t221 -98t284 123l141 -172q-188 -178 -432 -178zM807 1559l55 221h248l-57 -221h-246z" />
    <glyph glyph-name="cdotaccent" unicode="&#x10b;" horiz-adv-x="956" 
d="M557 1214l61 234h242l-59 -234h-244zM489 -20q-185 0 -303 121q-117 122 -116 329q0 146 54 286t148 234q164 160 367 160q233 0 360 -195l-180 -141q-80 127 -181 127t-174 -74q-73 -73 -113 -181t-40 -218q1 -110 55 -176t139 -66t200 95l122 -158q-153 -143 -338 -143
z" />
    <glyph glyph-name="Ccaron" unicode="&#x10c;" horiz-adv-x="1236" 
d="M1346 1827l-293 -271h-232l-157 271h182l119 -117l172 117h209zM674 -20q-244 0 -399 156t-154 423q1 189 71 375t195 313q211 207 489 207t451 -242l-194 -161q-121 176 -275 176t-283 -125q-88 -90 -143 -236t-55 -304q0 -159 83 -257t221 -98t284 123l141 -172
q-188 -178 -432 -178z" />
    <glyph glyph-name="ccaron" unicode="&#x10d;" horiz-adv-x="956" 
d="M489 -20q-185 0 -303 121q-117 122 -116 329q0 146 54 286t148 234q164 160 367 160q233 0 360 -195l-180 -141q-80 127 -181 127t-174 -74q-73 -73 -113 -181t-40 -218q1 -110 55 -176t139 -66t200 95l122 -158q-153 -143 -338 -143zM539 1210l-142 299h178l105 -139
l176 139h197l-289 -299h-225z" />
    <glyph glyph-name="Dcaron" unicode="&#x10e;" horiz-adv-x="1353" 
d="M1266 1810l-293 -270h-232l-157 270h182l119 -116l172 116h209zM1061 846q0 362 -377 362h-123l-237 -983h145q260 0 414 156q88 88 133 215t45 250zM702 1434q307 0 465 -158q150 -143 150 -422q1 -166 -63 -335t-187 -290q-229 -229 -631 -229h-416l351 1434h331z" />
    <glyph glyph-name="dcaron" unicode="&#x10f;" horiz-adv-x="1177" 
d="M520 188q96 0 170 74t113 179t39 217t-56 180t-149 68q-92 0 -165 -72q-73 -71 -112 -176q-38 -105 -38 -221q0 -117 51 -183t147 -66zM72 396q0 182 55 329t152 244q147 143 325 143q203 0 295 -197l135 564h244l-363 -1479h-241l33 135q-147 -153 -295 -153t-244 116
t-96 298zM1591 1579v-6l-194 -383h-101l103 389h192z" />
    <glyph glyph-name="Dcroat" unicode="&#x110;" horiz-adv-x="1386" 
d="M715 1208h-121l-90 -377h258l-60 -221h-251l-95 -385h144q260 0 413 156q88 88 135 215q46 127 46 250q-1 178 -95 268q-90 94 -284 94zM733 1434q305 0 459 -152t156 -428q0 -166 -64 -335t-184 -290q-229 -229 -633 -229h-414l150 610h-156l57 221h152l147 603h330z
" />
    <glyph glyph-name="dcroat" unicode="&#x111;" horiz-adv-x="1177" 
d="M520 188q96 0 170 74t113 179t39 217t-56 180t-149 68q-92 0 -165 -72q-73 -71 -112 -176q-38 -105 -38 -221q0 -117 51 -183t147 -66zM72 396q0 182 55 329t152 244q147 143 325 143q203 0 295 -197l72 302h-285l39 143h281l28 119h244l-29 -119h123l-35 -143h-123
l-299 -1217h-241l33 135q-147 -153 -295 -153t-244 116t-96 298z" />
    <glyph glyph-name="Emacron" unicode="&#x112;" horiz-adv-x="1148" 
d="M20 0l351 1434h893l-58 -222h-645l-90 -381h573l-57 -219h-573l-90 -391h657l-59 -221h-902zM508 1550l47 179h659l-45 -179h-661z" />
    <glyph glyph-name="emacron" unicode="&#x113;" horiz-adv-x="1067" 
d="M786 735q0 72 -42 125q-42 54 -133 54t-170 -79t-117 -217h450q12 45 12 117zM393 1221l47 174h617l-45 -174h-619zM299 459v-17q0 -122 57 -194t166 -72t228 90l106 -166q-160 -120 -356 -120t-313 124q-116 124 -115 338q0 142 54 280t150 234q156 156 361 156
q172 0 273 -112t102 -289q0 -125 -47 -252h-666z" />
    <glyph glyph-name="Ebreve" unicode="&#x114;" horiz-adv-x="1148" 
d="M20 0l351 1434h893l-58 -222h-645l-90 -381h573l-57 -219h-573l-90 -391h657l-59 -221h-902zM834 1536q-139 0 -213 69t-56 191h160q16 -92 138 -92t179 92h183q-45 -124 -149 -192t-242 -68z" />
    <glyph glyph-name="ebreve" unicode="&#x115;" horiz-adv-x="1067" 
d="M786 735q0 72 -42 125q-42 54 -133 54t-170 -79t-117 -217h450q12 45 12 117zM715 1206q-139 0 -211 79t-68 206h170q2 -53 35 -86t90 -33q117 0 187 119h169q-43 -131 -138 -208t-234 -77zM299 459v-17q0 -122 57 -194t166 -72t228 90l106 -166q-160 -120 -356 -120
t-313 124q-116 124 -115 338q0 142 54 280t150 234q156 156 361 156q172 0 273 -112t102 -289q0 -125 -47 -252h-666z" />
    <glyph glyph-name="Edotaccent" unicode="&#x116;" horiz-adv-x="1148" 
d="M20 0l351 1434h893l-58 -222h-645l-90 -381h573l-57 -219h-573l-90 -391h657l-59 -221h-902zM715 1542l55 221h248l-57 -221h-246z" />
    <glyph glyph-name="edotaccent" unicode="&#x117;" horiz-adv-x="1067" 
d="M580 1214l61 234h242l-60 -234h-243zM786 735q0 72 -42 125q-42 54 -133 54t-170 -79t-117 -217h450q12 45 12 117zM299 459v-17q0 -122 57 -194t166 -72t228 90l106 -166q-160 -120 -356 -120t-313 124q-116 124 -115 338q0 142 54 280t150 234q156 156 361 156
q172 0 273 -112t102 -289q0 -125 -47 -252h-666z" />
    <glyph glyph-name="Eogonek" unicode="&#x118;" horiz-adv-x="1148" 
d="M782 -135q0 -53 107 -53l-29 -117q-40 -6 -104 -6q-64 1 -115 33t-51 90q0 86 125 188h-695l351 1434h893l-58 -222h-645l-90 -381h573l-57 -219h-573l-90 -391h657l-59 -221h-50q-90 -96 -90 -135z" />
    <glyph glyph-name="eogonek" unicode="&#x119;" horiz-adv-x="1067" 
d="M786 735q0 72 -42 125q-42 54 -133 54t-170 -79t-117 -217h450q12 45 12 117zM641 -135q0 -53 107 -53l-29 -117q-39 -6 -105 -6q-66 1 -115 33q-50 32 -50 100t98 160q-12 -2 -41 -2q-203 0 -319 124t-115 338q0 142 54 280t150 234q156 156 361 156q172 0 273 -112
t102 -289q0 -125 -47 -252h-666v-17q0 -122 57 -194t166 -72t228 90l106 -166q-111 -84 -139 -112q-76 -76 -76 -123z" />
    <glyph glyph-name="Ecaron" unicode="&#x11a;" horiz-adv-x="1148" 
d="M20 0l351 1434h893l-58 -222h-645l-90 -381h573l-57 -219h-573l-90 -391h657l-59 -221h-902zM1253 1810l-292 -270h-232l-158 270h183l118 -116l172 116h209z" />
    <glyph glyph-name="ecaron" unicode="&#x11b;" horiz-adv-x="1067" 
d="M786 735q0 72 -42 125q-42 54 -133 54t-170 -79t-117 -217h450q12 45 12 117zM559 1210l-141 299h178l104 -139l177 139h196l-289 -299h-225zM299 459v-17q0 -122 57 -194t166 -72t228 90l106 -166q-160 -120 -356 -120t-313 124q-116 124 -115 338q0 142 54 280t150 234
q156 156 361 156q172 0 273 -112t102 -289q0 -125 -47 -252h-666z" />
    <glyph glyph-name="Gbreve" unicode="&#x11e;" horiz-adv-x="1355" 
d="M684 -20q-230 0 -398 154t-167 429q-1 189 69 367t197 303q225 221 519 221t474 -194l-178 -173q-133 139 -311 139t-320 -141q-88 -90 -140 -230t-52 -297t92 -255q91 -98 221 -98t223 45l80 334h-286l57 215h522l-180 -711q-192 -108 -422 -108zM954 1552
q-139 0 -213 69t-55 191h160q16 -92 138 -92t179 92h183q-45 -124 -149 -192t-243 -68z" />
    <glyph glyph-name="gbreve" unicode="&#x11f;" horiz-adv-x="1173" 
d="M760 1206q-139 0 -211 79t-68 206h170q2 -53 35 -86t90 -33q117 0 187 119h170q-43 -131 -139 -208t-234 -77zM825 684q0 98 -53 160t-145 63q-93 -1 -161 -69t-104 -165t-34 -193q0 -96 49 -150t144 -54t179 84q51 50 88 138t37 186zM410 -311q-252 0 -461 147l121 170
q168 -123 340 -123q121 0 202 78q61 63 95 189l22 90q-150 -160 -303 -160t-251 98q-97 98 -97 256t54 297t149 236q150 145 323 145q201 0 287 -205l45 185h242l-224 -930q-55 -233 -166 -344q-126 -129 -378 -129z" />
    <glyph glyph-name="Gdotaccent" unicode="&#x120;" horiz-adv-x="1355" 
d="M684 -20q-230 0 -398 154t-167 429q-1 189 69 367t197 303q225 221 519 221t474 -194l-178 -173q-133 139 -311 139t-320 -141q-88 -90 -140 -230t-52 -297t92 -255q91 -98 221 -98t223 45l80 334h-286l57 215h522l-180 -711q-192 -108 -422 -108zM838 1559l55 221h248
l-58 -221h-245z" />
    <glyph glyph-name="gdotaccent" unicode="&#x121;" horiz-adv-x="1173" 
d="M625 1214l61 234h242l-60 -234h-243zM825 684q0 98 -53 160t-145 63q-93 -1 -161 -69t-104 -165t-34 -193q0 -96 49 -150t144 -54t179 84q51 50 88 138t37 186zM410 -311q-252 0 -461 147l121 170q168 -123 340 -123q121 0 202 78q61 63 95 189l22 90
q-150 -160 -303 -160t-251 98q-97 98 -97 256t54 297t149 236q150 145 323 145q201 0 287 -205l45 185h242l-224 -930q-55 -233 -166 -344q-126 -129 -378 -129z" />
    <glyph glyph-name="Gcommaaccent" unicode="&#x122;" horiz-adv-x="1355" 
d="M684 -20q-230 0 -398 154t-167 429q-1 189 69 367t197 303q225 221 519 221t474 -194l-178 -173q-133 139 -311 139t-320 -141q-88 -90 -140 -230t-52 -297t92 -255q91 -98 221 -98t223 45l80 334h-286l57 215h522l-180 -711q-192 -108 -422 -108zM375 -535l2 80
q139 20 158 133h-105l51 201h228l-45 -176q-32 -119 -100 -173t-189 -65z" />
    <glyph glyph-name="gcommaaccent" unicode="&#x123;" horiz-adv-x="1173" 
d="M825 684q0 98 -53 160t-145 63q-93 -1 -161 -69t-104 -165t-34 -193q0 -96 49 -150t144 -54t179 84q51 50 88 138t37 186zM410 -311q-252 0 -461 147l121 170q168 -123 340 -123q121 0 202 78q61 63 95 189l22 90q-150 -160 -303 -160t-251 98q-97 98 -97 256t54 297
t149 236q150 145 323 145q201 0 287 -205l45 185h242l-224 -930q-55 -233 -166 -344q-126 -129 -378 -129zM956 1622l-2 -80q-139 -20 -157 -133h104l-51 -201h-227l45 176q31 120 99 174t189 64z" />
    <glyph glyph-name="Hbar" unicode="&#x126;" horiz-adv-x="1343" 
d="M479 834h531l57 245h-530zM152 1075l47 174h131l45 185h248l-45 -185h530l45 185h248l-45 -185h135l-47 -174h-131l-262 -1075h-248l149 608h-532l-148 -608h-247l262 1075h-135z" />
    <glyph glyph-name="hbar" unicode="&#x127;" horiz-adv-x="1103" 
d="M760 1112q124 0 198 -77t74 -210q0 -66 -33 -204l-147 -621h-246l152 625q18 66 18 127q0 139 -141 139q-84 0 -149 -67t-89 -171l-159 -653h-242l295 1217h-125l35 143h125l28 119h244l-29 -119h283l-35 -143h-282l-60 -252q129 147 285 147z" />
    <glyph glyph-name="Imacron" unicode="&#x12a;" horiz-adv-x="583" 
d="M209 1550l47 179h659l-45 -179h-661zM35 0l350 1434h250l-350 -1434h-250z" />
    <glyph glyph-name="imacron" unicode="&#x12b;" horiz-adv-x="524" 
d="M121 1219l47 174h616l-45 -174h-618zM8 0l266 1092h244l-266 -1092h-244z" />
    <glyph glyph-name="Ibreve" unicode="&#x12c;" horiz-adv-x="583" 
d="M535 1536q-139 0 -213 69t-56 191h160q16 -92 138 -92t179 92h183q-44 -124 -148 -192t-243 -68zM35 0l350 1434h250l-350 -1434h-250z" />
    <glyph glyph-name="ibreve" unicode="&#x12d;" horiz-adv-x="524" 
d="M440 1204q-139 0 -211 79t-67 206h170q2 -53 35 -86t90 -33q117 0 186 119h170q-43 -131 -139 -208t-234 -77zM8 0l266 1092h244l-266 -1092h-244z" />
    <glyph glyph-name="Iogonek" unicode="&#x12e;" horiz-adv-x="583" 
d="M162 -135q0 -53 106 -53l-28 -117q-40 -6 -104 -6t-116 32q-51 33 -51 91q0 86 125 188h-59l350 1434h250l-350 -1434h-33q-90 -96 -90 -135z" />
    <glyph glyph-name="iogonek" unicode="&#x12f;" horiz-adv-x="524" 
d="M303 1243l62 238h258l-64 -238h-256zM127 -135q0 -53 106 -53l-28 -117q-39 -6 -103 -6q-64 1 -116 33q-51 32 -52 90q0 86 125 188h-51l268 1092h242l-266 -1092h-35q-90 -96 -90 -135z" />
    <glyph glyph-name="Idotaccent" unicode="&#x130;" horiz-adv-x="583" 
d="M416 1542l55 221h248l-57 -221h-246zM35 0l350 1434h250l-350 -1434h-250z" />
    <glyph glyph-name="dotlessi" unicode="&#x131;" horiz-adv-x="524" 
d="M8 0l266 1092h244l-266 -1092h-244z" />
    <glyph glyph-name="Kcommaaccent" unicode="&#x136;" horiz-adv-x="1263" 
d="M20 0l351 1434h250l-170 -699l669 699h322l-625 -617l301 -817h-270l-221 639l-267 -260l-90 -379h-250zM303 -524l2 80q139 20 158 133h-105l52 200h227l-45 -176q-32 -119 -100 -173t-189 -64z" />
    <glyph glyph-name="kcommaaccent" unicode="&#x137;" horiz-adv-x="1028" 
d="M-4 0l360 1479h244l-199 -828l426 441h310l-459 -428l203 -664h-269l-137 494l-153 -150l-84 -344h-242zM147 -528l3 79q139 20 157 134h-104l51 200h227l-45 -176q-32 -119 -100 -173t-189 -64z" />
    <glyph glyph-name="Lacute" unicode="&#x139;" horiz-adv-x="1067" 
d="M20 0l351 1434h250l-293 -1209h606l-60 -225h-854zM440 1536l285 289l211 -94l-289 -195h-207z" />
    <glyph glyph-name="lacute" unicode="&#x13a;" horiz-adv-x="524" 
d="M8 0l363 1479h241l-360 -1479h-244zM410 1552l284 289l211 -94l-289 -195h-206z" />
    <glyph glyph-name="Lcommaaccent" unicode="&#x13b;" horiz-adv-x="1067" 
d="M20 0l351 1434h250l-293 -1209h606l-60 -225h-854zM190 -530l3 79q139 20 157 134h-104l51 200h227l-45 -176q-31 -119 -99 -173t-190 -64z" />
    <glyph glyph-name="lcommaaccent" unicode="&#x13c;" horiz-adv-x="524" 
d="M8 0l363 1479h241l-360 -1479h-244zM-109 -530l3 79q139 20 157 134h-104l51 200h227l-45 -176q-32 -119 -100 -173t-189 -64z" />
    <glyph glyph-name="Lcaron" unicode="&#x13d;" horiz-adv-x="1067" 
d="M20 0l351 1434h250l-293 -1209h606l-60 -225h-854zM944 1534v-6l-194 -383h-101l103 389h192z" />
    <glyph glyph-name="lcaron" unicode="&#x13e;" horiz-adv-x="524" 
d="M8 0l363 1479h241l-360 -1479h-244zM930 1579v-6l-195 -383h-100l102 389h193z" />
    <glyph glyph-name="Ldot" unicode="&#x13f;" horiz-adv-x="1067" 
d="M20 0l351 1434h250l-293 -1209h606l-60 -225h-854zM729 651l59 236h238l-61 -236h-236z" />
    <glyph glyph-name="ldot" unicode="&#x140;" horiz-adv-x="681" 
d="M8 0l363 1479h241l-360 -1479h-244zM528 649l58 223h200l-59 -223h-199z" />
    <glyph glyph-name="Lslash" unicode="&#x141;" horiz-adv-x="1116" 
d="M49 500l62 235l145 49l160 650h250l-136 -560l355 119l-60 -235l-352 -117l-100 -416h606l-59 -225h-854l133 549z" />
    <glyph glyph-name="lslash" unicode="&#x142;" horiz-adv-x="608" 
d="M43 541l57 235l154 51l160 652h241l-137 -561l158 55l-60 -234l-155 -53l-166 -686h-244l146 594z" />
    <glyph glyph-name="Nacute" unicode="&#x143;" horiz-adv-x="1380" 
d="M20 0l351 1434h231l359 -1004l239 1004h244l-350 -1434h-211l-373 1034l-244 -1034h-246zM817 1534l285 289l211 -94l-289 -195h-207z" />
    <glyph glyph-name="nacute" unicode="&#x144;" horiz-adv-x="1099" 
d="M760 1112q124 0 198 -77t74 -210q0 -66 -33 -204l-147 -621h-246l152 625q18 66 18 127q0 139 -141 139q-84 0 -149 -67t-89 -171l-159 -653h-242l266 1092h242l-29 -127q129 147 285 147zM592 1208l282 330l209 -98l-290 -232h-201z" />
    <glyph glyph-name="Ncommaaccent" unicode="&#x145;" horiz-adv-x="1380" 
d="M20 0l351 1434h231l359 -1004l239 1004h244l-350 -1434h-211l-373 1034l-244 -1034h-246zM313 -524l2 80q139 20 158 133h-104l51 200h227l-45 -176q-32 -119 -100 -173t-189 -64z" />
    <glyph glyph-name="ncommaaccent" unicode="&#x146;" horiz-adv-x="1099" 
d="M760 1112q124 0 198 -77t74 -210q0 -66 -33 -204l-147 -621h-246l152 625q18 66 18 127q0 139 -141 139q-84 0 -149 -67t-89 -171l-159 -653h-242l266 1092h242l-29 -127q129 147 285 147zM160 -528l2 79q139 20 157 134h-104l51 200h228l-45 -176q-31 -119 -99 -173
t-190 -64z" />
    <glyph glyph-name="Ncaron" unicode="&#x147;" horiz-adv-x="1380" 
d="M20 0l351 1434h231l359 -1004l239 1004h244l-350 -1434h-211l-373 1034l-244 -1034h-246zM1346 1808l-293 -270h-232l-157 270h182l119 -116l172 116h209z" />
    <glyph glyph-name="ncaron" unicode="&#x148;" horiz-adv-x="1099" 
d="M760 1112q124 0 198 -77t74 -210q0 -66 -33 -204l-147 -621h-246l152 625q18 66 18 127q0 139 -141 139q-84 0 -149 -67t-89 -171l-159 -653h-242l266 1092h242l-29 -127q129 147 285 147zM555 1210l-141 299h178l104 -139l176 139h197l-289 -299h-225z" />
    <glyph glyph-name="Omacron" unicode="&#x14c;" horiz-adv-x="1435" 
d="M678 205q143 0 262 119q92 92 148 246t57 308q0 154 -80 251q-79 97 -227 97t-260 -116q-92 -94 -148 -249t-55 -307q0 -152 80 -251q80 -98 223 -98zM868 1456q242 0 386 -159t145 -416q0 -188 -72 -382t-199 -323q-199 -199 -479 -199q-242 0 -385 159t-143 417
q0 188 70 383q71 195 198 319q200 201 479 201zM621 1567l47 178h659l-45 -178h-661z" />
    <glyph glyph-name="omacron" unicode="&#x14d;" horiz-adv-x="1138" 
d="M311 436q-1 -112 55 -180t151 -68t165 71t108 176t38 218t-56 181q-55 68 -148 68t-166 -70t-110 -176q-37 -108 -37 -220zM629 1112q203 0 319 -128t117 -339q0 -145 -53 -281t-148 -231q-152 -156 -354 -156t-320 129q-117 129 -116 336q0 148 53 284t147 230
q152 156 355 156zM414 1221l47 174h616l-45 -174h-618z" />
    <glyph glyph-name="Obreve" unicode="&#x14e;" horiz-adv-x="1435" 
d="M678 205q143 0 262 119q92 92 148 246t57 308q0 154 -80 251q-79 97 -227 97t-260 -116q-92 -94 -148 -249t-55 -307q0 -152 80 -251q80 -98 223 -98zM868 1456q242 0 386 -159t145 -416q0 -188 -72 -382t-199 -323q-199 -199 -479 -199q-242 0 -385 159t-143 417
q0 188 70 383q71 195 198 319q200 201 479 201zM944 1552q-139 0 -213 69t-55 191h160q16 -92 138 -92t179 92h182q-45 -124 -149 -192t-242 -68z" />
    <glyph glyph-name="obreve" unicode="&#x14f;" horiz-adv-x="1138" 
d="M735 1206q-139 0 -211 79t-67 206h170q2 -53 35 -86t90 -33q117 0 186 119h170q-42 -131 -138 -208t-235 -77zM311 436q-1 -112 55 -180t151 -68t165 71t108 176t38 218t-56 181q-55 68 -148 68t-166 -70t-110 -176q-37 -108 -37 -220zM629 1112q203 0 319 -128t117 -339
q0 -145 -53 -281t-148 -231q-152 -156 -354 -156t-320 129q-117 129 -116 336q0 148 53 284t147 230q152 156 355 156z" />
    <glyph glyph-name="Ohungarumlaut" unicode="&#x150;" horiz-adv-x="1435" 
d="M979 1552l285 289l200 -94l-288 -195h-197zM645 1552l283 289l200 -94l-288 -195h-195zM678 205q143 0 262 119q92 92 148 246t57 308q0 154 -80 251q-79 97 -227 97t-260 -116q-92 -94 -148 -249t-55 -307q0 -152 80 -251q80 -98 223 -98zM868 1456q242 0 386 -159
t145 -416q0 -188 -72 -382t-199 -323q-199 -199 -479 -199q-242 0 -385 159t-143 417q0 188 70 383q71 195 198 319q200 201 479 201z" />
    <glyph glyph-name="ohungarumlaut" unicode="&#x151;" horiz-adv-x="1138" 
d="M311 436q-1 -112 55 -180t151 -68t165 71t108 176t38 218t-56 181q-55 68 -148 68t-166 -70t-110 -176q-37 -108 -37 -220zM629 1112q203 0 319 -128t117 -339q0 -145 -53 -281t-148 -231q-152 -156 -354 -156t-320 129q-117 129 -116 336q0 148 53 284t147 230
q152 156 355 156zM713 1208l284 330l185 -98l-293 -232h-176zM381 1208l278 330l189 -98l-293 -232h-174z" />
    <glyph glyph-name="OE" unicode="&#x152;" horiz-adv-x="1871" 
d="M379 588q0 -363 375 -363h71l238 983h-92q-260 0 -416 -155q-86 -88 -131 -215t-45 -250zM735 0q-307 0 -473 166q-141 141 -141 414q1 164 65 334t187 290q229 229 628 230h986l-58 -222h-618l-88 -381h542l-55 -219h-543l-94 -391h631l-59 -221h-910z" />
    <glyph glyph-name="oe" unicode="&#x153;" horiz-adv-x="1812" 
d="M1532 733q0 74 -42 127q-42 54 -133 54t-170 -79t-118 -217h451q12 41 12 115zM311 436q-1 -112 55 -180t151 -68t165 71t108 176t38 218t-56 181q-55 68 -148 68t-166 -70t-110 -176q-37 -108 -37 -220zM1044 459v-17q0 -122 58 -194t165 -72q108 0 230 90l102 -166
q-154 -121 -342 -120q-272 0 -368 219q-70 -97 -169 -159t-214 -63q-199 0 -316 128t-116 337q0 146 53 282t147 232q152 156 361 156q260 0 354 -229q158 229 400 229q168 0 268 -112t100 -289q0 -125 -47 -252h-666z" />
    <glyph glyph-name="Racute" unicode="&#x154;" horiz-adv-x="1273" 
d="M717 1536l284 289l211 -94l-288 -195h-207zM1024 1010q0 198 -260 198h-201l-119 -495h211q195 0 293 96q76 80 76 201zM780 1434q272 0 398 -129q104 -109 104 -277q0 -213 -133 -350q-111 -111 -287 -154l217 -524h-278l-199 496h-215l-117 -496h-250l351 1434h409z
" />
    <glyph glyph-name="racute" unicode="&#x155;" horiz-adv-x="733" 
d="M743 856q-299 0 -385 -356l-120 -500h-242l266 1092h242l-47 -197q154 231 368 215l-67 -254h-15zM442 1206l283 330l209 -98l-291 -232h-201z" />
    <glyph glyph-name="Rcommaaccent" unicode="&#x156;" horiz-adv-x="1273" 
d="M258 -524l2 80q139 20 158 133h-105l52 200h227l-45 -176q-31 -119 -99 -173t-190 -64zM1024 1010q0 198 -260 198h-201l-119 -495h211q195 0 293 96q76 80 76 201zM780 1434q272 0 398 -129q104 -109 104 -277q0 -213 -133 -350q-111 -111 -287 -154l217 -524h-278
l-199 496h-215l-117 -496h-250l351 1434h409z" />
    <glyph glyph-name="rcommaaccent" unicode="&#x157;" horiz-adv-x="733" 
d="M743 856q-299 0 -385 -356l-120 -500h-242l266 1092h242l-47 -197q154 231 368 215l-67 -254h-15zM-113 -530l2 79q139 20 158 134h-104l51 200h227l-45 -176q-32 -119 -100 -173t-189 -64z" />
    <glyph glyph-name="Rcaron" unicode="&#x158;" horiz-adv-x="1273" 
d="M1249 1810l-293 -270h-231l-158 270h183l118 -116l172 116h209zM1024 1010q0 198 -260 198h-201l-119 -495h211q195 0 293 96q76 80 76 201zM780 1434q272 0 398 -129q104 -109 104 -277q0 -213 -133 -350q-111 -111 -287 -154l217 -524h-278l-199 496h-215l-117 -496
h-250l351 1434h409z" />
    <glyph glyph-name="rcaron" unicode="&#x159;" horiz-adv-x="733" 
d="M743 856q-299 0 -385 -356l-120 -500h-242l266 1092h242l-47 -197q154 231 368 215l-67 -254h-15zM401 1208l-141 299h178l105 -139l176 139h196l-288 -299h-226z" />
    <glyph glyph-name="Sacute" unicode="&#x15a;" horiz-adv-x="1107" 
d="M659 1552l285 289l211 -94l-289 -195h-207zM504 -20q-326 0 -518 260l188 159q168 -201 342 -200q88 0 147 51q58 50 58 118t-44 121q-43 53 -177 145t-204 184q-70 91 -69 204q0 170 115 291q141 141 352 141q268 0 459 -213l-172 -170q-147 164 -295 164
q-90 0 -144 -51q-54 -50 -54 -114t43 -116q44 -52 178 -143q134 -90 204 -182t70 -213q0 -176 -130 -306t-349 -130z" />
    <glyph glyph-name="sacute" unicode="&#x15b;" horiz-adv-x="870" 
d="M373 -20q-242 0 -420 198l145 148q145 -158 281 -158q59 0 101 35t42 83t-35 85t-143 107t-159 138q-52 70 -52 164q-1 136 103 232t272 96q211 0 371 -164l-136 -158q-137 135 -247 136q-56 0 -94 -34t-38 -79t34 -80t144 -107t162 -145q52 -74 52 -164
q0 -141 -110 -237t-273 -96zM469 1208l283 330l209 -98l-291 -232h-201z" />
    <glyph glyph-name="Scedilla" unicode="&#x15e;" horiz-adv-x="1107" 
d="M721 368q0 68 -44 121q-43 53 -177 145t-204 184q-70 91 -69 204q0 170 115 291q141 141 352 141q268 0 459 -213l-172 -170q-147 164 -295 164q-90 0 -144 -51q-54 -50 -54 -114t43 -116q44 -52 178 -143q134 -90 204 -182t70 -213q0 -176 -130 -306t-349 -130
l-187 -291l-188 86l205 225q-215 57 -348 240l188 159q168 -201 342 -200q88 0 147 51q58 50 58 118z" />
    <glyph glyph-name="scedilla" unicode="&#x15f;" horiz-adv-x="870" 
d="M379 168q59 0 101 35t42 83t-35 85t-143 107t-159 138q-52 70 -52 164q-1 136 103 232t272 96q211 0 371 -164l-136 -158q-137 135 -247 136q-56 0 -94 -34t-38 -79t34 -80t144 -107t162 -145q52 -74 52 -164q0 -137 -104 -232t-263 -101l-186 -291l-189 86l207 227
q-154 47 -268 176l145 148q145 -158 281 -158z" />
    <glyph glyph-name="Scaron" unicode="&#x160;" horiz-adv-x="1107" 
d="M1190 1827l-293 -271h-231l-158 271h182l119 -117l172 117h209zM504 -20q-326 0 -518 260l188 159q168 -201 342 -200q88 0 147 51q58 50 58 118t-44 121q-43 53 -177 145t-204 184q-70 91 -69 204q0 170 115 291q141 141 352 141q268 0 459 -213l-172 -170
q-147 164 -295 164q-90 0 -144 -51q-54 -50 -54 -114t43 -116q44 -52 178 -143q134 -90 204 -182t70 -213q0 -176 -130 -306t-349 -130z" />
    <glyph glyph-name="scaron" unicode="&#x161;" horiz-adv-x="870" 
d="M373 -20q-242 0 -420 198l145 148q145 -158 281 -158q59 0 101 35t42 83t-35 85t-143 107t-159 138q-52 70 -52 164q-1 136 103 232t272 96q211 0 371 -164l-136 -158q-137 135 -247 136q-56 0 -94 -34t-38 -79t34 -80t144 -107t162 -145q52 -74 52 -164
q0 -141 -110 -237t-273 -96zM432 1210l-141 299h178l104 -139l177 139h196l-289 -299h-225z" />
    <glyph glyph-name="Tcommaaccent" unicode="&#x162;" horiz-adv-x="1064" 
d="M274 0l289 1204h-373l62 230h995l-61 -230h-373l-293 -1204h-246zM154 -530l2 79q139 20 157 134h-104l51 200h227l-45 -176q-31 -119 -99 -173t-189 -64z" />
    <glyph glyph-name="tcommaaccent" unicode="&#x163;" horiz-adv-x="720" 
d="M333 -14q-110 0 -172 54t-63 148q0 43 21 134l135 561h-123l53 209h121l70 286h243l-69 -286h225l-53 -209h-223l-138 -564q-6 -31 -6 -53q0 -66 84 -65q63 0 129 30l-51 -208q-73 -37 -183 -37zM35 -530l2 79q139 20 158 134h-105l51 200h228l-45 -176
q-32 -119 -100 -173t-189 -64z" />
    <glyph glyph-name="Tcaron" unicode="&#x164;" horiz-adv-x="1064" 
d="M274 0l289 1204h-373l62 230h995l-61 -230h-373l-293 -1204h-246zM1188 1810l-293 -270h-231l-158 270h182l119 -116l172 116h209z" />
    <glyph glyph-name="tcaron" unicode="&#x165;" horiz-adv-x="720" 
d="M333 -14q-110 0 -172 54t-63 148q0 43 21 134l135 561h-123l53 209h121l70 286h243l-69 -286h225l-53 -209h-223l-138 -564q-6 -31 -6 -53q0 -66 84 -65q63 0 129 30l-51 -208q-73 -37 -183 -37zM967 1579v-6l-195 -383h-100l102 389h193z" />
    <glyph glyph-name="Umacron" unicode="&#x16a;" horiz-adv-x="1341" 
d="M590 -23q-211 0 -334 112t-123 310q0 92 35 219l194 816h248l-204 -844q-20 -92 -20 -177t60 -145q61 -60 178 -61q117 0 203 86t127 258l213 883h246l-221 -920q-66 -256 -195 -385q-151 -152 -407 -152zM569 1548l47 178h660l-45 -178h-662z" />
    <glyph glyph-name="umacron" unicode="&#x16b;" horiz-adv-x="1103" 
d="M395 1217l47 174h617l-45 -174h-619zM346 -20q-125 0 -199 76t-73 210q0 76 30 205l150 621h244l-152 -623q-18 -80 -18 -127q0 -141 141 -141q83 -1 149 67t89 170l159 654h244l-266 -1092h-244l31 127q-131 -147 -285 -147z" />
    <glyph glyph-name="Ubreve" unicode="&#x16c;" horiz-adv-x="1341" 
d="M590 -23q-211 0 -334 112t-123 310q0 92 35 219l194 816h248l-204 -844q-20 -92 -20 -177t60 -145q61 -60 178 -61q117 0 203 86t127 258l213 883h246l-221 -920q-66 -256 -195 -385q-151 -152 -407 -152zM889 1522q-139 0 -213 68t-55 192h159q16 -92 138 -92t180 92
h182q-45 -125 -148 -193q-104 -67 -243 -67z" />
    <glyph glyph-name="ubreve" unicode="&#x16d;" horiz-adv-x="1103" 
d="M717 1202q-139 0 -211 79t-68 206h170q2 -53 35 -86t90 -33q117 0 187 119h170q-42 -131 -138 -208t-235 -77zM346 -20q-125 0 -199 76t-73 210q0 76 30 205l150 621h244l-152 -623q-18 -80 -18 -127q0 -141 141 -141q83 -1 149 67t89 170l159 654h244l-266 -1092h-244
l31 127q-131 -147 -285 -147z" />
    <glyph glyph-name="Uring" unicode="&#x16e;" horiz-adv-x="1341" 
d="M809 1683q-1 -45 29 -73t84 -27q54 0 92 38q37 38 37 83t-29 73q-29 27 -84 27t-92 -38t-37 -83zM938 1896q102 0 160 -52t59 -137q-1 -85 -67 -152t-168 -67t-160 54q-60 53 -60 138q0 84 66 150q68 66 170 66zM590 -23q-211 0 -334 112t-123 310q0 92 35 219l194 816
h248l-204 -844q-20 -92 -20 -177t60 -145q61 -60 178 -61q117 0 203 86t127 258l213 883h246l-221 -920q-66 -256 -195 -385q-151 -152 -407 -152z" />
    <glyph glyph-name="uring" unicode="&#x16f;" horiz-adv-x="1103" 
d="M346 -20q-125 0 -199 76t-73 210q0 76 30 205l150 621h244l-152 -623q-18 -80 -18 -127q0 -141 141 -141q83 -1 149 67t89 170l159 654h244l-266 -1092h-244l31 127q-131 -147 -285 -147zM754 1522q-51 0 -89 -44t-38 -97q1 -52 29 -83q28 -30 80 -30t89 44t37 97t-28 83
q-29 30 -80 30zM756 1612q94 0 150 -54t55 -144q0 -89 -67 -161q-67 -71 -162 -71t-150 53q-56 53 -56 142t68 162t162 73z" />
    <glyph glyph-name="Uhungarumlaut" unicode="&#x170;" horiz-adv-x="1341" 
d="M928 1534l284 289l201 -94l-289 -195h-196zM594 1534l283 289l200 -94l-289 -195h-194zM590 -23q-211 0 -334 112t-123 310q0 92 35 219l194 816h248l-204 -844q-20 -92 -20 -177t60 -145q61 -60 178 -61q117 0 203 86t127 258l213 883h246l-221 -920q-66 -256 -195 -385
q-151 -152 -407 -152z" />
    <glyph glyph-name="uhungarumlaut" unicode="&#x171;" horiz-adv-x="1103" 
d="M696 1204l285 330l184 -98l-293 -232h-176zM365 1204l278 330l188 -98l-292 -232h-174zM346 -20q-125 0 -199 76t-73 210q0 76 30 205l150 621h244l-152 -623q-18 -80 -18 -127q0 -141 141 -141q83 -1 149 67t89 170l159 654h244l-266 -1092h-244l31 127
q-131 -147 -285 -147z" />
    <glyph glyph-name="Uogonek" unicode="&#x172;" horiz-adv-x="1341" 
d="M516 -311q-64 0 -115 32q-51 33 -51 91q0 84 113 178q-156 31 -243 137t-87 272q0 92 35 219l194 816h248l-204 -844q-20 -92 -20 -177t60 -145q61 -60 178 -61q117 0 203 86t127 258l213 883h246l-221 -920q-66 -256 -203 -393t-377 -144q-70 -72 -69 -112
q0 -53 106 -53l-28 -117q-41 -6 -105 -6z" />
    <glyph glyph-name="uogonek" unicode="&#x173;" horiz-adv-x="1103" 
d="M346 -20q-125 0 -199 76t-73 210q0 76 30 205l150 621h244l-152 -623q-18 -80 -18 -127q0 -141 141 -141q83 -1 149 67t89 170l159 654h244l-266 -1092h-35q-90 -96 -90 -135q0 -53 106 -53l-28 -117q-41 -6 -105 -6q-64 1 -114 33q-51 32 -52 90q0 86 125 188h-51
l31 127q-131 -147 -285 -147z" />
    <glyph glyph-name="Wcircumflex" unicode="&#x174;" horiz-adv-x="1957" 
d="M846 1540l295 270h229l162 -270h-186l-115 115l-174 -115h-211zM317 -10l-61 1444h254l16 -1055l543 1059h213l45 -1059l516 1055h281l-770 -1444h-230l-45 1020l-532 -1020h-230z" />
    <glyph glyph-name="wcircumflex" unicode="&#x175;" horiz-adv-x="1529" 
d="M205 -8l-29 1100h246l-8 -746l372 748h211l17 -750l352 748h242l-570 -1100h-219l-20 743l-377 -743h-217zM575 1208l289 299h228l141 -299h-180l-105 144l-176 -144h-197z" />
    <glyph glyph-name="Ycircumflex" unicode="&#x176;" horiz-adv-x="1142" 
d="M432 1538l295 270h229l162 -270h-186l-115 115l-174 -115h-211zM305 0l141 582l-249 852h270l154 -629l454 629h299l-684 -873l-137 -561h-248z" />
    <glyph glyph-name="ycircumflex" unicode="&#x177;" horiz-adv-x="1044" 
d="M328 1206l288 299h228l141 -299h-180l-105 144l-176 -144h-196zM162 -108q58 0 121 102l-105 1098h248l41 -801l397 801h260l-604 -1110q-86 -160 -170 -228t-206 -68t-218 87l117 166q61 -47 119 -47z" />
    <glyph glyph-name="Ydieresis" unicode="&#x178;" horiz-adv-x="1142" 
d="M854 1540l57 221h240l-57 -221h-240zM479 1540l56 221h241l-57 -221h-240zM305 0l141 582l-249 852h270l154 -629l454 629h299l-684 -873l-137 -561h-248z" />
    <glyph glyph-name="Zacute" unicode="&#x179;" horiz-adv-x="1183" 
d="M698 1536l285 289l211 -94l-289 -195h-207zM-39 0l47 184l914 1033h-650l56 217h975l-48 -185l-915 -1032h680l-55 -217h-1004z" />
    <glyph glyph-name="zacute" unicode="&#x17a;" horiz-adv-x="950" 
d="M-51 0l43 170l653 725h-471l49 197h774l-41 -170l-657 -723h492l-52 -199h-790zM508 1206l283 330l208 -98l-290 -232h-201z" />
    <glyph glyph-name="Zdotaccent" unicode="&#x17b;" horiz-adv-x="1183" 
d="M-39 0l47 184l914 1033h-650l56 217h975l-48 -185l-915 -1032h680l-55 -217h-1004zM690 1542l55 221h248l-57 -221h-246z" />
    <glyph glyph-name="zdotaccent" unicode="&#x17c;" horiz-adv-x="950" 
d="M492 1212l61 234h242l-60 -234h-243zM-51 0l43 170l653 725h-471l49 197h774l-41 -170l-657 -723h492l-52 -199h-790z" />
    <glyph glyph-name="Zcaron" unicode="&#x17d;" horiz-adv-x="1183" 
d="M-39 0l47 184l914 1033h-650l56 217h975l-48 -185l-915 -1032h680l-55 -217h-1004zM1229 1810l-293 -270h-231l-158 270h182l119 -116l172 116h209z" />
    <glyph glyph-name="zcaron" unicode="&#x17e;" horiz-adv-x="950" 
d="M-51 0l43 170l653 725h-471l49 197h774l-41 -170l-657 -723h492l-52 -199h-790zM471 1208l-141 299h178l104 -139l176 139h197l-289 -299h-225z" />
    <glyph glyph-name="florin" unicode="&#x192;" horiz-adv-x="974" 
d="M94 -16q-90 0 -160 24l52 197q49 -18 90 -19q96 0 151 144l156 401h-139l51 203h168l90 229q109 287 369 287q115 0 202 -39l-53 -207q-68 37 -135 37q-115 0 -178 -154l-60 -153h238l-51 -203h-264l-187 -481q-109 -266 -340 -266z" />
    <glyph glyph-name="Aringacute" unicode="&#x1fa;" horiz-adv-x="1343" 
d="M799 1504q1 -46 29 -72t82 -27q54 0 91 37t37 83q0 45 -28 73t-83 28q-54 0 -91 -38t-37 -84zM864 1769l287 250l207 -96l-287 -154h-207zM510 565h369l-50 576zM690 1506q0 81 68 147q68 65 169 65t160 -53t60 -129q0 -131 -113 -193l156 -1343h-252l-35 346h-532
l-201 -346h-264l831 1374q-47 51 -47 132z" />
    <glyph glyph-name="aringacute" unicode="&#x1fb;" horiz-adv-x="1040" 
d="M606 1404q0 -52 29 -83t81 -31t89 44t37 98t-29 82q-29 30 -80 30t-89 -44t-38 -96zM940 1437q0 -89 -67 -161t-161 -72t-151 53q-55 53 -55 143t67 162q68 72 162 72q93 0 149 -54t56 -143zM478 518q-102 0 -164 -61t-62 -145t38 -122t116 -38q79 0 150 70t95 171l21 88
q-92 37 -194 37zM293 -20q-129 0 -206 80t-77 210q0 174 116 288t312 114q125 0 269 -51l6 24q14 68 14 109q0 141 -190 141q-115 0 -244 -57l-55 196q160 70 342 70t282 -79q102 -79 103 -220q0 -80 -31 -199l-143 -606h-238l33 131q-127 -151 -293 -151zM694 1702l279 270
l205 -96l-287 -174h-197z" />
    <glyph glyph-name="AEacute" unicode="&#x1fc;" horiz-adv-x="1822" 
d="M551 565h311l156 654h-33zM-117 0l1008 1434h1046l-59 -222h-616l-88 -381h544l-57 -219h-545l-92 -391h629l-58 -221h-872l82 346h-420l-235 -346h-267zM1159 1536l285 289l211 -94l-289 -195h-207z" />
    <glyph glyph-name="aeacute" unicode="&#x1fd;" horiz-adv-x="1665" 
d="M850 1206l283 330l208 -98l-290 -232h-201zM1386 740q0 67 -43 120q-43 54 -132 54t-170 -79t-119 -217h452q12 55 12 122zM252 312q0 -160 155 -160q75 0 155 50t138 132q-8 57 -4 135q-98 49 -210 49t-173 -61t-61 -145zM1106 -20q-268 0 -365 223q-172 -223 -422 -223
q-149 0 -229 78t-80 212q0 174 116 288t312 114q125 0 269 -51l6 24q14 66 14 109q0 141 -190 141q-115 0 -244 -57l-55 196q160 70 340 70q250 0 317 -170q154 178 354 178q162 0 262 -112t101 -289q0 -117 -47 -252h-668v-17q0 -122 57 -194t165 -72t231 90l104 -166
q-155 -120 -348 -120z" />
    <glyph glyph-name="Oslashacute" unicode="&#x1fe;" horiz-adv-x="1435" 
d="M825 1552l285 289l211 -94l-289 -195h-207zM367 565q0 -78 14 -133l674 727q-81 78 -223 78t-259 -121q-92 -90 -149 -248t-57 -303zM686 197q140 0 260 120q92 92 150 250q57 158 57 303q0 68 -16 134l-672 -730q81 -77 221 -77zM868 1456q213 0 355 -129l114 119h238
l-248 -256q72 -131 72 -314t-72 -377t-199 -323q-199 -199 -479 -199q-215 0 -356 129l-113 -116h-235l245 252q-70 127 -70 313t71 381t198 319q200 201 479 201z" />
    <glyph glyph-name="oslashacute" unicode="&#x1ff;" horiz-adv-x="1138" 
d="M608 1208l283 330l209 -98l-291 -232h-201zM519 180q93 0 167 74t112 178t38 178q0 72 -7 109l-454 -490q51 -49 144 -49zM621 911q-91 0 -167 -75t-114 -179q-38 -103 -37 -177q0 -74 6 -111l455 491q-51 51 -143 51zM635 1112q172 0 283 -98l86 86h215l-209 -209
q55 -111 55 -251t-53 -276t-148 -231q-152 -156 -360 -156q-172 0 -283 99l-86 -88h-215l207 209q-53 106 -53 249q0 144 53 280t147 230q152 156 361 156z" />
    <glyph glyph-name="Scommaaccent" unicode="&#x218;" horiz-adv-x="1107" 
d="M504 -20q-326 0 -518 260l188 159q168 -201 342 -200q88 0 147 51q58 50 58 118t-44 121q-43 53 -177 145t-204 184q-70 91 -69 204q0 170 115 291q141 141 352 141q268 0 459 -213l-172 -170q-147 164 -295 164q-90 0 -144 -51q-54 -50 -54 -114t43 -116
q44 -52 178 -143q134 -90 204 -182t70 -213q0 -176 -130 -306t-349 -130zM178 -535l2 80q139 20 158 133h-105l52 201h227l-45 -176q-31 -119 -99 -173t-190 -65z" />
    <glyph glyph-name="scommaaccent" unicode="&#x219;" horiz-adv-x="870" 
d="M373 -20q-242 0 -420 198l145 148q145 -158 281 -158q59 0 101 35t42 83t-35 85t-143 107t-159 138q-52 70 -52 164q-1 136 103 232t272 96q211 0 371 -164l-136 -158q-137 135 -247 136q-56 0 -94 -34t-38 -79t34 -80t144 -107t162 -145q52 -74 52 -164
q0 -141 -110 -237t-273 -96zM51 -530l2 79q139 20 158 134h-105l52 200h227l-45 -176q-32 -119 -100 -173t-189 -64z" />
    <glyph glyph-name="schwa" unicode="&#x259;" horiz-adv-x="1067" 
d="M279 356q0 -72 42 -124q42 -54 133 -54t170 79t117 216h-450q-12 -45 -12 -117zM53 381q0 125 47 252h666v16q0 123 -57 195t-166 72t-228 -91l-106 166q161 121 357 121t312 -124t115 -339q0 -143 -54 -280t-151 -234q-156 -156 -360 -155q-172 0 -274 112t-101 289z
" />
    <glyph glyph-name="circumflex" unicode="&#x2c6;" horiz-adv-x="1024" 
d="M346 1208l289 299h227l142 -299h-181l-104 144l-176 -144h-197z" />
    <glyph glyph-name="caron" unicode="&#x2c7;" horiz-adv-x="1024" 
d="M557 1208l-141 299h178l104 -139l176 139h197l-289 -299h-225z" />
    <glyph glyph-name="breve" unicode="&#x2d8;" horiz-adv-x="1024" 
d="M696 1204q-139 0 -211 79t-67 206h170q2 -53 35 -86t90 -33q117 0 186 119h170q-43 -131 -139 -208t-234 -77z" />
    <glyph glyph-name="dotaccent" unicode="&#x2d9;" horiz-adv-x="1024" 
d="M555 1212l61 234h242l-59 -234h-244z" />
    <glyph glyph-name="ring" unicode="&#x2da;" horiz-adv-x="1024" 
d="M608 1404q0 -52 29 -83t81 -31t89 44t37 98t-29 82q-29 30 -80 30t-89 -44t-38 -96zM942 1437q0 -89 -66 -161t-162 -72q-95 0 -151 53q-55 53 -55 143t67 162q68 72 162 72q93 0 149 -54t56 -143z" />
    <glyph glyph-name="ogonek" unicode="&#x2db;" horiz-adv-x="1024" 
d="M374 -311q-64 1 -114 33q-51 32 -51 90q0 90 143 202l156 2q-73 -76 -89 -105q-17 -28 -18 -46q1 -53 107 -53l-29 -117q-41 -6 -105 -6z" />
    <glyph glyph-name="tilde" unicode="&#x2dc;" horiz-adv-x="1024" 
d="M584 1294q-63 0 -115 -100l-133 45q49 121 105 180q104 109 288 13q65 -39 99 -39t59 22q24 23 55 76l133 -45q-55 -123 -108 -181q-53 -59 -129 -59t-150 44q-76 44 -104 44z" />
    <glyph glyph-name="hungarumlaut" unicode="&#x2dd;" horiz-adv-x="1024" 
d="M637 1206l285 330l184 -98l-293 -232h-176zM305 1206l279 330l188 -98l-293 -232h-174z" />
    <glyph glyph-name="commaaccent" unicode="&#x326;" horiz-adv-x="1024" 
d="M137 -530l2 79q139 20 158 134h-104l51 200h227l-45 -176q-32 -119 -100 -173t-189 -64z" />
    <glyph glyph-name="baht" unicode="&#xe3f;" horiz-adv-x="1148" 
d="M958 1053q0 119 -116 159l-129 -397q115 14 180 77t65 161zM264 205h109l143 428h-149zM412 813h161l138 416h-195zM815 451q0 71 -43 117t-123 59l-137 -422q143 1 223 67t80 179zM924 1413q262 -71 262 -338q0 -135 -91 -235t-243 -140q86 -38 138 -104t52 -160
q0 -200 -156 -318t-429 -118h-4l-80 -242h-162l82 242h-299l350 1434h426l57 163h160z" />
    <glyph glyph-name="Wgrave" unicode="&#x1e80;" horiz-adv-x="1957" 
d="M317 -10l-61 1444h254l16 -1055l543 1059h213l45 -1059l516 1055h281l-770 -1444h-230l-45 1020l-532 -1020h-230zM1106 1536l-207 195l219 94l158 -289h-170z" />
    <glyph glyph-name="wgrave" unicode="&#x1e81;" horiz-adv-x="1529" 
d="M815 1206l-186 232l217 98l135 -330h-166zM205 -8l-29 1100h246l-8 -746l372 748h211l17 -750l352 748h242l-570 -1100h-219l-20 743l-377 -743h-217z" />
    <glyph glyph-name="Wacute" unicode="&#x1e82;" horiz-adv-x="1957" 
d="M317 -10l-61 1444h254l16 -1055l543 1059h213l45 -1059l516 1055h281l-770 -1444h-230l-45 1020l-532 -1020h-230zM1090 1536l284 289l211 -94l-289 -195h-206z" />
    <glyph glyph-name="wacute" unicode="&#x1e83;" horiz-adv-x="1529" 
d="M205 -8l-29 1100h246l-8 -746l372 748h211l17 -750l352 748h242l-570 -1100h-219l-20 743l-377 -743h-217zM809 1206l283 330l208 -98l-290 -232h-201z" />
    <glyph glyph-name="Wdieresis" unicode="&#x1e84;" horiz-adv-x="1957" 
d="M317 -10l-61 1444h254l16 -1055l543 1059h213l45 -1059l516 1055h281l-770 -1444h-230l-45 1020l-532 -1020h-230zM1270 1542l57 221h240l-58 -221h-239zM895 1542l55 221h242l-57 -221h-240z" />
    <glyph glyph-name="wdieresis" unicode="&#x1e85;" horiz-adv-x="1529" 
d="M205 -8l-29 1100h246l-8 -746l372 748h211l17 -750l352 748h242l-570 -1100h-219l-20 743l-377 -743h-217zM977 1212l61 232h236l-60 -232h-237zM616 1212l58 232h237l-59 -232h-236z" />
    <glyph glyph-name="Ygrave" unicode="&#x1ef2;" horiz-adv-x="1142" 
d="M694 1534l-207 195l220 94l157 -289h-170zM305 0l141 582l-249 852h270l154 -629l454 629h299l-684 -873l-137 -561h-248z" />
    <glyph glyph-name="ygrave" unicode="&#x1ef3;" horiz-adv-x="1044" 
d="M571 1204l-186 232l217 98l135 -330h-166zM162 -108q58 0 121 102l-105 1098h248l41 -801l397 801h260l-604 -1110q-86 -160 -170 -228t-206 -68t-218 87l117 166q61 -47 119 -47z" />
    <glyph glyph-name="enspace" unicode="&#x2002;" horiz-adv-x="1024" 
 />
    <glyph glyph-name="emspace" unicode="&#x2003;" horiz-adv-x="2048" 
 />
    <glyph glyph-name="threeperemspace" unicode="&#x2004;" horiz-adv-x="681" 
 />
    <glyph glyph-name="fourperemspace" unicode="&#x2005;" horiz-adv-x="512" 
 />
    <glyph glyph-name="figurespace" unicode="&#x2007;" horiz-adv-x="1085" 
 />
    <glyph glyph-name="thinspace" unicode="&#x2009;" horiz-adv-x="272" 
 />
    <glyph glyph-name="hairspace" unicode="&#x200a;" horiz-adv-x="153" 
 />
    <glyph glyph-name="endash" unicode="&#x2013;" horiz-adv-x="1003" 
d="M88 512l59 229h807l-57 -229h-809z" />
    <glyph glyph-name="emdash" unicode="&#x2014;" horiz-adv-x="1642" 
d="M88 512l59 229h1446l-59 -229h-1446z" />
    <glyph glyph-name="quoteleft" unicode="&#x2018;" horiz-adv-x="548" 
d="M188 868l60 238q43 170 134 247t249 89l20 -107q-106 -16 -159 -61t-68 -125h104l-69 -281h-271z" />
    <glyph glyph-name="quoteright" unicode="&#x2019;" horiz-adv-x="548" 
d="M176 860l-20 107q110 16 162 61t65 127h-104l69 279h270l-59 -238q-43 -168 -134 -245t-249 -91z" />
    <glyph glyph-name="quotesinglbase" unicode="&#x201a;" horiz-adv-x="548" 
d="M-94 -295l-21 107q203 31 228 188h-107l70 279h270l-59 -236q-41 -170 -131 -247t-250 -91z" />
    <glyph glyph-name="quotedblleft" unicode="&#x201c;" horiz-adv-x="991" 
d="M633 868l61 236q43 168 133 246t248 92l21 -109q-109 -16 -161 -60t-67 -126h107l-70 -279h-272zM193 868l57 236q43 168 133 246t248 92l20 -109q-109 -16 -161 -60t-64 -126h106l-71 -279h-268z" />
    <glyph glyph-name="quotedblright" unicode="&#x201d;" horiz-adv-x="991" 
d="M621 860l-21 107q106 16 160 61q53 45 67 127h-104l70 279h270l-59 -238q-43 -168 -133 -245t-250 -91zM178 860l-20 107q106 16 159 61t68 127h-106l71 279h268l-57 -238q-43 -168 -134 -245t-249 -91z" />
    <glyph glyph-name="quotedblbase" unicode="&#x201e;" horiz-adv-x="991" 
d="M348 -295l-20 107q203 31 227 188h-106l71 279h271l-60 -236q-43 -170 -133 -247t-250 -91zM-94 -295l-21 107q203 31 228 188h-107l70 279h270l-59 -236q-41 -170 -131 -247t-250 -91z" />
    <glyph glyph-name="dagger" unicode="&#x2020;" horiz-adv-x="729" 
d="M279 487l155 566l-229 -21l37 146l217 -21l41 277h162l-95 -277l230 21l-37 -146l-219 21l-117 -566h-145z" />
    <glyph glyph-name="daggerdbl" unicode="&#x2021;" horiz-adv-x="743" 
d="M156 0l96 276l-227 -20l36 145l218 -20l61 336l100 336l-229 -21l39 146l217 -21l41 277h162l-95 -277l230 21l-39 -146l-215 21l-62 -336l-102 -336l229 20l-36 -145l-218 20l-43 -276h-163z" />
    <glyph glyph-name="bullet" unicode="&#x2022;" horiz-adv-x="905" 
d="M536 1010q102 0 157 -58q56 -58 57 -157q0 -166 -111 -277q-80 -80 -183 -80q-102 0 -158 58t-56 155q0 166 110 277q82 82 184 82z" />
    <glyph glyph-name="ellipsis" unicode="&#x2026;" horiz-adv-x="1536" 
d="M999 0l72 276h264l-67 -276h-269zM504 0l67 276h269l-70 -276h-266zM6 0l70 276h266l-72 -276h-264z" />
    <glyph glyph-name="perthousand" unicode="&#x2030;" horiz-adv-x="2234" 
d="M1845 133q53 0 101 43q82 82 82 225q0 76 -32 117t-86 41t-100 -41q-82 -86 -81 -227q-1 -74 31 -116t85 -42zM1841 -14q-127 0 -202 82t-74 221q0 197 125 321q98 98 225 98t202 -81q75 -82 74 -221q0 -201 -125 -322q-98 -98 -225 -98zM1122 133q51 0 103 43
q80 84 80 225q0 76 -32 117t-84 41t-102 -41q-80 -86 -79 -227q0 -76 32 -117t82 -41zM1117 -14q-126 0 -201 82t-74 221q0 197 125 321q102 98 227 98t200 -81q75 -82 74 -221q0 -199 -122 -322q-103 -98 -229 -98zM330 1032q0 -76 32 -117t84 -41t101 41q80 86 80 228
q0 73 -32 115t-84 42t-99 -43q-82 -82 -82 -225zM442 725q-128 0 -202 82t-74 221q0 201 125 322q98 98 225 98t203 -82t76 -221q0 -195 -127 -322q-99 -98 -226 -98zM104 0l660 756l577 678h189l-658 -756l-577 -678h-191z" />
    <glyph glyph-name="guilsinglleft" unicode="&#x2039;" horiz-adv-x="665" 
d="M303 74l-219 446l4 17l451 456l127 -119l-326 -368l143 -354z" />
    <glyph glyph-name="guilsinglright" unicode="&#x203a;" horiz-adv-x="665" 
d="M356 993l219 -446l-4 -17l-450 -456l-127 119l325 368l-143 354z" />
    <glyph glyph-name="fraction" unicode="&#x2044;" horiz-adv-x="180" 
d="M-586 0l633 745l567 689h150l-633 -746l-567 -688h-150z" />
    <glyph glyph-name="zero.sup" unicode="&#x2070;" 
d="M588 1536q-49 0 -96 -47t-79 -151t-32 -181q0 -76 30 -113q30 -36 79 -36t97 48t79 151t30 186q0 143 -108 143zM595 1675q119 1 187 -75t68 -198t-41 -243t-125 -205t-201 -84t-187 75t-69 197q0 122 42 242t118 197q90 94 208 94z" />
    <glyph glyph-name="four.sup" unicode="&#x2074;" 
d="M362 1163h226l76 328h-5zM516 885l39 164h-352l26 133l455 485h160l-123 -502h96l-31 -116h-96l-41 -164h-133z" />
    <glyph glyph-name="five.sup" unicode="&#x2075;" 
d="M467 870q-78 0 -158 34t-125 91l95 101q94 -90 177 -90t127 41t44 96t-36 83t-92 28t-110 -25l-86 59l117 371h438l-31 -135h-315l-51 -164q35 12 90 12q104 0 169 -57q64 -57 64 -167t-88 -194t-229 -84z" />
    <glyph glyph-name="six.sup" unicode="&#x2076;" 
d="M387 1122q1 -126 119 -127q58 0 100 49q42 48 43 108q1 118 -117 118q-56 0 -102 -41q-43 -43 -43 -107zM499 870q-126 0 -191 72q-64 72 -64 186t44 238q44 125 124 203q102 106 245 106q109 0 197 -71l-76 -113q-57 49 -138 49t-138 -60t-86 -155q74 61 165 61t150 -53
t59 -165t-82 -206q-83 -92 -209 -92z" />
    <glyph glyph-name="seven.sup" unicode="&#x2077;" 
d="M229 883l453 637h-338l35 139h500l-31 -117l-461 -659h-158z" />
    <glyph glyph-name="eight.sup" unicode="&#x2078;" 
d="M574 1339q56 0 94 33q37 33 37 79t-32 76q-32 29 -89 29t-96 -31q-38 -32 -38 -79t34 -77t90 -30zM498 987q63 0 105 34t43 86t-37 83t-101 31q-64 0 -106 -35t-43 -86t37 -82t102 -31zM498 870q-124 0 -200 58t-77 149q0 91 51 147t136 76q-92 58 -92 150t73 159
q74 67 192 67q119 0 189 -58t70 -140t-43 -135t-119 -71q106 -60 106 -160t-81 -171t-205 -71z" />
    <glyph glyph-name="nine.sup" unicode="&#x2079;" 
d="M432 1386q0 -120 119 -120q57 0 100 45t43 116q0 121 -112 121q-66 0 -108 -50t-42 -112zM440 870q-129 0 -227 80l78 113q67 -59 151 -59t140 58t82 152q-63 -63 -161 -63t-156 54t-58 167t84 207t209 94q124 1 190 -71t66 -186t-42 -239q-42 -124 -122 -202
q-105 -105 -234 -105z" />
    <glyph glyph-name="zero.inf" unicode="&#x2080;" 
d="M311 379q-49 0 -96 -47q-47 -48 -79 -152t-32 -180t30 -113t79 -37t97 48t79 152t31 186q0 143 -109 143zM319 518q118 0 186 -76t68 -197q0 -122 -41 -243q-40 -121 -124 -205t-201 -84t-187 75t-70 197q0 123 43 243q42 120 118 196q90 94 208 94z" />
    <glyph glyph-name="one.inf" unicode="&#x2081;" horiz-adv-x="587" 
d="M68 -270l147 612l-160 -61l-8 131l244 94h110l-190 -776h-143z" />
    <glyph glyph-name="two.inf" unicode="&#x2082;" 
d="M401 295q-1 37 -29 61t-75 25q-76 0 -178 -90l-88 100q125 125 274 125q113 0 181 -58t67 -140q0 -82 -36 -141q-36 -58 -144 -136l-238 -182h328l-33 -129h-532l30 120l367 291q106 90 106 154z" />
    <glyph glyph-name="three.inf" unicode="&#x2083;" 
d="M193 -287q-174 0 -279 121l96 100q31 -31 50 -45q59 -43 128 -44q70 -1 110 37t40 87q0 102 -168 107h-39l-4 90l250 203h-299l33 133h493l-26 -111l-275 -217q186 -33 186 -194q1 -115 -83 -191t-213 -76z" />
    <glyph glyph-name="four.inf" unicode="&#x2084;" 
d="M86 6h225l76 328h-4zM240 -272l39 163h-353l27 134l455 485h159l-123 -502h97l-31 -117h-96l-41 -163h-133z" />
    <glyph glyph-name="five.inf" unicode="&#x2085;" 
d="M188 -287q-78 0 -158 34t-124 91l94 101q94 -91 177 -91t127 41t44 97t-36 83t-92 27t-109 -24l-86 59l116 371h439l-31 -135h-316l-51 -164q35 12 90 12q104 0 169 -57t65 -167t-88 -194t-230 -84z" />
    <glyph glyph-name="six.inf" unicode="&#x2086;" 
d="M373 -4q0 118 -118 117q-56 0 -101 -41q-43 -44 -43 -108q-1 -126 117 -126q58 0 102 49q43 49 43 109zM304 229q90 0 150 -53q60 -54 60 -166t-83 -204t-209 -93q-126 0 -190 72q-64 71 -65 185q0 114 44 239t124 203q102 106 246 106q111 0 197 -72l-76 -112
q-57 49 -138 49q-80 -1 -138 -61t-87 -154q74 61 165 61z" />
    <glyph glyph-name="seven.inf" unicode="&#x2087;" 
d="M-37 -274l453 636h-338l35 140h499l-30 -117l-461 -659h-158z" />
    <glyph glyph-name="eight.inf" unicode="&#x2088;" 
d="M296 182q56 0 93 33t37 79t-32 76t-89 30t-95 -32t-39 -79t34 -77t91 -30zM219 -170q63 0 106 34q42 34 43 86t-37 83q-37 31 -101 31t-106 -36q-42 -34 -43 -85t37 -82t101 -31zM220 -287q-124 1 -201 59t-77 148t52 146q51 56 135 77q-92 57 -92 149t74 160
q73 66 191 66t188 -57t71 -139q0 -82 -43 -136q-43 -53 -119 -71q107 -61 107 -161t-81 -170q-81 -71 -205 -71z" />
    <glyph glyph-name="nine.inf" unicode="&#x2089;" 
d="M274 109q57 0 99 41q45 49 45 120q0 121 -113 121q-65 0 -107 -50q-42 -49 -42 -111q0 -120 118 -121zM163 -287q-129 0 -226 80l77 113q66 -60 151 -60t140 58t82 153q-63 -63 -161 -63t-155 54q-59 54 -59 167t84 207t209 94t191 -72q121 -132 23 -425
q-42 -124 -122 -201q-105 -105 -234 -105z" />
    <glyph glyph-name="colonmonetary" unicode="&#x20a1;" horiz-adv-x="1105" 
d="M682 1214q-82 -24 -162 -104t-134 -234t-55 -294t44 -226zM449 262q55 -45 126 -55l355 989q-63 31 -133 33zM98 555q0 197 68 386t192 312q168 170 400 183l59 161h121l-59 -165q61 -6 120 -29l72 194h121l-88 -243q70 -43 125 -109l-142 -178q-45 49 -69 70l-332 -926
q94 20 197 102l112 -170q-182 -145 -383 -147l-86 -238h-125l93 248q-66 12 -119 39l-103 -287h-122l126 351q-178 154 -178 446z" />
    <glyph glyph-name="naira" unicode="&#x20a6;" horiz-adv-x="1495" 
d="M979 367h8l115 495h-236zM594 1094l-119 -514h246l-119 514h-8zM1419 432h-194l-107 -432h-254l-108 434h-312l-106 -434h-234l105 432h-189l39 154h189l65 270h-192l41 154h188l105 424h270l109 -426h299l104 426h233l-104 -424h197l-39 -154h-195l-67 -270h196z" />
    <glyph glyph-name="rupee" unicode="&#x20a8;" horiz-adv-x="1943" 
d="M557 705q162 0 252 85t90 222q0 98 -62 153t-182 56h-127l-125 -516h154zM1595 286q0 50 -35 90q-36 40 -138 110t-151 137q-50 68 -50 157q0 136 102 232t268 96q201 0 353 -156l-125 -155q-131 129 -242 129q-61 0 -99 -36t-38 -85t33 -84t141 -107t156 -144
q48 -71 49 -161q0 -139 -110 -235t-269 -97q-240 0 -408 191l139 149q139 -156 279 -155q63 0 104 37t41 87zM670 1434q231 0 351 -112t120 -302t-110 -317q-110 -128 -279 -179l170 -524h-252l-148 502q-2 -2 -168 -2l-121 -500h-231l350 1434h318z" />
    <glyph glyph-name="won" unicode="&#x20a9;" horiz-adv-x="1978" 
d="M514 274h8l254 568h-223zM1317 274h10l221 568h-227zM1122 1137l-250 -545h250l11 545h-11zM1905 438h-301l-205 -442h-293l8 442h-307l-207 -442h-291l10 442h-299l39 162h265l6 236h-213l41 159h176l10 439h254l-29 -439h275l207 443h280l-4 -443h279l180 439h280
l-204 -439h180l-39 -159h-215l-109 -236h265z" />
    <glyph glyph-name="sheqel" unicode="&#x20aa;" horiz-adv-x="1144" 
d="M684 0q-182 0 -259 84t-58 258l34 334h127l-22 -260q-10 -127 32 -171t158 -44h74l211 880h186l-264 -1081h-219zM543 1081q270 0 270 -229q0 -55 -14 -119l-80 -321h-129l51 211q14 70 14 134q0 126 -166 126h-118l-211 -883h-187l265 1081h305z" />
    <glyph glyph-name="Euro" unicode="&#x20ac;" horiz-adv-x="1249" 
d="M905 1454q149 0 257 -74t163 -194l-205 -119q-49 84 -103 124t-134 40q-119 0 -201 -86q-70 -68 -113 -170h385l-43 -164h-393q-31 -98 -39 -178h391l-43 -168h-354q7 -125 69 -194t172 -69t230 120l162 -152q-170 -190 -412 -190q-209 0 -336 130t-141 355h-176l43 168
h141q8 88 31 178h-131l41 164h135q68 188 193 311q168 168 411 168z" />
    <glyph glyph-name="peso" unicode="&#x20b1;" horiz-adv-x="1355" 
d="M1008 1001q-9 218 -246 220h-129l-53 -220h428zM641 637q172 0 268 96q57 55 80 137h-440l-55 -233h147zM627 430h-181l-102 -430h-248l211 862h-188l39 148h186l105 424h317q262 0 387 -127q106 -104 107 -297h182l-37 -148h-162q-35 -150 -141 -256
q-176 -176 -475 -176z" />
    <glyph glyph-name="published" unicode="&#x2117;" horiz-adv-x="1507" 
d="M723 49q248 0 428 180q115 115 173 277t58 330q2 236 -134 392t-386 156t-426 -180q-115 -112 -174 -274t-61 -330q0 -236 137 -394t385 -157zM862 1458q276 0 437 -177t161 -445q0 -180 -66 -354t-186 -298q-209 -209 -485 -209q-276 -1 -437 177t-161 446q0 182 65 356
q66 174 187 295q209 209 485 209zM795 715q90 0 142 44t54 120q0 117 -133 116h-86l-65 -280h88zM862 1124q129 0 202 -61t73 -184q1 -123 -95 -208t-260 -85h-106l-62 -250h-145l195 788h198z" />
    <glyph glyph-name="servicemark" unicode="&#x2120;" horiz-adv-x="1257" 
d="M666 799l153 635h125l78 -285l211 285h135l-156 -635h-110l106 454l-225 -301h-10l-86 301l-107 -454h-114zM369 786q-131 0 -234 121l80 74q78 -96 160 -96q45 1 74 23t29 54t-21 54q-20 22 -87 62t-98 81q-30 41 -30 107t55 122q55 58 162 58t203 -100l-74 -80
q-78 82 -148 82q-38 0 -64 -23t-26 -53t22 -54q22 -22 88 -63t96 -80t30 -105t-58 -126q-58 -58 -159 -58z" />
    <glyph glyph-name="trademark" unicode="&#x2122;" horiz-adv-x="1239" 
d="M643 799l156 635h125l75 -285l213 285h134l-152 -635h-115l109 454l-225 -301h-13l-84 301l-108 -454h-115zM246 799l125 526h-162l31 109h440l-27 -109h-164l-127 -526h-116z" />
    <glyph glyph-name="onethird" unicode="&#x2153;" horiz-adv-x="1490" 
d="M0 0l633 745l567 689h150l-633 -746l-567 -688h-150zM254 662l147 616l-159 -64l-9 129l242 99h113l-189 -780h-145zM815 205q91 -90 169 -90t119 38q40 38 40 87q0 102 -168 106h-39l-4 90l250 203h-299l32 133h494l-27 -110l-274 -218q186 -33 186 -194
q0 -114 -84 -190t-213 -76q-174 0 -278 120z" />
    <glyph glyph-name="twothirds" unicode="&#x2154;" horiz-adv-x="1626" 
d="M137 0l633 745l567 689h150l-633 -746l-567 -688h-150zM569 1227q-1 39 -29 63t-75 23q-82 0 -180 -90l-86 102q125 125 272 125q115 0 183 -58t67 -140q0 -82 -37 -141q-37 -58 -143 -138l-238 -180h328l-33 -131h-535l33 122l367 289q106 90 106 154zM1135 -16
q-174 0 -279 120l96 101q90 -90 169 -90t119 38t40 87q0 102 -168 106h-39l-4 90l250 203h-299l33 133h493l-26 -110l-275 -218q186 -33 187 -194q0 -114 -84 -190t-213 -76z" />
    <glyph glyph-name="onefifth" unicode="&#x2155;" horiz-adv-x="1490" 
d="M6 0l633 745l567 689h150l-633 -746l-567 -688h-150zM254 662l147 616l-159 -64l-9 129l242 99h113l-189 -780h-145zM987 -16q-78 0 -158 34t-124 91l94 100q94 -90 177 -90t127 41t44 96t-36 83t-92 28t-110 -25l-86 59l117 371h438l-30 -135h-316l-51 -164q35 12 90 12
q104 0 169 -57t65 -167q-1 -109 -89 -193t-229 -84z" />
    <glyph glyph-name="twofifths" unicode="&#x2156;" horiz-adv-x="1626" 
d="M569 1227q-1 39 -29 63t-75 23q-82 0 -180 -90l-86 102q125 125 272 125q115 0 183 -58t67 -140q0 -82 -37 -141q-37 -58 -143 -138l-238 -180h328l-33 -131h-535l33 122l367 289q106 90 106 154zM154 0l632 745l568 689h149l-633 -746l-567 -688h-149zM1133 -16
q-78 0 -158 34t-125 91l94 100q94 -90 178 -90t126 41q44 41 44 96t-36 83t-92 28t-109 -25l-86 59l116 371h439l-31 -135h-315l-52 -164q33 12 91 12q105 0 169 -57t64 -167q0 -109 -88 -193t-229 -84z" />
    <glyph glyph-name="threefifths" unicode="&#x2157;" horiz-adv-x="1626" 
d="M352 645q-174 0 -276 123l94 98q33 -29 51 -43q19 -14 57 -29q38 -16 90 -16t92 38t40 87q0 104 -168 105h-39l-4 90l250 202h-299l34 134h494l-29 -111l-274 -215q184 -35 184 -195q0 -117 -83 -193t-214 -75zM127 0l633 745l567 689h150l-633 -746l-568 -688h-149z
M1133 -16q-78 0 -158 34t-125 91l94 100q94 -90 178 -90t126 41q44 41 44 96t-36 83t-92 28t-109 -25l-86 59l116 371h439l-31 -135h-315l-52 -164q33 12 91 12q105 0 169 -57t64 -167q0 -109 -88 -193t-229 -84z" />
    <glyph glyph-name="fourfifths" unicode="&#x2158;" horiz-adv-x="1626" 
d="M152 0l632 745l568 689h149l-633 -746l-567 -688h-149zM1133 -16q-78 0 -158 34t-125 91l94 100q94 -90 178 -90t126 41q44 41 44 96t-36 83t-92 28t-109 -25l-86 59l116 371h439l-31 -135h-315l-52 -164q33 12 91 12q105 0 169 -57t64 -167q0 -109 -88 -193t-229 -84z
M250 938h223l78 326h-4zM406 659l36 162h-350l25 135l456 486h158l-123 -504h97l-31 -117h-96l-39 -162h-133z" />
    <glyph glyph-name="onesixth" unicode="&#x2159;" horiz-adv-x="1490" 
d="M1165 266q0 117 -117 117q-56 0 -102 -41q-43 -44 -43 -108q1 -126 119 -125q58 0 100 49t43 108zM254 662l147 616l-159 -64l-9 129l242 99h113l-189 -780h-145zM16 0l633 745l568 689h149l-633 -746l-567 -688h-150zM1015 -16q-126 0 -191 72q-64 72 -64 184
q0 114 44 239t124 203q102 106 246 106q109 0 196 -71l-76 -113q-57 49 -138 49t-138 -60t-86 -155q74 62 165 62t150 -54t59 -166t-82 -204q-83 -92 -209 -92z" />
    <glyph glyph-name="fivesixths" unicode="&#x215a;" horiz-adv-x="1626" 
d="M1313 266q0 117 -118 117q-56 0 -101 -41q-43 -43 -43 -117q-1 -116 117 -116q58 0 102 49q43 49 43 108zM135 0l633 745l567 689h150l-633 -746l-567 -688h-150zM354 645q-78 0 -158 35t-124 92l96 98q92 -88 175 -88t127 41t44 95t-35 84q-35 28 -94 28t-109 -26
l-88 59l119 371h438l-30 -136h-316l-53 -163q47 14 94 14q102 0 166 -58t64 -167t-88 -194t-228 -85zM1162 -16q-126 0 -190 72t-65 184q0 114 44 239t124 203q102 106 246 106q109 0 197 -71l-76 -113q-57 49 -138 49q-80 0 -138 -60t-87 -155q74 62 165 62q90 0 150 -54
t60 -166t-83 -204t-209 -92z" />
    <glyph glyph-name="oneeighth" unicode="&#x215b;" horiz-adv-x="1490" 
d="M8 0l633 745l567 689h150l-633 -746l-567 -688h-150zM254 662l147 616l-159 -64l-9 129l242 99h113l-189 -780h-145zM1091 453q56 1 93 33t37 78t-32 76t-89 30t-95 -32t-39 -79t33 -77q36 -29 92 -29zM1014 100q63 0 105 34t43 86t-37 83t-101 31t-105 -35
q-41 -35 -43 -86t36 -82t102 -31zM1015 -16q-124 0 -201 58t-77 148t51 147q51 56 136 77q-92 57 -92 149t73 159q74 66 192 66q119 0 189 -57t70 -139t-43 -135t-119 -72q106 -61 106 -161t-80 -170q-81 -70 -205 -70z" />
    <glyph glyph-name="threeeighths" unicode="&#x215c;" horiz-adv-x="1626" 
d="M356 645q-174 0 -276 123l94 98q33 -29 51 -43q19 -14 57 -29q38 -16 90 -16t92 38t40 87q0 104 -168 105h-39l-4 90l250 202h-299l35 134h493l-29 -111l-274 -215q184 -35 184 -195q0 -117 -83 -193t-214 -75zM135 0l633 745l567 689h150l-633 -746l-567 -688h-150z
M1238 453q56 1 93 33t37 78t-32 76t-89 30t-95 -32t-39 -79t34 -77t91 -29zM1161 100q63 0 106 34q42 34 43 86t-37 83q-37 31 -101 31t-106 -35t-43 -86t37 -82t101 -31zM1162 -16q-124 0 -200 58t-77 148q0 90 51 147q51 56 135 77q-92 57 -92 149t74 159q73 66 191 66
t189 -57t71 -139t-44 -135q-43 -53 -119 -72q107 -61 107 -161t-81 -170t-205 -70z" />
    <glyph glyph-name="fiveeighths" unicode="&#x215d;" horiz-adv-x="1626" 
d="M354 645q-78 0 -158 35t-124 92l96 98q92 -88 175 -88t127 41t44 95t-35 84q-35 28 -94 28t-109 -26l-88 59l119 371h438l-30 -136h-316l-53 -163q47 14 94 14q102 0 166 -58t64 -167t-88 -194t-228 -85zM135 0l633 745l567 689h150l-633 -746l-567 -688h-150zM1238 453
q56 1 93 33t37 78t-32 76t-89 30t-95 -32t-39 -79t34 -77t91 -29zM1161 100q63 0 106 34q42 34 43 86t-37 83q-37 31 -101 31t-106 -35t-43 -86t37 -82t101 -31zM1162 -16q-124 0 -200 58t-77 148q0 90 51 147q51 56 135 77q-92 57 -92 149t74 159q73 66 191 66t189 -57
t71 -139t-44 -135q-43 -53 -119 -72q107 -61 107 -161t-81 -170t-205 -70z" />
    <glyph glyph-name="seveneighths" unicode="&#x215e;" horiz-adv-x="1626" 
d="M70 0l632 745l568 689h149l-633 -746l-567 -688h-149zM143 659l453 637h-340l35 138h502l-31 -117l-459 -658h-160zM1226 453q56 1 93 33t37 78t-32 76t-89 30t-95 -32t-39 -79t34 -77t91 -29zM1149 100q63 0 105 34t43 86t-36 83t-101 31t-106 -35t-43 -86t37 -82
t101 -31zM1150 -16q-124 0 -201 58t-77 148t52 147q52 56 135 77q-92 57 -92 149t73 159q74 66 192 66t188 -57t71 -139q0 -82 -43 -135t-119 -72q107 -61 107 -161t-81 -170t-205 -70z" />
    <glyph glyph-name="minus" unicode="&#x2212;" horiz-adv-x="1122" 
d="M129 608l57 226h893l-57 -226h-893z" />
    <glyph glyph-name="Q.alt" horiz-adv-x="1435" 
d="M678 205q92 0 174 47l-166 231l205 138l127 -203q127 209 127 446q0 168 -79 265q-80 97 -228 97t-260 -116q-92 -92 -148 -247t-55 -309q0 -154 79 -251q79 -98 224 -98zM868 1456q242 0 386 -159t145 -416q1 -177 -63 -359t-177 -313l107 -148l-203 -137l-86 137
q-145 -84 -328 -84q-242 0 -385 159t-143 417q0 188 70 383q71 195 198 319q200 201 479 201z" />
    <glyph glyph-name="a.alt" horiz-adv-x="1177" 
d="M518 186q94 0 170 74t115 179t39 217t-58 181t-152 69q-93 0 -163 -73q-70 -72 -109 -177q-38 -105 -38 -221q0 -117 51 -183t145 -66zM412 -18q-147 0 -244 116q-96 116 -96 298t55 329t152 244q143 143 335 143t285 -197l41 177h244l-269 -1092h-241l33 135
q-148 -153 -295 -153z" />
    <glyph glyph-name="aacute.alt" horiz-adv-x="1177" 
d="M518 186q94 0 170 74t115 179t39 217t-58 181t-152 69q-93 0 -163 -73q-70 -72 -109 -177q-38 -105 -38 -221q0 -117 51 -183t145 -66zM412 -18q-147 0 -244 116q-96 116 -96 298t55 329t152 244q143 143 335 143t285 -197l41 177h244l-269 -1092h-241l33 135
q-148 -153 -295 -153zM653 1208l283 330l209 -98l-291 -232h-201z" />
    <glyph glyph-name="abreve.alt" horiz-adv-x="1177" 
d="M770 1206q-139 0 -211 79t-67 206h170q2 -53 34 -86t90 -33q117 0 187 119h170q-43 -131 -139 -208t-234 -77zM518 186q94 0 170 74t115 179t39 217t-58 181t-152 69q-93 0 -163 -73q-70 -72 -109 -177q-38 -105 -38 -221q0 -117 51 -183t145 -66zM412 -18
q-147 0 -244 116q-96 116 -96 298t55 329t152 244q143 143 335 143t285 -197l41 177h244l-269 -1092h-241l33 135q-148 -153 -295 -153z" />
    <glyph glyph-name="acircumflex.alt" horiz-adv-x="1177" 
d="M518 186q94 0 170 74t115 179t39 217t-58 181t-152 69q-93 0 -163 -73q-70 -72 -109 -177q-38 -105 -38 -221q0 -117 51 -183t145 -66zM412 -18q-147 0 -244 116q-96 116 -96 298t55 329t152 244q143 143 335 143t285 -197l41 177h244l-269 -1092h-241l33 135
q-148 -153 -295 -153zM420 1210l289 299h227l141 -299h-180l-104 144l-177 -144h-196z" />
    <glyph glyph-name="adieresis.alt" horiz-adv-x="1177" 
d="M518 186q94 0 170 74t115 179t39 217t-58 181t-152 69q-93 0 -163 -73q-70 -72 -109 -177q-38 -105 -38 -221q0 -117 51 -183t145 -66zM412 -18q-147 0 -244 116q-96 116 -96 298t55 329t152 244q143 143 335 143t285 -197l41 177h244l-269 -1092h-241l33 135
q-148 -153 -295 -153zM821 1214l62 232h235l-59 -232h-238zM461 1214l57 232h238l-60 -232h-235z" />
    <glyph glyph-name="agrave.alt" horiz-adv-x="1177" 
d="M664 1208l-187 232l217 98l135 -330h-165zM518 186q94 0 170 74t115 179t39 217t-58 181t-152 69q-93 0 -163 -73q-70 -72 -109 -177q-38 -105 -38 -221q0 -117 51 -183t145 -66zM412 -18q-147 0 -244 116q-96 116 -96 298t55 329t152 244q143 143 335 143t285 -197
l41 177h244l-269 -1092h-241l33 135q-148 -153 -295 -153z" />
    <glyph glyph-name="amacron.alt" horiz-adv-x="1177" 
d="M449 1221l47 174h616l-45 -174h-618zM518 186q94 0 170 74t115 179t39 217t-58 181t-152 69q-93 0 -163 -73q-70 -72 -109 -177q-38 -105 -38 -221q0 -117 51 -183t145 -66zM412 -18q-147 0 -244 116q-96 116 -96 298t55 329t152 244q143 143 335 143t285 -197l41 177
h244l-269 -1092h-241l33 135q-148 -153 -295 -153z" />
    <glyph glyph-name="aogonek.alt" horiz-adv-x="1177" 
d="M518 186q94 0 170 74t115 179t39 217t-58 181t-152 69q-93 0 -163 -73q-70 -72 -109 -177q-38 -105 -38 -221q0 -117 51 -183t145 -66zM764 -311q-63 0 -115 32q-51 33 -51 91q0 86 125 188h-49l33 135q-147 -153 -295 -153t-244 116t-96 298t55 329t152 244
q143 143 335 143t285 -197l41 177h244l-269 -1092h-34q-90 -96 -90 -135q0 -53 106 -53l-29 -117q-41 -6 -104 -6z" />
    <glyph glyph-name="aring.alt" horiz-adv-x="1177" 
d="M518 186q94 0 170 74t115 179t39 217t-58 181t-152 69q-93 0 -163 -73q-70 -72 -109 -177q-38 -105 -38 -221q0 -117 51 -183t145 -66zM412 -18q-147 0 -244 116q-96 116 -96 298t55 329t152 244q143 143 335 143t285 -197l41 177h244l-269 -1092h-241l33 135
q-148 -153 -295 -153zM690 1406q0 -52 29 -83t81 -31t89 44t37 98t-29 83t-80 29t-89 -44t-38 -96zM1024 1439q0 -89 -67 -161t-162 -72t-150 54t-55 142q0 89 67 162q68 72 162 72q93 0 149 -54t56 -143z" />
    <glyph glyph-name="aring.alt2" horiz-adv-x="1040" 
d="M252 312q0 -84 38 -122t116 -38q79 0 151 70t94 171l21 88q-92 37 -192 37t-167 -61q-61 -61 -61 -145zM565 1218q0 -52 29 -82t80 -30t89 43t38 96t-28 83t-80 30t-90 -44t-38 -96zM10 270q0 174 116 288t312 114q125 0 269 -51l6 24q14 68 14 109q0 141 -190 141
q-115 0 -244 -57l-55 196q119 53 264 66q-35 44 -35 124t68 151q67 71 161 71t150 -53t55 -136q0 -127 -104 -194q168 -70 168 -258q0 -80 -31 -199l-143 -606h-238l33 131q-127 -152 -293 -151q-129 0 -206 80t-77 210z" />
    <glyph glyph-name="aringacute.alt" horiz-adv-x="1177" 
d="M518 186q94 0 170 74t115 179t39 217t-58 181t-152 69q-93 0 -163 -73q-70 -72 -109 -177q-38 -105 -38 -221q0 -117 51 -183t145 -66zM412 -18q-147 0 -244 116q-96 116 -96 298t55 329t152 244q143 143 335 143t285 -197l41 177h244l-269 -1092h-241l33 135
q-148 -153 -295 -153zM690 1404q0 -52 29 -83t81 -31t89 44t37 98t-29 82q-29 30 -80 30t-89 -44t-38 -96zM1024 1437q0 -89 -67 -161t-162 -72t-150 53t-55 143t67 162q68 72 162 72q93 0 149 -54t56 -143zM780 1702l279 270l207 -96l-287 -174h-199z" />
    <glyph glyph-name="aringacute.alt2" horiz-adv-x="1040" 
d="M252 312q0 -84 38 -122t116 -38q79 0 151 70t94 171l21 88q-92 37 -192 37t-167 -61q-61 -61 -61 -145zM565 1218q0 -52 29 -82t80 -30t89 43t38 96t-28 83t-80 30t-90 -44t-38 -96zM10 270q0 174 116 288t312 114q125 0 269 -51l6 24q14 68 14 109q0 141 -190 141
q-115 0 -244 -57l-55 196q119 53 264 66q-35 44 -35 124t68 151q67 71 161 71t150 -53t55 -136q0 -127 -104 -194q168 -70 168 -258q0 -80 -31 -199l-143 -606h-238l33 131q-127 -152 -293 -151q-129 0 -206 80t-77 210zM653 1513l279 271l203 -94l-285 -177h-197z" />
    <glyph glyph-name="atilde.alt" horiz-adv-x="1177" 
d="M664 1296q-63 0 -115 -100l-133 45q49 121 105 180q57 59 127 59t161 -46q65 -39 99 -39t59 22q24 23 55 76l133 -45q-55 -123 -108 -181q-53 -59 -129 -59t-150 44q-76 44 -104 44zM518 186q94 0 170 74t115 179t39 217t-58 181t-152 69q-93 0 -163 -73
q-70 -72 -109 -177q-38 -105 -38 -221q0 -117 51 -183t145 -66zM412 -18q-147 0 -244 116q-96 116 -96 298t55 329t152 244q143 143 335 143t285 -197l41 177h244l-269 -1092h-241l33 135q-148 -153 -295 -153z" />
    <glyph glyph-name="three.alt" horiz-adv-x="1077" 
d="M444 -23q-307 0 -475 234l191 151q119 -162 291 -161q117 1 183 69t66 160t-68 145q-69 53 -192 54h-90l49 205h109q131 0 220 64t89 171q0 72 -51 118t-133 46q-133 0 -275 -121l-137 160q190 184 438 184q193 0 302 -101t109 -245t-82 -246q-81 -102 -238 -149
q88 -39 143 -115t55 -182q0 -190 -142 -316q-143 -125 -362 -125z" />
    <glyph glyph-name="registered.alt" horiz-adv-x="1507" 
d="M995 891q0 112 -149 110h-101l-59 -266h107q111 0 163 51q39 43 39 105zM852 1130q156 0 227 -73q59 -53 60 -156q0 -205 -219 -268l102 -291h-150l-88 270h-133l-63 -270h-144l193 788h215zM723 49q248 0 428 180q115 115 173 277t58 330q2 236 -134 392t-386 156
t-426 -180q-115 -112 -174 -274t-61 -330q0 -236 137 -394t385 -157zM862 1458q276 0 437 -177t161 -445q0 -180 -66 -354t-186 -298q-209 -209 -485 -209q-276 -1 -437 177t-161 446q0 182 65 356q66 174 187 295q209 209 485 209z" />
    <glyph glyph-name="R_p" horiz-adv-x="2129" 
d="M1561 180q76 0 139 66t101 186t38 240q0 119 -41 180t-116 61q-76 -1 -142 -67t-104 -182t-39 -234q0 -118 44 -184t120 -66zM557 705q162 0 252 85t90 222q0 98 -62 153t-182 56h-127l-125 -516h154zM2075 716q1 -184 -57 -349q-58 -164 -158 -265q-119 -123 -263 -122
q-184 0 -260 194l-116 -483h-230l344 1403h230l-33 -133q119 151 254 151t212 -106t77 -290zM670 1434q231 0 351 -112t120 -302t-110 -317q-110 -128 -279 -179l170 -524h-252l-148 502q-2 -2 -168 -2l-121 -500h-231l350 1434h318z" />
    <glyph glyph-name="onehalf.alt" horiz-adv-x="1626" 
d="M170 0l633 745l567 689h150l-633 -746l-568 -688h-149zM1343 565q0 37 -28 62q-29 25 -76 24q-76 0 -178 -90l-88 101q125 125 274 124q113 0 181 -58t67 -140q0 -82 -36 -140t-144 -137l-238 -182h328l-33 -129h-532l30 121l367 291q106 90 106 153zM100 662l31 131h195
l116 487l-192 -74l-6 131l274 107h111l-158 -651h174l-33 -131h-512z" />
    <glyph glyph-name="onethird.alt" horiz-adv-x="1626" 
d="M152 0l632 745l568 689h149l-633 -746l-567 -688h-149zM1135 -16q-174 0 -279 120l96 101q90 -90 169 -90t119 38t40 87q0 102 -168 106h-39l-4 90l250 203h-299l33 133h493l-26 -110l-275 -218q186 -33 187 -194q0 -114 -84 -190t-213 -76zM100 662l31 131h195l116 487
l-192 -74l-6 131l274 107h111l-158 -651h174l-33 -131h-512z" />
    <glyph glyph-name="onequarter.alt" horiz-adv-x="1626" 
d="M1006 276h225l76 328h-4zM1159 -2l39 164h-352l26 133l455 485h160l-123 -501h96l-30 -117h-97l-41 -164h-133zM182 0l633 745l567 689h150l-633 -746l-567 -688h-150zM104 662l31 131h195l116 487l-192 -74l-6 131l274 107h111l-158 -651h174l-33 -131h-512z" />
    <glyph glyph-name="onefifth.alt" horiz-adv-x="1626" 
d="M162 0l633 745l567 689h149l-632 -746l-568 -688h-149zM1130 -16q-78 0 -158 34t-124 91l94 100q94 -90 178 -90t126 41q44 41 44 96t-36 83t-92 28t-109 -25l-86 59l116 371h439l-31 -135h-315l-52 -164q35 12 90 12q104 0 169 -57t65 -167q0 -109 -88 -193t-230 -84z
M100 662l31 131h195l116 487l-192 -74l-6 131l274 107h111l-158 -651h174l-33 -131h-512z" />
    <glyph glyph-name="onesixth.alt" horiz-adv-x="1626" 
d="M1315 266q0 117 -118 117q-56 0 -101 -41q-43 -43 -43 -117q-1 -116 117 -116q58 0 102 49q43 49 43 108zM100 662l31 131h195l116 487l-192 -74l-6 131l274 107h111l-158 -651h174l-33 -131h-512zM166 0l633 745l567 689h150l-633 -746l-568 -688h-149zM1164 -16
q-126 0 -190 72t-65 184q0 114 44 239t124 203q102 106 246 106q111 0 197 -71l-76 -113q-57 49 -138 49q-80 0 -138 -60t-87 -155q74 62 165 62q90 0 150 -54t60 -166t-83 -204t-209 -92z" />
    <glyph glyph-name="oneeighth.alt" horiz-adv-x="1626" 
d="M166 0l633 745l567 689h150l-633 -746l-568 -688h-149zM1240 453q56 1 93 33t37 78t-32 76t-89 30t-95 -32t-39 -79t34 -77t91 -29zM1163 100q63 0 106 34q42 34 43 86t-37 83t-101 31q-64 0 -106 -35t-43 -86t37 -82t101 -31zM1164 -16q-124 0 -200 58t-77 148
q0 90 51 147q51 56 135 77q-92 57 -92 149t74 159q73 66 191 66t189 -57t71 -139t-44 -135q-43 -53 -119 -72q107 -61 107 -161t-81 -170t-205 -70zM100 662l31 131h195l116 487l-192 -74l-6 131l274 107h111l-158 -651h174l-33 -131h-512z" />
    <glyph glyph-name="one.sup_alt" 
d="M211 887l33 129h194l117 485l-193 -74l-6 134l271 104h112l-155 -649h172l-31 -129h-514z" />
    <glyph glyph-name="one.inf_alt" 
d="M-68 -270l33 129h195l116 485l-192 -74l-6 133l270 105h113l-156 -649h172l-31 -129h-514z" />
    <glyph glyph-name="zero.tab" horiz-adv-x="1085" 
d="M279 430q0 -240 151 -240q76 0 131 60q98 98 171 344t73 410q0 240 -154 239q-183 0 -301 -402q-71 -245 -71 -411zM1036 992q0 -224 -84 -480t-222 -394t-314 -138t-274 118q-97 119 -97 343q0 225 85 481t222 395q142 137 316 137t271 -119t97 -343z" />
    <glyph glyph-name="one.tab" horiz-adv-x="1085" 
d="M-35 0l51 203h332l230 971l-332 -132l-2 220l469 180h172l-301 -1239h295l-52 -203h-862z" />
    <glyph glyph-name="two.tab" horiz-adv-x="1085" 
d="M788 1061q0 78 -51 124t-127 46q-135 0 -303 -162l-141 164q203 221 455 221q193 0 307 -101t112 -261q0 -126 -60 -228t-194 -219l-481 -430h561l-57 -215h-887l51 190l617 553q104 94 151 167t47 151z" />
    <glyph glyph-name="three.tab" horiz-adv-x="1085" 
d="M397 -23q-289 0 -456 213l165 162q125 -154 304 -153q116 -1 192 71t76 174q0 199 -289 211h-63l-7 152l422 412h-522l57 215h844l-49 -187l-459 -432q315 -78 316 -350q0 -203 -151 -345t-380 -143z" />
    <glyph glyph-name="three.tab_alt" horiz-adv-x="1085" 
d="M399 -23q-157 0 -275 67t-185 169l176 149q63 -84 133 -124t178 -41t174 65t66 166t-80 152t-211 53h-66l53 198h107q152 2 238 67t86 171q1 74 -51 122t-138 48q-141 0 -293 -133l-127 168q195 182 445 182q193 0 305 -101t110 -251q0 -297 -337 -389q90 -37 147 -113
t57 -184q0 -188 -139 -315q-140 -126 -373 -126z" />
    <glyph glyph-name="four.tab" horiz-adv-x="1085" 
d="M219 500h389l160 649h-2zM483 0l76 309h-571l20 226l776 907h277l-227 -940h153l-51 -193h-152l-73 -309h-228z" />
    <glyph glyph-name="five.tab" horiz-adv-x="1085" 
d="M395 -20q-287 0 -461 206l160 168q141 -158 312 -157q122 0 202 85t80 193q0 107 -63 163t-167 56t-194 -45l-133 101l209 684h741l-57 -220h-526l-107 -344q68 20 146 21q173 -1 289 -103t116 -274q0 -217 -150 -376q-151 -158 -397 -158z" />
    <glyph glyph-name="six.tab" horiz-adv-x="1085" 
d="M287 395q0 -91 50 -153q51 -62 153 -62t172 106t70 218t-53 166q-52 54 -140 55q-88 0 -160 -72q-92 -92 -92 -258zM473 -23q-182 0 -293 111q-123 120 -123 342t81 462t231 390q168 172 385 172t348 -117l-133 -190q-105 90 -227 90t-236 -114t-168 -328
q120 121 274 121t255 -99q101 -98 102 -276q1 -217 -139 -391t-357 -173z" />
    <glyph glyph-name="seven.tab" horiz-adv-x="1085" 
d="M20 0l791 1212h-614l59 222h887l-53 -193l-793 -1241h-277z" />
    <glyph glyph-name="eight.tab" horiz-adv-x="1085" 
d="M593 827q93 0 160 71t67 161t-51 143q-52 53 -146 53t-158 -70q-63 -71 -65 -158t48 -143q52 -56 145 -57zM462 176q102 0 172 72t72 172q0 100 -58 156t-162 57q-104 0 -175 -74q-73 -74 -73 -173t61 -155q61 -55 163 -55zM942 412q0 -172 -138 -302t-351 -130t-331 104
t-119 263t89 269t236 148q-152 84 -152 278q0 160 129 286t319 126t306 -98q117 -98 117 -248t-79 -250q-79 -102 -210 -141q184 -106 184 -305z" />
    <glyph glyph-name="nine.tab" horiz-adv-x="1085" 
d="M600 1253q-116 0 -186 -106t-70 -223q0 -116 52 -172t143 -56q92 0 159 74q92 90 93 258q-1 100 -51 162t-140 63zM340 -23q-209 0 -367 144l133 186q119 -113 243 -113t212 93q119 119 180 336q-123 -119 -274 -119t-255 101q-103 101 -103 303t141 375t362 173
q180 0 285 -108q123 -120 123 -352t-79 -470t-224 -385q-168 -164 -377 -164z" />
    <glyph glyph-name="period.tab" horiz-adv-x="542" 
d="M-43 0l72 291h282l-73 -291h-281z" />
    <glyph glyph-name="comma.tab" horiz-adv-x="542" 
d="M-139 -295l-21 107q199 31 228 188h-113l72 291h284l-63 -248q-41 -168 -133 -245t-254 -93z" />
    <glyph glyph-name="colon.tab" horiz-adv-x="542" 
d="M152 807l69 283h279l-70 -283h-278zM-43 0l70 285h276l-70 -285h-276z" />
    <glyph glyph-name="semicolon.tab" horiz-adv-x="542" 
d="M152 807l71 283h279l-72 -283h-278zM-139 -295l-21 107q199 31 228 188h-111l72 285h278l-61 -242q-41 -170 -132 -246t-253 -92z" />
    <glyph glyph-name="twodotleader.tab" horiz-adv-x="1085" 
d="M502 0l69 276h271l-72 -276h-268zM-37 0l70 276h270l-72 -276h-268z" />
    <glyph glyph-name="periodcentered.tab" horiz-adv-x="542" 
d="M72 483l73 289h283l-74 -289h-282z" />
    <glyph glyph-name="slash.tab" horiz-adv-x="1085" 
d="M-242 -244l1295 1860h227l-1292 -1860h-230z" />
    <glyph glyph-name="bar.tab" horiz-adv-x="542" 
d="M-63 -244l458 1860h193l-457 -1860h-194z" />
    <glyph glyph-name="underscore.tab" horiz-adv-x="1085" 
d="M-256 -328l49 189h1086l-50 -189h-1085z" />
    <glyph glyph-name="dollar.tab" horiz-adv-x="1085" 
d="M434 1030q0 -84 92 -151l101 356q-89 -9 -141 -65t-52 -140zM686 411q0 91 -94 160l-109 -376q92 8 148 66q55 59 55 150zM930 438q0 -190 -137 -316t-351 -126h-10l-59 -207h-164l65 227q-199 55 -333 213l151 160q117 -135 246 -176l121 434q-135 72 -203 156t-68 203
q0 180 138 305t338 125h14l47 163h164l-53 -186q162 -41 274 -168l-145 -164q-94 98 -189 133l-114 -411q136 -74 202 -158t66 -207z" />
    <glyph glyph-name="sterling.tab" horiz-adv-x="1085" 
d="M772 1452q119 0 213 -57t148 -150l-191 -141q-74 121 -184 121q-164 0 -217 -236l-45 -203h395l-51 -200h-396l-86 -375h535l-51 -211h-914l41 156l144 45l92 385h-142l52 200h139l53 242q103 424 465 424z" />
    <glyph glyph-name="Euro.tab" horiz-adv-x="1085" 
d="M807 1454q233 0 350 -203l-164 -143q-90 131 -191 131t-176 -75t-124 -193h340l-41 -160h-355q-23 -84 -32 -180h346l-43 -160h-309q12 -276 194 -276q90 0 205 96l117 -168q-164 -143 -341 -143t-293 124t-124 367h-174l41 160h139q10 102 29 180h-125l39 160h135
q78 207 199 327q156 156 358 156z" />
    <glyph glyph-name="yen.tab" horiz-adv-x="1085" 
d="M102 545l43 162h244l-194 727h247l125 -592l400 592h272l-549 -727h248l-43 -162h-277l-40 -164h278l-39 -162h-278l-54 -219h-233l53 219h-282l40 162h283l41 164h-285z" />
    <glyph glyph-name="cent.tab" horiz-adv-x="1085" 
d="M338 645q0 -168 102 -239l224 677q-111 -6 -195 -92q-61 -61 -96 -159t-35 -187zM563 172q-31 0 -45 2l-63 -186h-170l82 225q-115 51 -182 162t-66 260q0 295 186 485q158 158 385 158q20 0 33 -2l57 168h170l-71 -203q127 -55 208 -180l-163 -123q-51 74 -117 113
l-227 -686q121 0 249 106l113 -149q-156 -150 -379 -150z" />
    <glyph glyph-name="numbersign.tab" horiz-adv-x="1085" 
d="M371 535h241l101 368h-242zM37 0l90 328h-145l51 207h153l103 368h-160l51 207h166l90 324h187l-91 -324h236l90 324h186l-90 -324h150l-51 -207h-158l-100 -368h161l-51 -207h-166l-90 -328h-186l90 328h-238l-92 -328h-186z" />
    <glyph glyph-name="paragraph.tab" horiz-adv-x="1085" 
d="M119 883q0 231 149 379q168 172 506 172h320l-351 -1434h-245l110 461q-258 6 -383 135q-106 102 -106 287z" />
    <glyph glyph-name="section.tab" horiz-adv-x="1085" 
d="M626 563q66 0 111 35t45 85t-31 78q-32 28 -104 62q-127 51 -192 51t-112 -34q-46 -35 -46 -85t32 -78t103 -63q128 -51 194 -51zM432 -16q-250 0 -401 157l143 148q123 -119 264 -119q66 0 105 28t39 70t-38 71t-178 87t-220 119q-78 61 -78 171t82 178t202 81
q-86 79 -86 195t104 200t279 84q252 0 400 -158l-142 -149q-125 121 -266 121q-67 0 -105 -27t-38 -70t38 -73t177 -84q139 -56 219 -119t80 -173t-82 -178t-201 -81q84 -78 84 -195q1 -116 -103 -200t-278 -84z" />
    <glyph glyph-name="degree.tab" horiz-adv-x="1085" 
d="M590 768q90 0 162 72q100 100 100 260q0 96 -52 153t-146 57t-158 -69q-100 -94 -101 -260q0 -96 52 -155q53 -58 143 -58zM664 1452q154 0 246 -96t94 -252q0 -215 -134 -345t-288 -130q-152 0 -246 95t-94 251q0 213 143 356q125 121 279 121z" />
    <glyph glyph-name="percent.tab" horiz-adv-x="1085" 
d="M688 119q26 -1 60 33t68 146t34 200t-55 90q-27 0 -61 -34t-68 -146t-33 -201q0 -88 55 -88zM401 1315q-27 0 -61 -34q-34 -35 -67 -145t-33 -200t55 -90q27 0 61 34t67 146q33 113 33 201t-55 88zM983 1434h137l-538 -742l-476 -692h-139l541 739zM807 717
q84 -1 133 -59t49 -168t-42 -234q-43 -124 -113 -196t-156 -72t-135 59t-49 169t42 234t109 193q78 74 162 74zM413 1446q85 0 134 -60t49 -168q0 -110 -42 -234t-110 -193q-78 -74 -162 -74t-132 58q-50 58 -50 168t42 235q42 124 114 196t157 72z" />
    <glyph glyph-name="quotedbl.tab" horiz-adv-x="1085" 
d="M655 825l187 609h276l-338 -609h-125zM213 825l188 609h275l-4 -13l-334 -596h-125z" />
    <glyph glyph-name="quotesingle.tab" horiz-adv-x="542" 
d="M166 825l188 609h275l-4 -13l-334 -596h-125z" />
    <glyph glyph-name="plus.tab" horiz-adv-x="1085" 
d="M324 283l84 331h-328l55 213h326l80 332h219l-82 -332h326l-56 -213h-319l-82 -331h-223z" />
    <glyph glyph-name="minus.tab" horiz-adv-x="1085" 
d="M80 608l55 226h871l-58 -226h-868z" />
    <glyph glyph-name="divide.tab" horiz-adv-x="1085" 
d="M479 983l62 250h258l-62 -250h-258zM80 616l55 209h871l-58 -209h-868zM285 209l63 250h256l-61 -250h-258z" />
    <glyph glyph-name="equal.tab" horiz-adv-x="1085" 
d="M162 838l55 217h817l-55 -217h-817zM49 387l55 217h820l-56 -217h-819z" />
    <glyph glyph-name="multiply.tab" horiz-adv-x="1085" 
d="M186 291l-129 166l342 276l-200 266l184 144l190 -271l336 279l129 -166l-338 -274l197 -265l-184 -147l-191 270z" />
    <glyph glyph-name="less.tab" horiz-adv-x="1085" 
d="M803 223l-711 387l58 221l907 406l-66 -244l-645 -280l514 -264z" />
    <glyph glyph-name="greater.tab" horiz-adv-x="1085" 
d="M283 1219l710 -388l-57 -221l-907 -405l65 244l645 280l-514 264z" />
    <glyph glyph-name="plusminus.tab" horiz-adv-x="1085" 
d="M-51 57l51 207h866l-53 -207h-864zM365 434l79 316h-325l55 211h324l77 317h220l-80 -317h325l-55 -211h-323l-78 -316h-219z" />
    <glyph glyph-name="space.tab" horiz-adv-x="542" 
 />
    <glyph glyph-name="NUL" horiz-adv-x="0" 
 />
    <glyph glyph-name="hfjslug" horiz-adv-x="1421" 
d="M872 565q20 1 34 15q33 33 1 68q-15 16 -35 16t-34 -16t-14 -34q0 -20 14 -34t34 -15zM872 580q-33 0 -32 34q0 12 9 24t23 11q14 0 24 -11t9 -24q0 -34 -33 -34zM645 1056q0 30 29 29q27 -1 27 -35t-31 -69q-25 45 -25 75zM659 823q-33 0 -33 45t33 78l41 -80
q-16 -43 -41 -43zM975 612v35h22q20 0 21 -16q0 -18 -21 -19h-22zM985 799q63 0 64 73v281h-33v-281q0 -45 -33 -45q-16 0 -41 11v-31q20 -8 43 -8zM750 567h16v35l37 60h-19l-26 -46l-27 46h-18l37 -60v-35zM958 567h17v31h24l21 -31h18l-24 35q20 8 20 29q0 31 -35 31h-41
v-95zM819 801h31v160h78v28h-78v135h88v29h-119v-352zM270 567h17v66l51 -66h14v95h-16v-66l-51 66h-15v-95zM377 801h31v162h96v-162h31v352h-31v-162h-96v162h-31v-352zM395 567h70v15h-53v26h47v15h-47v24h53v15h-70v-95zM1071 567h16v25l17 16l31 -41h20l-41 54l37 41
h-21l-40 -50h-3v50h-16v-95zM102 -410v621q29 0 48 19q18 19 18 46q0 26 -20 46t-46 20v1135h205l62 161h684l59 -161h207v-1887h-426l-16 29h-334l-17 -29h-424zM598 862q0 -68 65 -67q33 0 54 49h2l24 -49l25 12l-35 65q12 29 27 80l-27 6q-8 -37 -16 -61h-2l-33 64
q47 43 47 86q0 63 -55 63q-25 0 -41 -18q-35 -39 12 -125q-47 -37 -47 -105zM522 565h17l22 70h2l23 -70h16l29 97h-17l-20 -72h-2l-23 72h-14l-23 -72h-2l-20 72h-16z" />
    <glyph glyph-name="i.dot" horiz-adv-x="524" 
d="M303 1243l62 238h258l-64 -238h-256zM8 0l268 1092h242l-266 -1092h-244z" />
    <glyph glyph-name="zero.num" 
d="M287 928q0 -143 108 -144q51 0 86 39q57 55 88 159t31 181q0 76 -30 113t-77 37t-92 -41q-55 -56 -85 -160t-29 -184zM385 645q-117 0 -185 76t-69 198q0 123 41 243t125 204t203 84q118 0 186 -74t68 -197q0 -124 -41 -244t-126 -205t-202 -85z" />
    <glyph glyph-name="one.num" horiz-adv-x="587" 
d="M250 662l147 616l-159 -64l-9 129l242 99h113l-189 -780h-145z" />
    <glyph glyph-name="one.num_alt" 
d="M113 662l30 131h195l117 487l-193 -74l-6 131l274 107h111l-158 -651h174l-32 -131h-512z" />
    <glyph glyph-name="two.num" 
d="M477 1313q-82 0 -180 -90l-86 102q125 125 272 125q115 0 183 -58t68 -140t-38 -141q-37 -58 -143 -138l-238 -180h328l-33 -131h-534l33 122l366 289q106 90 107 154q0 39 -29 63t-76 23z" />
    <glyph glyph-name="three.num" 
d="M369 645q-174 0 -277 123l94 98q34 -29 52 -43q57 -43 127 -44q71 -1 111 37t40 87q0 104 -168 105h-39l-4 90l250 202h-299l35 134h493l-28 -111l-275 -215q184 -35 185 -195q0 -117 -83 -193t-214 -75z" />
    <glyph glyph-name="four.num" 
d="M264 938h223l78 326h-4zM420 659l37 162h-351l25 135l457 486h157l-122 -504h96l-31 -117h-96l-39 -162h-133z" />
    <glyph glyph-name="five.num" 
d="M367 645q-78 0 -158 35t-125 92l96 98q92 -88 176 -88t126 41q44 41 44 95q0 112 -133 112q-55 0 -104 -26l-88 59l118 371h439l-31 -136h-315l-54 -163q47 14 95 14q102 0 165 -58q64 -58 64 -167t-87 -194t-228 -85z" />
    <glyph glyph-name="six.num" 
d="M553 928q0 118 -119 119q-57 0 -98 -43q-45 -39 -45 -115q0 -117 118 -117q57 0 101 49q43 49 43 107zM402 647q-126 0 -190 71t-65 184q0 114 44 240t122 204q104 104 250 104q111 0 197 -72l-78 -110q-61 49 -136 49t-143 -64q-51 -53 -84 -153q75 61 167 61t150 -53
t58 -165t-83 -204t-209 -92z" />
    <glyph glyph-name="seven.num" 
d="M141 659l453 637h-340l35 138h502l-31 -117l-459 -658h-160z" />
    <glyph glyph-name="eight.num" 
d="M476 1114q56 0 94 34t38 80t-31 76q-33 30 -91 30t-96 -34q-38 -32 -39 -78t34 -77t91 -31zM399 764q61 0 105 34q43 34 44 85t-37 83t-100 32t-105 -36q-42 -36 -43 -86t37 -82q38 -30 99 -30zM400 645q-124 -1 -200 59t-77 150q0 90 51 146t137 77q-94 57 -94 149
t75 158q74 66 192 66t189 -57t71 -139t-45 -134q-44 -53 -119 -71q106 -61 106 -161t-81 -172q-81 -71 -205 -71z" />
    <glyph glyph-name="nine.num" 
d="M596 1196q0 133 -120 130q-58 -1 -100 -52t-42 -121q-1 -109 112 -109q62 0 106 42t44 110zM339 645q-134 0 -224 82l78 111q67 -58 149 -58q155 -1 223 209q-72 -63 -165 -63t-151 55q-59 55 -59 167t84 208t209 96t191 -73q121 -134 23 -426q-42 -124 -122 -201
q-102 -107 -236 -107z" />
    <glyph glyph-name="zero.den" 
d="M332 649q-49 0 -96 -47q-47 -48 -79 -152t-32 -180t30 -112t79 -37q49 0 97 48q48 47 79 151t30 186q0 143 -108 143zM339 788q119 0 187 -76t68 -197q0 -122 -41 -243q-41 -120 -125 -204t-201 -84t-187 74t-69 197q0 122 42 243t118 196q90 94 208 94z" />
    <glyph glyph-name="one.den" horiz-adv-x="587" 
d="M88 0l148 612l-160 -61l-8 131l243 94h111l-191 -776h-143z" />
    <glyph glyph-name="one.den_alt" 
d="M-49 0l33 129h194l117 485l-193 -73l-6 133l271 104h112l-155 -649h172l-31 -129h-514z" />
    <glyph glyph-name="two.den" 
d="M-84 0l31 121l366 291q106 90 107 153q0 37 -29 62t-76 24q-76 0 -178 -90l-88 101q125 125 275 124q112 0 180 -58t68 -140t-36 -141q-36 -58 -145 -136l-237 -182h327l-32 -129h-533z" />
    <glyph glyph-name="three.den" 
d="M211 -16q-174 0 -279 120l97 101q90 -90 184 -90q63 0 103 38t40 87q0 102 -168 106h-38l-5 90l250 203h-299l33 133h494l-27 -110l-274 -218q186 -33 186 -194q0 -114 -84 -190t-213 -76z" />
    <glyph glyph-name="four.den" 
d="M104 276h226l76 328h-5zM258 -2l39 164h-352l26 133l455 485h160l-123 -501h96l-31 -117h-96l-41 -164h-133z" />
    <glyph glyph-name="five.den" 
d="M207 -16q-78 0 -158 34t-125 91l94 100q94 -90 178 -90t127 41q44 41 44 96t-36 83q-37 28 -93 28t-109 -25l-86 59l117 371h438l-31 -135h-315l-51 -164q33 12 90 12q104 0 169 -57q64 -57 64 -167q0 -109 -88 -193t-229 -84z" />
    <glyph glyph-name="six.den" 
d="M391 266q1 117 -117 117q-56 0 -102 -41q-43 -44 -43 -108q1 -126 119 -125q58 0 100 49t43 108zM532 280q0 -112 -82 -204t-209 -92q-126 0 -191 72q-64 72 -64 184q0 114 44 239t124 203q102 106 245 106q109 0 197 -71l-76 -113q-57 49 -138 49t-138 -60t-86 -155
q74 62 165 62t150 -54t59 -166z" />
    <glyph glyph-name="seven.den" 
d="M-20 -4l452 637h-338l35 139h500l-31 -117l-461 -659h-157z" />
    <glyph glyph-name="eight.den" 
d="M316 453q56 0 94 32q36 33 36 79t-31 76q-32 30 -89 30q-58 0 -96 -32t-38 -79t33 -77q35 -29 91 -29zM240 100q63 0 105 34t43 86t-37 83t-101 31q-64 0 -106 -35t-43 -86t37 -82t102 -31zM526 224q0 -100 -81 -170t-205 -70t-200 58t-77 148q0 90 51 147q51 56 136 77
q-92 57 -92 149t73 159q74 66 192 66q119 0 189 -57t70 -139t-43 -135t-119 -72q106 -61 106 -161z" />
    <glyph glyph-name="nine.den" 
d="M174 500q0 -121 119 -121q57 0 100 45t43 117q0 121 -112 121q-66 0 -108 -50t-42 -112zM182 -16q-129 0 -227 79l78 113q67 -59 151 -59t140 58t82 153q-63 -64 -161 -64t-156 54t-58 167t84 207t209 94q124 0 190 -72t66 -186t-42 -238t-122 -202q-105 -104 -234 -104z
" />
    <glyph glyph-name="caron.alt" horiz-adv-x="1024" 
d="M866 1579v-6l-194 -383h-101l103 389h192z" />
    <glyph glyph-name="acute.cap" horiz-adv-x="1024" 
d="M555 1536l285 289l211 -94l-289 -195h-207z" />
    <glyph glyph-name="hungarumlaut.cap" horiz-adv-x="1024" 
d="M766 1536l285 289l200 -94l-288 -195h-197zM432 1536l283 289l200 -94l-288 -195h-195z" />
    <glyph glyph-name="grave.cap" horiz-adv-x="1024" 
d="M770 1536l-207 195l219 94l158 -289h-170z" />
    <glyph glyph-name="circumflex.cap" horiz-adv-x="1024" 
d="M416 1540l295 270h229l162 -270h-187l-114 115l-174 -115h-211z" />
    <glyph glyph-name="caron.cap" horiz-adv-x="1024" 
d="M1167 1810l-293 -270h-231l-158 270h183l118 -116l172 116h209z" />
    <glyph glyph-name="breve.cap" horiz-adv-x="1024" 
d="M762 1536q-139 0 -213 69t-55 191h159q17 -92 139 -92t179 92h182q-45 -124 -149 -192t-242 -68z" />
    <glyph glyph-name="tilde.cap" horiz-adv-x="1024" 
d="M636 1804q72 0 171 -43q68 -37 102 -37q61 0 119 91l135 -46q-53 -119 -108 -175t-125 -56t-174 43q-68 37 -103 37q-63 0 -116 -92l-136 47q53 119 109 175q54 56 126 56z" />
    <glyph glyph-name="macron.cap" horiz-adv-x="1024" 
d="M430 1550l47 179h660l-45 -179h-662z" />
    <glyph glyph-name="dieresis.cap" horiz-adv-x="1024" 
d="M827 1542l58 221h239l-57 -221h-240zM453 1542l55 221h242l-58 -221h-239z" />
    <glyph glyph-name="dotaccent.cap" horiz-adv-x="1024" 
d="M637 1542l55 221h248l-57 -221h-246z" />
    <glyph glyph-name="ring.cap" horiz-adv-x="1024" 
d="M455 1726q-1 -44 29 -72t84 -28t91 38t37 83t-28 73q-29 28 -84 28t-92 -39q-37 -38 -37 -83zM584 1939q102 0 160 -52t58 -137t-66 -152q-67 -66 -168 -66t-160 53q-60 53 -60 138t66 151q68 66 170 65z" />
    </font>
</defs>
</svg>
