<?xml version="1.0" standalone="no"?>
<!DOCTYPE svg PUBLIC "-//W3C//DTD SVG 1.1//EN" "http://www.w3.org/Graphics/SVG/1.1/DTD/svg11.dtd" >
<svg xmlns="http://www.w3.org/2000/svg">
<metadata>
Created by FontPrep 20130207 at Tue Dec  3 03:35:54 2013
 By Bryan Willis
Copyright (C) 2001, 2008 Hoefler &#38; Frere-Jones. http://www.typography.com
</metadata>
<defs>
<font id="1d53e6cbca7062fa4f3f4ccf0e0aea47" horiz-adv-x='1024' >
  <font-face 
    font-family="GothamXNarrow-Bold"
    font-weight="400"
    font-stretch="condensed"
    units-per-em="2048"
    panose-1="0 0 0 0 0 0 0 0 0 0"
    ascent="1638"
    descent="-410"
    x-height="1098"
    cap-height="1434"
    bbox="-354 -510 1944 1980"
    underline-thickness="102"
    underline-position="-102"
    unicode-range="U+0020-FB04"
  />
<missing-glyph horiz-adv-x="1024" 
d="M512 492l-367 -799h734zM922 1384l-353 -770l353 -770v1540zM102 -156l353 770l-353 770v-1540zM145 1536l367 -799l367 799h-734zM0 -410v2048h1024v-2048h-1024z" />
    <glyph glyph-name="f_f" unicode="ff" horiz-adv-x="1159" 
d="M709 1169q0 303 299 301q80 0 135 -16v-221q-37 10 -68 10q-102 0 -102 -106v-43h170v-217h-168v-877h-266v877h-86v217h86v75zM129 0v877h-90v217h90v75q0 152 77 227t222 74q76 0 135 -16v-221q-37 10 -67 10q-102 0 -103 -106v-43h166v-217h-164v-877h-266z" />
    <glyph glyph-name="fi" unicode="fi" horiz-adv-x="1048" 
d="M680 1208v254h274v-254h-274zM684 0v1098h266v-1098h-266zM129 0v877h-90v217h90v75q0 152 77 227t222 74q76 0 135 -16v-221q-37 10 -67 10q-102 0 -103 -106v-43h170v-217h-168v-877h-266z" />
    <glyph glyph-name="fl" unicode="fl" horiz-adv-x="1048" 
d="M684 0v1462h266v-1462h-266zM129 0v877h-90v217h90v75q0 152 77 227t222 74q76 0 135 -16v-221q-37 10 -67 10q-102 0 -103 -106v-43h170v-217h-168v-877h-266z" />
    <glyph glyph-name="f_f_i" unicode="ffi" horiz-adv-x="1624" 
d="M1255 1208v254h275v-254h-275zM1260 0v1098h266v-1098h-266zM709 1169q0 303 299 301q80 0 135 -16v-221q-37 10 -68 10q-102 0 -102 -106v-43h170v-217h-168v-877h-266v877h-86v217h86v75zM129 0v877h-90v217h90v75q0 152 77 227t222 74q76 0 135 -16v-221
q-37 10 -67 10q-102 0 -103 -106v-43h166v-217h-164v-877h-266z" />
    <glyph glyph-name="f_f_l" unicode="ffl" horiz-adv-x="1624" 
d="M1260 0v1462h266v-1462h-266zM709 1169q0 303 299 301q80 0 135 -16v-221q-37 10 -68 10q-102 0 -102 -106v-43h170v-217h-168v-877h-266v877h-86v217h86v75zM129 0v877h-90v217h90v75q0 152 77 227t222 74q76 0 135 -16v-221q-37 10 -67 10q-102 0 -103 -106v-43h166
v-217h-164v-877h-266z" />
    <glyph glyph-name=".notdef" horiz-adv-x="1024" 
d="M512 492l-367 -799h734zM922 1384l-353 -770l353 -770v1540zM102 -156l353 770l-353 770v-1540zM145 1536l367 -799l367 799h-734zM0 -410v2048h1024v-2048h-1024z" />
    <glyph glyph-name=".null" horiz-adv-x="0" 
 />
    <glyph glyph-name="nonmarkingreturn" horiz-adv-x="681" 
 />
    <glyph glyph-name="space" unicode=" " horiz-adv-x="376" 
 />
    <glyph glyph-name="exclam" unicode="!" horiz-adv-x="532" 
d="M115 0v301h301v-301h-301zM106 1434h320v-41l-90 -932h-141l-89 932v41z" />
    <glyph glyph-name="quotedbl" unicode="&#x22;" horiz-adv-x="839" 
d="M397 1434v-17l-180 -637h-117l15 654h282zM788 1434v-17l-180 -637h-114l12 654h282z" />
    <glyph glyph-name="numbersign" unicode="#" horiz-adv-x="1017" 
d="M428 889l-39 -336h199l39 336h-199zM924 557v-238h-168l-37 -319h-199l37 319h-192l-37 -319h-201l37 319h-121v238h150l38 328h-139v237h168l37 312h201l-37 -312h192l35 312h201l-37 -312h121v-237h-150l-39 -328h140z" />
    <glyph glyph-name="dollar" unicode="$" horiz-adv-x="942" 
d="M500 1196q-68 0 -107 -37t-39 -92t42 -100t192 -142t222 -199q71 -102 71 -235v-2q0 -150 -86 -253t-228 -134v-215h-180v209q-221 25 -362 194l161 201q129 -154 277 -153q69 0 109 40t40 101v2q0 49 -38 96t-140 109q-196 119 -272 220t-76 243v2q0 145 82 246t219 133
v143h180v-135q195 -25 322 -164l-164 -197q-111 119 -225 119z" />
    <glyph glyph-name="percent" unicode="%" horiz-adv-x="1386" 
d="M1047 160q88 0 88 194v17q0 197 -88 196q-88 0 -89 -196v-15q1 -196 89 -196zM1047 -14q-123 0 -198 100t-75 262v29q0 164 75 263t199 99t198 -99t75 -261v-31q1 -162 -75 -262t-199 -100zM633 756l375 678h182l-432 -756l-377 -678h-182zM428 1077q0 197 -88 197
t-88 -195v-16q0 -197 88 -197t88 197v14zM338 694q-123 0 -198 100t-74 261v30q0 162 75 263q76 100 199 100t198 -100t74 -263v-28q0 -163 -76 -263t-198 -100z" />
    <glyph glyph-name="ampersand" unicode="&#x26;" horiz-adv-x="1087" 
d="M475 211q76 0 154 74l-215 327q-102 -88 -103 -215v-6q0 -80 44 -130t120 -50zM614 1110v2q0 55 -27 91q-28 36 -74 36t-74 -36t-27 -89v-4q-1 -90 75 -209q127 84 127 209zM446 -20q-176 0 -290 110t-113 287v6q0 250 242 414q-115 174 -115 311v10q0 142 96 240t249 98
t244 -92t91 -238v-10q0 -229 -240 -381l152 -225q33 74 67 205l211 -62q-47 -203 -129 -346l154 -205l-199 -129l-106 142q-138 -135 -314 -135z" />
    <glyph glyph-name="quotesingle" unicode="'" horiz-adv-x="448" 
d="M399 1434v-17l-182 -637h-117l15 654h284z" />
    <glyph glyph-name="parenleft" unicode="(" horiz-adv-x="722" 
d="M586 -279q-487 207 -488 869q0 662 488 868l90 -170q-318 -178 -318 -698t318 -699z" />
    <glyph glyph-name="parenright" unicode=")" horiz-adv-x="722" 
d="M624 590q0 -662 -487 -869l-90 170q317 179 317 699t-317 698l90 170q487 -206 487 -868z" />
    <glyph glyph-name="asterisk" unicode="*" horiz-adv-x="710" 
d="M272 791l35 235l-168 -141l-84 145l203 82l-203 84l84 145l168 -141l-35 236h166l-35 -236l168 141l84 -145l-202 -84l202 -82l-84 -145l-168 141l35 -235h-166z" />
    <glyph glyph-name="plus" unicode="+" horiz-adv-x="974" 
d="M362 301v295h-282v250h282v295h250v-295h283v-250h-283v-295h-250z" />
    <glyph glyph-name="comma" unicode="," horiz-adv-x="497" 
d="M98 0v301h301v-250q1 -354 -333 -383l-23 111q201 37 182 221h-127z" />
    <glyph glyph-name="hyphen" unicode="-" horiz-adv-x="743" 
d="M88 502v266h567v-266h-567z" />
    <glyph glyph-name="period" unicode="." horiz-adv-x="497" 
d="M98 0v301h301v-301h-301z" />
    <glyph glyph-name="slash" unicode="/" horiz-adv-x="798" 
d="M-33 -223l619 1818h225l-618 -1818h-226z" />
    <glyph glyph-name="zero" unicode="0" horiz-adv-x="1085" 
d="M545 231q190 0 190 467v35q-1 469 -193 469t-192 -467v-35q0 -469 195 -469zM1014 692q0 -346 -125 -530t-347 -185t-346 183t-124 530v51q0 347 125 531t346 184t346 -184t125 -529v-51z" />
    <glyph glyph-name="one" unicode="1" horiz-adv-x="647" 
d="M246 0v1153l-185 -53l-24 254l291 90h192v-1444h-274z" />
    <glyph glyph-name="two" unicode="2" horiz-adv-x="937" 
d="M78 0v227l360 484q92 123 127 193t35 138t-44 110t-106 42t-114 -36t-115 -111l-160 190q80 103 190 161t224 58q174 0 288 -104t114 -287v-4q1 -117 -47 -217t-179 -269l-245 -317h458v-258h-786z" />
    <glyph glyph-name="three" unicode="3" horiz-adv-x="917" 
d="M389 -23q-209 0 -362 144l133 213q113 -102 211 -102t153 54t56 144v4q0 100 -76 154t-221 55h-33l-19 178l283 357h-424v256h746v-232l-306 -362q138 -33 230 -134t92 -264v-8q0 -207 -127 -332t-336 -125z" />
    <glyph glyph-name="four" unicode="4" horiz-adv-x="1042" 
d="M586 516v483l-271 -483h271zM586 0v281h-525l-20 202l547 957h256v-924h149v-235h-149v-281h-258z" />
    <glyph glyph-name="five" unicode="5" horiz-adv-x="931" 
d="M870 467q0 -225 -128 -357t-335 -133q-206 0 -366 144l137 215q117 -100 215 -100t152 61q53 61 53 162v2q0 96 -59 153q-59 58 -141 58t-154 -37l-148 96l41 703h676v-256h-457l-16 -273q74 16 129 17q168 0 285 -112t116 -337v-6z" />
    <glyph glyph-name="six" unicode="6" horiz-adv-x="1013" 
d="M514 223q78 1 123 63t45 171v2q0 109 -45 171t-123 62t-123 -62t-45 -171v-2q0 -109 45 -171t123 -63zM948 471q0 -217 -125 -355t-303 -139q-178 0 -287 113q-162 168 -161 565v19q0 395 134 589t376 193q158 0 307 -104l-119 -228q-88 78 -190 78t-162 -90t-70 -262
q104 76 245 76t249 -115t106 -334v-6z" />
    <glyph glyph-name="seven" unicode="7" horiz-adv-x="919" 
d="M70 1169v265h784v-203l-442 -1231h-289l448 1169h-501z" />
    <glyph glyph-name="eight" unicode="8" horiz-adv-x="999" 
d="M500 852q66 0 108 53t43 141q0 88 -44 138q-44 49 -107 49q-64 0 -108 -49t-44 -137q0 -87 43 -141t109 -54zM500 203q76 0 125 56t49 155v4q0 94 -49 150t-125 56t-125 -56t-49 -150v-4q0 -98 49 -154t125 -57zM500 -23q-195 0 -318 112t-123 300v10q0 233 197 344
q-164 104 -164 316v10q0 170 114 279q114 108 294 108t294 -108t113 -279v-10q0 -211 -164 -316q197 -111 197 -344v-10q0 -188 -122 -300t-318 -112z" />
    <glyph glyph-name="nine" unicode="9" horiz-adv-x="1009" 
d="M498 725q78 0 123 65t45 177v2q0 113 -45 177t-123 64t-123 -64t-45 -177v-2q0 -113 45 -177t123 -65zM434 231q100 0 161 87q60 87 67 247q-102 -73 -243 -73t-249 116t-107 340v6q0 222 125 362q126 140 304 140t286 -113q162 -168 162 -565v-18q0 -395 -134 -589
t-376 -194q-172 0 -330 121l119 228q115 -95 215 -95z" />
    <glyph glyph-name="colon" unicode=":" horiz-adv-x="518" 
d="M109 0v301h301v-301h-301zM109 797v301h301v-301h-301z" />
    <glyph glyph-name="semicolon" unicode=";" horiz-adv-x="518" 
d="M109 0v301h301v-250q0 -354 -334 -383l-23 111q201 37 183 221h-127zM109 797v301h301v-301h-301z" />
    <glyph glyph-name="less" unicode="&#x3c;" horiz-adv-x="974" 
d="M864 190l-776 408v246l776 407v-288l-504 -240l504 -240v-293z" />
    <glyph glyph-name="equal" unicode="=" horiz-adv-x="974" 
d="M86 369v260h803v-260h-803zM86 813v260h803v-260h-803z" />
    <glyph glyph-name="greater" unicode="&#x3e;" horiz-adv-x="974" 
d="M111 190v289l503 240l-503 239v293l776 -407v-246z" />
    <glyph glyph-name="question" unicode="?" horiz-adv-x="825" 
d="M215 0v301h301v-301h-301zM508 1040v4q0 68 -45 110t-115 42q-102 0 -198 -102l-144 196q170 156 358 156t302 -109q113 -109 112 -284q0 -295 -299 -389l-24 -203h-181l-30 350l8 10q124 21 190 77t66 142z" />
    <glyph glyph-name="at" unicode="@" horiz-adv-x="1562" 
d="M713 326q106 0 157 188q29 104 29 186q0 137 -102 138q-106 0 -158 -189q-29 -104 -29 -186q1 -137 103 -137zM762 -299q-301 0 -495 214t-191 570q0 253 94 475t270 359t398 137q276 0 461 -205t185 -480t-100 -455t-266 -179q-190 0 -244 150q-102 -145 -239 -146
q-106 0 -177 80t-71 221q0 240 108 419t247 179t202 -135l21 113l215 -35l-93 -532q-12 -53 -12 -109q0 -106 94 -106t161 156t67 390q0 236 -159 413t-407 177q-190 0 -346 -127q-157 -127 -239 -331t-82 -435q-2 -315 167 -505t439 -191q201 0 373 102l43 -69
q-191 -115 -424 -115z" />
    <glyph glyph-name="A" unicode="A" horiz-adv-x="1112" 
d="M432 543h238l-117 471zM20 0l398 1440h276l400 -1440h-281l-78 299h-368l-76 -299h-271z" />
    <glyph glyph-name="B" unicode="B" horiz-adv-x="1054" 
d="M731 428q0 82 -56 130t-155 48h-139v-358h143q94 0 151 47q56 47 56 131v2zM692 1014v2q0 84 -51 127t-141 43h-119v-346h111q92 0 146 46t54 128zM111 0v1434h383q252 0 372 -123q96 -96 97 -244v-8q0 -217 -201 -318q115 -47 178 -124t64 -207v-15q0 -187 -136 -291
t-362 -104h-395z" />
    <glyph glyph-name="C" unicode="C" horiz-adv-x="993" 
d="M594 -16q-244 0 -383 186t-139 530v33q0 340 149 529q150 188 389 188q199 0 342 -139l-155 -219q-96 96 -198 96q-103 0 -175 -122t-72 -343v-10q0 -231 73 -349t175 -118t209 106l145 -213q-161 -155 -360 -155z" />
    <glyph glyph-name="D" unicode="D" horiz-adv-x="1132" 
d="M461 1184h-76v-934h76q151 0 235 112t84 345v20q0 231 -84 344t-235 113zM111 0v1434h354q281 0 439 -186t159 -515v-33q0 -330 -159 -515t-439 -185h-354z" />
    <glyph glyph-name="E" unicode="E" horiz-adv-x="933" 
d="M111 0v1434h745v-254h-473v-332h418v-254h-418v-340h481v-254h-753z" />
    <glyph glyph-name="F" unicode="F" horiz-adv-x="897" 
d="M111 0v1434h733v-256h-459v-340h401v-256h-401v-582h-274z" />
    <glyph glyph-name="G" unicode="G" horiz-adv-x="1116" 
d="M637 -16q-250 0 -408 186t-157 530v33q0 329 162 523t417 194q203 0 365 -135l-152 -225q-86 100 -216 100t-213 -123t-83 -334v-28q0 -236 86 -353t217 -116q74 0 117 28v311h-194v242h450v-711q-194 -122 -391 -122z" />
    <glyph glyph-name="H" unicode="H" horiz-adv-x="1120" 
d="M111 0v1434h274v-584h350v584h275v-1434h-275v592h-350v-592h-274z" />
    <glyph glyph-name="I" unicode="I" horiz-adv-x="509" 
d="M119 0v1434h272v-1434h-272z" />
    <glyph glyph-name="J" unicode="J" horiz-adv-x="806" 
d="M315 -16q-92 0 -174 39t-133 106l158 197q61 -80 135 -80q133 0 133 180v1008h273v-1022q0 -216 -108 -322t-284 -106z" />
    <glyph glyph-name="K" unicode="K" horiz-adv-x="1073" 
d="M111 0v1434h274v-611l342 611h320l-369 -607l381 -827h-316l-262 567l-96 -161v-406h-274z" />
    <glyph glyph-name="L" unicode="L" horiz-adv-x="856" 
d="M111 0v1434h274v-1178h430v-256h-704z" />
    <glyph glyph-name="M" unicode="M" horiz-adv-x="1284" 
d="M111 0v1434h280l252 -555l250 555h283v-1434h-269v893l-264 -569h-4l-264 565v-889h-264z" />
    <glyph glyph-name="N" unicode="N" horiz-adv-x="1150" 
d="M111 0v1434h254l407 -783v783h268v-1434h-237l-424 815v-815h-268z" />
    <glyph glyph-name="O" unicode="O" horiz-adv-x="1185" 
d="M594 229q108 0 174 120t66 353v27q0 233 -67 354t-175 121t-174 -120t-66 -353v-26q0 -233 66 -355t176 -121zM592 -23q-236 1 -378 191t-142 524v47q0 333 143 525t379 192t378 -190t142 -525v-47q0 -334 -143 -526t-379 -191z" />
    <glyph glyph-name="P" unicode="P" horiz-adv-x="1003" 
d="M385 692h72q111 0 170 66t59 178q0 246 -227 246h-74v-490zM111 0v1434h356q229 0 362 -126t134 -362v-4q-1 -236 -135 -362t-353 -138h-90v-442h-274z" />
    <glyph glyph-name="Q" unicode="Q" horiz-adv-x="1196" 
d="M606 227q51 0 94 25l-159 149l147 166l123 -121q23 102 23 250v39q0 233 -67 351t-175 118t-174 -117t-66 -350v-39q0 -471 254 -471zM72 692v47q0 333 143 525t379 192t378 -190t142 -525v-47q0 -256 -98 -442l139 -123l-154 -166l-120 117q-125 -102 -285 -103
q-238 1 -381 191t-143 524z" />
    <glyph glyph-name="R" unicode="R" horiz-adv-x="1060" 
d="M385 729h109q111 -1 168 61t57 166q0 225 -232 226h-102v-453zM111 0v1434h405q231 0 354 -123t123 -340v-13q0 -281 -219 -403l252 -555h-305l-215 485h-121v-485h-274z" />
    <glyph glyph-name="S" unicode="S" horiz-adv-x="917" 
d="M442 -14q-252 0 -442 190l164 213q45 -43 74 -67t87 -54q59 -28 123 -28t107 42t43 99t-39 101t-187 132t-230 186q-83 98 -83 238v4q0 180 120 293t313 113q229 0 387 -166l-168 -211q-115 123 -232 123q-61 0 -102 -35t-41 -89t45 -103t197 -143t224 -189
q73 -94 72 -232v-4q0 -182 -123 -298q-125 -115 -309 -115z" />
    <glyph glyph-name="T" unicode="T" horiz-adv-x="909" 
d="M317 0v1176h-272v258h819v-258h-272v-1176h-275z" />
    <glyph glyph-name="U" unicode="U" horiz-adv-x="1110" 
d="M554 -20q-210 0 -333 130t-123 382v942h275v-957q0 -121 48 -182t134 -61t134 60t48 181v959h273v-940q0 -254 -123 -384t-333 -130z" />
    <glyph glyph-name="V" unicode="V" horiz-adv-x="1056" 
d="M395 -6l-375 1440h289l223 -963l224 963h280l-374 -1440h-267z" />
    <glyph glyph-name="W" unicode="W" horiz-adv-x="1613" 
d="M344 -6l-317 1440h286l176 -914l197 916h246l196 -916l177 914h280l-317 -1440h-269l-194 883l-195 -883h-266z" />
    <glyph glyph-name="X" unicode="X" horiz-adv-x="1060" 
d="M717 1434h297l-324 -701l336 -733h-303l-195 479l-198 -479h-295l336 729l-324 705h303l180 -455z" />
    <glyph glyph-name="Y" unicode="Y" horiz-adv-x="1036" 
d="M381 0v565l-373 869h299l213 -551l215 551h291l-371 -867v-567h-274z" />
    <glyph glyph-name="Z" unicode="Z" horiz-adv-x="974" 
d="M78 0v213l500 971h-484v250h805v-213l-500 -971h500v-250h-821z" />
    <glyph glyph-name="bracketleft" unicode="[" horiz-adv-x="720" 
d="M143 -266v1700h498v-199h-254v-1303h254v-198h-498z" />
    <glyph glyph-name="backslash" unicode="\" horiz-adv-x="798" 
d="M606 -223l-618 1818h225l618 -1818h-225z" />
    <glyph glyph-name="bracketright" unicode="]" horiz-adv-x="720" 
d="M80 -266v198h256v1303h-256v199h498v-1700h-498z" />
    <glyph glyph-name="asciicircum" unicode="^" horiz-adv-x="1024" 
d="M203 1022l207 403h202l209 -403h-182l-129 254l-129 -254h-178z" />
    <glyph glyph-name="underscore" unicode="_" horiz-adv-x="1038" 
d="M-4 -315v206h1046v-206h-1046z" />
    <glyph glyph-name="grave" unicode="`" horiz-adv-x="1024" 
d="M508 1192l-225 217l217 107l194 -324h-186z" />
    <glyph glyph-name="a" unicode="a" horiz-adv-x="890" 
d="M547 332v133q-61 29 -119 29t-93 -40q-34 -40 -34 -116v-4q1 -140 107 -146q57 -4 98 38t41 106zM547 688q0 182 -185 182q-91 0 -188 -65l-80 219q158 86 332 86t277 -103t104 -311v-696h-262v117q-84 -135 -234 -135q-115 0 -191 88t-75 239v23q0 176 84 263t229 87
q92 0 189 -43v49z" />
    <glyph glyph-name="b" unicode="b" horiz-adv-x="995" 
d="M512 223q70 0 111 83t41 224v37q0 143 -41 225t-111 82t-113 -82t-43 -225v-37q0 -141 43 -224t113 -83zM930 516q0 -270 -92 -403t-233 -133q-142 0 -247 157v-137h-266v1462h266v-510q102 166 244 166t236 -132q92 -132 92 -404v-66z" />
    <glyph glyph-name="c" unicode="c" horiz-adv-x="790" 
d="M466 -23q-179 1 -292 147t-113 398v47q0 251 120 399t313 148q141 0 268 -102l-123 -221q-69 75 -143 75t-121 -83t-47 -230v-14q0 -315 174 -316q68 0 139 82l121 -203q-117 -127 -296 -127z" />
    <glyph glyph-name="d" unicode="d" horiz-adv-x="995" 
d="M483 223q70 0 113 82t43 225v37q0 141 -43 225t-113 82q-71 0 -111 -82t-40 -225v-37q0 -143 40 -225t111 -82zM392 -20q-142 0 -234 132t-92 404v66q0 270 91 403t234 133q84 0 139 -43t107 -114v501h266v-1462h-266v145q-103 -165 -245 -165z" />
    <glyph glyph-name="e" unicode="e" horiz-adv-x="905" 
d="M463 889q-61 -1 -99 -67t-45 -193h281q-10 260 -137 260zM492 -23q-184 1 -309 149q-126 148 -126 402v35q0 250 115 402q115 151 297 151t284 -152q101 -153 101 -415q0 -51 -2 -111h-530q14 -111 67 -168t139 -57t185 102l116 -196q-153 -142 -337 -142z" />
    <glyph glyph-name="f" unicode="f" horiz-adv-x="579" 
d="M129 0v877h-90v217h90v75q0 152 77 227t222 74q76 0 135 -16v-221q-37 10 -67 10q-102 0 -103 -106v-43h170v-217h-168v-877h-266z" />
    <glyph glyph-name="g" unicode="g" horiz-adv-x="995" 
d="M483 315q70 0 113 75t43 206t-43 206t-113 75q-71 0 -111 -75t-40 -207t40 -206t111 -74zM903 150q0 -443 -463 -443q-176 0 -342 68l70 217q109 -59 246 -60q223 0 223 218v90q-105 -166 -249 -166t-233 129t-89 389v8q0 262 90 390t229 128q86 0 143 -43t109 -114v137
h266v-948z" />
    <glyph glyph-name="h" unicode="h" horiz-adv-x="950" 
d="M92 0v1462h266v-504q98 160 232 160t206 -89q71 -89 70 -241v-788h-266v719q0 78 -32 119t-88 41t-89 -42t-33 -118v-719h-266z" />
    <glyph glyph-name="i" unicode="i" horiz-adv-x="464" 
d="M98 0v1098h267v-1098h-267zM94 1208v254h275v-254h-275z" />
    <glyph glyph-name="j" unicode="j" horiz-adv-x="466" 
d="M102 25v1073h267v-1096q0 -297 -293 -297q-47 0 -109 10v209l37 -2q98 0 98 103zM98 1208v254h275v-254h-275z" />
    <glyph glyph-name="k" unicode="k" horiz-adv-x="899" 
d="M92 0v1462h266v-776l228 412h301l-269 -441l269 -657h-299l-162 428l-68 -115v-313h-266z" />
    <glyph glyph-name="l" unicode="l" horiz-adv-x="464" 
d="M98 0v1462h267v-1462h-267z" />
    <glyph glyph-name="m" unicode="m" horiz-adv-x="1447" 
d="M92 0v1098h266v-140q100 160 246 160t223 -143q113 143 244 143t209 -86t78 -244v-788h-266v717q0 162 -115 162q-55 0 -87 -42t-32 -120v-717h-266v717q0 162 -115 162q-55 0 -87 -42t-32 -120v-717h-266z" />
    <glyph glyph-name="n" unicode="n" horiz-adv-x="950" 
d="M92 0v1098h266v-140q98 160 232 160t206 -89q71 -89 70 -241v-788h-266v719q0 78 -32 119t-88 41t-89 -42t-33 -118v-719h-266z" />
    <glyph glyph-name="o" unicode="o" horiz-adv-x="978" 
d="M326 535q0 -147 44 -235t120 -89q77 0 120 87t43 237v24q0 150 -43 237t-121 87q-79 0 -121 -86t-42 -238v-24zM489 -23q-188 1 -308 149t-120 398v43q0 250 120 400q120 149 308 149q189 0 309 -148t120 -399v-43q0 -252 -120 -400t-309 -149z" />
    <glyph glyph-name="p" unicode="p" horiz-adv-x="995" 
d="M512 223q70 0 111 83t41 224v37q0 143 -41 225t-111 82t-113 -82t-43 -225v-37q0 -141 43 -224t113 -83zM92 -289v1387h266v-146q102 166 244 166t236 -132q92 -132 92 -404v-66q0 -270 -91 -403t-233 -133t-248 157v-426h-266z" />
    <glyph glyph-name="q" unicode="q" horiz-adv-x="995" 
d="M483 223q70 0 113 82t43 225v37q0 141 -43 225t-113 82q-71 0 -111 -82t-40 -225v-37q0 -143 40 -225t111 -82zM637 -289v434q-103 -165 -245 -165t-234 132t-92 404v66q0 270 91 403t234 133q84 0 139 -43t107 -114v137h266v-1387h-266z" />
    <glyph glyph-name="r" unicode="r" horiz-adv-x="632" 
d="M92 0v1098h266v-166q74 190 238 180v-303h-8q-229 0 -230 -287v-522h-266z" />
    <glyph glyph-name="s" unicode="s" horiz-adv-x="749" 
d="M362 -20q-195 0 -354 137l123 202q131 -113 231 -112q51 -1 76 25t25 61v2q0 41 -35 71q-36 30 -150 98t-173 140q-58 74 -58 182v5q0 145 97 234t256 89t307 -110l-117 -203q-98 86 -195 86q-45 0 -71 -23t-25 -57v-4q0 -37 36 -68q35 -31 149 -99t172 -144t59 -179v-4
q1 -153 -99 -241t-254 -88z" />
    <glyph glyph-name="t" unicode="t" horiz-adv-x="622" 
d="M387 -16q-258 0 -258 247v646h-88v221h88v280h266v-280h174v-221h-174v-574q0 -82 80 -82q47 0 92 23v-213q-84 -47 -180 -47z" />
    <glyph glyph-name="u" unicode="u" horiz-adv-x="950" 
d="M359 -20q-133 0 -203 89t-70 240v789h266v-719q0 -160 117 -160q57 0 90 42t33 118v719h266v-1098h-266v139q-99 -159 -233 -159z" />
    <glyph glyph-name="v" unicode="v" horiz-adv-x="911" 
d="M328 -6l-299 1104h270l160 -721l159 721h267l-299 -1104h-258z" />
    <glyph glyph-name="w" unicode="w" horiz-adv-x="1316" 
d="M270 -6l-237 1104h268l117 -633l131 635h221l133 -635l117 633h266l-242 -1104h-251l-136 624l-135 -624h-252z" />
    <glyph glyph-name="x" unicode="x" horiz-adv-x="892" 
d="M313 1098l136 -326l135 326h272l-256 -537l266 -561h-282l-140 346l-141 -346h-276l264 561l-256 537h278z" />
    <glyph glyph-name="y" unicode="y" horiz-adv-x="911" 
d="M300 -297q-107 0 -198 53l54 207q53 -31 100 -31q63 0 78 70l-305 1096h272l158 -703l155 703h267l-295 -1098q-45 -162 -112 -230t-174 -67z" />
    <glyph glyph-name="z" unicode="z" horiz-adv-x="790" 
d="M51 0v188l387 689h-372v221h675v-189l-387 -688h387v-221h-690z" />
    <glyph glyph-name="braceleft" unicode="{" horiz-adv-x="772" 
d="M260 57q0 41 19 125q18 84 18 125q0 174 -182 174h-47v213h47q182 0 182 174q0 41 -18 125t-19 125q0 309 414 346l35 -184q-209 -18 -209 -180q0 -49 20 -131t21 -129q0 -96 -65 -164t-171 -88q106 -20 171 -88t65 -164q-1 -47 -21 -129t-20 -131q0 -162 209 -180
l-35 -185q-414 37 -414 346z" />
    <glyph glyph-name="bar" unicode="|" horiz-adv-x="585" 
d="M188 -223v1818h211v-1818h-211z" />
    <glyph glyph-name="braceright" unicode="}" horiz-adv-x="772" 
d="M272 76q0 49 -20 131t-21 129q0 96 65 164t171 88q-106 20 -171 88t-65 164q0 47 21 129q20 82 20 131q0 162 -209 180l35 184q414 -37 414 -346q0 -41 -18 -125t-19 -125q0 -174 182 -174h48v-213h-48q-182 0 -182 -174q1 -41 19 -125t18 -125q0 -309 -414 -346l-35 185
q209 18 209 180z" />
    <glyph glyph-name="asciitilde" unicode="~" horiz-adv-x="862" 
d="M576 506q-72 0 -150 43t-112 43t-51 -23t-36 -77l-143 43q20 121 76 183t129 62q74 0 155 -49q74 -37 105 -37q70 0 98 101l131 -43q-20 -122 -74 -184t-128 -62z" />
    <glyph glyph-name="uni00A0" unicode="&#xa0;" horiz-adv-x="376" 
 />
    <glyph glyph-name="exclamdown" unicode="&#xa1;" horiz-adv-x="532" 
d="M106 0v41l89 932h141l90 -932v-41h-320zM115 1133v301h301v-301h-301z" />
    <glyph glyph-name="cent" unicode="&#xa2;" horiz-adv-x="827" 
d="M334 723v-6q0 -156 47 -236t125 -80t153 74l123 -203q-115 -109 -258 -118l-12 -166h-180l14 192q-129 48 -204 186t-74 334v43q0 225 97 369t259 174l12 158h182l-14 -164q90 -23 174 -90l-123 -221q-67 75 -145 75t-127 -82t-49 -239z" />
    <glyph glyph-name="sterling" unicode="&#xa3;" horiz-adv-x="940" 
d="M598 1186q-125 0 -125 -180v-203h293v-240h-293v-319h412v-244h-811v180l121 51v332h-117v240h117v209q0 228 110 334t266 106q211 0 330 -152l-168 -190q-61 76 -135 76z" />
    <glyph glyph-name="yen" unicode="&#xa5;" horiz-adv-x="1038" 
d="M135 520v201h191l-303 713h292l207 -564l209 564h285l-305 -713h192v-201h-252v-125h252v-200h-252v-195h-264v195h-252v200h252v125h-252z" />
    <glyph glyph-name="section" unicode="&#xa7;" horiz-adv-x="1007" 
d="M597 580q42 0 72 28t29 64v2q0 42 -36 72t-123 69q-86 39 -128 39t-72 -28t-30 -64v-2q0 -43 37 -73q37 -31 123 -69t128 -38zM842 285v-4q0 -137 -98 -219t-274 -82q-175 0 -314 108l112 188q104 -76 207 -75q51 -1 81 21t30 59t-40 67t-182 84q-142 56 -222 122
q-79 66 -79 171v4q-1 80 47 142t130 96q-74 74 -74 182v4q0 137 98 219t273 82t315 -108l-113 -189q-104 76 -207 76q-50 0 -80 -22q-30 -23 -30 -59t40 -66t183 -85t221 -119t78 -173v-4q0 -81 -47 -143t-129 -95q74 -74 74 -182z" />
    <glyph glyph-name="dieresis" unicode="&#xa8;" horiz-adv-x="1024" 
d="M219 1196v240h246v-240h-246zM559 1196v240h246v-240h-246z" />
    <glyph glyph-name="copyright" unicode="&#xa9;" horiz-adv-x="1302" 
d="M664 313q-127 -1 -206 103t-79 293v24q0 189 83 293t203 104t201 -71l-82 -127q-51 51 -109 51t-98 -63t-40 -189v-16q0 -129 41 -191t99 -63q58 0 111 59l78 -121q-75 -86 -202 -86zM650 55q222 0 362 179q139 179 139 460v47q0 281 -138 459q-139 178 -361 178
t-361 -179t-139 -460v-47q0 -281 138 -459t360 -178zM651 -23q-251 0 -415 201t-164 516v45q0 315 164 516t416 201t415 -201q164 -201 164 -516v-45q0 -315 -164 -516t-416 -201z" />
    <glyph glyph-name="ordfeminine" unicode="&#xaa;" horiz-adv-x="618" 
d="M289 936q35 0 57 20t23 56v75q-49 16 -68 17q-72 0 -72 -82v-10q1 -76 60 -76zM78 600v111h450v-111h-450zM367 1208q0 101 -107 101q-53 0 -100 -39l-49 121q86 51 184 51q99 0 157 -54t58 -176v-381h-145v66q-49 -76 -121 -76t-114 49t-42 131v13q0 193 174 192
q49 0 105 -24v26z" />
    <glyph glyph-name="guillemotleft" unicode="&#xab;" horiz-adv-x="1075" 
d="M381 88l-320 453v16l320 453l186 -101l-217 -358l221 -358zM823 88l-319 453v16l319 453l187 -101l-217 -358l221 -358z" />
    <glyph glyph-name="registered" unicode="&#xae;" horiz-adv-x="681" 
d="M305 1108h31q57 0 57 57t-57 58h-31v-115zM340 1296q139 0 139 -125v-4q0 -78 -61 -110l69 -148h-92l-61 127h-29v-127h-84v387h119zM340 774q110 0 180 88t70 225v21q0 137 -70 224t-180 87t-180 -88q-68 -88 -68 -223v-23q0 -135 68 -223t180 -88zM341 731
q-128 0 -212 99t-84 255v23q0 156 84 255t212 99t212 -99t84 -255v-21q0 -156 -84 -256t-212 -100z" />
    <glyph glyph-name="macron" unicode="&#xaf;" horiz-adv-x="1024" 
d="M229 1200v178h566v-178h-566z" />
    <glyph glyph-name="degree" unicode="&#xb0;" horiz-adv-x="716" 
d="M358 901q51 0 83 50t32 143v4q0 92 -32 142t-83 50t-83 -50t-31 -142v-4q0 -92 31 -143q32 -50 83 -50zM635 1087q0 -154 -78 -248t-198 -94q-119 1 -197 95t-78 247v17q0 154 78 248t198 94t197 -94q78 -94 78 -248v-17z" />
    <glyph glyph-name="plusminus" unicode="&#xb1;" horiz-adv-x="974" 
d="M889 0h-803v233h803v-233zM891 668h-281v-291h-245l2 291h-283v247l283 -2l-2 293h245v-293l281 2v-247z" />
    <glyph glyph-name="two.sup" unicode="&#xb2;" 
d="M78 911v140l198 233q78 94 86 118t9 49q0 25 -23 47q-24 22 -66 22t-130 -78l-84 114q113 117 228 117q114 0 178 -57q64 -56 64 -158t-106 -223l-151 -172h258v-152h-461z" />
    <glyph glyph-name="three.sup" unicode="&#xb3;" 
d="M282 897q-122 0 -223 82l74 127q75 -59 133 -59q110 0 111 92q0 86 -150 90h-37l-12 108l158 172h-240v150h436v-123l-174 -186q184 -33 185 -207q1 -113 -69 -179t-192 -67z" />
    <glyph glyph-name="acute" unicode="&#xb4;" horiz-adv-x="1024" 
d="M313 1192l195 324l217 -107l-225 -217h-187z" />
    <glyph glyph-name="paragraph" unicode="&#xb6;" horiz-adv-x="911" 
d="M520 0v463h-18q-197 12 -327 134t-130 349v4q0 240 139 362t367 122h244v-1434h-275z" />
    <glyph glyph-name="periodcentered" unicode="&#xb7;" horiz-adv-x="524" 
d="M111 483v301h301v-301h-301z" />
    <glyph glyph-name="cedilla" unicode="&#xb8;" horiz-adv-x="1024" 
d="M510 -293l-225 88l166 246h178z" />
    <glyph glyph-name="one.sup" unicode="&#xb9;" horiz-adv-x="499" 
d="M369 911h-170v580l-123 -53l-19 151l189 78h123v-756z" />
    <glyph glyph-name="ordmasculine" unicode="&#xba;" horiz-adv-x="618" 
d="M309 946q41 0 65 48t23 128v19q0 80 -23 127q-24 47 -65 47t-65 -46t-23 -128v-19q-1 -80 23 -128t65 -48zM84 600v111h451v-111h-451zM309 819q-102 0 -168 81t-65 218v25q0 137 65 219q66 82 168 82t168 -81t66 -218v-25q0 -137 -66 -219t-168 -82z" />
    <glyph glyph-name="guillemotright" unicode="&#xbb;" horiz-adv-x="1075" 
d="M252 88l-186 100l217 359l-222 358l191 105l319 -453v-16zM692 88l-184 100l217 359l-221 358l188 105l322 -453v-16z" />
    <glyph glyph-name="onequarter" unicode="&#xbc;" horiz-adv-x="1269" 
d="M991 279v294h-8l-162 -294h170zM1135 143v-145h-150v145h-293l-6 148l252 463h197v-475h73v-136h-73zM182 0l385 750l334 684h143l-385 -750l-333 -684h-144zM373 686h-170v580l-123 -54l-19 152l189 78h123v-756z" />
    <glyph glyph-name="onehalf" unicode="&#xbd;" horiz-adv-x="1269" 
d="M373 686h-170v580l-123 -54l-19 152l189 78h123v-756zM156 0l385 750l333 684h144l-385 -750l-334 -684h-143zM727 0v139l199 234q78 93 86 117t8 50t-23 47t-65 21t-131 -78l-84 115q115 117 229 117t178 -57t64 -159t-107 -222l-151 -172h258v-152h-461z" />
    <glyph glyph-name="threequarters" unicode="&#xbe;" horiz-adv-x="1382" 
d="M284 672q-122 0 -223 82l74 127q75 -59 133 -59q110 -1 111 91q0 86 -150 91h-36l-13 108l158 172h-240v150h437v-123l-175 -187q184 -33 185 -206q1 -114 -69 -180t-192 -66zM293 0l385 750l334 684h143l-385 -750l-334 -684h-143zM1114 279v294h-8l-162 -294h170z
M1257 143v-145h-149v145h-293l-6 148l252 463h196v-475h74v-136h-74z" />
    <glyph glyph-name="questiondown" unicode="&#xbf;" horiz-adv-x="825" 
d="M309 1133v301h301v-301h-301zM461 -12q-188 0 -301 108t-113 285q0 295 299 389l25 203h180l31 -350l-9 -11q-125 -20 -191 -76t-65 -143v-4q0 -67 45 -109t115 -42q102 0 199 102l143 -197q-170 -155 -358 -155z" />
    <glyph glyph-name="Agrave" unicode="&#xc0;" horiz-adv-x="1112" 
d="M670 1526h-201l-231 176l229 108zM432 543h238l-117 471zM20 0l398 1440h276l400 -1440h-281l-78 299h-368l-76 -299h-271z" />
    <glyph glyph-name="Aacute" unicode="&#xc1;" horiz-adv-x="1112" 
d="M442 1526l203 284l229 -108l-231 -176h-201zM432 543h238l-117 471zM20 0l398 1440h276l400 -1440h-281l-78 299h-368l-76 -299h-271z" />
    <glyph glyph-name="Acircumflex" unicode="&#xc2;" horiz-adv-x="1112" 
d="M246 1522l192 266h234l192 -266h-198l-113 104l-113 -104h-194zM432 543h238l-117 471zM20 0l398 1440h276l400 -1440h-281l-78 299h-368l-76 -299h-271z" />
    <glyph glyph-name="Atilde" unicode="&#xc3;" horiz-adv-x="1112" 
d="M410 1798q68 0 153 -37q86 -37 112 -37t41 18t34 68l149 -38q-51 -246 -177 -246q-62 0 -167 41q-69 33 -99 33t-45 -19q-15 -18 -34 -68l-150 41q27 128 71 186t112 58zM432 543h238l-117 471zM20 0l398 1440h276l400 -1440h-281l-78 299h-368l-76 -299h-271z" />
    <glyph glyph-name="Adieresis" unicode="&#xc4;" horiz-adv-x="1112" 
d="M250 1530v235h250v-235h-250zM610 1530v235h250v-235h-250zM432 543h238l-117 471zM20 0l398 1440h276l400 -1440h-281l-78 299h-368l-76 -299h-271z" />
    <glyph glyph-name="Aring" unicode="&#xc5;" horiz-adv-x="1112" 
d="M557 1411q43 0 71 26q28 27 28 67t-28 67t-71 27t-71 -28q-28 -26 -28 -67t28 -67t71 -25zM432 543h238l-117 471zM350 1509q0 78 60 132q60 55 147 55q86 0 146 -54q61 -54 61 -135q0 -80 -51 -131l381 -1376h-281l-78 299h-368l-76 -299h-271l379 1378q-49 53 -49 131z
" />
    <glyph glyph-name="AE" unicode="&#xc6;" horiz-adv-x="1509" 
d="M705 543v626h-25l-209 -626h234zM1432 1434v-254h-453v-332h397v-254h-397v-340h461v-254h-735v299h-322l-104 -299h-273l524 1434h902z" />
    <glyph glyph-name="Ccedilla" unicode="&#xc7;" horiz-adv-x="993" 
d="M72 700v33q0 340 149 529q150 188 389 188q199 0 342 -139l-155 -219q-96 96 -198 96q-103 0 -175 -122t-72 -343v-10q0 -231 73 -349t175 -118t209 106l145 -213q-141 -135 -313 -153l-98 -279l-226 88l138 205q-182 49 -283 229q-100 180 -100 471z" />
    <glyph glyph-name="Egrave" unicode="&#xc8;" horiz-adv-x="933" 
d="M111 0v1434h745v-254h-473v-332h418v-254h-418v-340h481v-254h-753zM600 1520h-201l-231 176l229 108z" />
    <glyph glyph-name="Eacute" unicode="&#xc9;" horiz-adv-x="933" 
d="M111 0v1434h745v-254h-473v-332h418v-254h-418v-340h481v-254h-753zM373 1520l202 284l230 -108l-232 -176h-200z" />
    <glyph glyph-name="Ecircumflex" unicode="&#xca;" horiz-adv-x="933" 
d="M178 1520l193 266h233l193 -266h-199l-113 104l-112 -104h-195zM111 0v1434h745v-254h-473v-332h418v-254h-418v-340h481v-254h-753z" />
    <glyph glyph-name="Edieresis" unicode="&#xcb;" horiz-adv-x="933" 
d="M111 0v1434h745v-254h-473v-332h418v-254h-418v-340h481v-254h-753zM182 1524v235h250v-235h-250zM543 1524v235h250v-235h-250z" />
    <glyph glyph-name="Igrave" unicode="&#xcc;" horiz-adv-x="509" 
d="M369 1520h-201l-231 176l229 108zM119 0v1434h272v-1434h-272z" />
    <glyph glyph-name="Iacute" unicode="&#xcd;" horiz-adv-x="509" 
d="M143 1520l203 284l229 -108l-231 -176h-201zM119 0v1434h272v-1434h-272z" />
    <glyph glyph-name="Icircumflex" unicode="&#xce;" horiz-adv-x="509" 
d="M-53 1520l192 266h234l192 -266h-198l-113 104l-113 -104h-194zM119 0v1434h272v-1434h-272z" />
    <glyph glyph-name="Idieresis" unicode="&#xcf;" horiz-adv-x="509" 
d="M-49 1524v235h250v-235h-250zM311 1524v235h250v-235h-250zM119 0v1434h272v-1434h-272z" />
    <glyph glyph-name="Eth" unicode="&#xd0;" horiz-adv-x="1165" 
d="M600 598h-182v-348h76q150 0 234 112t85 345v20q0 231 -85 344t-234 113h-76v-340h182v-246zM143 0v598h-104v246h104v590h355q276 0 437 -186t161 -515v-33q0 -328 -161 -514t-437 -186h-355z" />
    <glyph glyph-name="Ntilde" unicode="&#xd1;" horiz-adv-x="1150" 
d="M111 0v1434h254l407 -783v783h268v-1434h-237l-424 815v-815h-268zM428 1792q68 0 154 -37t112 -37t40 18q15 18 34 68l150 -39q-52 -245 -178 -245q-62 0 -167 41q-69 33 -99 33t-45 -19q-15 -18 -34 -68l-149 41q27 127 70 186q44 58 112 58z" />
    <glyph glyph-name="Ograve" unicode="&#xd2;" horiz-adv-x="1185" 
d="M594 229q108 0 174 120t66 353v27q0 233 -67 354t-175 121t-174 -120t-66 -353v-26q0 -233 66 -355t176 -121zM592 -23q-236 1 -378 191t-142 524v47q0 333 143 525t379 192t378 -190t142 -525v-47q0 -334 -143 -526t-379 -191zM705 1526h-201l-232 176l230 108z" />
    <glyph glyph-name="Oacute" unicode="&#xd3;" horiz-adv-x="1185" 
d="M594 229q108 0 174 120t66 353v27q0 233 -67 354t-175 121t-174 -120t-66 -353v-26q0 -233 66 -355t176 -121zM592 -23q-236 1 -378 191t-142 524v47q0 333 143 525t379 192t378 -190t142 -525v-47q0 -334 -143 -526t-379 -191zM479 1526l203 284l229 -108l-231 -176
h-201z" />
    <glyph glyph-name="Ocircumflex" unicode="&#xd4;" horiz-adv-x="1185" 
d="M283 1526l192 266h234l192 -266h-199l-112 104l-113 -104h-194zM594 229q108 0 174 120t66 353v27q0 233 -67 354t-175 121t-174 -120t-66 -353v-26q0 -233 66 -355t176 -121zM592 -23q-236 1 -378 191t-142 524v47q0 333 143 525t379 192t378 -190t142 -525v-47
q0 -334 -143 -526t-379 -191z" />
    <glyph glyph-name="Otilde" unicode="&#xd5;" horiz-adv-x="1185" 
d="M594 229q108 0 174 120t66 353v27q0 233 -67 354t-175 121t-174 -120t-66 -353v-26q0 -233 66 -355t176 -121zM592 -23q-236 1 -378 191t-142 524v47q0 333 143 525t379 192t378 -190t142 -525v-47q0 -334 -143 -526t-379 -191zM758 1526q-62 0 -166 41q-70 33 -100 33
t-44 -19q-16 -18 -34 -68l-150 41q27 128 71 186q43 58 111 58t154 -37t112 -37t41 18t33 68l150 -38q-52 -246 -178 -246z" />
    <glyph glyph-name="Odieresis" unicode="&#xd6;" horiz-adv-x="1185" 
d="M594 229q108 0 174 120t66 353v27q0 233 -67 354t-175 121t-174 -120t-66 -353v-26q0 -233 66 -355t176 -121zM592 -23q-236 1 -378 191t-142 524v47q0 333 143 525t379 192t378 -190t142 -525v-47q0 -334 -143 -526t-379 -191zM287 1530v235h250v-235h-250zM647 1530
v235h250v-235h-250z" />
    <glyph glyph-name="multiply" unicode="&#xd7;" horiz-adv-x="974" 
d="M717 297l-230 252l-231 -252l-182 160l252 264l-252 262l184 162l229 -252l232 252l182 -160l-252 -264l252 -262z" />
    <glyph glyph-name="Oslash" unicode="&#xd8;" horiz-adv-x="1185" 
d="M348 700q0 -115 17 -208l372 645q-59 72 -145 71q-112 0 -178 -118t-66 -355v-35zM594 225q112 0 178 119t66 354v35q0 119 -19 209l-373 -645q60 -72 148 -72zM1114 741v-47q0 -332 -144 -524t-378 -193q-152 0 -273 86l-45 -73h-200l121 209q-123 190 -123 493v47
q0 333 144 525t378 192q154 0 272 -88l45 76h201l-121 -209q123 -190 123 -494z" />
    <glyph glyph-name="Ugrave" unicode="&#xd9;" horiz-adv-x="1110" 
d="M554 -20q-210 0 -333 130t-123 382v942h275v-957q0 -121 48 -182t134 -61t134 60t48 181v959h273v-940q0 -254 -123 -384t-333 -130zM670 1520h-201l-231 176l229 108z" />
    <glyph glyph-name="Uacute" unicode="&#xda;" horiz-adv-x="1110" 
d="M554 -20q-210 0 -333 130t-123 382v942h275v-957q0 -121 48 -182t134 -61t134 60t48 181v959h273v-940q0 -254 -123 -384t-333 -130zM442 1520l203 284l229 -108l-231 -176h-201z" />
    <glyph glyph-name="Ucircumflex" unicode="&#xdb;" horiz-adv-x="1110" 
d="M244 1520l192 266h234l192 -266h-198l-113 104l-113 -104h-194zM554 -20q-210 0 -333 130t-123 382v942h275v-957q0 -121 48 -182t134 -61t134 60t48 181v959h273v-940q0 -254 -123 -384t-333 -130z" />
    <glyph glyph-name="Udieresis" unicode="&#xdc;" horiz-adv-x="1110" 
d="M554 -20q-210 0 -333 130t-123 382v942h275v-957q0 -121 48 -182t134 -61t134 60t48 181v959h273v-940q0 -254 -123 -384t-333 -130zM248 1524v235h250v-235h-250zM608 1524v235h250v-235h-250z" />
    <glyph glyph-name="Yacute" unicode="&#xdd;" horiz-adv-x="1036" 
d="M403 1520l203 284l230 -108l-232 -176h-201zM381 0v565l-373 869h299l213 -551l215 551h291l-371 -867v-567h-274z" />
    <glyph glyph-name="Thorn" unicode="&#xde;" horiz-adv-x="1007" 
d="M385 492h72q111 0 170 66t59 177q0 246 -227 246h-74v-489zM111 0v1434h274v-201h82q229 0 362 -126t134 -362v-4q1 -239 -135 -369t-353 -130h-90v-242h-274z" />
    <glyph glyph-name="germandbls" unicode="&#xdf;" horiz-adv-x="978" 
d="M479 -4v217q180 17 180 203t-180 225v186q133 88 133 246v2q0 76 -32 121q-33 45 -88 45q-133 0 -134 -209v-1032h-266v1024q0 205 108 326q108 120 290 120t281 -103t99 -257v-12q0 -211 -168 -330q219 -104 220 -346v-12q0 -194 -116 -304t-327 -110z" />
    <glyph glyph-name="agrave" unicode="&#xe0;" horiz-adv-x="890" 
d="M362 1192l-225 217l217 107l195 -324h-187zM547 332v133q-61 29 -119 29t-93 -40q-34 -40 -34 -116v-4q1 -140 107 -146q57 -4 98 38t41 106zM547 688q0 182 -185 182q-91 0 -188 -65l-80 219q158 86 332 86t277 -103t104 -311v-696h-262v117q-84 -135 -234 -135
q-115 0 -191 88t-75 239v23q0 176 84 263t229 87q92 0 189 -43v49z" />
    <glyph glyph-name="aacute" unicode="&#xe1;" horiz-adv-x="890" 
d="M336 1192l194 324l218 -107l-226 -217h-186zM547 332v133q-61 29 -119 29t-93 -40q-34 -40 -34 -116v-4q1 -140 107 -146q57 -4 98 38t41 106zM547 688q0 182 -185 182q-91 0 -188 -65l-80 219q158 86 332 86t277 -103t104 -311v-696h-262v117q-84 -135 -234 -135
q-115 0 -191 88t-75 239v23q0 176 84 263t229 87q92 0 189 -43v49z" />
    <glyph glyph-name="acircumflex" unicode="&#xe2;" horiz-adv-x="890" 
d="M141 1192l193 297h221l193 -297h-187l-119 129l-118 -129h-183zM547 332v133q-61 29 -119 29t-93 -40q-34 -40 -34 -116v-4q1 -140 107 -146q57 -4 98 38t41 106zM547 688q0 182 -185 182q-91 0 -188 -65l-80 219q158 86 332 86t277 -103t104 -311v-696h-262v117
q-84 -135 -234 -135q-115 0 -191 88t-75 239v23q0 176 84 263t229 87q92 0 189 -43v49z" />
    <glyph glyph-name="atilde" unicode="&#xe3;" horiz-adv-x="890" 
d="M594 1190q-44 0 -136 38t-118 38t-40 -18q-15 -18 -32 -70l-145 39q27 129 67 185q41 56 117 56q45 0 137 -38t116 -38q26 0 41 18t32 70l145 -38q-27 -129 -67 -186q-41 -56 -117 -56zM547 332v133q-61 29 -119 29t-93 -40q-34 -40 -34 -116v-4q1 -140 107 -146
q57 -4 98 38t41 106zM547 688q0 182 -185 182q-91 0 -188 -65l-80 219q158 86 332 86t277 -103t104 -311v-696h-262v117q-84 -135 -234 -135q-115 0 -191 88t-75 239v23q0 176 84 263t229 87q92 0 189 -43v49z" />
    <glyph glyph-name="adieresis" unicode="&#xe4;" horiz-adv-x="890" 
d="M152 1196v240h245v-240h-245zM492 1196v240h245v-240h-245zM547 332v133q-61 29 -119 29t-93 -40q-34 -40 -34 -116v-4q1 -140 107 -146q57 -4 98 38t41 106zM547 688q0 182 -185 182q-91 0 -188 -65l-80 219q158 86 332 86t277 -103t104 -311v-696h-262v117
q-84 -135 -234 -135q-115 0 -191 88t-75 239v23q0 176 84 263t229 87q92 0 189 -43v49z" />
    <glyph glyph-name="aring" unicode="&#xe5;" horiz-adv-x="890" 
d="M444 1280q41 0 70 31t29 75t-29 76q-29 31 -70 31q-42 0 -70 -31t-28 -76q0 -46 28 -76t70 -30zM444 1182q-84 0 -143 58t-59 145t59 145t144 59q85 0 143 -58q58 -57 59 -145t-59 -146t-144 -58zM547 332v133q-61 29 -119 29t-93 -40q-34 -40 -34 -116v-4
q1 -140 107 -146q57 -4 98 38t41 106zM547 688q0 182 -185 182q-91 0 -188 -65l-80 219q158 86 332 86t277 -103t104 -311v-696h-262v117q-84 -135 -234 -135q-115 0 -191 88t-75 239v23q0 176 84 263t229 87q92 0 189 -43v49z" />
    <glyph glyph-name="ae" unicode="&#xe6;" horiz-adv-x="1388" 
d="M420 188q98 0 168 129q-20 82 -25 144q-66 33 -129 33t-98 -40t-35 -114v-6q0 -70 33 -108t86 -38zM946 889q-61 -1 -99 -67t-44 -193h280q-10 260 -137 260zM344 -18q-135 0 -217 92t-82 252v6q0 176 84 263t229 87q92 0 189 -43v49q0 88 -46 135t-136 47t-189 -71
l-82 225q158 86 316 86q193 0 284 -127q100 133 256 133q184 0 286 -152q101 -153 101 -415q0 -51 -2 -111h-530q29 -225 203 -225q106 0 188 102l117 -196q-147 -141 -328 -142q-219 0 -332 193q-116 -188 -309 -188z" />
    <glyph glyph-name="ccedilla" unicode="&#xe7;" horiz-adv-x="790" 
d="M61 522v47q0 251 120 399t313 148q141 0 268 -102l-123 -221q-69 75 -143 75t-121 -83t-47 -230v-14q0 -315 174 -316q68 0 139 82l121 -203q-96 -104 -236 -122l-96 -275l-225 88l137 205q-131 47 -206 183t-75 339z" />
    <glyph glyph-name="egrave" unicode="&#xe8;" horiz-adv-x="905" 
d="M379 1192l-225 217l217 107l194 -324h-186zM463 889q-61 -1 -99 -67t-45 -193h281q-10 260 -137 260zM492 -23q-184 1 -309 149q-126 148 -126 402v35q0 250 115 402q115 151 297 151t284 -152q101 -153 101 -415q0 -51 -2 -111h-530q14 -111 67 -168t139 -57t185 102
l116 -196q-153 -142 -337 -142z" />
    <glyph glyph-name="eacute" unicode="&#xe9;" horiz-adv-x="905" 
d="M463 889q-61 -1 -99 -67t-45 -193h281q-10 260 -137 260zM492 -23q-184 1 -309 149q-126 148 -126 402v35q0 250 115 402q115 151 297 151t284 -152q101 -153 101 -415q0 -51 -2 -111h-530q14 -111 67 -168t139 -57t185 102l116 -196q-153 -142 -337 -142zM352 1192
l195 324l217 -107l-225 -217h-187z" />
    <glyph glyph-name="ecircumflex" unicode="&#xea;" horiz-adv-x="905" 
d="M463 889q-61 -1 -99 -67t-45 -193h281q-10 260 -137 260zM492 -23q-184 1 -309 149q-126 148 -126 402v35q0 250 115 402q115 151 297 151t284 -152q101 -153 101 -415q0 -51 -2 -111h-530q14 -111 67 -168t139 -57t185 102l116 -196q-153 -142 -337 -142zM158 1188
l192 297h221l193 -297h-186l-119 129l-119 -129h-182z" />
    <glyph glyph-name="edieresis" unicode="&#xeb;" horiz-adv-x="905" 
d="M463 889q-61 -1 -99 -67t-45 -193h281q-10 260 -137 260zM492 -23q-184 1 -309 149q-126 148 -126 402v35q0 250 115 402q115 151 297 151t284 -152q101 -153 101 -415q0 -51 -2 -111h-530q14 -111 67 -168t139 -57t185 102l116 -196q-153 -142 -337 -142zM168 1196v240
h246v-240h-246zM508 1196v240h246v-240h-246z" />
    <glyph glyph-name="igrave" unicode="&#xec;" horiz-adv-x="464" 
d="M152 1192l-226 217l217 107l195 -324h-186zM98 0v1098h267v-1098h-267z" />
    <glyph glyph-name="iacute" unicode="&#xed;" horiz-adv-x="464" 
d="M98 0v1098h267v-1098h-267zM127 1192l195 324l217 -107l-226 -217h-186z" />
    <glyph glyph-name="icircumflex" unicode="&#xee;" horiz-adv-x="464" 
d="M98 0v1098h267v-1098h-267zM-70 1192l193 297h221l193 -297h-187l-119 129l-118 -129h-183z" />
    <glyph glyph-name="idieresis" unicode="&#xef;" horiz-adv-x="464" 
d="M98 0v1098h267v-1098h-267zM-59 1196v240h245v-240h-245zM281 1196v240h245v-240h-245z" />
    <glyph glyph-name="eth" unicode="&#xf0;" horiz-adv-x="978" 
d="M326 537q0 -150 42 -238t120 -88q79 0 121 87t42 237v22q0 150 -44 238t-121 88q-76 0 -118 -87t-42 -237v-22zM915 573q1 -283 -117 -439t-310 -157q-192 0 -309 151q-118 151 -118 400v52q1 231 101 373t239 143q92 0 172 -66q-45 90 -104 170l-178 -55l-58 153l125 39
l-120 125h315l45 -49l170 53l55 -153l-116 -37q209 -313 208 -664v-39z" />
    <glyph glyph-name="ntilde" unicode="&#xf1;" horiz-adv-x="950" 
d="M631 1190q-45 0 -137 38t-116 38q-26 0 -41 -18t-32 -70l-145 39q27 129 67 185q41 56 117 56q44 0 136 -38t118 -38t40 18q15 18 32 70l145 -38q-27 -129 -67 -186q-41 -56 -117 -56zM92 0v1098h266v-140q98 160 232 160t206 -89q71 -89 70 -241v-788h-266v719
q0 78 -32 119t-88 41t-89 -42t-33 -118v-719h-266z" />
    <glyph glyph-name="ograve" unicode="&#xf2;" horiz-adv-x="978" 
d="M410 1192l-226 217l217 107l195 -324h-186zM326 535q0 -147 44 -235t120 -89q77 0 120 87t43 237v24q0 150 -43 237t-121 87q-79 0 -121 -86t-42 -238v-24zM489 -23q-188 1 -308 149t-120 398v43q0 250 120 400q120 149 308 149q189 0 309 -148t120 -399v-43
q0 -252 -120 -400t-309 -149z" />
    <glyph glyph-name="oacute" unicode="&#xf3;" horiz-adv-x="978" 
d="M326 535q0 -147 44 -235t120 -89q77 0 120 87t43 237v24q0 150 -43 237t-121 87q-79 0 -121 -86t-42 -238v-24zM489 -23q-188 1 -308 149t-120 398v43q0 250 120 400q120 149 308 149q189 0 309 -148t120 -399v-43q0 -252 -120 -400t-309 -149zM383 1192l195 324
l217 -107l-226 -217h-186z" />
    <glyph glyph-name="ocircumflex" unicode="&#xf4;" horiz-adv-x="978" 
d="M326 535q0 -147 44 -235t120 -89q77 0 120 87t43 237v24q0 150 -43 237t-121 87q-79 0 -121 -86t-42 -238v-24zM489 -23q-188 1 -308 149t-120 398v43q0 250 120 400q120 149 308 149q189 0 309 -148t120 -399v-43q0 -252 -120 -400t-309 -149zM188 1188l193 297h221
l193 -297h-187l-119 129l-118 -129h-183z" />
    <glyph glyph-name="otilde" unicode="&#xf5;" horiz-adv-x="978" 
d="M641 1190q-45 0 -136 38t-117 38t-41 -18t-32 -70l-145 39q27 129 68 185t116 56q44 0 136 -38t118 -38t40 18q15 18 32 70l145 -38q-27 -129 -67 -186q-41 -56 -117 -56zM326 535q0 -147 44 -235t120 -89q77 0 120 87t43 237v24q0 150 -43 237t-121 87q-79 0 -121 -86
t-42 -238v-24zM489 -23q-188 1 -308 149t-120 398v43q0 250 120 400q120 149 308 149q189 0 309 -148t120 -399v-43q0 -252 -120 -400t-309 -149z" />
    <glyph glyph-name="odieresis" unicode="&#xf6;" horiz-adv-x="978" 
d="M326 535q0 -147 44 -235t120 -89q77 0 120 87t43 237v24q0 150 -43 237t-121 87q-79 0 -121 -86t-42 -238v-24zM489 -23q-188 1 -308 149t-120 398v43q0 250 120 400q120 149 308 149q189 0 309 -148t120 -399v-43q0 -252 -120 -400t-309 -149zM199 1196v240h245v-240
h-245zM539 1196v240h245v-240h-245z" />
    <glyph glyph-name="divide" unicode="&#xf7;" horiz-adv-x="974" 
d="M354 217v258h267v-258h-267zM893 602h-811v238h811v-238zM354 967v258h267v-258h-267z" />
    <glyph glyph-name="oslash" unicode="&#xf8;" horiz-adv-x="978" 
d="M489 207q84 0 131 89q46 89 46 239v24q0 41 -9 107l-268 -412q41 -47 100 -47zM313 535q0 -66 9 -109l268 412q-45 49 -101 49q-84 0 -130 -88t-46 -240v-24zM918 526q0 -252 -120 -400t-309 -149q-127 0 -225 70l-41 -63h-188l117 182q-90 141 -91 358v43q0 250 120 400
t308 149q125 0 226 -69l41 63h188l-119 -182q92 -147 93 -359v-43z" />
    <glyph glyph-name="ugrave" unicode="&#xf9;" horiz-adv-x="950" 
d="M391 1192l-225 217l217 107l195 -324h-187zM359 -20q-133 0 -203 89t-70 240v789h266v-719q0 -160 117 -160q57 0 90 42t33 118v719h266v-1098h-266v139q-99 -159 -233 -159z" />
    <glyph glyph-name="uacute" unicode="&#xfa;" horiz-adv-x="950" 
d="M359 -20q-133 0 -203 89t-70 240v789h266v-719q0 -160 117 -160q57 0 90 42t33 118v719h266v-1098h-266v139q-99 -159 -233 -159zM365 1192l194 324l217 -107l-225 -217h-186z" />
    <glyph glyph-name="ucircumflex" unicode="&#xfb;" horiz-adv-x="950" 
d="M359 -20q-133 0 -203 89t-70 240v789h266v-719q0 -160 117 -160q57 0 90 42t33 118v719h266v-1098h-266v139q-99 -159 -233 -159zM170 1192l192 297h222l192 -297h-186l-119 129l-119 -129h-182z" />
    <glyph glyph-name="udieresis" unicode="&#xfc;" horiz-adv-x="950" 
d="M359 -20q-133 0 -203 89t-70 240v789h266v-719q0 -160 117 -160q57 0 90 42t33 118v719h266v-1098h-266v139q-99 -159 -233 -159zM180 1196v240h246v-240h-246zM520 1196v240h246v-240h-246z" />
    <glyph glyph-name="yacute" unicode="&#xfd;" horiz-adv-x="911" 
d="M348 1192l195 324l217 -107l-225 -217h-187zM300 -297q-107 0 -198 53l54 207q53 -31 100 -31q63 0 78 70l-305 1096h272l158 -703l155 703h267l-295 -1098q-45 -162 -112 -230t-174 -67z" />
    <glyph glyph-name="thorn" unicode="&#xfe;" horiz-adv-x="995" 
d="M512 223q70 0 111 83t41 224v37q0 143 -41 225t-111 82t-113 -82t-43 -225v-37q0 -141 43 -224t113 -83zM92 -289v1751h266v-510q102 166 244 166t236 -132q92 -132 92 -404v-66q0 -270 -91 -403t-233 -133t-248 157v-426h-266z" />
    <glyph glyph-name="ydieresis" unicode="&#xff;" horiz-adv-x="911" 
d="M164 1196v240h246v-240h-246zM504 1196v240h246v-240h-246zM300 -297q-107 0 -198 53l54 207q53 -31 100 -31q63 0 78 70l-305 1096h272l158 -703l155 703h267l-295 -1098q-45 -162 -112 -230t-174 -67z" />
    <glyph glyph-name="Amacron" unicode="&#x100;" horiz-adv-x="1112" 
d="M254 1534v184h602v-184h-602zM432 543h238l-117 471zM20 0l398 1440h276l400 -1440h-281l-78 299h-368l-76 -299h-271z" />
    <glyph glyph-name="amacron" unicode="&#x101;" horiz-adv-x="890" 
d="M162 1200v178h565v-178h-565zM547 332v133q-61 29 -119 29t-93 -40q-34 -40 -34 -116v-4q1 -140 107 -146q57 -4 98 38t41 106zM547 688q0 182 -185 182q-91 0 -188 -65l-80 219q158 86 332 86t277 -103t104 -311v-696h-262v117q-84 -135 -234 -135q-115 0 -191 88
t-75 239v23q0 176 84 263t229 87q92 0 189 -43v49z" />
    <glyph glyph-name="Abreve" unicode="&#x102;" horiz-adv-x="1112" 
d="M555 1518q-127 0 -207 66t-86 190h170q20 -88 122 -88t124 88h170q-8 -124 -87 -190t-206 -66zM432 543h238l-117 471zM20 0l398 1440h276l400 -1440h-281l-78 299h-368l-76 -299h-271z" />
    <glyph glyph-name="abreve" unicode="&#x103;" horiz-adv-x="890" 
d="M444 1182q-122 0 -202 70t-90 202h167q21 -104 125 -104t125 104h168q-10 -132 -90 -202t-203 -70zM547 332v133q-61 29 -119 29t-93 -40q-34 -40 -34 -116v-4q1 -140 107 -146q57 -4 98 38t41 106zM547 688q0 182 -185 182q-91 0 -188 -65l-80 219q158 86 332 86
t277 -103t104 -311v-696h-262v117q-84 -135 -234 -135q-115 0 -191 88t-75 239v23q0 176 84 263t229 87q92 0 189 -43v49z" />
    <glyph glyph-name="Aogonek" unicode="&#x104;" horiz-adv-x="1112" 
d="M432 543h238l-117 471zM791 -160q0 78 71 160h-49l-78 299h-368l-76 -299h-271l398 1440h276l400 -1440h-50q-47 -61 -47 -109q1 -71 105 -65v-139q-41 -8 -86 -9q-109 0 -167 42t-58 120z" />
    <glyph glyph-name="aogonek" unicode="&#x105;" horiz-adv-x="890" 
d="M547 332v133q-61 29 -119 29t-93 -40q-34 -40 -34 -116v-4q1 -140 107 -146q57 -4 98 38t41 106zM547 688q0 182 -185 182q-91 0 -188 -65l-80 219q158 86 332 86t277 -103t104 -311v-696h-51q-47 -61 -47 -109q0 -71 104 -65v-139q-41 -8 -86 -9q-109 0 -167 42t-58 120
t71 160h-28v117q-84 -135 -234 -135q-115 0 -191 88t-75 239v23q0 176 84 263t229 87q92 0 189 -43v49z" />
    <glyph glyph-name="Cacute" unicode="&#x106;" horiz-adv-x="993" 
d="M455 1526l202 284l230 -108l-232 -176h-200zM594 -16q-244 0 -383 186t-139 530v33q0 340 149 529q150 188 389 188q199 0 342 -139l-155 -219q-96 96 -198 96q-103 0 -175 -122t-72 -343v-10q0 -231 73 -349t175 -118t209 106l145 -213q-161 -155 -360 -155z" />
    <glyph glyph-name="cacute" unicode="&#x107;" horiz-adv-x="790" 
d="M466 -23q-179 1 -292 147t-113 398v47q0 251 120 399t313 148q141 0 268 -102l-123 -221q-69 75 -143 75t-121 -83t-47 -230v-14q0 -315 174 -316q68 0 139 82l121 -203q-117 -127 -296 -127zM352 1192l195 324l217 -107l-225 -217h-187z" />
    <glyph glyph-name="Cdotaccent" unicode="&#x10a;" horiz-adv-x="993" 
d="M594 -16q-244 0 -383 186t-139 530v33q0 340 149 529q150 188 389 188q199 0 342 -139l-155 -219q-96 96 -198 96q-103 0 -175 -122t-72 -343v-10q0 -231 73 -349t175 -118t209 106l145 -213q-161 -155 -360 -155zM440 1530v235h254v-235h-254z" />
    <glyph glyph-name="cdotaccent" unicode="&#x10b;" horiz-adv-x="790" 
d="M336 1196v240h250v-240h-250zM466 -23q-179 1 -292 147t-113 398v47q0 251 120 399t313 148q141 0 268 -102l-123 -221q-69 75 -143 75t-121 -83t-47 -230v-14q0 -315 174 -316q68 0 139 82l121 -203q-117 -127 -296 -127z" />
    <glyph glyph-name="Ccaron" unicode="&#x10c;" horiz-adv-x="993" 
d="M877 1792l-193 -266h-233l-193 266h199l112 -104l113 104h195zM594 -16q-244 0 -383 186t-139 530v33q0 340 149 529q150 188 389 188q199 0 342 -139l-155 -219q-96 96 -198 96q-103 0 -175 -122t-72 -343v-10q0 -231 73 -349t175 -118t209 106l145 -213
q-161 -155 -360 -155z" />
    <glyph glyph-name="ccaron" unicode="&#x10d;" horiz-adv-x="790" 
d="M466 -23q-179 1 -292 147t-113 398v47q0 251 120 399t313 148q141 0 268 -102l-123 -221q-69 75 -143 75t-121 -83t-47 -230v-14q0 -315 174 -316q68 0 139 82l121 -203q-117 -127 -296 -127zM764 1489l-193 -297h-221l-192 297h186l119 -129l119 129h182z" />
    <glyph glyph-name="Dcaron" unicode="&#x10e;" horiz-adv-x="1132" 
d="M856 1786l-192 -266h-234l-192 266h198l113 -105l113 105h194zM461 1184h-76v-934h76q151 0 235 112t84 345v20q0 231 -84 344t-235 113zM111 0v1434h354q281 0 439 -186t159 -515v-33q0 -330 -159 -515t-439 -185h-354z" />
    <glyph glyph-name="dcaron" unicode="&#x10f;" horiz-adv-x="995" 
d="M483 223q70 0 113 82t43 225v37q0 141 -43 225t-113 82q-71 0 -111 -82t-40 -225v-37q0 -143 40 -225t111 -82zM392 -20q-142 0 -234 132t-92 404v66q0 270 91 403t234 133q84 0 139 -43t107 -114v501h266v-1462h-266v145q-103 -165 -245 -165zM1174 1516v-5l-95 -344
h-110l20 349h185z" />
    <glyph glyph-name="Dcroat" unicode="&#x110;" horiz-adv-x="1165" 
d="M600 598h-182v-348h76q150 0 234 112t85 345v20q0 231 -85 344t-234 113h-76v-340h182v-246zM143 0v598h-104v246h104v590h355q276 0 437 -186t161 -515v-33q0 -328 -161 -514t-437 -186h-355z" />
    <glyph glyph-name="dcroat" unicode="&#x111;" horiz-adv-x="995" 
d="M483 223q70 0 113 82t43 225v37q0 141 -43 225t-113 82q-71 0 -111 -82t-40 -225v-37q0 -143 40 -225t111 -82zM420 1198v178h217v86h266v-86h92v-182h-92v-1194h-266v145q-103 -165 -245 -165t-234 132t-92 404v66q0 270 91 403t234 133q84 0 139 -43t107 -114v237h-217
z" />
    <glyph glyph-name="Emacron" unicode="&#x112;" horiz-adv-x="933" 
d="M111 0v1434h745v-254h-473v-332h418v-254h-418v-340h481v-254h-753zM186 1528v184h602v-184h-602z" />
    <glyph glyph-name="emacron" unicode="&#x113;" horiz-adv-x="905" 
d="M178 1200v178h565v-178h-565zM463 889q-61 -1 -99 -67t-45 -193h281q-10 260 -137 260zM492 -23q-184 1 -309 149q-126 148 -126 402v35q0 250 115 402q115 151 297 151t284 -152q101 -153 101 -415q0 -51 -2 -111h-530q14 -111 67 -168t139 -57t185 102l116 -196
q-153 -142 -337 -142z" />
    <glyph glyph-name="Ebreve" unicode="&#x114;" horiz-adv-x="933" 
d="M111 0v1434h745v-254h-473v-332h418v-254h-418v-340h481v-254h-753zM487 1511q-127 0 -207 67t-85 189h170q20 -88 122 -88t123 88h170q-8 -125 -87 -191t-206 -65z" />
    <glyph glyph-name="ebreve" unicode="&#x115;" horiz-adv-x="905" 
d="M461 1182q-123 0 -203 70t-90 202h168q20 -104 124 -104t126 104h168q-10 -132 -90 -202t-203 -70zM463 889q-61 -1 -99 -67t-45 -193h281q-10 260 -137 260zM492 -23q-184 1 -309 149q-126 148 -126 402v35q0 250 115 402q115 151 297 151t284 -152q101 -153 101 -415
q0 -51 -2 -111h-530q14 -111 67 -168t139 -57t185 102l116 -196q-153 -142 -337 -142z" />
    <glyph glyph-name="Edotaccent" unicode="&#x116;" horiz-adv-x="933" 
d="M111 0v1434h745v-254h-473v-332h418v-254h-418v-340h481v-254h-753zM360 1524v235h254v-235h-254z" />
    <glyph glyph-name="edotaccent" unicode="&#x117;" horiz-adv-x="905" 
d="M336 1196v240h250v-240h-250zM463 889q-61 -1 -99 -67t-45 -193h281q-10 260 -137 260zM492 -23q-184 1 -309 149q-126 148 -126 402v35q0 250 115 402q115 151 297 151t284 -152q101 -153 101 -415q0 -51 -2 -111h-530q14 -111 67 -168t139 -57t185 102l116 -196
q-153 -142 -337 -142z" />
    <glyph glyph-name="Eogonek" unicode="&#x118;" horiz-adv-x="933" 
d="M111 0v1434h745v-254h-473v-332h418v-254h-418v-340h481v-254h-59q-47 -61 -47 -109q0 -72 104 -65v-139q-41 -8 -86 -9q-109 0 -167 42t-58 120t72 160h-512z" />
    <glyph glyph-name="eogonek" unicode="&#x119;" horiz-adv-x="905" 
d="M463 889q-61 -1 -99 -67t-45 -193h281q-10 260 -137 260zM528 213q86 0 185 102l116 -196l-57 -56q-98 -98 -98 -167q0 -76 104 -70v-139q-43 -8 -86 -9q-109 0 -167 41t-58 111t61 147h-26q-193 1 -319 149t-126 402v35q0 250 115 402q115 151 297 151t284 -152
q101 -153 101 -415l-2 -111h-530q14 -111 67 -168t139 -57z" />
    <glyph glyph-name="Ecaron" unicode="&#x11a;" horiz-adv-x="933" 
d="M111 0v1434h745v-254h-473v-332h418v-254h-418v-340h481v-254h-753zM797 1786l-193 -266h-233l-193 266h199l112 -105l113 105h195z" />
    <glyph glyph-name="ecaron" unicode="&#x11b;" horiz-adv-x="905" 
d="M463 889q-61 -1 -99 -67t-45 -193h281q-10 260 -137 260zM492 -23q-184 1 -309 149q-126 148 -126 402v35q0 250 115 402q115 151 297 151t284 -152q101 -153 101 -415q0 -51 -2 -111h-530q14 -111 67 -168t139 -57t185 102l116 -196q-153 -142 -337 -142zM764 1489
l-193 -297h-221l-192 297h186l119 -129l119 129h182z" />
    <glyph glyph-name="Gbreve" unicode="&#x11e;" horiz-adv-x="1116" 
d="M637 -16q-250 0 -408 186t-157 530v33q0 329 162 523t417 194q203 0 365 -135l-152 -225q-86 100 -216 100t-213 -123t-83 -334v-28q0 -236 86 -353t217 -116q74 0 117 28v311h-194v242h450v-711q-194 -122 -391 -122zM612 1518q-126 0 -206 66t-87 190h170
q21 -88 123 -88t123 88h170q-8 -124 -87 -190t-206 -66z" />
    <glyph glyph-name="gbreve" unicode="&#x11f;" horiz-adv-x="995" 
d="M512 1182q-123 0 -203 70t-90 202h168q21 -104 125 -104t125 104h168q-10 -132 -90 -202t-203 -70zM483 315q70 0 113 75t43 206t-43 206t-113 75q-71 0 -111 -75t-40 -207t40 -206t111 -74zM903 150q0 -443 -463 -443q-176 0 -342 68l70 217q109 -59 246 -60
q223 0 223 218v90q-105 -166 -249 -166t-233 129t-89 389v8q0 262 90 390t229 128q86 0 143 -43t109 -114v137h266v-948z" />
    <glyph glyph-name="Gdotaccent" unicode="&#x120;" horiz-adv-x="1116" 
d="M637 -16q-250 0 -408 186t-157 530v33q0 329 162 523t417 194q203 0 365 -135l-152 -225q-86 100 -216 100t-213 -123t-83 -334v-28q0 -236 86 -353t217 -116q74 0 117 28v311h-194v242h450v-711q-194 -122 -391 -122zM485 1530v235h254v-235h-254z" />
    <glyph glyph-name="gdotaccent" unicode="&#x121;" horiz-adv-x="995" 
d="M387 1196v240h250v-240h-250zM483 315q70 0 113 75t43 206t-43 206t-113 75q-71 0 -111 -75t-40 -207t40 -206t111 -74zM903 150q0 -443 -463 -443q-176 0 -342 68l70 217q109 -59 246 -60q223 0 223 218v90q-105 -166 -249 -166t-233 129t-89 389v8q0 262 90 390
t229 128q86 0 143 -43t109 -114v137h266v-948z" />
    <glyph glyph-name="Gcommaaccent" unicode="&#x122;" horiz-adv-x="1116" 
d="M637 -16q-250 0 -408 186t-157 530v33q0 329 162 523t417 194q203 0 365 -135l-152 -225q-86 100 -216 100t-213 -123t-83 -334v-28q0 -236 86 -353t217 -116q74 0 117 28v311h-194v242h450v-711q-194 -122 -391 -122zM492 -303v203h241v-179q1 -119 -61 -173t-185 -58
l-12 86q72 8 102 36t25 85h-110z" />
    <glyph glyph-name="gcommaaccent" unicode="&#x123;" horiz-adv-x="995" 
d="M631 1399v-203h-242v178q-1 120 61 174t185 58l12 -86q-71 -8 -101 -36t-26 -85h111zM483 315q70 0 113 75t43 206t-43 206t-113 75q-71 0 -111 -75t-40 -207t40 -206t111 -74zM903 150q0 -443 -463 -443q-176 0 -342 68l70 217q109 -59 246 -60q223 0 223 218v90
q-105 -166 -249 -166t-233 129t-89 389v8q0 262 90 390t229 128q86 0 143 -43t109 -114v137h266v-948z" />
    <glyph glyph-name="Hbar" unicode="&#x126;" horiz-adv-x="1140" 
d="M395 850h353v209h-353v-209zM20 1055v215h101v164h274v-168h353v168h272v-164h100v-215h-100v-1055h-272v592h-353v-592h-274v1055h-101z" />
    <glyph glyph-name="hbar" unicode="&#x127;" horiz-adv-x="950" 
d="M575 1198h-217v-240q98 160 232 160t206 -89q71 -89 70 -241v-788h-266v719q0 78 -32 119t-88 41t-89 -42t-33 -118v-719h-266v1194h-92v182h92v86h266v-86h217v-178z" />
    <glyph glyph-name="Imacron" unicode="&#x12a;" horiz-adv-x="509" 
d="M-45 1528v184h602v-184h-602zM119 0v1434h272v-1434h-272z" />
    <glyph glyph-name="imacron" unicode="&#x12b;" horiz-adv-x="464" 
d="M-49 1200v178h565v-178h-565zM98 0v1098h267v-1098h-267z" />
    <glyph glyph-name="Ibreve" unicode="&#x12c;" horiz-adv-x="509" 
d="M256 1511q-127 0 -207 67t-86 189h170q21 -88 123 -88t123 88h170q-8 -125 -87 -191t-206 -65zM119 0v1434h272v-1434h-272z" />
    <glyph glyph-name="ibreve" unicode="&#x12d;" horiz-adv-x="464" 
d="M233 1182q-123 0 -203 70t-89 202h168q20 -104 124 -104t125 104h168q-10 -132 -90 -202t-203 -70zM98 0v1098h267v-1098h-267z" />
    <glyph glyph-name="Iogonek" unicode="&#x12e;" horiz-adv-x="509" 
d="M119 0v1434h272v-1434h-41q-47 -61 -47 -109q0 -72 105 -65v-139q-41 -8 -86 -9q-109 0 -167 42q-59 42 -59 120t72 160h-49z" />
    <glyph glyph-name="iogonek" unicode="&#x12f;" horiz-adv-x="464" 
d="M94 1208v254h275v-254h-275zM98 0v1098h267v-1098h-37q-47 -61 -47 -109q0 -72 104 -65v-139q-41 -8 -86 -9q-109 0 -167 42t-58 120t71 160h-47z" />
    <glyph glyph-name="Idotaccent" unicode="&#x130;" horiz-adv-x="509" 
d="M129 1524v235h254v-235h-254zM119 0v1434h272v-1434h-272z" />
    <glyph glyph-name="dotlessi" unicode="&#x131;" horiz-adv-x="464" 
d="M98 0v1098h267v-1098h-267z" />
    <glyph glyph-name="Kcommaaccent" unicode="&#x136;" horiz-adv-x="1073" 
d="M111 0v1434h274v-611l342 611h320l-369 -607l381 -827h-316l-262 567l-96 -161v-406h-274zM420 -299v203h242v-178q0 -120 -62 -174t-184 -58l-13 86q72 8 102 36t25 85h-110z" />
    <glyph glyph-name="kcommaaccent" unicode="&#x137;" horiz-adv-x="899" 
d="M92 0v1462h266v-776l228 412h301l-269 -441l269 -657h-299l-162 428l-68 -115v-313h-266zM344 -301v203h242v-178q0 -120 -62 -174t-184 -58l-12 86q72 8 102 36t25 85h-111z" />
    <glyph glyph-name="Lacute" unicode="&#x139;" horiz-adv-x="856" 
d="M111 0v1434h274v-1178h430v-256h-704zM172 1518l203 284l229 -108l-231 -176h-201z" />
    <glyph glyph-name="lacute" unicode="&#x13a;" horiz-adv-x="464" 
d="M98 0v1462h267v-1462h-267zM137 1530l203 285l229 -109l-231 -176h-201z" />
    <glyph glyph-name="Lcommaaccent" unicode="&#x13b;" horiz-adv-x="856" 
d="M111 0v1434h274v-1178h430v-256h-704zM342 -301v203h242v-178q0 -120 -62 -174t-184 -58l-12 86q72 8 102 36t25 85h-111z" />
    <glyph glyph-name="lcommaaccent" unicode="&#x13c;" horiz-adv-x="464" 
d="M98 0v1462h267v-1462h-267zM113 -301v203h241v-178q0 -120 -61 -174t-184 -58l-13 86q72 8 102 36t25 85h-110z" />
    <glyph glyph-name="Lcaron" unicode="&#x13d;" horiz-adv-x="856" 
d="M111 0v1434h274v-1178h430v-256h-704zM670 1434v-4l-95 -345h-110l20 349h185z" />
    <glyph glyph-name="lcaron" unicode="&#x13e;" horiz-adv-x="464" 
d="M98 0v1462h267v-1462h-267zM637 1516v-5l-94 -344h-111l21 349h184z" />
    <glyph glyph-name="Ldot" unicode="&#x13f;" horiz-adv-x="856" 
d="M111 0v1434h274v-1178h430v-256h-704zM567 635v242h236v-242h-236z" />
    <glyph glyph-name="ldot" unicode="&#x140;" horiz-adv-x="645" 
d="M98 0v1462h267v-1462h-267zM453 631v233h204v-233h-204z" />
    <glyph glyph-name="Lslash" unicode="&#x141;" horiz-adv-x="913" 
d="M416 256h432v-256h-705v520l-104 -53v260l104 51v656h273v-516l202 106v-262l-202 -103v-403z" />
    <glyph glyph-name="lslash" unicode="&#x142;" horiz-adv-x="555" 
d="M410 0h-265v547l-116 -66v256l116 64v661h265v-514l116 66v-254l-116 -66v-694z" />
    <glyph glyph-name="Nacute" unicode="&#x143;" horiz-adv-x="1150" 
d="M111 0v1434h254l407 -783v783h268v-1434h-237l-424 815v-815h-268zM463 1520l203 284l229 -108l-231 -176h-201z" />
    <glyph glyph-name="nacute" unicode="&#x144;" horiz-adv-x="950" 
d="M92 0v1098h266v-140q98 160 232 160t206 -89q71 -89 70 -241v-788h-266v719q0 78 -32 119t-88 41t-89 -42t-33 -118v-719h-266zM371 1192l194 324l217 -107l-225 -217h-186z" />
    <glyph glyph-name="Ncommaaccent" unicode="&#x145;" horiz-adv-x="1150" 
d="M111 0v1434h254l407 -783v783h268v-1434h-237l-424 815v-815h-268zM455 -299v203h241v-178q0 -120 -61 -174t-184 -58l-13 86q72 8 102 36t25 85h-110z" />
    <glyph glyph-name="ncommaaccent" unicode="&#x146;" horiz-adv-x="950" 
d="M92 0v1098h266v-140q98 160 232 160t206 -89q71 -89 70 -241v-788h-266v719q0 78 -32 119t-88 41t-89 -42t-33 -118v-719h-266zM358 -301v203h242v-178q0 -119 -61 -174q-62 -54 -185 -58l-12 86q72 8 102 36t25 85h-111z" />
    <glyph glyph-name="Ncaron" unicode="&#x147;" horiz-adv-x="1150" 
d="M111 0v1434h254l407 -783v783h268v-1434h-237l-424 815v-815h-268zM883 1786l-193 -266h-233l-193 266h199l112 -105l113 105h195z" />
    <glyph glyph-name="ncaron" unicode="&#x148;" horiz-adv-x="950" 
d="M92 0v1098h266v-140q98 160 232 160t206 -89q71 -89 70 -241v-788h-266v719q0 78 -32 119t-88 41t-89 -42t-33 -118v-719h-266zM782 1489l-192 -297h-221l-193 297h186l119 -129l119 129h182z" />
    <glyph glyph-name="Omacron" unicode="&#x14c;" horiz-adv-x="1185" 
d="M594 229q108 0 174 120t66 353v27q0 233 -67 354t-175 121t-174 -120t-66 -353v-26q0 -233 66 -355t176 -121zM592 -23q-236 1 -378 191t-142 524v47q0 333 143 525t379 192t378 -190t142 -525v-47q0 -334 -143 -526t-379 -191zM291 1534v184h602v-184h-602z" />
    <glyph glyph-name="omacron" unicode="&#x14d;" horiz-adv-x="978" 
d="M326 535q0 -147 44 -235t120 -89q77 0 120 87t43 237v24q0 150 -43 237t-121 87q-79 0 -121 -86t-42 -238v-24zM489 -23q-188 1 -308 149t-120 398v43q0 250 120 400q120 149 308 149q189 0 309 -148t120 -399v-43q0 -252 -120 -400t-309 -149zM209 1200v178h565v-178
h-565z" />
    <glyph glyph-name="Obreve" unicode="&#x14e;" horiz-adv-x="1185" 
d="M594 229q108 0 174 120t66 353v27q0 233 -67 354t-175 121t-174 -120t-66 -353v-26q0 -233 66 -355t176 -121zM592 -23q-236 1 -378 191t-142 524v47q0 333 143 525t379 192t378 -190t142 -525v-47q0 -334 -143 -526t-379 -191zM592 1518q-127 0 -207 66t-86 190h170
q21 -88 123 -88t123 88h170q-8 -124 -87 -190t-206 -66z" />
    <glyph glyph-name="obreve" unicode="&#x14f;" horiz-adv-x="978" 
d="M492 1182q-123 0 -203 70t-90 202h168q21 -104 125 -104t124 104h168q-10 -132 -90 -202t-202 -70zM326 535q0 -147 44 -235t120 -89q77 0 120 87t43 237v24q0 150 -43 237t-121 87q-79 0 -121 -86t-42 -238v-24zM489 -23q-188 1 -308 149t-120 398v43q0 250 120 400
q120 149 308 149q189 0 309 -148t120 -399v-43q0 -252 -120 -400t-309 -149z" />
    <glyph glyph-name="Ohungarumlaut" unicode="&#x150;" horiz-adv-x="1185" 
d="M627 1526l202 284l213 -108l-225 -176h-190zM332 1526l203 284l210 -108l-225 -176h-188zM594 229q108 0 174 120t66 353v27q0 233 -67 354t-175 121t-174 -120t-66 -353v-26q0 -233 66 -355t176 -121zM592 -23q-236 1 -378 191t-142 524v47q0 333 143 525t379 192
t378 -190t142 -525v-47q0 -334 -143 -526t-379 -191z" />
    <glyph glyph-name="ohungarumlaut" unicode="&#x151;" horiz-adv-x="978" 
d="M326 535q0 -147 44 -235t120 -89q77 0 120 87t43 237v24q0 150 -43 237t-121 87q-79 0 -121 -86t-42 -238v-24zM489 -23q-188 1 -308 149t-120 398v43q0 250 120 400q120 149 308 149q189 0 309 -148t120 -399v-43q0 -252 -120 -400t-309 -149zM242 1192l192 324
l205 -107l-221 -217h-176zM522 1192l193 324l205 -107l-222 -217h-176z" />
    <glyph glyph-name="OE" unicode="&#x152;" horiz-adv-x="1531" 
d="M672 250h55v934h-53q-152 0 -237 -113t-85 -344v-20q0 -231 85 -344t235 -113zM670 0q-279 0 -439 186t-159 514v33q0 328 160 514q161 186 438 187h784v-254h-453v-332h398v-254h-398v-340h461v-254h-792z" />
    <glyph glyph-name="oe" unicode="&#x153;" horiz-adv-x="1509" 
d="M326 535q0 -147 44 -235t119 -89q76 0 117 87t41 237v24q0 150 -42 237t-119 87q-76 0 -118 -86t-42 -238v-24zM1065 889q-61 -1 -99 -67t-44 -193h280q-10 260 -137 260zM490 -23q-188 1 -309 149q-120 148 -120 398v43q0 250 121 400q121 149 306 149t294 -160
q104 160 288 160t285 -152q101 -153 101 -415q0 -51 -2 -111h-528q29 -225 202 -225q106 0 189 102l117 -196q-147 -141 -340 -141t-312 165q-104 -166 -292 -166z" />
    <glyph glyph-name="Racute" unicode="&#x154;" horiz-adv-x="1060" 
d="M403 1520l203 284l230 -108l-232 -176h-201zM385 729h109q111 -1 168 61t57 166q0 225 -232 226h-102v-453zM111 0v1434h405q231 0 354 -123t123 -340v-13q0 -281 -219 -403l252 -555h-305l-215 485h-121v-485h-274z" />
    <glyph glyph-name="racute" unicode="&#x155;" horiz-adv-x="632" 
d="M92 0v1098h266v-166q74 190 238 180v-303h-8q-229 0 -230 -287v-522h-266zM231 1192l195 324l217 -107l-225 -217h-187z" />
    <glyph glyph-name="Rcommaaccent" unicode="&#x156;" horiz-adv-x="1060" 
d="M395 -299v203h242v-178q1 -120 -61 -174t-185 -58l-12 86q71 8 101 36t26 85h-111zM385 729h109q111 -1 168 61t57 166q0 225 -232 226h-102v-453zM111 0v1434h405q231 0 354 -123t123 -340v-13q0 -281 -219 -403l252 -555h-305l-215 485h-121v-485h-274z" />
    <glyph glyph-name="rcommaaccent" unicode="&#x157;" horiz-adv-x="632" 
d="M92 0v1098h266v-166q74 190 238 180v-303h-8q-229 0 -230 -287v-522h-266zM119 -301v203h241v-178q0 -120 -61 -174t-184 -58l-13 86q72 8 102 36t25 85h-110z" />
    <glyph glyph-name="Rcaron" unicode="&#x158;" horiz-adv-x="1060" 
d="M825 1786l-192 -266h-234l-192 266h199l112 -105l113 105h194zM385 729h109q111 -1 168 61t57 166q0 225 -232 226h-102v-453zM111 0v1434h405q231 0 354 -123t123 -340v-13q0 -281 -219 -403l252 -555h-305l-215 485h-121v-485h-274z" />
    <glyph glyph-name="rcaron" unicode="&#x159;" horiz-adv-x="632" 
d="M92 0v1098h266v-166q74 190 238 180v-303h-8q-229 0 -230 -287v-522h-266zM639 1489l-193 -297h-221l-192 297h186l119 -129l119 129h182z" />
    <glyph glyph-name="Sacute" unicode="&#x15a;" horiz-adv-x="917" 
d="M354 1526l203 284l229 -108l-231 -176h-201zM442 -14q-252 0 -442 190l164 213q45 -43 74 -67t87 -54q59 -28 123 -28t107 42t43 99t-39 101t-187 132t-230 186q-83 98 -83 238v4q0 180 120 293t313 113q229 0 387 -166l-168 -211q-115 123 -232 123q-61 0 -102 -35
t-41 -89t45 -103t197 -143t224 -189q73 -94 72 -232v-4q0 -182 -123 -298q-125 -115 -309 -115z" />
    <glyph glyph-name="sacute" unicode="&#x15b;" horiz-adv-x="749" 
d="M362 -20q-195 0 -354 137l123 202q131 -113 231 -112q51 -1 76 25t25 61v2q0 41 -35 71q-36 30 -150 98t-173 140q-58 74 -58 182v5q0 145 97 234t256 89t307 -110l-117 -203q-98 86 -195 86q-45 0 -71 -23t-25 -57v-4q0 -37 36 -68q35 -31 149 -99t172 -144t59 -179v-4
q1 -153 -99 -241t-254 -88zM276 1192l195 324l217 -107l-225 -217h-187z" />
    <glyph glyph-name="Scedilla" unicode="&#x15e;" horiz-adv-x="917" 
d="M598 381q0 57 -39 101t-187 132t-230 186q-83 98 -83 238v4q0 180 120 293t313 113q229 0 387 -166l-168 -211q-115 123 -232 123q-61 0 -102 -35t-41 -89t45 -103t197 -143t224 -189q73 -94 72 -232v-4q0 -149 -88 -257t-227 -142l-104 -293l-226 88l131 197
q-201 25 -360 184l164 213q45 -43 74 -67t87 -54q59 -28 123 -28t107 42t43 99z" />
    <glyph glyph-name="scedilla" unicode="&#x15f;" horiz-adv-x="749" 
d="M463 293v2q0 41 -35 71q-36 30 -150 98t-173 140q-58 74 -58 182v5q0 145 97 234t256 89t307 -110l-117 -203q-98 86 -195 86q-45 0 -71 -23t-25 -57v-4q0 -37 36 -68q35 -31 149 -99t172 -144t59 -179v-4q0 -125 -69 -209t-183 -108l-101 -285l-225 88l131 195
q-143 25 -260 127l123 202q131 -113 231 -112q51 -1 76 25t25 61z" />
    <glyph glyph-name="Scaron" unicode="&#x160;" horiz-adv-x="917" 
d="M778 1792l-192 -266h-234l-192 266h198l113 -104l113 104h194zM442 -14q-252 0 -442 190l164 213q45 -43 74 -67t87 -54q59 -28 123 -28t107 42t43 99t-39 101t-187 132t-230 186q-83 98 -83 238v4q0 180 120 293t313 113q229 0 387 -166l-168 -211q-115 123 -232 123
q-61 0 -102 -35t-41 -89t45 -103t197 -143t224 -189q73 -94 72 -232v-4q0 -182 -123 -298q-125 -115 -309 -115z" />
    <glyph glyph-name="scaron" unicode="&#x161;" horiz-adv-x="749" 
d="M362 -20q-195 0 -354 137l123 202q131 -113 231 -112q51 -1 76 25t25 61v2q0 41 -35 71q-36 30 -150 98t-173 140q-58 74 -58 182v5q0 145 97 234t256 89t307 -110l-117 -203q-98 86 -195 86q-45 0 -71 -23t-25 -57v-4q0 -37 36 -68q35 -31 149 -99t172 -144t59 -179v-4
q1 -153 -99 -241t-254 -88zM686 1489l-192 -297h-222l-192 297h186l119 -129l119 129h182z" />
    <glyph glyph-name="Tcommaaccent" unicode="&#x162;" horiz-adv-x="909" 
d="M317 0v1176h-272v258h819v-258h-272v-1176h-275zM336 -301v203h242v-178q0 -120 -62 -174t-184 -58l-13 86q72 8 102 36t25 85h-110z" />
    <glyph glyph-name="tcommaaccent" unicode="&#x163;" horiz-adv-x="622" 
d="M387 -16q-258 0 -258 247v646h-88v221h88v280h266v-280h174v-221h-174v-574q0 -82 80 -82q47 0 92 23v-213q-84 -47 -180 -47zM217 -301v203h242v-178q1 -120 -61 -174t-185 -58l-12 86q71 8 101 36t26 85h-111z" />
    <glyph glyph-name="Tcaron" unicode="&#x164;" horiz-adv-x="909" 
d="M317 0v1176h-272v258h819v-258h-272v-1176h-275zM764 1786l-193 -266h-233l-193 266h199l113 -105l112 105h195z" />
    <glyph glyph-name="tcaron" unicode="&#x165;" horiz-adv-x="622" 
d="M387 -16q-258 0 -258 247v646h-88v221h88v280h266v-280h174v-221h-174v-574q0 -82 80 -82q47 0 92 23v-213q-84 -47 -180 -47zM676 1516v-5l-94 -344h-111l21 349h184z" />
    <glyph glyph-name="Umacron" unicode="&#x16a;" horiz-adv-x="1110" 
d="M554 -20q-210 0 -333 130t-123 382v942h275v-957q0 -121 48 -182t134 -61t134 60t48 181v959h273v-940q0 -254 -123 -384t-333 -130zM252 1528v184h602v-184h-602z" />
    <glyph glyph-name="umacron" unicode="&#x16b;" horiz-adv-x="950" 
d="M190 1200v178h566v-178h-566zM359 -20q-133 0 -203 89t-70 240v789h266v-719q0 -160 117 -160q57 0 90 42t33 118v719h266v-1098h-266v139q-99 -159 -233 -159z" />
    <glyph glyph-name="Ubreve" unicode="&#x16c;" horiz-adv-x="1110" 
d="M554 -20q-210 0 -333 130t-123 382v942h275v-957q0 -121 48 -182t134 -61t134 60t48 181v959h273v-940q0 -254 -123 -384t-333 -130zM553 1499q-127 0 -207 67t-86 189h170q20 -88 122 -88t124 88h170q-8 -125 -87 -191t-206 -65z" />
    <glyph glyph-name="ubreve" unicode="&#x16d;" horiz-adv-x="950" 
d="M473 1182q-123 0 -203 70t-90 202h168q20 -104 124 -104t126 104h168q-10 -132 -90 -202t-203 -70zM359 -20q-133 0 -203 89t-70 240v789h266v-719q0 -160 117 -160q57 0 90 42t33 118v719h266v-1098h-266v139q-99 -159 -233 -159z" />
    <glyph glyph-name="Uring" unicode="&#x16e;" horiz-adv-x="1110" 
d="M553 1579q43 0 71 27q28 26 28 66t-28 67t-71 27t-71 -28q-28 -26 -28 -66t28 -66t71 -27zM553 1481q-86 0 -146 54q-61 54 -61 137t60 137q60 55 147 55q86 0 146 -54q61 -54 61 -138q0 -83 -60 -137t-147 -54zM554 -20q-210 0 -333 130t-123 382v942h275v-957
q0 -121 48 -182t134 -61t134 60t48 181v959h273v-940q0 -254 -123 -384t-333 -130z" />
    <glyph glyph-name="uring" unicode="&#x16f;" horiz-adv-x="950" 
d="M359 -20q-133 0 -203 89t-70 240v789h266v-719q0 -160 117 -160q57 0 90 42t33 118v719h266v-1098h-266v139q-99 -159 -233 -159zM473 1264q41 0 70 30t28 76q0 45 -28 76q-29 31 -70 31t-70 -31t-29 -76t29 -76q29 -30 70 -30zM473 1165q-84 1 -143 59q-60 58 -60 145
t60 145t144 58q85 0 143 -58q59 -58 59 -145t-60 -145t-143 -59z" />
    <glyph glyph-name="Uhungarumlaut" unicode="&#x170;" horiz-adv-x="1110" 
d="M590 1520l203 284l213 -108l-226 -176h-190zM295 1520l203 284l211 -108l-226 -176h-188zM554 -20q-210 0 -333 130t-123 382v942h275v-957q0 -121 48 -182t134 -61t134 60t48 181v959h273v-940q0 -254 -123 -384t-333 -130z" />
    <glyph glyph-name="uhungarumlaut" unicode="&#x171;" horiz-adv-x="950" 
d="M223 1192l193 324l205 -107l-222 -217h-176zM504 1192l192 324l205 -107l-221 -217h-176zM359 -20q-133 0 -203 89t-70 240v789h266v-719q0 -160 117 -160q57 0 90 42t33 118v719h266v-1098h-266v139q-99 -159 -233 -159z" />
    <glyph glyph-name="Uogonek" unicode="&#x172;" horiz-adv-x="1110" 
d="M389 -163q0 75 64 153q-166 30 -260 156t-95 346v942h275v-957q0 -121 48 -182t134 -61t134 60t48 181v959h273v-940q0 -230 -100 -358t-279 -150q-35 -53 -35 -95q0 -71 104 -65v-139q-41 -8 -86 -9q-109 0 -167 42t-58 117z" />
    <glyph glyph-name="uogonek" unicode="&#x173;" horiz-adv-x="950" 
d="M359 -20q-133 0 -203 89t-70 240v789h266v-719q0 -160 117 -160q57 0 90 42t33 118v719h266v-1098h-47q-47 -61 -47 -109q0 -72 104 -65v-139q-41 -8 -86 -9q-109 0 -167 42t-58 120t72 160h-37v139q-99 -159 -233 -159z" />
    <glyph glyph-name="Wcircumflex" unicode="&#x174;" horiz-adv-x="1613" 
d="M496 1520l192 266h234l192 -266h-199l-112 104l-113 -104h-194zM344 -6l-317 1440h286l176 -914l197 916h246l196 -916l177 914h280l-317 -1440h-269l-194 883l-195 -883h-266z" />
    <glyph glyph-name="wcircumflex" unicode="&#x175;" horiz-adv-x="1316" 
d="M270 -6l-237 1104h268l117 -633l131 635h221l133 -635l117 633h266l-242 -1104h-251l-136 624l-135 -624h-252zM354 1192l193 297h221l193 -297h-187l-119 129l-118 -129h-183z" />
    <glyph glyph-name="Ycircumflex" unicode="&#x176;" horiz-adv-x="1036" 
d="M207 1520l192 266h234l192 -266h-198l-113 104l-113 -104h-194zM381 0v565l-373 869h299l213 -551l215 551h291l-371 -867v-567h-274z" />
    <glyph glyph-name="ycircumflex" unicode="&#x177;" horiz-adv-x="911" 
d="M154 1192l192 297h221l193 -297h-187l-118 129l-119 -129h-182zM300 -297q-107 0 -198 53l54 207q53 -31 100 -31q63 0 78 70l-305 1096h272l158 -703l155 703h267l-295 -1098q-45 -162 -112 -230t-174 -67z" />
    <glyph glyph-name="Ydieresis" unicode="&#x178;" horiz-adv-x="1036" 
d="M211 1524v235h250v-235h-250zM571 1524v235h250v-235h-250zM381 0v565l-373 869h299l213 -551l215 551h291l-371 -867v-567h-274z" />
    <glyph glyph-name="Zacute" unicode="&#x179;" horiz-adv-x="974" 
d="M383 1520l203 284l229 -108l-231 -176h-201zM78 0v213l500 971h-484v250h805v-213l-500 -971h500v-250h-821z" />
    <glyph glyph-name="zacute" unicode="&#x17a;" horiz-adv-x="790" 
d="M51 0v188l387 689h-372v221h675v-189l-387 -688h387v-221h-690zM297 1192l195 324l217 -107l-226 -217h-186z" />
    <glyph glyph-name="Zdotaccent" unicode="&#x17b;" horiz-adv-x="974" 
d="M78 0v213l500 971h-484v250h805v-213l-500 -971h500v-250h-821zM371 1524v235h254v-235h-254z" />
    <glyph glyph-name="zdotaccent" unicode="&#x17c;" horiz-adv-x="790" 
d="M276 1196v240h250v-240h-250zM51 0v188l387 689h-372v221h675v-189l-387 -688h387v-221h-690z" />
    <glyph glyph-name="Zcaron" unicode="&#x17d;" horiz-adv-x="974" 
d="M78 0v213l500 971h-484v250h805v-213l-500 -971h500v-250h-821zM807 1786l-193 -266h-233l-193 266h199l113 -105l112 105h195z" />
    <glyph glyph-name="zcaron" unicode="&#x17e;" horiz-adv-x="790" 
d="M51 0v188l387 689h-372v221h675v-189l-387 -688h387v-221h-690zM705 1489l-193 -297h-221l-193 297h187l118 -129l119 129h183z" />
    <glyph glyph-name="florin" unicode="&#x192;" horiz-adv-x="835" 
d="M162 -10q-68 0 -117 12v229q31 -6 61 -6q94 0 109 113l41 389h-109v219h136l18 182q37 315 326 316q98 0 168 -19v-235q-53 16 -103 16q-117 0 -131 -133l-12 -127h192v-219h-217l-47 -428q-20 -165 -97 -237t-218 -72z" />
    <glyph glyph-name="Aringacute" unicode="&#x1fa;" horiz-adv-x="1112" 
d="M557 1411q43 0 71 26q28 27 28 67t-28 67t-71 27t-71 -28q-28 -26 -28 -67t28 -67t71 -25zM449 1739l198 241l230 -108l-222 -133h-206zM432 543h238l-117 471zM350 1509q0 78 60 132q60 55 147 55q86 0 146 -54q61 -54 61 -135q0 -80 -51 -131l381 -1376h-281l-78 299
h-368l-76 -299h-271l379 1378q-49 53 -49 131z" />
    <glyph glyph-name="aringacute" unicode="&#x1fb;" horiz-adv-x="890" 
d="M444 1280q41 0 70 31t29 75t-29 76q-29 31 -70 31q-42 0 -70 -31t-28 -76q0 -46 28 -76t70 -30zM444 1182q-84 0 -143 58t-59 145t59 145t144 59q85 0 143 -58q58 -57 59 -145t-59 -146t-144 -58zM547 332v133q-61 29 -119 29t-93 -40q-34 -40 -34 -116v-4
q1 -140 107 -146q57 -4 98 38t41 106zM547 688q0 182 -185 182q-91 0 -188 -65l-80 219q158 86 332 86t277 -103t104 -311v-696h-262v117q-84 -135 -234 -135q-115 0 -191 88t-75 239v23q0 176 84 263t229 87q92 0 189 -43v49zM342 1640l186 254l215 -100l-208 -154h-193z
" />
    <glyph glyph-name="AEacute" unicode="&#x1fc;" horiz-adv-x="1509" 
d="M705 543v626h-25l-209 -626h234zM1432 1434v-254h-453v-332h397v-254h-397v-340h461v-254h-735v299h-322l-104 -299h-273l524 1434h902zM758 1520l203 284l229 -108l-232 -176h-200z" />
    <glyph glyph-name="aeacute" unicode="&#x1fd;" horiz-adv-x="1388" 
d="M420 188q98 0 168 129q-20 82 -25 144q-66 33 -129 33t-98 -40t-35 -114v-6q0 -70 33 -108t86 -38zM946 889q-61 -1 -99 -67t-44 -193h280q-10 260 -137 260zM344 -18q-135 0 -217 92t-82 252v6q0 176 84 263t229 87q92 0 189 -43v49q0 88 -46 135t-136 47t-189 -71
l-82 225q158 86 316 86q193 0 284 -127q100 133 256 133q184 0 286 -152q101 -153 101 -415q0 -51 -2 -111h-530q29 -225 203 -225q106 0 188 102l117 -196q-147 -141 -328 -142q-219 0 -332 193q-116 -188 -309 -188zM584 1192l194 324l217 -107l-225 -217h-186z" />
    <glyph glyph-name="Oslashacute" unicode="&#x1fe;" horiz-adv-x="1185" 
d="M479 1526l203 284l229 -108l-231 -176h-201zM348 700q0 -115 17 -208l372 645q-59 72 -145 71q-112 0 -178 -118t-66 -355v-35zM594 225q112 0 178 119t66 354v35q0 119 -19 209l-373 -645q60 -72 148 -72zM1114 741v-47q0 -332 -144 -524t-378 -193q-152 0 -273 86
l-45 -73h-200l121 209q-123 190 -123 493v47q0 333 144 525t378 192q154 0 272 -88l45 76h201l-121 -209q123 -190 123 -494z" />
    <glyph glyph-name="oslashacute" unicode="&#x1ff;" horiz-adv-x="978" 
d="M489 207q84 0 131 89q46 89 46 239v24q0 41 -9 107l-268 -412q41 -47 100 -47zM313 535q0 -66 9 -109l268 412q-45 49 -101 49q-84 0 -130 -88t-46 -240v-24zM381 1192l194 324l218 -107l-226 -217h-186zM918 526q0 -252 -120 -400t-309 -149q-127 0 -225 70l-41 -63
h-188l117 182q-90 141 -91 358v43q0 250 120 400t308 149q125 0 226 -69l41 63h188l-119 -182q92 -147 93 -359v-43z" />
    <glyph glyph-name="Scommaaccent" unicode="&#x218;" horiz-adv-x="917" 
d="M336 -303v203h242v-179q0 -119 -62 -173t-184 -58l-13 86q72 8 102 36t25 85h-110zM442 -14q-252 0 -442 190l164 213q45 -43 74 -67t87 -54q59 -28 123 -28t107 42t43 99t-39 101t-187 132t-230 186q-83 98 -83 238v4q0 180 120 293t313 113q229 0 387 -166l-168 -211
q-115 123 -232 123q-61 0 -102 -35t-41 -89t45 -103t197 -143t224 -189q73 -94 72 -232v-4q0 -182 -123 -298q-125 -115 -309 -115z" />
    <glyph glyph-name="scommaaccent" unicode="&#x219;" horiz-adv-x="749" 
d="M362 -20q-195 0 -354 137l123 202q131 -113 231 -112q51 -1 76 25t25 61v2q0 41 -35 71q-36 30 -150 98t-173 140q-58 74 -58 182v5q0 145 97 234t256 89t307 -110l-117 -203q-98 86 -195 86q-45 0 -71 -23t-25 -57v-4q0 -37 36 -68q35 -31 149 -99t172 -144t59 -179v-4
q1 -153 -99 -241t-254 -88zM252 -301v203h242v-178q0 -120 -62 -174t-184 -58l-12 86q72 8 102 36t24 85h-110z" />
    <glyph glyph-name="schwa" unicode="&#x259;" horiz-adv-x="905" 
d="M442 209q61 0 100 66q38 67 44 194h-281q10 -260 137 -260zM412 1120q184 0 310 -148t126 -403v-34q0 -250 -115 -402q-115 -151 -297 -151t-283 152t-102 415q0 51 2 110h531q-14 111 -68 168t-139 57q-86 0 -184 -102l-117 197q152 141 336 141z" />
    <glyph glyph-name="circumflex" unicode="&#x2c6;" horiz-adv-x="1024" 
d="M209 1192l192 297h222l192 -297h-186l-119 129l-119 -129h-182z" />
    <glyph glyph-name="caron" unicode="&#x2c7;" horiz-adv-x="1024" 
d="M815 1489l-192 -297h-222l-192 297h186l119 -129l119 129h182z" />
    <glyph glyph-name="breve" unicode="&#x2d8;" horiz-adv-x="1024" 
d="M512 1182q-123 0 -203 70t-90 202h168q21 -104 125 -104t125 104h168q-10 -132 -90 -202t-203 -70z" />
    <glyph glyph-name="dotaccent" unicode="&#x2d9;" horiz-adv-x="1024" 
d="M387 1196v240h250v-240h-250z" />
    <glyph glyph-name="ring" unicode="&#x2da;" horiz-adv-x="1024" 
d="M512 1280q41 0 70 31q28 31 28 75t-28 76q-29 31 -70 31t-70 -31q-28 -31 -28 -76q0 -46 28 -76t70 -30zM512 1182q-86 0 -144 58t-58 145t58 145q60 58 145 59q85 0 143 -58q58 -57 58 -145t-58 -146t-144 -58z" />
    <glyph glyph-name="ogonek" unicode="&#x2db;" horiz-adv-x="1024" 
d="M674 -174v-139q-41 -8 -86 -9q-109 0 -167 42q-59 42 -59 122t93 178h178q-63 -78 -64 -129q1 -71 105 -65z" />
    <glyph glyph-name="tilde" unicode="&#x2dc;" horiz-adv-x="1024" 
d="M655 1190q-45 0 -136 38t-117 38t-40 -18q-16 -18 -32 -70l-146 39q27 129 68 185t117 56q45 0 136 -38t117 -38t40 18q16 18 32 70l146 -38q-27 -130 -68 -186t-117 -56z" />
    <glyph glyph-name="hungarumlaut" unicode="&#x2dd;" horiz-adv-x="1024" 
d="M174 1192l193 324l204 -107l-221 -217h-176zM455 1192l192 324l205 -107l-221 -217h-176z" />
    <glyph glyph-name="commaaccent" unicode="&#x326;" horiz-adv-x="1024" 
d="M395 -301v203h242v-178q1 -120 -61 -174t-185 -58l-12 86q71 8 101 36t26 85h-111z" />
    <glyph glyph-name="baht" unicode="&#xe3f;" horiz-adv-x="1001" 
d="M356 834h115q92 0 145 47t54 135v2q0 84 -52 129t-141 45h-121v-358zM356 242h127q94 0 151 48q56 48 56 134v6q0 84 -56 133t-153 49h-125v-370zM930 1067v-8q0 -223 -209 -320q113 -51 173 -126t60 -203v-13q0 -184 -126 -287t-336 -110l-25 -248h-176l26 248h-223
v1434h381l21 180h176l-25 -203q131 -35 207 -122t76 -222z" />
    <glyph glyph-name="Wgrave" unicode="&#x1e80;" horiz-adv-x="1613" 
d="M344 -6l-317 1440h286l176 -914l197 916h246l196 -916l177 914h280l-317 -1440h-269l-194 883l-195 -883h-266zM918 1520h-201l-232 176l230 108z" />
    <glyph glyph-name="wgrave" unicode="&#x1e81;" horiz-adv-x="1316" 
d="M578 1192l-226 217l217 107l195 -324h-186zM270 -6l-237 1104h268l117 -633l131 635h221l133 -635l117 633h266l-242 -1104h-251l-136 624l-135 -624h-252z" />
    <glyph glyph-name="Wacute" unicode="&#x1e82;" horiz-adv-x="1613" 
d="M344 -6l-317 1440h286l176 -914l197 916h246l196 -916l177 914h280l-317 -1440h-269l-194 883l-195 -883h-266zM692 1520l203 284l229 -108l-231 -176h-201z" />
    <glyph glyph-name="wacute" unicode="&#x1e83;" horiz-adv-x="1316" 
d="M270 -6l-237 1104h268l117 -633l131 635h221l133 -635l117 633h266l-242 -1104h-251l-136 624l-135 -624h-252zM551 1192l194 324l218 -107l-226 -217h-186z" />
    <glyph glyph-name="Wdieresis" unicode="&#x1e84;" horiz-adv-x="1613" 
d="M344 -6l-317 1440h286l176 -914l197 916h246l196 -916l177 914h280l-317 -1440h-269l-194 883l-195 -883h-266zM500 1524v235h250v-235h-250zM860 1524v235h250v-235h-250z" />
    <glyph glyph-name="wdieresis" unicode="&#x1e85;" horiz-adv-x="1316" 
d="M270 -6l-237 1104h268l117 -633l131 635h221l133 -635l117 633h266l-242 -1104h-251l-136 624l-135 -624h-252zM365 1196v240h245v-240h-245zM705 1196v240h245v-240h-245z" />
    <glyph glyph-name="Ygrave" unicode="&#x1ef2;" horiz-adv-x="1036" 
d="M631 1520h-201l-231 176l229 108zM381 0v565l-373 869h299l213 -551l215 551h291l-371 -867v-567h-274z" />
    <glyph glyph-name="ygrave" unicode="&#x1ef3;" horiz-adv-x="911" 
d="M375 1192l-225 217l217 107l194 -324h-186zM300 -297q-107 0 -198 53l54 207q53 -31 100 -31q63 0 78 70l-305 1096h272l158 -703l155 703h267l-295 -1098q-45 -162 -112 -230t-174 -67z" />
    <glyph glyph-name="enspace" unicode="&#x2002;" horiz-adv-x="1024" 
 />
    <glyph glyph-name="emspace" unicode="&#x2003;" horiz-adv-x="2048" 
 />
    <glyph glyph-name="threeperemspace" unicode="&#x2004;" horiz-adv-x="681" 
 />
    <glyph glyph-name="fourperemspace" unicode="&#x2005;" horiz-adv-x="512" 
 />
    <glyph glyph-name="figurespace" unicode="&#x2007;" horiz-adv-x="921" 
 />
    <glyph glyph-name="thinspace" unicode="&#x2009;" horiz-adv-x="272" 
 />
    <glyph glyph-name="hairspace" unicode="&#x200a;" horiz-adv-x="153" 
 />
    <glyph glyph-name="endash" unicode="&#x2013;" horiz-adv-x="989" 
d="M88 506v258h813v-258h-813z" />
    <glyph glyph-name="emdash" unicode="&#x2014;" horiz-adv-x="1550" 
d="M88 506v258h1374v-258h-1374z" />
    <glyph glyph-name="quoteleft" unicode="&#x2018;" horiz-adv-x="507" 
d="M94 809v250q0 354 334 383l23 -111q-201 -37 -183 -221h127v-301h-301z" />
    <glyph glyph-name="quoteright" unicode="&#x2019;" horiz-adv-x="507" 
d="M111 1133v301h301v-250q0 -354 -334 -383l-23 110q201 37 183 222h-127z" />
    <glyph glyph-name="quotesinglbase" unicode="&#x201a;" horiz-adv-x="538" 
d="M127 0v301h301v-250q0 -352 -350 -383l-23 111q217 37 199 221h-127z" />
    <glyph glyph-name="quotedblleft" unicode="&#x201c;" horiz-adv-x="944" 
d="M94 809v250q0 354 334 383l23 -111q-201 -37 -183 -221h127v-301h-301zM532 809v250q0 354 334 383l23 -111q-201 -37 -182 -221h127v-301h-302z" />
    <glyph glyph-name="quotedblright" unicode="&#x201d;" horiz-adv-x="944" 
d="M111 1133v301h301v-250q0 -354 -334 -383l-23 110q201 37 183 222h-127zM549 1133v301h301v-250q0 -354 -334 -383l-22 110q201 37 182 222h-127z" />
    <glyph glyph-name="quotedblbase" unicode="&#x201e;" horiz-adv-x="989" 
d="M127 0v301h301v-250q0 -352 -350 -383l-23 111q217 37 199 221h-127zM578 0v301h301v-250q-1 -352 -351 -383l-22 111q217 37 199 221h-127z" />
    <glyph glyph-name="dagger" unicode="&#x2020;" horiz-adv-x="618" 
d="M225 487l25 555l-187 -20v166l185 -23l-29 269h180l-28 -269l184 23v-166l-186 20l24 -555h-168z" />
    <glyph glyph-name="daggerdbl" unicode="&#x2021;" horiz-adv-x="655" 
d="M238 0l28 266l-184 -20v166l186 -23l-26 328l26 325l-186 -20v166l184 -23l-28 269h180l-29 -269l184 23v-166l-186 20l27 -325l-27 -328l186 23v-166l-184 20l29 -266h-180z" />
    <glyph glyph-name="bullet" unicode="&#x2022;" horiz-adv-x="831" 
d="M416 416q-111 0 -184 81t-72 214v24q0 135 72 216q73 81 184 81q112 0 184 -81t72 -216v-24q0 -133 -72 -214t-184 -81z" />
    <glyph glyph-name="ellipsis" unicode="&#x2026;" horiz-adv-x="1583" 
d="M111 0v297h299v-297h-299zM643 0v297h297v-297h-297zM1174 0v297h299v-297h-299z" />
    <glyph glyph-name="perthousand" unicode="&#x2030;" horiz-adv-x="2009" 
d="M1669 -14q-123 0 -198 100t-74 262v29q0 164 74 263q75 99 199 99t199 -99t75 -261v-31q0 -162 -76 -262t-199 -100zM1581 356q0 -196 88 -196t88 194v17q0 197 -88 196q-88 0 -88 -196v-15zM1047 -14q-123 0 -198 100t-75 262v29q0 164 75 263t199 99t198 -99t75 -261
v-31q1 -162 -75 -262t-199 -100zM1047 160q88 0 88 194v17q0 197 -88 196q-88 0 -89 -196v-15q1 -196 89 -196zM1190 1434l-432 -756l-377 -678h-182l434 756l375 678h182zM338 694q-123 0 -198 100t-74 261v30q0 162 75 263q76 100 199 100t198 -100t74 -263v-28
q0 -163 -76 -263t-198 -100zM340 866q88 0 88 197v14q0 197 -88 197t-88 -195v-16q0 -197 88 -197z" />
    <glyph glyph-name="guilsinglleft" unicode="&#x2039;" horiz-adv-x="632" 
d="M381 88l-320 453v16l320 453l186 -101l-217 -358l221 -358z" />
    <glyph glyph-name="guilsinglright" unicode="&#x203a;" horiz-adv-x="632" 
d="M252 88l-186 100l217 359l-222 358l191 105l319 -453v-16z" />
    <glyph glyph-name="fraction" unicode="&#x2044;" horiz-adv-x="153" 
d="M-354 0l385 750l334 684h143l-385 -750l-334 -684h-143z" />
    <glyph glyph-name="zero.sup" unicode="&#x2070;" 
d="M395 1294q0 228 -89 228t-89 -228v-18q0 -227 89 -227t89 227v18zM305 897q-121 0 -187 96t-65 279v24q0 184 66 280q65 96 187 97q122 0 189 -96t66 -279v-24q0 -184 -67 -281q-68 -96 -189 -96z" />
    <glyph glyph-name="four.sup" unicode="&#x2074;" 
d="M356 1190v295h-8l-162 -295h170zM500 1055v-146h-150v146h-293l-6 147l252 463h197v-475h73v-135h-73z" />
    <glyph glyph-name="five.sup" unicode="&#x2075;" 
d="M283 897q-117 0 -228 84l76 129q82 -63 145 -63q100 0 101 106q0 92 -98 92q-39 0 -93 -20l-96 49l31 385h387v-150h-256l-10 -131q41 10 77 11q99 -1 161 -59t62 -176t-70 -188q-72 -70 -189 -69z" />
    <glyph glyph-name="six.sup" unicode="&#x2076;" 
d="M223 1157q1 -55 25 -86t64 -31t64 31t24 85t-25 83t-64 29q-88 0 -88 -111zM351 1403q81 0 141 -58q60 -57 59 -181q0 -124 -69 -196t-167 -71q-98 0 -163 61q-88 84 -89 291v19q0 203 76 304t207 101q96 0 184 -57l-63 -131q-53 41 -123 41q-115 0 -123 -162
q49 39 130 39z" />
    <glyph glyph-name="seven.sup" unicode="&#x2077;" 
d="M80 1503v156h457v-121l-248 -629h-174l243 594h-278z" />
    <glyph glyph-name="eight.sup" unicode="&#x2078;" 
d="M307 1235q-41 0 -67 -29t-27 -78q0 -50 26 -78q27 -28 69 -28t68 29t26 77t-27 78q-27 29 -68 29zM307 1548q-37 0 -61 -24t-23 -68q0 -44 24 -68q25 -24 61 -24t60 25t24 67t-24 68q-24 24 -61 24zM307 897q-111 0 -181 61t-71 172q0 111 105 175q-88 57 -88 155t66 156
q67 57 169 57t169 -57q67 -58 67 -156t-88 -155q104 -63 104 -174q-1 -111 -71 -173t-181 -61z" />
    <glyph glyph-name="nine.sup" unicode="&#x2079;" 
d="M303 1294q88 0 88 115q0 57 -24 89q-25 32 -64 32q-88 0 -88 -118t88 -118zM299 1673q98 0 164 -61q88 -84 88 -291v-18q0 -203 -76 -305q-75 -102 -193 -101q-118 0 -206 61l57 134q72 -47 137 -48q115 0 121 154q-45 -39 -128 -39q-83 -1 -141 59t-59 185q0 125 69 197
t167 73z" />
    <glyph glyph-name="zero.inf" unicode="&#x2080;" 
d="M395 113q0 227 -89 227t-89 -227v-19q0 -227 89 -227t89 227v19zM305 -285q-121 1 -187 97t-65 278v25q0 184 66 280q65 97 187 97t189 -96t66 -279v-25q1 -184 -67 -280t-189 -97z" />
    <glyph glyph-name="one.inf" unicode="&#x2081;" horiz-adv-x="499" 
d="M369 -270h-170v579l-123 -53l-19 152l189 77h123v-755z" />
    <glyph glyph-name="two.inf" unicode="&#x2082;" 
d="M78 -270v139l198 233q78 94 86 118t9 49q0 25 -23 47q-24 22 -66 22t-130 -78l-84 115q113 117 228 117q114 0 178 -58t64 -158q0 -101 -106 -223l-151 -172h258v-151h-461z" />
    <glyph glyph-name="three.inf" unicode="&#x2083;" 
d="M282 -285q-122 0 -223 82l74 127q75 -59 133 -59q110 0 111 92q0 86 -150 90h-37l-12 109l158 172h-240v149h436v-123l-174 -186q184 -33 185 -207q1 -113 -69 -179t-192 -67z" />
    <glyph glyph-name="four.inf" unicode="&#x2084;" 
d="M356 8v295h-8l-162 -295h170zM500 -127v-145h-150v145h-293l-6 147l252 463h197v-475h73v-135h-73z" />
    <glyph glyph-name="five.inf" unicode="&#x2085;" 
d="M283 -285q-117 0 -228 84l76 129q82 -63 145 -63q100 0 101 106q0 92 -98 92q-39 0 -93 -20l-96 49l31 385h387v-149h-256l-10 -131q41 10 77 10q99 -1 161 -59t62 -176t-70 -188q-72 -70 -189 -69z" />
    <glyph glyph-name="six.inf" unicode="&#x2086;" 
d="M223 -25q1 -55 25 -85t64 -31q40 1 64 31t24 84t-25 83t-64 29q-88 0 -88 -111zM315 -285q-98 0 -163 62q-88 84 -89 291v18q0 203 76 304t207 102q96 0 184 -58l-63 -131q-53 41 -123 41q-115 0 -123 -162q49 39 130 39t141 -58t59 -181q0 -123 -69 -195t-167 -72z" />
    <glyph glyph-name="seven.inf" unicode="&#x2087;" 
d="M80 322v155h457v-121l-248 -628h-174l243 594h-278z" />
    <glyph glyph-name="eight.inf" unicode="&#x2088;" 
d="M307 53q-41 -1 -67 -29t-27 -77q0 -49 26 -78q27 -29 69 -29t68 29t25 78q0 49 -26 78q-27 28 -68 28zM307 367q-37 0 -61 -25t-23 -68q0 -44 24 -68q25 -24 61 -24t60 25t24 67t-24 68q-24 25 -61 25zM307 -285q-111 -1 -181 61t-71 173q0 111 105 174q-88 57 -88 155
t66 156q67 58 169 58t169 -58t67 -155q0 -98 -88 -156q104 -63 104 -173q-1 -110 -71 -173q-70 -62 -181 -62z" />
    <glyph glyph-name="nine.inf" unicode="&#x2089;" 
d="M303 113q88 0 88 114q0 57 -24 89q-25 32 -64 32q-88 0 -88 -118t88 -117zM299 492q98 0 164 -62q88 -84 88 -291v-18q0 -203 -76 -304q-75 -101 -193 -101t-206 61l57 133q72 -47 137 -47q115 0 121 153q-45 -39 -128 -39q-83 -1 -141 59t-59 185q0 125 69 198t167 73z
" />
    <glyph glyph-name="colonmonetary" unicode="&#x20a1;" horiz-adv-x="901" 
d="M584 1192q-117 0 -187 -112t-69 -351v-33q0 -455 260 -454q78 0 170 69l116 -200q-127 -98 -239 -111l-27 -242h-100l29 236q-57 2 -121 22l-29 -258h-98l35 299q-262 164 -263 641v37q0 305 113 481t301 214l21 165h98l-16 -155q61 0 118 -13l19 168h100l-24 -200
q49 -20 92 -54l-127 -219q-86 70 -172 70z" />
    <glyph glyph-name="naira" unicode="&#x20a6;" horiz-adv-x="1323" 
d="M1288 397h-176v-397h-254l-211 453h4l-174 385h-4v-385h2v-453h-264v397h-176v205h176v238h-176v204h176v390h270l187 -402h-2l180 -401h4v401h-2v402h264v-390h176v-204h-176v-238h176v-205z" />
    <glyph glyph-name="rupee" unicode="&#x20a8;" horiz-adv-x="1650" 
d="M352 725h76q90 0 146 61t57 175v2q0 231 -207 231h-72v-469zM1282 -20q-188 0 -338 141l123 188q117 -111 209 -110q49 -1 77 25t27 69v2q0 37 -29 71q-31 34 -137 104t-163 144t-58 183v4q0 143 91 228t249 85t287 -110l-117 -195q-2 2 -18 14q-17 11 -23 17
q-64 54 -122 55q-58 0 -85 -25t-26 -61v-2q-1 -35 29 -68t142 -109t166 -147q52 -72 52 -172v-4q0 -151 -94 -239t-242 -88zM96 0v1434h338q211 0 332 -119t121 -342v-12q0 -274 -199 -398l232 -563h-287l-189 494h-92v-494h-256z" />
    <glyph glyph-name="won" unicode="&#x20a9;" horiz-adv-x="1732" 
d="M1706 1036v-207h-209l-43 -219h252v-209h-291l-78 -405h-297l-92 487v15l-80 432h-4l-82 -432v-15l-92 -487h-297l-78 405h-288v207h247l-41 221h-206v207h166l-76 398h286l148 -955h4l92 502v16l84 439h277l174 -957h6l145 955h281l-78 -398h170z" />
    <glyph glyph-name="sheqel" unicode="&#x20aa;" horiz-adv-x="1062" 
d="M567 692q0 154 -121 154h-163v-846h-193v1098h395q95 0 155 -70t60 -188v-402h-133v254zM782 252v846h191v-1098h-326q-231 0 -262 285l-43 374h135l31 -256q18 -152 141 -151h133z" />
    <glyph glyph-name="Euro" unicode="&#x20ac;" horiz-adv-x="1034" 
d="M694 1198q-153 0 -207 -213h271v-192h-297v-144h297v-192h-275q49 -221 201 -221q90 0 160 90l149 -197q-139 -152 -319 -152t-304 122t-167 358h-146v192h125v144h-125v192h150q45 229 170 350t305 121q96 0 166 -34t145 -107l-155 -201q-68 84 -144 84z" />
    <glyph glyph-name="peso" unicode="&#x20b1;" horiz-adv-x="1185" 
d="M532 672q100 0 162 68q62 69 62 193q0 123 -58 189t-166 66h-61v-516h61zM201 0v825h-176v201h176v408h334q203 0 331 -106t156 -302h176v-201h-178q-31 -186 -160 -287t-319 -110h-68v-428h-272z" />
    <glyph glyph-name="published" unicode="&#x2117;" horiz-adv-x="1302" 
d="M606 717h45q55 0 88 36t33 99q0 135 -121 135h-45v-270zM455 336v788h196q125 0 199 -68t74 -198v-4q0 -129 -74 -200t-195 -74h-49v-244h-151zM650 55q222 0 362 179q139 179 139 460v47q0 281 -138 459q-139 178 -361 178t-361 -179t-139 -460v-47q0 -281 138 -459
t360 -178zM651 -23q-251 0 -415 201t-164 516v45q0 315 164 516t416 201t415 -201q164 -201 164 -516v-45q0 -315 -164 -516t-416 -201z" />
    <glyph glyph-name="servicemark" unicode="&#x2120;" horiz-adv-x="1101" 
d="M186 1266q0 -23 16 -39t88 -59q72 -42 109 -86t37 -120t-58 -126t-156 -50t-193 78l61 109q82 -68 146 -68t65 58q0 25 -17 41t-88 56t-108 82t-37 118q1 76 57 128t152 52t174 -66l-63 -108q-69 53 -127 53t-58 -53zM526 795v639h144l106 -234l109 234h141v-639h-131
v403l-117 -258h-6l-115 258v-403h-131z" />
    <glyph glyph-name="trademark" unicode="&#x2122;" horiz-adv-x="1079" 
d="M160 795v512h-121v127h377v-127h-121v-512h-135zM504 795v639h143l107 -234l108 234h142v-639h-132v403l-116 -258h-6l-115 258v-403h-131z" />
    <glyph glyph-name="onethird" unicode="&#x2153;" horiz-adv-x="1269" 
d="M147 0l385 750l334 684h144l-385 -750l-334 -684h-144zM373 686h-170v580l-123 -54l-19 152l189 78h123v-756zM1210 231q0 -113 -70 -179t-191 -66q-122 0 -222 82l74 127q76 -59 133 -59t84 24q27 25 26 67q0 86 -149 90h-37l-12 109l158 172h-240v150h436v-123
l-174 -187q184 -33 184 -207z" />
    <glyph glyph-name="twothirds" unicode="&#x2154;" horiz-adv-x="1382" 
d="M262 0l385 750l334 684h143l-385 -750l-333 -684h-144zM68 686v139l198 234q78 93 86 117t8 50t-22 48t-66 20q-42 0 -131 -77l-84 114q115 117 229 117t178 -57t64 -159t-106 -222l-152 -172h258v-152h-460zM1333 231q1 -113 -69 -179t-192 -66t-222 82l74 127
q76 -59 133 -59t84 24q27 25 26 67q0 86 -149 90h-37l-12 109l157 172h-239v150h436v-123l-174 -187q184 -33 184 -207z" />
    <glyph glyph-name="onefifth" unicode="&#x2155;" horiz-adv-x="1269" 
d="M145 0l385 750l334 684h144l-385 -750l-334 -684h-144zM373 686h-170v580l-123 -54l-19 152l189 78h123v-756zM938 -14q-117 0 -227 84l75 129q82 -63 146 -64q100 0 100 107q0 92 -98 92q-39 0 -92 -21l-97 49l31 386h387v-150h-256l-10 -131q41 10 78 10q99 0 161 -58
t62 -176q0 -117 -72 -187t-188 -70z" />
    <glyph glyph-name="twofifths" unicode="&#x2156;" horiz-adv-x="1382" 
d="M68 686v139l198 234q78 93 86 117t8 50t-22 48t-66 20q-42 0 -131 -77l-84 114q115 117 229 117t178 -57t64 -159t-106 -222l-152 -172h258v-152h-460zM276 0l386 750l333 684h144l-385 -750l-334 -684h-144zM1069 -14q-117 0 -227 84l76 129q82 -63 145 -64
q100 0 100 107q0 92 -98 92q-39 0 -92 -21l-96 49l30 386h387v-150h-256l-10 -131q41 10 78 10q98 0 160 -58t63 -176q1 -117 -71 -187t-189 -70z" />
    <glyph glyph-name="threefifths" unicode="&#x2157;" horiz-adv-x="1382" 
d="M284 672q-122 0 -223 82l74 127q75 -59 133 -59q110 -1 111 91q0 86 -150 91h-36l-13 108l158 172h-240v150h437v-123l-175 -187q184 -33 185 -206q1 -114 -69 -180t-192 -66zM254 0l385 750l334 684h143l-385 -750l-334 -684h-143zM1069 -14q-117 0 -227 84l76 129
q82 -63 145 -64q100 0 100 107q0 92 -98 92q-39 0 -92 -21l-96 49l30 386h387v-150h-256l-10 -131q41 10 78 10q98 0 160 -58t63 -176q1 -117 -71 -187t-189 -70z" />
    <glyph glyph-name="fourfifths" unicode="&#x2158;" horiz-adv-x="1382" 
d="M268 0l385 750l334 684h143l-385 -750l-333 -684h-144zM1069 -14q-117 0 -227 84l76 129q82 -63 145 -64q100 0 100 107q0 92 -98 92q-39 0 -92 -21l-96 49l30 386h387v-150h-256l-10 -131q41 10 78 10q98 0 160 -58t63 -176q1 -117 -71 -187t-189 -70zM340 965v295h-8
l-162 -295h170zM483 829v-145h-149v145h-293l-6 148l252 463h196v-475h74v-136h-74z" />
    <glyph glyph-name="onesixth" unicode="&#x2159;" horiz-adv-x="1269" 
d="M866 246q0 -55 24 -86t65 -31q40 0 64 31q23 31 23 85t-24 83q-25 29 -64 28q-88 0 -88 -110zM373 686h-170v580l-123 -54l-19 152l189 78h123v-756zM160 0l385 750l334 684h143l-385 -750l-334 -684h-143zM1194 252q0 -122 -69 -194t-167 -72t-163 61q-88 84 -88 291v18
q0 203 75 304q76 101 207 102q96 0 185 -57l-64 -132q-53 41 -123 41q-115 0 -123 -161q49 39 130 39q80 0 140 -58t60 -182z" />
    <glyph glyph-name="fivesixths" unicode="&#x215a;" horiz-adv-x="1382" 
d="M987 246q1 -55 25 -86t64 -31t64 31t24 85t-25 83t-64 28q-88 0 -88 -110zM258 0l385 750l334 684h143l-385 -750l-334 -684h-143zM283 672q-117 0 -228 84l76 129q82 -63 145 -64q100 0 101 107q0 92 -98 92q-39 0 -93 -21l-96 50l31 385h387v-150h-256l-10 -131
q41 10 77 10q99 0 161 -58t62 -176q0 -117 -70 -187q-72 -70 -189 -70zM1115 492q81 0 140 -58t59 -182q0 -122 -68 -194q-69 -72 -167 -72t-164 61q-88 84 -88 291v18q0 203 76 304t207 102q96 0 184 -57l-63 -132q-53 41 -123 41q-115 0 -123 -161q49 39 130 39z" />
    <glyph glyph-name="oneeighth" unicode="&#x215b;" horiz-adv-x="1269" 
d="M145 0l385 750l334 684h144l-385 -750l-334 -684h-144zM373 686h-170v580l-123 -54l-19 152l189 78h123v-756zM952 324q-42 0 -68 -29t-26 -78t26 -78t68 -29t69 30q26 28 26 77t-27 78t-68 29zM952 637q-36 0 -60 -25q-24 -26 -24 -68t24 -67t60 -25t61 26q24 24 23 67
q0 43 -24 67t-60 25zM952 -14q-112 0 -182 61t-70 172t105 174q-88 57 -88 155t66 157q67 57 169 57t169 -57t67 -155t-88 -157q104 -63 104 -173t-70 -173q-71 -61 -182 -61z" />
    <glyph glyph-name="threeeighths" unicode="&#x215c;" horiz-adv-x="1382" 
d="M284 672q-122 0 -223 82l74 127q75 -59 133 -59q110 -1 111 91q0 86 -150 91h-36l-13 108l158 172h-240v150h437v-123l-175 -187q184 -33 185 -206q1 -114 -69 -180t-192 -66zM258 0l385 750l334 684h143l-385 -750l-334 -684h-143zM1083 324q-41 0 -67 -29t-27 -78
q0 -49 26 -78q27 -29 69 -29t68 30q26 28 26 77t-27 78t-68 29zM1083 637q-37 0 -61 -25q-24 -26 -23 -68q0 -42 24 -67q25 -25 61 -25t60 26q24 24 23 67q1 43 -23 67t-61 25zM1083 -14q-111 0 -181 61t-71 172q0 111 105 174q-88 57 -88 155t66 157q67 57 169 57t169 -57
t67 -155t-88 -157q104 -63 104 -173t-70 -173q-71 -61 -182 -61z" />
    <glyph glyph-name="fiveeighths" unicode="&#x215d;" horiz-adv-x="1382" 
d="M285 672q-117 0 -228 84l76 129q82 -63 146 -64q100 0 100 107q0 92 -98 92q-39 0 -93 -21l-96 50l31 385h387v-150h-256l-10 -131q41 10 78 10q98 0 160 -58t62 -176q0 -117 -70 -187q-72 -70 -189 -70zM258 0l385 750l334 684h143l-385 -750l-334 -684h-143zM1083 324
q-41 0 -67 -29t-27 -78q0 -49 26 -78q27 -29 69 -29t68 30q26 28 26 77t-27 78t-68 29zM1083 637q-37 0 -61 -25q-24 -26 -23 -68q0 -42 24 -67q25 -25 61 -25t60 26q24 24 23 67q1 43 -23 67t-61 25zM1083 -14q-111 0 -181 61t-71 172q0 111 105 174q-88 57 -88 155t66 157
q67 57 169 57t169 -57t67 -155t-88 -157q104 -63 104 -173t-70 -173q-71 -61 -182 -61z" />
    <glyph glyph-name="seveneighths" unicode="&#x215e;" horiz-adv-x="1382" 
d="M190 0l385 750l334 684h144l-385 -750l-334 -684h-144zM98 1278v156h457v-121l-248 -629h-174l244 594h-279zM1047 324q-41 0 -68 -29t-27 -78t26 -78t69 -29t69 30q26 28 25 77t-27 78t-67 29zM1047 637q-37 0 -61 -25q-24 -26 -24 -68t24 -67t61 -25t61 26q24 24 22 67
q0 43 -23 67t-60 25zM1047 -14q-111 0 -182 61t-70 160q0 123 104 186q-88 57 -88 155t67 156t169 58q103 0 169 -57t66 -155t-88 -157q104 -63 104 -173t-70 -172t-181 -62z" />
    <glyph glyph-name="minus" unicode="&#x2212;" horiz-adv-x="974" 
d="M893 590h-811v262h811v-262z" />
    <glyph glyph-name="Q.alt" horiz-adv-x="1185" 
d="M594 229q108 0 174 120t66 353v27q0 233 -67 354t-175 121t-174 -120t-66 -353v-26q0 -233 66 -355t176 -121zM72 692v47q0 333 143 525t379 192t378 -190t142 -525v-47q0 -352 -158 -544l246 -328v-2h-340l-139 176q-61 -18 -131 -19q-236 1 -378 191t-142 524z" />
    <glyph glyph-name="a.alt" horiz-adv-x="995" 
d="M483 223q70 0 113 82t43 225v37q0 141 -43 225t-113 82q-71 0 -111 -82t-40 -225v-37q0 -143 40 -225t111 -82zM392 -20q-142 0 -234 132t-92 404v66q0 270 91 403t234 133q84 0 139 -43t107 -114v137h266v-1098h-266v145q-103 -165 -245 -165z" />
    <glyph glyph-name="aacute.alt" horiz-adv-x="995" 
d="M483 223q70 0 113 82t43 225v37q0 141 -43 225t-113 82q-71 0 -111 -82t-40 -225v-37q0 -143 40 -225t111 -82zM392 -20q-142 0 -234 132t-92 404v66q0 270 91 403t234 133q84 0 139 -43t107 -114v137h266v-1098h-266v145q-103 -165 -245 -165zM408 1192l194 324
l217 -107l-225 -217h-186z" />
    <glyph glyph-name="abreve.alt" horiz-adv-x="995" 
d="M512 1182q-123 0 -203 70t-90 202h168q21 -104 125 -104t125 104h168q-10 -132 -90 -202t-203 -70zM483 223q70 0 113 82t43 225v37q0 141 -43 225t-113 82q-71 0 -111 -82t-40 -225v-37q0 -143 40 -225t111 -82zM392 -20q-142 0 -234 132t-92 404v66q0 270 91 403
t234 133q84 0 139 -43t107 -114v137h266v-1098h-266v145q-103 -165 -245 -165z" />
    <glyph glyph-name="acircumflex.alt" horiz-adv-x="995" 
d="M483 223q70 0 113 82t43 225v37q0 141 -43 225t-113 82q-71 0 -111 -82t-40 -225v-37q0 -143 40 -225t111 -82zM392 -20q-142 0 -234 132t-92 404v66q0 270 91 403t234 133q84 0 139 -43t107 -114v137h266v-1098h-266v145q-103 -165 -245 -165zM209 1192l192 297h222
l192 -297h-186l-119 129l-119 -129h-182z" />
    <glyph glyph-name="adieresis.alt" horiz-adv-x="995" 
d="M483 223q70 0 113 82t43 225v37q0 141 -43 225t-113 82q-71 0 -111 -82t-40 -225v-37q0 -143 40 -225t111 -82zM392 -20q-142 0 -234 132t-92 404v66q0 270 91 403t234 133q84 0 139 -43t107 -114v137h266v-1098h-266v145q-103 -165 -245 -165zM219 1196v240h246v-240
h-246zM559 1196v240h246v-240h-246z" />
    <glyph glyph-name="agrave.alt" horiz-adv-x="995" 
d="M434 1192l-225 217l217 107l195 -324h-187zM483 223q70 0 113 82t43 225v37q0 141 -43 225t-113 82q-71 0 -111 -82t-40 -225v-37q0 -143 40 -225t111 -82zM392 -20q-142 0 -234 132t-92 404v66q0 270 91 403t234 133q84 0 139 -43t107 -114v137h266v-1098h-266v145
q-103 -165 -245 -165z" />
    <glyph glyph-name="amacron.alt" horiz-adv-x="995" 
d="M229 1200v178h566v-178h-566zM483 223q70 0 113 82t43 225v37q0 141 -43 225t-113 82q-71 0 -111 -82t-40 -225v-37q0 -143 40 -225t111 -82zM392 -20q-142 0 -234 132t-92 404v66q0 270 91 403t234 133q84 0 139 -43t107 -114v137h266v-1098h-266v145
q-103 -165 -245 -165z" />
    <glyph glyph-name="aogonek.alt" horiz-adv-x="995" 
d="M483 223q70 0 113 82t43 225v37q0 141 -43 225t-113 82q-71 0 -111 -82t-40 -225v-37q0 -143 40 -225t111 -82zM602 -160q0 78 72 160h-37v145q-103 -165 -245 -165t-234 132t-92 404v66q0 270 91 403t234 133q84 0 139 -43t107 -114v137h266v-1098h-47q-47 -61 -47 -109
q0 -71 104 -65v-139q-41 -8 -86 -9q-109 0 -167 42t-58 120z" />
    <glyph glyph-name="aring.alt" horiz-adv-x="995" 
d="M483 223q70 0 113 82t43 225v37q0 141 -43 225t-113 82q-71 0 -111 -82t-40 -225v-37q0 -143 40 -225t111 -82zM392 -20q-142 0 -234 132t-92 404v66q0 270 91 403t234 133q84 0 139 -43t107 -114v137h266v-1098h-266v145q-103 -165 -245 -165zM512 1280q41 0 70 31
q28 31 28 75t-28 76q-29 31 -70 31t-70 -31q-28 -31 -28 -76q0 -46 28 -76t70 -30zM512 1182q-86 0 -144 58t-58 145t58 145q60 58 145 59q85 0 143 -58q58 -57 58 -145t-58 -146t-144 -58z" />
    <glyph glyph-name="aring.alt2" horiz-adv-x="890" 
d="M444 1114q41 0 70 31t29 76t-29 75t-70 31q-42 0 -70 -31q-28 -32 -28 -76t28 -75t70 -31zM547 332v133q-61 29 -119 29t-93 -40q-34 -40 -34 -116v-4q1 -140 107 -146q57 -4 98 38t41 106zM547 688q0 182 -185 182q-91 0 -188 -65l-80 219q100 53 189 72q-41 53 -41 132
t59 137t144 58t143 -58t59 -144q0 -86 -55 -142q68 -29 110 -71q104 -104 105 -312v-696h-262v117q-84 -135 -234 -135q-115 0 -191 88t-75 239v23q0 176 84 263t229 87q92 0 189 -43v49z" />
    <glyph glyph-name="aringacute.alt" horiz-adv-x="995" 
d="M483 223q70 0 113 82t43 225v37q0 141 -43 225t-113 82q-71 0 -111 -82t-40 -225v-37q0 -143 40 -225t111 -82zM392 -20q-142 0 -234 132t-92 404v66q0 270 91 403t234 133q84 0 139 -43t107 -114v137h266v-1098h-266v145q-103 -165 -245 -165zM512 1280q41 0 70 31
q28 31 28 75t-28 76q-29 31 -70 31t-70 -31q-28 -31 -28 -76q0 -46 28 -76t70 -30zM512 1182q-86 0 -144 58t-58 145t58 145q60 58 145 59q85 0 143 -58q58 -57 58 -145t-58 -146t-144 -58zM412 1640l186 254l215 -100l-209 -154h-192z" />
    <glyph glyph-name="aringacute.alt2" horiz-adv-x="890" 
d="M444 1114q41 0 70 31t29 76t-29 75t-70 31q-42 0 -70 -31q-28 -32 -28 -76t28 -75t70 -31zM547 332v133q-61 29 -119 29t-93 -40q-34 -40 -34 -116v-4q1 -140 107 -146q57 -4 98 38t41 106zM547 688q0 182 -185 182q-91 0 -188 -65l-80 219q100 53 189 72q-41 53 -41 132
t59 137t144 58t143 -58t59 -144q0 -86 -55 -142q68 -29 110 -71q104 -104 105 -312v-696h-262v117q-84 -135 -234 -135q-115 0 -191 88t-75 239v23q0 176 84 263t229 87q92 0 189 -43v49zM342 1479l186 254l215 -99l-208 -155h-193z" />
    <glyph glyph-name="atilde.alt" horiz-adv-x="995" 
d="M664 1190q-44 0 -136 38t-118 38t-40 -18q-15 -18 -32 -70l-145 39q27 129 67 185q41 56 117 56q45 0 136 -38t117 -38t41 18t31 70l146 -38q-28 -130 -68 -186t-116 -56zM483 223q70 0 113 82t43 225v37q0 141 -43 225t-113 82q-71 0 -111 -82t-40 -225v-37
q0 -143 40 -225t111 -82zM392 -20q-142 0 -234 132t-92 404v66q0 270 91 403t234 133q84 0 139 -43t107 -114v137h266v-1098h-266v145q-103 -165 -245 -165z" />
    <glyph glyph-name="three.alt" horiz-adv-x="913" 
d="M858 403q0 -186 -126 -306t-332 -120q-207 0 -371 140l131 213q117 -98 217 -98t154 52t55 136v2q0 193 -267 192h-65v238h65q125 0 187 51q61 51 61 132t-49 124t-133 43t-201 -98l-137 194q170 158 387 158q172 0 288 -99t116 -270v-2q0 -123 -60 -207t-155 -126
q106 -41 171 -128t64 -216v-5z" />
    <glyph glyph-name="registered.alt" horiz-adv-x="1302" 
d="M573 739h64q55 0 88 33t33 94q0 123 -125 123h-60v-250zM422 338v788h221q131 0 199 -68t67 -186v-8q0 -156 -121 -219l138 -307h-166l-119 268h-68v-268h-151zM650 55q222 0 362 179q139 179 139 460v47q0 281 -138 459q-139 178 -361 178t-361 -179t-139 -460v-47
q0 -281 138 -459t360 -178zM651 -23q-251 0 -415 201t-164 516v45q0 315 164 516t416 201t415 -201q164 -201 164 -516v-45q0 -315 -164 -516t-416 -201z" />
    <glyph glyph-name="R_p" horiz-adv-x="1832" 
d="M352 725h76q90 0 146 61t57 175v2q0 231 -207 231h-72v-469zM1395 213q61 0 95 79t34 222v70q0 143 -34 222t-95 79t-97 -79t-34 -222v-70q0 -141 35 -221t96 -80zM1018 -289v1387h248v-144q92 164 224 164t213 -129t81 -403v-74q0 -272 -82 -402t-211 -130
q-55 0 -102 28t-70 54t-53 73v-424h-248zM96 0v1434h338q211 0 332 -119t121 -342v-12q0 -274 -199 -398l232 -563h-287l-189 494h-92v-494h-256z" />
    <glyph glyph-name="onehalf.alt" horiz-adv-x="1382" 
d="M287 0l385 750l334 684h143l-385 -750l-334 -684h-143zM852 0v139l199 234q4 6 14 16q72 86 78 123l2 18q0 35 -23 57q-24 21 -66 21t-130 -78l-84 115q113 117 228 117q114 0 178 -57t64 -159t-106 -222l-151 -172h258v-152h-461zM549 686h-459v139h156v445l-144 -58
l-18 150l207 80h121v-617h137v-139z" />
    <glyph glyph-name="onethird.alt" horiz-adv-x="1382" 
d="M272 0l385 750l334 684h144l-385 -750l-334 -684h-144zM1321 231q1 -113 -69 -179t-192 -66t-222 82l73 127q75 -59 133 -59q110 -1 111 91q0 86 -149 90h-37l-13 109l158 172h-240v150h437v-123l-174 -187q184 -33 184 -207zM549 686h-459v139h156v445l-144 -58l-18 150
l207 80h121v-617h137v-139z" />
    <glyph glyph-name="onequarter.alt" horiz-adv-x="1382" 
d="M1108 279v294h-8l-162 -294h170zM1251 143v-145h-149v145h-293l-6 148l252 463h196v-475h74v-136h-74zM303 0l385 750l334 684h143l-385 -750l-334 -684h-143zM555 686h-459v139h156v445l-143 -58l-19 150l207 80h121v-617h137v-139z" />
    <glyph glyph-name="onefifth.alt" horiz-adv-x="1382" 
d="M283 0l385 750l333 684h144l-385 -750l-334 -684h-143zM1063 -14q-117 0 -227 84l75 129q82 -63 146 -64q100 0 100 107q0 92 -98 92q-39 0 -92 -21l-97 49l31 386h387v-150h-256l-10 -131q41 10 78 10q98 0 160 -58t63 -176q1 -117 -71 -187t-189 -70zM549 686h-459v139
h156v445l-144 -58l-18 150l207 80h121v-617h137v-139z" />
    <glyph glyph-name="onesixth.alt" horiz-adv-x="1382" 
d="M1091 129q39 0 63 31t24 85t-25 83t-63 28q-88 0 -89 -110q0 -55 25 -86t65 -31zM549 686h-459v139h156v445l-144 -58l-18 150l207 80h121v-617h137v-139zM289 0l385 750l334 684h143l-385 -750l-334 -684h-143zM1094 -14q-98 0 -164 61q-88 84 -88 291v18q0 203 76 304
t206 102q96 0 185 -57l-64 -132q-53 41 -123 41q-115 0 -123 -161q49 39 130 39t141 -58t59 -182q0 -123 -68 -195q-69 -71 -167 -71z" />
    <glyph glyph-name="oneeighth.alt" horiz-adv-x="1382" 
d="M283 0l385 750l333 684h144l-385 -750l-334 -684h-143zM1087 324q-41 0 -67 -29t-27 -78q0 -49 26 -78q27 -29 69 -29t68 30q26 28 26 77t-27 78t-68 29zM1087 637q-37 0 -61 -25q-24 -26 -22 -68q0 -42 24 -67t60 -25t60 26q24 24 23 67q1 43 -23 67t-61 25zM1087 -14
q-111 0 -181 61t-70 160q0 123 104 186q-88 57 -88 155t67 156t169 58t168 -57q67 -57 67 -155t-88 -157q104 -63 104 -173t-70 -173q-71 -61 -182 -61zM543 686h-459v139h156v445l-144 -58l-18 150l207 80h121v-617h137v-139z" />
    <glyph glyph-name="one.sup_alt" 
d="M557 911h-459v140h156v444l-143 -57l-19 149l207 80h121v-616h137v-140z" />
    <glyph glyph-name="one.inf_alt" 
d="M557 -270h-459v139h156v444l-143 -57l-19 150l207 79h121v-616h137v-139z" />
    <glyph glyph-name="zero.tab" horiz-adv-x="921" 
d="M608 743q0 263 -36 365t-112 102q-75 0 -112 -101t-37 -364v-55q0 -262 37 -364t113 -102q75 0 111 100t36 364v55zM461 -20q-412 0 -412 706v59q0 709 412 709q201 0 306 -176t105 -530v-60q0 -354 -106 -531t-305 -177z" />
    <glyph glyph-name="one.tab" horiz-adv-x="921" 
d="M874 0h-780v225h281v928l-256 -109l-27 252l363 148h188v-1219h231v-225z" />
    <glyph glyph-name="two.tab" horiz-adv-x="921" 
d="M848 0h-776v225l352 494q152 221 151 332q1 73 -41 109t-94 36t-100 -27q-47 -27 -72 -53t-61 -67l-166 174q172 233 422 233q174 0 280 -102t107 -275v-6q0 -107 -40 -199t-140 -241l-267 -375h445v-258z" />
    <glyph glyph-name="three.tab" horiz-adv-x="921" 
d="M391 -23q-207 0 -360 144l133 211q113 -102 210 -102t150 54q53 56 54 146v4q0 209 -289 209h-35l-18 174l276 361l-418 2v254h737v-232l-305 -362q138 -33 230 -134t92 -264v-8q0 -207 -125 -332t-332 -125z" />
    <glyph glyph-name="three.tab_alt" horiz-adv-x="921" 
d="M858 403q0 -188 -124 -307t-331 -119q-208 0 -372 140l129 209q117 -98 221 -98q105 0 157 52t52 140t-73 144t-206 57h-53v225h53q123 0 194 57t71 139t-51 124q-50 44 -141 40t-198 -100l-137 192q170 158 387 158q174 0 290 -98t116 -273q0 -123 -60 -207t-155 -126
q231 -88 231 -349z" />
    <glyph glyph-name="four.tab" horiz-adv-x="921" 
d="M526 502v561h-12l-256 -561h268zM524 0v279h-469l-20 229l418 932h317v-936h123v-225h-123v-279h-246z" />
    <glyph glyph-name="five.tab" horiz-adv-x="921" 
d="M854 471q0 -225 -128 -359t-333 -135q-205 0 -344 134l125 215q117 -98 213 -98t149 64q52 65 52 168t-50 156q-50 54 -132 54t-160 -49l-144 94l43 719h650v-248h-441l-18 -301q72 23 141 22q161 0 269 -104t108 -328v-4z" />
    <glyph glyph-name="six.tab" horiz-adv-x="921" 
d="M631 465q0 242 -162 244q-78 0 -120 -65t-42 -179v-6q0 -115 42 -179t120 -65q78 0 120 65t42 179v6zM883 471q0 -221 -114 -357t-288 -137q-304 0 -391 316q-37 135 -37 364v31q0 400 124 584t360 184q156 0 297 -88l-111 -227q-94 67 -192 67q-99 0 -159 -92t-65 -262
q98 80 239 80q140 0 238 -108t99 -328v-27z" />
    <glyph glyph-name="seven.tab" horiz-adv-x="921" 
d="M78 1171v263h768v-203l-422 -1231h-285l420 1171h-481z" />
    <glyph glyph-name="eight.tab" horiz-adv-x="921" 
d="M461 844q61 0 97 52t36 144v7q0 92 -37 141t-96 49t-96 -49t-37 -141v-7q0 -92 36 -144t97 -52zM461 199q71 0 111 56t40 159v8q0 100 -42 156t-110 55q-68 0 -109 -55q-42 -55 -42 -156v-8q0 -102 41 -158t111 -57zM461 -20q-182 0 -295 112t-113 301v10q0 231 180 340
q-154 98 -153 310v8q0 173 105 283t275 110t276 -111q105 -111 106 -282v-8q0 -211 -154 -310q180 -109 180 -340v-10q0 -188 -112 -301q-113 -112 -295 -112z" />
    <glyph glyph-name="nine.tab" horiz-adv-x="921" 
d="M453 709q77 1 119 67t42 185v6q0 119 -42 185t-120 67q-78 0 -120 -67q-41 -67 -41 -185v-6q0 -252 162 -252zM385 -23q-160 0 -317 95l110 227q111 -74 211 -74t160 88q59 88 65 250q-98 -80 -238 -80t-239 110q-98 110 -98 335v26q0 226 114 364q113 138 287 138
t277 -102q152 -152 151 -578v-31q0 -401 -124 -585t-359 -183z" />
    <glyph glyph-name="period.tab" horiz-adv-x="460" 
d="M90 0v317h281v-317h-281z" />
    <glyph glyph-name="comma.tab" horiz-adv-x="460" 
d="M90 0v317h281v-266q-1 -352 -316 -377l-24 109q96 17 139 77t35 140h-115z" />
    <glyph glyph-name="colon.tab" horiz-adv-x="460" 
d="M90 0v315h279v-315h-279zM90 782v316h279v-316h-279z" />
    <glyph glyph-name="semicolon.tab" horiz-adv-x="460" 
d="M90 0v315h279v-264q-1 -352 -314 -377l-24 109q96 17 139 77t35 140h-115zM90 782v316h279v-316h-279z" />
    <glyph glyph-name="twodotleader.tab" horiz-adv-x="921" 
d="M94 0v307h273v-307h-273zM555 0v307h272v-307h-272z" />
    <glyph glyph-name="periodcentered.tab" horiz-adv-x="460" 
d="M90 475v318h281v-318h-281z" />
    <glyph glyph-name="slash.tab" horiz-adv-x="921" 
d="M911 1597l-694 -1822h-227l694 1822h227z" />
    <glyph glyph-name="bar.tab" horiz-adv-x="460" 
d="M123 -225v1822h213v-1822h-213z" />
    <glyph glyph-name="underscore.tab" horiz-adv-x="921" 
d="M-4 -315v206h930v-206h-930z" />
    <glyph glyph-name="dollar.tab" horiz-adv-x="921" 
d="M489 1198q-65 0 -103 -36t-38 -93t39 -100t189 -147t218 -197q69 -94 68 -228v-2q0 -167 -104 -277t-269 -124l-20 -223h-178l22 235q-162 37 -284 168l143 207q141 -145 277 -145q73 0 111 40t38 107v2q0 51 -35 93t-135 106q-192 119 -268 220t-76 243v2q0 164 98 269
t264 122l15 149h178l-14 -162q139 -35 243 -135l-145 -205q-119 111 -234 111z" />
    <glyph glyph-name="sterling.tab" horiz-adv-x="921" 
d="M188 803v209q0 224 112 332t286 108q175 0 305 -139l-156 -199q-80 76 -137 76q-133 0 -133 -180v-207h287v-238h-287v-321h401v-244h-796v180l118 49v336h-114v238h114z" />
    <glyph glyph-name="Euro.tab" horiz-adv-x="921" 
d="M41 795v188h131q43 231 160 351q118 120 282 120t291 -113l-125 -211q-76 72 -147 72q-139 0 -189 -219h244v-188h-264v-148h264v-188h-248q45 -227 189 -228q70 0 149 76l127 -203q-133 -124 -298 -124t-281 122t-156 357h-129v188h113v148h-113z" />
    <glyph glyph-name="yen.tab" horiz-adv-x="921" 
d="M109 387h223v135h-223v193h176l-277 719h281l174 -562l176 562h274l-278 -719h178v-193h-223v-135h223v-192h-223v-195h-258v195h-223v192z" />
    <glyph glyph-name="cent.tab" horiz-adv-x="921" 
d="M557 1047q-97 0 -155 -80t-58 -234v-28q0 -147 57 -225t155 -79q98 0 183 93l119 -197q-121 -119 -287 -133l-14 -176h-182l16 194q-141 45 -223 177t-82 335v43q0 229 106 375t283 170l14 162h183l-13 -170q115 -29 199 -105l-123 -200q-82 78 -178 78z" />
    <glyph glyph-name="numbersign.tab" horiz-adv-x="921" 
d="M383 891l-31 -340h180l31 340h-180zM37 555h133l33 332h-121v233h141l31 314h186l-32 -314h176l28 314h187l-31 -314h117v-233h-137l-33 -332h123v-233h-144l-30 -322h-187l31 322h-174l-29 -322h-186l31 322h-113v233z" />
    <glyph glyph-name="paragraph.tab" horiz-adv-x="921" 
d="M522 0v463h-20q-195 12 -323 134t-128 351v2q0 238 137 361t359 123h252v-1434h-277z" />
    <glyph glyph-name="section.tab" horiz-adv-x="921" 
d="M373 852q-39 0 -67 -27t-27 -65v-2q1 -31 23 -57q22 -25 46 -39t94 -47t109 -33t67 26t27 66v2q-1 30 -23 56t-47 40t-94 47t-108 33zM246 279q94 -76 187 -76q93 -1 91 77q0 38 -42 70t-169 88t-195 119t-69 170v4q0 81 48 145t130 93q-76 82 -75 186v2q0 133 91 213
t245 80t298 -109l-108 -186q-94 76 -189 76q-43 -1 -67 -21t-23 -57q0 -37 42 -69q41 -32 169 -88t196 -119t68 -170v-5q0 -82 -48 -145t-130 -92q76 -82 76 -186v-3q0 -133 -91 -213q-91 -79 -245 -79t-299 108z" />
    <glyph glyph-name="degree.tab" horiz-adv-x="921" 
d="M461 788q73 0 115 64t42 172v16q0 109 -43 172q-43 64 -115 64t-114 -64q-43 -64 -43 -172v-16q0 -108 43 -172t115 -64zM797 1024q-1 -176 -97 -292t-240 -116t-240 116q-95 116 -95 292v16q0 176 96 292q97 116 241 116t239 -116t96 -292v-16z" />
    <glyph glyph-name="percent.tab" horiz-adv-x="921" 
d="M672 618q-64 0 -66 -208v-62q0 -209 65 -209t64 209v62q1 208 -63 208zM315 1085q-1 209 -65 209t-64 -209v-61q0 -209 64 -209t65 209v61zM700 1434h138l-340 -738l-277 -696h-137l340 737zM672 770q106 0 162 -94t57 -270v-54q0 -176 -56 -270q-57 -94 -163 -94
t-163 94q-56 94 -56 270v54q0 170 56 267q57 97 163 97zM250 1446q106 0 162 -94t57 -271v-53q0 -170 -56 -267q-57 -97 -163 -97t-163 94q-56 94 -56 270v53q0 176 56 271q57 94 163 94z" />
    <glyph glyph-name="quotedbl.tab" horiz-adv-x="921" 
d="M446 1434v-17l-198 -637h-119l31 654h286zM850 1434v-17l-199 -637h-116l30 654h285z" />
    <glyph glyph-name="quotesingle.tab" horiz-adv-x="460" 
d="M420 1434v-17l-197 -637h-121l33 654h285z" />
    <glyph glyph-name="plus.tab" horiz-adv-x="921" 
d="M854 602h-274v-287h-238v287h-274v238h274v286h238v-286h274v-238z" />
    <glyph glyph-name="minus.tab" horiz-adv-x="921" 
d="M852 592h-782v258h782v-258z" />
    <glyph glyph-name="divide.tab" horiz-adv-x="921" 
d="M332 221v254h258v-254h-258zM852 602h-782v238h782v-238zM332 967v254h258v-254h-258z" />
    <glyph glyph-name="equal.tab" horiz-adv-x="921" 
d="M838 377h-754v250h754v-250zM838 815h-754v250h754v-250z" />
    <glyph glyph-name="multiply.tab" horiz-adv-x="921" 
d="M682 307l-223 242l-223 -242l-177 158l242 256l-242 254l179 160l225 -242l223 242l176 -158l-241 -256l241 -254z" />
    <glyph glyph-name="less.tab" horiz-adv-x="921" 
d="M823 195l-739 407v238l739 407v-284l-471 -240l471 -240v-288z" />
    <glyph glyph-name="greater.tab" horiz-adv-x="921" 
d="M838 602l-740 -407v284l471 240l-471 239v289l740 -407v-238z" />
    <glyph glyph-name="plusminus.tab" horiz-adv-x="921" 
d="M852 0h-782v229h782v-229zM854 678h-274v-283h-238v283h-274v237h274v285h238v-285h274v-237z" />
    <glyph glyph-name="space.tab" horiz-adv-x="460" 
 />
    <glyph glyph-name="NUL" horiz-adv-x="0" 
 />
    <glyph glyph-name="hfjslug" horiz-adv-x="1421" 
d="M872 580q-33 0 -32 34q0 12 9 24t23 11q14 0 24 -11t9 -24q0 -34 -33 -34zM997 612h-22v35h22q20 0 21 -16q-1 -19 -21 -19zM659 823q-33 0 -33 45t33 78l41 -80q-16 -43 -41 -43zM645 1056q0 30 29 29q27 -1 27 -35t-31 -69q-25 45 -25 75zM494 662l28 -97h17l22 70h2
l23 -70h16l29 97h-17l-20 -72h-2l-23 72h-14l-23 -72h-2l-20 72h-16zM270 662v-95h17v66l51 -66h14v95h-16v-66l-51 66h-15zM395 662v-95h70v15h-53v26h47v15h-47v24h53v15h-70zM750 567h16v35l37 60h-19l-26 -46l-27 46h-18l37 -60v-35zM872 565q20 1 34 15q33 33 1 68
q-15 16 -35 16t-34 -16t-14 -34q0 -20 14 -34t34 -15zM1034 631q0 31 -35 31h-41v-95h17v31h24l21 -31h18l-24 35q20 8 20 29zM1071 662v-95h16v25l17 16l31 -41h20l-41 54l37 41h-21l-40 -50h-3v50h-16zM729 1039q0 71 -55 71q-25 0 -41 -18q-35 -39 12 -125
q-47 -37 -47 -83q0 -91 59 -89q39 0 60 49h2l24 -49l25 12l-35 65q13 29 27 80l-27 6q-8 -37 -16 -61h-2l-33 64q47 43 47 78zM985 799q63 0 64 73v281h-33v-281q0 -45 -33 -45q-16 0 -41 11v-31q20 -8 43 -8zM377 1153v-352h31v162h96v-162h31v352h-31v-162h-96v162h-31z
M819 1153v-352h31v160h78v28h-78v135h88v29h-119zM1319 -410h-426l-16 29h-334l-17 -29h-424v621q29 0 48 19q18 19 18 46q0 26 -20 46t-46 20v1135h205l62 161h684l59 -161h207v-1887z" />
    <glyph glyph-name="i.dot" horiz-adv-x="464" 
d="M98 0v1098h267v-1098h-267zM94 1208v254h275v-254h-275z" />
    <glyph glyph-name="zero.num" 
d="M395 1069q0 227 -89 227t-89 -227v-18q0 -227 90 -228q88 0 88 228v18zM305 672q-121 0 -187 96t-65 279v24q0 185 66 281q65 96 187 96t189 -96t66 -279v-24q0 -184 -67 -281q-68 -96 -189 -96z" />
    <glyph glyph-name="one.num" horiz-adv-x="499" 
d="M369 686h-170v580l-123 -54l-19 152l189 78h123v-756z" />
    <glyph glyph-name="one.num_alt" 
d="M557 686h-459v139h156v445l-143 -58l-19 150l207 80h121v-617h137v-139z" />
    <glyph glyph-name="two.num" 
d="M78 686v139l198 234q78 93 86 117t9 50q0 26 -23 48q-24 22 -66 20q-42 0 -130 -77l-84 114q113 117 228 117q114 0 178 -57t64 -159t-106 -222l-151 -172h258v-152h-461z" />
    <glyph glyph-name="three.num" 
d="M282 672q-122 0 -223 82l74 127q75 -59 133 -59q110 -1 111 91q0 86 -150 91h-37l-12 108l158 172h-240v150h436v-123l-174 -187q184 -33 185 -206q1 -114 -69 -180t-192 -66z" />
    <glyph glyph-name="four.num" 
d="M356 965v295h-8l-162 -295h170zM500 829v-145h-150v145h-293l-6 148l252 463h197v-475h73v-136h-73z" />
    <glyph glyph-name="five.num" 
d="M283 672q-117 0 -228 84l76 129q82 -63 145 -64q100 0 101 107q0 92 -98 92q-39 0 -93 -21l-96 50l31 385h387v-150h-256l-10 -131q41 10 77 10q99 0 161 -58t62 -176q0 -117 -70 -187q-72 -70 -189 -70z" />
    <glyph glyph-name="six.num" 
d="M223 932q1 -55 25 -86t64 -31t64 31t24 85t-25 83t-64 28q-88 0 -88 -110zM551 938q0 -122 -69 -194t-167 -72t-163 61q-88 84 -89 291v18q0 202 76 304t207 102q96 0 184 -57l-63 -131q-53 41 -123 40q-115 0 -123 -161q49 39 130 39t141 -58t59 -182z" />
    <glyph glyph-name="seven.num" 
d="M80 1278v156h457v-121l-248 -629h-174l243 594h-278z" />
    <glyph glyph-name="eight.num" 
d="M307 1010q-41 0 -67 -29t-27 -78q0 -49 26 -78q27 -29 69 -29t68 30q26 28 25 77q0 49 -26 78q-27 29 -68 29zM307 1323q-37 0 -61 -25q-24 -26 -23 -68q0 -42 24 -67q25 -25 61 -25t60 26q24 24 23 67q1 43 -23 67t-61 25zM307 672q-111 0 -181 61t-71 172
q0 111 105 174q-88 57 -88 155t66 157q67 57 169 57t169 -57t67 -155t-88 -157q104 -63 104 -173q-1 -110 -71 -172t-181 -62z" />
    <glyph glyph-name="nine.num" 
d="M303 1069q88 0 88 115q0 57 -24 89q-25 32 -64 32q-88 0 -88 -118t88 -118zM299 1448q98 0 164 -62q88 -84 88 -290v-19q0 -203 -76 -304q-75 -101 -193 -101t-206 61l57 133q70 -47 137 -47q115 0 121 154q-45 -39 -128 -39t-141 59t-58 185t68 198q69 72 167 72z" />
    <glyph glyph-name="zero.den" 
d="M395 383q0 227 -89 227t-89 -227v-18q0 -227 90 -228q88 0 88 228v18zM305 -14q-121 0 -187 96t-65 278v25q0 185 66 281q65 96 187 96t189 -96t66 -279v-25q1 -184 -67 -280t-189 -96z" />
    <glyph glyph-name="one.den" horiz-adv-x="499" 
d="M369 0h-170v580l-123 -54l-19 152l189 78h123v-756z" />
    <glyph glyph-name="one.den_alt" 
d="M557 0h-459v139h156v445l-143 -58l-19 150l207 80h121v-617h137v-139z" />
    <glyph glyph-name="two.den" 
d="M78 0v139l198 234q78 93 86 117t9 50q0 26 -23 47q-24 21 -66 21t-130 -78l-84 115q113 117 228 117q114 0 178 -57t64 -159t-106 -222l-151 -172h258v-152h-461z" />
    <glyph glyph-name="three.den" 
d="M282 -14q-122 0 -223 82l74 127q75 -59 133 -59q110 -1 111 91q0 86 -150 90h-37l-12 109l158 172h-240v150h436v-123l-174 -187q184 -33 185 -207q1 -113 -69 -179t-192 -66z" />
    <glyph glyph-name="four.den" 
d="M356 279v294h-8l-162 -294h170zM500 143v-145h-150v145h-293l-6 148l252 463h197v-475h73v-136h-73z" />
    <glyph glyph-name="five.den" 
d="M283 -14q-117 0 -228 84l76 129q82 -63 145 -64q100 0 101 107q0 92 -98 92q-39 0 -93 -21l-96 49l31 386h387v-150h-256l-10 -131q41 10 77 10q99 0 161 -58t62 -176q0 -117 -70 -187q-72 -70 -189 -70z" />
    <glyph glyph-name="six.den" 
d="M223 246q1 -55 25 -86t64 -31t64 31t24 85t-25 83t-64 28q-88 0 -88 -110zM551 252q0 -122 -69 -194t-167 -72t-163 61q-88 84 -89 291v18q0 203 76 304t207 102q96 0 184 -57l-63 -132q-53 41 -123 41q-115 0 -123 -161q49 39 130 39t141 -58t59 -182z" />
    <glyph glyph-name="seven.den" 
d="M80 592v156h457v-121l-248 -629h-174l243 594h-278z" />
    <glyph glyph-name="eight.den" 
d="M307 324q-41 0 -67 -29t-27 -78q0 -49 26 -78q27 -29 69 -29t68 30q26 28 25 77q0 49 -26 78q-27 29 -68 29zM307 637q-37 0 -61 -25q-24 -26 -23 -68q0 -42 24 -67q25 -25 61 -25t60 26q24 24 23 67q1 43 -23 67t-61 25zM307 -14q-111 0 -181 61t-71 172q0 111 105 174
q-88 57 -88 155t66 157q67 57 169 57t169 -57t67 -155t-88 -157q104 -63 104 -173q-1 -110 -71 -172t-181 -62z" />
    <glyph glyph-name="nine.den" 
d="M303 383q88 0 88 115q0 57 -24 89q-25 32 -64 31q-88 0 -88 -118t88 -117zM299 762q98 0 164 -62q88 -84 88 -290v-19q0 -203 -76 -304q-75 -101 -193 -101t-206 61l57 133q70 -47 137 -47q115 0 121 154q-45 -39 -128 -39t-141 59t-58 185t68 198q69 72 167 72z" />
    <glyph glyph-name="caron.alt" horiz-adv-x="1024" 
d="M582 1516v-5l-95 -344h-110l20 349h185z" />
    <glyph glyph-name="acute.cap" horiz-adv-x="1024" 
d="M309 1520l203 284l229 -108l-231 -176h-201z" />
    <glyph glyph-name="hungarumlaut.cap" horiz-adv-x="1024" 
d="M451 1520l202 284l213 -108l-225 -176h-190zM156 1520l202 284l211 -108l-225 -176h-188z" />
    <glyph glyph-name="grave.cap" horiz-adv-x="1024" 
d="M698 1520h-200l-232 176l230 108z" />
    <glyph glyph-name="circumflex.cap" horiz-adv-x="1024" 
d="M203 1520l192 266h234l192 -266h-198l-113 104l-113 -104h-194z" />
    <glyph glyph-name="caron.cap" horiz-adv-x="1024" 
d="M821 1786l-192 -266h-234l-192 266h198l113 -105l113 105h194z" />
    <glyph glyph-name="breve.cap" horiz-adv-x="1024" 
d="M512 1511q-127 0 -207 67t-86 189h170q21 -88 123 -88t123 88h170q-8 -125 -87 -191t-206 -65z" />
    <glyph glyph-name="tilde.cap" horiz-adv-x="1024" 
d="M358 1792q68 0 154 -37t112 -37t41 18t33 68l150 -39q-52 -245 -178 -245q-62 0 -166 41q-70 33 -100 33t-45 -19q-15 -18 -33 -68l-150 41q27 128 71 186q43 58 111 58z" />
    <glyph glyph-name="macron.cap" horiz-adv-x="1024" 
d="M211 1528v184h602v-184h-602z" />
    <glyph glyph-name="dieresis.cap" horiz-adv-x="1024" 
d="M207 1524v235h250v-235h-250zM567 1524v235h250v-235h-250z" />
    <glyph glyph-name="dotaccent.cap" horiz-adv-x="1024" 
d="M385 1524v235h254v-235h-254z" />
    <glyph glyph-name="ring.cap" horiz-adv-x="1024" 
d="M512 1610q43 0 71 26q27 26 27 67t-28 67t-70 26q-43 0 -71 -27q-27 -27 -27 -67t27 -66q28 -26 71 -26zM512 1511q-86 1 -146 55t-60 137t60 137t146 54t146 -54t60 -137t-60 -137t-146 -55z" />
    </font>
</defs>
</svg>
