<?xml version="1.0" standalone="no"?>
<!DOCTYPE svg PUBLIC "-//W3C//DTD SVG 1.1//EN" "http://www.w3.org/Graphics/SVG/1.1/DTD/svg11.dtd" >
<svg xmlns="http://www.w3.org/2000/svg">
<metadata>
Created by FontPrep 20130207 at Tue Oct  6 20:42:23 2015
 By Bryan Willis
Copyright (c) 1992 Adobe Systems Incorporated.  All Rights Reserved.Myriad is a trademark of Adobe Systems Incorporated.
</metadata>
<defs>
<font id="671d5eee5ee727f067519739df487e64" horiz-adv-x='1024' >
  <font-face 
    font-family="MyriadSetPro-Semibold"
    font-weight="600"
    font-stretch="normal"
    units-per-em="2048"
    panose-1="2 0 4 0 0 0 0 0 0 0"
    ascent="1638"
    descent="-410"
    x-height="995"
    cap-height="1380"
    bbox="-924 -717 2576 2273"
    underline-thickness="102"
    underline-position="-153"
    unicode-range="U+0020-FE48"
  />
<missing-glyph horiz-adv-x="1024" 
d="M256 129h512v1280h-512v-1280zM129 0v1536h768v-1536h-768z" />
    <glyph glyph-name="ff" unicode="ff" horiz-adv-x="1241" 
d="M1112 1475q112 0 191 -33l-52 -152q-55 23 -125 23q-123 0 -180 -69.5t-57 -205.5v-43h225v-161h-225v-834h-205v834h-315v-834h-205v834h-135v161h135v29q0 229 123 340t342 111q145 0 272 -50q99 50 211 50zM604 1313q-123 0 -179 -69.5t-56 -205.5v-43h315v15
q0 173 64 276q-64 27 -144 27z" />
    <glyph glyph-name="fi" unicode="fi" horiz-adv-x="1101" 
d="M963 0h-222v829h-356v-829h-221v829h-135v166h135v52q0 300 175 364t284 64q168 0 262 -64l-54 -168q-90 53 -213 53q-236 0 -235 -258v-43h580v-995z" />
    <glyph glyph-name="fl" unicode="fl" horiz-adv-x="1101" 
d="M963 0h-222v1280q-47 25 -135 25q-223 0 -223 -263v-47h213v-166h-211v-829h-221v829h-135v166h135v43q0 201 126.5 319t332.5 118t340 -72v-1403z" />
    <glyph glyph-name="ffi" unicode="ffi" horiz-adv-x="1613" 
d="M606 1313q-125 0 -181 -69.5t-56 -205.5v-43h317v15q0 173 64 276q-64 27 -144 27zM1164 1475q146 0 237 -56q0 -2 -58 -162q-84 49 -206 50q-246 0 -246 -267v-45h584v-995h-205v834h-379v-834h-205v834h-317v-834h-205v834h-135v161h135v33q0 217 129 332t346 115
q156 0 272 -52q107 52 253 52z" />
    <glyph glyph-name="ffl" unicode="ffl" horiz-adv-x="1613" 
d="M606 1313q-125 0 -181 -69.5t-56 -205.5v-43h317v15q0 173 64 276q-64 27 -144 27zM1173 1473q170 0 302 -70v-1403h-205v1286q-52 27 -144 27q-236 0 -235 -269v-49h215v-161h-215v-834h-205v834h-317v-834h-205v834h-135v161h135v27q0 220 128 336.5t341 116.5
q149 0 272 -52q98 50 268 50z" />
    <glyph glyph-name=".notdef" horiz-adv-x="1024" 
d="M256 129h512v1280h-512v-1280zM129 0v1536h768v-1536h-768z" />
    <glyph glyph-name="uni0000" horiz-adv-x="0" 
 />
    <glyph glyph-name="uni0000" horiz-adv-x="0" 
 />
    <glyph glyph-name="nonmarkingreturn" horiz-adv-x="483" 
 />
    <glyph glyph-name="space" unicode=" " horiz-adv-x="483" 
 />
    <glyph glyph-name="exclam" unicode="!" horiz-adv-x="493" 
d="M387 122.5q0 -63.5 -40 -104.5t-102 -41t-100.5 42.5t-38.5 104.5t39 104t101 42t101.5 -42t39.5 -105.5zM365 1380l-33 -966h-172l-33 966h238z" />
    <glyph glyph-name="quotedbl" unicode="&#x22;" horiz-adv-x="727" 
d="M301 1417l-37 -512h-133l-39 512h209zM633 1417l-37 -512h-133l-37 512h207z" />
    <glyph glyph-name="numbersign" unicode="#" horiz-adv-x="1038" 
d="M639 809h-201l-35 -277h201zM967 809h-187l-37 -277h172v-141h-194l-51 -391h-142l52 391h-199l-53 -391h-142l54 391h-166v141h188l37 277h-174v141h194l54 381h139l-53 -381h203l51 381h141l-53 -381h166v-141z" />
    <glyph glyph-name="dollar" unicode="$" horiz-adv-x="1062" 
d="M926 393q0 -133 -87 -231t-245 -125v-213h-152v203q-190 4 -317 88l53 170q141 -88 303 -88q100 0 162 49t62 127q0 137 -222 223q-170 68 -257 150t-87 211q0 130 86 222.5t232 118.5v201h151v-192q152 -4 271 -68l-54 -166q-133 70 -249 70t-166 -47t-50 -113
t56 -111.5t206 -107.5t227 -150t77 -221z" />
    <glyph glyph-name="percent" unicode="%" horiz-adv-x="1658" 
d="M545 944q0 281 -158 281q-86 0 -127 -107q-29 -76 -29 -178t31 -176q41 -100 127 -100q156 -1 156 280zM1430 393q0 281 -158 281q-86 0 -127 -107q-29 -78 -29 -179t31 -175q43 -100 129 -100q154 -1 154 280zM713 955q0 -169 -84 -293t-244 -125q-160 0 -243 119
q-83 120 -83 286t86 289t247 123t241 -115t80 -284zM1278 1354l-772 -1379h-131l774 1379h129zM1271 -16q-159 0 -243 119t-84 285t86 290q86 123 248 123q162 -1 240 -115t79 -283q0 -169 -77 -284q-90 -135 -249 -135z" />
    <glyph glyph-name="ampersand" unicode="&#x26;" horiz-adv-x="1271" 
d="M274 401q0 -115 74 -186t205 -71t229 104q-147 160 -356 403q-152 -102 -152 -250zM717 1092q0 70 -39 116.5t-109 46.5t-110.5 -53t-40.5 -127q0 -111 100 -231q199 121 199 248zM63 367q0 254 263 399l2 6q-113 138 -113 280t94 240q102 111 258 111t248 -83t92 -220
q0 -215 -289 -365l-2 -6q109 -127 299 -344q86 135 123 381h201q-57 -342 -207 -514l232 -252h-260q-39 39 -115 123q-162 -145 -378 -145t-332 113q-116 114 -116 276z" />
    <glyph glyph-name="quotesingle" unicode="'" horiz-adv-x="393" 
d="M301 1417l-37 -512h-133l-39 512h209z" />
    <glyph glyph-name="parenleft" unicode="(" horiz-adv-x="595" 
d="M127 586q0 484 254 833h166q-240 -343 -240 -825t240 -838h-166q-254 346 -254 830z" />
    <glyph glyph-name="parenright" unicode=")" horiz-adv-x="595" 
d="M289 588q0 480 -238 831h164q256 -342 255 -826t-255 -837h-164q238 352 238 832z" />
    <glyph glyph-name="asterisk" unicode="*" horiz-adv-x="870" 
d="M809 948l-313 45v-6l204 -248l-145 -84l-123 297l-4 -2l-127 -295l-135 84l203 250l-2 6l-308 -47v162l306 -47v4l-199 252l143 82l123 -293h4l121 295l141 -80l-202 -262l313 49v-162z" />
    <glyph glyph-name="plus" unicode="+" horiz-adv-x="1220" 
d="M1139 475h-453v-475h-151v475h-453v143h453v472h151v-472h453v-143z" />
    <glyph glyph-name="comma" unicode="," horiz-adv-x="456" 
d="M393 289q-98 -328 -217 -525l-151 -14q90 248 131 518z" />
    <glyph glyph-name="hyphen" unicode="-" horiz-adv-x="632" 
d="M571 471h-510v156h510v-156z" />
    <glyph glyph-name="period" unicode="." horiz-adv-x="456" 
d="M387 126q0 -64 -39 -106.5t-102 -42.5t-102.5 43.5t-39.5 105.5t40 105t102 43t101.5 -42t39.5 -106z" />
    <glyph glyph-name="slash" unicode="/" horiz-adv-x="686" 
d="M690 1403l-522 -1485h-160l522 1485h160z" />
    <glyph glyph-name="zero" unicode="0" horiz-adv-x="1062" 
d="M768 666q0 516 -238 516q-139 0 -200 -207q-39 -133 -39 -315.5t39 -311.5q59 -199 200 -198q238 0 238 516zM991 670q0 -278 -92 -459q-119 -233 -369 -233t-368 235q-92 179 -92 451t98 456q123 234 371 234t364 -230q88 -176 88 -454z" />
    <glyph glyph-name="one" unicode="1" horiz-adv-x="1062" 
d="M690 0h-213v1128h-4l-237 -122l-41 168l309 157h186v-1331z" />
    <glyph glyph-name="two" unicode="2" horiz-adv-x="1062" 
d="M954 0h-866v135l150 144q258 252 362 388t102 267q2 238 -241 237q-139 0 -279 -108l-65 158q162 133 377 133t323 -115q109 -115 109 -282t-117 -336q-92 -137 -301 -332l-109 -101v-4h555v-184z" />
    <glyph glyph-name="three" unicode="3" horiz-adv-x="1062" 
d="M934 379q0 -172 -133 -287t-359 -115t-360 91l51 168q135 -80 285 -80t218 68q70 68 70 175t-100 172q-84 59 -217 60h-104v162h102q104 0 189 52q86 52 86 141t-55.5 139.5t-179.5 50.5t-247 -84l-51 161q141 101 345 101t308 -94t105 -228q0 -223 -242 -313v-4
q125 -23 207 -113t82 -223z" />
    <glyph glyph-name="four" unicode="4" horiz-adv-x="1062" 
d="M635 518v391q0 99 6 224l-6 2q-35 -76 -115 -217l-268 -400h383zM1018 348h-174v-348h-209v348h-598v146l553 837h254v-813h174v-170z" />
    <glyph glyph-name="five" unicode="5" horiz-adv-x="1062" 
d="M936 436q0 -197 -143.5 -328t-360.5 -131t-348 78l49 170q125 -71 265 -71t226.5 71.5t86.5 192.5q-2 272 -375 272q-88 0 -178 -12l86 653h657v-184h-500l-43 -295q47 6 97 6q176 0 305 -80q176 -113 176 -342z" />
    <glyph glyph-name="six" unicode="6" horiz-adv-x="1062" 
d="M774 439q0 126 -65.5 202t-176.5 76q-158 0 -229 -146q-18 -37 -16 -79q1 -146 67 -246t184 -100t176 83q60 84 60 210zM998.5 450.5q-0.5 -194.5 -124.5 -333.5t-337 -139t-342 157.5t-129 411.5q0 377 227 600q202 197 573 205v-178q-59 2 -129 -9q-195 -27 -306 -143
t-138 -279h6q111 137 294 137t294.5 -117.5t111 -312z" />
    <glyph glyph-name="seven" unicode="7" horiz-adv-x="1062" 
d="M109 1147v184h860v-143l-559 -1188h-232l557 1147h-626z" />
    <glyph glyph-name="eight" unicode="8" horiz-adv-x="1062" 
d="M768 350q0 193 -258 268q-94 -28 -152 -94t-59 -162q0 -96 66.5 -161.5t168.5 -65.5t168 58.5t66 156.5zM735 999q0 90 -54 144.5t-143 54.5t-146.5 -52t-57.5 -140q0 -160 225 -226q176 59 176 219zM991 371q0 -185 -137 -289q-138 -104 -324 -104t-313 90
q-145 100 -145 272q0 240 252 352v6q-205 98 -205 295q0 169 126 265t294 96q167 0 285 -87t118 -245q0 -203 -207 -305v-6q256 -102 256 -340z" />
    <glyph glyph-name="nine" unicode="9" horiz-adv-x="1062" 
d="M766 827q0 150 -51 244q-63 117 -180 117t-179 -86t-61 -205q0 -119 62.5 -191.5t166.5 -72.5q158 0 228 121q14 26 14 73zM991 788q0 -332 -160 -542q-170 -227 -487 -258q-100 -10 -156 -8v180q49 -6 140 4q158 16 268 112q135 117 170 320h-4q-109 -125 -288 -125
t-288.5 114.5t-109.5 302.5t130 326t338 140q208 0 328 -156t119 -410z" />
    <glyph glyph-name="colon" unicode=":" horiz-adv-x="456" 
d="M383 124q0 -64 -39 -105.5t-101 -41.5t-100.5 42.5t-38.5 104.5t39 105t101 43t100.5 -42t38.5 -106zM385 828q0 -64 -39 -105t-101 -41t-100.5 42t-38.5 104t39 105.5t101 43.5t100.5 -42.5t38.5 -106.5z" />
    <glyph glyph-name="semicolon" unicode=";" horiz-adv-x="456" 
d="M391 289q-96 -328 -215 -525l-151 -14q90 248 131 518zM399 828q0 -64 -38.5 -105t-100.5 -41t-100.5 42t-38.5 104t39 105.5t101 43.5t100 -42.5t38 -106.5z" />
    <glyph glyph-name="less" unicode="&#x3c;" horiz-adv-x="1220" 
d="M1092 0l-963 479v131l963 480v-166l-783 -377v-4l783 -377v-166z" />
    <glyph glyph-name="equal" unicode="=" horiz-adv-x="1220" 
d="M1139 274h-1057v144h1057v-144zM1139 682h-1057v143h1057v-143z" />
    <glyph glyph-name="greater" unicode="&#x3e;" horiz-adv-x="1220" 
d="M1092 475l-963 -475v166l793 377v4l-793 377v166l963 -476v-139z" />
    <glyph glyph-name="question" unicode="?" horiz-adv-x="843" 
d="M514 124q0 -64 -39 -105.5t-101 -41.5t-101.5 42.5t-39.5 104.5t40.5 104t102.5 42t100 -41t38 -105zM399 1405q177 0 269 -89q92 -90 92 -202t-43 -188t-131 -181q-117 -137 -111 -288l2 -47h-194l-7 51q-14 178 122 343t137 263q0 156 -179 158q-119 0 -200 -62
l-56 160q121 82 299 82z" />
    <glyph glyph-name="at" unicode="@" horiz-adv-x="1511" 
d="M854 942q-123 0 -210 -103.5t-87 -245.5t123 -142q74 0 138.5 79.5t82.5 176.5l39 223q-39 12 -86 12zM1432 832q0 -240 -106.5 -374t-263.5 -134t-157 172h-6q-104 -172 -278 -172q-94 0 -157 69.5t-63 188.5q0 197 135 341t345 144q133 0 223 -45l-68 -375
q-10 -63 -10 -106q0 -104 68 -107q82 -2 148 99t65 272q0 221 -129 358t-369 137t-415 -186t-175 -485q1 -251 145 -399t373 -148q174 0 303 70l33 -97q-156 -80 -364 -80q-257 0 -437 176q-180 175 -180 483t208 538t538 231q264 0 429 -165.5t165 -405.5z" />
    <glyph glyph-name="A" unicode="A" horiz-adv-x="1259" 
d="M807 575l-117 361q-18 55 -69 260h-5q-20 -88 -65 -260l-115 -361h371zM1210 0h-235l-129 406h-449l-123 -406h-229l444 1380h275z" />
    <glyph glyph-name="B" unicode="B" horiz-adv-x="1136" 
d="M823 399q0 125 -91 185t-234 61h-131v-481q41 -8 159 -8t199 55q98 63 98 188zM782 1022q0 203 -270 203q-94 0 -145 -13v-405h137q129 0 203.5 59.5t74.5 155.5zM1055 380q0 -152 -125 -263q-143 -129 -492 -129q-160 0 -291 16v1358q139 29 369 29t360 -92.5
t130 -254.5q0 -98 -60.5 -179t-169.5 -120v-6q117 -29 193 -110q86 -97 86 -249z" />
    <glyph glyph-name="C" unicode="C" horiz-adv-x="1169" 
d="M305 691q0 -249 129 -387t359 -138q162 0 272 51l39 -176q-123 -59 -350 -59q-310 0 -496 185t-186 513t202 524t517 197q208 -1 319 -60l-49 -178q-115 53 -262 54q-223 -1 -359 -139t-135 -387z" />
    <glyph glyph-name="D" unicode="D" horiz-adv-x="1355" 
d="M1049 703q0 256 -128 385t-374 129q-104 0 -178 -15v-1032q41 -6 149 -6q254 0 392.5 141.5t138.5 397.5zM1282 723q0 -373 -215 -554t-596 -181q-188 0 -324 16v1358q176 29 381 29q362 0 547 -158q207 -178 207 -510z" />
    <glyph glyph-name="E" unicode="E" horiz-adv-x="1015" 
d="M942 0h-795v1380h766v-182h-544v-389h514v-182h-514v-445h573v-182z" />
    <glyph glyph-name="F" unicode="F" horiz-adv-x="1005" 
d="M909 1198h-540v-416h501v-180h-501v-602h-222v1380h762v-182z" />
    <glyph glyph-name="G" unicode="G" horiz-adv-x="1318" 
d="M819 1395q215 0 346 -64l-49 -180q-127 57 -301 57q-231 0 -371 -136t-139.5 -382t132.5 -384t356 -138q139 0 200 29v374h-252v174h465v-684q-201 -76 -424 -75q-332 0 -522 183t-188 508q0 325 205.5 521.5t541.5 196.5z" />
    <glyph glyph-name="H" unicode="H" horiz-adv-x="1335" 
d="M1188 0h-221v623h-598v-623h-222v1380h222v-563h598v563h221v-1380z" />
    <glyph glyph-name="I" unicode="I" horiz-adv-x="516" 
d="M369 0h-222v1380h222v-1380z" />
    <glyph glyph-name="J" unicode="J" horiz-adv-x="770" 
d="M637 469q0 -492 -434 -492q-117 0 -199 33l29 178q70 -25 147 -24q119 0 177 70t59 245v901h221v-911z" />
    <glyph glyph-name="K" unicode="K" horiz-adv-x="1140" 
d="M367 0h-220v1380h220v-647h6q53 84 102 150l375 497h272l-475 -587l508 -793h-260l-403 649l-125 -147v-502z" />
    <glyph glyph-name="L" unicode="L" horiz-adv-x="974" 
d="M932 0h-785v1380h222v-1194h563v-186z" />
    <glyph glyph-name="M" unicode="M" horiz-adv-x="1646" 
d="M1534 0h-215l-29 578q-20 391 -18 581h-6q-66 -244 -162 -522l-215 -625h-168l-197 615q-88 279 -143 532h-4q-10 -311 -25 -592l-33 -567h-206l92 1380h284l199 -598q74 -221 129 -475h6q66 264 140 475l206 598h285z" />
    <glyph glyph-name="N" unicode="N" horiz-adv-x="1343" 
d="M1198 0h-227l-381 641q-154 260 -246 471l-6 -2q14 -231 14 -586v-524h-205v1380h246l381 -632q133 -221 236 -457l4 2q-23 233 -23 573v514h207v-1380z" />
    <glyph glyph-name="O" unicode="O" horiz-adv-x="1396" 
d="M1090 692q0 209 -93 357q-106 176 -302 176t-302 -181q-90 -147 -90 -356t92 -356q109 -176 305 -176t301 180q89 147 89 356zM1325 697q0 -305 -166 -512t-463 -207t-461 202q-163 203 -163 503t170 510t463 210t462 -209q158 -192 158 -497z" />
    <glyph glyph-name="P" unicode="P" horiz-adv-x="1105" 
d="M811 966q0 124 -77.5 188.5t-193.5 64.5t-173 -13v-495q47 -12 129 -13q147 0 231 72t84 196zM508 1391q262 0 392 -112t130 -301t-112 -304q-145 -150 -424 -150q-82 0 -127 11v-535h-220v1362q158 29 361 29z" />
    <glyph glyph-name="Q" unicode="Q" horiz-adv-x="1396" 
d="M1092 692q0 209 -91 357q-106 176 -302 176t-302 -181q-92 -150 -92 -358t92 -356q109 -174 305 -174t302 180q88 147 88 356zM72 679q0 323 177 523.5t460 200.5t449 -197t167 -501q0 -248 -99 -416t-263 -230v-8q175 -49 372 -86l-63 -178q-250 68 -522 170
q-51 18 -84 20q-254 12 -416 189q-178 190 -178 513z" />
    <glyph glyph-name="R" unicode="R" horiz-adv-x="1122" 
d="M809 985q0 236 -283 238q-106 0 -159 -15v-465h155q131 0 209 66.5t78 175.5zM504 580h-137v-580h-220v1362q152 29 359 29q280 -1 402 -105t122 -278q0 -126 -72 -218t-180 -131v-4q141 -53 195 -274q78 -326 106 -381h-229q-33 61 -90 328q-29 139 -87.5 195.5
t-168.5 56.5z" />
    <glyph glyph-name="S" unicode="S" horiz-adv-x="1021" 
d="M940 370q0 -160 -129 -275t-361 -115t-368 86l51 184q145 -86 295 -86t219.5 56t69.5 146t-57.5 146.5t-190.5 105.5q-362 135 -363 396q0 170 128 278.5t328 108.5t325 -66l-56 -180q-117 63 -249 63t-192 -54t-60 -132t59 -129t221 -115t246 -161t84 -257z" />
    <glyph glyph-name="T" unicode="T" horiz-adv-x="1032" 
d="M1022 1194h-395v-1194h-224v1194h-393v186h1012v-186z" />
    <glyph glyph-name="U" unicode="U" horiz-adv-x="1323" 
d="M1178 580q0 -306 -142 -454t-387 -149q-504 0 -504 598v805h222v-817q0 -203 82 -307q74 -98 208 -98q299 0 299 405v817h222v-800z" />
    <glyph glyph-name="V" unicode="V" horiz-adv-x="1175" 
d="M1174 1380l-472 -1380h-249l-441 1380h242l192 -647q98 -326 138 -508h4q43 195 143 506l207 649h236z" />
    <glyph glyph-name="W" unicode="W" horiz-adv-x="1734" 
d="M1714 1380l-373 -1380h-233l-152 672q-59 260 -82 442h-4q-29 -178 -96 -442l-172 -672h-235l-336 1380h235l142 -653q49 -229 92 -479h4q27 166 104 481l160 651h229l146 -657q61 -268 88 -471h4q35 209 90 444l164 684h225z" />
    <glyph glyph-name="X" unicode="X" horiz-adv-x="1171" 
d="M1130 0h-256l-155 289q-51 90 -144 262h-4q-14 -37 -131 -264l-145 -287h-252l406 700l-390 680h252l160 -299q66 -125 117 -231h4q49 111 113 231l159 299h252l-401 -673z" />
    <glyph glyph-name="Y" unicode="Y" horiz-adv-x="1126" 
d="M672 0h-221v578l-428 802h251l172 -362q78 -166 125 -281h4q43 113 123 281l174 362h250l-450 -796v-584z" />
    <glyph glyph-name="Z" unicode="Z" horiz-adv-x="1122" 
d="M1061 0h-1006v125l711 1071h-649v184h934v-133l-703 -1063h713v-184z" />
    <glyph glyph-name="bracketleft" unicode="[" horiz-adv-x="595" 
d="M543 -229h-387v1634h387v-133h-219v-1368h219v-133z" />
    <glyph glyph-name="backslash" unicode="\" horiz-adv-x="696" 
d="M688 -82h-160l-520 1485h162z" />
    <glyph glyph-name="bracketright" unicode="]" horiz-adv-x="595" 
d="M440 -229h-385v133h217v1368h-217v133h385v-1634z" />
    <glyph glyph-name="asciicircum" unicode="^" horiz-adv-x="1220" 
d="M1108 379h-168l-328 772h-6l-327 -772h-166l424 952h147z" />
    <glyph glyph-name="underscore" unicode="_" horiz-adv-x="1024" 
d="M1024 -256h-1024v102h1024v-102z" />
    <glyph glyph-name="grave" unicode="`" 
d="M438 1116h-153l-248 297h223z" />
    <glyph glyph-name="a" unicode="a" horiz-adv-x="1003" 
d="M655 342v154q-369 6 -368 -201q0 -78 42.5 -117t112.5 -39t141.5 52.5t71.5 150.5zM649 662q0 197 -207 196q-147 0 -260 -74l-45 146q139 86 342 86q391 0 391 -412v-366q1 -150 15 -238h-199l-16 115h-6q-102 -137 -291 -138q-141 1 -223 87t-82 206q0 182 152.5 278.5
t428.5 94.5v19z" />
    <glyph glyph-name="b" unicode="b" horiz-adv-x="1163" 
d="M864 496q0 154 -68 249q-68 96 -192 97q-82 0 -161 -64.5t-83 -199.5v-175q0 -102 69 -175.5t183 -73.5t183 94t69 248zM1090 500q0 -240 -140 -389q-123 -133 -301 -134q-213 0 -313 177h-4l-13 -154h-188q8 121 8 268v1184h221v-602h5q98 166 317 166q180 0 294 -138
t114 -378z" />
    <glyph glyph-name="c" unicode="c" horiz-adv-x="899" 
d="M614 842q-145 0 -230 -97t-85 -251t89 -246t226 -92q102 0 201 41l31 -166q-109 -51 -275 -51q-227 0 -362 138t-135 369.5t145.5 380t390.5 148.5q140 0 240 -47l-43 -168q-84 41 -193 41z" />
    <glyph glyph-name="d" unicode="d" horiz-adv-x="1155" 
d="M795 420v166q0 127 -74 192.5t-160 65.5q-123 0 -193.5 -98.5t-70.5 -248.5q0 -149 70 -245q71 -96 185 -96t178 79t65 185zM74 494q0 234 129 383q125 139 317 139t271 -135h4v571h221v-1184q0 -145 8 -268h-197l-10 160h-6q-94 -182 -319 -183q-180 0 -299 141.5
t-119 375.5z" />
    <glyph glyph-name="e" unicode="e" horiz-adv-x="1026" 
d="M534 864q-114 0 -182 -90q-55 -72 -65 -172h461q2 98 -43 170q-57 92 -171 92zM958 545q0 -59 -8 -101h-663q4 -147 92 -221q88 -73 228 -73t261 47l35 -154q-141 -61 -353 -61t-344 136t-132 363t126 382t343 155t327 -160q88 -127 88 -313z" />
    <glyph glyph-name="f" unicode="f" horiz-adv-x="624" 
d="M557 1296q-174 0 -174 -249v-52h223v-166h-221v-829h-221v829h-135v166h135v45q0 227 117 340q98 94 249 95q88 0 156 -27l-20 -172q-49 20 -109 20z" />
    <glyph glyph-name="g" unicode="g" horiz-adv-x="1142" 
d="M782 426v176q0 100 -62 172t-170 72t-180.5 -94.5t-72.5 -244.5q0 -151 69 -243t189 -92q74 0 150.5 58t76.5 196zM1004 713v-570q0 -322 -144 -450q-131 -119 -353 -119t-349 78l51 170q125 -76 283 -76q293 0 292 315v97h-4q-92 -152 -282 -152t-307 137t-117 363
t130 368t322 142t279 -158h4l8 137h195q-8 -121 -8 -282z" />
    <glyph glyph-name="h" unicode="h" horiz-adv-x="1138" 
d="M1004 0h-222v567q0 268 -200 269q-154 0 -211 -156q-10 -33 -11 -80v-600h-221v1452h221v-598h5q104 162 299 162q137 0 227 -90q113 -113 113 -334v-592z" />
    <glyph glyph-name="i" unicode="i" horiz-adv-x="499" 
d="M360 0h-221v995h221v-995zM385 1291q0 -58 -39 -95t-97 -37t-96 38t-38 95.5t39 94t96 36.5t96 -37t39 -95z" />
    <glyph glyph-name="j" unicode="j" horiz-adv-x="522" 
d="M387 96q0 -292 -119 -410t-334 -120l-22 174q133 10 188 74q66 72 66 352v829h221v-899zM412 1291q0 -58 -39 -95t-97 -37t-96.5 38t-38.5 95.5t39.5 94t97.5 36.5t96 -37t38 -95z" />
    <glyph glyph-name="k" unicode="k" horiz-adv-x="993" 
d="M360 0h-221v1452h221v-901h5q41 66 79 115l256 329h265l-367 -409l418 -586h-271l-301 455l-84 -103v-352z" />
    <glyph glyph-name="l" unicode="l" horiz-adv-x="499" 
d="M360 0h-221v1452h221v-1452z" />
    <glyph glyph-name="m" unicode="m" horiz-adv-x="1697" 
d="M1565 0h-217v559q0 276 -189 277q-90 0 -144 -69t-54 -161v-606h-218v588q0 113 -46 180.5t-136 67.5t-147.5 -74t-57.5 -168v-594h-217v711q0 131 -8 284h191l10 -149h6q102 170 304 170t273 -187h5q112 185 319 187q133 0 219 -90q106 -113 107 -336v-590z" />
    <glyph glyph-name="n" unicode="n" horiz-adv-x="1138" 
d="M1004 0h-222v571q0 264 -200 265q-98 0 -160 -73t-62 -171v-592h-221v711q0 131 -8 284h195l10 -153h6q39 72 122 123q84 51 208 51t217 -90q115 -111 115 -330v-596z" />
    <glyph glyph-name="o" unicode="o" horiz-adv-x="1120" 
d="M819 499.5q0 137.5 -59 235.5q-70 119 -201 119t-201 -119q-59 -98 -59 -237q-1 -139 65 -248t194 -109t200 121q61 100 61 237.5zM565 1016q223 0 353 -144t131 -369q0 -226 -134 -376q-133 -150 -357 -150t-354 145.5t-130 371.5t134 374t357 148z" />
    <glyph glyph-name="p" unicode="p" horiz-adv-x="1163" 
d="M864 496q0 152 -65 245q-72 98 -193 99q-82 0 -161.5 -65t-84.5 -200v-165q0 -109 67 -183.5t183 -74.5t185 96t69 248zM1090 496q0 -240 -130 -379t-320 -139t-275 141h-5v-525h-221v1074q0 160 -8 327h195l12 -157h4q111 178 336 178q176 0 294 -140t118 -380z" />
    <glyph glyph-name="q" unicode="q" horiz-adv-x="1153" 
d="M795 410v180q0 102 -64.5 177t-178.5 75t-183.5 -97t-69.5 -249q-1 -152 67 -247t191 -95q78 0 139.5 47t85.5 129q13 41 13 80zM1016 711v-1117h-221v547h-4q-96 -164 -308 -164q-172 0 -290.5 139.5t-118.5 379.5t141 391q123 129 297 129q203 0 289 -158h4l8 137h211
q-8 -170 -8 -284z" />
    <glyph glyph-name="r" unicode="r" horiz-adv-x="694" 
d="M596 807q-117 0 -176 -83t-60 -202v-522h-221l2 682q0 172 -8 313h193l8 -190h6q35 98 111 158q74 53 159 53q31 0 56 -4v-211q-33 6 -70 6z" />
    <glyph glyph-name="s" unicode="s" horiz-adv-x="823" 
d="M748 287q0 -139 -102 -223t-278 -84t-294 67l47 164q115 -70 244 -70q170 0 170 125q0 55 -37 91t-131 71q-266 98 -267 287q0 129 99 215t253 86t259 -60l-47 -157q-96 57 -184 57t-127.5 -32.5t-39.5 -84t38 -83.5t138 -68q259 -98 259 -301z" />
    <glyph glyph-name="t" unicode="t" horiz-adv-x="694" 
d="M641 829h-244v-483q0 -184 129 -184q59 0 99 10l6 -168q-67 -24 -185 -24t-192 79.5t-74 268.5v501h-145v166h145v183l217 65v-248h244v-166z" />
    <glyph glyph-name="u" unicode="u" horiz-adv-x="1130" 
d="M133 995h221v-549q0 -287 197 -286q147 0 205 143q14 37 14 84v608h221v-708q0 -142 8 -287h-194l-12 152h-5q-104 -174 -315 -175q-147 0 -235 93q-104 113 -105 340v585z" />
    <glyph glyph-name="v" unicode="v" horiz-adv-x="1001" 
d="M981 995l-377 -995h-215l-364 995h237l170 -526q43 -131 72 -252h6q25 109 72 252l168 526h231z" />
    <glyph glyph-name="w" unicode="w" horiz-adv-x="1501" 
d="M1473 995l-312 -995h-203l-129 432q-49 162 -79 322h-5q-29 -164 -79 -322l-138 -432h-204l-293 995h227l113 -473q41 -168 67 -319h4q25 125 82 317l142 475h180l135 -465q49 -170 80 -327h6q23 154 68 327l120 465h218z" />
    <glyph glyph-name="x" unicode="x" horiz-adv-x="970" 
d="M950 0h-250l-129 209q-43 70 -94 166h-4q-31 -59 -94 -166l-123 -209h-242l340 508l-327 487h245l125 -198q37 -57 92 -158h7q45 88 90 162l116 194h242l-330 -479z" />
    <glyph glyph-name="y" unicode="y" horiz-adv-x="983" 
d="M389 33q0 14 -12 47l-361 915h244l189 -555q27 -76 59 -196h4q18 66 55 198l168 553h236l-252 -690q-180 -489 -338 -631q-117 -104 -244 -125l-53 187q76 22 156 84t133 168q16 31 16 45z" />
    <glyph glyph-name="z" unicode="z" horiz-adv-x="888" 
d="M850 0h-811v129l397 522q37 49 135 162v4h-493v178h762v-137l-389 -514q-66 -84 -136 -162v-4h535v-178z" />
    <glyph glyph-name="braceleft" unicode="{" horiz-adv-x="595" 
d="M541 -229h-52q-299 0 -299 280q0 55 14.5 165t14.5 165q0 145 -162 147v121q162 2 162 148q0 57 -14.5 168.5t-14.5 167.5q0 272 299 272h52v-133h-37q-147 0 -148 -164q0 -47 13.5 -143.5t13.5 -145.5q2 -188 -156 -227v-4q158 -39 156 -230q0 -47 -13.5 -143
t-13.5 -145q0 -168 150 -168h35v-131z" />
    <glyph glyph-name="bar" unicode="|" horiz-adv-x="512" 
d="M338 -512h-164v2048h164v-2048z" />
    <glyph glyph-name="braceright" unicode="}" horiz-adv-x="595" 
d="M379 381q0 -55 14.5 -165t14.5 -165q0 -281 -302 -280h-51v131h37q147 0 148 168q0 49 -12.5 145t-14.5 143q-2 190 156 230v4q-158 39 -156 227q2 49 14.5 144.5t12.5 144.5q0 164 -148 164h-37v133h51q301 0 302 -272q0 -55 -14.5 -167t-14.5 -169q0 -145 160 -148
v-121q-160 -2 -160 -147z" />
    <glyph glyph-name="asciitilde" unicode="~" horiz-adv-x="1220" 
d="M356 590q-106 0 -112 -170h-146q-4 162 68 247t180 85t286 -90t245 -91q98 0 100 172h145q8 -174 -61 -254q-69 -79 -181 -79t-290 90t-234 90z" />
    <glyph glyph-name="uni00A0" unicode="&#xa0;" horiz-adv-x="483" 
 />
    <glyph glyph-name="exclamdown" unicode="&#xa1;" horiz-adv-x="493" 
d="M367 -395h-238l33 960h170zM387 858.5q0 -63.5 -39 -104.5t-101 -41t-101.5 41t-39.5 104.5t40 104.5t102 41t100.5 -41t38.5 -104.5z" />
    <glyph glyph-name="cent" unicode="&#xa2;" horiz-adv-x="1062" 
d="M698 -27h-151v205q-190 27 -298 154t-108 329t110 340.5t296 172.5v202h151v-196q117 -4 209 -47l-43 -166q-82 45 -174 45q-162 0 -243.5 -96.5t-81.5 -244.5q0 -149 83.5 -238t205.5 -89t227 47l32 -162q-92 -47 -215 -53v-203z" />
    <glyph glyph-name="sterling" unicode="&#xa3;" horiz-adv-x="1062" 
d="M973 0h-864v123q98 47 162.5 139t64.5 180t-8 146h-203v155h178q-20 119 -20 203q0 182 114.5 295t294.5 113q141 0 226 -49l-44 -170q-70 41 -176 41q-209 0 -209 -234q0 -88 23 -199h285v-155h-265q8 -130 -18 -224t-121 -178v-4h580v-182z" />
    <glyph glyph-name="currency" unicode="&#xa4;" horiz-adv-x="1062" 
d="M434 676v-33q0 -33 2 -49h398l-27 -115h-361q55 -330 283 -329q104 0 205 57l35 -160q-100 -70 -250 -70q-203 0 -331 131.5t-163 370.5h-164l27 115h127q-2 14 -2 18v39q0 57 6 113h-158l27 115h148q47 227 181 351t331 124q154 0 247 -64l-45 -166q-96 57 -196 58
q-236 0 -299 -303h442l-27 -115h-432q-4 -54 -4 -88z" />
    <glyph glyph-name="yen" unicode="&#xa5;" horiz-adv-x="1062" 
d="M940 723v-115h-315v-143h315v-115h-315v-350h-209v350h-314v115h314v143h-314v115h256l-335 608h237l184 -389q35 -76 84 -201h4q10 33 32 83t52 120l191 387h231l-354 -608h256z" />
    <glyph glyph-name="brokenbar" unicode="&#xa6;" horiz-adv-x="512" 
d="M338 -358h-164v716h164v-716zM338 666h-164v716h164v-716z" />
    <glyph glyph-name="section" unicode="&#xa7;" horiz-adv-x="1075" 
d="M791 578q0 111 -168 176q-86 29 -252 102q-86 -57 -86 -143q0 -106 200 -181q82 -31 234 -96q72 52 72 142zM969 600q0 -142 -140 -240q82 -70 82 -184q0 -156 -122 -235t-283 -78q-213 0 -338 86l53 139q123 -82 281 -82q92 0 151.5 39t59.5 106t-52.5 108.5
t-210.5 95.5t-237 116q-104 82 -104 219t155 232q-78 61 -78 188t113 207t283 80t292 -64l-45 -141q-109 63 -223 63t-169.5 -36.5t-55.5 -98.5t63 -104q47 -33 197 -81t227 -112q101 -81 101 -223z" />
    <glyph glyph-name="dieresis" unicode="&#xa8;" 
d="M225 1246q0 -48 -31.5 -80.5t-78.5 -32.5t-80 33.5t-33 80.5t33 81t81 34t78.5 -34t30.5 -82zM610 1246q0 -48 -31.5 -80.5t-79.5 -32.5t-80 33.5t-32 80.5t33 81t81 34t78.5 -34t30.5 -82z" />
    <glyph glyph-name="copyright" unicode="&#xa9;" horiz-adv-x="1386" 
d="M352 689q0 165 116 271t280 105q164 0 223 -55l-27 -92q-82 49 -207 49t-195.5 -76t-70.5 -199q0 -124 74 -202q73 -78 201 -78t208 53l27 -88q-96 -63 -261 -63t-266.5 105t-101.5 270zM1204 694q0 221 -145.5 379t-364.5 158t-363.5 -159t-144.5 -380t146.5 -377.5
t366 -156.5t362.5 157.5t143 378.5zM1317 695q0 -261 -179.5 -447.5t-441.5 -186.5t-444 185.5t-182 448.5t183 447.5t444 184.5t440.5 -185.5t179.5 -446.5z" />
    <glyph glyph-name="ordfeminine" unicode="&#xaa;" horiz-adv-x="720" 
d="M473 866q-125 0 -186.5 -29.5t-61.5 -95.5q0 -43 31 -69.5t79 -26.5t93 34t45 87v100zM629 702q0 -74 10 -157h-143l-13 80h-4q-78 -90 -188 -90t-166.5 55t-56.5 141q0 111 100 172.5t278 61.5h23v20q0 49 -38.5 79t-122.5 30t-156 -52l-35 103q100 66 241 65
q270 0 271 -284v-224z" />
    <glyph glyph-name="guillemotleft" unicode="&#xab;" horiz-adv-x="880" 
d="M481 135h-168l-258 381l258 381h168l-262 -381zM834 135h-168l-256 381l256 381h168l-261 -381z" />
    <glyph glyph-name="logicalnot" unicode="&#xac;" horiz-adv-x="1220" 
d="M1139 238h-152v450h-905v146h1057v-596z" />
    <glyph glyph-name="uni00AD" unicode="&#xad;" horiz-adv-x="1220" 
d="M1139 475h-1057v143h1057v-143z" />
    <glyph glyph-name="registered" unicode="&#xae;" horiz-adv-x="1044" 
d="M618 1044q0 84 -118 84q-37 0 -60 -4v-163h56q122 -1 122 83zM502 1198q211 0 211 -147q0 -96 -101 -123v-4q72 -12 86 -114t31 -138h-94q-18 25 -35 131q-14 86 -106 86h-54v-217h-90v512q90 14 152 14zM889 939q0 157 -105.5 269.5t-259 112.5t-258 -113.5
t-104.5 -269.5t104.5 -269.5t260 -113.5t259 113.5t103.5 270.5zM979 938q0 -192 -131 -326.5t-323.5 -134.5t-325.5 135.5t-133 328t134 325.5t325 133t322.5 -134.5t131.5 -326.5z" />
    <glyph glyph-name="macron" unicode="&#xaf;" 
d="M545 1194h-473v127h473v-127z" />
    <glyph glyph-name="degree" unicode="&#xb0;" horiz-adv-x="669" 
d="M498 1126.5q0 71.5 -43 119.5t-114 48t-113 -52t-42 -121t44 -117t113 -48t112 49.5t43 121zM623 1128.5q0 -118.5 -83 -200.5t-202 -82t-200 79t-81 197t83 199.5t203 81.5t200 -78t80 -196.5z" />
    <glyph glyph-name="plusminus" unicode="&#xb1;" horiz-adv-x="1220" 
d="M1139 0h-1057v145h1057v-145zM1139 647h-453v-393h-151v393h-453v144h453v383h151v-383h453v-144z" />
    <glyph glyph-name="twosuperior" unicode="&#xb2;" horiz-adv-x="727" 
d="M653 545h-571v88l125 117q163 154 206.5 212t43.5 125q0 127 -142 127q-88 0 -172 -59l-47 113q104 86 248 86t219.5 -65.5t75.5 -166.5t-47 -169t-209 -218l-57 -53v-4h327v-133z" />
    <glyph glyph-name="threesuperior" unicode="&#xb3;" horiz-adv-x="710" 
d="M647 786q0 -119 -93.5 -185t-245.5 -66q-153 0 -240 55l38 121q88 -53 180 -53t135.5 36.5t43.5 92.5t-58.5 91t-144.5 35h-55v109h53q74 0 125 30.5t51 88.5q0 88 -121 88q-94 0 -172 -51l-39 112q100 64 236 64t205 -53.5t69 -143.5q0 -129 -157 -182v-4
q82 -12 136 -65.5t54 -119.5z" />
    <glyph glyph-name="acute" unicode="&#xb4;" 
d="M594 1413l-248 -297h-153l176 297h225z" />
    <glyph glyph-name="mu" unicode="&#xb5;" horiz-adv-x="1130" 
d="M991 287q0 -143 8 -287h-194l-12 156h-5q-94 -174 -278 -174q-125 0 -182 94h-4v-482h-191v1401h221v-555q0 -279 199 -278q86 0 151.5 65.5t65.5 137.5v630h221v-708z" />
    <glyph glyph-name="paragraph" unicode="&#xb6;" horiz-adv-x="1054" 
d="M891 -100h-150v1341h-143v-1341h-149v641h-15q-128 -1 -246 103t-121 290t111 303q147 150 459 149q168 0 254 -18v-1468z" />
    <glyph glyph-name="periodcentered" unicode="&#xb7;" horiz-adv-x="456" 
d="M369 558q0 -64 -38.5 -105t-102.5 -41t-102 42t-38 104t39 105.5t102.5 43.5t101.5 -42.5t38 -106.5z" />
    <glyph glyph-name="cedilla" unicode="&#xb8;" 
d="M336 -248q0 66 -160 82l94 172h127l-61 -104q59 -8 101 -47.5t42 -96.5q0 -170 -223 -170q-90 0 -147 37l32 96q51 -31 113 -30q82 0 82 61z" />
    <glyph glyph-name="onesuperior" unicode="&#xb9;" horiz-adv-x="679" 
d="M471 545h-172v651l-156 -72l-26 127l202 92h152v-798z" />
    <glyph glyph-name="ordmasculine" unicode="&#xba;" horiz-adv-x="739" 
d="M535 871q0 93 -44.5 157t-120.5 64t-119.5 -66t-43.5 -154t47 -153.5t120 -65.5t117 62.5t44 155.5zM133.5 627.5q-90.5 92.5 -90.5 240.5t93 245t239 97t233.5 -92t87.5 -242.5t-91 -245.5t-236 -95t-235.5 92.5z" />
    <glyph glyph-name="guillemotright" unicode="&#xbb;" horiz-adv-x="880" 
d="M471 516l-258 -381h-166l260 381l-262 381h168zM821 516l-258 -381h-166l260 381l-262 381h168z" />
    <glyph glyph-name="onequarter" unicode="&#xbc;" horiz-adv-x="1583" 
d="M1233 322v206q0 45 6 138h-4q-10 -23 -28.5 -51.5t-41.5 -67.5l-166 -225h234zM436 545h-174v651l-156 -72l-24 127l203 92h151v-798zM1198 1354l-764 -1377h-133l766 1377h131zM1511 203h-116v-203h-162v203h-402v94l375 510h189v-488h116v-116z" />
    <glyph glyph-name="onehalf" unicode="&#xbd;" horiz-adv-x="1583" 
d="M408 545h-172v651l-156 -72l-27 127l203 92h152v-798zM1155 1354l-764 -1377h-133l764 1377h133zM1491 0h-571v88l124 117q157 146 194.5 196t46.5 79.5t9 62.5q0 129 -143 129q-88 0 -170 -62l-49 113q106 86 250 86t219.5 -65.5t75.5 -162.5t-38 -155.5t-88.5 -110
t-129.5 -125.5l-60 -53v-4h330v-133z" />
    <glyph glyph-name="threequarters" unicode="&#xbe;" horiz-adv-x="1583" 
d="M1253 322v206q0 45 7 138h-5q-10 -23 -28.5 -51.5t-40.5 -67.5l-166 -225h233zM637 776q0 -104 -90 -172.5t-245 -68.5t-243 55l39 121q88 -53 176 -53t134.5 33.5t46.5 91.5t-54.5 94t-146.5 36h-55v109h53q76 0 126 31.5t50 83.5q0 92 -121 92q-92 0 -174 -51l-39 110
q102 66 236 66t205 -53.5t71 -143.5q0 -131 -160 -182v-4q86 -12 138.5 -65.5t52.5 -129.5zM1268 1354l-764 -1377h-133l766 1377h131zM1532 203h-117v-203h-162v203h-401v94l375 510h188v-488h117v-116z" />
    <glyph glyph-name="questiondown" unicode="&#xbf;" horiz-adv-x="843" 
d="M468 -422q-173 0 -269.5 84t-96.5 223q0 84 35 155.5t142 199.5q108 129 108 272v14l-2 47h195l6 -51q2 -10 2 -12v-23q0 -156 -130 -314t-130 -257q0 -158 178 -158q113 0 203 62l53 -160q-121 -82 -294 -82zM625 857q0 -62 -39.5 -104t-101.5 -42t-101 42t-39 105.5
t39 104.5t102 41t101.5 -42.5t38.5 -104.5z" />
    <glyph glyph-name="Agrave" unicode="&#xc0;" horiz-adv-x="1259" 
d="M807 575l-117 361q-15 42 -69 260h-5q-10 -45 -14 -62l-51 -198l-115 -361h371zM1210 0h-235l-129 406h-449l-123 -406h-229l444 1380h275zM739 1456h-174l-262 232h248z" />
    <glyph glyph-name="Aacute" unicode="&#xc1;" horiz-adv-x="1259" 
d="M807 575l-117 361q-18 55 -69 260h-5q-20 -88 -65 -260l-115 -361h371zM1210 0h-235l-129 406h-449l-123 -406h-229l444 1380h275zM961 1700l-263 -246h-176l189 246h250z" />
    <glyph glyph-name="Acircumflex" unicode="&#xc2;" horiz-adv-x="1259" 
d="M807 575l-117 361q-15 42 -69 260h-5q-10 -45 -14 -62l-51 -198l-115 -361h371zM1210 0h-235l-129 406h-449l-123 -406h-229l444 1380h275zM928 1454h-170l-117 145h-4l-119 -145h-164l205 246h160z" />
    <glyph glyph-name="Atilde" unicode="&#xc3;" horiz-adv-x="1259" 
d="M807 575l-117 361q-15 42 -69 260h-5q-10 -45 -14 -62l-51 -198l-115 -361h371zM1210 0h-235l-129 406h-449l-123 -406h-229l444 1380h275zM895 1690q0 -106 -34 -159.5t-111 -53.5q-45 0 -128 37.5t-92 37.5q-43 0 -51 -88h-108v21q0 94 37.5 146t90.5 52t135 -39.5
t97 -39.5q51 0 57 86h107z" />
    <glyph glyph-name="Adieresis" unicode="&#xc4;" horiz-adv-x="1259" 
d="M807 575l-117 361q-18 55 -69 260h-5q-20 -88 -65 -260l-115 -361h371zM1210 0h-235l-129 406h-449l-123 -406h-229l444 1380h275zM553 1584q0 -48 -30.5 -81t-78.5 -33t-80 34t-32 81t32.5 81t80 34t78 -34t30.5 -82zM938 1584q0 -48 -32 -81t-79 -33t-78.5 34t-31.5 81
t32.5 81t80 34t78 -34t30.5 -82z" />
    <glyph glyph-name="Aring" unicode="&#xc5;" horiz-adv-x="1259" 
d="M690 944q-10 31 -67 252h-5q-28 -137 -59 -235l-123 -386h373zM731 1502q0 44 -30.5 74t-73.5 30t-74 -30t-31 -74t31 -73.5t74 -29.5t73.5 29.5t30.5 73.5zM782.5 1657q63.5 -65 63.5 -157q0 -93 -68 -157l436 -1343h-235l-131 406h-447l-125 -406h-227l430 1339
q-71 61 -71 158t64 161t155.5 64t155 -65z" />
    <glyph glyph-name="AE" unicode="&#xc6;" horiz-adv-x="1634" 
d="M803 627l-43 377q-4 39 -9.5 93t-13.5 126h-8q-52 -151 -82 -217l-160 -379h316zM1573 182v-182h-690l-56 449h-407l-193 -449h-227l604 1380h909v-182h-567l45 -395h506v-180h-477l53 -441h500z" />
    <glyph glyph-name="Ccedilla" unicode="&#xc7;" horiz-adv-x="1181" 
d="M793 166q164 0 272 51l41 -176q-119 -57 -352 -61l-47 -78q61 -8 103 -48t42 -100q0 -166 -223 -166q-88 0 -150 37l35 96q51 -31 111 -30q82 0 82 59q0 68 -158 84l82 154q-262 37 -410.5 221.5t-148.5 466.5q0 325 198.5 525t520.5 200q207 0 319 -60l-49 -178
q-117 53 -247 53q-243 1 -376 -142.5t-133 -388.5t129 -382t359 -137z" />
    <glyph glyph-name="Egrave" unicode="&#xc8;" horiz-adv-x="1015" 
d="M942 0h-795v1380h766v-182h-544v-389h514v-182h-514v-445h573v-182zM670 1456h-174l-263 244h248z" />
    <glyph glyph-name="Eacute" unicode="&#xc9;" horiz-adv-x="1015" 
d="M942 0h-795v1380h766v-182h-544v-389h514v-182h-514v-445h573v-182zM854 1700l-260 -246h-176l188 246h248z" />
    <glyph glyph-name="Ecircumflex" unicode="&#xca;" horiz-adv-x="1015" 
d="M942 0h-795v1380h766v-182h-544v-389h514v-182h-514v-445h573v-182zM821 1454h-170l-116 145h-5l-116 -145h-166l205 246h159z" />
    <glyph glyph-name="Edieresis" unicode="&#xcb;" horiz-adv-x="1015" 
d="M942 0h-795v1380h766v-182h-544v-389h514v-182h-514v-445h573v-182zM451 1584q0 -48 -32 -81t-79 -33t-79 34t-32 81t33 81t80 34t78 -34t31 -82zM836 1584q0 -48 -32 -81t-79 -33t-79 34t-32 81t33 81t80 34t78 -34t31 -82z" />
    <glyph glyph-name="Igrave" unicode="&#xcc;" horiz-adv-x="516" 
d="M369 0h-222v1380h222v-1380zM377 1456h-176l-262 244h249z" />
    <glyph glyph-name="Iacute" unicode="&#xcd;" horiz-adv-x="516" 
d="M369 0h-222v1380h222v-1380zM578 1700l-263 -246h-176l189 246h250z" />
    <glyph glyph-name="Icircumflex" unicode="&#xce;" horiz-adv-x="516" 
d="M369 0h-222v1380h222v-1380zM545 1454h-170l-117 145h-4l-117 -145h-166l205 246h160z" />
    <glyph glyph-name="Idieresis" unicode="&#xcf;" horiz-adv-x="516" 
d="M369 0h-222v1380h222v-1380zM174 1584q0 -48 -31 -81t-79 -33t-79.5 34t-31.5 81t32.5 81t80.5 34t78 -34t30 -82zM561 1584q0 -48 -31.5 -81t-79.5 -33t-79 34t-31 81t31.5 81t79 34t79 -34t31.5 -82z" />
    <glyph glyph-name="Eth" unicode="&#xd0;" horiz-adv-x="1368" 
d="M1061 704q0 517 -502 517q-106 0 -178 -15v-415h328v-177h-328v-446q35 -8 147 -8q260 0 396.5 141.5t136.5 402.5zM538 1395q380 0 568 -177t188 -495q0 -369 -208.5 -554t-602.5 -185q-189 0 -323 16v614h-160v177h160v575q182 29 378 29z" />
    <glyph glyph-name="Ntilde" unicode="&#xd1;" horiz-adv-x="1343" 
d="M991 866v514h207v-1380h-227l-381 641q-146 244 -246 471l-6 -2q14 -205 14 -586v-524h-205v1380h246l381 -632q137 -230 236 -457l4 2q-23 269 -23 573zM948 1690q0 -106 -33.5 -159.5t-111.5 -53.5q-47 0 -130 37.5t-91 37.5q-43 0 -52 -88h-108q0 104 36 161.5
t105 57.5q40 0 122 -39.5t99 -39.5q47 0 58 86h106z" />
    <glyph glyph-name="Ograve" unicode="&#xd2;" horiz-adv-x="1396" 
d="M981.5 1074q-108.5 151 -284.5 151t-285 -152t-109 -382q0 -231 109.5 -383t285.5 -152t284 151t108 383q0 233 -108.5 384zM1151.5 176q-173.5 -199 -455.5 -199q-281 0 -452.5 197t-171.5 509t176 516t457 204t450.5 -195t169.5 -514t-173.5 -518zM811 1456h-176
l-260 244h248z" />
    <glyph glyph-name="Oacute" unicode="&#xd3;" horiz-adv-x="1396" 
d="M1090 692q0 209 -93 357q-106 176 -302 176t-302 -181q-90 -147 -90 -356t92 -356q109 -176 305 -176t301 180q89 147 89 356zM1325 697q0 -305 -166 -512t-463 -207t-461 202q-163 203 -163 503t170 510t463 210t462 -209q158 -192 158 -497zM1036 1700l-262 -246h-176
l188 246h250z" />
    <glyph glyph-name="Ocircumflex" unicode="&#xd4;" horiz-adv-x="1396" 
d="M1090 692q0 209 -93 357q-106 176 -302 176t-302 -181q-90 -147 -90 -356t92 -356q109 -176 305 -176t301 180q89 147 89 356zM1325 697q0 -305 -166 -512t-463 -207t-461 202q-163 203 -163 503t170 510t463 210t462 -209q158 -192 158 -497zM987 1454h-170l-117 145h-4
l-118 -145h-166l206 246h158z" />
    <glyph glyph-name="Otilde" unicode="&#xd5;" horiz-adv-x="1396" 
d="M1090 692q0 209 -93 357q-106 176 -302 176t-302 -181q-90 -147 -90 -356t92 -356q109 -176 305 -176t301 180q89 147 89 356zM1325 697q0 -305 -166 -512t-463 -207t-461 202q-163 203 -163 503t170 510t463 210t462 -209q158 -192 158 -497zM817 1477
q-55 0 -125.5 37.5t-95.5 37.5q-43 0 -51 -88h-109q-2 102 36 160.5t100 58.5t128 -40q68 -40 99 -39q49 0 57 86h107q4 -213 -146 -213z" />
    <glyph glyph-name="Odieresis" unicode="&#xd6;" horiz-adv-x="1396" 
d="M1090 692q0 209 -93 357q-106 176 -302 176t-302 -181q-90 -147 -90 -356t92 -356q109 -176 305 -176t301 180q89 147 89 356zM1325 697q0 -305 -166 -512t-463 -207t-461 202q-163 203 -163 503t170 510t463 210t462 -209q158 -192 158 -497zM616 1584q0 -48 -31.5 -81
t-78.5 -33t-79 34t-32 81t33 81t80 34t77.5 -34t30.5 -82zM1001 1584q0 -48 -31.5 -81t-79.5 -33t-79 34t-31 81t32 81t80 34t78.5 -34t30.5 -82z" />
    <glyph glyph-name="multiply" unicode="&#xd7;" horiz-adv-x="1220" 
d="M1139 973l-426 -434l426 -435l-105 -104l-424 434l-424 -434l-104 104l424 435l-424 434l102 104l426 -434l426 434z" />
    <glyph glyph-name="Oslash" unicode="&#xd8;" horiz-adv-x="1396" 
d="M1100 696q0 176 -76 316h-4l-539 -776q89 -82 199 -82q202 0 311 153t109 389zM700 1227q-178 0 -290.5 -148t-112.5 -387q0 -174 80 -330l4 3l541 780q-94 82 -222 82zM254 170q-182 199 -182 515t180 517t453 201q184 0 321 -94l115 164l129 -87l-119 -176
q174 -193 174 -513t-172.5 -520t-452.5 -200q-184 0 -323 97l-123 -176l-123 94z" />
    <glyph glyph-name="Ugrave" unicode="&#xd9;" horiz-adv-x="1323" 
d="M1178 580q0 -293 -136.5 -448t-392.5 -155q-504 0 -504 598v805h222v-817q0 -193 74.5 -299t215.5 -106q299 0 299 405v817h222v-800zM791 1456h-175l-262 244h248z" />
    <glyph glyph-name="Uacute" unicode="&#xda;" horiz-adv-x="1323" 
d="M1178 580q0 -306 -142 -454t-387 -149q-504 0 -504 598v805h222v-817q0 -203 82 -307q74 -98 208 -98q299 0 299 405v817h222v-800zM989 1700l-260 -246h-176l188 246h248z" />
    <glyph glyph-name="Ucircumflex" unicode="&#xdb;" horiz-adv-x="1323" 
d="M1178 580q0 -293 -136.5 -448t-392.5 -155q-504 0 -504 598v805h222v-817q0 -193 74.5 -299t215.5 -106q299 0 299 405v817h222v-800zM965 1454h-170l-117 145h-4l-117 -145h-166l205 246h160z" />
    <glyph glyph-name="Udieresis" unicode="&#xdc;" horiz-adv-x="1323" 
d="M1178 580q0 -306 -142 -454t-387 -149q-504 0 -504 598v805h222v-817q0 -203 82 -307q74 -98 208 -98q299 0 299 405v817h222v-800zM586 1584q0 -48 -31 -81t-79 -33t-79.5 34t-31.5 81t32.5 81t79.5 34t78 -34t31 -82zM971 1584q0 -48 -32 -81t-79 -33t-78.5 34
t-31.5 81t32.5 81t79.5 34t78 -34t31 -82z" />
    <glyph glyph-name="Yacute" unicode="&#xdd;" horiz-adv-x="1126" 
d="M672 0h-221v578l-428 802h251l172 -362q78 -166 125 -281h4q43 113 123 281l174 362h250l-450 -796v-584zM913 1700l-262 -246h-174l189 246h247z" />
    <glyph glyph-name="Thorn" unicode="&#xde;" horiz-adv-x="1103" 
d="M809 721q0 238 -285 237q-109 0 -159 -14v-463q55 -12 141 -12q147 0 225 67.5t78 184.5zM538 295q-93 0 -173 10v-305h-218v1380h218v-262q76 12 182 12q240 0 360.5 -108.5t120.5 -280.5q0 -211 -103.5 -299t-198.5 -117.5t-188 -29.5z" />
    <glyph glyph-name="germandbls" unicode="&#xdf;" horiz-adv-x="1142" 
d="M1063 311q0 -150 -101.5 -242t-277.5 -92q-131 0 -213 39l33 168q76 -37 160 -37t131 43t47 107q0 92 -99 188q-156 154 -155 279q0 164 176 252q14 37 14 84q0 92 -52 146t-138 54q-227 0 -228 -376v-924h-221v911q0 313 148 451q123 113 303 113t290.5 -96.5
t110.5 -260.5q0 -100 -47 -168q-135 -59 -135 -157q0 -70 86 -158t127 -157t41 -167z" />
    <glyph glyph-name="agrave" unicode="&#xe0;" horiz-adv-x="1003" 
d="M655 496q-186 0 -277 -47.5t-91 -153.5q0 -78 43 -117t97 -39q97 0 162.5 58.5t65.5 144.5v154zM68 270q0 186 151.5 279.5t429.5 93.5v19q0 197 -207 196q-147 0 -260 -74l-45 146q137 86 342 86q391 0 391 -412v-366q0 -154 15 -238h-199l-16 115h-6
q-100 -137 -291 -138q-129 0 -217 82.5t-88 210.5zM596 1116h-154l-247 297h225z" />
    <glyph glyph-name="aacute" unicode="&#xe1;" horiz-adv-x="1003" 
d="M655 342v154q-369 6 -368 -201q0 -78 42.5 -117t112.5 -39t141.5 52.5t71.5 150.5zM649 662q0 197 -207 196q-147 0 -260 -74l-45 146q139 86 342 86q391 0 391 -412v-366q1 -150 15 -238h-199l-16 115h-6q-102 -137 -291 -138q-141 1 -223 87t-82 206q0 182 152.5 278.5
t428.5 94.5v19zM786 1413l-247 -297h-154l176 297h225z" />
    <glyph glyph-name="acircumflex" unicode="&#xe2;" horiz-adv-x="1003" 
d="M655 496q-186 0 -277 -47.5t-91 -153.5q0 -78 43 -117t97 -39q97 0 162.5 58.5t65.5 144.5v154zM68 270q0 186 151.5 279.5t429.5 93.5v19q0 197 -207 196q-147 0 -260 -74l-45 146q137 86 342 86q391 0 391 -412v-366q0 -154 15 -238h-199l-16 115h-6
q-100 -137 -291 -138q-129 0 -217 82.5t-88 210.5zM760 1116h-154l-112 184h-5l-110 -184h-152l193 297h143z" />
    <glyph glyph-name="atilde" unicode="&#xe3;" horiz-adv-x="1003" 
d="M655 496q-186 0 -277 -47.5t-91 -153.5q0 -78 43 -117t97 -39q97 0 162.5 58.5t65.5 144.5v154zM68 270q0 186 151.5 279.5t429.5 93.5v19q0 197 -207 196q-147 0 -260 -74l-45 146q137 86 342 86q391 0 391 -412v-366q0 -154 15 -238h-199l-16 115h-6
q-100 -137 -291 -138q-129 0 -217 82.5t-88 210.5zM752 1370q0 -106 -34 -158.5t-110 -52.5q-30 0 -89.5 26.5t-87.5 39t-38 12.5q-47 0 -53 -92h-107q0 98 35 158.5t105 60.5q25 0 117 -40t104 -40q47 0 53 86h105z" />
    <glyph glyph-name="adieresis" unicode="&#xe4;" horiz-adv-x="1003" 
d="M655 342v154q-369 6 -368 -201q0 -78 42.5 -117t112.5 -39t141.5 52.5t71.5 150.5zM649 662q0 197 -207 196q-147 0 -260 -74l-45 146q139 86 342 86q391 0 391 -412v-366q1 -150 15 -238h-199l-16 115h-6q-102 -137 -291 -138q-141 1 -223 87t-82 206q0 182 152.5 278.5
t428.5 94.5v19zM420 1246q0 -48 -32 -80.5t-79 -32.5t-79.5 33.5t-32.5 80.5t33.5 81t80.5 34t78 -34t31 -82zM805 1246q0 -48 -32 -80.5t-80 -32.5t-79.5 33.5t-31.5 80.5t32.5 81t80.5 34t79 -34t31 -82z" />
    <glyph glyph-name="aring" unicode="&#xe5;" horiz-adv-x="1003" 
d="M655 496q-186 0 -277 -47.5t-91 -153.5q0 -78 43 -117t97 -39q97 0 162.5 58.5t65.5 144.5v154zM588 1289q0 36 -25.5 61.5t-61.5 25.5t-61.5 -25.5t-25.5 -61.5t25.5 -61.5t61.5 -25.5t61.5 25.5t25.5 61.5zM870 238q0 -161 15 -238h-199l-16 115h-6
q-102 -135 -291 -135q-132 0 -218.5 81t-86.5 209q0 186 150.5 279.5t430.5 93.5v19q0 197 -207 196q-147 0 -260 -74l-45 146q137 86 342 86q391 0 391 -412v-366zM639 1151q-57 -57 -139 -57t-138.5 58t-56.5 138t57.5 137.5t138.5 57.5t138 -57.5t57 -138.5t-57 -138z
" />
    <glyph glyph-name="ae" unicode="&#xe6;" horiz-adv-x="1576" 
d="M657 489h-30q-342 0 -342 -200q0 -66 42 -107t100 -41q103 0 166.5 60t63.5 153v135zM1298 614q0 106 -54 179t-152 73t-163 -73.5t-69 -178.5h438zM1507 578q0 -72 -6 -121l-641 2q0 -147 80 -228t219 -81t262 53l37 -154q-131 -70 -332 -69q-129 0 -229 53t-143 151h-6
q-106 -205 -363 -204q-139 0 -228 81.5t-89 210.5q0 180 153.5 270.5t431.5 90.5v39q0 78 -58 132t-180 54t-229 -74l-49 144q150 90 320 90q244 0 317 -193h4q113 193 338 193q177 0 256.5 -97.5t107 -184t27.5 -158.5z" />
    <glyph glyph-name="ccedilla" unicode="&#xe7;" horiz-adv-x="899" 
d="M692 -242q0 -170 -223 -170q-86 0 -147 37l34 96q51 -31 111 -30q82 0 82 61q0 66 -158 82l82 154q-184 28 -291.5 161.5t-107.5 352.5t147.5 366.5t388.5 147.5q135 0 240 -47l-43 -170q-83 43 -175 43q-163 0 -248 -96.5t-85 -249.5t87.5 -246.5t227.5 -93.5
q102 0 201 41l35 -164q-96 -49 -254 -53l-47 -78q59 -8 101 -47t42 -97z" />
    <glyph glyph-name="egrave" unicode="&#xe8;" horiz-adv-x="1026" 
d="M748 602q0 117 -56 189.5t-158 72.5t-169.5 -73.5t-77.5 -188.5h461zM958 568q0 -82 -8 -124h-663q4 -141 89 -217.5t227 -76.5t265 47l35 -154q-141 -61 -334 -61q-232 0 -363.5 135.5t-131.5 366.5t130.5 382.5t329.5 151.5q200 0 283.5 -96.5t112 -184t28.5 -169.5z
M659 1116h-153l-248 297h225z" />
    <glyph glyph-name="eacute" unicode="&#xe9;" horiz-adv-x="1026" 
d="M534 864q-114 0 -182 -90q-55 -72 -65 -172h461q2 98 -43 170q-57 92 -171 92zM958 545q0 -59 -8 -101h-663q4 -147 92 -221q88 -73 228 -73t261 47l35 -154q-141 -61 -353 -61t-344 136t-132 363t126 382t343 155t327 -160q88 -127 88 -313zM838 1413l-248 -297h-154
l178 297h224z" />
    <glyph glyph-name="ecircumflex" unicode="&#xea;" horiz-adv-x="1026" 
d="M748 602q0 117 -56 189.5t-158 72.5t-169.5 -73.5t-77.5 -188.5h461zM958 568q0 -82 -8 -124h-663q4 -141 89 -217.5t227 -76.5t265 47l35 -154q-141 -61 -334 -61q-232 0 -363.5 135.5t-131.5 366.5t130.5 382.5t329.5 151.5q200 0 283.5 -96.5t112 -184t28.5 -169.5z
M805 1116h-154l-112 184h-4l-111 -184h-152l195 297h141z" />
    <glyph glyph-name="edieresis" unicode="&#xeb;" horiz-adv-x="1026" 
d="M748 602q0 117 -56 189.5t-158 72.5t-169.5 -73.5t-77.5 -188.5h461zM958 568q0 -82 -8 -124h-663q4 -141 89 -217.5t227 -76.5t265 47l35 -154q-141 -61 -334 -61q-232 0 -363.5 135.5t-131.5 366.5t130.5 382.5t329.5 151.5q200 0 283.5 -96.5t112 -184t28.5 -169.5z
M469 1246q0 -48 -31.5 -80.5t-79.5 -32.5t-80 33.5t-32 80.5t32.5 81t80.5 34t79 -34t31 -82zM854 1246q0 -48 -32 -80.5t-80 -32.5t-79.5 33.5t-31.5 80.5t32.5 81t80 34t79 -34t31.5 -82z" />
    <glyph glyph-name="igrave" unicode="&#xec;" horiz-adv-x="499" 
d="M360 0h-221v995h221v-995zM344 1116h-154l-247 297h225z" />
    <glyph glyph-name="iacute" unicode="&#xed;" horiz-adv-x="499" 
d="M360 0h-221v995h221v-995zM551 1413l-248 -297h-153l176 297h225z" />
    <glyph glyph-name="icircumflex" unicode="&#xee;" horiz-adv-x="499" 
d="M360 0h-221v995h221v-995zM516 1116h-154l-110 184h-4l-113 -184h-149l192 297h144z" />
    <glyph glyph-name="idieresis" unicode="&#xef;" horiz-adv-x="499" 
d="M360 0h-221v995h221v-995zM170 1246q0 -48 -32 -80.5t-80 -32.5t-80.5 33.5t-32.5 80.5t33.5 81t81.5 34t79 -34t31 -82zM555 1246q0 -48 -31.5 -80.5t-79.5 -32.5t-80 33.5t-32 80.5t32.5 81t80 34t79 -34t31.5 -82z" />
    <glyph glyph-name="eth" unicode="&#xf0;" horiz-adv-x="1110" 
d="M805 496q0 346 -248 346q-115 0 -185.5 -102t-70.5 -251t72 -248.5t185 -99.5q112 0 179.5 98.5t67.5 256.5zM1036 520q0 -247 -134.5 -395t-346.5 -148t-345.5 139.5t-133.5 362.5q0 222 131 364t328 142q109 0 190 -70l4 7q-86 135 -215 229l-285 -131l-45 98l228 107
q-84 59 -203 114l98 131q157 -71 291 -163l264 123l49 -99l-213 -98q338 -282 338 -713z" />
    <glyph glyph-name="ntilde" unicode="&#xf1;" horiz-adv-x="1138" 
d="M139 711q0 130 -8 284h195l10 -153h6q45 80 129 127t186 47q158 0 252.5 -111.5t94.5 -308.5v-596h-222v571q0 264 -200 265q-98 0 -160 -73t-62 -171v-592h-221v711zM831 1370q0 -106 -33.5 -158.5t-109.5 -52.5q-30 0 -89.5 26.5t-87.5 39t-38 12.5q-47 0 -53 -92h-107
q0 98 36 158.5t106 60.5q25 0 117 -40t104 -40q47 0 53 86h102z" />
    <glyph glyph-name="ograve" unicode="&#xf2;" horiz-adv-x="1120" 
d="M748.5 753q-70.5 101 -189.5 101t-189.5 -101t-70.5 -257.5t73.5 -255.5t187.5 -99t186.5 103.5t72.5 255.5t-70.5 253zM912.5 125q-136.5 -148 -355.5 -148t-351 142.5t-132 374.5q0 231 135 376.5t356 145.5t352.5 -142.5t131.5 -371.5t-136.5 -377zM678 1116h-154
l-248 297h226z" />
    <glyph glyph-name="oacute" unicode="&#xf3;" horiz-adv-x="1120" 
d="M819 499.5q0 137.5 -59 235.5q-70 119 -201 119t-201 -119q-59 -98 -59 -237q-1 -139 65 -248t194 -109t200 121q61 100 61 237.5zM565 1016q223 0 353 -144t131 -369q0 -226 -134 -376q-133 -150 -357 -150t-354 145.5t-130 371.5t134 374t357 148zM850 1413l-248 -297
h-153l176 297h225z" />
    <glyph glyph-name="ocircumflex" unicode="&#xf4;" horiz-adv-x="1120" 
d="M819 499.5q0 137.5 -59 235.5q-70 119 -201 119t-201 -119q-59 -98 -59 -237q-1 -139 65 -248t194 -109t200 121q61 100 61 237.5zM565 1016q223 0 353 -144t131 -369q0 -226 -134 -376q-133 -150 -357 -150t-354 145.5t-130 371.5t134 374t357 148zM827 1116h-153
l-113 184h-4l-111 -184h-151l192 297h144z" />
    <glyph glyph-name="otilde" unicode="&#xf5;" horiz-adv-x="1120" 
d="M819 499.5q0 137.5 -59 235.5q-70 119 -201 119t-201 -119q-59 -98 -59 -237q-1 -139 65 -248t194 -109t200 121q61 100 61 237.5zM565 1016q223 0 353 -144t131 -369q0 -226 -134 -376q-133 -150 -357 -150t-354 145.5t-130 371.5t134 374t357 148zM678 1159
q-52 0 -122 39t-95 39q-45 0 -51 -92h-107q-2 98 35 158.5t95 60.5t132 -40t99 -40q47 0 53 86h104q2 -211 -143 -211z" />
    <glyph glyph-name="odieresis" unicode="&#xf6;" horiz-adv-x="1120" 
d="M819 499.5q0 137.5 -59 235.5q-70 119 -201 119t-201 -119q-59 -98 -59 -237q-1 -139 65 -248t194 -109t200 121q61 100 61 237.5zM565 1016q223 0 353 -144t131 -369q0 -226 -134 -376q-133 -150 -357 -150t-354 145.5t-130 371.5t134 374t357 148zM479 1246
q0 -48 -31.5 -80.5t-79.5 -32.5t-80 33.5t-32 80.5t33 81t81 34t78.5 -34t30.5 -82zM864 1246q0 -48 -31.5 -80.5t-79.5 -32.5t-80 33.5t-32 80.5t33 81t81 34t78.5 -34t30.5 -82z" />
    <glyph glyph-name="divide" unicode="&#xf7;" horiz-adv-x="1220" 
d="M729 186.5q0 -55.5 -33.5 -89.5t-87.5 -34t-87.5 35t-33.5 89t34 90t88 36t87 -35.5t33 -91zM1137 475h-1057v143h1057v-143zM731 905.5q0 -55.5 -33.5 -90.5t-87.5 -35t-87.5 36t-33.5 90t34 89t88 35t87 -34.5t33 -90z" />
    <glyph glyph-name="oslash" unicode="&#xf8;" horiz-adv-x="1120" 
d="M836 518q0 100 -56 191h-4l-358 -516q58 -51 130 -51t123.5 26.5t88.5 73.5t56.5 111.5t19.5 164.5zM576 854q-139 0 -212 -101.5t-73 -243.5t57 -230h4l359 522q-59 53 -135 53zM563 1016h2q135 0 242 -64l86 127l92 -61l-90 -131q154 -145 154 -379t-136.5 -382.5
t-351.5 -148.5q-141 0 -242 64l-90 -131l-86 67l86 127q-155 143 -155 382t135.5 384.5t353.5 145.5z" />
    <glyph glyph-name="ugrave" unicode="&#xf9;" horiz-adv-x="1130" 
d="M991 287q0 -143 8 -287h-194l-12 152h-5q-104 -174 -315 -175q-166 0 -253 113t-87 320v585h221v-549q0 -287 197 -286q144 0 181.5 85t37.5 142v608h221v-708zM680 1116h-154l-245 297h223z" />
    <glyph glyph-name="uacute" unicode="&#xfa;" horiz-adv-x="1130" 
d="M133 995h221v-549q0 -287 197 -286q147 0 205 143q14 37 14 84v608h221v-708q0 -142 8 -287h-194l-12 152h-5q-104 -174 -315 -175q-147 0 -235 93q-104 113 -105 340v585zM868 1413l-247 -297h-154l176 297h225z" />
    <glyph glyph-name="ucircumflex" unicode="&#xfb;" horiz-adv-x="1130" 
d="M991 287q0 -143 8 -287h-194l-12 152h-5q-104 -174 -315 -175q-166 0 -253 113t-87 320v585h221v-549q0 -287 197 -286q144 0 181.5 85t37.5 142v608h221v-708zM831 1116h-153l-113 184h-4l-110 -184h-152l193 297h143z" />
    <glyph glyph-name="udieresis" unicode="&#xfc;" horiz-adv-x="1130" 
d="M133 995h221v-549q0 -287 197 -286q147 0 205 143q14 37 14 84v608h221v-708q0 -142 8 -287h-194l-12 152h-5q-104 -174 -315 -175q-147 0 -235 93q-104 113 -105 340v585zM489 1246q0 -48 -31.5 -80.5t-79.5 -32.5t-80 33.5t-32 80.5t33 81t81 34t78.5 -34t30.5 -82z
M874 1246q0 -48 -31.5 -80.5t-79.5 -32.5t-80 33.5t-32 80.5t33 81t81 34t78.5 -34t30.5 -82z" />
    <glyph glyph-name="yacute" unicode="&#xfd;" horiz-adv-x="983" 
d="M389 33q0 14 -12 47l-361 915h244l189 -555q27 -76 59 -196h4q18 66 55 198l168 553h236l-252 -690q-180 -489 -338 -631q-117 -104 -244 -125l-53 187q76 22 156 84t133 168q16 31 16 45zM811 1413l-248 -297h-153l176 297h225z" />
    <glyph glyph-name="thorn" unicode="&#xfe;" horiz-adv-x="1163" 
d="M864 504q0 228 -98 282t-152 54q-106 0 -180 -76.5t-74 -183.5v-185q0 -108 71.5 -175.5t181.5 -67.5t180.5 96t70.5 256zM688 1016q170 0 286 -143t116 -371t-124.5 -376.5t-316.5 -148.5q-193 0 -284 142h-5v-525h-221v1780h221v-524h5q102 166 323 166z" />
    <glyph glyph-name="ydieresis" unicode="&#xff;" horiz-adv-x="983" 
d="M389 33q0 12 -12 47l-361 915h244l189 -555q24 -67 59 -196h4q10 33 22.5 83t32.5 115l168 553h236l-252 -690q-176 -482 -338 -631q-115 -102 -244 -125l-53 187q86 23 164 88t125 164q16 33 16 45zM432 1246q0 -48 -31.5 -80.5t-79 -32.5t-80 33.5t-32.5 80.5t32.5 81
t80.5 34t79 -34t31 -82zM817 1246q0 -48 -31.5 -80.5t-79.5 -32.5t-80 33.5t-32 80.5t33 81t81 34t78.5 -34t30.5 -82z" />
    <glyph glyph-name="Amacron" unicode="&#x100;" horiz-adv-x="1259" 
d="M807 575l-117 361q-18 55 -69 260h-5q-20 -88 -65 -260l-115 -361h371zM1210 0h-235l-129 406h-449l-123 -406h-229l444 1380h275zM879 1634v-131h-502v131h502z" />
    <glyph glyph-name="amacron" unicode="&#x101;" horiz-adv-x="1003" 
d="M655 342v154q-369 6 -368 -201q0 -78 42.5 -117t112.5 -39t141.5 52.5t71.5 150.5zM649 662q0 197 -207 196q-147 0 -260 -74l-45 146q139 86 342 86q391 0 391 -412v-366q1 -150 15 -238h-199l-16 115h-6q-102 -137 -291 -138q-141 1 -223 87t-82 206q0 182 152.5 278.5
t428.5 94.5v19zM743 1331v-133h-477v133h477z" />
    <glyph glyph-name="Abreve" unicode="&#x102;" horiz-adv-x="1259" 
d="M624.5 1585q71.5 0 103.5 30t40 68h123q-4 -98 -66.5 -163.5t-200 -65.5t-198.5 65.5t-64 163.5h123q8 -35 38 -66.5t101.5 -31.5zM807 575l-117 361q-15 42 -69 260h-5q-10 -45 -14 -62l-51 -198l-115 -361h371zM1210 0h-235l-129 406h-449l-123 -406h-229l444 1380h275
z" />
    <glyph glyph-name="abreve" unicode="&#x103;" horiz-adv-x="1003" 
d="M750 1397q0 -113 -67 -181.5t-185 -68.5t-183 66.5t-65 183.5h117q18 -133 131 -133q127 0 137 133h115zM655 496q-186 0 -277 -47.5t-91 -153.5q0 -78 43 -117t97 -39q97 0 162.5 58.5t65.5 144.5v154zM68 270q0 186 151.5 279.5t429.5 93.5v19q0 197 -207 196
q-147 0 -260 -74l-45 146q137 86 342 86q391 0 391 -412v-366q0 -154 15 -238h-199l-16 115h-6q-100 -137 -291 -138q-129 0 -217 82.5t-88 210.5z" />
    <glyph glyph-name="Aogonek" unicode="&#x104;" horiz-adv-x="1259" 
d="M807 575l-117 361q-18 55 -69 260h-5q-20 -88 -65 -260l-115 -361h371zM866 -229q0 105 107 233l-127 402h-449l-123 -406h-229l444 1380h275l446 -1380l-102 -2q-10 -12 -25.5 -29.5t-40 -59t-24.5 -88.5q0 -48 29.5 -78t79.5 -30t90 19l32 -109q-66 -51 -162 -51
t-158.5 47t-62.5 152z" />
    <glyph glyph-name="aogonek" unicode="&#x105;" horiz-adv-x="1003" 
d="M655 342v154q-369 6 -368 -201q0 -78 42.5 -117t112.5 -39t141.5 52.5t71.5 150.5zM750 -164q0 -121 98 -121q50 0 92 21l35 -111q-78 -55 -173 -55t-149.5 46t-54.5 150t88 236l-16 113h-6q-102 -137 -291 -138q-141 1 -223 87t-82 206q0 182 152.5 278.5t428.5 94.5v19
q0 197 -207 196q-147 0 -260 -74l-45 146q139 86 342 86q391 0 391 -412v-366q1 -150 15 -238h-68q-67 -97 -67 -164z" />
    <glyph glyph-name="Cacute" unicode="&#x106;" horiz-adv-x="1169" 
d="M305 691q0 -249 129 -387t359 -138q162 0 272 51l39 -176q-123 -59 -350 -59q-310 0 -496 185t-186 513t202 524t517 197q208 -1 319 -60l-49 -178q-115 53 -262 54q-223 -1 -359 -139t-135 -387zM1049 1702l-258 -244h-179l185 244h252z" />
    <glyph glyph-name="cacute" unicode="&#x107;" horiz-adv-x="899" 
d="M614 842q-145 0 -230 -97t-85 -251t89 -246t226 -92q102 0 201 41l31 -166q-109 -51 -275 -51q-227 0 -362 138t-135 369.5t145.5 380t390.5 148.5q140 0 240 -47l-43 -168q-84 41 -193 41zM825 1425l-250 -299h-155l180 299h225z" />
    <glyph glyph-name="Ccircumflex" unicode="&#x108;" horiz-adv-x="1169" 
d="M305 691q0 -249 129 -387t359 -138q162 0 272 51l39 -176q-123 -59 -350 -59q-310 0 -496 185t-186 513t202 524t517 197q208 -1 319 -60l-49 -178q-115 53 -262 54q-223 -1 -359 -139t-135 -387zM856 1503h-154l-112 185h-4l-111 -185h-151l194 297h141z" />
    <glyph glyph-name="ccircumflex" unicode="&#x109;" horiz-adv-x="899" 
d="M614 842q-145 0 -230 -98t-85 -250q0 -154 89 -246t226 -92q102 0 201 41l31 -166q-109 -51 -275 -51q-227 0 -362 138t-135 369t145 379t391 150q140 0 240 -47l-43 -168q-84 41 -193 41zM727 1118h-154l-112 185h-4l-111 -185h-151l194 297h141z" />
    <glyph glyph-name="Cdotaccent" unicode="&#x10a;" horiz-adv-x="1169" 
d="M305 691q0 -249 129 -387t359 -138q162 0 272 51l39 -176q-123 -59 -350 -59q-310 0 -496 185t-186 513t202 524t517 197q208 -1 319 -60l-49 -178q-115 53 -262 54q-223 -1 -359 -139t-135 -387zM593 1733q49 0 79 -34t30 -82t-32 -81t-79 -33q-48 0 -80 34t-32 81
t33 81t81 34z" />
    <glyph glyph-name="cdotaccent" unicode="&#x10b;" horiz-adv-x="899" 
d="M614 842q-145 0 -230 -98t-85 -250q0 -154 89 -246t226 -92q102 0 201 41l31 -166q-109 -51 -275 -51q-227 0 -362 138t-135 369t145 379t391 150q140 0 240 -47l-43 -168q-84 41 -193 41zM464 1348q48 0 78 -34t31 -82t-31 -81t-80 -33t-80 34t-32 81t33 81t81 34z" />
    <glyph glyph-name="Ccaron" unicode="&#x10c;" horiz-adv-x="1169" 
d="M305 691q0 -249 129 -387t359 -138q162 0 272 51l39 -176q-123 -59 -350 -59q-310 0 -496 185t-186 513t202 524t517 197q208 -1 319 -60l-49 -178q-115 53 -262 54q-223 -1 -359 -139t-135 -387zM641 1456l-211 240h172l123 -137h4l119 137h170l-209 -240h-168z" />
    <glyph glyph-name="ccaron" unicode="&#x10d;" horiz-adv-x="899" 
d="M614 842q-145 0 -230 -97t-85 -251t89 -246t226 -92q102 0 201 41l31 -166q-109 -51 -275 -51q-227 0 -362 138t-135 369.5t145.5 380t390.5 148.5q140 0 240 -47l-43 -168q-84 41 -193 41zM455 1126l-199 299h160l114 -190h5l114 190h158l-197 -299h-155z" />
    <glyph glyph-name="Dcaron" unicode="&#x10e;" horiz-adv-x="1355" 
d="M1049 703q0 256 -128 385t-374 129q-104 0 -178 -15v-1032q41 -6 149 -6q254 0 392.5 141.5t138.5 397.5zM1282 723q0 -373 -215 -554t-596 -181q-188 0 -324 16v1358q176 29 381 29q362 0 547 -158q207 -178 207 -510zM549 1458l-211 240h172l123 -137h4l119 137h170
l-209 -240h-168z" />
    <glyph glyph-name="dcaron" unicode="&#x10f;" horiz-adv-x="1173" 
d="M795 420v166q0 127 -74 192.5t-160 65.5q-123 0 -193.5 -98.5t-70.5 -248.5q0 -149 70 -245q71 -96 185 -96t178 79t65 185zM74 494q0 234 129 383q125 139 317 139t271 -135h4v571h221v-1184q0 -145 8 -268h-197l-10 160h-6q-94 -182 -319 -183q-180 0 -299 141.5
t-119 375.5zM1190 1299q0 83 -55 145l149 31q27 -16 48.5 -58.5t21.5 -98.5q0 -159 -140 -267l-92 67q68 98 68 181z" />
    <glyph glyph-name="Dcroat" unicode="&#x110;" horiz-adv-x="1355" 
d="M1049 703q0 256 -128 385t-374 129q-104 0 -178 -15v-411h352v-173h-352v-448q41 -6 149 -6q254 0 392.5 141.5t138.5 397.5zM1282 723q0 -373 -215 -554t-596 -181q-188 0 -324 16v614h-147v173h147v571q176 29 381 29q362 0 547 -158q207 -178 207 -510z" />
    <glyph glyph-name="dcroat" unicode="&#x111;" horiz-adv-x="1155" 
d="M795 420v166q0 127 -74 192.5t-160 65.5q-123 0 -193.5 -98.5t-70.5 -248.5q0 -149 70 -245q71 -96 185 -96t178 79t65 185zM74 494q0 234 129 383q125 139 317 139t271 -135h4v241h-375v131h375v199h221v-199h178v-131h-178v-854q0 -145 8 -268h-197l-10 160h-6
q-94 -182 -319 -183q-180 0 -299 141.5t-119 375.5z" />
    <glyph glyph-name="Emacron" unicode="&#x112;" horiz-adv-x="1015" 
d="M942 0h-795v1380h766v-182h-544v-389h514v-182h-514v-445h573v-182zM786 1634v-131h-501v131h501z" />
    <glyph glyph-name="emacron" unicode="&#x113;" horiz-adv-x="1026" 
d="M534 864q-114 0 -182 -90q-55 -72 -65 -172h461q2 98 -43 170q-57 92 -171 92zM958 545q0 -59 -8 -101h-663q4 -147 92 -221q88 -73 228 -73t261 47l35 -154q-141 -61 -353 -61t-344 136t-132 363t126 382t343 155t327 -160q88 -127 88 -313zM780 1331v-133h-477v133h477
z" />
    <glyph glyph-name="Ebreve" unicode="&#x114;" horiz-adv-x="1015" 
d="M942 0h-795v1380h766v-182h-544v-389h514v-182h-514v-445h573v-182zM795 1733q0 -113 -67 -182q-66 -69 -184 -69t-184 68q-66 66 -65 183h117q18 -133 131 -134q127 0 137 134h115z" />
    <glyph glyph-name="ebreve" unicode="&#x115;" horiz-adv-x="1026" 
d="M534 864q-114 0 -182 -90q-55 -72 -65 -172h461q2 98 -43 170q-57 92 -171 92zM958 545q0 -59 -8 -101h-663q4 -147 92 -221q88 -73 228 -73t261 47l35 -154q-141 -61 -353 -61t-344 136t-132 363t126 382t343 155t327 -160q88 -127 88 -313zM766 1370q0 -114 -67 -182
t-185 -68t-182 67q-66 67 -66 183h117q18 -133 131 -133q127 0 137 133h115z" />
    <glyph glyph-name="Edotaccent" unicode="&#x116;" horiz-adv-x="1015" 
d="M942 0h-795v1380h766v-182h-544v-389h514v-182h-514v-445h573v-182zM506 1468q-47 0 -80 36t-33 82t33 80t82 34t81 -34t32 -80t-33 -82t-80 -36h-2z" />
    <glyph glyph-name="edotaccent" unicode="&#x117;" horiz-adv-x="1026" 
d="M534 864q-114 0 -182 -90q-55 -72 -65 -172h461q2 98 -43 170q-57 92 -171 92zM958 545q0 -59 -8 -101h-663q4 -147 92 -221q88 -73 228 -73t261 47l35 -154q-141 -61 -353 -61t-344 136t-132 363t126 382t343 155t327 -160q88 -127 88 -313zM535 1153q-49 0 -82 35
t-33 84t33.5 83t83 34t81 -34t31.5 -83t-30.5 -84t-81.5 -35h-2z" />
    <glyph glyph-name="Eogonek" unicode="&#x118;" horiz-adv-x="1015" 
d="M739 -214q0 -32 24.5 -51.5t68.5 -19.5t86 17l32 -113q-78 -49 -176 -49t-150.5 44t-52.5 130q0 151 158 256h-582v1380h766v-182h-544v-389h514v-182h-514v-445h573v-182l-41 -2q-106 -61 -134 -120.5t-28 -91.5z" />
    <glyph glyph-name="eogonek" unicode="&#x119;" horiz-adv-x="1026" 
d="M534 864q-114 0 -182 -90q-55 -72 -65 -172h461q2 98 -43 170q-57 92 -171 92zM614 -196q0 -89 88 -89q38 0 86 21l35 -109q-70 -55 -170 -55t-152 44t-52 122q0 122 145 242v2h-25q-231 0 -363 136t-132 363t126 382t343 155t327 -160q88 -127 88 -313q0 -59 -8 -101
h-663q4 -147 92 -221q88 -73 228 -73t261 47l35 -154q-55 -17 -95 -31q-78 -26 -136 -92t-58 -116z" />
    <glyph glyph-name="Ecaron" unicode="&#x11a;" horiz-adv-x="1015" 
d="M942 0h-795v1380h766v-182h-544v-389h514v-182h-514v-445h573v-182zM449 1454l-211 240h172l122 -138h5l118 138h170l-209 -240h-167z" />
    <glyph glyph-name="ecaron" unicode="&#x11b;" horiz-adv-x="1026" 
d="M440 1126l-198 299h159l115 -190h4l115 190h158l-197 -299h-156zM534 864q-114 0 -182 -90q-55 -72 -65 -172h461q2 98 -43 170q-57 92 -171 92zM958 545q0 -59 -8 -101h-663q4 -147 92 -221q88 -73 228 -73t261 47l35 -154q-141 -61 -353 -61t-344 136t-132 363t126 382
t343 155t327 -160q88 -127 88 -313z" />
    <glyph glyph-name="Gcircumflex" unicode="&#x11c;" horiz-adv-x="1318" 
d="M819 1395q215 0 346 -64l-49 -180q-127 57 -301 57q-231 0 -371 -136t-139 -382q0 -246 132 -384t356 -138q139 0 200 29v374h-252v174h465v-684q-201 -76 -424 -75q-332 0 -522 183t-188 508q0 325 206 521t541 197zM905 1497h-153l-113 184h-4l-111 -184h-151l194 297
h142z" />
    <glyph glyph-name="gcircumflex" unicode="&#x11d;" horiz-adv-x="1142" 
d="M782 426v176q0 100 -62 172t-170 72t-180 -94t-73 -244q0 -150 69 -244q69 -92 189 -92q74 0 132 44q95 72 95 210zM1004 713v-570q0 -322 -144 -450q-131 -119 -353 -119t-349 78l51 170q125 -76 283 -76q293 0 292 315v97h-4q-92 -152 -282 -152t-308 137
q-116 137 -116 363t130 368t322 142t279 -158h4l8 137h195q-8 -121 -8 -282zM809 1118h-154l-112 185h-4l-111 -185h-152l195 297h141z" />
    <glyph glyph-name="Gbreve" unicode="&#x11e;" horiz-adv-x="1318" 
d="M985 1700q0 -102 -69.5 -164.5t-197.5 -62.5t-192 65t-65 162h123q20 -106 145 -106t135 106h121zM819 1395q215 0 346 -64l-49 -180q-127 57 -301 57q-231 0 -371 -136t-139.5 -382t132.5 -384t356 -138q139 0 200 29v374h-252v174h465v-684q-201 -76 -424 -75
q-332 0 -522 183t-188 508q0 325 205.5 521.5t541.5 196.5z" />
    <glyph glyph-name="gbreve" unicode="&#x11f;" horiz-adv-x="1142" 
d="M821 1397q0 -113 -66.5 -181.5t-188.5 -68.5t-183 72t-61 178h116q18 -133 131 -133q127 0 138 133h114zM782 426v176q0 100 -62 172t-170 72t-180.5 -94.5t-72.5 -244.5q0 -151 69 -243t189 -92q74 0 150.5 58t76.5 196zM1004 713v-570q0 -322 -144 -450
q-131 -119 -353 -119t-349 78l51 170q125 -76 283 -76q293 0 292 315v97h-4q-92 -152 -282 -152t-307 137t-117 363t130 368t322 142t279 -158h4l8 137h195q-8 -121 -8 -282z" />
    <glyph glyph-name="Gdotaccent" unicode="&#x120;" horiz-adv-x="1318" 
d="M819 1395q215 0 346 -64l-49 -180q-127 57 -301 57q-231 0 -371 -136t-139 -382q0 -246 132 -384t356 -138q139 0 200 29v374h-252v174h465v-684q-201 -76 -424 -75q-332 0 -522 183t-188 508q0 325 206 521t541 197zM752 1611q0 -48 -32 -81t-80 -33t-80 34t-32 81
t33 81q33 33 81 33t79 -34t31 -81z" />
    <glyph glyph-name="gdotaccent" unicode="&#x121;" horiz-adv-x="1142" 
d="M782 426v176q0 100 -62 172t-170 72t-180 -94t-73 -244q0 -150 69 -244q69 -92 189 -92q74 0 132 44q95 72 95 210zM1004 713v-570q0 -322 -144 -450q-131 -119 -353 -119t-349 78l51 170q125 -76 283 -76q293 0 292 315v97h-4q-92 -152 -282 -152t-308 137
q-116 137 -116 363t130 368t322 142t279 -158h4l8 137h195q-8 -121 -8 -282zM546 1348q48 0 78 -34t31 -82t-31 -81t-80 -33t-80 34t-32 81t33 81t81 34z" />
    <glyph glyph-name="Gcommaaccent" unicode="&#x122;" horiz-adv-x="1318" 
d="M819 1395q215 0 346 -64l-49 -180q-127 57 -301 57q-231 0 -371 -136t-139.5 -382t132.5 -384t356 -138q139 0 200 29v374h-252v174h465v-684q-201 -76 -424 -75q-332 0 -522 183t-188 508q0 325 205.5 521.5t541.5 196.5zM885 -236q0 -164 -115 -196.5t-168 -34.5
l-39 98q57 10 102.5 42t45.5 95t-68 119l160 31q82 -61 82 -154z" />
    <glyph glyph-name="gcommaaccent" unicode="&#x123;" horiz-adv-x="1142" 
d="M782 426v176q0 100 -62 172t-170 72t-180.5 -94.5t-72.5 -244.5q0 -151 69 -243t189 -92q74 0 150.5 58t76.5 196zM1004 713v-570q0 -322 -144 -450q-131 -119 -353 -119t-349 78l51 170q125 -76 283 -76q293 0 292 315v97h-4q-92 -152 -282 -152t-307 137t-117 363
t130 368t322 142t279 -158h4l8 137h195q-8 -121 -8 -282zM506 1098q-82 61 -82 151q0 98 82 153.5t203 59.5l36 -88q-155 -25 -155 -129q0 -58 69 -119z" />
    <glyph glyph-name="Hcircumflex" unicode="&#x124;" horiz-adv-x="1335" 
d="M1188 0h-221v623h-598v-623h-222v1380h222v-563h598v563h221v-1380zM934 1483h-154l-112 184h-4l-111 -184h-152l195 297h141z" />
    <glyph glyph-name="hcircumflex" unicode="&#x125;" horiz-adv-x="1138" 
d="M1004 0h-222v567q0 268 -200 269q-154 0 -211 -156q-10 -33 -11 -80v-600h-221v1452h221v-598h5q104 162 299 162q137 0 227 -90q113 -113 113 -334v-592zM838 1554h-154l-113 185h-4l-110 -185h-152l195 297h141z" />
    <glyph glyph-name="Hbar" unicode="&#x126;" horiz-adv-x="1335" 
d="M967 817v234h-598v-234h598zM1337 1051h-149v-1051h-221v623h-598v-623h-222v1051h-147v166h147v163h222v-163h598v163h221v-163h149v-166z" />
    <glyph glyph-name="hbar" unicode="&#x127;" horiz-adv-x="1138" 
d="M606 1153h-246v-299h5q104 162 299 162q137 0 227 -90q113 -113 113 -334v-592h-222v567q0 268 -200 269q-154 0 -211 -156q-10 -33 -11 -80v-600h-221v1153h-139v166h139v133h221v-133h246v-166z" />
    <glyph glyph-name="Itilde" unicode="&#x128;" horiz-adv-x="516" 
d="M520 1690q0 -106 -33.5 -159.5t-111.5 -53.5q-45 0 -128 37.5t-91 37.5q-43 0 -52 -88h-108v21q0 94 38 146t91 52t134.5 -39.5t96.5 -39.5q51 0 58 86h106zM369 0h-222v1380h222v-1380z" />
    <glyph glyph-name="itilde" unicode="&#x129;" horiz-adv-x="499" 
d="M506 1370q0 -106 -34 -158.5t-110 -52.5q-32 0 -118 39t-97 39q-47 0 -53 -92h-106q0 98 35.5 158.5t105.5 60.5q24 0 117 -40t104 -40q47 0 53 86h103zM360 0h-221v995h221v-995z" />
    <glyph glyph-name="Imacron" unicode="&#x12a;" horiz-adv-x="516" 
d="M369 0h-222v1380h222v-1380zM510 1634v-131h-502v131h502z" />
    <glyph glyph-name="imacron" unicode="&#x12b;" horiz-adv-x="499" 
d="M360 0h-221v995h221v-995zM489 1331v-133h-477v133h477z" />
    <glyph glyph-name="Ibreve" unicode="&#x12c;" horiz-adv-x="516" 
d="M369 0h-222v1380h222v-1380zM508 1733q0 -113 -67 -182t-185 -69t-182 68q-66 66 -66 183h117q18 -133 131 -134q127 0 137 134h115z" />
    <glyph glyph-name="ibreve" unicode="&#x12d;" horiz-adv-x="499" 
d="M360 0h-221v995h221v-995zM500 1348q0 -113 -67 -182q-67 -68 -185 -68t-182 66q-66 66 -66 184h117q18 -133 131 -134q127 0 137 134h115z" />
    <glyph glyph-name="Iogonek" unicode="&#x12e;" horiz-adv-x="516" 
d="M59 -246q0 114 88 246v1380h222v-1380h-90q-70 -108 -70 -172q0 -63 30.5 -91t78.5 -28t90 17l34 -109q-65 -51 -169 -51q-214 0 -214 188z" />
    <glyph glyph-name="iogonek" unicode="&#x12f;" horiz-adv-x="499" 
d="M385 1291q0 -58 -39 -95t-97 -37t-96 38t-38 95.5t39 94t96 36.5t96 -37t39 -95zM264 -434q-211 0 -211 193q0 97 86 241v995h221v-995h-86q-68 -105 -69 -169q-2 -64 27.5 -93t79.5 -29t89 17l33 -109q-68 -51 -170 -51z" />
    <glyph glyph-name="Idotaccent" unicode="&#x130;" horiz-adv-x="516" 
d="M371 1584q0 -48 -32 -81t-80 -33t-80 34t-32 81t33 81t81 34t79 -34t31 -82zM369 0h-222v1380h222v-1380z" />
    <glyph glyph-name="dotlessi" unicode="&#x131;" horiz-adv-x="499" 
d="M360 0h-221v995h221v-995z" />
    <glyph glyph-name="IJ" unicode="&#x132;" horiz-adv-x="1286" 
d="M369 0h-222v1380h222v-1380zM1153 469q0 -492 -434 -492q-117 0 -199 33l29 178q70 -25 147 -24q119 0 177 70t59 245v901h221v-911z" />
    <glyph glyph-name="ij" unicode="&#x133;" horiz-adv-x="1021" 
d="M360 0h-221v995h221v-995zM385 1291q0 -58 -39 -95t-97 -37t-96 38t-38 95t39 94t96 37t96 -37t39 -95zM887 96q0 -292 -119 -410t-334 -120l-22 174q133 10 188 74q66 72 66 352v829h221v-899zM911 1291q0 -58 -39 -95t-97 -37t-96 38t-38 95t39 94t97 37t96 -37t38 -95
z" />
    <glyph glyph-name="Jcircumflex" unicode="&#x134;" horiz-adv-x="770" 
d="M637 469q0 -492 -434 -492q-117 0 -199 33l29 178q70 -25 147 -24q119 0 177 70t59 245v901h221v-911zM778 1483h-153l-113 184h-4l-111 -184h-151l194 297h142z" />
    <glyph glyph-name="jcircumflex" unicode="&#x135;" horiz-adv-x="522" 
d="M532 1116h-153l-113 184h-4l-110 -184h-152l195 297h141zM387 96q0 -292 -119 -410t-334 -120l-22 174q133 10 188 74q66 72 66 352v829h221v-899z" />
    <glyph glyph-name="Kcommaaccent" unicode="&#x136;" horiz-adv-x="1140" 
d="M367 0h-220v1380h220v-647h6q53 84 102 150l375 497h272l-475 -587l508 -793h-260l-403 649l-125 -147v-502zM565 -232q0 61 -65 121l159 31q31 -20 55.5 -60t24.5 -96q0 -109 -83 -166t-199 -61l-39 98q57 10 102 41t45 92z" />
    <glyph glyph-name="kcommaaccent" unicode="&#x137;" horiz-adv-x="993" 
d="M360 0h-221v1452h221v-901h5q41 66 79 115l256 329h265l-367 -409l418 -586h-271l-301 455l-84 -103v-352zM582 -82q80 -59 80 -162t-82.5 -161t-200.5 -62l-39 98q57 10 102 42t45 93t-65 121z" />
    <glyph glyph-name="kgreenlandic" unicode="&#x138;" horiz-adv-x="993" 
d="M360 0h-221v995h221v-444h5q41 66 79 115l256 329h265l-367 -409l418 -586h-271l-301 455l-84 -103v-352z" />
    <glyph glyph-name="Lacute" unicode="&#x139;" horiz-adv-x="974" 
d="M932 0h-785v1380h222v-1194h563v-186zM602 1700l-258 -244h-178l184 244h252z" />
    <glyph glyph-name="lacute" unicode="&#x13a;" horiz-adv-x="499" 
d="M360 0h-221v1452h221v-1452zM561 1761l-258 -243h-178l184 243h252z" />
    <glyph glyph-name="Lcommaaccent" unicode="&#x13b;" horiz-adv-x="974" 
d="M932 0h-785v1380h222v-1194h563v-186zM481 -232q0 61 -65 121l159 31q31 -20 55.5 -60t24.5 -96q0 -109 -83 -166t-199 -61l-39 98q57 10 102 41t45 92z" />
    <glyph glyph-name="lcommaaccent" unicode="&#x13c;" horiz-adv-x="499" 
d="M360 0h-221v1452h221v-1452zM383 -236q0 -164 -114.5 -196.5t-168.5 -34.5l-39 98q57 10 102.5 42t45.5 94t-66 120l160 31q80 -59 80 -154z" />
    <glyph glyph-name="Lcaron" unicode="&#x13d;" horiz-adv-x="974" 
d="M932 0h-785v1380h222v-1194h563v-186zM838 1251q0 -164 -115 -196.5t-170 -34.5l-37 98q57 10 102.5 42t45.5 95t-68 119l160 31q82 -61 82 -154z" />
    <glyph glyph-name="lcaron" unicode="&#x13e;" horiz-adv-x="518" 
d="M360 0h-221v1452h221v-1452zM512 1298q0 82 -57 146l151 31q25 -16 47.5 -59.5t22.5 -100.5t-16.5 -101.5t-38 -77t-43 -53t-33.5 -32.5l-103 67q70 98 70 180z" />
    <glyph glyph-name="Ldot" unicode="&#x13f;" horiz-adv-x="974" 
d="M877 828q0 -64 -39.5 -105t-101.5 -41t-100 42t-38 104t39 105.5t101 43.5t100.5 -42.5t38.5 -106.5zM932 0h-785v1380h222v-1194h563v-186z" />
    <glyph glyph-name="ldot" unicode="&#x140;" horiz-adv-x="823" 
d="M795 828q0 -64 -39.5 -105t-101.5 -41t-100 42t-38 104t39 105.5t101 43.5t100.5 -42.5t38.5 -106.5zM360 0h-221v1452h221v-1452z" />
    <glyph glyph-name="Lslash" unicode="&#x141;" horiz-adv-x="985" 
d="M942 0h-784v528l-164 -120v165l164 119v688h221v-538l264 190v-166l-264 -190v-490h563v-186z" />
    <glyph glyph-name="lslash" unicode="&#x142;" horiz-adv-x="518" 
d="M371 0h-221v553l-138 -115v168l138 117v729h221v-563l143 123v-170l-143 -123v-719z" />
    <glyph glyph-name="Nacute" unicode="&#x143;" horiz-adv-x="1343" 
d="M1198 0h-227l-381 641q-154 260 -246 471l-6 -2q14 -231 14 -586v-524h-205v1380h246l381 -632q133 -221 236 -457l4 2q-23 233 -23 573v514h207v-1380zM979 1700l-256 -244h-180l184 244h252z" />
    <glyph glyph-name="nacute" unicode="&#x144;" horiz-adv-x="1138" 
d="M1004 0h-222v571q0 264 -200 265q-98 0 -160 -73t-62 -171v-592h-221v711q0 131 -8 284h195l10 -153h6q39 72 122 123q84 51 208 51t217 -90q115 -111 115 -330v-596zM856 1430l-250 -300h-155l180 300h225z" />
    <glyph glyph-name="Ncommaaccent" unicode="&#x145;" horiz-adv-x="1343" 
d="M1198 0h-227l-381 641q-154 260 -246 471l-6 -2q14 -231 14 -586v-524h-205v1380h246l381 -632q133 -221 236 -457l4 2q-23 233 -23 573v514h207v-1380zM827 -233q0 -160 -114.5 -195t-167.5 -37l-39 100q57 10 102 41t45 92t-65 121l160 31q79 -59 79 -153z" />
    <glyph glyph-name="ncommaaccent" unicode="&#x146;" horiz-adv-x="1138" 
d="M1004 0h-222v571q0 264 -200 265q-98 0 -160 -73t-62 -171v-592h-221v711q0 131 -8 284h195l10 -153h6q39 72 122 123q84 51 208 51t217 -90q115 -111 115 -330v-596zM547 -233q0 62 -66 120l160 31q31 -20 55.5 -61t24.5 -97q0 -107 -84.5 -165t-198.5 -62l-39 100
q57 10 102.5 41t45.5 93z" />
    <glyph glyph-name="Ncaron" unicode="&#x147;" horiz-adv-x="1343" 
d="M1198 0h-227l-381 641q-154 260 -246 471l-6 -2q14 -231 14 -586v-524h-205v1380h246l381 -632q133 -221 236 -457l4 2q-23 233 -23 573v514h207v-1380zM610 1446l-211 240h172l123 -138h4l121 138h168l-209 -240h-168z" />
    <glyph glyph-name="ncaron" unicode="&#x148;" horiz-adv-x="1138" 
d="M500 1126l-199 299h160l117 -190h4l114 190h158l-197 -299h-157zM1004 0h-222v571q0 264 -200 265q-98 0 -160 -73t-62 -171v-592h-221v711q0 131 -8 284h195l10 -153h6q39 72 122 123q84 51 208 51t217 -90q115 -111 115 -330v-596z" />
    <glyph glyph-name="napostrophe" unicode="&#x149;" horiz-adv-x="1353" 
d="M408 1417q-88 -309 -209 -508l-138 -14q90 246 129 502zM1219 0h-222v571q0 264 -200 265q-97 0 -159 -73t-63 -171v-592h-221v711q0 131 -8 284h195l10 -153h6q39 72 122 123t207 51t218 -90q115 -111 115 -330v-596z" />
    <glyph glyph-name="Eng" unicode="&#x14a;" horiz-adv-x="1343" 
d="M1198 0h-4q-18 -216 -126 -324t-323 -110l-22 174q133 10 182 66t64 196l-379 639q-154 260 -246 471l-6 -2q14 -231 14 -586v-524h-205v1380h246l381 -632q133 -221 236 -457l4 2q-23 233 -23 573v514h207v-1380z" />
    <glyph glyph-name="eng" unicode="&#x14b;" horiz-adv-x="1138" 
d="M1004 596v-596h-5q-17 -216 -125 -324t-323 -110l-23 174q132 10 190 76t64 309v446q0 264 -200 265q-98 0 -160 -73t-62 -171v-592h-221v711q0 131 -8 284h195l10 -153h6q39 72 122 123q84 51 208 51t217 -90q115 -111 115 -330z" />
    <glyph glyph-name="Omacron" unicode="&#x14c;" horiz-adv-x="1396" 
d="M1090 692q0 209 -93 357q-106 176 -302 176t-302 -181q-90 -147 -90 -356t92 -356q109 -176 305 -176t301 180q89 147 89 356zM1325 697q0 -305 -166 -512t-463 -207t-461 202q-163 203 -163 503t170 510t463 210t462 -209q158 -192 158 -497zM950 1640v-131h-501v131
h501z" />
    <glyph glyph-name="omacron" unicode="&#x14d;" horiz-adv-x="1120" 
d="M819 499.5q0 137.5 -59 235.5q-70 119 -201 119t-201 -119q-59 -98 -59 -237q-1 -139 65 -248t194 -109t200 121q61 100 61 237.5zM565 1016q223 0 353 -144t131 -369q0 -226 -134 -376q-133 -150 -357 -150t-354 145.5t-130 371.5t134 374t357 148zM801 1331v-133h-477
v133h477z" />
    <glyph glyph-name="Obreve" unicode="&#x14e;" horiz-adv-x="1396" 
d="M1090 692q0 209 -93 357q-106 176 -302 176t-302 -181q-90 -147 -90 -356t92 -356q109 -176 305 -176t301 180q89 147 89 356zM1325 697q0 -305 -166 -512t-463 -207t-461 202q-163 203 -163 503t170 510t463 210t462 -209q158 -192 158 -497zM948 1755q0 -113 -66 -181
t-185 -69q-117 0 -183 67t-65 183h116q18 -133 131 -133q127 0 138 133h114z" />
    <glyph glyph-name="obreve" unicode="&#x14f;" horiz-adv-x="1120" 
d="M819 500q0 137 -59 235q-70 119 -201 119t-201 -119q-59 -98 -59 -237q-1 -139 65 -248t194 -109t200 121q61 101 61 238zM1049 503q0 -226 -134 -376q-133 -150 -357 -150q-224 -1 -354 145t-130 372t134 374t357 148t353 -144t131 -369zM811 1368q0 -114 -67 -182
q-66 -68 -184 -68t-184 67t-65 183h117q18 -133 131 -133q127 0 137 133h115z" />
    <glyph glyph-name="Ohungarumlaut" unicode="&#x150;" horiz-adv-x="1396" 
d="M1090 692q0 209 -93 357q-106 176 -302 176t-302 -181q-90 -147 -90 -356t92 -356q109 -176 305 -176t301 180q89 147 89 356zM1325 697q0 -305 -166 -512t-463 -207t-461 202q-163 203 -163 503t170 510t463 210t462 -209q158 -192 158 -497zM1180 1704l-224 -234h-157
l153 234h228zM854 1704l-221 -234h-158l154 234h225z" />
    <glyph glyph-name="ohungarumlaut" unicode="&#x151;" horiz-adv-x="1120" 
d="M819 499.5q0 137.5 -59 235.5q-70 119 -201 119t-201 -119q-59 -98 -59 -237q-1 -139 65 -248t194 -109t200 121q61 100 61 237.5zM565 1016q223 0 353 -144t131 -369q0 -226 -134 -376q-133 -150 -357 -150t-354 145.5t-130 371.5t134 374t357 148zM975 1425l-217 -288
h-133l151 288h199zM662 1425l-218 -288h-133l152 288h199z" />
    <glyph glyph-name="OE" unicode="&#x152;" horiz-adv-x="1820" 
d="M763 1225q-209 0 -333.5 -146.5t-124.5 -387.5t125.5 -388t343.5 -147q115 0 176 26v1012q-80 31 -187 31zM1714 1380v-182h-543v-391h512v-180h-512v-445h574v-182h-717l-291 -23q-300 0 -482.5 193t-182.5 517q0 323 185 519.5t488 196.5l304 -23h665z" />
    <glyph glyph-name="oe" unicode="&#x153;" horiz-adv-x="1738" 
d="M557 854q-119 0 -187.5 -98.5t-68.5 -253.5t72.5 -257t187.5 -102t181.5 101.5t66.5 258.5t-66.5 254t-185.5 97zM1458 602q0 117 -54 188.5t-154 71.5t-164 -72.5t-72 -187.5h444zM1669 572q0 -80 -6 -123h-645q2 -141 85 -220t215 -79t267 53l37 -154
q-125 -70 -330 -69q-264 0 -379 213h-4q-111 -213 -372 -213q-204 0 -333.5 142t-129.5 374t134 377t343 145q123 0 218 -55.5t142 -159.5h4q113 215 351 215q185 0 266.5 -95.5t109 -183t27.5 -167.5z" />
    <glyph glyph-name="Racute" unicode="&#x154;" horiz-adv-x="1122" 
d="M809 985q0 236 -283 238q-106 0 -159 -15v-465h155q131 0 209 66.5t78 175.5zM504 580h-137v-580h-220v1362q152 29 359 29q280 -1 402 -105t122 -278q0 -126 -72 -218t-180 -131v-4q141 -53 195 -274q78 -326 106 -381h-229q-33 61 -90 328q-29 139 -87.5 195.5
t-168.5 56.5zM856 1704l-258 -244h-178l184 244h252z" />
    <glyph glyph-name="racute" unicode="&#x155;" horiz-adv-x="694" 
d="M676 1413l-248 -297h-154l177 297h225zM596 807q-117 0 -176 -83t-60 -202v-522h-221l2 682q0 172 -8 313h193l8 -190h6q35 98 111 158q74 53 159 53q31 0 56 -4v-211q-33 6 -70 6z" />
    <glyph glyph-name="Rcommaaccent" unicode="&#x156;" horiz-adv-x="1122" 
d="M809 985q0 236 -283 238q-106 0 -159 -15v-465h155q131 0 209 66.5t78 175.5zM504 580h-137v-580h-220v1362q152 29 359 29q280 -1 402 -105t122 -278q0 -126 -72 -218t-180 -131v-4q141 -53 195 -274q78 -326 106 -381h-229q-33 61 -90 328q-29 139 -87.5 195.5
t-168.5 56.5zM406 -356q147 26 147 132q0 61 -66 122l160 30q80 -59 80 -153q0 -160 -114.5 -195t-168.5 -37z" />
    <glyph glyph-name="rcommaaccent" unicode="&#x157;" horiz-adv-x="694" 
d="M596 807q-117 0 -176 -83t-60 -202v-522h-221l2 682q0 172 -8 313h193l8 -190h6q35 98 111 158q74 53 159 53q31 0 56 -4v-211q-33 6 -70 6zM328 -82q82 -61 82 -163t-82.5 -160t-200.5 -62l-39 98q57 10 102.5 42t45.5 95t-68 119z" />
    <glyph glyph-name="Rcaron" unicode="&#x158;" horiz-adv-x="1122" 
d="M809 985q0 236 -283 238q-106 0 -159 -15v-465h155q131 0 209 66.5t78 175.5zM504 580h-137v-580h-220v1362q152 29 359 29q280 -1 402 -105t122 -278q0 -126 -72 -218t-180 -131v-4q141 -53 195 -274q78 -326 106 -381h-229q-33 61 -90 328q-29 139 -87.5 195.5
t-168.5 56.5zM471 1458l-211 240h172l123 -137h4l119 137h170l-209 -240h-168z" />
    <glyph glyph-name="rcaron" unicode="&#x159;" horiz-adv-x="694" 
d="M596 807q-117 0 -176 -83t-60 -202v-522h-221l2 682q0 172 -8 313h193l8 -190h6q35 98 111 158q74 53 159 53q31 0 56 -4v-211q-33 6 -70 6zM291 1126l-199 299h160l115 -190h4l114 190h158l-197 -299h-155z" />
    <glyph glyph-name="Sacute" unicode="&#x15a;" horiz-adv-x="1021" 
d="M940 370q0 -160 -129 -275t-361 -115t-368 86l51 184q145 -86 295 -86t219.5 56t69.5 146t-57.5 146.5t-190.5 105.5q-362 135 -363 396q0 170 128 278.5t328 108.5t325 -66l-56 -180q-117 63 -249 63t-192 -54t-60 -132t59 -129t221 -115t246 -161t84 -257zM850 1704
l-256 -244h-180l184 244h252z" />
    <glyph glyph-name="sacute" unicode="&#x15b;" horiz-adv-x="823" 
d="M707 1413l-248 -297h-154l176 297h226zM748 287q0 -139 -102 -223t-278 -84t-294 67l47 164q115 -70 244 -70q170 0 170 125q0 55 -37 91t-131 71q-266 98 -267 287q0 129 99 215t253 86t259 -60l-47 -157q-96 57 -184 57t-127.5 -32.5t-39.5 -84t38 -83.5t138 -68
q259 -98 259 -301z" />
    <glyph glyph-name="Scircumflex" unicode="&#x15c;" horiz-adv-x="1021" 
d="M330 1032q0 -78 59 -129t221 -115t246 -162q84 -96 84 -256t-129 -275t-361 -115t-368 86l51 184q145 -86 295 -86t220 56t69 146q1 90 -57 146q-58 57 -191 106q-362 135 -363 396q0 170 128 278t328 109q200 0 325 -66l-56 -180q-117 63 -249 63t-192 -54t-60 -132z
M776 1503h-153l-113 185h-4l-111 -185h-151l194 297h142z" />
    <glyph glyph-name="scircumflex" unicode="&#x15d;" horiz-adv-x="823" 
d="M748 287q0 -139 -102 -223t-278 -84t-294 67l47 164q115 -70 244 -70q170 0 170 125q0 55 -37 91t-131 71q-266 98 -267 287q0 129 98 215t254 86q154 0 259 -60l-47 -157q-96 57 -184 57t-128 -33q-39 -33 -39 -84t38 -83t138 -68q259 -98 259 -301zM676 1118h-154
l-112 185h-4l-111 -185h-152l195 297h141z" />
    <glyph glyph-name="Scedilla" unicode="&#x15e;" horiz-adv-x="1021" 
d="M940 370q0 -160 -123 -270q-94 -84 -242 -108l-49 -90q59 -8 101.5 -47t42.5 -97q0 -170 -224 -170q-88 0 -147 37l33 96q53 -31 112 -30q82 0 82 61q-2 68 -159 82l79 146h-6q-223 0 -358 86l51 184q145 -86 295 -86t219.5 56t69.5 146t-57.5 146.5t-190.5 105.5
q-362 135 -363 396q0 170 128 278.5t328 108.5t325 -66l-56 -180q-117 63 -249 63t-192 -54t-60 -132t59 -129t221 -115t246 -161t84 -257z" />
    <glyph glyph-name="scedilla" unicode="&#x15f;" horiz-adv-x="823" 
d="M748 287q0 -139 -103 -224q-70 -57 -176 -75l-49 -86q59 -8 101 -47t42 -97q0 -170 -223 -170q-86 0 -147 37l34 96q51 -31 111 -30q82 0 82 61q-2 68 -158 82l78 146q-156 4 -266 67l47 164q115 -70 244 -70q170 0 170 125q0 55 -37 91t-131 71q-266 98 -267 287
q0 129 99 215t253 86t259 -60l-47 -157q-96 57 -184 57t-127.5 -32.5t-39.5 -84t38 -83.5t138 -68q259 -98 259 -301z" />
    <glyph glyph-name="Scaron" unicode="&#x160;" horiz-adv-x="1021" 
d="M453 1462l-211 240h172l123 -137h4l118 137h170l-208 -240h-168zM940 370q0 -160 -129 -275t-361 -115t-368 86l51 184q145 -86 295 -86t219.5 56t69.5 146t-57.5 146.5t-190.5 105.5q-362 135 -363 396q0 170 128 278.5t328 108.5t325 -66l-56 -180q-117 63 -249 63
t-192 -54t-60 -132t59 -129t221 -115t246 -161t84 -257z" />
    <glyph glyph-name="scaron" unicode="&#x161;" horiz-adv-x="823" 
d="M342 1130l-199 300h160l115 -191h4l117 191h155l-196 -300h-156zM748 287q0 -139 -102 -223t-278 -84t-294 67l47 164q115 -70 244 -70q170 0 170 125q0 55 -37 91t-131 71q-266 98 -267 287q0 129 99 215t253 86t259 -60l-47 -157q-96 57 -184 57t-127.5 -32.5
t-39.5 -84t38 -83.5t138 -68q259 -98 259 -301z" />
    <glyph glyph-name="Tcedilla" unicode="&#x162;" horiz-adv-x="1032" 
d="M403 0v1194h-393v186h1012v-186h-395v-1194h-37l-58 -98q60 -8 102 -47t42 -97q0 -170 -223 -170q-90 0 -148 37l33 96q51 -31 113 -30q82 0 81 61q0 64 -159 82l91 166h-61z" />
    <glyph glyph-name="tcedilla" unicode="&#x163;" horiz-adv-x="694" 
d="M492 -247q0 62 -160 81l81 148q-99 12 -166 84t-67 262v501h-145v166h145v183l217 65v-248h244v-166h-244v-483q0 -184 129 -184q59 0 99 10l6 -168q-38 -14 -91 -20l-48 -82q59 -8 101 -47t42 -97q0 -170 -223 -170q-90 0 -148 37l33 96q51 -31 113 -30q82 0 82 62z" />
    <glyph glyph-name="Tcaron" unicode="&#x164;" horiz-adv-x="1032" 
d="M1022 1194h-395v-1194h-224v1194h-393v186h1012v-186zM432 1452l-211 240h172l123 -138h4l119 138h170l-209 -240h-168z" />
    <glyph glyph-name="tcaron" unicode="&#x165;" horiz-adv-x="702" 
d="M641 829h-244v-483q0 -184 129 -184q59 0 99 10l6 -168q-67 -24 -185 -24t-192 79.5t-74 268.5v501h-145v166h145v183l217 65v-248h244v-166zM614 1350q0 60 -53 110l152 29q25 -16 47 -55t22 -89q0 -91 -59 -152t-123 -83l-59 84q73 54 73 156z" />
    <glyph glyph-name="Tbar" unicode="&#x166;" horiz-adv-x="1032" 
d="M825 694h-198v-694h-224v694h-184v166h184v334h-393v186h1012v-186h-395v-334h198v-166z" />
    <glyph glyph-name="tbar" unicode="&#x167;" horiz-adv-x="694" 
d="M641 449h-244v-103q0 -184 129 -184q59 0 99 10l6 -168q-67 -24 -185 -24t-192 79.5t-74 268.5v121h-145v165h145v215h-145v166h145v183l217 65v-248h244v-166h-244v-215h244v-165z" />
    <glyph glyph-name="Utilde" unicode="&#x168;" horiz-adv-x="1323" 
d="M924 1690q0 -106 -34 -159.5t-112 -53.5q-42 0 -126.5 37.5t-92.5 37.5q-43 0 -51 -88h-109v21q0 94 38 146t92 52t134 -39.5t97 -39.5q51 0 57 86h107zM1178 580q0 -293 -136.5 -448t-392.5 -155q-504 0 -504 598v805h222v-817q0 -193 74.5 -299t215.5 -106
q299 0 299 405v817h222v-800z" />
    <glyph glyph-name="utilde" unicode="&#x169;" horiz-adv-x="1130" 
d="M823 1370q0 -106 -33.5 -158.5t-109.5 -52.5q-33 0 -119 39t-96 39q-47 0 -53 -92h-107q0 98 36 158.5t105 60.5q24 0 117 -40t105 -40q47 0 53 86h102zM991 287q0 -143 8 -287h-194l-12 152h-5q-104 -174 -315 -175q-166 0 -253 113t-87 320v585h221v-549
q0 -287 197 -286q144 0 181.5 85t37.5 142v608h221v-708z" />
    <glyph glyph-name="Umacron" unicode="&#x16a;" horiz-adv-x="1323" 
d="M1178 580q0 -306 -142 -454t-387 -149q-504 0 -504 598v805h222v-817q0 -203 82 -307q74 -98 208 -98q299 0 299 405v817h222v-800zM913 1634v-131h-501v131h501z" />
    <glyph glyph-name="umacron" unicode="&#x16b;" horiz-adv-x="1130" 
d="M133 995h221v-549q0 -287 197 -286q147 0 205 143q14 37 14 84v608h221v-708q0 -142 8 -287h-194l-12 152h-5q-104 -174 -315 -175q-147 0 -235 93q-104 113 -105 340v585zM801 1331v-133h-477v133h477z" />
    <glyph glyph-name="Ubreve" unicode="&#x16c;" horiz-adv-x="1323" 
d="M1178 580q0 -306 -142 -454t-387 -149q-504 0 -504 598v805h222v-817q0 -203 82 -307q74 -98 208 -98q299 0 299 405v817h222v-800zM911 1733q-1 -113 -67 -182t-184 -69t-183 68q-66 66 -65 183h116q18 -133 131 -134q127 0 138 134h114z" />
    <glyph glyph-name="ubreve" unicode="&#x16d;" horiz-adv-x="1130" 
d="M133 995h221v-549q0 -287 197 -286q147 0 205 143q14 37 14 84v608h221v-708q0 -142 8 -287h-194l-12 152h-5q-104 -174 -315 -175q-147 0 -235 93q-104 113 -105 340v585zM815 1348q-1 -113 -67 -182q-66 -68 -184 -68t-184 66t-65 184h117q18 -133 131 -134
q127 0 137 134h115z" />
    <glyph glyph-name="Uring" unicode="&#x16e;" horiz-adv-x="1323" 
d="M1178 580q0 -306 -142 -454t-387 -149q-504 0 -504 598v805h222v-817q0 -203 82 -307q74 -98 208 -98q299 0 299 405v817h222v-800zM440 1616q0 45 17.5 85t47.5 69.5t69.5 47t85 17.5t85 -17.5t69.5 -47t47.5 -69.5t17.5 -85t-17.5 -85t-47.5 -69.5t-69.5 -47t-85 -17.5
t-85 17.5t-69.5 47t-47.5 69.5t-17.5 85zM764 1614q0 43 -31 74.5t-74 31.5t-73.5 -31.5t-30.5 -74.5t30.5 -73t73.5 -30t74 30t31 73z" />
    <glyph glyph-name="uring" unicode="&#x16f;" horiz-adv-x="1130" 
d="M133 995h221v-549q0 -287 197 -286q147 0 205 143q14 37 14 84v608h221v-708q0 -142 8 -287h-194l-12 152h-5q-104 -174 -315 -175q-147 0 -235 93q-104 113 -105 340v585zM649 1289q0 36 -25.5 61.5t-61.5 25.5t-61.5 -25.5t-25.5 -61.5t25.5 -61.5t61.5 -25.5
t61.5 25.5t25.5 61.5zM424 1151q-57 57 -57 139t58 138.5t138 56.5t137.5 -57.5t57.5 -137.5t-56.5 -138t-138.5 -58t-139 57z" />
    <glyph glyph-name="Uhungarumlaut" unicode="&#x170;" horiz-adv-x="1323" 
d="M1178 580q0 -306 -142 -454t-387 -149q-504 0 -504 598v805h222v-817q0 -203 82 -307q74 -98 208 -98q299 0 299 405v817h222v-800zM1112 1700l-221 -234h-158l154 234h225zM788 1700l-221 -234h-157l153 234h225z" />
    <glyph glyph-name="uhungarumlaut" unicode="&#x171;" horiz-adv-x="1130" 
d="M133 995h221v-549q0 -287 197 -286q147 0 205 143q14 37 14 84v608h221v-708q0 -142 8 -287h-194l-12 152h-5q-104 -174 -315 -175q-147 0 -235 93q-104 113 -105 340v585zM653 1413l-217 -287h-129l152 287h194zM965 1413l-217 -287h-132l152 287h197z" />
    <glyph glyph-name="Uogonek" unicode="&#x172;" horiz-adv-x="1323" 
d="M526 -264q0 72 38 136.5t79 104.5q-498 4 -498 598v805h222v-817q0 -203 82 -307q74 -98 208 -98q299 0 299 405v817h222v-800q0 -305 -148 -459q-88 -92 -219 -125q-121 -109 -121 -195q0 -41 26.5 -62.5t69.5 -21.5t86 19l31 -109q-74 -53 -175 -53t-151.5 45
t-50.5 117z" />
    <glyph glyph-name="uogonek" unicode="&#x173;" horiz-adv-x="1130" 
d="M978 -287q50 0 87 19l33 -111q-66 -51 -168 -51q-213 0 -213 188q0 114 88 246l-12 148h-5q-104 -174 -315 -175q-147 0 -235 93q-104 113 -105 340v585h221v-549q0 -287 197 -286q147 0 205 143q14 37 14 84v608h221v-708q0 -142 8 -287l-63 4q-116 -186 -62 -238.5
t104 -52.5z" />
    <glyph glyph-name="Wcircumflex" unicode="&#x174;" horiz-adv-x="1734" 
d="M1714 1380l-373 -1380h-233l-152 672q-59 260 -82 442h-4q-29 -178 -96 -442l-172 -672h-235l-336 1380h235l142 -653q49 -229 92 -479h4q27 166 104 481l160 651h229l146 -657q61 -268 88 -471h4q35 209 90 444l164 684h225zM1139 1483h-154l-113 184h-4l-110 -184h-152
l195 297h141z" />
    <glyph glyph-name="wcircumflex" unicode="&#x175;" horiz-adv-x="1501" 
d="M1473 995l-312 -995h-203l-129 432q-49 162 -79 322h-5q-29 -164 -79 -322l-138 -432h-204l-293 995h227l113 -473q41 -168 67 -319h4q25 125 82 317l142 475h180l135 -465q49 -170 80 -327h6q23 154 68 327l120 465h218zM1018 1098h-154l-112 184h-4l-111 -184h-152
l195 297h141z" />
    <glyph glyph-name="Ycircumflex" unicode="&#x176;" horiz-adv-x="1126" 
d="M672 0h-221v578l-428 802h251l172 -362q78 -166 125 -281h4q43 113 123 281l174 362h250l-450 -796v-584zM838 1483h-154l-113 184h-4l-110 -184h-152l195 297h141z" />
    <glyph glyph-name="ycircumflex" unicode="&#x177;" horiz-adv-x="983" 
d="M389 33q0 14 -12 47l-361 915h244l189 -555q27 -76 59 -196h4q18 66 55 198l168 553h236l-252 -690q-180 -489 -338 -631q-117 -104 -244 -125l-53 187q76 22 156 84t133 168q16 31 16 45zM760 1098h-154l-112 184h-5l-110 -184h-152l195 297h141z" />
    <glyph glyph-name="Ydieresis" unicode="&#x178;" horiz-adv-x="1126" 
d="M672 0h-221v578l-428 802h251l172 -362q83 -169 125 -281h4q60 150 123 281l174 362h250l-450 -796v-584zM492 1584q0 -48 -32 -81t-79 -33t-79 34t-32 81t33 81t80 34t78 -34t31 -82zM877 1584q0 -48 -32 -81t-80 -33t-79 34t-31 81t32 81t80 34t79 -34t31 -82z" />
    <glyph glyph-name="Zacute" unicode="&#x179;" horiz-adv-x="1122" 
d="M1061 0h-1006v125l711 1071h-649v184h934v-133l-703 -1063h713v-184zM870 1700l-258 -244h-178l184 244h252z" />
    <glyph glyph-name="zacute" unicode="&#x17a;" horiz-adv-x="888" 
d="M850 0h-811v129l397 522q37 49 135 162v4h-493v178h762v-137l-389 -514q-66 -84 -136 -162v-4h535v-178zM752 1425l-250 -299h-156l180 299h226z" />
    <glyph glyph-name="Zdotaccent" unicode="&#x17b;" horiz-adv-x="1122" 
d="M1061 0h-1006v125l711 1071h-649v184h934v-133l-703 -1063h713v-184zM565 1466q-47 0 -79.5 36t-32.5 82t32.5 80t81.5 34t81 -34t32 -80t-33 -82t-80 -36h-2z" />
    <glyph glyph-name="zdotaccent" unicode="&#x17c;" horiz-adv-x="888" 
d="M850 0h-811v129l397 522q37 49 135 162v4h-493v178h762v-137l-389 -514q-66 -84 -136 -162v-4h535v-178zM457 1153q-49 0 -82 35t-33 84t34 83t83 34t80.5 -34t31.5 -83t-30.5 -84t-81.5 -35h-2z" />
    <glyph glyph-name="Zcaron" unicode="&#x17d;" horiz-adv-x="1122" 
d="M504 1458l-211 240h172l123 -137h4l119 137h170l-209 -240h-168zM1061 0h-1006v125l711 1071h-649v184h934v-133l-703 -1063h713v-184z" />
    <glyph glyph-name="zcaron" unicode="&#x17e;" horiz-adv-x="888" 
d="M389 1130l-199 300h160l115 -191h4l115 191h157l-196 -300h-156zM850 0h-811v129l397 522q37 49 135 162v4h-493v178h762v-137l-389 -514q-66 -84 -136 -162v-4h535v-178z" />
    <glyph glyph-name="longs" unicode="&#x17f;" horiz-adv-x="624" 
d="M557 1296q-174 0 -174 -249v-1047h-219v829h-135v166h135v45q0 227 117 340q98 94 249 95q88 0 156 -27l-20 -172q-49 20 -109 20z" />
    <glyph glyph-name="florin" unicode="&#x192;" horiz-adv-x="1062" 
d="M864 829v-159h-250l-49 -402q-28 -241 -115 -342.5t-253 -101.5q-106 0 -166 35l35 155q46 -20 120 -20t113 71.5t59 237.5l43 367h-176v159h195l10 86q51 438 404 439q90 0 149 -31l-39 -160q-53 18 -102 19q-166 0 -197 -250l-12 -103h231z" />
    <glyph glyph-name="Ohorn" unicode="&#x1a0;" horiz-adv-x="1396" 
d="M981.5 1074q-108.5 151 -284.5 151t-285 -152t-109 -382q0 -231 109.5 -383t285.5 -152t284 151t108 383q0 233 -108.5 384zM1325 705q0 -330 -173.5 -529t-455.5 -199q-281 0 -452.5 197t-171.5 509t176 516t459 204q135 0 259.5 -55.5t171.5 -55.5q48 0 67.5 22.5
t19.5 79.5t-37 124l166 30q41 -90 41 -179t-52.5 -146.5t-162.5 -51.5q145 -184 145 -466z" />
    <glyph glyph-name="ohorn" unicode="&#x1a1;" horiz-adv-x="1120" 
d="M748.5 753q-70.5 101 -189.5 101t-189.5 -101t-70.5 -257.5t73.5 -255.5t187.5 -99t186.5 103.5t72.5 255.5t-70.5 253zM1049 506q0 -233 -136.5 -381t-355.5 -148t-351 142.5t-132 374.5q0 231 135 376.5t360 145.5q117 0 205 -41t133 -41q78 0 78 78q0 61 -35 129
l162 28q39 -85 39 -167t-50 -134.5t-145 -52.5q93 -122 93 -309z" />
    <glyph glyph-name="Uhorn" unicode="&#x1af;" horiz-adv-x="1392" 
d="M1405 1437q0 -166 -227 -184v-673q0 -293 -136.5 -448t-392.5 -155q-504 0 -504 598v805h222v-817q0 -193 74.5 -299t215.5 -106q299 0 299 405v817h185q57 0 77.5 18t20.5 72t-35 113l162 29q39 -90 39 -175z" />
    <glyph glyph-name="uhorn" unicode="&#x1b0;" horiz-adv-x="1130" 
d="M1192 1060q0 -81 -57.5 -130t-143.5 -49v-594q0 -143 8 -287h-194l-12 152h-5q-104 -174 -315 -175q-166 0 -253 113t-87 320v585h221v-549q0 -287 197 -286q144 0 181.5 85t37.5 142v608h158q100 0 100 80q0 54 -39 125l164 27q39 -86 39 -167z" />
    <glyph glyph-name="clickdental" unicode="&#x1c0;" horiz-adv-x="512" 
d="M338 0h-164v1380h164v-1380z" />
    <glyph glyph-name="clicklateral" unicode="&#x1c1;" horiz-adv-x="1024" 
d="M850 0h-164v1380h164v-1380zM338 0h-164v1380h164v-1380z" />
    <glyph glyph-name="clickretroflex" unicode="&#x1c3;" horiz-adv-x="493" 
d="M387 123q0 -63 -40 -105t-102 -41q-62 0 -101 42q-38 43 -38 105t39 104t101 42t102 -42q39 -42 39 -105zM365 1380l-33 -966h-172l-33 966h238z" />
    <glyph glyph-name="DZcaron" unicode="&#x1c4;" horiz-adv-x="2478" 
d="M518 164q254 0 392 142t139 397q0 257 -128 385t-374 129q-104 0 -178 -15v-1032q41 -6 149 -6zM1282 723q0 -373 -215 -554t-596 -181q-188 0 -324 16v1358q176 29 381 29q362 0 547 -158q207 -178 207 -510zM2417 0h-1006v125l711 1071h-649v184h933v-133l-702 -1063
h713v-184zM2185 1780l-196 -297h-150l-199 297h158l113 -189h4l115 189h155z" />
    <glyph glyph-name="Dzcaron" unicode="&#x1c5;" horiz-adv-x="2244" 
d="M518 164q254 0 392 142t139 397q0 257 -128 385t-374 129q-104 0 -178 -15v-1032q41 -6 149 -6zM1282 723q0 -373 -215 -554t-596 -181q-188 0 -324 16v1358q176 29 381 29q362 0 547 -158q207 -178 207 -510zM2206 0h-811v129l397 522q37 49 135 162v4h-493v178h761
v-137l-389 -514q-66 -84 -135 -162v-4h535v-178zM2073 1395l-197 -297h-150l-198 297h158l112 -189h4l115 189h156z" />
    <glyph glyph-name="dzcaron" unicode="&#x1c6;" horiz-adv-x="2043" 
d="M795 420v166q0 126 -86 204q-61 54 -148 54q-123 0 -193 -98t-71 -249q0 -149 70 -245q71 -96 185 -96t178 79t65 185zM74 494q0 234 129 383q125 139 317 139t271 -135h4v571h221v-1184q0 -145 8 -268h-197l-10 160h-6q-94 -182 -319 -183q-180 -1 -299 141t-119 376z
M2005 0h-811v129l397 522q37 49 135 162v4h-493v178h762v-137l-389 -514q-66 -84 -136 -162v-4h535v-178zM1872 1395l-197 -297h-149l-199 297h158l112 -189h5l114 189h156z" />
    <glyph glyph-name="LJ" unicode="&#x1c7;" horiz-adv-x="1744" 
d="M932 0h-785v1380h222v-1194h563v-186zM1612 469q0 -492 -434 -492q-117 0 -199 33l29 178q70 -25 147 -24q119 0 177 70t59 245v901h221v-911z" />
    <glyph glyph-name="Lj" unicode="&#x1c8;" horiz-adv-x="1497" 
d="M932 0h-785v1380h222v-1194h563v-186zM1362 96q0 -292 -119 -410t-334 -120l-22 174q133 10 188 74q66 72 66 352v829h221v-899zM1252 1423q58 0 96 -37t38 -95t-38 -95t-98 -37q-58 0 -96 38t-38 95t39 94t97 37z" />
    <glyph glyph-name="lj" unicode="&#x1c9;" horiz-adv-x="1021" 
d="M360 0h-221v1452h221v-1452zM887 96q0 -292 -119 -410t-334 -120l-22 174q133 10 188 74q66 72 66 352v829h221v-899zM911 1291q0 -58 -39 -95t-97 -37t-96 38t-38 95t39 94t97 37t96 -37t38 -95z" />
    <glyph glyph-name="NJ" unicode="&#x1ca;" horiz-adv-x="2113" 
d="M1198 0h-227l-381 641q-154 260 -246 471l-6 -2q14 -231 14 -586v-524h-205v1380h246l381 -632q133 -221 236 -457l4 2q-23 233 -23 573v514h207v-1380zM1980 469q0 -492 -434 -492q-117 0 -198 33l28 178q70 -25 148 -24q119 0 177 70t58 245v901h221v-911z" />
    <glyph glyph-name="Nj" unicode="&#x1cb;" horiz-adv-x="1865" 
d="M1198 0h-227l-381 641q-154 260 -246 471l-6 -2q14 -231 14 -586v-524h-205v1380h246l381 -632q133 -221 236 -457l4 2q-23 233 -23 573v514h207v-1380zM1731 96q0 -292 -119 -410t-334 -120l-23 174q133 10 189 74q66 72 65 352v829h222v-899zM1755 1291q0 -58 -39 -95
t-97 -37t-96 38t-38 95t39 94t97 37t96 -37t38 -95z" />
    <glyph glyph-name="nj" unicode="&#x1cc;" horiz-adv-x="1660" 
d="M1004 0h-222v571q0 264 -200 265q-98 0 -160 -73t-62 -171v-592h-221v711q0 131 -8 284h195l10 -153h6q39 72 122 123q84 51 208 51t217 -90q115 -111 115 -330v-596zM1526 96q0 -292 -119 -410t-334 -120l-22 174q133 10 188 74q66 72 66 352v829h221v-899zM1550 1291
q0 -58 -39 -95t-97 -37t-96 38t-38 95t39 94t97 37t96 -37t38 -95z" />
    <glyph glyph-name="Acaron" unicode="&#x1cd;" horiz-adv-x="1259" 
d="M807 575l-117 361q-18 55 -69 260h-5q-20 -88 -65 -260l-115 -361h371zM1210 0h-235l-129 406h-449l-123 -406h-229l444 1380h275zM899 1780l-197 -297h-149l-199 297h158l113 -189h4l114 189h156z" />
    <glyph glyph-name="acaron" unicode="&#x1ce;" horiz-adv-x="1003" 
d="M655 342v154q-369 6 -368 -201q0 -78 43 -117q42 -39 112 -39t142 53t71 150zM649 662q0 197 -207 196q-147 0 -260 -74l-45 146q139 86 342 86q391 0 391 -412v-366q1 -150 15 -238h-199l-16 115h-6q-102 -137 -291 -138q-141 1 -223 87t-82 206q0 182 152 279
q153 96 429 94v19zM748 1415l-197 -297h-150l-198 297h157l113 -188h4l115 188h156z" />
    <glyph glyph-name="Icaron" unicode="&#x1cf;" horiz-adv-x="516" 
d="M369 0h-222v1380h222v-1380zM530 1780l-196 -297h-150l-198 297h157l113 -189h4l115 189h155z" />
    <glyph glyph-name="icaron" unicode="&#x1d0;" horiz-adv-x="499" 
d="M360 0h-221v995h221v-995zM522 1395l-196 -297h-150l-199 297h158l113 -189h4l115 189h155z" />
    <glyph glyph-name="Ocaron" unicode="&#x1d1;" horiz-adv-x="1396" 
d="M1090 692q0 209 -93 357q-106 176 -302 176t-302 -181q-90 -147 -90 -356t92 -356q109 -176 305 -176t301 180q89 147 89 356zM1325 697q0 -305 -166 -512t-463 -207t-461 202q-163 203 -163 503t170 510t463 210t462 -209q158 -192 158 -497zM971 1802l-197 -297h-149
l-199 297h158l112 -188h4l115 188h156z" />
    <glyph glyph-name="ocaron" unicode="&#x1d2;" horiz-adv-x="1120" 
d="M819 500q0 137 -59 235q-70 119 -201 119t-201 -119q-59 -98 -59 -237q-1 -139 65 -248t194 -109t200 121q61 101 61 238zM1049 503q0 -226 -134 -376q-133 -150 -357 -150q-224 -1 -354 145t-130 372t134 374t357 148t353 -144t131 -369zM834 1415l-197 -297h-150
l-198 297h157l113 -188h4l115 188h156z" />
    <glyph glyph-name="Ucaron" unicode="&#x1d3;" horiz-adv-x="1323" 
d="M1178 580q0 -306 -142 -454t-387 -149q-504 0 -504 598v805h222v-817q0 -203 82 -307q74 -98 208 -98q299 0 299 405v817h222v-800zM934 1780l-197 -297h-149l-199 297h158l112 -189h5l114 189h156z" />
    <glyph glyph-name="ucaron" unicode="&#x1d4;" horiz-adv-x="1130" 
d="M133 995h221v-549q0 -287 197 -286q147 0 205 143q14 37 14 84v608h221v-708q0 -142 8 -287h-194l-12 152h-5q-104 -174 -315 -175q-147 0 -235 93q-104 113 -105 340v585zM838 1395l-197 -297h-149l-199 297h158l112 -189h4l115 189h156z" />
    <glyph glyph-name="Udieresismacron" unicode="&#x1d5;" horiz-adv-x="1323" 
d="M1178 580q0 -306 -142 -454t-387 -149q-504 0 -504 598v805h222v-817q0 -203 82 -307q74 -98 208 -98q299 0 299 405v817h222v-800zM582 1596q0 -48 -32 -80t-79 -33q-47 0 -80 34q-33 35 -33 81t33 80t81 34t79 -34t31 -82zM967 1596q0 -48 -32 -80t-80 -33
q-48 0 -80 34q-32 35 -32 81t33 80t81 34t79 -34t31 -82zM899 1815h-473v127h473v-127z" />
    <glyph glyph-name="udieresismacron" unicode="&#x1d6;" horiz-adv-x="1130" 
d="M133 995h221v-549q0 -287 197 -286q147 0 205 143q14 37 14 84v608h221v-708q0 -142 8 -287h-194l-12 152h-5q-104 -174 -315 -175q-147 0 -235 93q-104 113 -105 340v585zM376 1327q48 0 78 -34t31 -82t-31 -81q-32 -32 -79 -32t-80 34t-33 80t33 81q33 34 81 34z
M761 1327q49 0 79 -34t30 -82t-32 -81q-32 -32 -79 -32q-48 0 -80 34t-32 80t33 81q33 34 81 34zM803 1430h-473v126h473v-126z" />
    <glyph glyph-name="Udieresisacute" unicode="&#x1d7;" horiz-adv-x="1323" 
d="M1178 580q0 -306 -142 -454t-387 -149q-504 0 -504 598v805h222v-817q0 -203 82 -307q74 -98 208 -98q299 0 299 405v817h222v-800zM582 1596q0 -48 -32 -80t-79 -33q-47 0 -80 34q-33 35 -33 81t33 80t81 34t79 -34t31 -82zM967 1596q0 -48 -32 -80t-80 -33
q-48 0 -80 34q-32 35 -32 81t33 80t81 34t79 -34t31 -82zM963 2111l-248 -296h-154l176 296h226z" />
    <glyph glyph-name="udieresisacute" unicode="&#x1d8;" horiz-adv-x="1130" 
d="M133 995h221v-549q0 -287 197 -286q147 0 205 143q14 37 14 84v608h221v-708q0 -142 8 -287h-194l-12 152h-5q-104 -174 -315 -175q-147 0 -235 93q-104 113 -105 340v585zM376 1327q48 0 78 -34t31 -82t-31 -81q-32 -32 -79 -32t-80 34t-33 80t33 81q33 34 81 34z
M761 1327q49 0 79 -34t30 -82t-32 -81q-32 -32 -79 -32q-48 0 -80 34t-32 80t33 81q33 34 81 34zM860 1726l-248 -296h-153l176 296h225z" />
    <glyph glyph-name="Udieresiscaron" unicode="&#x1d9;" horiz-adv-x="1323" 
d="M1178 580q0 -306 -142 -454t-387 -149q-504 0 -504 598v805h222v-817q0 -203 82 -307q74 -98 208 -98q299 0 299 405v817h222v-800zM582 1596q0 -48 -32 -80t-79 -33q-47 0 -80 34q-33 35 -33 81t33 80t81 34t79 -34t31 -82zM967 1596q0 -48 -32 -80t-80 -33
q-48 0 -80 34q-32 35 -32 81t33 80t81 34t79 -34t31 -82zM934 2111l-197 -296h-149l-199 296h158l112 -188h5l114 188h156z" />
    <glyph glyph-name="udieresiscaron" unicode="&#x1da;" horiz-adv-x="1130" 
d="M133 995h221v-549q0 -287 197 -286q147 0 205 143q14 37 14 84v608h221v-708q0 -142 8 -287h-194l-12 152h-5q-104 -174 -315 -175q-147 0 -235 93q-104 113 -105 340v585zM376 1327q48 0 78 -34t31 -82t-31 -81q-32 -32 -79 -32t-80 34t-33 80t33 81q33 34 81 34z
M761 1327q49 0 79 -34t30 -82t-32 -81q-32 -32 -79 -32q-48 0 -80 34t-32 80t33 81q33 34 81 34zM838 1726l-197 -296h-149l-199 296h158l112 -188h4l115 188h156z" />
    <glyph glyph-name="Udieresisgrave" unicode="&#x1db;" horiz-adv-x="1323" 
d="M1178 580q0 -306 -142 -454t-387 -149q-504 0 -504 598v805h222v-817q0 -203 82 -307q74 -98 208 -98q299 0 299 405v817h222v-800zM582 1596q0 -48 -32 -80t-79 -33q-47 0 -80 34q-33 35 -33 81t33 80t81 34t79 -34t31 -82zM967 1596q0 -48 -32 -80t-80 -33
q-48 0 -80 34q-32 35 -32 81t33 80t81 34t79 -34t31 -82zM748 1815h-154l-248 296h223z" />
    <glyph glyph-name="udieresisgrave" unicode="&#x1dc;" horiz-adv-x="1130" 
d="M133 995h221v-549q0 -287 197 -286q147 0 205 143q14 37 14 84v608h221v-708q0 -142 8 -287h-194l-12 152h-5q-104 -174 -315 -175q-147 0 -235 93q-104 113 -105 340v585zM376 1327q48 0 78 -34t31 -82t-31 -81q-32 -32 -79 -32t-80 34t-33 80t33 81q33 34 81 34z
M761 1327q49 0 79 -34t30 -82t-32 -81q-32 -32 -79 -32q-48 0 -80 34t-32 80t33 81q33 34 81 34zM666 1430h-154l-248 296h223z" />
    <glyph glyph-name="uni01DD" unicode="&#x1dd;" horiz-adv-x="1026" 
d="M499 135q114 0 181 90q55 72 65 172h-460q-2 -98 43 -170q57 -92 171 -92zM74 455q0 59 8 100h663q-4 147 -92 221t-228 74t-261 -47l-35 153q141 62 353 62t344 -136.5t132 -363.5t-126 -382q-126 -154 -342 -154q-218 0 -328 159q-88 128 -88 314z" />
    <glyph glyph-name="Adieresismacron" unicode="&#x1de;" horiz-adv-x="1259" 
d="M807 575l-117 361q-18 55 -69 260h-5q-20 -88 -65 -260l-115 -361h371zM1210 0h-235l-129 406h-449l-123 -406h-229l444 1380h275zM547 1596q0 -48 -32 -80t-79 -33q-47 0 -80 34q-32 35 -32 81t32 80q33 34 81 34t79 -34t31 -82zM932 1596q0 -48 -32 -80t-80 -33
q-48 0 -80 34q-32 35 -32 81t33 80t81 34t79 -34t31 -82zM864 1815h-473v127h473v-127z" />
    <glyph glyph-name="adieresismacron" unicode="&#x1df;" horiz-adv-x="1003" 
d="M655 342v154q-369 6 -368 -201q0 -78 43 -117q42 -39 112 -39t142 53t71 150zM649 662q0 197 -207 196q-147 0 -260 -74l-45 146q139 86 342 86q391 0 391 -412v-366q1 -150 15 -238h-199l-16 115h-6q-102 -137 -291 -138q-141 1 -223 87t-82 206q0 182 152 279
q153 96 429 94v19zM286 1348q48 0 78 -34t31 -82t-31 -81t-79 -33t-80 34t-33 81t33 81t81 34zM671 1348q49 0 79 -34t30 -82t-32 -81t-79 -33q-48 0 -80 34t-32 81t33 81t81 34zM713 1450h-473v127h473v-127z" />
    <glyph glyph-name="Adotmacron" unicode="&#x1e0;" horiz-adv-x="1259" 
d="M807 575l-117 361q-18 55 -69 260h-5q-20 -88 -65 -260l-115 -361h371zM1210 0h-235l-129 406h-449l-123 -406h-229l444 1380h275zM630 1712q48 0 78 -34t31 -82t-31 -80t-80 -33q-48 0 -80 34q-32 35 -32 81t33 80t81 34zM864 1815h-473v127h473v-127z" />
    <glyph glyph-name="adotmacron" unicode="&#x1e1;" horiz-adv-x="1003" 
d="M655 342v154q-369 6 -368 -201q0 -78 43 -117q42 -39 112 -39t142 53t71 150zM649 662q0 197 -207 196q-147 0 -260 -74l-45 146q139 86 342 86q391 0 391 -412v-366q1 -150 15 -238h-199l-16 115h-6q-102 -137 -291 -138q-141 1 -223 87t-82 206q0 182 152 279
q153 96 429 94v19zM588 1232q0 -48 -32 -81t-80 -33t-80 34t-31 81q0 47 32 81q33 34 81 34t79 -34t31 -82zM713 1450h-473v127h473v-127z" />
    <glyph glyph-name="AEmacron" unicode="&#x1e2;" horiz-adv-x="1634" 
d="M803 627l-43 377q-4 39 -9 93t-14 126h-8q-49 -142 -82 -217l-160 -379h316zM1573 182v-182h-690l-56 449h-407l-193 -449h-227l604 1380h909v-182h-567l45 -395h506v-180h-477l53 -441h500zM1024 1483h-473v127h473v-127z" />
    <glyph glyph-name="aemacron" unicode="&#x1e3;" horiz-adv-x="1576" 
d="M657 489h-30q-342 0 -342 -200q0 -66 42 -107t100 -41q58 1 98 17q83 34 116 112q16 39 16 84v135zM1298 614q0 106 -54 180t-153 72q-99 0 -162 -72t-69 -180h438zM1507 578q0 -72 -6 -121l-641 2q0 -147 80 -229t219 -80q139 0 262 53l37 -154q-131 -70 -332 -69
q-129 0 -229 53t-143 151h-6q-106 -205 -363 -204q-138 0 -229 83q-90 83 -88 209q0 180 153 271q154 90 432 90v39q0 78 -58 132t-180 54t-229 -74l-49 144q150 90 320 90q244 0 317 -193h4q113 193 338 193q176 0 285 -132q51 -62 79 -148q28 -88 27 -160zM1024 1120h-473
v127h473v-127z" />
    <glyph glyph-name="Gcaron" unicode="&#x1e6;" horiz-adv-x="1318" 
d="M819 1395q215 0 346 -64l-49 -180q-127 57 -301 57q-231 0 -371 -136t-139 -382q0 -246 132 -384t356 -138q139 0 200 29v374h-252v174h465v-684q-201 -76 -424 -75q-332 0 -522 183t-188 508q0 325 206 521t541 197zM1071 1794l-197 -297h-149l-199 297h158l113 -188h4
l114 188h156z" />
    <glyph glyph-name="gcaron" unicode="&#x1e7;" horiz-adv-x="1142" 
d="M782 426v176q0 100 -62 172t-170 72t-180 -94t-73 -244q0 -150 69 -244q69 -92 189 -92q74 0 132 44q95 72 95 210zM1004 713v-570q0 -322 -144 -450q-131 -119 -353 -119t-349 78l51 170q125 -76 283 -76q293 0 292 315v97h-4q-92 -152 -282 -152t-308 137
q-116 137 -116 363t130 368t322 142t279 -158h4l8 137h195q-8 -121 -8 -282zM815 1415l-197 -297h-149l-199 297h158l113 -188h4l114 188h156z" />
    <glyph glyph-name="Kcaron" unicode="&#x1e8;" horiz-adv-x="1140" 
d="M367 0h-220v1380h220v-647h6q53 84 102 150l375 497h272l-475 -587l508 -793h-260l-403 649l-125 -147v-502zM815 1780l-197 -297h-149l-199 297h158l113 -189h4l114 189h156z" />
    <glyph glyph-name="kcaron" unicode="&#x1e9;" horiz-adv-x="993" 
d="M360 0h-221v1452h221v-901h5q41 66 79 115l256 329h265l-367 -409l418 -586h-271l-301 455l-84 -103v-352zM766 1851l-197 -297h-149l-199 297h158l113 -188h4l114 188h156z" />
    <glyph glyph-name="Oogonek" unicode="&#x1ea;" horiz-adv-x="1396" 
d="M1090 692q0 209 -93 357q-106 176 -302 176t-302 -181q-90 -147 -90 -356t92 -356q109 -176 305 -176t301 180q89 147 89 356zM1325 697q-1 -305 -157 -500t-413 -217q-79 -40 -133 -102t-55 -116q0 -86 86 -86q55 0 99 21l18 -92q-64 -33 -150 -33t-136 43t-50 114
t65 149t131 102q-248 20 -404 212t-154 491q0 300 170 510t463 210t462 -209q158 -192 158 -497z" />
    <glyph glyph-name="oogonek" unicode="&#x1eb;" horiz-adv-x="1120" 
d="M819 500q0 137 -59 235q-70 119 -201 119t-201 -119q-59 -98 -59 -237q-1 -139 65 -248t194 -109t200 121q61 101 61 238zM74 494q0 226 134 374t357 148t353 -144t131 -369q0 -226 -131 -374q-119 -131 -306 -149q-78 -40 -133 -102t-55 -116q0 -86 86 -86q55 0 98 21
l19 -92q-63 -33 -149 -33t-137 43q-50 43 -50 114t64 149t134 103q-175 19 -295 153t-120 360z" />
    <glyph glyph-name="Oogonekmacron" unicode="&#x1ec;" horiz-adv-x="1396" 
d="M1090 692q0 209 -93 357q-106 176 -302 176t-302 -181q-90 -147 -90 -356t92 -356q109 -176 305 -176t301 180q89 147 89 356zM1325 697q1 -305 -157 -501t-422 -217q-75 -41 -129 -101t-54 -114q0 -86 86 -86q55 0 99 21l18 -92q-64 -33 -150 -33t-136 43t-50 114
t64 147q64 77 128 102q-243 22 -397 212q-153 190 -153 491q0 300 170 510t463 210t462 -209q158 -192 158 -497zM936 1505h-473v127h473v-127z" />
    <glyph glyph-name="oogonekmacron" unicode="&#x1ed;" horiz-adv-x="1120" 
d="M819 500q0 137 -59 235q-70 119 -201 119t-201 -119q-59 -98 -59 -237q-1 -139 65 -248t194 -109t200 121q61 101 61 238zM74 494q0 226 134 374t357 148t353 -144t131 -369q0 -226 -131 -374q-119 -131 -306 -149q-76 -40 -130 -101t-54 -115q0 -86 86 -86q55 0 98 21
l19 -92q-63 -33 -149 -33t-137 43q-50 43 -50 114t63 148q63 76 130 102q-174 19 -294 153t-120 360zM799 1118h-473v127h473v-127z" />
    <glyph glyph-name="uni01F0" unicode="&#x1f0;" horiz-adv-x="522" 
d="M539 1413l-197 -297h-149l-199 297h158l112 -188h4l115 188h156zM387 96q0 -292 -119 -410t-334 -120l-22 174q133 10 188 74q66 72 66 352v829h221v-899z" />
    <glyph glyph-name="DZ" unicode="&#x1f1;" horiz-adv-x="2478" 
d="M518 164q254 0 392 142t139 397q0 257 -128 385t-374 129q-104 0 -178 -15v-1032q41 -6 149 -6zM1282 723q0 -373 -215 -554t-596 -181q-188 0 -324 16v1358q176 29 381 29q362 0 547 -158q207 -178 207 -510zM2417 0h-1006v125l711 1071h-649v184h933v-133l-702 -1063
h713v-184z" />
    <glyph glyph-name="Dz" unicode="&#x1f2;" horiz-adv-x="2244" 
d="M518 164q254 0 392 142t139 397q0 257 -128 385t-374 129q-104 0 -178 -15v-1032q41 -6 149 -6zM1282 723q0 -373 -215 -554t-596 -181q-188 0 -324 16v1358q176 29 381 29q362 0 547 -158q207 -178 207 -510zM2206 0h-811v129l397 522q37 49 135 162v4h-493v178h761
v-137l-389 -514q-66 -84 -135 -162v-4h535v-178z" />
    <glyph glyph-name="dz" unicode="&#x1f3;" horiz-adv-x="2043" 
d="M795 420v166q0 126 -86 204q-61 54 -148 54q-123 0 -193 -98t-71 -249q0 -149 70 -245q71 -96 185 -96t178 79t65 185zM74 494q0 234 129 383q125 139 317 139t271 -135h4v571h221v-1184q0 -145 8 -268h-197l-10 160h-6q-94 -182 -319 -183q-180 -1 -299 141t-119 376z
M2005 0h-811v129l397 522q37 49 135 162v4h-493v178h762v-137l-389 -514q-66 -84 -136 -162v-4h535v-178z" />
    <glyph glyph-name="Gacute" unicode="&#x1f4;" horiz-adv-x="1318" 
d="M819 1395q215 0 346 -64l-49 -180q-127 57 -301 57q-231 0 -371 -136t-139 -382q0 -246 132 -384t356 -138q139 0 200 29v374h-252v174h465v-684q-201 -76 -424 -75q-332 0 -522 183t-188 508q0 325 206 521t541 197zM1141 1794l-248 -297h-154l176 297h226z" />
    <glyph glyph-name="gacute" unicode="&#x1f5;" horiz-adv-x="1142" 
d="M782 426v176q0 100 -62 172t-170 72t-180 -94t-73 -244q0 -150 69 -244q69 -92 189 -92q74 0 132 44q95 72 95 210zM1004 713v-570q0 -322 -144 -450q-131 -119 -353 -119t-349 78l51 170q125 -76 283 -76q293 0 292 315v97h-4q-92 -152 -282 -152t-308 137
q-116 137 -116 363t130 368t322 142t279 -158h4l8 137h195q-8 -121 -8 -282zM821 1415l-248 -297h-153l176 297h225z" />
    <glyph glyph-name="Ngrave" unicode="&#x1f8;" horiz-adv-x="1343" 
d="M1198 0h-227l-381 641q-154 260 -246 471l-6 -2q14 -231 14 -586v-524h-205v1380h246l381 -632q133 -221 236 -457l4 2q-23 233 -23 573v514h207v-1380zM778 1483h-153l-248 297h223z" />
    <glyph glyph-name="ngrave" unicode="&#x1f9;" horiz-adv-x="1138" 
d="M1004 0h-222v571q0 264 -200 265q-98 0 -160 -73t-62 -171v-592h-221v711q0 131 -8 284h195l10 -153h6q39 72 122 123q84 51 208 51t217 -90q115 -111 115 -330v-596zM745 1118h-153l-248 297h223z" />
    <glyph glyph-name="Aringacute" unicode="&#x1fa;" horiz-adv-x="1259" 
d="M807 575l-117 361q-18 55 -69 260h-5q-20 -88 -65 -260l-115 -361h371zM1210 0h-235l-129 406h-449l-123 -406h-229l444 1380h275zM628 1591q36 -1 62 25t25 62q0 36 -26 62q-25 26 -61 26t-62 -26t-26 -62t26 -62t62 -25zM766 1540q-56 -57 -138 -57t-139 57
q-57 56 -57 138t57 139t139 57t138 -58q57 -58 57 -138q0 -81 -57 -138zM938 2273l-248 -297h-153l176 297h225z" />
    <glyph glyph-name="aringacute" unicode="&#x1fb;" horiz-adv-x="1003" 
d="M655 342v154q-369 6 -368 -201q0 -78 43 -117q42 -39 112 -39t142 53t71 150zM649 662q0 197 -207 196q-147 0 -260 -74l-45 146q139 86 342 86q391 0 391 -412v-366q1 -150 15 -238h-199l-16 115h-6q-102 -137 -291 -138q-141 1 -223 87t-82 206q0 182 152 279
q153 96 429 94v19zM563 1314q1 36 -25 62t-62 25q-36 0 -62 -26q-26 -25 -25 -61q0 -36 26 -62q25 -26 61 -26t62 26q25 26 25 62zM476 1509q80 0 138 -57t58 -139t-57 -137q-57 -56 -139 -57t-139 57q-56 58 -56 139q0 82 57 138t138 56zM772 1909l-248 -297h-153l176 297
h225z" />
    <glyph glyph-name="AEacute" unicode="&#x1fc;" horiz-adv-x="1634" 
d="M803 627l-43 377q-4 39 -9 93t-14 126h-8q-49 -142 -82 -217l-160 -379h316zM1573 182v-182h-690l-56 449h-407l-193 -449h-227l604 1380h909v-182h-567l45 -395h506v-180h-477l53 -441h500zM1077 1780l-248 -297h-153l176 297h225z" />
    <glyph glyph-name="aeacute" unicode="&#x1fd;" horiz-adv-x="1576" 
d="M657 489h-30q-342 0 -342 -200q0 -66 42 -107t100 -41q58 1 98 17q83 34 116 112q16 39 16 84v135zM1298 614q0 106 -54 180t-153 72q-99 0 -162 -72t-69 -180h438zM1507 578q0 -72 -6 -121l-641 2q0 -147 80 -229t219 -80q139 0 262 53l37 -154q-131 -70 -332 -69
q-129 0 -229 53t-143 151h-6q-106 -205 -363 -204q-138 0 -229 83q-90 83 -88 209q0 180 153 271q154 90 432 90v39q0 78 -58 132t-180 54t-229 -74l-49 144q150 90 320 90q244 0 317 -193h4q113 193 338 193q176 0 285 -132q51 -62 79 -148q28 -88 27 -160zM1092 1417
l-248 -297h-154l176 297h226z" />
    <glyph glyph-name="Oslashacute" unicode="&#x1fe;" horiz-adv-x="1396" 
d="M1100 696q0 176 -76 316h-4l-539 -776q89 -82 199 -82q297 0 391 324q29 99 29 218zM700 1227q-179 0 -291 -150t-112 -385q0 -174 80 -330l4 3l541 780q-94 82 -222 82zM254 170q-182 199 -182 515t180 517t453 201q184 0 321 -94l115 164l129 -87l-119 -176
q174 -193 174 -512t-171 -519t-454 -202q-184 0 -323 97l-123 -176l-123 94zM958 1872l-247 -297h-154l176 297h225z" />
    <glyph glyph-name="oslashacute" unicode="&#x1ff;" horiz-adv-x="1120" 
d="M836 518q0 100 -56 191h-4l-358 -516q58 -51 130 -51t124 26q164 87 164 350zM576 854q-201 0 -266 -215q-19 -66 -19 -143q0 -129 57 -217h4l359 522q-59 53 -135 53zM563 1016h2q135 0 242 -64l86 127l92 -61l-90 -131q154 -145 154 -380t-137 -382
q-137 -148 -351 -148q-141 0 -242 64l-90 -131l-86 67l86 127q-155 143 -155 381t136 385q136 146 353 146zM844 1479l-248 -297h-154l176 297h226z" />
    <glyph glyph-name="Adblgrave" unicode="&#x200;" horiz-adv-x="1259" 
d="M807 575l-117 361q-18 55 -69 260h-5q-20 -88 -65 -260l-115 -361h371zM1210 0h-235l-129 406h-449l-123 -406h-229l444 1380h275zM803 1769l151 -286h-129l-217 286h195zM494 1769l151 -286h-131l-217 286h197z" />
    <glyph glyph-name="adblgrave" unicode="&#x201;" horiz-adv-x="1003" 
d="M655 342v154q-369 6 -368 -201q0 -78 43 -117q42 -39 112 -39t142 53t71 150zM649 662q0 197 -207 196q-147 0 -260 -74l-45 146q139 86 342 86q391 0 391 -412v-366q1 -150 15 -238h-199l-16 115h-6q-102 -137 -291 -138q-141 1 -223 87t-82 206q0 182 152 279
q153 96 429 94v19zM651 1405l152 -287h-129l-217 287h194zM342 1405l152 -287h-132l-217 287h197z" />
    <glyph glyph-name="Ainvertedbreve" unicode="&#x202;" horiz-adv-x="1259" 
d="M807 575l-117 361q-18 55 -69 260h-5q-20 -88 -65 -260l-115 -361h371zM1210 0h-235l-129 406h-449l-123 -406h-229l444 1380h275zM377 1483q1 113 67 181t184 69q118 0 184 -67t65 -183h-117q-18 133 -131 133q-127 0 -137 -133h-115z" />
    <glyph glyph-name="ainvertedbreve" unicode="&#x203;" horiz-adv-x="1003" 
d="M655 342v154q-369 6 -368 -201q0 -78 43 -117q42 -39 112 -39t142 53t71 150zM649 662q0 197 -207 196q-147 0 -260 -74l-45 146q139 86 342 86q391 0 391 -412v-366q1 -150 15 -238h-199l-16 115h-6q-102 -137 -291 -138q-141 1 -223 87t-82 206q0 182 152 279
q153 96 429 94v19zM225 1118q0 114 67 182q66 68 184 68t184 -66t65 -184h-117q-18 133 -131 133q-127 0 -137 -133h-115z" />
    <glyph glyph-name="Edblgrave" unicode="&#x204;" horiz-adv-x="1015" 
d="M942 0h-795v1380h766v-182h-544v-389h514v-182h-514v-445h573v-182zM721 1769l151 -286h-129l-217 286h195zM412 1769l151 -286h-131l-217 286h197z" />
    <glyph glyph-name="edblgrave" unicode="&#x205;" horiz-adv-x="1026" 
d="M534 864q-114 0 -182 -90q-55 -72 -65 -172h461q2 98 -43 170q-57 92 -171 92zM958 545q0 -59 -8 -101h-663q4 -147 92 -221q88 -73 228 -73t261 47l35 -154q-141 -61 -353 -61t-344 136t-132 363t126 382t343 155t327 -160q88 -127 88 -313zM692 1407l152 -287h-129
l-217 287h194zM383 1407l152 -287h-132l-217 287h197z" />
    <glyph glyph-name="Einvertedbreve" unicode="&#x206;" horiz-adv-x="1015" 
d="M942 0h-795v1380h766v-182h-544v-389h514v-182h-514v-445h573v-182zM295 1483q1 113 67 181t184 69q118 0 184 -67t65 -183h-117q-18 133 -131 133q-127 0 -137 -133h-115z" />
    <glyph glyph-name="einvertedbreve" unicode="&#x207;" horiz-adv-x="1026" 
d="M534 864q-114 0 -182 -90q-55 -72 -65 -172h461q2 98 -43 170q-57 92 -171 92zM958 545q0 -59 -8 -101h-663q4 -147 92 -221q88 -73 228 -73t261 47l35 -154q-141 -61 -353 -61t-344 136t-132 363t126 382t343 155t327 -160q88 -127 88 -313zM266 1120q0 113 67 182
q67 68 185 68t182 -66q66 -66 66 -184h-117q-18 133 -131 133q-127 0 -137 -133h-115z" />
    <glyph glyph-name="Idblgrave" unicode="&#x208;" horiz-adv-x="516" 
d="M369 0h-222v1380h222v-1380zM434 1769l152 -286h-129l-217 286h194zM125 1769l151 -286h-131l-217 286h197z" />
    <glyph glyph-name="idblgrave" unicode="&#x209;" horiz-adv-x="499" 
d="M360 0h-221v995h221v-995zM426 1384l152 -286h-129l-218 286h195zM117 1384l151 -286h-131l-217 286h197z" />
    <glyph glyph-name="Iinvertedbreve" unicode="&#x20a;" horiz-adv-x="516" 
d="M369 0h-222v1380h222v-1380zM8 1483q0 113 67 181t185 69q118 0 182 -67q66 -67 66 -183h-117q-18 133 -131 133q-127 0 -137 -133h-115z" />
    <glyph glyph-name="iinvertedbreve" unicode="&#x20b;" horiz-adv-x="499" 
d="M360 0h-221v995h221v-995zM0 1098q0 114 67 182t185 68t182 -67q66 -67 66 -183h-117q-18 133 -131 133q-127 0 -137 -133h-115z" />
    <glyph glyph-name="Odblgrave" unicode="&#x20c;" horiz-adv-x="1396" 
d="M1090 692q0 209 -93 357q-106 176 -302 176t-302 -181q-90 -147 -90 -356t92 -356q109 -176 305 -176t301 180q89 147 89 356zM1325 697q0 -305 -166 -512t-463 -207t-461 202q-163 203 -163 503t170 510t463 210t462 -209q158 -192 158 -497zM874 1792l152 -287h-129
l-217 287h194zM565 1792l152 -287h-131l-217 287h196z" />
    <glyph glyph-name="odblgrave" unicode="&#x20d;" horiz-adv-x="1120" 
d="M819 500q0 137 -59 235q-70 119 -201 119t-201 -119q-59 -98 -59 -237q-1 -139 65 -248t194 -109t200 121q61 101 61 238zM1049 503q0 -226 -134 -376q-133 -150 -357 -150q-224 -1 -354 145t-130 372t134 374t357 148t353 -144t131 -369zM737 1405l152 -287h-129
l-217 287h194zM428 1405l152 -287h-131l-218 287h197z" />
    <glyph glyph-name="Oinvertedbreve" unicode="&#x20e;" horiz-adv-x="1396" 
d="M1090 692q0 209 -93 357q-106 176 -302 176t-302 -181q-90 -147 -90 -356t92 -356q109 -176 305 -176t301 180q89 147 89 356zM1325 697q0 -305 -166 -512t-463 -207t-461 202q-163 203 -163 503t170 510t463 210t462 -209q158 -192 158 -497zM449 1505q0 113 66 182
q67 69 185 69t183 -68q66 -66 65 -183h-117q-18 133 -131 133q-127 0 -137 -133h-114z" />
    <glyph glyph-name="oinvertedbreve" unicode="&#x20f;" horiz-adv-x="1120" 
d="M819 500q0 137 -59 235q-70 119 -201 119t-201 -119q-59 -98 -59 -237q-1 -139 65 -248t194 -109t200 121q61 101 61 238zM1049 503q0 -226 -134 -376q-133 -150 -357 -150q-224 -1 -354 145t-130 372t134 374t357 148t353 -144t131 -369zM311 1118q0 114 67 182
q66 68 184 68t184 -66t65 -184h-117q-18 133 -131 133q-127 0 -137 -133h-115z" />
    <glyph glyph-name="Rdblgrave" unicode="&#x210;" horiz-adv-x="1122" 
d="M809 985q0 236 -283 238q-106 0 -159 -15v-465h155q131 1 209 67t78 175zM367 580v-580h-220v1362q152 29 359 29q280 -1 402 -105t122 -278q0 -126 -72 -218t-180 -131v-4q141 -53 195 -274q78 -326 106 -381h-229q-33 61 -90 328q-29 139 -87 195t-169 57h-137z
M788 1780l152 -287h-129l-217 287h194zM479 1780l152 -287h-131l-217 287h196z" />
    <glyph glyph-name="rdblgrave" unicode="&#x211;" horiz-adv-x="694" 
d="M596 807q-117 0 -176 -83t-60 -202v-522h-221l2 682q0 172 -8 313h193l8 -190h6q35 98 111 158q74 53 159 53q31 0 56 -4v-211q-33 6 -70 6zM575 1405l152 -287h-129l-217 287h194zM266 1405l152 -287h-131l-217 287h196z" />
    <glyph glyph-name="Rinvertedbreve" unicode="&#x212;" horiz-adv-x="1122" 
d="M809 985q0 236 -283 238q-106 0 -159 -15v-465h155q131 1 209 67t78 175zM367 580v-580h-220v1362q152 29 359 29q280 -1 402 -105t122 -278q0 -126 -72 -218t-180 -131v-4q141 -53 195 -274q78 -326 106 -381h-229q-33 61 -90 328q-29 139 -87 195t-169 57h-137z
M362 1493q0 113 67 181t185 69q118 0 183 -67q66 -67 65 -183h-117q-18 133 -131 133q-127 0 -137 -133h-115z" />
    <glyph glyph-name="rinvertedbreve" unicode="&#x213;" horiz-adv-x="694" 
d="M596 807q-117 0 -176 -83t-60 -202v-522h-221l2 682q0 172 -8 313h193l8 -190h6q35 98 111 158q74 53 159 53q31 0 56 -4v-211q-33 6 -70 6zM150 1118q0 114 66 182t184 68t184 -66t65 -184h-117q-18 133 -131 133q-127 0 -137 -133h-114z" />
    <glyph glyph-name="Udblgrave" unicode="&#x214;" horiz-adv-x="1323" 
d="M1178 580q0 -306 -142 -454t-387 -149q-504 0 -504 598v805h222v-817q0 -203 82 -307q74 -98 208 -98q299 0 299 405v817h222v-800zM838 1769l151 -286h-129l-217 286h195zM528 1769l152 -286h-131l-217 286h196z" />
    <glyph glyph-name="udblgrave" unicode="&#x215;" horiz-adv-x="1130" 
d="M133 995h221v-549q0 -287 197 -286q147 0 205 143q14 37 14 84v608h221v-708q0 -142 8 -287h-194l-12 152h-5q-104 -174 -315 -175q-147 0 -235 93q-104 113 -105 340v585zM741 1384l152 -286h-129l-217 286h194zM432 1384l152 -286h-131l-217 286h196z" />
    <glyph glyph-name="Uinvertedbreve" unicode="&#x216;" horiz-adv-x="1323" 
d="M1178 580q0 -306 -142 -454t-387 -149q-504 0 -504 598v805h222v-817q0 -203 82 -307q74 -98 208 -98q299 0 299 405v817h222v-800zM412 1483q0 113 66 181t185 69q117 0 183 -67t65 -183h-116q-18 133 -131 133q-127 0 -138 -133h-114z" />
    <glyph glyph-name="uinvertedbreve" unicode="&#x217;" horiz-adv-x="1130" 
d="M133 995h221v-549q0 -287 197 -286q147 0 205 143q14 37 14 84v608h221v-708q0 -142 8 -287h-194l-12 152h-5q-104 -174 -315 -175q-147 0 -235 93q-104 113 -105 340v585zM315 1098q0 114 67 182q66 68 184 68t184 -67t65 -183h-117q-18 133 -131 133q-127 0 -137 -133
h-115z" />
    <glyph glyph-name="Scommaaccent" unicode="&#x218;" horiz-adv-x="1021" 
d="M330 1032q0 -78 59 -129t221 -115t246 -162q84 -96 84 -256t-129 -275t-361 -115t-368 86l51 184q145 -86 295 -86t220 56t69 146q1 90 -57 146q-58 57 -191 106q-362 135 -363 396q0 170 128 278t328 109q200 0 325 -66l-56 -180q-117 63 -249 63t-192 -54t-60 -132z
M635 -123q-63 -223 -152 -369l-98 -10q66 178 92 365z" />
    <glyph glyph-name="scommaaccent" unicode="&#x219;" horiz-adv-x="823" 
d="M748 287q0 -139 -102 -223t-278 -84t-294 67l47 164q115 -70 244 -70q170 0 170 125q0 55 -37 91t-131 71q-266 98 -267 287q0 129 98 215t254 86q154 0 259 -60l-47 -157q-96 57 -184 57t-128 -33q-39 -33 -39 -84t38 -83t138 -68q259 -98 259 -301zM535 -123
q-63 -223 -152 -369l-98 -10q66 178 92 365z" />
    <glyph glyph-name="uni021A" unicode="&#x21a;" horiz-adv-x="1032" 
d="M1022 1194h-395v-1194h-224v1194h-393v186h1012v-186zM641 -102q-63 -223 -152 -369l-98 -10q66 178 92 364z" />
    <glyph glyph-name="uni021B" unicode="&#x21b;" horiz-adv-x="694" 
d="M641 829h-244v-483q0 -184 129 -184q59 0 99 10l6 -168q-67 -24 -185 -24t-192 80t-74 268v501h-145v166h145v183l217 65v-248h244v-166zM463 -123q-63 -223 -152 -369l-98 -10q66 178 92 365z" />
    <glyph glyph-name="Hcaron" unicode="&#x21e;" horiz-adv-x="1335" 
d="M1188 0h-221v623h-598v-623h-222v1380h222v-563h598v563h221v-1380zM940 1780l-197 -297h-149l-199 297h158l113 -189h4l114 189h156z" />
    <glyph glyph-name="hcaron" unicode="&#x21f;" horiz-adv-x="1138" 
d="M1004 0h-222v567q0 268 -200 269q-154 0 -211 -156q-10 -33 -11 -80v-600h-221v1452h221v-598h5q104 162 299 162q137 0 227 -90q113 -113 113 -334v-592zM748 1851l-197 -297h-150l-198 297h157l113 -188h4l115 188h156z" />
    <glyph glyph-name="Adotaccent" unicode="&#x226;" horiz-adv-x="1259" 
d="M807 575l-117 361q-18 55 -69 260h-5q-20 -88 -65 -260l-115 -361h371zM1210 0h-235l-129 406h-449l-123 -406h-229l444 1380h275zM630 1712q48 0 78 -34t31 -82t-31 -80t-80 -33q-48 0 -80 34q-32 35 -32 81t33 80t81 34z" />
    <glyph glyph-name="adotaccent" unicode="&#x227;" horiz-adv-x="1003" 
d="M655 342v154q-369 6 -368 -201q0 -78 43 -117q42 -39 112 -39t142 53t71 150zM649 662q0 197 -207 196q-147 0 -260 -74l-45 146q139 86 342 86q391 0 391 -412v-366q1 -150 15 -238h-199l-16 115h-6q-102 -137 -291 -138q-141 1 -223 87t-82 206q0 182 152 279
q153 96 429 94v19zM588 1232q0 -48 -32 -81t-80 -33t-80 34t-31 81q0 47 32 81q33 34 81 34t79 -34t31 -82z" />
    <glyph glyph-name="Ecedilla" unicode="&#x228;" horiz-adv-x="1015" 
d="M588 -253q0 62 -160 81l94 172h-375v1380h766v-182h-544v-389h514v-182h-514v-445h573v-182h-293l-61 -104q59 -8 101 -48t42 -96q0 -170 -223 -170q-90 0 -148 37l33 96q51 -31 113 -30q82 0 82 62z" />
    <glyph glyph-name="ecedilla" unicode="&#x229;" horiz-adv-x="1026" 
d="M534 864q-114 0 -182 -90q-55 -72 -65 -172h461q2 98 -43 170q-57 92 -171 92zM477 -334q82 0 82 63t-160 81l95 172h75q-231 0 -363 136t-132 363t126 382t343 155t327 -160q88 -127 88 -313q0 -59 -8 -101h-663q4 -147 92 -221q88 -73 228 -73t261 47l35 -154
q-141 -61 -334 -61h52l-62 -105q59 -8 101 -47t42 -96q0 -170 -223 -170q-90 0 -147 37l33 96q51 -31 112 -31z" />
    <glyph glyph-name="Odieresismacron" unicode="&#x22a;" horiz-adv-x="1396" 
d="M1090 692q0 209 -93 357q-106 176 -302 176t-302 -181q-90 -147 -90 -356t92 -356q109 -176 305 -176t301 180q89 147 89 356zM1325 697q0 -305 -166 -512t-463 -207t-461 202q-163 203 -163 503t170 510t463 210t462 -209q158 -192 158 -497zM509 1735q49 0 79 -34
t30 -82t-32 -81t-78 -33q-47 0 -80 34t-33 81t33 81t81 34zM1004 1619q0 -48 -32 -81t-80 -33t-80 34t-32 81t33 81t81 34t79 -34t31 -82zM936 1837h-473v127h473v-127z" />
    <glyph glyph-name="odieresismacron" unicode="&#x22b;" horiz-adv-x="1120" 
d="M819 500q0 137 -59 235q-70 119 -201 119t-201 -119q-59 -98 -59 -237q-1 -139 65 -248t194 -109t200 121q61 101 61 238zM1049 503q0 -226 -134 -376q-133 -150 -357 -150q-224 -1 -354 145t-130 372t134 374t357 148t353 -144t131 -369zM372 1348q48 0 78 -34t31 -82
t-31 -81t-79 -33t-80 34t-33 81t33 81t81 34zM757 1348q49 0 79 -34t30 -82t-32 -81t-79 -33q-48 0 -80 34t-32 81t33 81t81 34zM799 1450h-473v127h473v-127z" />
    <glyph glyph-name="Otildemacron" unicode="&#x22c;" horiz-adv-x="1396" 
d="M1090 692q0 209 -93 357q-106 176 -302 176t-302 -181q-90 -147 -90 -356t92 -356q109 -176 305 -176t301 180q89 147 89 356zM1325 697q0 -305 -166 -512t-463 -207t-461 202q-163 203 -163 503t170 510t463 210t462 -209q158 -192 158 -497zM958 1731q0 -211 -143 -211
q-33 0 -119 38t-98 39q-45 0 -51 -92h-107q0 99 35 159t105 60q31 0 117 -40q86 -39 104 -39q47 0 53 86h104zM936 1833h-473v127h473v-127z" />
    <glyph glyph-name="otildemacron" unicode="&#x22d;" horiz-adv-x="1120" 
d="M819 500q0 137 -59 235q-70 119 -201 119t-201 -119q-59 -98 -59 -237q-1 -139 65 -248t194 -109t200 121q61 101 61 238zM1049 503q0 -226 -134 -376q-133 -150 -357 -150q-224 -1 -354 145t-130 372t134 374t357 148t353 -144t131 -369zM821 1343q0 -211 -143 -210
q-44 0 -179 65q-28 12 -38 12q-45 0 -51 -92h-107q0 98 35 158t104 61q32 0 118 -39t104 -41q47 0 53 86h104zM799 1446h-473v127h473v-127z" />
    <glyph glyph-name="Odotaccent" unicode="&#x22e;" horiz-adv-x="1396" 
d="M1090 692q0 209 -93 357q-106 176 -302 176t-302 -181q-90 -147 -90 -356t92 -356q109 -176 305 -176t301 180q89 147 89 356zM1325 697q0 -305 -166 -512t-463 -207t-461 202q-163 203 -163 503t170 510t463 210t462 -209q158 -192 158 -497zM811 1619q0 -48 -32 -81
t-80 -33q-47 0 -79 34t-32 81t33 81t81 34t78 -34q31 -34 31 -82z" />
    <glyph glyph-name="odotaccent" unicode="&#x22f;" horiz-adv-x="1120" 
d="M819 500q0 137 -59 235q-70 119 -201 119t-201 -119q-59 -98 -59 -237q-1 -139 65 -248t194 -109t200 121q61 101 61 238zM1049 503q0 -226 -134 -376q-133 -150 -357 -150q-224 -1 -354 145t-130 372t134 374t357 148t353 -144t131 -369zM674 1232q0 -48 -32 -81
t-80 -33t-80 34t-31 81q0 47 32 81q33 34 81 34t79 -34t31 -82z" />
    <glyph glyph-name="Odotaccentmacron" unicode="&#x230;" horiz-adv-x="1396" 
d="M1090 692q0 209 -93 357q-106 176 -302 176t-302 -181q-90 -147 -90 -356t92 -356q109 -176 305 -176t301 180q89 147 89 356zM1325 697q0 -305 -166 -512t-463 -207t-461 202q-163 203 -163 503t170 510t463 210t462 -209q158 -192 158 -497zM811 1619q0 -48 -32 -81
t-80 -33q-47 0 -79 34t-32 81t33 81t81 34t78 -34q31 -34 31 -82zM936 1837h-473v127h473v-127z" />
    <glyph glyph-name="odotaccentmacron" unicode="&#x231;" horiz-adv-x="1120" 
d="M819 500q0 137 -59 235q-70 119 -201 119t-201 -119q-59 -98 -59 -237q-1 -139 65 -248t194 -109t200 121q61 101 61 238zM1049 503q0 -226 -134 -376q-133 -150 -357 -150q-224 -1 -354 145t-130 372t134 374t357 148t353 -144t131 -369zM674 1232q0 -48 -32 -81
t-80 -33t-80 34t-31 81q0 47 32 81q33 34 81 34t79 -34t31 -82zM799 1450h-473v127h473v-127z" />
    <glyph glyph-name="Ymacron" unicode="&#x232;" horiz-adv-x="1126" 
d="M672 0h-221v578l-428 802h251l172 -362q78 -166 125 -281h4q43 113 123 281l174 362h250l-450 -796v-584zM809 1483h-473v127h473v-127z" />
    <glyph glyph-name="ymacron" unicode="&#x233;" horiz-adv-x="983" 
d="M389 33q0 14 -12 47l-361 915h244l189 -555q27 -76 59 -196h4q18 66 55 198l168 553h236l-252 -690q-180 -489 -338 -631q-117 -104 -244 -125l-53 187q76 22 156 84t133 168q16 31 16 45zM731 1098h-473v127h473v-127z" />
    <glyph glyph-name="uni02B9" unicode="&#x2b9;" horiz-adv-x="454" 
d="M408 1417l-209 -508l-138 -14l129 502z" />
    <glyph glyph-name="uni02BA" unicode="&#x2ba;" horiz-adv-x="784" 
d="M408 1417l-209 -508l-138 -14l127 502zM739 1417l-209 -508l-137 -14l127 502z" />
    <glyph glyph-name="commaturnedmod" unicode="&#x2bb;" horiz-adv-x="454" 
d="M410 1417q-88 -246 -127 -504l-220 -18q90 307 209 508z" />
    <glyph glyph-name="afii57929" unicode="&#x2bc;" horiz-adv-x="454" 
d="M408 1417q-88 -309 -209 -508l-138 -14q90 246 129 502z" />
    <glyph glyph-name="uni02BD" unicode="&#x2bd;" horiz-adv-x="454" 
d="M279 1397q39 -256 129 -502l-138 14q-121 199 -209 508z" />
    <glyph glyph-name="circumflex" unicode="&#x2c6;" 
d="M573 1116h-153l-113 184h-4l-110 -184h-152l195 297h141z" />
    <glyph glyph-name="caron" unicode="&#x2c7;" 
d="M580 1413l-197 -297h-150l-198 297h158l112 -188h4l115 188h156z" />
    <glyph glyph-name="overscore.001" unicode="&#x2c9;" 
d="M545 1194h-473v127h473v-127z" />
    <glyph glyph-name="breve" unicode="&#x2d8;" 
d="M557 1397q0 -113 -66.5 -181.5t-184.5 -68.5t-183.5 66.5t-65.5 183.5h117q18 -133 131 -133q127 0 137 133h115z" />
    <glyph glyph-name="dotaccent" unicode="&#x2d9;" 
d="M387 1246q0 -48 -31.5 -80.5t-79.5 -32.5t-80 33.5t-32 80.5t32.5 81t80.5 34t79 -34t31 -82z" />
    <glyph glyph-name="ring" unicode="&#x2da;" horiz-adv-x="819" 
d="M496 1289q0 36 -26 61.5t-62 25.5t-61 -25.5t-25 -61.5t25.5 -61.5t61.5 -25.5t61.5 25.5t25.5 61.5zM409 1485q81 0 138 -57.5t57 -137.5t-56.5 -138t-139 -58t-139 58t-56.5 138t57.5 137.5t138.5 57.5z" />
    <glyph glyph-name="ogonek" unicode="&#x2db;" 
d="M316 -410q-86 0 -136.5 43t-50.5 114t65 150t136 103h123q-80 -41 -135.5 -103.5t-55.5 -115.5q0 -86 86 -86q55 0 98 20l19 -92q-63 -33 -149 -33z" />
    <glyph glyph-name="tilde" unicode="&#x2dc;" 
d="M567 1370q0 -211 -143 -211q-35 0 -121 39t-96 39q-45 0 -51 -92h-107q0 98 35 158.5t104 60.5q27 0 118 -40t104 -40q47 0 53 86h104z" />
    <glyph glyph-name="hungarumlaut" unicode="&#x2dd;" 
d="M408 1413l-218 -287h-129l152 287h195zM719 1413l-217 -287h-131l151 287h197z" />
    <glyph glyph-name="uni02EE" unicode="&#x2ee;" horiz-adv-x="784" 
d="M408 1417q-90 -309 -209 -508l-138 -14q88 246 127 502zM739 1417q-90 -309 -209 -508l-137 -14q88 246 127 502z" />
    <glyph glyph-name="gravecmb" unicode="&#x300;" 
d="M438 1116h-153l-248 297h223z" />
    <glyph glyph-name="acutecmb" unicode="&#x301;" 
d="M594 1413l-248 -297h-153l176 297h225z" />
    <glyph glyph-name="circumflexcmb" unicode="&#x302;" 
d="M573 1116h-153l-113 184h-4l-110 -184h-152l195 297h141z" />
    <glyph glyph-name="tildecmb" unicode="&#x303;" 
d="M567 1370q0 -211 -143 -211q-35 0 -121 39t-96 39q-45 0 -51 -92h-107q0 98 35 158.5t104 60.5q27 0 118 -40t104 -40q47 0 53 86h104z" />
    <glyph glyph-name="macroncmb.001" unicode="&#x304;" 
d="M545 1194h-473v127h473v-127z" />
    <glyph glyph-name="brevecmb" unicode="&#x306;" 
d="M557 1397q0 -113 -66.5 -181.5t-184.5 -68.5t-183.5 66.5t-65.5 183.5h117q18 -133 131 -133q127 0 137 133h115z" />
    <glyph glyph-name="dotaccentcmb" unicode="&#x307;" 
d="M387 1246q0 -48 -31.5 -80.5t-79.5 -32.5t-80 33.5t-32 80.5t32.5 81t80.5 34t79 -34t31 -82z" />
    <glyph glyph-name="dieresiscmb" unicode="&#x308;" 
d="M225 1246q0 -48 -31.5 -80.5t-78.5 -32.5t-80 33.5t-33 80.5t33 81t81 34t78.5 -34t30.5 -82zM610 1246q0 -48 -31.5 -80.5t-79.5 -32.5t-80 33.5t-32 80.5t33 81t81 34t78.5 -34t30.5 -82z" />
    <glyph glyph-name="hookcmb" unicode="&#x309;" 
d="M311 1497q78 0 129.5 -45.5t51.5 -103.5t-17.5 -89.5t-42 -58t-51.5 -53.5t-45 -64l-113 27q8 35 27.5 59.5t38 46t33 42t14.5 50.5t-18.5 48t-47.5 18q-54 0 -96 -69l-80 47q76 145 217 145z" />
    <glyph glyph-name="ringcmb" unicode="&#x30a;" horiz-adv-x="819" 
d="M496 1289q0 36 -26 61.5t-62 25.5t-61 -25.5t-25 -61.5t25.5 -61.5t61.5 -25.5t61.5 25.5t25.5 61.5zM409 1485q81 0 138 -57.5t57 -137.5t-56.5 -138t-139 -58t-139 58t-56.5 138t57.5 137.5t138.5 57.5z" />
    <glyph glyph-name="hungarumlautcmb" unicode="&#x30b;" 
d="M408 1413l-218 -287h-129l152 287h195zM719 1413l-217 -287h-131l151 287h197z" />
    <glyph glyph-name="caroncmb" unicode="&#x30c;" 
d="M580 1413l-197 -297h-150l-198 297h158l112 -188h4l115 188h156z" />
    <glyph glyph-name="uni030D" unicode="&#x30d;" horiz-adv-x="0" 
d="M-623 1116v297h127v-297h-127z" />
    <glyph glyph-name="uni030E" unicode="&#x30e;" horiz-adv-x="0" 
d="M-479 1116v297h127v-297h-127zM-766 1116v297h127v-297h-127z" />
    <glyph glyph-name="uni030F" unicode="&#x30f;" horiz-adv-x="0" 
d="M-381 1413l152 -287h-129l-217 287h194zM-690 1413l151 -287h-131l-217 287h197z" />
    <glyph glyph-name="uni0311" unicode="&#x311;" horiz-adv-x="0" 
d="M-809 1147q0 113 66.5 181.5t184.5 68.5t183.5 -66.5t65.5 -183.5h-117q-18 133 -131 133q-127 0 -137 -133h-115z" />
    <glyph glyph-name="uni0312" unicode="&#x312;" horiz-adv-x="0" 
d="M-684 1036q63 223 152 369l98 10q-66 -178 -92 -364z" />
    <glyph glyph-name="uni0313" unicode="&#x313;" horiz-adv-x="0" 
d="M-434 1415q-63 -223 -152 -368l-98 -11q66 178 92 365z" />
    <glyph glyph-name="uni0314" unicode="&#x314;" horiz-adv-x="0" 
d="M-526 1401q27 -186 92 -365l-98 11q-88 145 -152 368z" />
    <glyph glyph-name="uni0316" unicode="&#x316;" horiz-adv-x="0" 
d="M-358 -358h-154l-248 297h223z" />
    <glyph glyph-name="uni0317" unicode="&#x317;" horiz-adv-x="0" 
d="M-358 -61l-248 -297h-154l176 297h226z" />
    <glyph glyph-name="uni031B" unicode="&#x31b;" horiz-adv-x="0" 
d="M-590 1075q0 54 -39 125l164 27q39 -85 39 -167q0 -81 -57.5 -130t-143.5 -49l-63 114q100 0 100 80z" />
    <glyph glyph-name="dotbelowcmb" unicode="&#x323;" 
d="M418 -280q0 -48 -32 -80.5t-80 -32.5t-79.5 33.5t-31.5 81t32.5 81t80.5 33.5t79 -34t31 -82z" />
    <glyph glyph-name="uni0324" unicode="&#x324;" horiz-adv-x="0" 
d="M-639 -228q0 -48 -31.5 -81t-79 -33t-80 34t-32.5 81t32.5 80.5t80.5 33.5t79 -33.5t31 -81.5zM-254 -228q0 -48 -32 -81t-80 -33t-79.5 34t-31.5 81t32.5 80.5t80.5 33.5t79 -33.5t31 -81.5z" />
    <glyph glyph-name="uni0325" unicode="&#x325;" horiz-adv-x="0" 
d="M-471 -185q0 36 -25.5 61.5t-61.5 25.5t-61.5 -26t-25.5 -62t25.5 -61t61.5 -25t61.5 25.5t25.5 61.5zM-419.5 -323.5q-57.5 -57.5 -138.5 -57.5t-138.5 57.5t-57.5 137.5t56.5 138t138.5 58t139.5 -57t57.5 -138t-57.5 -138.5z" />
    <glyph glyph-name="uni0326" unicode="&#x326;" horiz-adv-x="0" 
d="M-434 -59q-63 -223 -152 -369l-98 -10q66 178 92 364z" />
    <glyph glyph-name="cedillacmb" unicode="&#x327;" 
d="M336 -248q0 66 -160 82l94 172h127l-61 -104q59 -8 101 -47.5t42 -96.5q0 -170 -223 -170q-90 0 -147 37l32 96q51 -31 113 -30q82 0 82 61z" />
    <glyph glyph-name="ogonekcmb" unicode="&#x328;" 
d="M316 -410q-86 0 -136.5 43t-50.5 114t65 150t136 103h123q-80 -41 -135.5 -103.5t-55.5 -115.5q0 -86 86 -86q55 0 98 20l19 -92q-63 -33 -149 -33z" />
    <glyph glyph-name="uni0329" unicode="&#x329;" horiz-adv-x="0" 
d="M-623 -358v297h127v-297h-127z" />
    <glyph glyph-name="uni032C" unicode="&#x32c;" horiz-adv-x="0" 
d="M-287 -61l-196 -297h-150l-198 297h157l113 -189h4l115 189h155z" />
    <glyph glyph-name="uni032D" unicode="&#x32d;" horiz-adv-x="0" 
d="M-293 -358h-153l-113 184h-4l-111 -184h-151l194 297h142z" />
    <glyph glyph-name="uni032E" unicode="&#x32e;" horiz-adv-x="0" 
d="M-309 -78q0 -113 -66.5 -181.5t-184.5 -68.5t-183.5 66.5t-65.5 183.5h117q18 -133 131 -133q127 0 137 133h115z" />
    <glyph glyph-name="uni032F" unicode="&#x32f;" horiz-adv-x="0" 
d="M-809 -328q0 113 66.5 181.5t184.5 68.5t183.5 -66.5t65.5 -183.5h-117q-18 133 -131 133q-127 0 -137 -133h-115z" />
    <glyph glyph-name="uni0330" unicode="&#x330;" horiz-adv-x="0" 
d="M-299 -104q0 -211 -143 -211q-31 0 -119 38.5t-98 38.5q-45 0 -52 -92h-106q0 98 34.5 158.5t104.5 60.5q28 0 117 -39.5t104 -39.5q47 0 54 86h104z" />
    <glyph glyph-name="uni0331" unicode="&#x331;" horiz-adv-x="0" 
d="M-322 -281h-473v127h473v-127z" />
    <glyph glyph-name="gravetonecmb" unicode="&#x340;" 
d="M438 1116h-153l-248 297h223z" />
    <glyph glyph-name="acutetonecmb" unicode="&#x341;" 
d="M594 1413l-248 -297h-153l176 297h225z" />
    <glyph glyph-name="uni0342" unicode="&#x342;" horiz-adv-x="0" 
d="M-809 1147q0 113 66.5 181.5t184.5 68.5t183.5 -66.5t65.5 -183.5h-117q-18 133 -131 133q-127 0 -137 -133h-115z" />
    <glyph glyph-name="uni0343" unicode="&#x343;" horiz-adv-x="0" 
d="M-434 1415q-63 -223 -152 -368l-98 -11q66 178 92 365z" />
    <glyph glyph-name="uni0344" unicode="&#x344;" horiz-adv-x="0" 
d="M-721 1275q0 -44 -28.5 -74t-71.5 -30t-73 31t-30 74t30 73.5t74 30.5t71.5 -30.5t27.5 -74.5zM-193 1275q0 -44 -28.5 -74t-72.5 -30t-72.5 31t-28.5 74t29.5 73.5t73.5 30.5t71.5 -30.5t27.5 -74.5zM-428 1466l-107 -329h-116l45 329h178z" />
    <glyph glyph-name="uni0345" unicode="&#x345;" horiz-adv-x="0" 
d="M-514 -362q0 -47 14.5 -67t55.5 -15l-9 -115q-29 -10 -67 -10q-78 0 -116 42t-38 148v342h160v-325z" />
    <glyph glyph-name="combininggraphemejoiner" unicode="&#x34f;" horiz-adv-x="0" 
 />
    <glyph glyph-name="uni0351" unicode="&#x351;" horiz-adv-x="0" 
d="M-461 1376q-37 0 -62.5 -25.5t-25.5 -61.5t25.5 -61.5t62.5 -25.5v-108q-82 0 -139 57t-57 138t57 138.5t139 57.5v-109z" />
    <glyph glyph-name="uni0357" unicode="&#x357;" horiz-adv-x="0" 
d="M-657 1485q82 0 139 -57.5t57 -137.5t-56.5 -138t-139.5 -58v108q37 0 62.5 25.5t25.5 61.5t-26 61.5t-62 25.5v109z" />
    <glyph glyph-name="numeralsigngreek" unicode="&#x374;" horiz-adv-x="454" 
d="M408 1417l-209 -508l-138 -14l129 502z" />
    <glyph glyph-name="questiongreek" unicode="&#x37e;" horiz-adv-x="456" 
d="M391 289q-96 -328 -215 -525l-151 -14q90 248 131 518zM121 828q0 62 39 106t101 43t100 -43t38 -106t-39 -106q-39 -40 -101 -40t-100 42t-38 104z" />
    <glyph glyph-name="tonos" unicode="&#x384;" horiz-adv-x="618" 
d="M487 1427l-170 -299h-145l104 299h211z" />
    <glyph glyph-name="dieresistonos" unicode="&#x385;" horiz-adv-x="765" 
d="M219 1275q0 -44 -28.5 -74t-71.5 -30t-73 31t-30 74t30 73.5t74 30.5t71.5 -30.5t27.5 -74.5zM748 1275q0 -44 -29 -74t-73 -30t-72.5 31t-28.5 74t29.5 73.5t73.5 30.5t72 -30.5t28 -74.5zM512 1466l-106 -329h-117l45 329h178z" />
    <glyph glyph-name="Alphatonos" unicode="&#x386;" horiz-adv-x="1267" 
d="M285 1380l-74 -329h-129l10 329h193zM807 575l-117 361q-18 55 -69 260h-5q-20 -88 -65 -260l-115 -361h371zM1210 0h-235l-129 406h-449l-123 -406h-229l444 1380h275z" />
    <glyph glyph-name="anoteleia" unicode="&#x387;" horiz-adv-x="456" 
d="M369 558q0 -64 -39 -106q-38 -40 -102 -40t-102 42t-38 104t39 106t102 43q63 0 102 -42q38 -43 38 -107z" />
    <glyph glyph-name="Epsilontonos" unicode="&#x388;" horiz-adv-x="1179" 
d="M203 1380l-74 -329h-129l10 329h193zM1106 0h-795v1380h766v-182h-545v-389h515v-182h-515v-445h574v-182z" />
    <glyph glyph-name="Etatonos" unicode="&#x389;" horiz-adv-x="1499" 
d="M203 1380l-74 -329h-129l10 329h193zM1352 0h-222v623h-598v-623h-221v1380h221v-563h598v563h222v-1380z" />
    <glyph glyph-name="Iotatonos" unicode="&#x38a;" horiz-adv-x="675" 
d="M203 1380l-74 -329h-129l10 329h193zM528 0h-221v1380h221v-1380z" />
    <glyph glyph-name="Omicrontonos" unicode="&#x38c;" horiz-adv-x="1505" 
d="M203 1380l-74 -329h-129l10 329h193zM1198 692q0 209 -92 357q-106 176 -302 176t-302 -181q-90 -147 -90 -356t92 -356q108 -176 304 -176t302 180q88 147 88 356zM1434 697q0 -305 -166 -512t-463 -207t-461 202q-164 203 -164 503t170 510t463 210t463 -209
q158 -192 158 -497z" />
    <glyph glyph-name="Upsilontonos" unicode="&#x38e;" horiz-adv-x="1464" 
d="M963 336v-336h-222v338q0 157 -22 276q-53 262 -173 414t-267 184l34 181q138 -7 268.5 -108.5t198.5 -254.5t84 -309h6q23 156 87.5 277.5t137.5 202.5t162 132t160 60l35 -183q-223 -84 -356 -338.5t-133 -535.5zM203 1380l-74 -329h-129l10 329h193z" />
    <glyph glyph-name="Omegatonos" unicode="&#x38f;" horiz-adv-x="1546" 
d="M1196 172h289v-172h-537v135q118 85 199.5 238.5t81.5 348.5t-108 349t-293.5 154t-296.5 -150t-111 -344q0 -193 82.5 -356.5t202.5 -239.5v-135h-539v172h285v8q-173 138 -217 300t-44 282t48.5 242t183 260.5t414.5 138.5t450 -187t170 -459t-106.5 -405t-153.5 -172
v-8zM203 1380l-74 -329h-129l10 329h193z" />
    <glyph glyph-name="iotadieresistonos" unicode="&#x390;" horiz-adv-x="503" 
d="M356 262q0 -63 20.5 -90t76.5 -22l-13 -158q-39 -14 -91 -14q-106 -1 -160 56.5t-54 205.5v755h221v-733zM100 1248q0 -44 -28.5 -73.5t-71.5 -29.5t-72.5 30.5t-29.5 73.5t29.5 74t73.5 31t71.5 -31t27.5 -75zM629 1248q0 -44 -29 -73.5t-73 -29.5t-72.5 30.5
t-28.5 73.5t29.5 74t73.5 31t72 -31t28 -75zM393 1440l-106 -330h-117l45 330h178z" />
    <glyph glyph-name="Alpha" unicode="&#x391;" horiz-adv-x="1259" 
d="M807 575l-117 361q-18 55 -69 260h-5q-20 -88 -65 -260l-115 -361h371zM1210 0h-235l-129 406h-449l-123 -406h-229l444 1380h275z" />
    <glyph glyph-name="Beta" unicode="&#x392;" horiz-adv-x="1136" 
d="M823 399q0 125 -91 185t-234 61h-131v-481q41 -8 159 -8t199 55q98 63 98 188zM782 1022q0 203 -270 203q-94 0 -145 -13v-405h137q129 0 203.5 59.5t74.5 155.5zM1055 380q0 -152 -125 -263q-143 -129 -492 -129q-160 0 -291 16v1358q139 29 369 29t360 -92.5
t130 -254.5q0 -98 -60.5 -179t-169.5 -120v-6q117 -29 193 -110q86 -97 86 -249z" />
    <glyph glyph-name="Gamma" unicode="&#x393;" horiz-adv-x="923" 
d="M901 1380v-182h-532v-1198h-222v1380h754z" />
    <glyph glyph-name="uni0394" unicode="&#x394;" horiz-adv-x="1259" 
d="M963 182l-248 703q-23 72 -49.5 154.5t-44.5 148.5h-7q-44 -159 -82 -279l-256 -727h687zM1208 0h-1165v119l459 1261h254l452 -1259v-121z" />
    <glyph glyph-name="Epsilon" unicode="&#x395;" horiz-adv-x="1015" 
d="M942 0h-795v1380h766v-182h-544v-389h514v-182h-514v-445h573v-182z" />
    <glyph glyph-name="Zeta" unicode="&#x396;" horiz-adv-x="1122" 
d="M1061 0h-1006v125l711 1071h-649v184h934v-133l-703 -1063h713v-184z" />
    <glyph glyph-name="Eta" unicode="&#x397;" horiz-adv-x="1335" 
d="M1188 0h-221v623h-598v-623h-222v1380h222v-563h598v563h221v-1380z" />
    <glyph glyph-name="Theta" unicode="&#x398;" horiz-adv-x="1396" 
d="M1090 692q0 209 -93 357q-106 176 -302 176t-302 -181q-90 -147 -90 -356t92 -356q109 -176 305 -176t301 180q89 147 89 356zM1325 697q0 -305 -166 -512t-463 -207t-461 202q-163 203 -163 503t170 510t463 210t462 -209q158 -192 158 -497zM950 799v-181h-508v181h508
z" />
    <glyph glyph-name="Iota" unicode="&#x399;" horiz-adv-x="516" 
d="M369 0h-222v1380h222v-1380z" />
    <glyph glyph-name="Kappa" unicode="&#x39a;" horiz-adv-x="1140" 
d="M367 0h-220v1380h220v-647h6q53 84 102 150l375 497h272l-475 -587l508 -793h-260l-403 649l-125 -147v-502z" />
    <glyph glyph-name="Lambda" unicode="&#x39b;" horiz-adv-x="1245" 
d="M971 0l-285 911q-18 72 -34.5 139.5t-33.5 133.5h-6q-16 -66 -30.5 -134.5t-30.5 -138.5l-277 -911h-231l444 1380h271l452 -1380h-239z" />
    <glyph glyph-name="Mu" unicode="&#x39c;" horiz-adv-x="1646" 
d="M1534 0h-215l-29 578q-20 391 -18 581h-6q-66 -244 -162 -522l-215 -625h-168l-197 615q-88 279 -143 532h-4q-10 -311 -25 -592l-33 -567h-206l92 1380h284l199 -598q74 -221 129 -475h6q66 264 140 475l206 598h285z" />
    <glyph glyph-name="Nu" unicode="&#x39d;" horiz-adv-x="1343" 
d="M1198 0h-227l-381 641q-154 260 -246 471l-6 -2q14 -231 14 -586v-524h-205v1380h246l381 -632q133 -221 236 -457l4 2q-23 233 -23 573v514h207v-1380z" />
    <glyph glyph-name="Xi" unicode="&#x39e;" horiz-adv-x="1110" 
d="M1036 182v-182h-950v182h950zM946 803v-180h-770v180h770zM1014 1380v-180h-903v180h903z" />
    <glyph glyph-name="Omicron" unicode="&#x39f;" horiz-adv-x="1396" 
d="M1090 692q0 209 -93 357q-106 176 -302 176t-302 -181q-90 -147 -90 -356t92 -356q109 -176 305 -176t301 180q89 147 89 356zM1325 697q0 -305 -166 -512t-463 -207t-461 202q-163 203 -163 503t170 510t463 210t462 -209q158 -192 158 -497z" />
    <glyph glyph-name="Pi" unicode="&#x3a0;" horiz-adv-x="1294" 
d="M1147 0h-221v1194h-557v-1194h-222v1380h1000v-1380z" />
    <glyph glyph-name="Rho" unicode="&#x3a1;" horiz-adv-x="1105" 
d="M811 966q0 124 -77.5 188.5t-193.5 64.5t-173 -13v-495q47 -12 129 -13q147 0 231 72t84 196zM508 1391q262 0 392 -112t130 -301t-112 -304q-145 -150 -424 -150q-82 0 -127 11v-535h-220v1362q158 29 361 29z" />
    <glyph glyph-name="Sigma" unicode="&#x3a3;" horiz-adv-x="1122" 
d="M338 182h727v-182h-1012v129l451 557l-424 547v147h926v-182h-646v-6l381 -498l-403 -504v-8z" />
    <glyph glyph-name="Tau" unicode="&#x3a4;" horiz-adv-x="1032" 
d="M1022 1194h-395v-1194h-224v1194h-393v186h1012v-186z" />
    <glyph glyph-name="Upsilon" unicode="&#x3a5;" horiz-adv-x="1204" 
d="M705 336v-336h-222v338q0 157 -22 276q-53 262 -173 414t-268 184l35 181q138 -7 268.5 -108.5t198.5 -254.5t84 -309h6q23 156 87.5 277.5t137.5 202.5t161.5 132t160.5 60l35 -183q-225 -85 -357 -340t-132 -534z" />
    <glyph glyph-name="Phi" unicode="&#x3a6;" horiz-adv-x="1488" 
d="M1090 1034q-102 125 -240 140v-963q140 18 241 141t101 340t-102 342zM399 357.5q102 -129.5 240 -146.5v963q-132 -13 -237 -141.5t-105 -336.5q0 -209 102 -338.5zM850 -55h-211v108q-227 22 -397 182.5t-170 448.5q0 289 174 456.5t401 190.5v105h203v-105
q232 -22 399.5 -187.5t167.5 -450.5t-164 -448t-403 -192v-108z" />
    <glyph glyph-name="Chi" unicode="&#x3a7;" horiz-adv-x="1171" 
d="M1130 0h-256l-155 289q-51 90 -144 262h-4q-14 -37 -131 -264l-145 -287h-252l406 700l-390 680h252l160 -299q66 -125 117 -231h4q49 111 113 231l159 299h252l-401 -673z" />
    <glyph glyph-name="Psi" unicode="&#x3a8;" horiz-adv-x="1413" 
d="M1323 981q0 -272 -141 -416t-375 -157v-408h-203v408q-220 9 -367 135.5t-147 380.5v456h215v-419q0 -286 117 -331.5t182 -49.5v800h205v-802q208 14 253.5 162.5t45.5 267.5v372h215v-399z" />
    <glyph glyph-name="uni03A9" unicode="&#x3a9;" horiz-adv-x="1445" 
d="M1094 172h288v-172h-536v135q119 86 199.5 239.5t80.5 347.5t-107 348.5t-293.5 154.5t-297.5 -151t-111 -344q0 -192 82 -354.5t203 -240.5v-135h-539v172h285v8q-105 84 -182.5 231.5t-77.5 308.5q0 307 182.5 495t463.5 188t450.5 -187t169.5 -459t-106.5 -405
t-153.5 -172v-8z" />
    <glyph glyph-name="Iotadieresis" unicode="&#x3aa;" horiz-adv-x="516" 
d="M369 0h-222v1380h222v-1380zM174 1584q0 -48 -31 -81t-79 -33t-79.5 34t-31.5 81t32.5 81t80.5 34t78 -34t30 -82zM561 1584q0 -48 -31.5 -81t-79.5 -33t-79 34t-31 81t31.5 81t79 34t79 -34t31.5 -82z" />
    <glyph glyph-name="Upsilondieresis" unicode="&#x3ab;" horiz-adv-x="1204" 
d="M541 1541q0 -48 -31 -81t-79 -33t-80 34t-32 81t33 81t81 34t78 -34t30 -82zM928 1541q0 -48 -32 -81t-80 -33t-78.5 34t-30.5 81t31.5 81t78.5 34t79 -34t32 -82zM705 336v-336h-222v338q0 157 -22 276q-53 262 -173 414t-268 184l35 181q138 -7 268.5 -108.5
t198.5 -254.5t84 -309h6q23 156 87.5 277.5t137.5 202.5t161.5 132t160.5 60l35 -183q-225 -85 -357 -340t-132 -534z" />
    <glyph glyph-name="alphatonos" unicode="&#x3ac;" horiz-adv-x="1126" 
d="M297 490q0 -140 63 -238t172 -98q79 0 160.5 83t81.5 271q0 120 -52 229t-163 109q-182 0 -222 -142.5t-40 -213.5zM983 303q0 -158 96 -158l-14 -157q-28 -11 -88 -11t-109 47.5t-61 153.5h-4q-49 -90 -132 -145.5t-183 -55.5q-187 0 -300.5 137.5t-113.5 368.5
q0 232 132 383.5t306 151.5q98 0 174 -48t117 -136h8q9 114 20 161h181q-29 -341 -29 -692zM786 1413l-170 -297h-145l104 297h211z" />
    <glyph glyph-name="epsilontonos" unicode="&#x3ad;" horiz-adv-x="899" 
d="M305 303q0 -111 96.5 -134.5t160.5 -23.5t140 22.5t123 47.5l35 -147q-63 -41 -163.5 -66t-188.5 -25q-186 0 -310 74.5t-124 229.5q0 92 65.5 160.5t165.5 86.5v9q-92 23 -138 79t-46 117q0 122 104.5 203.5t294.5 81.5t307 -76l-43 -143q-33 20 -99.5 39.5t-148.5 19.5
t-139 -36t-57 -98t72.5 -92t185.5 -30h109v-151h-113q-289 -5 -289 -148zM719 1413l-170 -297h-146l105 297h211z" />
    <glyph glyph-name="etatonos" unicode="&#x3ae;" horiz-adv-x="1138" 
d="M336 840h4q69 118 163.5 147t152.5 29q139 0 243.5 -100t104.5 -326v-459q0 -459 20 -537h-209q-33 66 -33 361v610q0 271 -198 271q-78 0 -134.5 -49.5t-76.5 -114.5q-12 -31 -13 -82v-590h-221v711q0 191 -28 284h194q31 -64 31 -155zM811 1413l-170 -297h-145l104 297
h211z" />
    <glyph glyph-name="iotatonos" unicode="&#x3af;" horiz-adv-x="503" 
d="M356 262q0 -63 20.5 -90t76.5 -22l-13 -158q-39 -14 -91 -14q-106 -1 -160 56.5t-54 205.5v755h221v-733zM477 1415l-168 -297h-149l104 297h213z" />
    <glyph glyph-name="upsilondieresistonos" unicode="&#x3b0;" horiz-adv-x="1073" 
d="M371 1248q0 -44 -29 -73.5t-72 -29.5t-72.5 30.5t-29.5 73.5t29.5 74t73.5 31t72 -31t28 -75zM899 1248q0 -44 -28.5 -73.5t-72.5 -29.5t-73 30.5t-29 73.5t30 74t74 31t71.5 -31t27.5 -75zM664 1440l-107 -330h-117l45 330h179zM346 805v-395q0 -123 56.5 -186.5
t126.5 -63.5q71 0 156 61.5t85 370.5q0 183 -27.5 283t-35.5 120h208q25 -51 48.5 -155.5t23.5 -223.5q0 -269 -106 -454t-357 -185q-173 0 -285 104.5t-112 305.5v275q0 267 -25 333h215q29 -37 29 -190z" />
    <glyph glyph-name="alpha" unicode="&#x3b1;" horiz-adv-x="1126" 
d="M297 490q0 -140 63 -238t172 -98q79 0 160.5 83t81.5 271q0 120 -52 229t-163 109q-182 0 -222 -142.5t-40 -213.5zM983 303q0 -158 96 -158l-14 -157q-28 -11 -88 -11t-109 47.5t-61 153.5h-4q-49 -90 -132 -145.5t-183 -55.5q-187 0 -300.5 137.5t-113.5 368.5
q0 232 132 383.5t306 151.5q98 0 174 -48t117 -136h8q9 114 20 161h181q-29 -341 -29 -692z" />
    <glyph glyph-name="beta" unicode="&#x3b2;" horiz-adv-x="1140" 
d="M348 291q94 -144 260 -144q102 0 169 75t67 198t-81 192.5t-200 73.5q-10 2 -23.5 1t-23.5 -1v145q10 0 16.5 1.5t16.5 3.5q98 10 149.5 80.5t51.5 167.5t-51.5 158t-133.5 61q-217 0 -217 -398v-614zM135 -57v931q0 348 152 490q117 113 290 113q172 0 273.5 -101.5
t101.5 -261.5q0 -109 -51 -192.5t-123 -122.5v-8q122 -27 205.5 -130.5t83.5 -257.5q0 -194 -122.5 -310t-303.5 -116q-180 0 -291 115h-4v-131q0 -265 23 -367h-203q-31 97 -31 349z" />
    <glyph glyph-name="gamma" unicode="&#x3b3;" horiz-adv-x="964" 
d="M924 901q0 -311 -346 -852q-13 -16 -13 -49q6 -120 6 -406h-211q4 143 1 287t-33 279q-56 248 -144.5 446t-201.5 389h247q116 -184 183 -409.5t90 -335.5h6q201 396 201 670l-2 75h211q6 -21 6 -94z" />
    <glyph glyph-name="delta" unicode="&#x3b4;" horiz-adv-x="1114" 
d="M301 477q0 -151 79.5 -243.5t187.5 -92.5q107 0 180 87t73 241q0 187 -168 326l-100 84q-252 -143 -252 -402zM637 1315q-74 0 -109.5 -23.5t-35.5 -57.5t33.5 -66.5t99.5 -86.5l166 -133q251 -202 251 -448q0 -244 -140 -383.5t-345 -139.5t-344 137t-139 361
q0 174 97 299.5t259 206.5v10l-41 35q-119 104 -119 203t93.5 173.5t261.5 74.5q113 0 201.5 -32t131.5 -67l-59 -143q-128 80 -262 80z" />
    <glyph glyph-name="epsilon" unicode="&#x3b5;" horiz-adv-x="899" 
d="M305 303q0 -111 96.5 -134.5t160.5 -23.5t140 22.5t123 47.5l35 -147q-63 -41 -163.5 -66t-188.5 -25q-186 0 -310 74.5t-124 229.5q0 92 65.5 160.5t165.5 86.5v9q-92 23 -138 79t-46 117q0 122 104.5 203.5t294.5 81.5t307 -76l-43 -143q-33 20 -99.5 39.5t-148.5 19.5
t-139 -36t-57 -98t72.5 -92t185.5 -30h109v-151h-113q-289 -5 -289 -148z" />
    <glyph glyph-name="zeta" unicode="&#x3b6;" horiz-adv-x="841" 
d="M461 1448h346l31 -152q-229 -114 -382 -339.5t-153 -444.5q0 -150 59.5 -224.5t153.5 -112.5t293 -66q18 -4 18 -38q0 -81 -39.5 -191.5t-89.5 -178.5l-141 43q46 83 61 217q-323 51 -431.5 187.5t-108.5 335.5q0 200 122 418.5t339 377.5v8h-127q-164 0 -230 23l21 145
q65 -8 258 -8z" />
    <glyph glyph-name="eta" unicode="&#x3b7;" horiz-adv-x="1138" 
d="M336 840h4q69 118 163.5 147t152.5 29q139 0 243.5 -100t104.5 -326v-459q0 -459 20 -537h-209q-33 66 -33 361v610q0 271 -198 271q-78 0 -134.5 -49.5t-76.5 -114.5q-12 -31 -13 -82v-590h-221v711q0 191 -28 284h194q31 -64 31 -155z" />
    <glyph glyph-name="theta" unicode="&#x3b8;" horiz-adv-x="1097" 
d="M293 666q0 -252 70.5 -390.5t192.5 -138.5t186.5 144t64.5 385h-514zM805 827q0 339 -96.5 414.5t-158.5 75.5q-117 0 -188 -141t-71 -349h514zM549 -23q-221 0 -348 191.5t-127 543.5t128 558.5t358.5 206.5t347 -197t116.5 -541q0 -546 -176 -654t-297 -108h-2z" />
    <glyph glyph-name="iota" unicode="&#x3b9;" horiz-adv-x="503" 
d="M356 262q0 -63 20.5 -90t76.5 -22l-13 -158q-39 -14 -91 -14q-106 -1 -160 56.5t-54 205.5v755h221v-733z" />
    <glyph glyph-name="kappa" unicode="&#x3ba;" horiz-adv-x="1021" 
d="M358 430v-430h-221v768q0 179 -24 227h219q26 -42 26 -172v-262h9q115 119 208 231.5t170 202.5h254v-10l-438 -444v-9q91 -21 168.5 -123t112.5 -151l170 -258h-254l-140 207q-66 98 -123 159.5t-120 63.5h-17z" />
    <glyph glyph-name="lambda" unicode="&#x3bb;" horiz-adv-x="976" 
d="M358 918q11 33 11 56t-13 46q-41 117 -99 195.5t-140 78.5h-33l20 170q27 9 92 9q128 0 216 -116t172 -347l370 -1010h-235l-178 530q-16 49 -30.5 101.5t-31.5 113.5h-6q-10 -51 -26.5 -104t-30.5 -104l-178 -537h-228z" />
    <glyph glyph-name="uni03BC" unicode="&#x3bc;" horiz-adv-x="1130" 
d="M991 287q0 -143 8 -287h-194l-12 156h-5q-94 -174 -278 -174q-125 0 -182 94h-4l12 -482h-203v1401h221v-555q0 -279 199 -278q86 0 151.5 65.5t65.5 137.5v630h221v-708z" />
    <glyph glyph-name="nu" unicode="&#x3bd;" horiz-adv-x="968" 
d="M924 920q0 -317 -363 -920h-207l-352 995h238l168 -528q20 -66 36.5 -128.5t38.5 -127.5h6q98 206 160 376.5t62 317.5v34q0 34 -2 56h209q6 -48 6 -75z" />
    <glyph glyph-name="xi" unicode="&#x3be;" horiz-adv-x="894" 
d="M618.5 1317q-105.5 0 -167.5 -60t-62 -157q0 -96 83 -152.5t120 -56.5h156v-156h-52q-188 0 -288.5 -79t-100.5 -199q0 -121 87 -203t245 -109.5t223 -38.5q33 0 0 -154.5t-108 -250.5l-140 43q29 65 43.5 132t14.5 85q-253 37 -425.5 136.5t-172.5 328.5q0 146 89 254
t224 145v13q-111 35 -165 111.5t-54 159.5q0 161 115.5 264.5t318.5 103.5q158 0 254 -56l-39 -149q-93 45 -198.5 45z" />
    <glyph glyph-name="omicron" unicode="&#x3bf;" horiz-adv-x="1120" 
d="M819 499.5q0 137.5 -59 235.5q-70 119 -201 119t-201 -119q-59 -98 -59 -237q-1 -139 65 -248t194 -109t200 121q61 100 61 237.5zM565 1016q223 0 353 -144t131 -369q0 -226 -134 -376q-133 -150 -357 -150t-354 145.5t-130 371.5t134 374t357 148z" />
    <glyph glyph-name="pi" unicode="&#x3c0;" horiz-adv-x="1142" 
d="M322 995h778l-25 -172h-129v-522q0 -190 27 -301h-213q-33 59 -33 281v542h-276q-7 -344 -54 -553t-71 -270h-215q76 209 100.5 470t26.5 353q-132 0 -191 -16l-27 129q76 59 302 59z" />
    <glyph glyph-name="rho" unicode="&#x3c1;" horiz-adv-x="1148" 
d="M350 393q0 -116 79 -179.5t153 -63.5q138 0 207 99.5t69 246.5q0 146 -67 242t-178 96t-187 -94t-76 -267v-80zM350 109v-152q0 -288 17 -363h-213q-23 77 -23 359v457q0 267 62.5 352.5t107.5 130.5t127 85t190 40q210 0 334.5 -141.5t124.5 -379.5t-131.5 -379
t-317.5 -141q-185 0 -272 132h-6z" />
    <glyph glyph-name="sigma1" unicode="&#x3c2;" horiz-adv-x="862" 
d="M301 502q0 -143 76 -233.5t222 -119t218 -38.5q30 -11 -1 -161.5t-105 -250.5l-144 45q45 81 60 215q-43 10 -89 20.5t-108 28.5t-129.5 56t-117.5 95.5t-79.5 135.5t-29.5 238t145.5 322.5t396.5 162.5q143 0 226 -47l-45 -160q-86 37 -167 37q-153 0 -241 -101.5
t-88 -244.5z" />
    <glyph glyph-name="sigma" unicode="&#x3c3;" horiz-adv-x="1138" 
d="M741.5 243q73.5 102 73.5 259q0 224 -93 288t-162 64q-128 0 -194.5 -107t-66.5 -254t72.5 -249.5t184.5 -102.5t185.5 102zM1030 484q0 -118 -42 -218t-142.5 -194.5t-301.5 -94.5t-335.5 139t-134.5 378t141 381.5t390 142.5h513l-10 -166q-77 0 -242 10v-8
q78 -59 121 -155.5t43 -214.5z" />
    <glyph glyph-name="tau" unicode="&#x3c4;" horiz-adv-x="851" 
d="M274 995h562l-25 -172h-289v-514q0 -94 31 -125.5t76 -31.5h17q16 0 26 2l-10 -158q-38 -19 -113 -19q-135 0 -190.5 79t-55.5 243v524h-98q-110 0 -193 -16l-28 131q77 57 290 57z" />
    <glyph glyph-name="upsilon" unicode="&#x3c5;" horiz-adv-x="1073" 
d="M346 805v-395q0 -123 56.5 -186.5t126.5 -63.5q71 0 156 61.5t85 370.5q0 183 -27.5 283t-35.5 120h208q25 -51 48.5 -155.5t23.5 -223.5q0 -269 -106 -454t-357 -185q-173 0 -285 104.5t-112 305.5v275q0 267 -25 333h215q29 -37 29 -190z" />
    <glyph glyph-name="phi" unicode="&#x3c6;" horiz-adv-x="1335" 
d="M770 737v-602q127 20 203 118.5t76 249.5t-64 253t-143 102q-33 0 -52.5 -30.5t-19.5 -90.5zM293 510q0 -143 68.5 -245.5t209.5 -129.5v563q0 162 79 241t194 75q161 0 287 -137t126 -365t-144 -371.5t-343 -160.5v-386h-199v386q-207 13 -352 146t-145 378
q0 192 107.5 329t234.5 189l86 -121q-209 -141 -209 -391z" />
    <glyph glyph-name="chi" unicode="&#x3c7;" horiz-adv-x="946" 
d="M264 995l225 -510h9q20 47 40.5 97.5t49.5 109.5l133 303h213l-342 -673l350 -713l-209 -53l-268 579h-8q-18 -41 -38 -93t-46 -112l-168 -374l-191 55l348 708l-335 676h237z" />
    <glyph glyph-name="psi" unicode="&#x3c8;" horiz-adv-x="1361" 
d="M1196 995q80 -137 80 -389t-115.5 -432t-365.5 -197v-383h-197v383q-330 21 -399.5 199t-69.5 326v254q0 170 -16 239h204q23 -35 23 -190v-285q0 -195 70.5 -285.5t187.5 -99.5v1120h199v-1120q118 4 193 129.5t75 329.5q0 203 -29.5 294t-38.5 107h199z" />
    <glyph glyph-name="omega" unicode="&#x3c9;" horiz-adv-x="1421" 
d="M977 1004h207q107 -93 135.5 -243.5t28.5 -260.5t-32 -214t-110 -206.5t-239 -102.5q-88 0 -156 46.5t-100 123.5h-9q-35 -78 -102.5 -124t-145.5 -46q-160 0 -270 135.5t-110 385.5t68.5 361.5t99.5 144.5h204v-5q-68 -78 -111.5 -203.5t-43.5 -249.5q0 -205 55 -294.5
t122 -89.5q66 0 104 60.5t38 146.5l-4 381h207l-4 -381q0 -88 38 -147.5t108 -59.5t122.5 97.5t52.5 294.5q0 196 -59 302.5t-94 142.5v5z" />
    <glyph glyph-name="iotadieresis" unicode="&#x3ca;" horiz-adv-x="503" 
d="M356 262q0 -63 20.5 -90t76.5 -22l-13 -158q-39 -14 -91 -14q-106 -1 -160 56.5t-54 205.5v755h221v-733zM172 1246q0 -48 -31.5 -80.5t-79 -32.5t-80 33.5t-32.5 80.5t32.5 81t80.5 34t79 -34t31 -82zM557 1246q0 -48 -31.5 -80.5t-79.5 -32.5t-80 33.5t-32 80.5t33 81
t81 34t78.5 -34t30.5 -82z" />
    <glyph glyph-name="upsilondieresis" unicode="&#x3cb;" horiz-adv-x="1073" 
d="M442 1246q0 -48 -31.5 -80.5t-78.5 -32.5t-80 33.5t-33 80.5t33 81t81 34t78.5 -34t30.5 -82zM827 1246q0 -48 -31.5 -80.5t-79.5 -32.5t-80 33.5t-32 80.5t33 81t81 34t78.5 -34t30.5 -82zM346 805v-395q0 -123 56.5 -186.5t126.5 -63.5q71 0 156 61.5t85 370.5
q0 183 -27.5 283t-35.5 120h208q25 -51 48.5 -155.5t23.5 -223.5q0 -269 -106 -454t-357 -185q-173 0 -285 104.5t-112 305.5v275q0 267 -25 333h215q29 -37 29 -190z" />
    <glyph glyph-name="omicrontonos" unicode="&#x3cc;" horiz-adv-x="1120" 
d="M819 499.5q0 137.5 -59 235.5q-70 119 -201 119t-201 -119q-59 -98 -59 -237q-1 -139 65 -248t194 -109t200 121q61 100 61 237.5zM565 1016q223 0 353 -144t131 -369q0 -226 -134 -376q-133 -150 -357 -150t-354 145.5t-130 371.5t134 374t357 148zM786 1413l-170 -297
h-145l104 297h211z" />
    <glyph glyph-name="upsilontonos" unicode="&#x3cd;" horiz-adv-x="1073" 
d="M346 805v-395q0 -123 56.5 -186.5t126.5 -63.5q71 0 156 61.5t85 370.5q0 183 -27.5 283t-35.5 120h208q25 -51 48.5 -155.5t23.5 -223.5q0 -269 -106 -454t-357 -185q-173 0 -285 104.5t-112 305.5v275q0 267 -25 333h215q29 -37 29 -190zM756 1415l-168 -297h-150
l105 297h213z" />
    <glyph glyph-name="omegatonos" unicode="&#x3ce;" horiz-adv-x="1421" 
d="M977 1004h207q107 -93 135.5 -243.5t28.5 -260.5t-32 -214t-110 -206.5t-239 -102.5q-88 0 -156 46.5t-100 123.5h-9q-35 -78 -102.5 -124t-145.5 -46q-160 0 -270 135.5t-110 385.5t68.5 361.5t99.5 144.5h204v-5q-68 -78 -111.5 -203.5t-43.5 -249.5q0 -205 55 -294.5
t122 -89.5q66 0 104 60.5t38 146.5l-4 381h207l-4 -381q0 -88 38 -147.5t108 -59.5t122.5 97.5t52.5 294.5q0 196 -59 302.5t-94 142.5v5zM936 1413l-168 -297h-147l104 297h211z" />
    <glyph glyph-name="uni0400" unicode="&#x400;" horiz-adv-x="1015" 
d="M942 0h-795v1380h766v-182h-544v-389h514v-182h-514v-445h573v-182zM641 1483h-154l-247 297h223z" />
    <glyph glyph-name="afii10023" unicode="&#x401;" horiz-adv-x="1015" 
d="M942 0h-795v1380h766v-182h-544v-389h514v-182h-514v-445h573v-182zM451 1584q0 -48 -32 -81t-79 -33t-79 34t-32 81t33 81t80 34t78 -34t31 -82zM836 1584q0 -48 -32 -81t-79 -33t-79 34t-32 81t33 81t80 34t78 -34t31 -82z" />
    <glyph glyph-name="afii10051" unicode="&#x402;" horiz-adv-x="1380" 
d="M801 725q-103 0 -197 -70v-655h-221v1194h-365v186h1069v-186h-483v-365q142 84 260 84q208 0 336 -165q107 -144 107 -390t-124 -425t-354 -236l-47 182q135 42 199 125q94 117 94 311t-67 299q-76 111 -207 111z" />
    <glyph glyph-name="afii10052" unicode="&#x403;" horiz-adv-x="950" 
d="M825 1700l-260 -246h-176l189 246h247zM901 1380v-182h-530v-1198h-224v1380h754z" />
    <glyph glyph-name="afii10053" unicode="&#x404;" horiz-adv-x="1159" 
d="M967 788v-176h-658q12 -194 144 -322t344 -128q136 0 256 45l39 -168q-127 -62 -308 -62q-340 0 -526 192t-186 504q0 311 187.5 520.5t520.5 209.5q195 0 316 -62l-47 -170q-111 52 -237 52q-227 0 -354.5 -123t-152.5 -312h662z" />
    <glyph glyph-name="afii10054" unicode="&#x405;" horiz-adv-x="1021" 
d="M940 387q0 -183 -133.5 -295t-361.5 -112t-363 86l51 184q143 -86 320 -86q125 0 194.5 56t69.5 146t-56.5 146.5t-191.5 105.5q-362 135 -363 396q0 171 130.5 279t326.5 108t324 -66l-56 -180q-115 63 -245 63t-193 -50t-63 -131t58.5 -133t221.5 -117
q164 -64 247 -160.5t83 -239.5z" />
    <glyph glyph-name="afii10055" unicode="&#x406;" horiz-adv-x="516" 
d="M369 0h-222v1380h222v-1380z" />
    <glyph glyph-name="afii10056" unicode="&#x407;" horiz-adv-x="516" 
d="M369 0h-222v1380h222v-1380zM174 1584q0 -48 -31 -81t-79 -33t-79.5 34t-31.5 81t32.5 81t80.5 34t78 -34t30 -82zM561 1584q0 -48 -31.5 -81t-79.5 -33t-79 34t-31 81t31.5 81t79 34t79 -34t31.5 -82z" />
    <glyph glyph-name="afii10057" unicode="&#x408;" horiz-adv-x="770" 
d="M637 469q0 -492 -434 -492q-119 0 -199 33l29 178q70 -25 147 -24q129 0 182.5 74.5t53.5 240.5v901h221v-911z" />
    <glyph glyph-name="afii10058" unicode="&#x409;" horiz-adv-x="1806" 
d="M1411.5 642.5q-93.5 66.5 -231.5 66.5q-40 0 -133 -11v-534q49 -8 123 -8t133 17t130.5 74t71.5 193t-93.5 202.5zM825 1194h-362v-387q0 -284 -33 -419.5t-102 -262.5t-308 -143l-28 180q87 19 143 82q95 100 104 280.5t9 263.5v592h799v-516q69 15 171 15
q216 0 363.5 -110.5t147.5 -310.5t-117 -319q-157 -153 -508 -153q-153 0 -279 16v1192z" />
    <glyph glyph-name="afii10059" unicode="&#x40a;" horiz-adv-x="1832" 
d="M1198 156q141 0 234.5 71.5t93.5 206.5t-89.5 199.5t-228.5 64.5q-53 0 -141 -10v-522q61 -10 131 -10zM1131 -14q-155 0 -285 16v651h-477v-653h-222v1380h222v-540h477v540h223v-526q102 10 193 10q208 0 350.5 -106t142.5 -302t-121 -317q-92 -88 -220 -120.5
t-283 -32.5z" />
    <glyph glyph-name="afii10060" unicode="&#x40b;" horiz-adv-x="1394" 
d="M821 733q-126 0 -233 -80v-653h-217v1194h-361v186h1043v-186h-465v-375q166 103 321 103t252 -107q96 -107 96 -317v-498h-215v461q0 201 -84 236.5t-137 35.5z" />
    <glyph glyph-name="afii10061" unicode="&#x40c;" horiz-adv-x="1161" 
d="M903 1700l-260 -246h-176l188 246h248zM369 1380v-602h61l430 602h275l-504 -630q209 -37 275.5 -162t127 -300t107.5 -288h-242q-35 74 -59.5 154t-49.5 150q-55 155 -131 232.5t-219 77.5h-71v-614h-222v1380h222z" />
    <glyph glyph-name="uni040D" unicode="&#x40d;" horiz-adv-x="1345" 
d="M993 485q0 432 15 588l-4 2q-83 -184 -261 -487l-350 -588h-246v1380h205v-483q0 -416 -12 -627l6 -2q72 147 268 490l367 622h217v-1380h-205v485zM782 1483h-153l-248 297h223z" />
    <glyph glyph-name="afii10062" unicode="&#x40e;" horiz-adv-x="1085" 
d="M552 1554q54 0 75.5 32t27.5 81h160q-12 -213 -260 -213t-264 213h162q4 -47 24.5 -80t74.5 -33zM172 162h51q147 0 238 188q15 40 -6 86l-447 946h246l225 -542q21 -47 52.5 -134.5t58.5 -156.5q33 85 104 297l174 536h226q-49 -133 -84 -223t-57.5 -148.5t-44 -115.5
t-41 -110t-42.5 -111q-77 -197 -132.5 -319t-119.5 -210q-137 -174 -305 -174q-80 0 -133 15q4 47 10.5 90t10.5 90q12 -4 16 -4z" />
    <glyph glyph-name="afii10145" unicode="&#x40f;" horiz-adv-x="1304" 
d="M369 1380v-1194h567v1194h221v-1380h-399l-15 -375h-180l-14 375h-402v1380h222z" />
    <glyph glyph-name="afii10017" unicode="&#x410;" horiz-adv-x="1259" 
d="M807 575l-117 361q-15 42 -69 260h-5q-10 -45 -14 -62l-51 -198l-115 -361h371zM1210 0h-235l-129 406h-449l-123 -406h-229l444 1380h275z" />
    <glyph glyph-name="afii10018" unicode="&#x411;" horiz-adv-x="1136" 
d="M550 887q222 0 365.5 -110.5t143.5 -325.5q0 -335 -229.5 -400t-391.5 -65q-163 0 -291 16v1378h809v-182h-589v-324q80 13 183 13zM827 438q0 137 -88.5 205t-230.5 68q-88 0 -141 -11v-534q55 -10 130 -10q148 0 239 72.5t91 209.5z" />
    <glyph glyph-name="afii10019" unicode="&#x412;" horiz-adv-x="1136" 
d="M823 401.5q0 116.5 -86 180t-239 63.5h-131v-481q35 -8 135 -8q154 0 237.5 64.5t83.5 181zM782 1022q0 203 -270 203q-94 0 -145 -13v-405h137q129 0 203.5 58.5t74.5 156.5zM440 -12q-162 0 -293 16v1358q143 29 372 29t358 -92.5t129 -254.5q0 -98 -59.5 -179
t-170.5 -120v-6q125 -29 202 -122t77 -203t-35 -185t-109.5 -128.5t-191.5 -83t-279 -29.5z" />
    <glyph glyph-name="afii10020" unicode="&#x413;" horiz-adv-x="950" 
d="M901 1380v-182h-530v-1198h-224v1380h754z" />
    <glyph glyph-name="afii10021" unicode="&#x414;" horiz-adv-x="1331" 
d="M539 961q0 -461 -181 -779h564v1012h-383v-233zM1143 1380v-1204l133 -4l-14 -520h-162l-15 348h-868l-14 -348h-162l-14 516l108 8q99 179 136 307q65 230 65 543v354h807z" />
    <glyph glyph-name="afii10022" unicode="&#x415;" horiz-adv-x="1015" 
d="M942 0h-795v1380h766v-182h-544v-389h514v-182h-514v-445h573v-182z" />
    <glyph glyph-name="afii10024" unicode="&#x416;" horiz-adv-x="1710" 
d="M750 778v602h213v-602h67l389 602h258l-485 -635q219 -22 297 -179.5t120 -310.5t87 -255h-223q-45 100 -103 313q-45 143 -117.5 222t-218.5 79h-71v-614h-213v614h-78q-146 0 -215.5 -76t-120.5 -225q-23 -76 -43.5 -155.5t-56.5 -157.5h-222q41 94 71 192.5t60 185.5
q59 172 140.5 259t230.5 111l-483 632h260l387 -602h70z" />
    <glyph glyph-name="afii10025" unicode="&#x417;" horiz-adv-x="1024" 
d="M468 1403q202 0 316.5 -94.5t114.5 -253.5q0 -127 -77 -213t-195 -115v-6q219 -33 270 -148t51 -207t-46 -169.5t-153 -148.5t-323 -71q-217 0 -369 89l56 170q149 -76 299 -76q149 0 226 63.5t77 181.5t-99.5 172t-240.5 54h-92v168h92q129 0 213 63t84 158
q0 96 -65.5 148.5t-180.5 52.5t-283 -78l-49 157q172 103 374 103z" />
    <glyph glyph-name="afii10026" unicode="&#x418;" horiz-adv-x="1345" 
d="M993 485q0 432 15 588l-4 2q-78 -172 -261 -487l-350 -588h-246v1380h205v-483q0 -414 -12 -627l6 -2q72 147 268 490l367 622h217v-1380h-205v485z" />
    <glyph glyph-name="afii10027" unicode="&#x419;" horiz-adv-x="1345" 
d="M677 1554q54 0 75.5 32t27.5 81h160q-12 -213 -260 -213t-264 213h162q4 -47 24.5 -80t74.5 -33zM993 485q0 432 15 588l-4 2q-78 -172 -261 -487l-350 -588h-246v1380h205v-483q0 -414 -12 -627l6 -2q72 147 268 490l367 622h217v-1380h-205v485z" />
    <glyph glyph-name="afii10028" unicode="&#x41a;" horiz-adv-x="1161" 
d="M369 1380v-602h61l430 602h275l-504 -630q209 -37 275.5 -162t127 -300t107.5 -288h-242q-35 74 -59.5 154t-49.5 150q-55 155 -131 232.5t-219 77.5h-71v-614h-222v1380h222z" />
    <glyph glyph-name="afii10029" unicode="&#x41b;" horiz-adv-x="1255" 
d="M256 788v592h852v-1380h-221v1194h-414v-387q0 -290 -32.5 -423.5t-104.5 -260t-318 -141.5q-7 39 -26 182q93 26 138 70q78 76 102 216t24 338z" />
    <glyph glyph-name="afii10030" unicode="&#x41c;" horiz-adv-x="1646" 
d="M1534 0h-215l-29 578q-23 391 -18 581h-6q-50 -185 -162 -522l-215 -625h-168l-197 615q-88 274 -143 532h-4q-10 -315 -25 -592l-33 -567h-206l92 1380h284l199 -598q74 -223 129 -475h6q63 256 140 475l206 598h285z" />
    <glyph glyph-name="afii10031" unicode="&#x41d;" horiz-adv-x="1335" 
d="M1188 0h-221v623h-598v-623h-222v1380h222v-563h598v563h221v-1380z" />
    <glyph glyph-name="afii10032" unicode="&#x41e;" horiz-adv-x="1396" 
d="M981.5 1074q-108.5 151 -284.5 151t-285 -152t-109 -382q0 -231 109.5 -383t285.5 -152t284 151t108 383q0 233 -108.5 384zM1151.5 176q-173.5 -199 -455.5 -199q-281 0 -452.5 197t-171.5 509t176 516t457 204t450.5 -195t169.5 -514t-173.5 -518z" />
    <glyph glyph-name="afii10033" unicode="&#x41f;" horiz-adv-x="1308" 
d="M1161 1380v-1380h-221v1194h-571v-1194h-222v1380h1014z" />
    <glyph glyph-name="afii10034" unicode="&#x420;" horiz-adv-x="1105" 
d="M811 966q0 126 -77 189.5t-218 63.5q-92 0 -149 -13v-495q45 -12 129 -13q147 0 231 71t84 197zM515 524q-99 0 -148 11v-535h-220v1362q162 29 361 29q260 0 391 -108.5t131 -314.5t-108.5 -295t-208 -119t-198.5 -30z" />
    <glyph glyph-name="afii10035" unicode="&#x421;" horiz-adv-x="1169" 
d="M793 166q164 0 272 51l39 -176q-124 -59 -316 -59q-350 0 -533 187t-183 510t198.5 522.5t520.5 199.5q207 0 319 -60l-49 -178q-117 53 -247 53q-243 1 -376 -142.5t-133 -388.5t129 -382t359 -137z" />
    <glyph glyph-name="afii10036" unicode="&#x422;" horiz-adv-x="1032" 
d="M1022 1194h-395v-1194h-224v1194h-393v186h1012v-186z" />
    <glyph glyph-name="afii10037" unicode="&#x423;" horiz-adv-x="1085" 
d="M172 162h51q147 0 238 188q15 40 -6 86l-447 946h246l225 -542q21 -47 52.5 -134.5t58.5 -156.5q33 85 104 297l174 536h226q-49 -133 -84 -223t-57.5 -148.5t-44 -115.5t-41 -110t-42.5 -111q-77 -197 -132.5 -319t-119.5 -210q-137 -174 -305 -174q-80 0 -133 15
q4 47 10.5 90t10.5 90q12 -4 16 -4z" />
    <glyph glyph-name="afii10038" unicode="&#x424;" horiz-adv-x="1509" 
d="M1217 693q0 225 -102 338.5t-257 127.5v-930q241 23 300 181.5t59 282.5zM398.5 358.5q105.5 -113.5 250.5 -129.5v930q-143 -15 -249.5 -125t-106.5 -336t105.5 -339.5zM860 1438v-125q243 -13 410.5 -167t167.5 -453.5t-167.5 -452t-412.5 -170.5v-129h-209v131
q-393 28 -485 239t-92 375q0 300 175 456.5t404 170.5v125h209z" />
    <glyph glyph-name="afii10039" unicode="&#x425;" horiz-adv-x="1171" 
d="M1130 0h-256l-155 289q-25 47 -61.5 111.5t-82.5 150.5h-4q-43 -97 -131 -264l-145 -287h-252l406 700l-390 680h252l160 -299q35 -61 62.5 -119.5t54.5 -111.5h4q70 155 113 231l159 299h252l-401 -673z" />
    <glyph glyph-name="afii10040" unicode="&#x426;" horiz-adv-x="1345" 
d="M369 1380v-1194h567v1194h221v-1200l133 -4l-14 -524h-164l-14 348h-951v1380h222z" />
    <glyph glyph-name="afii10041" unicode="&#x427;" horiz-adv-x="1257" 
d="M545 502q-283 0 -346.5 151.5t-63.5 268.5v458h219v-419q0 -137 72 -208t211 -71t252 74v624h221v-1394h-219v606q-193 -90 -346 -90z" />
    <glyph glyph-name="afii10042" unicode="&#x428;" horiz-adv-x="1748" 
d="M365 1380v-1198h401v1198h217v-1198h401v1198h218v-1380h-1455v1380h218z" />
    <glyph glyph-name="afii10043" unicode="&#x429;" horiz-adv-x="1792" 
d="M365 1380v-1198h401v1198h219v-1198h399v1198h220v-1204l133 -4l-15 -520h-161l-15 348h-1399v1380h218z" />
    <glyph glyph-name="afii10044" unicode="&#x42a;" horiz-adv-x="1343" 
d="M774 887q215 0 353.5 -110t138.5 -326q0 -333 -224 -399t-383 -66t-284 16v1196h-363v182h584v-506q80 13 178 13zM721 156q141 0 227 71.5t86 210.5t-84 206t-223 67q-76 0 -131 -11v-534q55 -10 125 -10z" />
    <glyph glyph-name="afii10045" unicode="&#x42b;" horiz-adv-x="1566" 
d="M1401 0h-221v1380h221v-1380zM815 438q0 138 -86 205.5t-227 67.5q-82 0 -135 -11v-534q55 -10 127 -10q144 0 232.5 72t88.5 210zM147 1380h220v-506q80 13 180 13q216 0 358 -110t142 -326q0 -334 -226.5 -399.5t-386.5 -65.5q-159 0 -287 16v1378z" />
    <glyph glyph-name="afii10046" unicode="&#x42c;" horiz-adv-x="1136" 
d="M827 438q0 137 -88.5 205t-230.5 68q-88 0 -141 -11v-534q55 -10 130 -10q148 0 239 72.5t91 209.5zM147 1380h220v-506q80 13 183 13q222 0 365.5 -110.5t143.5 -325.5q0 -335 -229.5 -400t-391.5 -65q-163 0 -291 16v1378z" />
    <glyph glyph-name="afii10047" unicode="&#x42d;" horiz-adv-x="1136" 
d="M351 162q217 0 338 125t138 329h-602v172h604q-17 192 -130 313.5t-300 121.5q-133 0 -274 -56l-47 162q158 74 331 74q325 0 490.5 -201t165.5 -524t-190.5 -512t-479.5 -189q-187 0 -336 60l41 172q129 -47 251 -47z" />
    <glyph glyph-name="afii10048" unicode="&#x42e;" horiz-adv-x="1769" 
d="M1130 156q159 0 249.5 152.5t90.5 378.5t-90.5 382t-250 156t-252.5 -157t-93 -384t94 -377.5t250 -150.5h2zM369 1380v-577h200q32 272 186.5 436t397.5 164t394 -197t151 -520t-161.5 -516t-408.5 -193t-397 177.5t-166 461.5h-196v-616h-222v1380h222z" />
    <glyph glyph-name="afii10049" unicode="&#x42f;" horiz-adv-x="1103" 
d="M578 1223q-283 0 -283 -238q0 -111 78 -176.5t209 -65.5h155v465q-62 15 -159 15zM74 1008q0 186 129 284.5t395 98.5q203 0 358 -29v-1362h-219v580h-137q-111 0 -169 -56.5t-87 -193.5q-56 -264 -90 -330h-229q29 59 55 164.5t51 216.5q53 221 195 274v4
q-117 43 -184.5 135.5t-67.5 213.5z" />
    <glyph glyph-name="afii10065" unicode="&#x430;" horiz-adv-x="1003" 
d="M655 496q-186 0 -277 -47.5t-91 -153.5q0 -78 43 -117t97 -39q97 0 162.5 58.5t65.5 144.5v154zM68 270q0 186 151.5 279.5t429.5 93.5v19q0 197 -207 196q-147 0 -260 -74l-45 146q137 86 342 86q391 0 391 -412v-366q0 -154 15 -238h-199l-16 115h-6
q-100 -137 -291 -138q-129 0 -217 82.5t-88 210.5z" />
    <glyph glyph-name="afii10066" unicode="&#x431;" horiz-adv-x="1097" 
d="M799 496q0 228 -87 287t-157 59q-127 0 -195 -115q-53 -90 -53 -221t62 -248t189 -117t184 103.5t57 249.5v2zM592 997q196 0 315 -133.5t119 -367.5t-128 -377.5t-354 -143.5t-346 187.5t-120 480.5q0 373 182 588q143 170 410 207q155 19 256 43l-15 -181
q-58 -20 -206 -38q-225 -31 -332 -164q-49 -61 -78 -147.5t-35 -164.5h10q57 119 140.5 165t181.5 46z" />
    <glyph glyph-name="afii10067" unicode="&#x432;" horiz-adv-x="1042" 
d="M745 295q0 86 -75.5 118.5t-204.5 32.5h-117v-299q82 -8 133 -8q264 0 264 156zM479 854q-41 0 -131 -8v-256h113q252 0 252 133q0 68 -56.5 99.5t-177.5 31.5zM403 1010q133 0 210 -7.5t194 -50.5t117 -198q0 -127 -80 -166t-119 -47l2 -6q109 -18 176.5 -78
t67.5 -164.5t-57.5 -165.5t-193 -111t-585.5 -16v987q135 23 268 23z" />
    <glyph glyph-name="afii10068" unicode="&#x433;" horiz-adv-x="802" 
d="M770 995v-180h-414v-815h-221v995h635z" />
    <glyph glyph-name="afii10069" unicode="&#x434;" horiz-adv-x="1132" 
d="M449 698q0 -298 -127 -528h438v651h-311v-123zM973 995v-829l106 -4l-10 -490h-162l-10 328h-696l-13 -328h-159l-9 490l86 4q74 112 103 207q53 174 53 379v243h711z" />
    <glyph glyph-name="afii10070" unicode="&#x435;" horiz-adv-x="1026" 
d="M748 602q0 117 -56 189.5t-158 72.5t-169.5 -73.5t-77.5 -188.5h461zM958 568q0 -82 -8 -124h-663q4 -141 89 -217.5t227 -76.5t265 47l35 -154q-141 -61 -334 -61q-232 0 -363.5 135.5t-131.5 366.5t130.5 382.5t329.5 151.5q200 0 283.5 -96.5t112 -184t28.5 -169.5z
" />
    <glyph glyph-name="afii10072" unicode="&#x436;" horiz-adv-x="1400" 
d="M596 571v424h211v-424h55l273 424h247l-372 -444q102 -16 171 -89.5t97 -149.5t59 -166.5t58 -145.5h-221q-23 44 -82 225q-39 109 -100.5 155t-147.5 46h-37v-426h-211v426h-39q-92 0 -151.5 -49t-102.5 -164q-20 -47 -38.5 -102.5t-43.5 -110.5h-215q44 99 66 165
t41 122q73 227 278 264l-371 444h246l273 -424h57z" />
    <glyph glyph-name="afii10073" unicode="&#x437;" horiz-adv-x="919" 
d="M602 289q0 153 -270 153h-105v140h103q113 0 174 41t61 101t-52 97t-153 37t-223 -67l-57 143q150 82 342 82q252 0 315.5 -96.5t63.5 -157.5q0 -100 -62 -155.5t-151 -76.5v-6q103 -13 181.5 -75.5t78.5 -156.5q0 -168 -139 -241.5t-329 -73.5t-331 80l57 146
q124 -68 250 -68t186 44t60 110z" />
    <glyph glyph-name="afii10074" unicode="&#x438;" horiz-adv-x="1157" 
d="M813 352q0 144 16 445h-10q-35 -92 -69.5 -160t-140.5 -278t-187 -359h-287v995h211v-352q0 -170 -14 -420l4 -4q39 78 77 152.5t76 152.5l246 471h287v-995h-209v352z" />
    <glyph glyph-name="afii10075" unicode="&#x439;" horiz-adv-x="1183" 
d="M813 352q0 144 16 445h-10q-35 -92 -69.5 -160t-140.5 -278t-187 -359h-287v995h211v-352q0 -170 -14 -420l4 -4q39 78 77 152.5t76 152.5l246 471h287v-995h-209v352zM576 1257q52 0 85 35t35 105h142q-10 -123 -81 -184.5t-188 -61.5t-181 63.5t-71 182.5h144
q2 -70 32.5 -105t82.5 -35z" />
    <glyph glyph-name="afii10076" unicode="&#x43a;" horiz-adv-x="1009" 
d="M356 995v-422h68l309 422h260l-397 -442q113 -18 183.5 -95t119.5 -198q44 -135 105 -260h-230q-43 88 -86 204t-108.5 168t-169.5 52h-54v-424h-221v995h221z" />
    <glyph glyph-name="afii10077" unicode="&#x43b;" horiz-adv-x="1060" 
d="M926 995v-995h-221v815h-310v-225q0 -199 -45.5 -400t-320.5 -208l-25 178q61 16 107 59q82 77 82 379v397h733z" />
    <glyph glyph-name="afii10078" unicode="&#x43c;" horiz-adv-x="1359" 
d="M162 995h278l140 -434q8 -31 32 -109t60 -212q33 92 61.5 182t59.5 182l131 391h282l64 -995h-207l-19 432q-9 190 -14 369h-4l-111 -336l-155 -453h-195l-145 441q-47 156 -92 348h-4q-5 -219 -13 -375l-22 -426h-199z" />
    <glyph glyph-name="afii10079" unicode="&#x43d;" horiz-adv-x="1128" 
d="M356 995v-391h416v391h221v-995h-221v430h-416v-430h-221v995h221z" />
    <glyph glyph-name="afii10080" unicode="&#x43e;" horiz-adv-x="1118" 
d="M746.5 753q-70.5 101 -189.5 101t-189.5 -101t-70.5 -257.5t73 -255.5t187 -99t187 103.5t73 255.5t-70.5 253zM910.5 125q-136.5 -148 -355.5 -148t-351 142.5t-132 374.5q0 231 135 376.5t356 145.5t352.5 -142.5t131.5 -371.5t-136.5 -377z" />
    <glyph glyph-name="afii10081" unicode="&#x43f;" horiz-adv-x="1146" 
d="M1004 995v-995h-222v815h-407v-815h-221v995h850z" />
    <glyph glyph-name="afii10082" unicode="&#x440;" horiz-adv-x="1163" 
d="M864 502q0 231 -99 284.5t-153 53.5q-104 0 -178 -76.5t-74 -188.5v-165q0 -112 67 -185t182 -73q116 0 185.5 95t69.5 255zM139 668q0 155 -8 327h195l12 -157h4q111 178 336 178q175 0 293.5 -142t118.5 -371t-124 -377.5t-320 -148.5t-281 142h-5v-525h-221v1074z" />
    <glyph glyph-name="afii10083" unicode="&#x441;" horiz-adv-x="899" 
d="M630 842q-162 0 -246.5 -96.5t-84.5 -249.5t87.5 -246.5t227.5 -93.5q100 0 201 41l31 -166q-104 -51 -247 -51t-235 35.5t-156.5 102t-99 161t-34.5 268.5t147.5 321.5t388.5 147.5q135 0 240 -47l-43 -168q-87 41 -177 41z" />
    <glyph glyph-name="afii10084" unicode="&#x442;" horiz-adv-x="874" 
d="M848 995v-180h-303v-815h-217v815h-301v180h821z" />
    <glyph glyph-name="afii10085" unicode="&#x443;" horiz-adv-x="983" 
d="M389 33q0 12 -12 47l-361 915h244l189 -555q24 -67 59 -196h4q10 33 22.5 83t32.5 115l168 553h236l-252 -690q-176 -482 -338 -631q-115 -102 -244 -125l-53 187q86 23 164 88t125 164q16 33 16 45z" />
    <glyph glyph-name="afii10086" unicode="&#x444;" horiz-adv-x="1353" 
d="M1065 498q0 142 -71.5 243t-215.5 129v-745q143 29 215 130t72 243zM289 497q0 -142 73.5 -242.5t215.5 -129.5v745q-143 -29 -216 -130t-73 -243zM1139 129.5q-143 -132.5 -361 -149.5l2 -396h-205l3 393q-220 17 -363 151.5t-143 366.5t142 366t364 155l-3 442h205
l-2 -440q224 -21 364 -157t140 -367q0 -232 -143 -364.5z" />
    <glyph glyph-name="afii10087" unicode="&#x445;" horiz-adv-x="970" 
d="M950 0h-250l-129 209q-23 35 -45 77t-49 89h-4q-16 -29 -38.5 -71t-55.5 -95l-123 -209h-242l340 508l-327 487h245l125 -198q46 -73 92 -158h7q49 97 90 162l116 194h242l-330 -479z" />
    <glyph glyph-name="afii10088" unicode="&#x446;" horiz-adv-x="1146" 
d="M356 995v-817h406v817h221v-829l111 -4l-13 -490h-159l-11 328h-776v995h221z" />
    <glyph glyph-name="afii10089" unicode="&#x447;" horiz-adv-x="1079" 
d="M125 653v342h221v-319q0 -96 40 -149.5t149 -53.5t188 59v463h221v-1009h-221v409q-124 -82 -276 -82t-237 83t-85 257z" />
    <glyph glyph-name="afii10090" unicode="&#x448;" horiz-adv-x="1552" 
d="M356 995v-817h310v817h221v-817h309v817h221v-995h-1282v995h221z" />
    <glyph glyph-name="afii10091" unicode="&#x449;" horiz-adv-x="1581" 
d="M135 0v995h221v-817h310v817h221v-817h309v817h221v-829l111 -4l-12 -490h-160l-10 328h-1211z" />
    <glyph glyph-name="afii10092" unicode="&#x44a;" horiz-adv-x="1259" 
d="M889.5 477q-81.5 41 -169.5 41t-155 -12v-340q72 -10 125 -10t101.5 8t114 41.5t65.5 132t-81.5 139.5zM756 686q61 0 143 -16.5t186.5 -79.5t104.5 -230q0 -166 -119 -258q-148 -112 -444 -112q-85 0 -283 12v813h-309v180h530v-323q130 14 191 14z" />
    <glyph glyph-name="afii10093" unicode="&#x44b;" horiz-adv-x="1449" 
d="M1315 0h-221v995h221v-995zM475 156q47 0 94 8t85 28.5t61.5 55.5t23.5 111.5t-78 117.5t-158 41q-81 0 -147 -12v-340q72 -10 119 -10zM135 995h221v-323q129 14 188 14q58 0 137 -16.5t178 -79.5t99 -229q0 -371 -561 -371q-76 0 -262 12v993z" />
    <glyph glyph-name="afii10094" unicode="&#x44c;" horiz-adv-x="1056" 
d="M482 156q54 0 103.5 8t90.5 28.5t66.5 55.5t25.5 111.5t-84 117.5t-173 41t-155 -12v-340q72 -10 126 -10zM404 -10q-71 0 -269 12v993h223v-323q130 14 192 14q171 0 304 -79.5t133 -246.5q0 -168 -119 -258q-144 -112 -464 -112z" />
    <glyph glyph-name="afii10095" unicode="&#x44d;" horiz-adv-x="946" 
d="M647 580q-38 270 -329 270q-88 0 -205 -51l-47 153q128 64 331 64t340 -139.5t137 -378.5q0 -238 -143.5 -379.5t-396.5 -141.5q-162 0 -285 54l39 155q133 -41 225 -41q139 0 227.5 74t102.5 215h-461v146h465z" />
    <glyph glyph-name="afii10096" unicode="&#x44e;" horiz-adv-x="1472" 
d="M956 141q108 0 163 102t55 257q0 236 -79 293t-137 57t-100.5 -29.5t-69 -79t-39 -114t-12.5 -174.5t54.5 -211t162.5 -101h2zM356 995v-403h168q28 194 146.5 309t303.5 115t306 -141t121 -376q0 -236 -130.5 -379t-309.5 -143q-180 0 -299.5 119.5t-139.5 329.5h-166
v-426h-221v995h221z" />
    <glyph glyph-name="afii10097" unicode="&#x44f;" horiz-adv-x="1046" 
d="M381.5 813.5q-68.5 -40.5 -68.5 -115.5t74 -113t163 -38q88 0 140 4v289q-77 14 -158 14q-82 0 -150.5 -40.5zM911 0h-221v406h-104q-88 0 -166 -70q-56 -56 -95 -166t-73 -170h-232q37 47 71 140t77.5 194t169.5 127v6q-95 13 -175.5 75.5t-80.5 159.5q0 169 147 246
q115 64 313 64t369 -21v-991z" />
    <glyph glyph-name="uni0450" unicode="&#x450;" horiz-adv-x="1026" 
d="M748 602q0 117 -56 190q-56 72 -158 72t-170 -74t-77 -188h461zM958 568q0 -84 -8 -124h-663q4 -141 89 -218q85 -76 227 -76t265 47l35 -154q-141 -61 -334 -61q-233 0 -364 137t-131 365t130 381t330 153t313 -130q55 -62 83 -150q28 -86 28 -170zM635 1120h-154
l-248 297h224z" />
    <glyph glyph-name="afii10071" unicode="&#x451;" horiz-adv-x="1026" 
d="M748 602q0 117 -56 189.5t-158 72.5t-169.5 -73.5t-77.5 -188.5h461zM958 568q0 -82 -8 -124h-663q4 -141 89 -217.5t227 -76.5t265 47l35 -154q-141 -61 -334 -61q-232 0 -363.5 135.5t-131.5 366.5t130.5 382.5t329.5 151.5q200 0 283.5 -96.5t112 -184t28.5 -169.5z
M469 1246q0 -48 -31.5 -80.5t-79.5 -32.5t-80 33.5t-32 80.5t32.5 81t80.5 34t79 -34t31 -82zM854 1246q0 -48 -32 -80.5t-80 -32.5t-79.5 33.5t-31.5 80.5t32.5 81t80 34t79 -34t31.5 -82z" />
    <glyph glyph-name="afii10099" unicode="&#x452;" horiz-adv-x="1140" 
d="M168 1307v145h221v-145h461v-150h-461v-309h4q66 74 131.5 112.5t156.5 38.5q173 0 278 -164q104 -164 104 -407q0 -475 -234 -641q-87 -65 -223 -94l-43 176q47 16 86 34.5t84 65.5t77 157t32 226q0 233 -68 355q-67 108 -168 108t-184 -98q-33 -45 -33 -109v-608h-221
v1157h-160v150h160z" />
    <glyph glyph-name="afii10100" unicode="&#x453;" horiz-adv-x="802" 
d="M719 1413l-248 -297h-154l177 297h225zM770 995v-180h-414v-815h-221v995h635z" />
    <glyph glyph-name="afii10101" unicode="&#x454;" horiz-adv-x="942" 
d="M622 850q-128 0 -215.5 -75t-103.5 -195h473v-146h-471q14 -147 109.5 -218t230.5 -71q85 0 205 39l43 -157q-131 -50 -273 -50q-261 0 -404.5 140t-143.5 377t161.5 379.5t403.5 142.5q144 0 254 -43l-43 -168q-98 45 -226 45z" />
    <glyph glyph-name="afii10102" unicode="&#x455;" horiz-adv-x="823" 
d="M748 287q0 -141 -102 -224t-278 -83t-294 67l47 164q113 -70 244 -70q170 0 170 125q0 55 -37 91t-131 71q-266 98 -267 287q0 129 99 215t252 86t260 -60l-47 -157q-94 57 -184 57t-128.5 -32t-38.5 -82t35 -82.5t141 -71.5q259 -96 259 -301z" />
    <glyph glyph-name="afii10103" unicode="&#x456;" horiz-adv-x="499" 
d="M360 0h-221v995h221v-995zM249 1159q-58 0 -96 38t-38 95.5t39 94t96 36.5t97 -37t39 -95t-40 -95t-97 -37z" />
    <glyph glyph-name="afii10104" unicode="&#x457;" horiz-adv-x="499" 
d="M360 0h-221v995h221v-995zM170 1246q0 -48 -32 -80.5t-80 -32.5t-80.5 33.5t-32.5 80.5t33.5 81t81.5 34t79 -34t31 -82zM555 1246q0 -48 -31.5 -80.5t-79.5 -32.5t-80 33.5t-32 80.5t32.5 81t80 34t79 -34t31.5 -82z" />
    <glyph glyph-name="afii10105" unicode="&#x458;" horiz-adv-x="522" 
d="M387 96q0 -283 -114.5 -405.5t-338.5 -124.5l-22 174q68 4 116 20.5t93 81.5t45 324v829h221v-899zM276 1159q-58 0 -96.5 38t-38.5 95.5t39.5 94t97.5 36.5t97 -37t38 -95t-40 -95t-97 -37z" />
    <glyph glyph-name="afii10106" unicode="&#x459;" horiz-adv-x="1626" 
d="M1066 156q40 0 89 8t89 27.5t66.5 55.5t26.5 114.5t-78.5 117.5t-163.5 39t-163 -10v-346q94 -6 134 -6zM976 -10q-76 0 -265 12v813h-310v-225q0 -199 -42 -359t-149.5 -203.5t-178.5 -45.5l-27 178q63 16 100 49q61 49 79 146.5t18 242.5v397h731v-325q74 12 164 12
q196 0 328 -82t132 -260q0 -146 -109 -239q-109 -92 -252 -101.5t-219 -9.5z" />
    <glyph glyph-name="afii10107" unicode="&#x45a;" horiz-adv-x="1619" 
d="M1257 469q-74 39 -186 39q-42 0 -129 -10v-330q43 -6 108 -6q64 0 111 8t108.5 41t61.5 126t-74 132zM962 -12q-94 0 -241 14v465h-365v-467h-221v995h221v-360h365v360h221v-331q76 12 161 12q189 0 318 -83.5t129 -246.5t-106 -246q-114 -93 -251 -102.5t-231 -9.5z
" />
    <glyph glyph-name="afii10108" unicode="&#x45b;" horiz-adv-x="1167" 
d="M389 1157v-319h4q104 162 299 161q160 0 250 -113.5t90 -310.5v-575h-221v547q0 268 -201 268q-147 0 -184 -88t-37 -147v-580h-221v1157h-160v150h160v145h221v-145h416v-150h-416z" />
    <glyph glyph-name="afii10109" unicode="&#x45c;" horiz-adv-x="1009" 
d="M784 1413l-247 -297h-154l176 297h225zM356 995v-422h68l309 422h260l-397 -442q113 -18 183.5 -95t119.5 -198q44 -135 105 -260h-230q-43 88 -86 204t-108.5 168t-169.5 52h-54v-424h-221v995h221z" />
    <glyph glyph-name="uni045D" unicode="&#x45d;" horiz-adv-x="1157" 
d="M813 352q0 144 16 445h-10q-35 -92 -69 -160t-141 -278q-106 -210 -187 -359h-287v995h211v-352q0 -170 -14 -420l4 -4q39 78 77 153t76 152l246 471h287v-995h-209v352zM674 1098h-154l-248 297h224z" />
    <glyph glyph-name="afii10110" unicode="&#x45e;" horiz-adv-x="983" 
d="M490 1257q52 0 85 35t35 105h142q-10 -123 -81 -184.5t-188 -61.5t-181 63.5t-71 182.5h144q2 -70 32.5 -105t82.5 -35zM389 33q0 12 -12 47l-361 915h244l189 -555q24 -67 59 -196h4q10 33 22.5 83t32.5 115l168 553h236l-252 -690q-176 -482 -338 -631
q-115 -102 -244 -125l-53 187q86 23 164 88t125 164q16 33 16 45z" />
    <glyph glyph-name="afii10193" unicode="&#x45f;" horiz-adv-x="1118" 
d="M356 995v-821h406v821h221v-995h-324l-14 -338h-172l-14 338h-324v995h221z" />
    <glyph glyph-name="afii10050" unicode="&#x490;" horiz-adv-x="950" 
d="M371 1198v-1198h-224v1380h607l37 262h151l-22 -444h-549z" />
    <glyph glyph-name="afii10098" unicode="&#x491;" horiz-adv-x="829" 
d="M356 813v-813h-221v995h483l29 240h144l-13 -422h-422z" />
    <glyph glyph-name="palochkacyrillic" unicode="&#x4c0;" horiz-adv-x="516" 
d="M369 0h-222v1380h222v-1380z" />
    <glyph glyph-name="Zhebrevecyrillic" unicode="&#x4c1;" horiz-adv-x="1710" 
d="M750 778v602h213v-602h67l389 602h258l-485 -635q221 -22 314 -215q61 -120 103 -274q42 -153 87 -256h-223q-49 111 -103 313q-45 143 -119 223t-217 78h-71v-614h-213v614h-78q-205 0 -288 -182q-47 -99 -79 -227q-32 -127 -69 -205h-222q41 94 92 262t91 245
q39 77 82 123q89 96 237 118l-483 632h260l387 -602h70zM1104 1733q0 -113 -67 -182t-185 -69t-182 68q-66 66 -66 183h117q18 -133 131 -134q127 0 137 134h115z" />
    <glyph glyph-name="zhebrevecyrillic" unicode="&#x4c2;" horiz-adv-x="1400" 
d="M596 571v424h211v-424h55l273 424h247l-372 -444q102 -16 172 -90q70 -73 97 -149t41 -118q50 -145 75 -194h-221q-20 39 -40 98q-19 60 -50 148q-63 180 -240 180h-37v-426h-211v426h-39q-92 0 -151 -49t-103 -164q-21 -47 -39 -102t-43 -111h-215q44 99 107 289
q75 227 278 262l-371 444h246l273 -424h57zM950 1348q0 -113 -66 -182q-66 -68 -185 -68q-117 0 -183 66t-65 184h116q18 -133 131 -134q127 0 138 134h114z" />
    <glyph glyph-name="Abrevecyrillic" unicode="&#x4d0;" horiz-adv-x="1259" 
d="M807 575l-117 361q-10 29 -26 92t-43 168h-5q-25 -111 -65 -260l-115 -361h371zM1210 0h-235l-129 406h-449l-123 -406h-229l444 1380h275zM877 1733q0 -113 -67 -182q-66 -69 -184 -69t-184 68q-66 66 -65 183h117q18 -133 131 -134q127 0 137 134h115z" />
    <glyph glyph-name="abrevecyrillic" unicode="&#x4d1;" horiz-adv-x="1003" 
d="M655 496q-186 0 -277 -47t-91 -154q0 -78 43 -117t97 -39q54 -1 93 15q81 32 117 107q18 38 18 81v154zM649 643v19q0 197 -207 196q-147 0 -260 -74l-45 146q137 86 342 86q391 0 391 -412v-366q0 -154 15 -238h-199l-16 115h-6q-100 -137 -291 -138q-128 0 -218 84
q-89 84 -87 209q0 186 151 280q152 93 430 93zM725 1368q0 -114 -67 -182q-66 -68 -184 -68t-184 67t-65 183h117q18 -133 131 -133q127 0 137 133h115z" />
    <glyph glyph-name="Adieresiscyrillic" unicode="&#x4d2;" horiz-adv-x="1259" 
d="M807 575l-117 361q-10 29 -26 92t-43 168h-5q-25 -111 -65 -260l-115 -361h371zM1210 0h-235l-129 406h-449l-123 -406h-229l444 1380h275zM547 1596q0 -48 -32 -80t-79 -33q-47 0 -80 34q-32 35 -32 81t32 80q33 34 81 34t79 -34t31 -82zM932 1596q0 -48 -32 -80
t-80 -33q-48 0 -80 34q-32 35 -32 81t33 80t81 34t79 -34t31 -82z" />
    <glyph glyph-name="adieresiscyrillic" unicode="&#x4d3;" horiz-adv-x="1003" 
d="M655 496q-186 0 -277 -47t-91 -154q0 -78 43 -117t97 -39q54 -1 93 15q81 32 117 107q18 38 18 81v154zM649 643v19q0 197 -207 196q-147 0 -260 -74l-45 146q137 86 342 86q391 0 391 -412v-366q0 -154 15 -238h-199l-16 115h-6q-100 -137 -291 -138q-128 0 -218 84
q-89 84 -87 209q0 186 151 280q152 93 430 93zM286 1348q48 0 78 -34t31 -82t-31 -81t-79 -33t-80 34t-33 81t33 81t81 34zM671 1348q49 0 79 -34t30 -82t-32 -81t-79 -33q-48 0 -80 34t-32 81t33 81t81 34z" />
    <glyph glyph-name="Aiecyrillic" unicode="&#x4d4;" horiz-adv-x="1634" 
d="M803 627l-43 377q-4 39 -9 93t-14 126h-8q-49 -142 -82 -217l-160 -379h316zM1573 182v-182h-690l-56 449h-407l-193 -449h-227l604 1380h909v-182h-567l45 -395h506v-180h-477l53 -441h500z" />
    <glyph glyph-name="aiecyrillic" unicode="&#x4d5;" horiz-adv-x="1576" 
d="M657 489h-30q-342 0 -342 -200q0 -66 42 -107t100 -41q58 1 98 17q83 34 116 112q16 39 16 84v135zM1298 614q0 106 -54 180t-153 72q-99 0 -162 -72t-69 -180h438zM1507 578q0 -72 -6 -121l-641 2q0 -147 80 -229t219 -80q139 0 262 53l37 -154q-131 -70 -332 -69
q-129 0 -229 53t-143 151h-6q-106 -205 -363 -204q-138 0 -229 83q-90 83 -88 209q0 180 153 271q154 90 432 90v39q0 78 -58 132t-180 54t-229 -74l-49 144q150 90 320 90q244 0 317 -193h4q113 193 338 193q176 0 285 -132q51 -62 79 -148q28 -88 27 -160z" />
    <glyph glyph-name="Iebrevecyrillic" unicode="&#x4d6;" horiz-adv-x="1015" 
d="M942 0h-795v1380h766v-182h-544v-389h514v-182h-514v-445h573v-182zM795 1733q0 -113 -67 -182q-66 -69 -184 -69t-184 68q-66 66 -65 183h117q18 -133 131 -134q127 0 137 134h115z" />
    <glyph glyph-name="iebrevecyrillic" unicode="&#x4d7;" horiz-adv-x="1026" 
d="M748 602q0 117 -56 190q-56 72 -158 72t-170 -74t-77 -188h461zM958 568q0 -84 -8 -124h-663q4 -141 89 -218q85 -76 227 -76t265 47l35 -154q-141 -61 -334 -61q-233 0 -364 137t-131 365t130 381t330 153t313 -130q55 -62 83 -150q28 -86 28 -170zM766 1370
q0 -114 -67 -182t-185 -68t-182 67q-66 67 -66 183h117q18 -133 131 -133q127 0 137 133h115z" />
    <glyph glyph-name="Zhedieresiscyrillic" unicode="&#x4dc;" horiz-adv-x="1710" 
d="M750 778v602h213v-602h67l389 602h258l-485 -635q221 -22 314 -215q61 -120 103 -274q42 -153 87 -256h-223q-49 111 -103 313q-45 143 -119 223t-217 78h-71v-614h-213v614h-78q-205 0 -288 -182q-47 -99 -79 -227q-32 -127 -69 -205h-222q41 94 92 262t91 245
q39 77 82 123q89 96 237 118l-483 632h260l387 -602h70zM665 1712q49 0 79 -34t30 -82t-32 -80t-78 -33q-46 0 -80 34q-33 35 -33 81t33 80t81 34zM1050 1712q48 0 78 -34t31 -82q0 -48 -32 -80q-31 -32 -79 -33q-48 0 -80 34q-32 35 -32 81t33 80t81 34z" />
    <glyph glyph-name="zhedieresiscyrillic" unicode="&#x4dd;" horiz-adv-x="1400" 
d="M596 571v424h211v-424h55l273 424h247l-372 -444q102 -16 172 -90q70 -73 97 -149t41 -118q50 -145 75 -194h-221q-20 39 -40 98q-19 60 -50 148q-63 180 -240 180h-37v-426h-211v426h-39q-92 0 -151 -49t-103 -164q-21 -47 -39 -102t-43 -111h-215q44 99 107 289
q75 227 278 262l-371 444h246l273 -424h57zM621 1211q0 -48 -32 -81q-32 -32 -79 -32t-80 34t-33 80t33 81q33 34 81 34t79 -34t31 -82zM1006 1211q0 -48 -32 -81q-32 -32 -80 -32t-80 34t-32 80t33 81q33 34 81 34t79 -34t31 -82z" />
    <glyph glyph-name="Zedieresiscyrillic" unicode="&#x4de;" horiz-adv-x="1024" 
d="M468 1403q202 0 316 -94t115 -254q0 -127 -77 -213t-195 -115v-6q218 -33 296 -205q25 -58 25 -150t-46 -170t-121 -126q-142 -93 -356 -93t-368 89l56 170q153 -78 300 -77q148 1 225 64t77 181t-111 180q-85 47 -229 47h-92v168h92q129 0 213 63t84 158q0 96 -66 148
t-181 52t-282 -77l-49 157q172 103 374 103zM422 1619q0 -48 -32 -81t-79 -33t-80 34t-32 81q0 47 32 81q33 34 81 34t79 -34t31 -82zM807 1619q0 -48 -32 -81t-80 -33t-80 34t-31 81q0 47 32 81q33 34 81 34t79 -34t31 -82z" />
    <glyph glyph-name="zedieresiscyrillic" unicode="&#x4df;" horiz-adv-x="919" 
d="M602 289q0 153 -270 153h-105v140h103q113 0 174 41t61 101t-52 97t-154 37t-222 -67l-57 143q146 80 342 82q250 0 345 -142q34 -51 34 -112q-1 -61 -19 -97q-53 -102 -194 -135v-6q105 -13 183 -76q77 -63 77 -157q0 -93 -43 -153q-113 -157 -412 -161q-204 0 -344 80
l57 146q121 -66 248 -67q128 -1 188 43t60 110zM369 1232q0 -48 -32 -81t-79 -33t-80 34t-33 81t33 81t81 34t79 -34t31 -82zM754 1232q0 -48 -32 -81t-80 -33t-80 34t-32 81t33 81t81 34t79 -34t31 -82z" />
    <glyph glyph-name="Imacroncyrillic" unicode="&#x4e2;" horiz-adv-x="1345" 
d="M993 485q0 432 15 588l-4 2q-83 -184 -261 -487l-350 -588h-246v1380h205v-483q0 -416 -12 -627l6 -2q72 147 268 490l367 622h217v-1380h-205v485zM909 1483h-473v127h473v-127z" />
    <glyph glyph-name="imacroncyrillic" unicode="&#x4e3;" horiz-adv-x="1157" 
d="M813 352q0 144 16 445h-10q-35 -92 -69 -160t-141 -278q-106 -210 -187 -359h-287v995h211v-352q0 -170 -14 -420l4 -4q39 78 77 153t76 152l246 471h287v-995h-209v352zM815 1098h-473v127h473v-127z" />
    <glyph glyph-name="Idieresiscyrillic" unicode="&#x4e4;" horiz-adv-x="1345" 
d="M993 485q0 432 15 588l-4 2q-83 -184 -261 -487l-350 -588h-246v1380h205v-483q0 -416 -12 -627l6 -2q72 147 268 490l367 622h217v-1380h-205v485zM592 1596q0 -48 -32 -80t-79 -33q-47 0 -80 34q-33 35 -33 81t33 80t81 34t79 -34t31 -82zM977 1596q0 -48 -32 -80
t-80 -33q-48 0 -80 34q-31 35 -31 81t32 80q33 34 81 34t79 -34t31 -82z" />
    <glyph glyph-name="idieresiscyrillic" unicode="&#x4e5;" horiz-adv-x="1157" 
d="M813 352q0 144 16 445h-10q-35 -92 -69 -160t-141 -278q-106 -210 -187 -359h-287v995h211v-352q0 -170 -14 -420l4 -4q39 78 77 153t76 152l246 471h287v-995h-209v352zM498 1211q0 -48 -32 -81q-32 -32 -79 -32t-80 34t-33 80t33 81q33 34 81 34t79 -34t31 -82z
M883 1211q0 -48 -32 -81q-32 -32 -80 -32t-80 34t-32 80t33 81q33 34 81 34t79 -34t31 -82z" />
    <glyph glyph-name="Odieresiscyrillic" unicode="&#x4e6;" horiz-adv-x="1396" 
d="M983 307q107 151 107 384q0 232 -108 383t-286 151q-177 0 -285 -153t-108 -381t109 -382q109 -153 285 -153q178 0 286 151zM1325 695q0 -318 -173 -517t-456 -200t-453 196q-171 197 -171 509t176 516t459 204q282 0 450 -195t168 -513zM509 1735q49 0 79 -34t30 -82
t-32 -81t-78 -33q-47 0 -80 34t-33 81t33 81t81 34zM1004 1619q0 -48 -32 -81t-80 -33t-80 34t-32 81t33 81t81 34t79 -34t31 -82z" />
    <glyph glyph-name="odieresiscyrillic" unicode="&#x4e7;" horiz-adv-x="1118" 
d="M817 501q0 154 -71 254q-71 99 -188 99t-189 -101t-72 -260t72 -251q75 -101 189 -101t187 103q72 103 72 257zM1047 504q0 -115 -36 -212q-73 -197 -257 -276q-92 -39 -202 -39t-199 39q-177 77 -248 269q-33 95 -33 207q1 233 136 378q135 146 359 146q106 0 196 -37
q175 -73 249 -267q36 -94 35 -208zM370 1348q48 0 78 -34t31 -82q0 -48 -32 -81q-33 -33 -79 -33t-79 34t-33 81t33 81t81 34zM755 1348q49 0 79 -34t30 -82t-32 -81t-79 -33q-48 0 -80 34t-32 81t33 81t81 34z" />
    <glyph glyph-name="uni04EC" unicode="&#x4ec;" horiz-adv-x="1136" 
d="M351 162q216 0 338 126t138 328h-602v172h604q-17 192 -130 314q-113 121 -300 121q-133 0 -274 -56l-47 162q158 74 331 74q329 0 498 -210q158 -192 158 -515t-189 -511t-481 -190q-187 0 -336 60l41 172q129 -47 251 -47zM372 1735q48 0 78 -34t31 -82t-31 -81
t-79 -33t-80 34t-33 81t33 81t81 34zM757 1735q49 0 79 -34t30 -82t-32 -81t-79 -33q-48 0 -80 34t-32 81t33 81t81 34z" />
    <glyph glyph-name="uni04ED" unicode="&#x4ed;" horiz-adv-x="946" 
d="M182 434v146h465q-37 266 -317 270q-107 0 -217 -51l-47 153q124 62 328 63q205 1 344 -140q138 -141 137 -377q-1 -237 -145 -379t-396 -142q-162 0 -285 54l39 155q129 -40 246 -40q118 -1 207 73q88 74 102 215h-461zM381 1232q0 -48 -32 -81t-79 -33t-80 34t-32 81
q0 47 32 81q33 34 81 34t79 -34t31 -82zM766 1232q0 -48 -32 -81t-80 -33t-80 34t-31 81q0 47 32 81q33 34 81 34t79 -34t31 -82z" />
    <glyph glyph-name="Umacroncyrillic" unicode="&#x4ee;" horiz-adv-x="1085" 
d="M182 162h41q150 0 238 188q14 39 -6 86l-447 946h246l225 -542q15 -34 50 -127q34 -94 61 -164q33 85 104 297l174 536h226q-67 -182 -125 -329t-90 -233q-182 -504 -306 -675q-137 -174 -310 -174q-85 0 -128 15q4 47 10 90t11 90q12 -4 26 -4zM788 1485h-473v127h473
v-127z" />
    <glyph glyph-name="umacroncyrillic" unicode="&#x4ef;" horiz-adv-x="983" 
d="M389 33q0 12 -12 47l-361 915h244l189 -555q14 -39 28 -88t31 -108h4q10 33 23 83q12 50 32 115l168 553h236l-252 -690q-176 -482 -338 -631q-115 -102 -244 -125l-53 187q86 22 164 88t125 164q16 33 16 45zM731 1098h-473v127h473v-127z" />
    <glyph glyph-name="Udieresiscyrillic" unicode="&#x4f0;" horiz-adv-x="1085" 
d="M182 162h41q150 0 238 188q14 39 -6 86l-447 946h246l225 -542q15 -34 50 -127q34 -94 61 -164q33 85 104 297l174 536h226q-67 -182 -125 -329t-90 -233q-182 -504 -306 -675q-137 -174 -310 -174q-85 0 -128 15q4 47 10 90t11 90q12 -4 26 -4zM471 1598q0 -48 -32 -80
t-79 -33q-48 0 -80 34q-32 35 -32 81t33 80t81 34t78 -34q31 -34 31 -82zM747 1714q49 0 79 -34t30 -82t-32 -80t-80 -33q-48 0 -80 34q-32 35 -31 81q0 46 33 80t81 34z" />
    <glyph glyph-name="udieresiscyrillic" unicode="&#x4f1;" horiz-adv-x="983" 
d="M389 33q0 12 -12 47l-361 915h244l189 -555q14 -39 28 -88t31 -108h4q10 33 23 83q12 50 32 115l168 553h236l-252 -690q-176 -482 -338 -631q-115 -102 -244 -125l-53 187q86 22 164 88t125 164q16 33 16 45zM414 1211q0 -48 -32 -81q-32 -32 -79 -32t-80 34t-33 80
t33 81q33 34 81 34t79 -34t31 -82zM799 1211q0 -48 -32 -81q-32 -32 -80 -32t-80 34t-32 80t33 81q33 34 81 34t79 -34t31 -82z" />
    <glyph glyph-name="Uhungarumlautcyrillic" unicode="&#x4f2;" horiz-adv-x="1085" 
d="M182 162h41q150 0 238 188q14 39 -6 86l-447 946h246l225 -542q15 -34 50 -127q34 -94 61 -164q33 85 104 297l174 536h226q-67 -182 -125 -329t-90 -233q-182 -504 -306 -675q-137 -174 -310 -174q-85 0 -128 15q4 47 10 90t11 90q12 -4 26 -4zM569 1772l-217 -287h-129
l152 287h194zM881 1772l-217 -287h-132l152 287h197z" />
    <glyph glyph-name="uhungarumlautcyrillic" unicode="&#x4f3;" horiz-adv-x="983" 
d="M389 33q0 12 -12 47l-361 915h244l189 -555q14 -39 28 -88t31 -108h4q10 33 23 83q12 50 32 115l168 553h236l-252 -690q-176 -482 -338 -631q-115 -102 -244 -125l-53 187q86 22 164 88t125 164q16 33 16 45zM512 1384l-217 -286h-129l151 286h195zM823 1384l-217 -286
h-131l152 286h196z" />
    <glyph glyph-name="Chedieresiscyrillic" unicode="&#x4f4;" horiz-adv-x="1257" 
d="M135 922v458h219v-419q0 -137 72 -208t213 -71t250 74v624h221v-1394h-219v606q-196 -92 -346 -90q-283 0 -376 222q-34 81 -34 198zM543 1596q0 -48 -32 -80t-79 -33q-47 0 -80 34q-33 35 -33 81t33 80t81 34t79 -34t31 -82zM928 1596q0 -48 -32 -80t-80 -33
q-48 0 -80 34q-32 35 -32 81t33 80t81 34t79 -34t31 -82z" />
    <glyph glyph-name="chedieresiscyrillic" unicode="&#x4f5;" horiz-adv-x="1079" 
d="M346 676q0 -96 40 -150t150 -53q110 0 187 59v463h221v-1009h-221v409q-124 -82 -276 -82t-237 83t-85 257v342h221v-319zM455 1211q0 -48 -32 -81q-32 -32 -79 -32t-80 34t-33 80t33 81q33 34 81 34t79 -34t31 -82zM840 1211q0 -48 -32 -81q-32 -32 -80 -32t-80 34
t-32 80t33 81q33 34 81 34t79 -34t31 -82z" />
    <glyph glyph-name="Yerudieresiscyrillic" unicode="&#x4f8;" horiz-adv-x="1566" 
d="M1401 0h-221v1380h221v-1380zM367 166q55 -10 127 -10q144 0 234 73q89 73 88 209q-1 137 -86 204t-228 69q-82 0 -135 -11v-534zM147 1380h220v-506q80 13 180 13q214 0 357 -110t143 -326q0 -261 -204 -377q-155 -88 -455 -88q-116 0 -241 16v1378zM585 1712
q49 0 79 -34t30 -82t-32 -80t-78 -33q-47 0 -80 34q-33 35 -33 81t33 80t81 34zM970 1712q48 0 78 -34t31 -82t-31 -80t-80 -33q-48 0 -80 34q-32 35 -32 81t33 80t81 34z" />
    <glyph glyph-name="yerudieresiscyrillic" unicode="&#x4f9;" horiz-adv-x="1449" 
d="M1315 0h-221v995h221v-995zM475 156q178 0 241 92q24 35 23 90q0 99 -90 145q-68 35 -148 35q-79 0 -145 -12v-340q72 -10 119 -10zM135 995h221v-323q129 14 188 14q58 0 137 -16q163 -33 240 -159q37 -65 37 -157q-1 -158 -114 -252q-138 -112 -448 -112q-78 0 -261 12
v993zM536 1327q48 0 78 -34t31 -82q0 -48 -32 -81q-33 -32 -79 -32t-79 34t-33 80t33 81q33 34 81 34zM921 1327q49 0 79 -34t30 -82t-32 -81q-32 -32 -80 -32t-79 34q-32 34 -32 80t33 81q33 34 81 34z" />
    <glyph glyph-name="uni0A00" unicode="&#xa00;" horiz-adv-x="483" 
 />
    <glyph glyph-name="Aringbelow" unicode="&#x1e00;" horiz-adv-x="1259" 
d="M807 575l-117 361q-18 55 -69 260h-5q-20 -88 -65 -260l-115 -361h371zM1210 0h-235l-129 406h-449l-123 -406h-229l444 1380h275zM628 -385q36 -1 62 25t25 62q0 36 -26 62q-25 26 -61 25q-36 0 -62 -26q-26 -25 -26 -61t26 -62t62 -25zM823 -299q0 -82 -56 -138
q-56 -55 -138 -56q-81 -1 -139 57t-58 139q0 82 56 138q56 55 139 56q82 1 139 -57t57 -139z" />
    <glyph glyph-name="aringbelow" unicode="&#x1e01;" horiz-adv-x="1003" 
d="M655 342v154q-369 6 -368 -201q0 -78 43 -117q42 -39 112 -39t142 53t71 150zM649 662q0 197 -207 196q-147 0 -260 -74l-45 146q139 86 342 86q391 0 391 -412v-366q1 -150 15 -238h-199l-16 115h-6q-102 -137 -291 -138q-141 1 -223 87t-82 206q0 182 152 279
q153 96 429 94v19zM476 -233q-36 0 -62 -26t-25 -62q0 -35 26 -61q25 -26 61 -26t62 26t25 61q0 36 -25 62q-26 26 -62 26zM475 -516q-82 0 -138 57t-56 139t57 138q57 57 138 57q80 1 138 -57t58 -138t-58 -138t-139 -58z" />
    </font>
</defs>
</svg>
